<?xml version="1.0" standalone="no"?>
<!DOCTYPE svg PUBLIC "-//W3C//DTD SVG 1.1//EN" "http://www.w3.org/Graphics/SVG/1.1/DTD/svg11.dtd" >
<svg xmlns="http://www.w3.org/2000/svg" xmlns:xlink="http://www.w3.org/1999/xlink" version="1.1">
<metadata>
Created by FontForge 20170731 at Wed May 12 14:46:33 2021
 By Aleksey,,,
Copyright (c) 2016 by Fatype. All rights reserved.
</metadata>
<defs>
<font id="BatonTurbo-Bold" horiz-adv-x="1226" >
  <font-face 
    font-family="Baton Turbo"
    font-weight="700"
    font-stretch="normal"
    units-per-em="2048"
    panose-1="2 11 8 3 3 2 2 6 2 3"
    ascent="1536"
    descent="-512"
    x-height="1020"
    cap-height="1434"
    bbox="-307 -567 2890 2275"
    underline-thickness="0"
    underline-position="0"
    unicode-range="U+000D-FB04"
  />
<missing-glyph horiz-adv-x="1126" 
d="M1024 0h-922v1434h922v-1434zM205 1331v-1229h717v1229h-717z" />
    <glyph glyph-name="ff" unicode="ff" horiz-adv-x="1382" 
d="M1135 0h-293v776h-353v-776h-292v776h-152v244h152v96q0 186 102 281q42 38 106 59t132 21q127 0 221 -50l-86 -223q-46 31 -90 31q-93 0 -93 -102v-113h353v94q0 190 104 283q43 40 110 61t136 21q217 0 317 -119l-151 -176q-53 53 -119 53q-49 0 -76.5 -28.5
t-27.5 -84.5v-104h221v-244h-221v-776z" />
    <glyph glyph-name="fi" unicode="fi" horiz-adv-x="1271" 
d="M987 1149q-72 0 -121 49t-49 121q0 69 49.5 118.5t120.5 49.5q73 0 122.5 -49t49.5 -119q0 -72 -49.5 -121t-122.5 -49zM1135 0h-295v776h-351v-776h-292v776h-152v244h152v94q0 192 102 283q44 38 107.5 59t130.5 21q82 0 190 -25l-59 -240q-52 23 -86 23
q-43 0 -68 -26.5t-25 -80.5v-108h646v-1020z" />
    <glyph glyph-name="fl" unicode="fl" horiz-adv-x="1271" 
d="M1135 0h-295v1470h295v-1470zM711 1020v-244h-222v-776h-292v776h-152v244h152v94q0 192 102 283q44 38 107.5 59t130.5 21q82 0 190 -25l-59 -240q-52 23 -86 23q-43 0 -68 -26.5t-25 -80.5v-108h222z" />
    <glyph glyph-name="f_f_i" unicode="ffi" horiz-adv-x="1914" 
d="M1632 1149q-72 0 -121 49t-49 121q0 69 49 118.5t121 49.5q73 0 122.5 -49t49.5 -119q0 -72 -49.5 -121t-122.5 -49zM1135 0h-293v776h-353v-776h-292v776h-152v244h152v96q0 186 102 281q42 38 106 59t132 21q127 0 221 -50l-86 -223q-46 31 -90 31q-93 0 -93 -102v-113
h353v94q0 192 102 283q44 38 107.5 59t130.5 21q82 0 190 -25l-59 -240q-52 23 -86 23q-43 0 -67.5 -26.5t-24.5 -80.5v-108h645v-1020h-295v776h-350v-776z" />
    <glyph glyph-name="f_f_l" unicode="ffl" horiz-adv-x="1914" 
d="M1780 0h-295v1470h295v-1470zM1135 0h-293v776h-353v-776h-292v776h-152v244h152v96q0 186 102 281q42 38 106 59t132 21q113 0 192 -33l-65 -236q-49 27 -86 27q-41 0 -65 -25t-24 -77v-113h353v94q0 192 102 283q44 38 107.5 59t130.5 21q82 0 190 -25l-59 -240
q-52 23 -86 23q-43 0 -67.5 -26.5t-24.5 -80.5v-108h221v-244h-221v-776z" />
    <glyph glyph-name="f_j" unicode="fj" horiz-adv-x="1271" 
d="M987 1149q-72 0 -121 49t-49 121q0 69 49.5 118.5t120.5 49.5q73 0 122.5 -49t49.5 -119q0 -72 -49.5 -121t-122.5 -49zM786 -416q-95 0 -175.5 30.5t-129.5 86.5l162 188q46 -53 107 -53q40 0 65 23.5t25 66.5v850h-351v-776h-292v776h-152v244h152v94q0 192 102 283
q44 38 107.5 59t130.5 21q82 0 190 -25l-59 -240q-52 23 -86 23q-43 0 -68 -26.5t-25 -80.5v-108h646v-1092q0 -185 -101 -264q-103 -80 -248 -80z" />
    <glyph glyph-name="f_b" unicode="fb" horiz-adv-x="1929" 
d="M1393 -16q-88 0 -160.5 34t-118.5 93v-111h-274v1470h295v-516q106 88 258 88q92 0 174 -34t146.5 -98t102 -166.5t37.5 -229.5q0 -128 -38 -230.5t-103 -167t-146.5 -98.5t-172.5 -34zM711 1020v-244h-222v-776h-292v776h-152v244h152v94q0 192 102 283q44 38 107.5 59
t130.5 21q82 0 190 -25l-59 -240q-52 23 -86 23q-43 0 -68 -26.5t-25 -80.5v-108h222zM1339 246q92 0 153.5 68t61.5 200q0 129 -62 197.5t-153 68.5q-87 0 -145 -55t-59 -147v-127q1 -92 59.5 -148.5t144.5 -56.5z" />
    <glyph glyph-name=".notdef" horiz-adv-x="1126" 
d="M1024 0h-922v1434h922v-1434zM205 1331v-1229h717v1229h-717z" />
    <glyph glyph-name=".null" horiz-adv-x="0" 
 />
    <glyph glyph-name="nonmarkingreturn" horiz-adv-x="682" 
 />
    <glyph glyph-name="NULL" horiz-adv-x="1024" 
 />
    <glyph glyph-name="NULL" horiz-adv-x="1024" 
 />
    <glyph glyph-name="CR" unicode="&#xd;" horiz-adv-x="1024" 
 />
    <glyph glyph-name="space" unicode=" " horiz-adv-x="483" 
 />
    <glyph glyph-name="exclam" unicode="!" horiz-adv-x="630" 
d="M442 469h-254l-36 965h327zM315 -25q-75 0 -129.5 56t-54.5 131t54.5 129.5t129.5 54.5t130 -54.5t55 -129.5t-55 -131t-130 -56z" />
    <glyph glyph-name="quotedbl" unicode="&#x22;" horiz-adv-x="905" 
d="M350 909h-221l-37 525h295zM776 909h-221l-37 525h295z" />
    <glyph glyph-name="numbersign" unicode="#" horiz-adv-x="1468" 
d="M584 516h233l68 320h-234zM979 0h-270l57 272h-234l-57 -272h-270l57 272h-217l53 244h215l68 320h-217l51 243h217l57 273h271l-58 -273h234l57 273h271l-58 -273h217l-51 -243h-217l-68 -320h220l-54 -244h-217z" />
    <glyph glyph-name="dollar" unicode="$" horiz-adv-x="1298" 
d="M436 985q0 -57 32 -92t122 -57v292q-71 -12 -112.5 -49.5t-41.5 -93.5zM901 375q0 116 -160 153v-303q73 12 116.5 51.5t43.5 98.5zM741 -12v-209h-151v209q-219 18 -345 138t-132 335l288 28q3 -219 189 -262v328l-60 10q-198 31 -290.5 137.5t-92.5 268.5
q0 163 121 272q120 108 322 123v188h151v-190q188 -15 314 -119q125 -101 125 -289l-287 -26q0 164 -152 194v-317l43 -8q203 -37 306.5 -142t103.5 -251q0 -173 -123 -287q-125 -116 -330 -131z" />
    <glyph glyph-name="percent" unicode="%" horiz-adv-x="2127" 
d="M506 623q-169 0 -280 113t-111 306q0 189 111 302.5t280 113.5q167 0 276 -112q113 -113 113 -304q0 -194 -113 -307q-109 -112 -276 -112zM506 840q68 0 108.5 53.5t40.5 148.5q0 91 -41 145t-108 54q-68 0 -109 -53t-41 -146q0 -95 41.5 -148.5t108.5 -53.5zM1624 -20
q-169 0 -280 113t-111 306q0 189 111 302.5t280 113.5q167 0 277 -113q112 -112 112 -303q0 -195 -112 -307q-109 -112 -277 -112zM1624 197q69 0 109.5 53.5t40.5 148.5q0 91 -41.5 145t-108.5 54q-68 0 -108.5 -53t-40.5 -146q0 -95 41 -148.5t108 -53.5zM698 -25
l-190 134l922 1351l192 -133z" />
    <glyph glyph-name="ampersand" unicode="&#x26;" horiz-adv-x="1382" 
d="M1313 156l-201 -183l-139 148q-176 -146 -402 -146q-218 0 -355.5 116.5t-137.5 309.5q0 242 266 398q-69 84 -97 149t-28 137q0 163 120 269t300 106q179 0 298.5 -100.5t119.5 -267.5q0 -132 -76 -211q-79 -83 -215 -162l199 -205q75 140 114 246l244 -98
q-102 -237 -172 -340zM496 1077q0 -41 21.5 -80.5t76.5 -99.5q104 55 145 93.5t41 92.5q0 57 -39 94t-104 37t-103 -39t-38 -98zM594 231q120 0 207 72l-289 307q-135 -77 -135 -198q0 -78 58 -129.5t159 -51.5z" />
    <glyph glyph-name="quotesingle" unicode="'" horiz-adv-x="479" 
d="M350 909h-221l-37 525h295z" />
    <glyph glyph-name="parenleft" unicode="(" horiz-adv-x="780" 
d="M752 -195l-201 -180q-205 193 -329 463.5t-124 577.5q0 298 124 570t329 464l201 -182q-162 -167 -259.5 -381t-97.5 -471q0 -493 357 -861z" />
    <glyph glyph-name="parenright" unicode=")" horiz-adv-x="780" 
d="M29 1518l200 180q205 -193 329 -463.5t124 -577.5q0 -298 -124 -570t-329 -464l-200 182q162 167 259 381t97 471q0 494 -356 861z" />
    <glyph glyph-name="asterisk" unicode="*" horiz-adv-x="921" 
d="M463 901l-148 -205l-168 121l148 205l-242 78l66 196l239 -77v251h207v-251l238 77l65 -196l-239 -76l149 -207l-168 -121z" />
    <glyph glyph-name="plus" unicode="+" horiz-adv-x="1196" 
d="M1108 831v-256h-375v-397h-270v397h-375v256h375v390h270v-390h375z" />
    <glyph glyph-name="comma" unicode="," horiz-adv-x="575" 
d="M233 -365l-153 117q114 152 156 234q-58 18 -95 65.5t-37 112.5q0 75 55 128.5t130 53.5q80 0 132 -55t52 -141q0 -69 -21 -141t-61.5 -142.5t-74.5 -120t-83 -111.5z" />
    <glyph glyph-name="hyphen" unicode="-" horiz-adv-x="780" 
d="M707 414h-631v256h631v-256z" />
    <glyph glyph-name="period" unicode="." horiz-adv-x="575" 
d="M289 -25q-75 0 -130 56t-55 131t55 129.5t130 54.5t129.5 -54.5t54.5 -129.5t-54.5 -131t-129.5 -56z" />
    <glyph glyph-name="slash" unicode="/" horiz-adv-x="913" 
d="M313 -123h-288l575 1679h289z" />
    <glyph glyph-name="zero" unicode="0" horiz-adv-x="1335" 
d="M668 -25q-265 0 -419.5 189t-154.5 555q0 182 43.5 324.5t121 232.5t181 136t228.5 46q126 0 230 -46t181 -136t119.5 -232t42.5 -325q0 -184 -42 -326.5t-118.5 -233.5t-181 -137.5t-231.5 -46.5zM668 258q128 0 194 121.5t66 339.5q0 221 -68 339t-192 118
q-128 0 -194 -116t-66 -341q0 -217 66.5 -339t193.5 -122z" />
    <glyph glyph-name="one" unicode="1" horiz-adv-x="868" 
d="M705 1434v-1434h-302v1090l-335 -150l-15 285l445 209h207z" />
    <glyph glyph-name="two" unicode="2" horiz-adv-x="1144" 
d="M1063 270v-270h-993v221l546 551q75 78 104.5 130.5t29.5 109.5q0 74 -51.5 121t-133.5 47q-88 0 -140.5 -53t-53.5 -144h-293q4 218 141.5 346.5t351.5 128.5q221 0 357.5 -124.5t136.5 -313.5q0 -108 -47.5 -203t-161.5 -201l-369 -346h576z" />
    <glyph glyph-name="three" unicode="3" horiz-adv-x="1185" 
d="M573 -20q-104 0 -195.5 28t-163 81.5t-114.5 139.5t-45 193h295q10 -82 71 -130t152 -48q94 0 154.5 51t60.5 135q0 86 -67 137t-178 51h-189v252h197q102 0 158.5 47t56.5 123q0 69 -54 113.5t-139 44.5q-83 0 -138 -43t-62 -117h-289q5 128 72.5 224.5t177 146
t244.5 49.5q229 0 362 -115t133 -280q0 -104 -53.5 -181.5t-140.5 -121.5q103 -45 164 -134t61 -212q0 -191 -148.5 -312.5t-382.5 -121.5z" />
    <glyph glyph-name="four" unicode="4" horiz-adv-x="1210" 
d="M1163 586v-264h-194v-322h-293v322h-627v231l449 881h315l-434 -848h303v264h287v-264h194z" />
    <glyph glyph-name="five" unicode="5" horiz-adv-x="1185" 
d="M575 -25q-206 0 -337 101q-129 102 -164 250l276 90q20 -78 84.5 -126t143.5 -48q96 0 159.5 60.5t63.5 158.5q0 94 -65.5 157.5t-164.5 63.5q-123 0 -211 -96h-256l80 848h863v-271h-605l-32 -272q94 53 215 53q216 0 350 -131q135 -132 135 -344q0 -115 -42 -209
t-114.5 -156t-169.5 -95.5t-209 -33.5z" />
    <glyph glyph-name="six" unicode="6" horiz-adv-x="1234" 
d="M1159 465q0 -211 -149 -350.5t-371 -139.5q-139 0 -255.5 59t-190.5 187q-101 181 -101 443q0 476 199 665q140 129 375 129q191 0 320.5 -90.5t174.5 -251.5l-274 -76q-24 71 -82 112.5t-143 41.5q-108 0 -173 -70q-80 -89 -94 -319q94 125 291 125q107 0 196.5 -36
t149.5 -99t93.5 -148t33.5 -182zM641 242q93 0 155 62t62 151t-62 151t-155 62t-154 -62t-61 -151q0 -90 59.5 -151.5t155.5 -61.5z" />
    <glyph glyph-name="seven" unicode="7" horiz-adv-x="1067" 
d="M1018 1182l-555 -1182h-344l561 1163h-629v271h967v-252z" />
    <glyph glyph-name="eight" unicode="8" horiz-adv-x="1212" 
d="M604 -25q-228 0 -373 122.5t-145 310.5q0 109 53 198t144 148q-160 108 -160 297q0 177 137 292t346 115q213 0 349.5 -115t136.5 -292q0 -181 -158 -293q91 -56 142.5 -145.5t51.5 -204.5q0 -186 -150 -309.5t-374 -123.5zM606 1206q-86 0 -140 -48t-54 -122
q0 -73 56 -120.5t138 -47.5q86 0 141.5 47t55.5 121t-55.5 122t-141.5 48zM606 229q99 0 162 56t63 141q0 82 -64 137t-161 55q-98 0 -161.5 -55t-63.5 -137t64.5 -139.5t160.5 -57.5z" />
    <glyph glyph-name="nine" unicode="9" horiz-adv-x="1234" 
d="M594 1192q-93 0 -155 -62t-62 -151t62 -151t155 -62t154 62t61 151q0 90 -59.5 151.5t-155.5 61.5zM569 -25q-191 0 -320.5 90.5t-174.5 251.5l274 76q24 -71 82 -112t143 -41q108 0 172 69q81 94 95 320q-94 -125 -291 -125q-107 0 -196.5 36t-149.5 99t-93.5 148
t-33.5 182q0 211 149 350t371 139q139 0 255.5 -59t190.5 -187q101 -181 101 -442q0 -477 -199 -666q-140 -129 -375 -129z" />
    <glyph glyph-name="colon" unicode=":" horiz-adv-x="602" 
d="M301 -25q-75 0 -129.5 56t-54.5 131t54.5 129.5t129.5 54.5t129.5 -54.5t54.5 -129.5t-54.5 -131t-129.5 -56zM301 672q-75 0 -129.5 55.5t-54.5 130.5t54.5 129.5t129.5 54.5t129.5 -54.5t54.5 -129.5t-54.5 -130.5t-129.5 -55.5z" />
    <glyph glyph-name="semicolon" unicode=";" horiz-adv-x="602" 
d="M246 -365l-154 117q114 152 156 234q-58 18 -94.5 65.5t-36.5 112.5q0 75 54.5 128.5t129.5 53.5q80 0 132 -55t52 -141q0 -69 -21 -141.5t-61 -142t-74.5 -119.5t-82.5 -112zM301 672q-75 0 -129.5 55.5t-54.5 130.5t54.5 129.5t129.5 54.5t129.5 -54.5t54.5 -129.5
t-54.5 -130.5t-129.5 -55.5z" />
    <glyph glyph-name="less" unicode="&#x3c;" horiz-adv-x="976" 
d="M879 446v-284l-793 385v256l793 385v-275l-500 -233z" />
    <glyph glyph-name="equal" unicode="=" horiz-adv-x="1204" 
d="M1092 823h-979v244h979v-244zM1092 338h-979v244h979v-244z" />
    <glyph glyph-name="greater" unicode="&#x3e;" horiz-adv-x="976" 
d="M891 547l-793 -385v274l500 234l-500 233v285l793 -385v-256z" />
    <glyph glyph-name="question" unicode="?" horiz-adv-x="1095" 
d="M614 469h-303v90q0 54 4.5 89t13 61t29.5 47.5t44.5 38.5t68.5 43l57 32q102 58 138 96.5t36 92.5q0 60 -49.5 98.5t-124.5 38.5q-84 0 -137 -47.5t-57 -136.5l-293 26q3 132 69.5 229t174.5 145t243 48q226 0 358 -109.5t132 -289.5q0 -155 -86 -238q-80 -77 -193 -135
l-65 -33q-37 -19 -48.5 -40t-11.5 -72v-74zM465 -25q-75 0 -129.5 56t-54.5 131t54.5 129.5t129.5 54.5t129.5 -54.5t54.5 -129.5t-54.5 -131t-129.5 -56z" />
    <glyph glyph-name="at" unicode="@" horiz-adv-x="1912" 
d="M958 -393q-176 0 -335 68.5t-274.5 186.5t-183 284t-67.5 352q0 183 65.5 346.5t180 282t277.5 188t350 69.5q185 0 344 -64.5t268.5 -175t171.5 -260.5t62 -319q0 -143 -47 -259t-140 -186.5t-215 -70.5q-174 0 -264 121q-38 -56 -102 -86.5t-142 -30.5
q-172 0 -285.5 118t-113.5 327q0 109 36 195t94 135.5t123 74.5t130 25q132 0 207 -78l10 70h238v-570q0 -50 23.5 -79t60.5 -29q78 0 126 84.5t48 218.5q0 104 -27.5 200t-82 176.5t-130 141t-176.5 94t-217 33.5q-147 0 -272 -55t-210 -149t-132.5 -220t-47.5 -268
q0 -191 82.5 -350t231.5 -252t335 -93q234 0 404 107l96 -168q-221 -135 -500 -135zM934 295q48 0 90.5 29.5t60.5 83.5v178q-18 45 -57 72.5t-94 27.5q-72 0 -115 -51t-43 -137q0 -96 44.5 -149.5t113.5 -53.5z" />
    <glyph glyph-name="A" unicode="A" horiz-adv-x="1411" 
d="M702 1112h-4l-145 -453h295zM1391 0h-332l-137 391h-445l-135 -391h-319l505 1434h357z" />
    <glyph glyph-name="B" unicode="B" horiz-adv-x="1310" 
d="M700 0h-550v1434h571q217 0 340 -97.5t123 -269.5q0 -95 -48 -171.5t-128 -113.5q100 -38 161.5 -128.5t61.5 -211.5q0 -212 -140.5 -327t-390.5 -115zM711 1180h-256v-285h268q73 0 116.5 38t43.5 105t-48.5 104.5t-123.5 37.5zM455 649v-395h241q101 0 162.5 53
t61.5 144q0 92 -64 145t-166 53h-235z" />
    <glyph glyph-name="C" unicode="C" horiz-adv-x="1470" 
d="M768 -25q-138 0 -262.5 50.5t-220 143.5t-151.5 236t-56 316q0 135 36.5 253t101.5 206t152 151t190 95t214 32q248 0 412.5 -124.5t216.5 -340.5l-299 -67q-20 91 -105 170q-81 78 -227 78q-158 0 -266.5 -124.5t-108.5 -328.5q0 -214 108.5 -336.5t268.5 -122.5
q143 0 233 83.5t117 209.5l299 -61q-44 -242 -221 -379q-178 -140 -432 -140z" />
    <glyph glyph-name="D" unicode="D" horiz-adv-x="1427" 
d="M659 0h-509v1434h512q107 0 206.5 -27t187 -84t152.5 -139t102.5 -199.5t37.5 -257.5q0 -144 -38 -265t-103 -205t-153.5 -143t-188 -86.5t-206.5 -27.5zM455 1163v-893h192q174 0 278.5 121.5t104.5 335.5q0 200 -108 317q-107 119 -281 119h-186z" />
    <glyph glyph-name="E" unicode="E" 
d="M455 270h688v-270h-993v1434h980v-271h-675v-252h626v-270h-626v-371z" />
    <glyph glyph-name="F" unicode="F" horiz-adv-x="1138" 
d="M1018 905v-270h-563v-635h-305v1434h929v-271h-624v-258h563z" />
    <glyph glyph-name="G" unicode="G" horiz-adv-x="1533" 
d="M1454 737v-69q0 -139 -37 -255t-101 -195.5t-150 -135t-182.5 -81.5t-201.5 -26q-142 0 -269 50.5t-224 143t-154 235t-57 315.5q0 170 56.5 311.5t152.5 234t223 143t270 50.5q237 0 410 -115.5t235 -320.5l-292 -86q-28 92 -121 164q-92 74 -232 74q-163 0 -274 -123.5
t-111 -331.5q0 -215 110.5 -339t276.5 -124q133 0 227 60t126 165h-324v256h643z" />
    <glyph glyph-name="H" unicode="H" horiz-adv-x="1531" 
d="M1382 0h-307v702h-618v-702h-307v1434h307v-461h618v461h307v-1434z" />
    <glyph glyph-name="I" unicode="I" horiz-adv-x="606" 
d="M457 0h-307v1434h307v-1434z" />
    <glyph glyph-name="J" unicode="J" horiz-adv-x="1116" 
d="M496 -20q-201 0 -329.5 109.5t-152.5 318.5l295 49q8 -88 54 -140.5t135 -52.5q78 0 124 51t46 150v969h307v-967q0 -243 -130.5 -365t-348.5 -122z" />
    <glyph glyph-name="K" unicode="K" horiz-adv-x="1392" 
d="M1382 0h-358l-418 743l-151 -147v-596h-305v1434h305v-486l501 486h402l-518 -482z" />
    <glyph glyph-name="L" unicode="L" horiz-adv-x="1110" 
d="M1069 0h-919v1434h307v-1164h612v-270z" />
    <glyph glyph-name="M" unicode="M" horiz-adv-x="1708" 
d="M807 563l-354 400v-963h-303v1434h301l407 -476l408 476h293v-1434h-302v965l-358 -402h-92z" />
    <glyph glyph-name="N" unicode="N" horiz-adv-x="1511" 
d="M1362 0h-297l-614 901v-901h-301v1434h296l615 -914v914h301v-1434z" />
    <glyph glyph-name="O" unicode="O" horiz-adv-x="1568" 
d="M784 -25q-143 0 -270.5 50t-224.5 142.5t-154 235t-57 316.5q0 169 57 310t154 234t224.5 144t270.5 51t271 -50.5t224.5 -143t153 -234t56.5 -311.5q0 -173 -57.5 -316t-155 -235t-224 -142.5t-268.5 -50.5zM784 262q166 0 278 122t112 335q0 205 -113 330t-277 125
q-167 0 -278 -123t-111 -332q0 -211 113 -334t276 -123z" />
    <glyph glyph-name="P" unicode="P" horiz-adv-x="1239" 
d="M692 1163h-237v-327h241q81 0 127.5 43.5t46.5 117.5t-49.5 120t-128.5 46zM721 565h-266v-565h-305v1434h585q130 0 231 -49.5t161.5 -149t60.5 -236.5q0 -136 -64 -236t-168.5 -149t-234.5 -49z" />
    <glyph glyph-name="Q" unicode="Q" horiz-adv-x="1568" 
d="M1460 92l-182 -180l-139 154q-163 -91 -355 -91q-143 0 -270.5 50t-224.5 142.5t-154 235t-57 316.5q0 169 57 310t154 234t224.5 144t270.5 51t271 -50.5t224.5 -143t153 -234t56.5 -311.5q0 -294 -158 -492zM784 262q79 0 148 29l-221 235l176 164l225 -235
q62 108 62 264q0 205 -113 330t-277 125q-167 0 -278 -123t-111 -332q0 -211 113 -334t276 -123z" />
    <glyph glyph-name="R" unicode="R" horiz-adv-x="1329" 
d="M727 1163h-274v-305h278q76 0 122 41.5t46 114.5q0 67 -48 108t-124 41zM1315 0h-352l-330 594h-180v-594h-303v1434h608q196 0 325 -112.5t129 -299.5q0 -90 -25.5 -159.5t-84.5 -129.5q-60 -63 -152 -100z" />
    <glyph glyph-name="S" unicode="S" horiz-adv-x="1259" 
d="M635 -23q-252 0 -408 132q-155 131 -164 383l302 26q4 -143 80 -219t192 -76q105 0 172.5 47t67.5 127q0 73 -65 120.5t-210 86.5l-145 41q-342 94 -342 397q0 185 141 299q141 117 375 117q236 0 377 -112q142 -109 145 -291v-25l-299 -31v19q-1 96 -63.5 145t-161.5 49
q-98 0 -155.5 -42t-57.5 -109q0 -57 41.5 -91t156.5 -69l164 -49q204 -62 304 -166.5t100 -257.5q0 -198 -152 -326q-149 -125 -395 -125z" />
    <glyph glyph-name="T" unicode="T" 
d="M1186 1434v-271h-418v-1163h-307v1163h-420v271h1145z" />
    <glyph glyph-name="U" unicode="U" horiz-adv-x="1433" 
d="M715 -23q-269 0 -423.5 144.5t-154.5 425.5v887h307v-873q0 -140 74.5 -219.5t198.5 -79.5q128 0 200 78t72 219v875h307v-885q0 -279 -156 -425.5t-425 -146.5z" />
    <glyph glyph-name="V" unicode="V" horiz-adv-x="1363" 
d="M856 0h-350l-483 1434h319l342 -1061h6l342 1061h309z" />
    <glyph glyph-name="W" unicode="W" horiz-adv-x="1832" 
d="M1468 0h-290l-263 657l-260 -657h-293l-331 1434h311l221 -996l266 676h185l266 -676l221 996h299z" />
    <glyph glyph-name="X" unicode="X" horiz-adv-x="1345" 
d="M1335 0h-354l-307 510l-318 -510h-344l465 735l-438 699h354l285 -465l283 465h346l-433 -680z" />
    <glyph glyph-name="Y" unicode="Y" horiz-adv-x="1249" 
d="M778 735v-735h-307v735l-463 699h357l268 -420l270 420h338z" />
    <glyph glyph-name="Z" unicode="Z" horiz-adv-x="1210" 
d="M1149 270v-270h-1096v211l690 952h-655v271h1042v-211l-686 -953h705z" />
    <glyph glyph-name="bracketleft" unicode="[" horiz-adv-x="763" 
d="M723 -317h-573v1923h573v-224h-281v-1476h281v-223z" />
    <glyph glyph-name="backslash" unicode="\" horiz-adv-x="927" 
d="M901 -123h-301l-575 1679h301z" />
    <glyph glyph-name="bracketright" unicode="]" horiz-adv-x="763" 
d="M41 1606h573v-1923h-573v223h281v1476h-281v224z" />
    <glyph glyph-name="asciicircum" unicode="^" horiz-adv-x="1116" 
d="M1069 780h-299l-217 387l-215 -387h-289l381 654h256z" />
    <glyph glyph-name="underscore" unicode="_" horiz-adv-x="940" 
d="M920 -250h-900v189h900v-189z" />
    <glyph glyph-name="grave" unicode="`" horiz-adv-x="573" 
d="M502 1145h-236l-227 289v4h332l131 -289v-4z" />
    <glyph glyph-name="a" unicode="a" horiz-adv-x="1114" 
d="M496 211q36 0 69 13t82 42l55 35l3 193l-164 -45q-93 -26 -132.5 -53.5t-39.5 -76.5q0 -52 38.5 -80t88.5 -28zM707 94l-7 -6q-126 -108 -274 -108q-145 0 -247.5 88.5t-102.5 232.5q0 126 84.5 201t261.5 121l283 73q-7 58 -52 88.5t-116 30.5q-147 0 -189 -123l-258 70
q42 138 166 212.5t293 74.5q207 0 324.5 -97t117.5 -278v-674h-282z" />
    <glyph glyph-name="b" unicode="b" horiz-adv-x="1224" 
d="M688 -16q-88 0 -160 34t-118 93v-111h-275v1470h295v-516q106 88 258 88q92 0 174.5 -34t146.5 -98t102 -166.5t38 -229.5q0 -128 -38.5 -231t-103 -167t-146.5 -98t-173 -34zM635 246q92 0 153.5 68t61.5 200q0 129 -62 197.5t-153 68.5q-87 0 -145.5 -55t-59.5 -147
v-127q1 -92 59.5 -148.5t145.5 -56.5z" />
    <glyph glyph-name="c" unicode="c" horiz-adv-x="1103" 
d="M578 -23q-98 0 -188.5 35t-163 100.5t-115.5 170t-43 233.5q0 126 44 229t117 167.5t163.5 99.5t187.5 35q184 0 307.5 -88.5t163.5 -229.5l-273 -82q-51 139 -194 139q-88 0 -152.5 -71t-64.5 -199q0 -130 64 -203t155 -73q149 0 207 155l266 -94q-53 -158 -180 -241
t-301 -83z" />
    <glyph glyph-name="d" unicode="d" horiz-adv-x="1224" 
d="M590 246q85 0 143.5 56t59.5 151v125q-1 91 -58.5 146.5t-144.5 55.5q-92 0 -153.5 -68t-61.5 -198q0 -132 61 -200t154 -68zM1087 0h-274v98q-114 -114 -276 -114q-91 0 -173 34t-146.5 98t-103 167t-38.5 231q0 127 38 229.5t102.5 166.5t146 98t172.5 34
q147 0 258 -86v514h294v-1470z" />
    <glyph glyph-name="e" unicode="e" horiz-adv-x="1136" 
d="M571 819q-80 0 -138.5 -49.5t-65.5 -138.5h405q-4 91 -62 139.5t-139 48.5zM858 346l201 -135q-63 -111 -180 -172.5t-279 -61.5q-107 0 -202 35.5t-169 101.5t-117.5 170t-43.5 232q0 122 41.5 224t112.5 168t163 102.5t195 36.5q208 0 344 -136q136 -133 145 -364
q2 -59 2 -105h-711q7 -106 79.5 -169.5t174.5 -63.5q78 0 142 35.5t102 101.5z" />
    <glyph glyph-name="f" unicode="f" horiz-adv-x="737" 
d="M711 1020v-244h-222v-776h-292v776h-152v244h152v94q0 190 104 283q43 40 110 61t136 21q217 0 317 -119l-151 -176q-53 53 -119 53q-49 0 -77 -28.5t-28 -84.5v-104h222z" />
    <glyph glyph-name="g" unicode="g" horiz-adv-x="1069" 
d="M348 672q0 -66 45.5 -108t114.5 -42t114.5 42t45.5 108q0 63 -45.5 105t-114.5 42q-71 0 -115.5 -41.5t-44.5 -105.5zM995 -92q0 -148 -129 -234q-125 -88 -331 -88h-46q-196 0 -323 74q-127 71 -127 215q0 159 182 225q-69 43 -69 123q0 91 100 150q-78 46 -123 123.5
t-45 177.5q0 110 61 194.5t157 126t208 41.5h2h2q42 0 132 -8t179 -8h211v-215l-143 2q35 -65 35 -137q0 -173 -116.5 -269t-301.5 -96q-47 0 -68.5 -15.5t-21.5 -37.5q0 -25 25 -37.5t85 -13.5l119 -2q169 -1 257.5 -77.5t88.5 -213.5zM494 -203h47q188 0 188 99
q0 96 -182 96h-60q-184 -3 -184 -101q0 -94 191 -94z" />
    <glyph glyph-name="h" unicode="h" horiz-adv-x="1214" 
d="M621 780q-59 0 -111 -35.5t-80 -99.5v-645h-295v1470h295v-573q49 69 125.5 108t173.5 39q163 0 263 -102t100 -301v-641h-295v582q0 101 -46.5 149.5t-129.5 48.5z" />
    <glyph glyph-name="i" unicode="i" horiz-adv-x="567" 
d="M283 1149q-72 0 -121 49t-49 121q0 69 49.5 118.5t120.5 49.5q73 0 122.5 -49t49.5 -119q0 -72 -49.5 -121t-122.5 -49zM430 0h-295v1020h295v-1020z" />
    <glyph glyph-name="j" unicode="j" horiz-adv-x="567" 
d="M283 1149q-72 0 -121 49t-49 121q0 69 49.5 118.5t120.5 49.5q73 0 122.5 -49t49.5 -119q0 -72 -49.5 -121t-122.5 -49zM135 1020h295v-1092q0 -186 -100 -264q-103 -80 -248 -80q-95 0 -175.5 30.5t-129.5 86.5l162 188q46 -53 106 -53q40 0 65 23.5t25 66.5v1094z" />
    <glyph glyph-name="k" unicode="k" horiz-adv-x="1159" 
d="M1143 0h-338l-270 504l-109 -98v-406h-291v1470h291v-751l334 301h379l-381 -338z" />
    <glyph glyph-name="l" unicode="l" horiz-adv-x="567" 
d="M430 0h-295v1470h295v-1470z" />
    <glyph glyph-name="m" unicode="m" horiz-adv-x="1832" 
d="M612 778q-60 0 -107.5 -36t-74.5 -99v-643h-295v1020h295v-115q96 137 287 137q95 0 170.5 -38t122.5 -111q117 149 323 149q172 0 275.5 -103t103.5 -294v-645h-295v588q0 92 -44.5 141t-119.5 49q-61 0 -109 -36.5t-73 -98.5v-643h-295v588q0 92 -44.5 141t-119.5 49z
" />
    <glyph glyph-name="n" unicode="n" horiz-adv-x="1214" 
d="M621 780q-59 0 -111 -35.5t-80 -99.5v-645h-295v1020h295v-123q49 69 125.5 108t173.5 39q163 0 263 -102t100 -301v-641h-295v582q0 101 -46.5 149.5t-129.5 48.5z" />
    <glyph glyph-name="o" unicode="o" horiz-adv-x="1183" 
d="M592 -23q-104 0 -197.5 35.5t-167 101.5t-116.5 170t-43 232q0 125 44.5 227.5t118.5 167.5t167.5 100.5t193.5 35.5q104 0 197.5 -35.5t167 -100.5t116.5 -167.5t43 -227.5t-44.5 -229t-118 -170.5t-167 -103t-194.5 -36.5zM592 238q96 0 160.5 73.5t64.5 204.5
q0 127 -65.5 198.5t-159.5 71.5t-159.5 -71t-65.5 -199q0 -129 66 -203.5t159 -74.5z" />
    <glyph glyph-name="p" unicode="p" horiz-adv-x="1224" 
d="M635 246q91 0 153 68.5t62 197.5q0 132 -61.5 200t-153.5 68q-87 0 -145.5 -55t-59.5 -147v-127q1 -92 59.5 -148.5t145.5 -56.5zM688 -16q-147 0 -258 96v-469h-295v1409h275v-98q102 120 278 120q92 0 174.5 -34t146.5 -98.5t102 -167t38 -230.5q0 -127 -38.5 -229.5
t-103 -166.5t-146.5 -98t-173 -34z" />
    <glyph glyph-name="q" unicode="q" horiz-adv-x="1224" 
d="M1087 1020v-1409h-294v461q-109 -88 -256 -88q-91 0 -173 34t-146.5 98t-103 167t-38.5 231q0 127 38 229.5t102.5 166.5t146 98t172.5 34q170 0 278 -114v92h274zM590 246q85 0 143.5 56t59.5 151v125q-1 91 -58.5 146.5t-144.5 55.5q-92 0 -153.5 -68t-61.5 -198
q0 -132 61 -200t154 -68z" />
    <glyph glyph-name="r" unicode="r" horiz-adv-x="835" 
d="M592 768q-52 0 -96.5 -30t-65.5 -76v-662h-295v1020h295v-119q38 60 94.5 97.5t124.5 37.5q103 0 178 -49l-98 -260q-65 41 -137 41z" />
    <glyph glyph-name="s" unicode="s" horiz-adv-x="991" 
d="M492 -20q-184 0 -299.5 76.5t-153.5 222.5l250 71q47 -153 203 -153q67 0 109 24.5t42 71.5q0 48 -54 74t-157 41q-168 28 -260 101.5t-92 211.5q0 146 121 235q126 91 307 91q175 0 279.5 -75t138.5 -200l-250 -63q-33 122 -170 122q-66 0 -105 -27t-39 -71
q0 -20 10 -35t25.5 -25t44.5 -18t55 -13t70 -11q81 -13 142.5 -35.5t113.5 -59.5t79.5 -95t27.5 -134q0 -149 -123 -237q-125 -90 -315 -90z" />
    <glyph glyph-name="t" unicode="t" horiz-adv-x="768" 
d="M647 268l107 -192q-108 -90 -267 -90q-143 0 -231 81t-88 244l2 465h-145v244h147v272h287v-272h254v-244h-256v-436q0 -113 92 -113q47 0 98 41z" />
    <glyph glyph-name="u" unicode="u" horiz-adv-x="1202" 
d="M1067 0h-295v125q-106 -145 -295 -145q-153 0 -254 94q-100 93 -100 297v649h295v-588q0 -97 47.5 -143.5t122.5 -46.5q55 0 104.5 33.5t79.5 95.5v649h295v-1020z" />
    <glyph glyph-name="v" unicode="v" horiz-adv-x="1064" 
d="M1051 1020l-375 -1020h-289l-373 1020h291l232 -678l229 678h285z" />
    <glyph glyph-name="w" unicode="w" horiz-adv-x="1484" 
d="M1176 0h-242l-193 432l-192 -432h-246l-278 1020h290l156 -621l164 396h223l158 -389l164 614h280z" />
    <glyph glyph-name="x" unicode="x" horiz-adv-x="1056" 
d="M1040 0h-319l-195 336l-198 -336h-314l328 516l-319 504h317l188 -315l193 315h309l-315 -488z" />
    <glyph glyph-name="y" unicode="y" horiz-adv-x="1021" 
d="M1016 1020l-590 -1409h-287l234 571l-367 838h301l215 -522l203 522h291z" />
    <glyph glyph-name="z" unicode="z" horiz-adv-x="974" 
d="M905 244v-244h-835v178l462 598h-454v244h819v-178l-463 -598h471z" />
    <glyph glyph-name="braceleft" unicode="{" horiz-adv-x="827" 
d="M592 -322q-138 0 -232 70t-94 260v424l-16 92l-189 35v170l189 35l16 92v424q0 190 94 260t232 70q54 0 116.5 -2t67.5 -2v-224q-113 0 -166 -32t-53 -121v-406q0 -66 -22.5 -109t-77.5 -71q57 -25 78.5 -67.5t21.5 -110.5v-406q0 -89 53 -121t166 -32v-223
q-5 0 -67.5 -2.5t-116.5 -2.5z" />
    <glyph glyph-name="bar" unicode="|" horiz-adv-x="589" 
d="M432 -287h-274v1803h274v-1803z" />
    <glyph glyph-name="braceright" unicode="}" horiz-adv-x="827" 
d="M236 -322q-54 0 -117 2.5t-68 2.5v223q113 0 166 32t53 121v406q0 65 23 108.5t78 71.5q-57 25 -79 67.5t-22 110.5v406q0 89 -53 121t-166 32v224q5 0 68 2t117 2q135 0 229 -70q96 -72 96 -260v-424l17 -92l188 -35v-170l-188 -35l-17 -92v-424q0 -188 -96 -260
q-94 -70 -229 -70z" />
    <glyph glyph-name="asciitilde" unicode="~" horiz-adv-x="1079" 
d="M727 446q-52 0 -108.5 24t-96.5 53t-84.5 53t-75.5 24q-45 0 -74 -33t-36 -98l-195 35q2 63 19.5 120t50.5 107.5t91 80.5t134 30q51 0 107.5 -24t97 -53t85.5 -53t75 -24q45 0 74 34t36 99l195 -35q-2 -50 -12.5 -97t-33.5 -92t-55.5 -78t-82.5 -53t-111 -20z" />
    <glyph glyph-name="exclamdown" unicode="&#xa1;" horiz-adv-x="630" 
d="M315 1051q75 0 130 -56t55 -131t-55 -129.5t-130 -54.5t-129.5 54.5t-54.5 129.5t54.5 131t129.5 56zM188 557h254l37 -946h-327z" />
    <glyph glyph-name="cent" unicode="&#xa2;" horiz-adv-x="1204" 
d="M864 399l254 -88q-44 -141 -153 -225t-260 -98v-209h-152v211q-90 13 -168.5 52.5t-141 103.5t-98.5 160.5t-36 213.5q0 113 36.5 208t99 159t141.5 104t167 53v195h152v-192q160 -17 265.5 -105.5t139.5 -216.5l-260 -74q-40 122 -145 144v-557q117 24 159 161zM395 520
q0 -110 43 -179t115 -95v542q-72 -25 -115 -92.5t-43 -175.5z" />
    <glyph glyph-name="sterling" unicode="&#xa3;" horiz-adv-x="1267" 
d="M1151 254v-254h-1014v254h154q115 85 115 184q0 64 -41 144h-238v223h123q-35 99 -35 168q0 192 133.5 308t335.5 116q215 0 341 -111.5t140 -314.5l-299 -13q-1 83 -50 130t-128 47q-78 0 -123 -43.5t-45 -118.5q0 -80 43 -168h387v-223h-274q20 -70 20 -113
q0 -62 -28 -119.5t-78 -95.5h561z" />
    <glyph glyph-name="yen" unicode="&#xa5;" horiz-adv-x="1325" 
d="M1124 418v-185h-309v-233h-305v233h-309v185h309v123h-309v186h274l-428 645h354l271 -422l270 422h336l-428 -645h274v-186h-309v-123h309z" />
    <glyph glyph-name="brokenbar" unicode="&#xa6;" horiz-adv-x="589" 
d="M432 778h-274v738h274v-738zM432 -287h-274v779h274v-779z" />
    <glyph glyph-name="section" unicode="&#xa7;" horiz-adv-x="1138" 
d="M494 487l143 -67q56 12 88.5 46t32.5 79q0 43 -23 73t-78 56l-168 78q-51 -13 -78.5 -46.5t-27.5 -80.5q0 -87 111 -138zM530 -311q-221 0 -340.5 113.5t-121.5 324.5l276 29q2 -110 48.5 -174t142.5 -64q64 0 107.5 32.5t43.5 82.5q0 53 -37 84t-141 80l-174 82
q-123 59 -182.5 133t-59.5 180q0 102 56.5 174t140.5 108q-105 98 -105 236q0 162 120 263.5t290 101.5q184 0 293 -103q108 -102 108 -250v-26l-247 -31v22q-4 79 -44 118.5t-106 39.5q-59 0 -99 -32t-40 -87q0 -48 34 -75t138 -74l145 -66q144 -65 211.5 -145t67.5 -201
q0 -99 -55.5 -169.5t-139.5 -106.5q109 -96 109 -236q0 -161 -125 -262q-123 -102 -314 -102z" />
    <glyph glyph-name="dieresis" unicode="&#xa8;" horiz-adv-x="880" 
d="M659 1159q-61 0 -105 44t-44 106q0 60 44 103.5t105 43.5t104.5 -43.5t43.5 -103.5q0 -62 -43.5 -106t-104.5 -44zM221 1159q-61 0 -105 44t-44 106q0 60 44 103.5t105 43.5t104.5 -43.5t43.5 -103.5q0 -62 -43.5 -106t-104.5 -44z" />
    <glyph glyph-name="copyright" unicode="&#xa9;" horiz-adv-x="1691" 
d="M846 -25q-202 0 -374 98.5t-273 270t-101 375.5q0 202 101 373t273 269.5t374 98.5q151 0 289 -58.5t238 -157t159 -236t59 -289.5q0 -153 -59 -291t-159 -237.5t-238 -157.5t-289 -58zM846 135q159 0 291.5 77.5t209 212t76.5 294.5q0 159 -76.5 293t-209.5 211t-291 77
q-159 0 -291.5 -77t-209.5 -211t-77 -293q0 -160 77 -294.5t209.5 -212t291.5 -77.5zM848 309q-163 0 -274 114t-111 304q0 187 111 293t274 106q135 0 230 -71t120 -193l-199 -39q-14 52 -54.5 84.5t-96.5 32.5q-69 0 -118.5 -55.5t-49.5 -157.5q0 -114 49 -172.5
t119 -58.5q63 0 101.5 45t51.5 114l209 -18q-20 -162 -117.5 -245t-244.5 -83z" />
    <glyph glyph-name="ordfeminine" unicode="&#xaa;" horiz-adv-x="804" 
d="M371 913q31 0 86 25l30 14l2 105l-106 -27q-42 -11 -62 -25.5t-20 -39.5t20.5 -38.5t49.5 -13.5zM500 807l-17 -10q-89 -60 -180 -60q-96 0 -161.5 56.5t-65.5 146.5q0 87 58 141.5t181 83.5l174 41q-4 32 -33 51t-73 19q-98 0 -121 -72l-184 62q24 83 113 137.5
t206 54.5q148 0 234 -67t86 -189v-454h-217v59z" />
    <glyph glyph-name="guillemotleft" unicode="&#xab;" horiz-adv-x="1183" 
d="M604 207l-192 -158l-369 463l369 461l188 -154l-248 -303zM1118 207l-192 -158l-369 463l369 461l188 -154l-248 -303z" />
    <glyph glyph-name="registered" unicode="&#xae;" horiz-adv-x="1099" 
d="M551 549q-188 0 -320.5 132.5t-132.5 319.5q0 92 35.5 176t96 144.5t144.5 96.5t177 36q186 0 318 -133t132 -320t-132 -319.5t-318 -132.5zM551 649q144 0 244 103t100 249t-100 249.5t-244 103.5t-245 -104t-101 -249t101 -248.5t245 -103.5zM555 1124h-53v-77h53
q43 0 43 38q0 18 -12 28.5t-31 10.5zM760 784h-142l-81 164h-35v-164h-127v441h209q63 0 106 -39t43 -99q0 -38 -19 -69.5t-52 -50.5z" />
    <glyph glyph-name="overscore" unicode="&#xaf;" horiz-adv-x="751" 
d="M645 1202h-539v199h539v-199z" />
    <glyph glyph-name="degree" unicode="&#xb0;" horiz-adv-x="763" 
d="M381 842q-131 0 -219 88q-90 90 -90 219q0 127 90 217q93 90 219 90q129 0 219 -90q92 -89 92 -217q0 -130 -92 -219q-91 -88 -219 -88zM381 1008q60 0 99.5 41.5t39.5 99.5t-39.5 99.5t-99.5 41.5q-59 0 -99 -41.5t-40 -99.5t40 -99.5t99 -41.5z" />
    <glyph glyph-name="plusminus" unicode="&#xb1;" horiz-adv-x="1196" 
d="M1108 969v-254h-375v-303h-270v303h-375v254h375v299h270v-299h375zM1108 31h-1020v254h1020v-254z" />
    <glyph glyph-name="twosuperior" unicode="&#xb2;" horiz-adv-x="776" 
d="M711 780v-184h-656v154l355 311q41 37 56 62t15 53q0 37 -25 60.5t-69 23.5t-70 -27t-26 -70h-232q3 131 99 209q94 76 235 76q151 0 234 -80q86 -80 86 -186q0 -67 -27 -118.5t-98 -111.5l-199 -172h322z" />
    <glyph glyph-name="threesuperior" unicode="&#xb3;" horiz-adv-x="780" 
d="M383 584q-152 0 -244.5 69.5t-93.5 196.5h229q1 -43 32 -66.5t77 -23.5t75 23.5t29 66.5q0 45 -38 68.5t-93 23.5h-100v172h102q57 0 86 23.5t29 60.5q0 33 -24 54.5t-66 21.5q-39 0 -66.5 -23t-27.5 -59h-226q0 115 95 186q94 70 229 70q149 0 230 -67t81 -169
q0 -58 -33.5 -103.5t-89.5 -72.5q66 -26 104 -76t38 -120q0 -97 -84 -178q-84 -78 -250 -78z" />
    <glyph glyph-name="acute" unicode="&#xb4;" horiz-adv-x="573" 
d="M307 1145h-235v4l131 289h332v-4z" />
    <glyph glyph-name="paragraph" unicode="&#xb6;" horiz-adv-x="1333" 
d="M852 1227h-160v-1227h-252v674q-158 9 -266 117q-106 109 -106 262q0 159 111 270t274 111h804v-207h-155v-1227h-250v1227z" />
    <glyph glyph-name="middot" unicode="&#xb7;" horiz-adv-x="534" 
d="M268 532q-75 0 -129.5 56t-54.5 131t54.5 129.5t129.5 54.5t130 -54.5t55 -129.5t-55 -131t-130 -56z" />
    <glyph glyph-name="cedilla" unicode="&#xb8;" horiz-adv-x="550" 
d="M229 -453q-87 0 -166 23l37 135q74 -18 119 -18q90 0 90 55q0 30 -27.5 45.5t-70.5 15.5q-16 0 -48.5 -3.5t-39.5 -4.5l51 238h162l-39 -109q79 -2 132.5 -46.5t53.5 -131.5q0 -97 -69 -148t-185 -51z" />
    <glyph glyph-name="onesuperior" unicode="&#xb9;" horiz-adv-x="581" 
d="M475 596h-235v600l-197 -68l-14 203l290 103h156v-838z" />
    <glyph glyph-name="ordmasculine" unicode="&#xba;" horiz-adv-x="872" 
d="M436 727q-105 0 -191.5 40t-141 124t-54.5 199q0 86 32 156t86.5 113.5t123 67t145.5 23.5q78 0 147 -23t123 -66.5t85.5 -113.5t31.5 -157q0 -115 -54.5 -199t-141 -124t-191.5 -40zM436 942q60 0 97.5 40.5t37.5 107.5q0 66 -37.5 105.5t-97.5 39.5t-97.5 -39.5
t-37.5 -105.5t38.5 -107t96.5 -41z" />
    <glyph glyph-name="guillemotright" unicode="&#xbb;" horiz-adv-x="1183" 
d="M66 815l192 158l369 -463l-369 -461l-188 154l247 303zM580 815l192 158l369 -463l-369 -461l-188 154l247 303z" />
    <glyph glyph-name="onequarter" unicode="&#xbc;" horiz-adv-x="1896" 
d="M528 -25l-190 134l922 1351l192 -133zM520 596h-235v600l-197 -68l-14 203l291 103h155v-838zM1823 356v-182h-129v-174h-211v174h-426v162l280 502h234l-275 -482h193v160h205v-160h129z" />
    <glyph glyph-name="onehalf" unicode="&#xbd;" horiz-adv-x="1927" 
d="M520 596h-235v600l-197 -68l-14 203l291 103h155v-838zM1817 184v-184h-656v154l355 311q41 37 56 62t15 53q0 37 -25 60.5t-69 23.5t-70 -27t-26 -70h-232q3 131 99 209q94 76 235 76q151 0 234 -80q86 -80 86 -186q0 -67 -27 -118.5t-98 -111.5l-199 -172h322zM528 -25
l-190 134l922 1351l192 -133z" />
    <glyph glyph-name="threequarters" unicode="&#xbe;" horiz-adv-x="2041" 
d="M428 584q-152 0 -244.5 69.5t-93.5 196.5h229q1 -43 32 -66.5t77 -23.5t75 23.5t29 66.5q0 45 -38 68.5t-93 23.5h-100v172h102q57 0 86 23.5t29 60.5q0 33 -24 54.5t-66 21.5q-39 0 -66.5 -23t-27.5 -59h-225q0 116 94 186t229 70q149 0 230 -67t81 -169
q0 -58 -33 -103.5t-89 -72.5q65 -26 103 -76t38 -120q0 -97 -84 -178q-84 -78 -250 -78zM674 -25l-191 134l922 1351l192 -133zM1968 356v-182h-129v-174h-211v174h-426v162l281 502h233l-274 -482h192v160h205v-160h129z" />
    <glyph glyph-name="questiondown" unicode="&#xbf;" horiz-adv-x="1095" 
d="M631 1051q75 0 129.5 -56t54.5 -131t-54.5 -129.5t-129.5 -54.5t-130 54.5t-55 129.5t55 131t130 56zM479 557h303v-82q0 -87 -13 -131.5t-42.5 -72.5t-103.5 -72l-56 -33q-105 -60 -140.5 -95t-35.5 -87q0 -57 50.5 -95.5t125.5 -38.5q85 0 138.5 47t54.5 132l295 -27
q-3 -131 -70.5 -227t-175.5 -142.5t-242 -46.5q-228 0 -360 111q-131 107 -131 285q0 60 17 111t40.5 85.5t64.5 68t74.5 53.5t83.5 46l66 35q35 19 46 39.5t11 71.5v65z" />
    <glyph glyph-name="Agrave" unicode="&#xc0;" horiz-adv-x="1411" 
d="M702 1112h-4l-145 -453h295zM1391 0h-332l-137 391h-445l-135 -391h-319l505 1434h357zM844 1554h-236l-227 289v4h332l131 -288v-5z" />
    <glyph glyph-name="Aacute" unicode="&#xc1;" horiz-adv-x="1411" 
d="M702 1112h-4l-145 -453h295zM1391 0h-332l-137 391h-445l-135 -391h-319l505 1434h357zM817 1554h-235v5l131 288h331v-4z" />
    <glyph glyph-name="Acircumflex" unicode="&#xc2;" horiz-adv-x="1411" 
d="M702 1112h-4l-145 -453h295zM1391 0h-332l-137 391h-445l-135 -391h-319l505 1434h357zM700 1681l-303 -157v215l312 170l307 -170v-215z" />
    <glyph glyph-name="Atilde" unicode="&#xc3;" horiz-adv-x="1411" 
d="M702 1112h-4l-145 -453h295zM1391 0h-332l-137 391h-445l-135 -391h-319l505 1434h357zM836 1571q-45 0 -89 19.5t-80.5 39t-62.5 19.5q-32 0 -52 -20.5t-22 -53.5l-155 20q0 102 53 179q52 79 147 79q45 0 89 -19.5t81 -38.5t64 -19q71 0 74 75l155 -22q0 -100 -53 -180
q-54 -78 -149 -78z" />
    <glyph glyph-name="Adieresis" unicode="&#xc4;" horiz-adv-x="1411" 
d="M702 1112h-4l-145 -453h295zM1391 0h-332l-137 391h-445l-135 -391h-319l505 1434h357zM926 1569q-62 0 -106 44t-44 105q0 60 44.5 104t105.5 44t104 -44t43 -104q0 -62 -43 -105.5t-104 -43.5zM487 1569q-61 0 -105 43.5t-44 105.5q0 60 44 104t105 44t104.5 -44
t43.5 -104q0 -62 -43.5 -105.5t-104.5 -43.5z" />
    <glyph glyph-name="Aring" unicode="&#xc5;" horiz-adv-x="1411" 
d="M702 1112h-4l-145 -453h295zM1391 0h-332l-137 391h-445l-135 -391h-319l505 1434h357zM707 1526q-79 0 -134 53.5t-55 132.5q0 78 55.5 131t133.5 53t133 -53t55 -131q0 -79 -54.5 -132.5t-133.5 -53.5zM707 1636q31 0 52 22t21 54q0 31 -21 52.5t-52 21.5t-52.5 -21.5
t-21.5 -52.5q0 -32 21.5 -54t52.5 -22z" />
    <glyph glyph-name="AE" unicode="&#xc6;" horiz-adv-x="1923" 
d="M866 1163h-30l-195 -454h250zM1839 0h-909l-25 453h-375l-194 -453h-328l631 1434h1188v-271h-664l15 -252h600v-268h-584l20 -373h625v-270z" />
    <glyph glyph-name="Ccedilla" unicode="&#xc7;" horiz-adv-x="1470" 
d="M768 -25q-138 0 -262.5 50.5t-220 143.5t-151.5 236t-56 316q0 135 36.5 253t101.5 206t152 151t190 95t214 32q248 0 412.5 -124.5t216.5 -340.5l-299 -67q-20 91 -105 170q-81 78 -227 78q-158 0 -266.5 -124.5t-108.5 -328.5q0 -214 108.5 -336.5t268.5 -122.5
q143 0 233 83.5t117 209.5l299 -61q-44 -242 -221 -379q-178 -140 -432 -140zM752 -453q-87 0 -166 23l37 135q74 -18 118 -18q90 0 90 55q0 30 -27.5 45.5t-70.5 15.5q-16 0 -48.5 -3.5t-39.5 -4.5l51 238h162l-39 -109q79 -2 133 -46.5t54 -131.5q0 -97 -69 -148t-185 -51
z" />
    <glyph glyph-name="Egrave" unicode="&#xc8;" 
d="M455 270h688v-270h-993v1434h980v-271h-675v-252h626v-270h-626v-371zM784 1554h-235l-227 289v4h331l131 -288v-5z" />
    <glyph glyph-name="Eacute" unicode="&#xc9;" 
d="M455 270h688v-270h-993v1434h980v-271h-675v-252h626v-270h-626v-371zM760 1554h-236v5l131 288h332v-4z" />
    <glyph glyph-name="Ecircumflex" unicode="&#xca;" 
d="M455 270h688v-270h-993v1434h980v-271h-675v-252h626v-270h-626v-371zM643 1681l-303 -157v215l311 170l307 -170v-215z" />
    <glyph glyph-name="Edieresis" unicode="&#xcb;" 
d="M455 270h688v-270h-993v1434h980v-271h-675v-252h626v-270h-626v-371zM868 1569q-62 0 -105.5 43.5t-43.5 105.5q0 60 44 104t105 44t104.5 -44t43.5 -104q0 -62 -43.5 -105.5t-104.5 -43.5zM430 1569q-62 0 -105.5 43.5t-43.5 105.5q0 60 44 104t105 44t104.5 -44
t43.5 -104q0 -62 -43.5 -105.5t-104.5 -43.5z" />
    <glyph glyph-name="Igrave" unicode="&#xcc;" horiz-adv-x="608" 
d="M457 0h-307v1434h307v-1434zM440 1554h-235l-228 289v4h332l131 -288v-5z" />
    <glyph glyph-name="Iacute" unicode="&#xcd;" horiz-adv-x="608" 
d="M457 0h-307v1434h307v-1434zM416 1554h-236v5l131 288h332v-4z" />
    <glyph glyph-name="Icircumflex" unicode="&#xce;" horiz-adv-x="608" 
d="M457 0h-307v1434h307v-1434zM297 1681l-303 -157v215l311 170l307 -170v-215z" />
    <glyph glyph-name="Idieresis" unicode="&#xcf;" horiz-adv-x="608" 
d="M457 0h-307v1434h307v-1434zM524 1569q-62 0 -105.5 43.5t-43.5 105.5q0 60 44 104t105 44t104.5 -44t43.5 -104q0 -62 -43.5 -105.5t-104.5 -43.5zM86 1569q-62 0 -105.5 43.5t-43.5 105.5q0 60 44 104t105 44t104 -44t43 -104q0 -62 -43 -105.5t-104 -43.5z" />
    <glyph glyph-name="Eth" unicode="&#xd0;" horiz-adv-x="1484" 
d="M717 0h-510v616h-172v244h172v574h512q107 0 206.5 -27t187 -84t152.5 -139t102.5 -199.5t37.5 -257.5q0 -144 -38 -265t-103 -205t-153 -143t-187.5 -86.5t-206.5 -27.5zM512 616v-346h193q174 0 278 121.5t104 335.5q0 200 -108 317q-107 119 -281 119h-186v-303h246
v-244h-246z" />
    <glyph glyph-name="Ntilde" unicode="&#xd1;" horiz-adv-x="1511" 
d="M1362 0h-297l-614 901v-901h-301v1434h296l615 -914v914h301v-1434zM887 1571q-45 0 -89 19.5t-80.5 39t-62.5 19.5q-32 0 -51.5 -20.5t-21.5 -53.5l-156 20q0 102 53 179q52 79 148 79q45 0 89 -19.5t80.5 -38.5t63.5 -19q71 0 74 75l156 -22q0 -98 -54 -180
q-54 -78 -149 -78z" />
    <glyph glyph-name="Ograve" unicode="&#xd2;" horiz-adv-x="1568" 
d="M784 -25q-143 0 -270.5 50t-224.5 142.5t-154 235t-57 316.5q0 169 57 310t154 234t224.5 144t270.5 51t271 -50.5t224.5 -143t153 -234t56.5 -311.5q0 -173 -57.5 -316t-155 -235t-224 -142.5t-268.5 -50.5zM784 262q166 0 278 122t112 335q0 205 -113 330t-277 125
q-167 0 -278 -123t-111 -332q0 -211 113 -334t276 -123zM922 1554h-236l-227 289v4h332l131 -288v-5z" />
    <glyph glyph-name="Oacute" unicode="&#xd3;" horiz-adv-x="1568" 
d="M784 -25q-143 0 -270.5 50t-224.5 142.5t-154 235t-57 316.5q0 169 57 310t154 234t224.5 144t270.5 51t271 -50.5t224.5 -143t153 -234t56.5 -311.5q0 -173 -57.5 -316t-155 -235t-224 -142.5t-268.5 -50.5zM784 262q166 0 278 122t112 335q0 205 -113 330t-277 125
q-167 0 -278 -123t-111 -332q0 -211 113 -334t276 -123zM895 1554h-236v5l132 288h331v-4z" />
    <glyph glyph-name="Ocircumflex" unicode="&#xd4;" horiz-adv-x="1568" 
d="M784 -25q-143 0 -270.5 50t-224.5 142.5t-154 235t-57 316.5q0 169 57 310t154 234t224.5 144t270.5 51t271 -50.5t224.5 -143t153 -234t56.5 -311.5q0 -173 -57.5 -316t-155 -235t-224 -142.5t-268.5 -50.5zM784 262q166 0 278 122t112 335q0 205 -113 330t-277 125
q-167 0 -278 -123t-111 -332q0 -211 113 -334t276 -123zM778 1681l-303 -157v215l311 170l308 -170v-215z" />
    <glyph glyph-name="Otilde" unicode="&#xd5;" horiz-adv-x="1568" 
d="M784 -25q-143 0 -270.5 50t-224.5 142.5t-154 235t-57 316.5q0 169 57 310t154 234t224.5 144t270.5 51t271 -50.5t224.5 -143t153 -234t56.5 -311.5q0 -173 -57.5 -316t-155 -235t-224 -142.5t-268.5 -50.5zM784 262q166 0 278 122t112 335q0 205 -113 330t-277 125
q-167 0 -278 -123t-111 -332q0 -211 113 -334t276 -123zM913 1571q-45 0 -89 19.5t-80 39t-62 19.5q-32 0 -52 -20.5t-22 -53.5l-155 20q0 102 53 179q52 79 147 79q45 0 89 -19.5t81 -38.5t64 -19q71 0 74 75l155 -22q0 -100 -53 -180q-54 -78 -150 -78z" />
    <glyph glyph-name="Odieresis" unicode="&#xd6;" horiz-adv-x="1568" 
d="M784 -25q-143 0 -270.5 50t-224.5 142.5t-154 235t-57 316.5q0 169 57 310t154 234t224.5 144t270.5 51t271 -50.5t224.5 -143t153 -234t56.5 -311.5q0 -173 -57.5 -316t-155 -235t-224 -142.5t-268.5 -50.5zM784 262q166 0 278 122t112 335q0 205 -113 330t-277 125
q-167 0 -278 -123t-111 -332q0 -211 113 -334t276 -123zM1004 1569q-62 0 -106 44t-44 105q0 60 44.5 104t105.5 44t104 -44t43 -104q0 -62 -43 -105.5t-104 -43.5zM565 1569q-61 0 -105 43.5t-44 105.5q0 60 44 104t105 44t104.5 -44t43.5 -104q0 -62 -43.5 -105.5
t-104.5 -43.5z" />
    <glyph glyph-name="multiply" unicode="&#xd7;" horiz-adv-x="1171" 
d="M1049 428l-191 -192l-280 280l-267 -266l-180 180l266 266l-276 275l192 192l277 -274l264 264l180 -180l-264 -264z" />
    <glyph glyph-name="Oslash" unicode="&#xd8;" horiz-adv-x="1568" 
d="M395 719q0 -173 82 -295l469 713q-73 37 -162 37q-167 0 -278 -123t-111 -332zM784 262q166 0 278 122t112 335q0 169 -82 291l-471 -711q75 -37 163 -37zM784 -25q-179 0 -327 74l-101 -151h-227l172 260q-106 97 -164.5 239t-58.5 322q0 169 57 310t154 234t224.5 144
t270.5 51q178 0 326 -74l100 152h230l-172 -260q103 -97 162 -239.5t59 -317.5q0 -173 -57.5 -316t-155 -235t-224 -142.5t-268.5 -50.5z" />
    <glyph glyph-name="Ugrave" unicode="&#xd9;" horiz-adv-x="1433" 
d="M715 -23q-269 0 -423.5 144.5t-154.5 425.5v887h307v-873q0 -140 74.5 -219.5t198.5 -79.5q128 0 200 78t72 219v875h307v-885q0 -279 -156 -425.5t-425 -146.5zM854 1554h-236l-227 289v4h332l131 -288v-5z" />
    <glyph glyph-name="Uacute" unicode="&#xda;" horiz-adv-x="1433" 
d="M715 -23q-269 0 -423.5 144.5t-154.5 425.5v887h307v-873q0 -140 74.5 -219.5t198.5 -79.5q128 0 200 78t72 219v875h307v-885q0 -279 -156 -425.5t-425 -146.5zM829 1554h-235v5l131 288h332v-4z" />
    <glyph glyph-name="Ucircumflex" unicode="&#xdb;" horiz-adv-x="1433" 
d="M715 -23q-269 0 -423.5 144.5t-154.5 425.5v887h307v-873q0 -140 74.5 -219.5t198.5 -79.5q128 0 200 78t72 219v875h307v-885q0 -279 -156 -425.5t-425 -146.5zM711 1681l-303 -157v215l311 170l307 -170v-215z" />
    <glyph glyph-name="Udieresis" unicode="&#xdc;" horiz-adv-x="1433" 
d="M715 -23q-269 0 -423.5 144.5t-154.5 425.5v887h307v-873q0 -140 74.5 -219.5t198.5 -79.5q128 0 200 78t72 219v875h307v-885q0 -279 -156 -425.5t-425 -146.5zM936 1569q-62 0 -106 44t-44 105q0 60 44.5 104t105.5 44t104 -44t43 -104q0 -62 -43 -105.5t-104 -43.5z
M498 1569q-62 0 -106 44t-44 105q0 60 44.5 104t105.5 44t104 -44t43 -104q0 -62 -43 -105.5t-104 -43.5z" />
    <glyph glyph-name="Yacute" unicode="&#xdd;" horiz-adv-x="1249" 
d="M778 735v-735h-307v735l-463 699h357l268 -420l270 420h338zM735 1546h-235v4l131 289h332v-4z" />
    <glyph glyph-name="Thorn" unicode="&#xde;" horiz-adv-x="1239" 
d="M698 907h-243v-327h247q81 0 128 43.5t47 117.5q0 75 -49.5 120.5t-129.5 45.5zM727 309h-272v-309h-305v1434h305v-256h286q130 0 231 -49.5t161.5 -149t60.5 -236.5q0 -136 -64 -236t-168.5 -149t-234.5 -49z" />
    <glyph glyph-name="germandbls" unicode="&#xdf;" horiz-adv-x="1253" 
d="M698 -16q-92 0 -172 22l56 240q46 -17 98 -17q80 0 136 53t56 148q0 98 -66.5 153.5t-178.5 55.5h-54v235h41q89 0 142 47.5t53 131.5t-54.5 132t-133.5 48q-88 0 -139.5 -56t-51.5 -159v-1018h-295v1018q0 143 65.5 249t175 159t247.5 53q113 0 205 -34t150 -91t89 -129
t31 -150q0 -90 -39 -166.5t-115 -126.5q103 -46 165 -138t62 -216q0 -106 -37.5 -191.5t-103 -140t-150.5 -83.5t-182 -29z" />
    <glyph glyph-name="agrave" unicode="&#xe0;" horiz-adv-x="1114" 
d="M496 211q36 0 69 13t82 42l55 35l3 193l-164 -45q-93 -26 -132.5 -53.5t-39.5 -76.5q0 -52 38.5 -80t88.5 -28zM707 94l-7 -6q-126 -108 -274 -108q-145 0 -247.5 88.5t-102.5 232.5q0 126 84.5 201t261.5 121l283 73q-7 58 -52 88.5t-116 30.5q-147 0 -189 -123l-258 70
q42 138 166 212.5t293 74.5q207 0 324.5 -97t117.5 -278v-674h-282zM696 1145h-235l-228 289v4h332l131 -289v-4z" />
    <glyph glyph-name="aacute" unicode="&#xe1;" horiz-adv-x="1114" 
d="M496 211q36 0 69 13t82 42l55 35l3 193l-164 -45q-93 -26 -132.5 -53.5t-39.5 -76.5q0 -52 38.5 -80t88.5 -28zM707 94l-7 -6q-126 -108 -274 -108q-145 0 -247.5 88.5t-102.5 232.5q0 126 84.5 201t261.5 121l283 73q-7 58 -52 88.5t-116 30.5q-147 0 -189 -123l-258 70
q42 138 166 212.5t293 74.5q207 0 324.5 -97t117.5 -278v-674h-282zM672 1145h-236v4l131 289h332v-4z" />
    <glyph glyph-name="acircumflex" unicode="&#xe2;" horiz-adv-x="1114" 
d="M496 211q36 0 69 13t82 42l55 35l3 193l-164 -45q-93 -26 -132.5 -53.5t-39.5 -76.5q0 -52 38.5 -80t88.5 -28zM707 94l-7 -6q-126 -108 -274 -108q-145 0 -247.5 88.5t-102.5 232.5q0 126 84.5 201t261.5 121l283 73q-7 58 -52 88.5t-116 30.5q-147 0 -189 -123l-258 70
q42 138 166 212.5t293 74.5q207 0 324.5 -97t117.5 -278v-674h-282zM557 1274l-283 -156v215l289 168l287 -168v-215z" />
    <glyph glyph-name="atilde" unicode="&#xe3;" horiz-adv-x="1114" 
d="M496 211q36 0 69 13t82 42l55 35l3 193l-164 -45q-93 -26 -132.5 -53.5t-39.5 -76.5q0 -52 38.5 -80t88.5 -28zM707 94l-7 -6q-126 -108 -274 -108q-145 0 -247.5 88.5t-102.5 232.5q0 126 84.5 201t261.5 121l283 73q-7 58 -52 88.5t-116 30.5q-147 0 -189 -123l-258 70
q42 138 166 212.5t293 74.5q207 0 324.5 -97t117.5 -278v-674h-282zM688 1161q-45 0 -89 19.5t-80 39t-62 19.5q-32 0 -52 -20.5t-22 -53.5l-156 21q0 99 54 178q53 80 147 80q45 0 89 -19.5t81 -39t64 -19.5q70 0 73 76l156 -23q0 -100 -53 -180q-54 -78 -150 -78z" />
    <glyph glyph-name="adieresis" unicode="&#xe4;" horiz-adv-x="1114" 
d="M496 211q36 0 69 13t82 42l55 35l3 193l-164 -45q-93 -26 -132.5 -53.5t-39.5 -76.5q0 -52 38.5 -80t88.5 -28zM707 94l-7 -6q-126 -108 -274 -108q-145 0 -247.5 88.5t-102.5 232.5q0 126 84.5 201t261.5 121l283 73q-7 58 -52 88.5t-116 30.5q-147 0 -189 -123l-258 70
q42 138 166 212.5t293 74.5q207 0 324.5 -97t117.5 -278v-674h-282zM778 1159q-61 0 -105 44t-44 106q0 60 44 103.5t105 43.5t104.5 -43.5t43.5 -103.5q0 -62 -43.5 -106t-104.5 -44zM340 1159q-62 0 -106 44.5t-44 105.5q0 60 44.5 103.5t105.5 43.5t104 -43.5t43 -103.5
q0 -62 -43 -106t-104 -44z" />
    <glyph glyph-name="aring" unicode="&#xe5;" horiz-adv-x="1114" 
d="M496 211q36 0 69 13t82 42l55 35l3 193l-164 -45q-93 -26 -132.5 -53.5t-39.5 -76.5q0 -52 38.5 -80t88.5 -28zM707 94l-7 -6q-126 -108 -274 -108q-145 0 -247.5 88.5t-102.5 232.5q0 126 84.5 201t261.5 121l283 73q-7 58 -52 88.5t-116 30.5q-147 0 -189 -123l-258 70
q42 138 166 212.5t293 74.5q207 0 324.5 -97t117.5 -278v-674h-282zM559 1116q-78 0 -133 54t-55 133q0 78 55 131t133 53t133.5 -53t55.5 -131q0 -79 -55 -133t-134 -54zM559 1227q31 0 52.5 22t21.5 54q0 31 -21.5 52t-52.5 21t-52.5 -21t-21.5 -52q0 -32 21.5 -54
t52.5 -22z" />
    <glyph glyph-name="ae" unicode="&#xe6;" horiz-adv-x="1765" 
d="M1198 819q-80 0 -139 -49.5t-66 -138.5h406q-4 91 -62 139.5t-139 48.5zM496 211q62 0 155 55l76 45q-30 86 -33 178l-153 -40q-92 -26 -132 -54.5t-40 -75.5q0 -53 38.5 -80.5t88.5 -27.5zM1485 346l201 -135q-63 -111 -180 -172.5t-279 -61.5q-112 0 -214 40t-175 114
l-37 -25q-96 -63 -184 -94.5t-191 -31.5q-145 0 -247.5 89t-102.5 232q0 129 84 202.5t262 119.5l278 71q-12 121 -165 121q-69 0 -118 -31.5t-69 -91.5l-258 70q42 138 166 212.5t293 74.5q221 0 330 -115q137 113 327 113q208 0 344 -136q137 -134 146 -364q2 -59 2 -105
h-711q7 -106 79.5 -169.5t174.5 -63.5q78 0 142 35.5t102 101.5z" />
    <glyph glyph-name="ccedilla" unicode="&#xe7;" horiz-adv-x="1103" 
d="M578 -23q-98 0 -188.5 35t-163 100.5t-115.5 170t-43 233.5q0 126 44 229t117 167.5t163.5 99.5t187.5 35q184 0 307.5 -88.5t163.5 -229.5l-273 -82q-51 139 -194 139q-88 0 -152.5 -71t-64.5 -199q0 -130 64 -203t155 -73q149 0 207 155l266 -94q-53 -158 -180 -241
t-301 -83zM561 -453q-87 0 -166 23l37 135q74 -18 119 -18q90 0 90 55q0 30 -27.5 45.5t-70.5 15.5q-16 0 -48.5 -3.5t-39.5 -4.5l51 238h162l-39 -109q79 -2 132.5 -46.5t53.5 -131.5q0 -97 -69 -148t-185 -51z" />
    <glyph glyph-name="egrave" unicode="&#xe8;" horiz-adv-x="1136" 
d="M571 819q-80 0 -138.5 -49.5t-65.5 -138.5h405q-4 91 -62 139.5t-139 48.5zM858 346l201 -135q-63 -111 -180 -172.5t-279 -61.5q-107 0 -202 35.5t-169 101.5t-117.5 170t-43.5 232q0 122 41.5 224t112.5 168t163 102.5t195 36.5q208 0 344 -136q136 -133 145 -364
q2 -59 2 -105h-711q7 -106 79.5 -169.5t174.5 -63.5q78 0 142 35.5t102 101.5zM715 1145h-236l-227 289v4h332l131 -289v-4z" />
    <glyph glyph-name="eacute" unicode="&#xe9;" horiz-adv-x="1136" 
d="M571 819q-80 0 -138.5 -49.5t-65.5 -138.5h405q-4 91 -62 139.5t-139 48.5zM858 346l201 -135q-63 -111 -180 -172.5t-279 -61.5q-107 0 -202 35.5t-169 101.5t-117.5 170t-43.5 232q0 122 41.5 224t112.5 168t163 102.5t195 36.5q208 0 344 -136q136 -133 145 -364
q2 -59 2 -105h-711q7 -106 79.5 -169.5t174.5 -63.5q78 0 142 35.5t102 101.5zM690 1145h-235v4l131 289h332v-4z" />
    <glyph glyph-name="ecircumflex" unicode="&#xea;" horiz-adv-x="1136" 
d="M571 819q-80 0 -138.5 -49.5t-65.5 -138.5h405q-4 91 -62 139.5t-139 48.5zM858 346l201 -135q-63 -111 -180 -172.5t-279 -61.5q-107 0 -202 35.5t-169 101.5t-117.5 170t-43.5 232q0 122 41.5 224t112.5 168t163 102.5t195 36.5q208 0 344 -136q136 -133 145 -364
q2 -59 2 -105h-711q7 -106 79.5 -169.5t174.5 -63.5q78 0 142 35.5t102 101.5zM575 1274l-282 -156v215l289 168l286 -168v-215z" />
    <glyph glyph-name="edieresis" unicode="&#xeb;" horiz-adv-x="1136" 
d="M571 819q-80 0 -138.5 -49.5t-65.5 -138.5h405q-4 91 -62 139.5t-139 48.5zM858 346l201 -135q-63 -111 -180 -172.5t-279 -61.5q-107 0 -202 35.5t-169 101.5t-117.5 170t-43.5 232q0 122 41.5 224t112.5 168t163 102.5t195 36.5q208 0 344 -136q136 -133 145 -364
q2 -59 2 -105h-711q7 -106 79.5 -169.5t174.5 -63.5q78 0 142 35.5t102 101.5zM799 1159q-61 0 -105.5 44.5t-44.5 105.5q0 60 44.5 103.5t105.5 43.5t104 -43.5t43 -103.5q0 -62 -43 -106t-104 -44zM360 1159q-61 0 -105 44t-44 106q0 60 44 103.5t105 43.5t104.5 -43.5
t43.5 -103.5q0 -62 -43.5 -106t-104.5 -44z" />
    <glyph glyph-name="igrave" unicode="&#xec;" horiz-adv-x="567" 
d="M430 0h-295v1020h295v-1020zM420 1145h-236l-227 289v4h332l131 -289v-4z" />
    <glyph glyph-name="iacute" unicode="&#xed;" horiz-adv-x="567" 
d="M430 0h-295v1020h295v-1020zM395 1145h-235v4l131 289h332v-4z" />
    <glyph glyph-name="icircumflex" unicode="&#xee;" horiz-adv-x="567" 
d="M430 0h-295v1020h295v-1020zM281 1274l-283 -156v215l289 168l286 -168v-215z" />
    <glyph glyph-name="idieresis" unicode="&#xef;" horiz-adv-x="567" 
d="M430 0h-295v1020h295v-1020zM461 1180q-55 0 -94 39.5t-39 93.5q0 55 39 94t94 39q54 0 93.5 -39t39.5 -94q0 -54 -39.5 -93.5t-93.5 -39.5zM104 1180q-55 0 -94 39.5t-39 93.5q0 55 38.5 94t94.5 39t95 -39t39 -94q0 -54 -39.5 -93.5t-94.5 -39.5z" />
    <glyph glyph-name="eth" unicode="&#xf0;" horiz-adv-x="1173" 
d="M584 -20q-103 0 -195 34t-163 97t-112.5 160.5t-41.5 215.5q0 116 39.5 212t106 157.5t152.5 95t181 33.5q79 0 154 -35q-38 71 -89 131l-71 80l-283 -108l-51 137l219 86q-80 75 -221 194h387l98 -94l215 84l54 -137l-160 -61q111 -128 176 -250q123 -230 123 -496
q0 -249 -144 -393q-140 -143 -374 -143zM588 240q92 0 154.5 66.5t62.5 180.5t-63 179t-154 65q-92 0 -154.5 -65t-62.5 -179t62.5 -180.5t154.5 -66.5z" />
    <glyph glyph-name="ntilde" unicode="&#xf1;" horiz-adv-x="1214" 
d="M621 780q-59 0 -111 -35.5t-80 -99.5v-645h-295v1020h295v-123q49 69 125.5 108t173.5 39q163 0 263 -102t100 -301v-641h-295v582q0 101 -46.5 149.5t-129.5 48.5zM754 1161q-45 0 -89 19.5t-80.5 39t-62.5 19.5q-32 0 -51.5 -20.5t-21.5 -53.5l-156 21q0 101 53 178
q53 80 148 80q45 0 89 -19.5t80.5 -39t63.5 -19.5q35 0 53.5 20t20.5 56l155 -23q0 -100 -53 -180q-54 -78 -149 -78z" />
    <glyph glyph-name="ograve" unicode="&#xf2;" horiz-adv-x="1183" 
d="M592 -23q-104 0 -197.5 35.5t-167 101.5t-116.5 170t-43 232q0 125 44.5 227.5t118.5 167.5t167.5 100.5t193.5 35.5q104 0 197.5 -35.5t167 -100.5t116.5 -167.5t43 -227.5t-44.5 -229t-118 -170.5t-167 -103t-194.5 -36.5zM592 238q96 0 160.5 73.5t64.5 204.5
q0 127 -65.5 198.5t-159.5 71.5t-159.5 -71t-65.5 -199q0 -129 66 -203.5t159 -74.5zM729 1145h-235l-228 289v4h332l131 -289v-4z" />
    <glyph glyph-name="oacute" unicode="&#xf3;" horiz-adv-x="1183" 
d="M592 -23q-104 0 -197.5 35.5t-167 101.5t-116.5 170t-43 232q0 125 44.5 227.5t118.5 167.5t167.5 100.5t193.5 35.5q104 0 197.5 -35.5t167 -100.5t116.5 -167.5t43 -227.5t-44.5 -229t-118 -170.5t-167 -103t-194.5 -36.5zM592 238q96 0 160.5 73.5t64.5 204.5
q0 127 -65.5 198.5t-159.5 71.5t-159.5 -71t-65.5 -199q0 -129 66 -203.5t159 -74.5zM705 1145h-236v4l131 289h332v-4z" />
    <glyph glyph-name="ocircumflex" unicode="&#xf4;" horiz-adv-x="1183" 
d="M592 -23q-104 0 -197.5 35.5t-167 101.5t-116.5 170t-43 232q0 125 44.5 227.5t118.5 167.5t167.5 100.5t193.5 35.5q104 0 197.5 -35.5t167 -100.5t116.5 -167.5t43 -227.5t-44.5 -229t-118 -170.5t-167 -103t-194.5 -36.5zM592 238q96 0 160.5 73.5t64.5 204.5
q0 127 -65.5 198.5t-159.5 71.5t-159.5 -71t-65.5 -199q0 -129 66 -203.5t159 -74.5zM590 1274l-283 -156v215l289 168l287 -168v-215z" />
    <glyph glyph-name="otilde" unicode="&#xf5;" horiz-adv-x="1183" 
d="M592 -23q-104 0 -197.5 35.5t-167 101.5t-116.5 170t-43 232q0 125 44.5 227.5t118.5 167.5t167.5 100.5t193.5 35.5q104 0 197.5 -35.5t167 -100.5t116.5 -167.5t43 -227.5t-44.5 -229t-118 -170.5t-167 -103t-194.5 -36.5zM592 238q96 0 160.5 73.5t64.5 204.5
q0 127 -65.5 198.5t-159.5 71.5t-159.5 -71t-65.5 -199q0 -129 66 -203.5t159 -74.5zM721 1161q-45 0 -89 19.5t-80.5 39t-62.5 19.5q-32 0 -51.5 -20.5t-21.5 -53.5l-156 21q0 101 53 178q53 80 148 80q45 0 89 -19.5t80.5 -39t63.5 -19.5q35 0 53.5 20t20.5 56l156 -23
q0 -98 -54 -180q-54 -78 -149 -78z" />
    <glyph glyph-name="odieresis" unicode="&#xf6;" horiz-adv-x="1183" 
d="M592 -23q-104 0 -197.5 35.5t-167 101.5t-116.5 170t-43 232q0 125 44.5 227.5t118.5 167.5t167.5 100.5t193.5 35.5q104 0 197.5 -35.5t167 -100.5t116.5 -167.5t43 -227.5t-44.5 -229t-118 -170.5t-167 -103t-194.5 -36.5zM592 238q96 0 160.5 73.5t64.5 204.5
q0 127 -65.5 198.5t-159.5 71.5t-159.5 -71t-65.5 -199q0 -129 66 -203.5t159 -74.5zM811 1159q-61 0 -105 44t-44 106q0 60 44 103.5t105 43.5t104 -43.5t43 -103.5q0 -62 -43 -106t-104 -44zM373 1159q-61 0 -105.5 44.5t-44.5 105.5q0 60 44.5 103.5t105.5 43.5
t104 -43.5t43 -103.5q0 -62 -43 -106t-104 -44z" />
    <glyph glyph-name="divide" unicode="&#xf7;" horiz-adv-x="1196" 
d="M598 961q-75 0 -129.5 55.5t-54.5 130.5t54.5 129.5t129.5 54.5t129.5 -54.5t54.5 -129.5t-54.5 -130.5t-129.5 -55.5zM598 74q-75 0 -129.5 55.5t-54.5 130.5t54.5 129.5t129.5 54.5t129.5 -54.5t54.5 -129.5t-54.5 -130.5t-129.5 -55.5zM1108 575h-1020v256h1020v-256z
" />
    <glyph glyph-name="oslash" unicode="&#xf8;" horiz-adv-x="1183" 
d="M367 516q0 -97 36 -164l267 420q-35 14 -78 14q-94 0 -159.5 -71t-65.5 -199zM592 238q96 0 160.5 73.5t64.5 204.5q0 94 -35 156l-264 -420q32 -14 74 -14zM592 -23q-111 0 -219 43l-78 -122h-176l127 200q-178 150 -178 418q0 125 44.5 227.5t118.5 167.5t167.5 100.5
t193.5 35.5q113 0 221 -43l76 118h176l-125 -196q82 -70 129 -174.5t47 -235.5q0 -125 -44.5 -229t-118 -170.5t-167 -103t-194.5 -36.5z" />
    <glyph glyph-name="ugrave" unicode="&#xf9;" horiz-adv-x="1202" 
d="M1067 0h-295v125q-106 -145 -295 -145q-153 0 -254 94q-100 93 -100 297v649h295v-588q0 -97 47.5 -143.5t122.5 -46.5q55 0 104.5 33.5t79.5 95.5v649h295v-1020zM731 1145h-235l-228 289v4h332l131 -289v-4z" />
    <glyph glyph-name="uacute" unicode="&#xfa;" horiz-adv-x="1202" 
d="M1067 0h-295v125q-106 -145 -295 -145q-153 0 -254 94q-100 93 -100 297v649h295v-588q0 -97 47.5 -143.5t122.5 -46.5q55 0 104.5 33.5t79.5 95.5v649h295v-1020zM707 1145h-236v4l131 289h332v-4z" />
    <glyph glyph-name="ucircumflex" unicode="&#xfb;" horiz-adv-x="1202" 
d="M1067 0h-295v125q-106 -145 -295 -145q-153 0 -254 94q-100 93 -100 297v649h295v-588q0 -97 47.5 -143.5t122.5 -46.5q55 0 104.5 33.5t79.5 95.5v649h295v-1020zM592 1274l-283 -156v215l289 168l287 -168v-215z" />
    <glyph glyph-name="udieresis" unicode="&#xfc;" horiz-adv-x="1202" 
d="M1067 0h-295v125q-106 -145 -295 -145q-153 0 -254 94q-100 93 -100 297v649h295v-588q0 -97 47.5 -143.5t122.5 -46.5q55 0 104.5 33.5t79.5 95.5v649h295v-1020zM815 1159q-61 0 -105 44t-44 106q0 60 44 103.5t105 43.5t104.5 -43.5t43.5 -103.5q0 -62 -43.5 -106
t-104.5 -44zM377 1159q-61 0 -105.5 44.5t-44.5 105.5q0 60 44.5 103.5t105.5 43.5t104 -43.5t43 -103.5q0 -62 -43 -106t-104 -44z" />
    <glyph glyph-name="yacute" unicode="&#xfd;" horiz-adv-x="1021" 
d="M1016 1020l-590 -1409h-287l234 571l-367 838h301l215 -522l203 522h291zM633 1145h-236v4l131 289h332v-4z" />
    <glyph glyph-name="thorn" unicode="&#xfe;" horiz-adv-x="1224" 
d="M635 246q92 0 153.5 68t61.5 200q0 129 -62 197.5t-153 68.5q-87 0 -145.5 -55t-59.5 -147v-127q1 -92 59.5 -148.5t145.5 -56.5zM688 -16q-147 0 -258 96v-469h-295v1859h295v-516q106 88 258 88q92 0 174.5 -34t146.5 -98t102 -166.5t38 -229.5q0 -128 -38.5 -231
t-103 -167t-146.5 -98t-173 -34z" />
    <glyph glyph-name="ydieresis" unicode="&#xff;" horiz-adv-x="1021" 
d="M1016 1020l-590 -1409h-287l234 571l-367 838h301l215 -522l203 522h291zM741 1159q-61 0 -105 44t-44 106q0 60 44 103.5t105 43.5t104.5 -43.5t43.5 -103.5q0 -62 -43.5 -106t-104.5 -44zM303 1159q-61 0 -105 44t-44 106q0 60 44 103.5t105 43.5t104.5 -43.5
t43.5 -103.5q0 -62 -43.5 -106t-104.5 -44z" />
    <glyph glyph-name="Amacron" unicode="&#x100;" horiz-adv-x="1411" 
d="M702 1112h-4l-145 -453h295zM1391 0h-332l-137 391h-445l-135 -391h-319l505 1434h357zM975 1612h-539v198h539v-198z" />
    <glyph glyph-name="amacron" unicode="&#x101;" horiz-adv-x="1114" 
d="M496 211q36 0 69 13t82 42l55 35l3 193l-164 -45q-93 -26 -132.5 -53.5t-39.5 -76.5q0 -52 38.5 -80t88.5 -28zM707 94l-7 -6q-126 -108 -274 -108q-145 0 -247.5 88.5t-102.5 232.5q0 126 84.5 201t261.5 121l283 73q-7 58 -52 88.5t-116 30.5q-147 0 -189 -123l-258 70
q42 138 166 212.5t293 74.5q207 0 324.5 -97t117.5 -278v-674h-282zM813 1202h-506v191h506v-191z" />
    <glyph glyph-name="Abreve" unicode="&#x102;" horiz-adv-x="1411" 
d="M702 1112h-4l-145 -453h295zM1391 0h-332l-137 391h-445l-135 -391h-319l505 1434h357zM707 1550q-153 0 -241.5 78.5t-94.5 214.5h192q2 -52 40 -83t104 -31q67 0 104 31t39 83h192q-8 -136 -97 -214.5t-238 -78.5z" />
    <glyph glyph-name="abreve" unicode="&#x103;" horiz-adv-x="1114" 
d="M496 211q36 0 69 13t82 42l55 35l3 193l-164 -45q-93 -26 -132.5 -53.5t-39.5 -76.5q0 -52 38.5 -80t88.5 -28zM707 94l-7 -6q-126 -108 -274 -108q-145 0 -247.5 88.5t-102.5 232.5q0 126 84.5 201t261.5 121l283 73q-7 58 -52 88.5t-116 30.5q-147 0 -189 -123l-258 70
q42 138 166 212.5t293 74.5q207 0 324.5 -97t117.5 -278v-674h-282zM559 1149q-136 0 -219.5 76t-87.5 209h184q0 -50 35.5 -81.5t87.5 -31.5t86.5 31.5t34.5 81.5h186q-6 -133 -90.5 -209t-216.5 -76z" />
    <glyph glyph-name="Aogonek" unicode="&#x104;" horiz-adv-x="1411" 
d="M702 1112h-4l-145 -453h295zM1391 0h-332l-137 391h-445l-135 -391h-319l505 1434h357zM1225 -414q-97 0 -162.5 48.5t-65.5 132.5t58 150t178 130l158 -47q-72 -29 -123 -72t-51 -92q0 -26 16.5 -40.5t42.5 -14.5q36 0 82 33l94 -150q-101 -78 -227 -78z" />
    <glyph glyph-name="aogonek" unicode="&#x105;" horiz-adv-x="1114" 
d="M496 211q36 0 69 13t82 42l55 35l3 193l-164 -45q-93 -26 -132.5 -53.5t-39.5 -76.5q0 -52 38.5 -80t88.5 -28zM707 94l-7 -6q-126 -108 -274 -108q-145 0 -247.5 88.5t-102.5 232.5q0 126 84.5 201t261.5 121l283 73q-7 58 -52 88.5t-116 30.5q-147 0 -189 -123l-258 70
q42 138 166 212.5t293 74.5q207 0 324.5 -97t117.5 -278v-674h-282zM825 -414q-97 0 -162 48t-65 133q0 84 58 150t178 130l157 -47q-72 -29 -123 -72t-51 -92q0 -25 17 -40t43 -15q35 0 81 33l95 -150q-101 -78 -228 -78z" />
    <glyph glyph-name="Cacute" unicode="&#x106;" horiz-adv-x="1470" 
d="M768 -25q-138 0 -262.5 50.5t-220 143.5t-151.5 236t-56 316q0 135 36.5 253t101.5 206t152 151t190 95t214 32q248 0 412.5 -124.5t216.5 -340.5l-299 -67q-20 91 -105 170q-81 78 -227 78q-158 0 -266.5 -124.5t-108.5 -328.5q0 -214 108.5 -336.5t268.5 -122.5
q143 0 233 83.5t117 209.5l299 -61q-44 -242 -221 -379q-178 -140 -432 -140zM883 1554h-236v5l131 288h332v-4z" />
    <glyph glyph-name="cacute" unicode="&#x107;" horiz-adv-x="1103" 
d="M578 -23q-98 0 -188.5 35t-163 100.5t-115.5 170t-43 233.5q0 126 44 229t117 167.5t163.5 99.5t187.5 35q184 0 307.5 -88.5t163.5 -229.5l-273 -82q-51 139 -194 139q-88 0 -152.5 -71t-64.5 -199q0 -130 64 -203t155 -73q149 0 207 155l266 -94q-53 -158 -180 -241
t-301 -83zM690 1145h-235v4l131 289h332v-4z" />
    <glyph glyph-name="Ccircumflex" unicode="&#x108;" horiz-adv-x="1470" 
d="M768 -25q-138 0 -262.5 50.5t-220 143.5t-151.5 236t-56 316q0 135 36.5 253t101.5 206t152 151t190 95t214 32q248 0 412.5 -124.5t216.5 -340.5l-299 -67q-20 91 -105 170q-81 78 -227 78q-158 0 -266.5 -124.5t-108.5 -328.5q0 -214 108.5 -336.5t268.5 -122.5
q143 0 233 83.5t117 209.5l299 -61q-44 -242 -221 -379q-178 -140 -432 -140zM766 1681l-303 -157v215l311 170l307 -170v-215z" />
    <glyph glyph-name="ccircumflex" unicode="&#x109;" horiz-adv-x="1103" 
d="M578 -23q-98 0 -188.5 35t-163 100.5t-115.5 170t-43 233.5q0 126 44 229t117 167.5t163.5 99.5t187.5 35q184 0 307.5 -88.5t163.5 -229.5l-273 -82q-51 139 -194 139q-88 0 -152.5 -71t-64.5 -199q0 -130 64 -203t155 -73q149 0 207 155l266 -94q-53 -158 -180 -241
t-301 -83zM575 1274l-282 -156v215l289 168l286 -168v-215z" />
    <glyph glyph-name="Cdotaccent" unicode="&#x10a;" horiz-adv-x="1470" 
d="M768 -25q-138 0 -262.5 50.5t-220 143.5t-151.5 236t-56 316q0 135 36.5 253t101.5 206t152 151t190 95t214 32q248 0 412.5 -124.5t216.5 -340.5l-299 -67q-20 91 -105 170q-81 78 -227 78q-158 0 -266.5 -124.5t-108.5 -328.5q0 -214 108.5 -336.5t268.5 -122.5
q143 0 233 83.5t117 209.5l299 -61q-44 -242 -221 -379q-178 -140 -432 -140zM772 1573q-69 0 -114.5 46.5t-45.5 115.5q0 68 46.5 114.5t113.5 46.5q69 0 114.5 -46.5t45.5 -114.5q0 -69 -46 -115.5t-114 -46.5z" />
    <glyph glyph-name="cdotaccent" unicode="&#x10b;" horiz-adv-x="1103" 
d="M578 -23q-98 0 -188.5 35t-163 100.5t-115.5 170t-43 233.5q0 126 44 229t117 167.5t163.5 99.5t187.5 35q184 0 307.5 -88.5t163.5 -229.5l-273 -82q-51 139 -194 139q-88 0 -152.5 -71t-64.5 -199q0 -130 64 -203t155 -73q149 0 207 155l266 -94q-53 -158 -180 -241
t-301 -83zM580 1163q-69 0 -114.5 46.5t-45.5 115.5q0 68 46.5 115t113.5 47q68 0 113.5 -47t45.5 -115q0 -69 -45.5 -115.5t-113.5 -46.5z" />
    <glyph glyph-name="Ccaron" unicode="&#x10c;" horiz-adv-x="1470" 
d="M768 -25q-138 0 -262.5 50.5t-220 143.5t-151.5 236t-56 316q0 135 36.5 253t101.5 206t152 151t190 95t214 32q248 0 412.5 -124.5t216.5 -340.5l-299 -67q-20 91 -105 170q-81 78 -227 78q-158 0 -266.5 -124.5t-108.5 -328.5q0 -214 108.5 -336.5t268.5 -122.5
q143 0 233 83.5t117 209.5l299 -61q-44 -242 -221 -379q-178 -140 -432 -140zM776 1765l303 158v-215l-311 -170l-307 170v215z" />
    <glyph glyph-name="ccaron" unicode="&#x10d;" horiz-adv-x="1103" 
d="M578 -23q-98 0 -188.5 35t-163 100.5t-115.5 170t-43 233.5q0 126 44 229t117 167.5t163.5 99.5t187.5 35q184 0 307.5 -88.5t163.5 -229.5l-273 -82q-51 139 -194 139q-88 0 -152.5 -71t-64.5 -199q0 -130 64 -203t155 -73q149 0 207 155l266 -94q-53 -158 -180 -241
t-301 -83zM584 1348l282 155v-215l-288 -168l-287 168v215z" />
    <glyph glyph-name="Dcaron" unicode="&#x10e;" horiz-adv-x="1427" 
d="M659 0h-509v1434h512q107 0 206.5 -27t187 -84t152.5 -139t102.5 -199.5t37.5 -257.5q0 -144 -38 -265t-103 -205t-153.5 -143t-188 -86.5t-206.5 -27.5zM455 1163v-893h192q174 0 278.5 121.5t104.5 335.5q0 200 -108 317q-107 119 -281 119h-186zM641 1765l303 158
v-215l-311 -170l-307 170v215z" />
    <glyph glyph-name="dcaron" unicode="&#x10f;" horiz-adv-x="1224" 
d="M1423 1128h-243l86 342h268zM590 246q85 0 143.5 56t59.5 151v125q-1 91 -58.5 146.5t-144.5 55.5q-92 0 -153.5 -68t-61.5 -198q0 -132 61 -200t154 -68zM1087 0h-274v98q-114 -114 -276 -114q-91 0 -173 34t-146.5 98t-103 167t-38.5 231q0 127 38 229.5t102.5 166.5
t146 98t172.5 34q147 0 258 -86v514h294v-1470z" />
    <glyph glyph-name="Dcroat" unicode="&#x110;" horiz-adv-x="1484" 
d="M717 0h-510v616h-172v244h172v574h512q107 0 206.5 -27t187 -84t152.5 -139t102.5 -199.5t37.5 -257.5q0 -144 -38 -265t-103 -205t-153 -143t-187.5 -86.5t-206.5 -27.5zM512 616v-346h193q174 0 278 121.5t104 335.5q0 200 -108 317q-107 119 -281 119h-186v-303h246
v-244h-246z" />
    <glyph glyph-name="dslash" unicode="&#x111;" horiz-adv-x="1224" 
d="M590 246q85 0 143.5 56t59.5 151v125q-1 91 -58.5 146.5t-144.5 55.5q-92 0 -153.5 -68t-61.5 -198q0 -132 61 -200t154 -68zM1087 0h-274v98q-114 -114 -276 -114q-91 0 -173 34t-146.5 98t-103 167t-38.5 231q0 127 38 229.5t102.5 166.5t146 98t172.5 34
q147 0 258 -86v205h-275v162h275v147h294v-147h170v-162h-170v-1161z" />
    <glyph glyph-name="Emacron" unicode="&#x112;" 
d="M455 270h688v-270h-993v1434h980v-271h-675v-252h626v-270h-626v-371zM918 1612h-539v198h539v-198z" />
    <glyph glyph-name="emacron" unicode="&#x113;" horiz-adv-x="1136" 
d="M571 819q-80 0 -138.5 -49.5t-65.5 -138.5h405q-4 91 -62 139.5t-139 48.5zM858 346l201 -135q-63 -111 -180 -172.5t-279 -61.5q-107 0 -202 35.5t-169 101.5t-117.5 170t-43.5 232q0 122 41.5 224t112.5 168t163 102.5t195 36.5q208 0 344 -136q136 -133 145 -364
q2 -59 2 -105h-711q7 -106 79.5 -169.5t174.5 -63.5q78 0 142 35.5t102 101.5zM831 1202h-505v191h505v-191z" />
    <glyph glyph-name="Ebreve" unicode="&#x114;" 
d="M455 270h688v-270h-993v1434h980v-271h-675v-252h626v-270h-626v-371zM647 1550q-153 0 -241.5 78.5t-94.5 214.5h193q2 -52 39.5 -83t103.5 -31q68 0 105 31t39 83h192q-8 -135 -97.5 -214t-238.5 -79z" />
    <glyph glyph-name="ebreve" unicode="&#x115;" horiz-adv-x="1136" 
d="M571 819q-80 0 -138.5 -49.5t-65.5 -138.5h405q-4 91 -62 139.5t-139 48.5zM858 346l201 -135q-63 -111 -180 -172.5t-279 -61.5q-107 0 -202 35.5t-169 101.5t-117.5 170t-43.5 232q0 122 41.5 224t112.5 168t163 102.5t195 36.5q208 0 344 -136q136 -133 145 -364
q2 -59 2 -105h-711q7 -106 79.5 -169.5t174.5 -63.5q78 0 142 35.5t102 101.5zM580 1149q-136 0 -220 76.5t-88 208.5h185q0 -50 35.5 -81.5t87.5 -31.5t86 31.5t34 81.5h187q-6 -133 -90.5 -209t-216.5 -76z" />
    <glyph glyph-name="Edotaccent" unicode="&#x116;" 
d="M455 270h688v-270h-993v1434h980v-271h-675v-252h626v-270h-626v-371zM649 1573q-69 0 -114.5 46.5t-45.5 115.5q0 68 46.5 114.5t113.5 46.5q69 0 114.5 -46.5t45.5 -114.5q0 -69 -46 -115.5t-114 -46.5z" />
    <glyph glyph-name="edotaccent" unicode="&#x117;" horiz-adv-x="1136" 
d="M571 819q-80 0 -138.5 -49.5t-65.5 -138.5h405q-4 91 -62 139.5t-139 48.5zM858 346l201 -135q-63 -111 -180 -172.5t-279 -61.5q-107 0 -202 35.5t-169 101.5t-117.5 170t-43.5 232q0 122 41.5 224t112.5 168t163 102.5t195 36.5q208 0 344 -136q136 -133 145 -364
q2 -59 2 -105h-711q7 -106 79.5 -169.5t174.5 -63.5q78 0 142 35.5t102 101.5zM580 1163q-69 0 -114.5 46.5t-45.5 115.5q0 68 46.5 115t113.5 47q68 0 113.5 -47t45.5 -115q0 -69 -45.5 -115.5t-113.5 -46.5z" />
    <glyph glyph-name="Eogonek" unicode="&#x118;" 
d="M455 270h688v-270h-993v1434h980v-271h-675v-252h626v-270h-626v-371zM977 -414q-97 0 -162 48t-65 133q0 84 57.5 150t177.5 130l158 -47q-72 -29 -123 -72t-51 -92q0 -26 16.5 -40.5t42.5 -14.5q36 0 82 33l94 -150q-101 -78 -227 -78z" />
    <glyph glyph-name="eogonek" unicode="&#x119;" horiz-adv-x="1136" 
d="M571 819q-80 0 -138.5 -49.5t-65.5 -138.5h405q-4 91 -62 139.5t-139 48.5zM934 -186l94 -150q-101 -78 -227 -78q-99 0 -163.5 48t-64.5 135q0 122 105 213q-62 -5 -78 -5q-107 0 -202 35.5t-169 101.5t-117.5 170t-43.5 232q0 122 41.5 224t112.5 168t163 102.5
t195 36.5q208 0 344 -136q136 -133 145 -364q2 -59 2 -105h-711q7 -106 79.5 -169.5t174.5 -63.5q78 0 142 35.5t102 101.5l201 -135q-56 -93 -121 -137q-145 -116 -145 -230q0 -30 17 -46.5t44 -16.5q34 0 80 33z" />
    <glyph glyph-name="Ecaron" unicode="&#x11a;" 
d="M455 270h688v-270h-993v1434h980v-271h-675v-252h626v-270h-626v-371zM653 1765l303 158v-215l-311 -170l-307 170v215z" />
    <glyph glyph-name="ecaron" unicode="&#x11b;" horiz-adv-x="1136" 
d="M571 819q-80 0 -138.5 -49.5t-65.5 -138.5h405q-4 91 -62 139.5t-139 48.5zM858 346l201 -135q-63 -111 -180 -172.5t-279 -61.5q-107 0 -202 35.5t-169 101.5t-117.5 170t-43.5 232q0 122 41.5 224t112.5 168t163 102.5t195 36.5q208 0 344 -136q136 -133 145 -364
q2 -59 2 -105h-711q7 -106 79.5 -169.5t174.5 -63.5q78 0 142 35.5t102 101.5zM582 1348l282 155v-215l-289 -168l-286 168v215z" />
    <glyph glyph-name="Gcircumflex" unicode="&#x11c;" horiz-adv-x="1533" 
d="M1454 737v-69q0 -139 -37 -255t-101 -195.5t-150 -135t-182.5 -81.5t-201.5 -26q-142 0 -269 50.5t-224 143t-154 235t-57 315.5q0 170 56.5 311.5t152.5 234t223 143t270 50.5q237 0 410 -115.5t235 -320.5l-292 -86q-28 92 -121 164q-92 74 -232 74q-163 0 -274 -123.5
t-111 -331.5q0 -215 110.5 -339t276.5 -124q133 0 227 60t126 165h-324v256h643zM774 1681l-303 -157v215l311 170l308 -170v-215z" />
    <glyph glyph-name="gcircumflex" unicode="&#x11d;" horiz-adv-x="1069" 
d="M348 672q0 -66 45.5 -108t114.5 -42t114.5 42t45.5 108q0 63 -45.5 105t-114.5 42q-71 0 -115.5 -41.5t-44.5 -105.5zM995 -92q0 -148 -129 -234q-125 -88 -331 -88h-46q-196 0 -323 74q-127 71 -127 215q0 159 182 225q-69 43 -69 123q0 91 100 150q-78 46 -123 123.5
t-45 177.5q0 110 61 194.5t157 126t208 41.5h2h2q42 0 132 -8t179 -8h211v-215l-143 2q35 -65 35 -137q0 -173 -116.5 -269t-301.5 -96q-47 0 -68.5 -15.5t-21.5 -37.5q0 -25 25 -37.5t85 -13.5l119 -2q169 -1 257.5 -77.5t88.5 -213.5zM494 -203h47q188 0 188 99
q0 96 -182 96h-60q-184 -3 -184 -101q0 -94 191 -94zM537 1268l-283 -156v215l289 168l286 -168v-215z" />
    <glyph glyph-name="Gbreve" unicode="&#x11e;" horiz-adv-x="1533" 
d="M1454 737v-69q0 -139 -37 -255t-101 -195.5t-150 -135t-182.5 -81.5t-201.5 -26q-142 0 -269 50.5t-224 143t-154 235t-57 315.5q0 170 56.5 311.5t152.5 234t223 143t270 50.5q237 0 410 -115.5t235 -320.5l-292 -86q-28 92 -121 164q-92 74 -232 74q-163 0 -274 -123.5
t-111 -331.5q0 -215 110.5 -339t276.5 -124q133 0 227 60t126 165h-324v256h643zM780 1550q-153 0 -241.5 78.5t-94.5 214.5h193q2 -52 39.5 -83t103.5 -31q68 0 105 31t39 83h192q-8 -135 -97.5 -214t-238.5 -79z" />
    <glyph glyph-name="gbreve" unicode="&#x11f;" horiz-adv-x="1069" 
d="M348 672q0 -66 45.5 -108t114.5 -42t114.5 42t45.5 108q0 63 -45.5 105t-114.5 42q-71 0 -115.5 -41.5t-44.5 -105.5zM995 -92q0 -148 -129 -234q-125 -88 -331 -88h-46q-196 0 -323 74q-127 71 -127 215q0 159 182 225q-69 43 -69 123q0 91 100 150q-78 46 -123 123.5
t-45 177.5q0 110 61 194.5t157 126t208 41.5h2h2q42 0 132 -8t179 -8h211v-215l-143 2q35 -65 35 -137q0 -173 -116.5 -269t-301.5 -96q-47 0 -68.5 -15.5t-21.5 -37.5q0 -25 25 -37.5t85 -13.5l119 -2q169 -1 257.5 -77.5t88.5 -213.5zM494 -203h47q188 0 188 99
q0 96 -182 96h-60q-184 -3 -184 -101q0 -94 191 -94zM539 1143q-136 0 -220 76t-88 208h185q0 -50 35.5 -81t87.5 -31t86 31t34 81h187q-6 -133 -90.5 -208.5t-216.5 -75.5z" />
    <glyph glyph-name="Gdotaccent" unicode="&#x120;" horiz-adv-x="1533" 
d="M1454 737v-69q0 -139 -37 -255t-101 -195.5t-150 -135t-182.5 -81.5t-201.5 -26q-142 0 -269 50.5t-224 143t-154 235t-57 315.5q0 170 56.5 311.5t152.5 234t223 143t270 50.5q237 0 410 -115.5t235 -320.5l-292 -86q-28 92 -121 164q-92 74 -232 74q-163 0 -274 -123.5
t-111 -331.5q0 -215 110.5 -339t276.5 -124q133 0 227 60t126 165h-324v256h643zM780 1573q-69 0 -114 46.5t-45 115.5q0 68 46 114.5t113 46.5q69 0 114.5 -46.5t45.5 -114.5q0 -69 -46 -115.5t-114 -46.5z" />
    <glyph glyph-name="gdotaccent" unicode="&#x121;" horiz-adv-x="1069" 
d="M348 672q0 -66 45.5 -108t114.5 -42t114.5 42t45.5 108q0 63 -45.5 105t-114.5 42q-71 0 -115.5 -41.5t-44.5 -105.5zM995 -92q0 -148 -129 -234q-125 -88 -331 -88h-46q-196 0 -323 74q-127 71 -127 215q0 159 182 225q-69 43 -69 123q0 91 100 150q-78 46 -123 123.5
t-45 177.5q0 110 61 194.5t157 126t208 41.5h2h2q42 0 132 -8t179 -8h211v-215l-143 2q35 -65 35 -137q0 -173 -116.5 -269t-301.5 -96q-47 0 -68.5 -15.5t-21.5 -37.5q0 -25 25 -37.5t85 -13.5l119 -2q169 -1 257.5 -77.5t88.5 -213.5zM494 -203h47q188 0 188 99
q0 96 -182 96h-60q-184 -3 -184 -101q0 -94 191 -94zM541 1157q-69 0 -114.5 46.5t-45.5 115.5q0 68 46.5 115t113.5 47q68 0 113.5 -47t45.5 -115q0 -69 -45.5 -115.5t-113.5 -46.5z" />
    <glyph glyph-name="Gcommaaccent" unicode="&#x122;" horiz-adv-x="1533" 
d="M1454 737v-69q0 -139 -37 -255t-101 -195.5t-150 -135t-182.5 -81.5t-201.5 -26q-142 0 -269 50.5t-224 143t-154 235t-57 315.5q0 170 56.5 311.5t152.5 234t223 143t270 50.5q237 0 410 -115.5t235 -320.5l-292 -86q-28 92 -121 164q-92 74 -232 74q-163 0 -274 -123.5
t-111 -331.5q0 -215 110.5 -339t276.5 -124q133 0 227 60t126 165h-324v256h643zM817 -567h-162l80 164q-40 15 -70 50t-30 89q0 62 44.5 105.5t102.5 43.5q66 0 109 -44t43 -105q0 -39 -13.5 -78.5t-43.5 -103.5z" />
    <glyph glyph-name="gcommaaccent" unicode="&#x123;" horiz-adv-x="1069" 
d="M348 672q0 -66 45.5 -108t114.5 -42t114.5 42t45.5 108q0 63 -45.5 105t-114.5 42q-71 0 -115.5 -41.5t-44.5 -105.5zM995 -92q0 -148 -129 -234q-125 -88 -331 -88h-46q-196 0 -323 74q-127 71 -127 215q0 159 182 225q-69 43 -69 123q0 91 100 150q-78 46 -123 123.5
t-45 177.5q0 110 61 194.5t157 126t208 41.5h2h2q42 0 132 -8t179 -8h211v-215l-143 2q35 -65 35 -137q0 -173 -116.5 -269t-301.5 -96q-47 0 -68.5 -15.5t-21.5 -37.5q0 -25 25 -37.5t85 -13.5l119 -2q169 -1 257.5 -77.5t88.5 -213.5zM494 -203h47q188 0 188 99
q0 96 -182 96h-60q-184 -3 -184 -101q0 -94 191 -94zM508 1591h162l-80 -164q40 -15 70 -50t30 -89q0 -62 -44.5 -105.5t-102.5 -43.5q-66 0 -109 44t-43 105q0 39 13.5 77.5t44.5 104.5z" />
    <glyph glyph-name="Hcircumflex" unicode="&#x124;" horiz-adv-x="1531" 
d="M1382 0h-307v702h-618v-702h-307v1434h307v-461h618v461h307v-1434zM760 1681l-303 -157v215l311 170l307 -170v-215z" />
    <glyph glyph-name="hcircumflex" unicode="&#x125;" horiz-adv-x="1214" 
d="M621 780q-59 0 -111 -35.5t-80 -99.5v-645h-295v1470h295v-573q49 69 125.5 108t173.5 39q163 0 263 -102t100 -301v-641h-295v582q0 101 -46.5 149.5t-129.5 48.5zM657 1700l-282 -156v215l289 168l286 -168v-215z" />
    <glyph glyph-name="Hbar" unicode="&#x126;" horiz-adv-x="1554" 
d="M469 848h616v188h-616v-188zM1393 0h-308v578h-616v-578h-307v1036h-137v197h137v201h307v-201h616v201h308v-201h135v-197h-135v-1036z" />
    <glyph glyph-name="hbar" unicode="&#x127;" horiz-adv-x="1214" 
d="M621 780q-59 0 -111 -35.5t-80 -99.5v-645h-295v1161h-168v162h168v147h295v-147h277v-162h-277v-264q49 69 125.5 108t173.5 39q163 0 263 -102t100 -301v-641h-295v582q0 101 -46.5 149.5t-129.5 48.5z" />
    <glyph glyph-name="Itilde" unicode="&#x128;" horiz-adv-x="608" 
d="M457 0h-307v1434h307v-1434zM434 1571q-45 0 -89 19.5t-80 39t-62 19.5q-32 0 -52 -20.5t-22 -53.5l-156 20q0 100 54 179q52 79 147 79q45 0 89 -19.5t81 -38.5t64 -19q70 0 73 75l156 -22q0 -100 -53 -180q-54 -78 -150 -78z" />
    <glyph glyph-name="itilde" unicode="&#x129;" horiz-adv-x="567" 
d="M430 0h-295v1020h295v-1020zM412 1161q-45 0 -89 19.5t-80.5 39t-62.5 19.5q-32 0 -52 -20.5t-22 -53.5l-155 21q0 101 53 178q53 80 148 80q45 0 89 -19.5t80.5 -39t63.5 -19.5q35 0 53.5 20t20.5 56l155 -23q0 -100 -53 -180q-54 -78 -149 -78z" />
    <glyph glyph-name="Imacron" unicode="&#x12a;" horiz-adv-x="608" 
d="M457 0h-307v1434h307v-1434zM573 1612h-538v198h538v-198z" />
    <glyph glyph-name="imacron" unicode="&#x12b;" horiz-adv-x="567" 
d="M430 0h-295v1020h295v-1020zM537 1202h-506v191h506v-191z" />
    <glyph glyph-name="Ibreve" unicode="&#x12c;" horiz-adv-x="608" 
d="M457 0h-307v1434h307v-1434zM303 1567q-126 0 -200 71.5t-78 204.5h178q0 -51 27.5 -81.5t72.5 -30.5q47 0 73.5 30.5t26.5 81.5h179q-6 -133 -80 -204.5t-199 -71.5z" />
    <glyph glyph-name="ibreve" unicode="&#x12d;" horiz-adv-x="567" 
d="M430 0h-295v1020h295v-1020zM283 1157q-126 0 -200.5 72t-78.5 205h178q0 -51 28 -82t73 -31q47 0 73.5 30.5t26.5 82.5h178q-6 -133 -79.5 -205t-198.5 -72z" />
    <glyph glyph-name="Iogonek" unicode="&#x12e;" horiz-adv-x="606" 
d="M457 0h-307v1434h307v-1434zM291 -414q-97 0 -162.5 48.5t-65.5 132.5t58 150t178 130l158 -47q-72 -29 -123 -72t-51 -92q0 -26 16.5 -40.5t42.5 -14.5q36 0 82 33l94 -150q-101 -78 -227 -78z" />
    <glyph glyph-name="iogonek" unicode="&#x12f;" horiz-adv-x="567" 
d="M283 1149q-72 0 -121 49t-49 121q0 69 49.5 118.5t120.5 49.5q73 0 122.5 -49t49.5 -119q0 -72 -49.5 -121t-122.5 -49zM430 0h-295v1020h295v-1020zM264 -414q-97 0 -162 48t-65 133q0 84 57.5 150t177.5 130l158 -47q-72 -29 -123 -72t-51 -92q0 -26 16.5 -40.5
t42.5 -14.5q36 0 82 33l95 -150q-101 -78 -228 -78z" />
    <glyph glyph-name="Idot" unicode="&#x130;" horiz-adv-x="608" 
d="M457 0h-307v1434h307v-1434zM305 1573q-69 0 -114.5 46.5t-45.5 115.5q0 68 46.5 114.5t113.5 46.5q69 0 114.5 -46.5t45.5 -114.5q0 -69 -46 -115.5t-114 -46.5z" />
    <glyph glyph-name="dotlessi" unicode="&#x131;" horiz-adv-x="567" 
d="M430 0h-295v1020h295v-1020z" />
    <glyph glyph-name="IJ" unicode="&#x132;" horiz-adv-x="1413" 
d="M457 0h-307v1434h307v-1434zM872 -20q-79 0 -157 22t-125 57l153 248q52 -45 113 -45q52 0 79.5 32.5t27.5 108.5v1031h307v-1031q0 -209 -103 -316t-295 -107z" />
    <glyph glyph-name="ij" unicode="&#x133;" horiz-adv-x="1132" 
d="M283 1149q-72 0 -121 49t-49 121q0 69 49.5 118.5t120.5 49.5q73 0 122.5 -49t49.5 -119q0 -72 -49.5 -121t-122.5 -49zM430 0h-295v1020h295v-1020zM850 1149q-72 0 -121 49t-49 121q0 69 49 118.5t121 49.5q73 0 122.5 -49t49.5 -119q0 -72 -49.5 -121t-122.5 -49z
M702 1020h295v-1092q0 -186 -100 -264q-103 -80 -248 -80q-95 0 -175.5 30.5t-129.5 86.5l162 188q46 -53 106 -53q40 0 65 23.5t25 66.5v1094z" />
    <glyph glyph-name="Jcircumflex" unicode="&#x134;" horiz-adv-x="1116" 
d="M496 -20q-201 0 -329.5 109.5t-152.5 318.5l295 49q8 -88 54 -140.5t135 -52.5q78 0 124 51t46 150v969h307v-967q0 -243 -130.5 -365t-348.5 -122zM819 1681l-303 -157v215l311 170l308 -170v-215z" />
    <glyph glyph-name="jcircumflex" unicode="&#x135;" horiz-adv-x="567" 
d="M135 1020h295v-1092q0 -186 -100 -264q-103 -80 -248 -80q-95 0 -175.5 30.5t-129.5 86.5l162 188q46 -53 106 -53q40 0 65 23.5t25 66.5v1094zM281 1274l-283 -156v215l289 168l286 -168v-215z" />
    <glyph glyph-name="Kcommaaccent" unicode="&#x136;" horiz-adv-x="1392" 
d="M1382 0h-358l-418 743l-151 -147v-596h-305v1434h305v-486l501 486h402l-518 -482zM733 -567h-162l80 164q-40 15 -70 50t-30 89q0 62 44.5 105.5t102.5 43.5q66 0 109 -44t43 -105q0 -39 -13.5 -78.5t-43.5 -103.5z" />
    <glyph glyph-name="kcommaaccent" unicode="&#x137;" horiz-adv-x="1159" 
d="M1143 0h-338l-270 504l-109 -98v-406h-291v1470h291v-751l334 301h379l-381 -338zM608 -567h-162l80 164q-40 15 -70 50t-30 89q0 62 44.5 105.5t102.5 43.5q66 0 109 -44t43 -105q0 -39 -13.5 -78.5t-43.5 -103.5z" />
    <glyph glyph-name="kgreenlandic" unicode="&#x138;" horiz-adv-x="1155" 
d="M1143 0h-338l-264 494l-115 -109v-385h-291v1020h291v-318l338 318h375l-375 -346z" />
    <glyph glyph-name="Lacute" unicode="&#x139;" horiz-adv-x="1110" 
d="M1069 0h-919v1434h307v-1164h612v-270zM416 1554h-236v5l131 288h332v-4z" />
    <glyph glyph-name="lacute" unicode="&#x13a;" horiz-adv-x="567" 
d="M430 0h-295v1470h295v-1470zM395 1550h-235v4l131 289h332v-4z" />
    <glyph glyph-name="Lcommaaccent" unicode="&#x13b;" horiz-adv-x="1110" 
d="M1069 0h-919v1434h307v-1164h612v-270zM655 -567h-161l79 164q-40 15 -70 50t-30 89q0 62 45 105.5t103 43.5q66 0 108.5 -43.5t42.5 -105.5q0 -39 -13.5 -78.5t-43.5 -103.5z" />
    <glyph glyph-name="lcommaaccent" unicode="&#x13c;" horiz-adv-x="567" 
d="M430 0h-295v1470h295v-1470zM315 -567h-161l79 164q-40 15 -70 50t-30 89q0 62 45 105.5t103 43.5q66 0 108.5 -43.5t42.5 -105.5q0 -39 -13.5 -78.5t-43.5 -103.5z" />
    <glyph glyph-name="Lcaron" unicode="&#x13d;" horiz-adv-x="1110" 
d="M1069 0h-919v1434h307v-1164h612v-270zM821 997h-162l80 164q-40 15 -70 50t-30 89q0 62 44.5 106t102.5 44q66 0 109 -44t43 -106q0 -39 -13.5 -78.5t-43.5 -103.5z" />
    <glyph glyph-name="lcaron" unicode="&#x13e;" horiz-adv-x="567" 
d="M430 0h-295v1470h295v-1470zM766 1128h-244l86 342h269z" />
    <glyph glyph-name="Ldot" unicode="&#x13f;" horiz-adv-x="1116" 
d="M1069 0h-919v1434h307v-1164h612v-270zM848 592q-75 0 -129.5 55.5t-54.5 130.5t54.5 130t129.5 55t129.5 -55t54.5 -130t-54.5 -130.5t-129.5 -55.5z" />
    <glyph glyph-name="ldot" unicode="&#x140;" horiz-adv-x="937" 
d="M430 0h-295v1470h295v-1470zM725 551q-75 0 -129.5 55.5t-54.5 130.5t54.5 130t129.5 55t129.5 -55t54.5 -130t-54.5 -130.5t-129.5 -55.5z" />
    <glyph glyph-name="Lslash" unicode="&#x141;" horiz-adv-x="1142" 
d="M1098 270v-270h-920v442l-145 -69v227l145 70v764h307v-637l375 180v-227l-375 -181v-299h613z" />
    <glyph glyph-name="lslash" unicode="&#x142;" horiz-adv-x="628" 
d="M457 645v-645h-295v508l-152 -70v250l152 72v710h295v-573l161 76v-252z" />
    <glyph glyph-name="Nacute" unicode="&#x143;" horiz-adv-x="1511" 
d="M1362 0h-297l-614 901v-901h-301v1434h296l615 -914v914h301v-1434zM868 1554h-235v5l131 288h332v-4z" />
    <glyph glyph-name="nacute" unicode="&#x144;" horiz-adv-x="1214" 
d="M621 780q-59 0 -111 -35.5t-80 -99.5v-645h-295v1020h295v-123q49 69 125.5 108t173.5 39q163 0 263 -102t100 -301v-641h-295v582q0 101 -46.5 149.5t-129.5 48.5zM735 1145h-235v4l131 289h332v-4z" />
    <glyph glyph-name="Ncommaaccent" unicode="&#x145;" horiz-adv-x="1511" 
d="M1362 0h-297l-614 901v-901h-301v1434h296l615 -914v914h301v-1434zM793 -567h-162l80 164q-40 15 -70.5 50t-30.5 89q0 62 45 105.5t103 43.5q66 0 108.5 -43.5t42.5 -105.5q0 -39 -13.5 -78.5t-43.5 -103.5z" />
    <glyph glyph-name="ncommaaccent" unicode="&#x146;" horiz-adv-x="1214" 
d="M621 780q-59 0 -111 -35.5t-80 -99.5v-645h-295v1020h295v-123q49 69 125.5 108t173.5 39q163 0 263 -102t100 -301v-641h-295v582q0 101 -46.5 149.5t-129.5 48.5zM649 -567h-162l80 164q-40 15 -70 50t-30 89q0 62 44.5 105.5t102.5 43.5q66 0 109 -44t43 -105
q0 -39 -13.5 -78.5t-43.5 -103.5z" />
    <glyph glyph-name="Ncaron" unicode="&#x147;" horiz-adv-x="1511" 
d="M1362 0h-297l-614 901v-901h-301v1434h296l615 -914v914h301v-1434zM762 1765l303 158v-215l-311 -170l-308 170v215z" />
    <glyph glyph-name="ncaron" unicode="&#x148;" horiz-adv-x="1214" 
d="M621 780q-59 0 -111 -35.5t-80 -99.5v-645h-295v1020h295v-123q49 69 125.5 108t173.5 39q163 0 263 -102t100 -301v-641h-295v582q0 101 -46.5 149.5t-129.5 48.5zM629 1348l282 155v-215l-288 -168l-287 168v215z" />
    <glyph glyph-name="Eng" unicode="&#x14a;" horiz-adv-x="1511" 
d="M1020 -434q-188 0 -277 102l162 189q34 -37 82 -37q34 0 54 21.5t20 64.5v100l-610 895v-901h-301v1434h296l615 -914v914h301v-1524q0 -92 -27.5 -160.5t-76.5 -107.5t-108 -57.5t-130 -18.5z" />
    <glyph glyph-name="eng" unicode="&#x14b;" horiz-adv-x="1206" 
d="M1092 641v-641q-3 -383 -414 -397l-31 252q150 18 150 170v557q0 101 -46.5 149.5t-129.5 48.5q-59 0 -111 -35.5t-80 -99.5v-645h-295v1020h295v-123q49 69 125.5 108t173.5 39q163 0 263 -102t100 -301z" />
    <glyph glyph-name="Omacron" unicode="&#x14c;" horiz-adv-x="1568" 
d="M784 -25q-143 0 -270.5 50t-224.5 142.5t-154 235t-57 316.5q0 169 57 310t154 234t224.5 144t270.5 51t271 -50.5t224.5 -143t153 -234t56.5 -311.5q0 -173 -57.5 -316t-155 -235t-224 -142.5t-268.5 -50.5zM784 262q166 0 278 122t112 335q0 205 -113 330t-277 125
q-167 0 -278 -123t-111 -332q0 -211 113 -334t276 -123zM1053 1612h-539v198h539v-198z" />
    <glyph glyph-name="omacron" unicode="&#x14d;" horiz-adv-x="1183" 
d="M592 -23q-104 0 -197.5 35.5t-167 101.5t-116.5 170t-43 232q0 125 44.5 227.5t118.5 167.5t167.5 100.5t193.5 35.5q104 0 197.5 -35.5t167 -100.5t116.5 -167.5t43 -227.5t-44.5 -229t-118 -170.5t-167 -103t-194.5 -36.5zM592 238q96 0 160.5 73.5t64.5 204.5
q0 127 -65.5 198.5t-159.5 71.5t-159.5 -71t-65.5 -199q0 -129 66 -203.5t159 -74.5zM846 1202h-506v191h506v-191z" />
    <glyph glyph-name="Obreve" unicode="&#x14e;" horiz-adv-x="1568" 
d="M784 -25q-143 0 -270.5 50t-224.5 142.5t-154 235t-57 316.5q0 169 57 310t154 234t224.5 144t270.5 51t271 -50.5t224.5 -143t153 -234t56.5 -311.5q0 -173 -57.5 -316t-155 -235t-224 -142.5t-268.5 -50.5zM784 262q166 0 278 122t112 335q0 205 -113 330t-277 125
q-167 0 -278 -123t-111 -332q0 -211 113 -334t276 -123zM784 1550q-152 0 -240.5 78.5t-94.5 214.5h192q2 -52 39.5 -83t103.5 -31q68 0 105 31t39 83h192q-8 -135 -97.5 -214t-238.5 -79z" />
    <glyph glyph-name="obreve" unicode="&#x14f;" horiz-adv-x="1183" 
d="M592 -23q-104 0 -197.5 35.5t-167 101.5t-116.5 170t-43 232q0 125 44.5 227.5t118.5 167.5t167.5 100.5t193.5 35.5q104 0 197.5 -35.5t167 -100.5t116.5 -167.5t43 -227.5t-44.5 -229t-118 -170.5t-167 -103t-194.5 -36.5zM592 238q96 0 160.5 73.5t64.5 204.5
q0 127 -65.5 198.5t-159.5 71.5t-159.5 -71t-65.5 -199q0 -129 66 -203.5t159 -74.5zM592 1149q-136 0 -219.5 76t-87.5 209h184q0 -50 35.5 -81.5t87.5 -31.5t86.5 31.5t34.5 81.5h186q-6 -133 -90.5 -209t-216.5 -76z" />
    <glyph glyph-name="Ohungarumlaut" unicode="&#x150;" horiz-adv-x="1568" 
d="M784 -25q-143 0 -270.5 50t-224.5 142.5t-154 235t-57 316.5q0 169 57 310t154 234t224.5 144t270.5 51t271 -50.5t224.5 -143t153 -234t56.5 -311.5q0 -173 -57.5 -316t-155 -235t-224 -142.5t-268.5 -50.5zM784 262q166 0 278 122t112 335q0 205 -113 330t-277 125
q-167 0 -278 -123t-111 -332q0 -211 113 -334t276 -123zM1032 1554h-186l172 293h242zM700 1554h-178l123 293h229z" />
    <glyph glyph-name="ohungarumlaut" unicode="&#x151;" horiz-adv-x="1183" 
d="M592 -23q-104 0 -197.5 35.5t-167 101.5t-116.5 170t-43 232q0 125 44.5 227.5t118.5 167.5t167.5 100.5t193.5 35.5q104 0 197.5 -35.5t167 -100.5t116.5 -167.5t43 -227.5t-44.5 -229t-118 -170.5t-167 -103t-194.5 -36.5zM592 238q96 0 160.5 73.5t64.5 204.5
q0 127 -65.5 198.5t-159.5 71.5t-159.5 -71t-65.5 -199q0 -129 66 -203.5t159 -74.5zM840 1145h-187l172 293h242zM508 1145h-178l123 293h229z" />
    <glyph glyph-name="OE" unicode="&#x152;" horiz-adv-x="2015" 
d="M776 283h162v868h-162q-158 0 -270 -115q-111 -114 -111 -317q0 -202 109.5 -319t271.5 -117zM1931 0h-1155q-143 0 -269 48t-222 137t-151.5 227t-55.5 307q0 165 55.5 301.5t151.5 226t222 138.5t269 49h1143v-271h-676v-252h627v-270h-627v-371h688v-270z" />
    <glyph glyph-name="oe" unicode="&#x153;" horiz-adv-x="1875" 
d="M1311 819q-80 0 -139 -49.5t-66 -138.5h405q-4 92 -61.5 140t-138.5 48zM588 231q93 0 157 75t64 210q0 130 -64.5 204.5t-156.5 74.5q-93 0 -157 -74t-64 -205q0 -134 64 -209.5t157 -75.5zM1597 346l201 -135q-63 -111 -180 -172.5t-279 -61.5q-118 0 -217 44.5
t-166 128.5q-66 -82 -162 -127.5t-206 -45.5q-103 0 -196 35.5t-165.5 101.5t-115.5 170t-43 232q0 125 44 227.5t117.5 167.5t166 100.5t192.5 35.5q116 0 211.5 -43.5t158.5 -124.5q63 81 156.5 124.5t204.5 43.5q208 0 344 -136q136 -133 145 -364q2 -59 2 -105h-710
q7 -106 79.5 -169.5t174.5 -63.5q78 0 141.5 35.5t101.5 101.5z" />
    <glyph glyph-name="Racute" unicode="&#x154;" horiz-adv-x="1329" 
d="M727 1163h-274v-305h278q76 0 122 41.5t46 114.5q0 67 -48 108t-124 41zM1315 0h-352l-330 594h-180v-594h-303v1434h608q196 0 325 -112.5t129 -299.5q0 -90 -25.5 -159.5t-84.5 -129.5q-60 -63 -152 -100zM715 1554h-236v5l131 288h332v-4z" />
    <glyph glyph-name="racute" unicode="&#x155;" horiz-adv-x="835" 
d="M592 768q-52 0 -96.5 -30t-65.5 -76v-662h-295v1020h295v-119q38 60 94.5 97.5t124.5 37.5q103 0 178 -49l-98 -260q-65 41 -137 41zM537 1145h-236v4l131 289h332v-4z" />
    <glyph glyph-name="Rcommaaccent" unicode="&#x156;" horiz-adv-x="1329" 
d="M727 1163h-274v-305h278q76 0 122 41.5t46 114.5q0 67 -48 108t-124 41zM1315 0h-352l-330 594h-180v-594h-303v1434h608q196 0 325 -112.5t129 -299.5q0 -90 -25.5 -159.5t-84.5 -129.5q-60 -63 -152 -100zM715 -567h-162l80 164q-40 15 -70.5 50t-30.5 89
q0 62 45 105.5t103 43.5q66 0 108.5 -43.5t42.5 -105.5q0 -39 -13.5 -78.5t-43.5 -103.5z" />
    <glyph glyph-name="rcommaaccent" unicode="&#x157;" horiz-adv-x="835" 
d="M592 768q-52 0 -96.5 -30t-65.5 -76v-662h-295v1020h295v-119q38 60 94.5 97.5t124.5 37.5q103 0 178 -49l-98 -260q-65 41 -137 41zM315 -567h-161l79 164q-40 15 -70 50t-30 89q0 62 45 105.5t103 43.5q66 0 108.5 -43.5t42.5 -105.5q0 -39 -13.5 -78.5t-43.5 -103.5z
" />
    <glyph glyph-name="Rcaron" unicode="&#x158;" horiz-adv-x="1329" 
d="M727 1163h-274v-305h278q76 0 122 41.5t46 114.5q0 67 -48 108t-124 41zM1315 0h-352l-330 594h-180v-594h-303v1434h608q196 0 325 -112.5t129 -299.5q0 -90 -25.5 -159.5t-84.5 -129.5q-60 -63 -152 -100zM608 1765l303 158v-215l-311 -170l-307 170v215z" />
    <glyph glyph-name="rcaron" unicode="&#x159;" horiz-adv-x="835" 
d="M592 768q-52 0 -96.5 -30t-65.5 -76v-662h-295v1020h295v-119q38 60 94.5 97.5t124.5 37.5q103 0 178 -49l-98 -260q-65 41 -137 41zM428 1348l283 155v-215l-289 -168l-287 168v215z" />
    <glyph glyph-name="Sacute" unicode="&#x15a;" horiz-adv-x="1259" 
d="M635 -23q-252 0 -408 132q-155 131 -164 383l302 26q4 -143 80 -219t192 -76q105 0 172.5 47t67.5 127q0 73 -65 120.5t-210 86.5l-145 41q-342 94 -342 397q0 185 141 299q141 117 375 117q236 0 377 -112q142 -109 145 -291v-25l-299 -31v19q-1 96 -63.5 145t-161.5 49
q-98 0 -155.5 -42t-57.5 -109q0 -57 41.5 -91t156.5 -69l164 -49q204 -62 304 -166.5t100 -257.5q0 -198 -152 -326q-149 -125 -395 -125zM743 1554h-235v5l131 288h332v-4z" />
    <glyph glyph-name="sacute" unicode="&#x15b;" horiz-adv-x="991" 
d="M492 -20q-184 0 -299.5 76.5t-153.5 222.5l250 71q47 -153 203 -153q67 0 109 24.5t42 71.5q0 48 -54 74t-157 41q-168 28 -260 101.5t-92 211.5q0 146 121 235q126 91 307 91q175 0 279.5 -75t138.5 -200l-250 -63q-33 122 -170 122q-66 0 -105 -27t-39 -71
q0 -20 10 -35t25.5 -25t44.5 -18t55 -13t70 -11q81 -13 142.5 -35.5t113.5 -59.5t79.5 -95t27.5 -134q0 -149 -123 -237q-125 -90 -315 -90zM621 1145h-236v4l131 289h332v-4z" />
    <glyph glyph-name="Scircumflex" unicode="&#x15c;" horiz-adv-x="1259" 
d="M635 -23q-252 0 -408 132q-155 131 -164 383l302 26q4 -143 80 -219t192 -76q105 0 172.5 47t67.5 127q0 73 -65 120.5t-210 86.5l-145 41q-342 94 -342 397q0 185 141 299q141 117 375 117q236 0 377 -112q142 -109 145 -291v-25l-299 -31v19q-1 96 -63.5 145t-161.5 49
q-98 0 -155.5 -42t-57.5 -109q0 -57 41.5 -91t156.5 -69l164 -49q204 -62 304 -166.5t100 -257.5q0 -198 -152 -326q-149 -125 -395 -125zM627 1681l-303 -157v215l311 170l307 -170v-215z" />
    <glyph glyph-name="scircumflex" unicode="&#x15d;" horiz-adv-x="991" 
d="M492 -20q-184 0 -299.5 76.5t-153.5 222.5l250 71q47 -153 203 -153q67 0 109 24.5t42 71.5q0 48 -54 74t-157 41q-168 28 -260 101.5t-92 211.5q0 146 121 235q126 91 307 91q175 0 279.5 -75t138.5 -200l-250 -63q-33 122 -170 122q-66 0 -105 -27t-39 -71
q0 -20 10 -35t25.5 -25t44.5 -18t55 -13t70 -11q81 -13 142.5 -35.5t113.5 -59.5t79.5 -95t27.5 -134q0 -149 -123 -237q-125 -90 -315 -90zM506 1274l-283 -156v215l289 168l287 -168v-215z" />
    <glyph glyph-name="Scedilla" unicode="&#x15e;" horiz-adv-x="1259" 
d="M635 -23q-252 0 -408 132q-155 131 -164 383l302 26q4 -143 80 -219t192 -76q105 0 172.5 47t67.5 127q0 73 -65 120.5t-210 86.5l-145 41q-342 94 -342 397q0 185 141 299q141 117 375 117q236 0 377 -112q142 -109 145 -291v-25l-299 -31v19q-1 96 -63.5 145t-161.5 49
q-98 0 -155.5 -42t-57.5 -109q0 -57 41.5 -91t156.5 -69l164 -49q204 -62 304 -166.5t100 -257.5q0 -198 -152 -326q-149 -125 -395 -125zM618 -453q-86 0 -165 23l36 135q74 -18 119 -18q90 0 90 55q0 30 -27.5 45.5t-70.5 15.5q-16 0 -48.5 -3.5t-39.5 -4.5l51 238h162
l-39 -109q79 -2 132.5 -46.5t53.5 -131.5q0 -97 -69 -148t-185 -51z" />
    <glyph glyph-name="scedilla" unicode="&#x15f;" horiz-adv-x="991" 
d="M492 -20q-184 0 -299.5 76.5t-153.5 222.5l250 71q47 -153 203 -153q67 0 109 24.5t42 71.5q0 48 -54 74t-157 41q-168 28 -260 101.5t-92 211.5q0 146 121 235q126 91 307 91q175 0 279.5 -75t138.5 -200l-250 -63q-33 122 -170 122q-66 0 -105 -27t-39 -71
q0 -20 10 -35t25.5 -25t44.5 -18t55 -13t70 -11q81 -13 142.5 -35.5t113.5 -59.5t79.5 -95t27.5 -134q0 -149 -123 -237q-125 -90 -315 -90zM475 -453q-87 0 -166 23l37 135q74 -18 119 -18q90 0 90 55q0 30 -27.5 45.5t-70.5 15.5q-16 0 -48.5 -3.5t-39.5 -4.5l51 238h162
l-39 -109q79 -2 132.5 -46.5t53.5 -131.5q0 -97 -69 -148t-185 -51z" />
    <glyph glyph-name="Scaron" unicode="&#x160;" horiz-adv-x="1259" 
d="M635 -23q-252 0 -408 132q-155 131 -164 383l302 26q4 -143 80 -219t192 -76q105 0 172.5 47t67.5 127q0 73 -65 120.5t-210 86.5l-145 41q-342 94 -342 397q0 185 141 299q141 117 375 117q236 0 377 -112q142 -109 145 -291v-25l-299 -31v19q-1 96 -63.5 145t-161.5 49
q-98 0 -155.5 -42t-57.5 -109q0 -57 41.5 -91t156.5 -69l164 -49q204 -62 304 -166.5t100 -257.5q0 -198 -152 -326q-149 -125 -395 -125zM637 1765l303 158v-215l-311 -170l-307 170v215z" />
    <glyph glyph-name="scaron" unicode="&#x161;" horiz-adv-x="991" 
d="M492 -20q-184 0 -299.5 76.5t-153.5 222.5l250 71q47 -153 203 -153q67 0 109 24.5t42 71.5q0 48 -54 74t-157 41q-168 28 -260 101.5t-92 211.5q0 146 121 235q126 91 307 91q175 0 279.5 -75t138.5 -200l-250 -63q-33 122 -170 122q-66 0 -105 -27t-39 -71
q0 -20 10 -35t25.5 -25t44.5 -18t55 -13t70 -11q81 -13 142.5 -35.5t113.5 -59.5t79.5 -95t27.5 -134q0 -149 -123 -237q-125 -90 -315 -90zM512 1348l283 155v-215l-289 -168l-287 168v215z" />
    <glyph glyph-name="Tcaron" unicode="&#x164;" 
d="M1186 1434v-271h-418v-1163h-307v1163h-420v271h1145zM618 1765l304 158v-215l-312 -170l-307 170v215z" />
    <glyph glyph-name="tcaron" unicode="&#x165;" horiz-adv-x="768" 
d="M807 1141h-246l86 329h268zM647 268l107 -192q-108 -90 -267 -90q-143 0 -231 81t-88 244l2 465h-145v244h147v272h287v-272h254v-244h-256v-436q0 -113 92 -113q47 0 98 41z" />
    <glyph glyph-name="Tbar" unicode="&#x166;" 
d="M1042 844v-244h-274v-600h-307v600h-275v244h275v319h-420v271h1145v-271h-418v-319h274z" />
    <glyph glyph-name="tbar" unicode="&#x167;" horiz-adv-x="788" 
d="M655 268l107 -192q-108 -90 -266 -90q-143 0 -231.5 81t-88.5 244v123h-143v203h145v139h-145v244h147v272h287v-272h254v-244h-256v-139h258v-203h-258v-94q0 -113 92 -113q47 0 98 41z" />
    <glyph glyph-name="Utilde" unicode="&#x168;" horiz-adv-x="1433" 
d="M715 -23q-269 0 -423.5 144.5t-154.5 425.5v887h307v-873q0 -140 74.5 -219.5t198.5 -79.5q128 0 200 78t72 219v875h307v-885q0 -279 -156 -425.5t-425 -146.5zM846 1571q-45 0 -89 19.5t-80.5 39t-62.5 19.5q-32 0 -51.5 -20.5t-21.5 -53.5l-156 20q0 102 53 179
q52 79 148 79q45 0 89 -19.5t80.5 -38.5t63.5 -19q71 0 74 75l156 -22q0 -98 -54 -180q-54 -78 -149 -78z" />
    <glyph glyph-name="utilde" unicode="&#x169;" horiz-adv-x="1202" 
d="M1067 0h-295v125q-106 -145 -295 -145q-153 0 -254 94q-100 93 -100 297v649h295v-588q0 -97 47.5 -143.5t122.5 -46.5q55 0 104.5 33.5t79.5 95.5v649h295v-1020zM725 1161q-45 0 -89 19.5t-80 39t-62 19.5q-32 0 -52 -20.5t-22 -53.5l-156 21q0 101 53 178
q53 80 148 80q45 0 89 -19.5t80.5 -39t63.5 -19.5q35 0 53.5 20t20.5 56l156 -23q0 -98 -54 -180q-54 -78 -149 -78z" />
    <glyph glyph-name="Umacron" unicode="&#x16a;" horiz-adv-x="1433" 
d="M715 -23q-269 0 -423.5 144.5t-154.5 425.5v887h307v-873q0 -140 74.5 -219.5t198.5 -79.5q128 0 200 78t72 219v875h307v-885q0 -279 -156 -425.5t-425 -146.5zM987 1612h-538v198h538v-198z" />
    <glyph glyph-name="umacron" unicode="&#x16b;" horiz-adv-x="1202" 
d="M1067 0h-295v125q-106 -145 -295 -145q-153 0 -254 94q-100 93 -100 297v649h295v-588q0 -97 47.5 -143.5t122.5 -46.5q55 0 104.5 33.5t79.5 95.5v649h295v-1020zM848 1202h-506v191h506v-191z" />
    <glyph glyph-name="Ubreve" unicode="&#x16c;" horiz-adv-x="1433" 
d="M715 -23q-269 0 -423.5 144.5t-154.5 425.5v887h307v-873q0 -140 74.5 -219.5t198.5 -79.5q128 0 200 78t72 219v875h307v-885q0 -279 -156 -425.5t-425 -146.5zM717 1550q-153 0 -241.5 78.5t-94.5 214.5h192q2 -52 40 -83t104 -31q67 0 104 31t39 83h193
q-8 -135 -97.5 -214t-238.5 -79z" />
    <glyph glyph-name="ubreve" unicode="&#x16d;" horiz-adv-x="1202" 
d="M1067 0h-295v125q-106 -145 -295 -145q-153 0 -254 94q-100 93 -100 297v649h295v-588q0 -97 47.5 -143.5t122.5 -46.5q55 0 104.5 33.5t79.5 95.5v649h295v-1020zM596 1149q-136 0 -219.5 76t-87.5 209h184q0 -50 35.5 -81.5t87.5 -31.5t86.5 31.5t34.5 81.5h186
q-6 -133 -90.5 -209t-216.5 -76z" />
    <glyph glyph-name="Uring" unicode="&#x16e;" horiz-adv-x="1433" 
d="M715 -23q-269 0 -423.5 144.5t-154.5 425.5v887h307v-873q0 -140 74.5 -219.5t198.5 -79.5q128 0 200 78t72 219v875h307v-885q0 -279 -156 -425.5t-425 -146.5zM717 1526q-79 0 -134 53.5t-55 132.5q0 78 55.5 131t133.5 53t133 -53t55 -131q0 -79 -54.5 -132.5
t-133.5 -53.5zM717 1636q31 0 52.5 22t21.5 54q0 31 -21.5 52.5t-52.5 21.5t-52.5 -21.5t-21.5 -52.5q0 -32 21.5 -54t52.5 -22z" />
    <glyph glyph-name="uring" unicode="&#x16f;" horiz-adv-x="1202" 
d="M1067 0h-295v125q-106 -145 -295 -145q-153 0 -254 94q-100 93 -100 297v649h295v-588q0 -97 47.5 -143.5t122.5 -46.5q55 0 104.5 33.5t79.5 95.5v649h295v-1020zM594 1116q-78 0 -133 54t-55 133q0 78 55 131t133 53t133 -53t55 -131q0 -79 -55 -133t-133 -54z
M594 1227q31 0 52.5 22t21.5 54q0 31 -21.5 52t-52.5 21t-52.5 -21t-21.5 -52q0 -32 21.5 -54t52.5 -22z" />
    <glyph glyph-name="Uhungarumlaut" unicode="&#x170;" horiz-adv-x="1433" 
d="M715 -23q-269 0 -423.5 144.5t-154.5 425.5v887h307v-873q0 -140 74.5 -219.5t198.5 -79.5q128 0 200 78t72 219v875h307v-885q0 -279 -156 -425.5t-425 -146.5zM965 1554h-187l172 293h242zM633 1554h-178l123 293h229z" />
    <glyph glyph-name="uhungarumlaut" unicode="&#x171;" horiz-adv-x="1202" 
d="M1067 0h-295v125q-106 -145 -295 -145q-153 0 -254 94q-100 93 -100 297v649h295v-588q0 -97 47.5 -143.5t122.5 -46.5q55 0 104.5 33.5t79.5 95.5v649h295v-1020zM842 1145h-187l172 293h242zM510 1145h-178l123 293h229z" />
    <glyph glyph-name="Uogonek" unicode="&#x172;" horiz-adv-x="1433" 
d="M872 -414q-97 0 -162 48t-65 135q0 114 105 208h-35q-269 0 -423.5 144.5t-154.5 425.5v887h307v-873q0 -140 74.5 -219.5t198.5 -79.5q128 0 200 78t72 219v875h307v-885q0 -180 -67 -306.5t-189 -191.5q-174 -106 -174 -213q0 -28 16 -42.5t42 -14.5q40 0 82 33
l94 -150q-46 -37 -107.5 -57.5t-120.5 -20.5z" />
    <glyph glyph-name="uogonek" unicode="&#x173;" horiz-adv-x="1202" 
d="M1067 0h-295v125q-106 -145 -295 -145q-153 0 -254 94q-100 93 -100 297v649h295v-588q0 -97 47.5 -143.5t122.5 -46.5q55 0 104.5 33.5t79.5 95.5v649h295v-1020zM901 -414q-97 0 -162 48t-65 133q0 84 57.5 150t177.5 130l158 -47q-72 -29 -123 -72t-51 -92
q0 -26 16.5 -40.5t42.5 -14.5q36 0 82 33l94 -150q-101 -78 -227 -78z" />
    <glyph glyph-name="Wcircumflex" unicode="&#x174;" horiz-adv-x="1832" 
d="M1468 0h-290l-263 657l-260 -657h-293l-331 1434h311l221 -996l266 676h185l266 -676l221 996h299zM911 1673l-303 -157v215l312 170l307 -170v-215z" />
    <glyph glyph-name="wcircumflex" unicode="&#x175;" horiz-adv-x="1484" 
d="M1176 0h-242l-193 432l-192 -432h-246l-278 1020h290l156 -621l164 396h223l158 -389l164 614h280zM741 1274l-282 -156v215l289 168l286 -168v-215z" />
    <glyph glyph-name="Ycircumflex" unicode="&#x176;" horiz-adv-x="1249" 
d="M778 735v-735h-307v735l-463 699h357l268 -420l270 420h338zM618 1673l-303 -157v215l312 170l307 -170v-215z" />
    <glyph glyph-name="ycircumflex" unicode="&#x177;" horiz-adv-x="1021" 
d="M1016 1020l-590 -1409h-287l234 571l-367 838h301l215 -522l203 522h291zM518 1274l-282 -156v215l288 168l287 -168v-215z" />
    <glyph glyph-name="Ydieresis" unicode="&#x178;" horiz-adv-x="1249" 
d="M778 735v-735h-307v735l-463 699h357l268 -420l270 420h338zM844 1561q-62 0 -106 44t-44 105q0 60 44.5 104t105.5 44t104 -44t43 -104q0 -62 -43 -105.5t-104 -43.5zM406 1561q-62 0 -106 44t-44 105q0 60 44.5 104t105.5 44t104 -44t43 -104q0 -62 -43 -105.5
t-104 -43.5z" />
    <glyph glyph-name="Zacute" unicode="&#x179;" horiz-adv-x="1210" 
d="M1149 270v-270h-1096v211l690 952h-655v271h1042v-211l-686 -953h705zM702 1554h-235v5l131 288h332v-4z" />
    <glyph glyph-name="zacute" unicode="&#x17a;" horiz-adv-x="974" 
d="M905 244v-244h-835v178l462 598h-454v244h819v-178l-463 -598h471zM596 1145h-236v4l132 289h331v-4z" />
    <glyph glyph-name="Zdotaccent" unicode="&#x17b;" horiz-adv-x="1210" 
d="M1149 270v-270h-1096v211l690 952h-655v271h1042v-211l-686 -953h705zM592 1573q-69 0 -114.5 46.5t-45.5 115.5q0 68 46.5 114.5t113.5 46.5q69 0 114.5 -46.5t45.5 -114.5q0 -69 -46 -115.5t-114 -46.5z" />
    <glyph glyph-name="zdotaccent" unicode="&#x17c;" horiz-adv-x="974" 
d="M905 244v-244h-835v178l462 598h-454v244h819v-178l-463 -598h471zM485 1163q-69 0 -114 46.5t-45 115.5q0 68 46 115t113 47q68 0 114 -47t46 -115q0 -69 -46 -115.5t-114 -46.5z" />
    <glyph glyph-name="Zcaron" unicode="&#x17d;" horiz-adv-x="1210" 
d="M1149 270v-270h-1096v211l690 952h-655v271h1042v-211l-686 -953h705zM596 1765l303 158v-215l-311 -170l-307 170v215z" />
    <glyph glyph-name="zcaron" unicode="&#x17e;" horiz-adv-x="974" 
d="M905 244v-244h-835v178l462 598h-454v244h819v-178l-463 -598h471zM487 1348l283 155v-215l-289 -168l-286 168v215z" />
    <glyph glyph-name="florin" unicode="&#x192;" horiz-adv-x="1009" 
d="M63 -414q-102 0 -175.5 34t-106.5 81l182 178q34 -51 94 -51q39 0 66.5 27t34.5 77l149 844h-168v244h209l21 110q59 349 387 349q103 0 176 -33.5t106 -81.5l-182 -178q-34 51 -92 51q-86 0 -100 -104l-21 -113h191v-244h-234l-147 -842q-58 -348 -390 -348z" />
    <glyph glyph-name="Icaron" unicode="&#x1cf;" horiz-adv-x="608" 
d="M457 0h-307v1434h307v-1434zM309 1765l303 158v-215l-311 -170l-307 170v215z" />
    <glyph glyph-name="icaron" unicode="&#x1d0;" horiz-adv-x="567" 
d="M430 0h-295v1020h295v-1020zM287 1348l282 155v-215l-288 -168l-287 168v215z" />
    <glyph glyph-name="Aringacute" unicode="&#x1fa;" horiz-adv-x="1411" 
d="M702 1112h-4l-145 -453h295zM1391 0h-332l-137 391h-445l-135 -391h-319l505 1434h357zM707 1526q-79 0 -134 53.5t-55 132.5q0 78 55.5 131t133.5 53t133 -53t55 -131q0 -79 -54.5 -132.5t-133.5 -53.5zM707 1636q31 0 52 22t21 54q0 31 -21 52.5t-52 21.5t-52.5 -21.5
t-21.5 -52.5q0 -32 21.5 -54t52.5 -22zM825 1982h-235v5l131 288h332v-4z" />
    <glyph glyph-name="aringacute" unicode="&#x1fb;" horiz-adv-x="1114" 
d="M496 211q36 0 69 13t82 42l55 35l3 193l-164 -45q-93 -26 -132.5 -53.5t-39.5 -76.5q0 -52 38.5 -80t88.5 -28zM707 94l-7 -6q-126 -108 -274 -108q-145 0 -247.5 88.5t-102.5 232.5q0 126 84.5 201t261.5 121l283 73q-7 58 -52 88.5t-116 30.5q-147 0 -189 -123l-258 70
q42 138 166 212.5t293 74.5q207 0 324.5 -97t117.5 -278v-674h-282zM559 1116q-78 0 -133 54t-55 133q0 78 55 131t133 53t133.5 -53t55.5 -131q0 -79 -55 -133t-134 -54zM559 1227q31 0 52.5 22t21.5 54q0 31 -21.5 52t-52.5 21t-52.5 -21t-21.5 -52q0 -32 21.5 -54
t52.5 -22zM680 1573h-236v4l131 289h332v-4z" />
    <glyph glyph-name="AEacute" unicode="&#x1fc;" horiz-adv-x="1923" 
d="M866 1163h-30l-195 -454h250zM1839 0h-909l-25 453h-375l-194 -453h-328l631 1434h1188v-271h-664l15 -252h600v-268h-584l20 -373h625v-270zM1335 1538h-235v4l131 289h332v-4z" />
    <glyph glyph-name="aeacute" unicode="&#x1fd;" horiz-adv-x="1765" 
d="M1198 819q-80 0 -139 -49.5t-66 -138.5h406q-4 91 -62 139.5t-139 48.5zM496 211q62 0 155 55l76 45q-30 86 -33 178l-153 -40q-92 -26 -132 -54.5t-40 -75.5q0 -53 38.5 -80.5t88.5 -27.5zM1485 346l201 -135q-63 -111 -180 -172.5t-279 -61.5q-112 0 -214 40t-175 114
l-37 -25q-96 -63 -184 -94.5t-191 -31.5q-145 0 -247.5 89t-102.5 232q0 129 84 202.5t262 119.5l278 71q-12 121 -165 121q-69 0 -118 -31.5t-69 -91.5l-258 70q42 138 166 212.5t293 74.5q221 0 330 -115q137 113 327 113q208 0 344 -136q137 -134 146 -364q2 -59 2 -105
h-711q7 -106 79.5 -169.5t174.5 -63.5q78 0 142 35.5t102 101.5zM1008 1145h-236v4l131 289h332v-4z" />
    <glyph glyph-name="Oslashacute" unicode="&#x1fe;" horiz-adv-x="1568" 
d="M395 719q0 -173 82 -295l469 713q-73 37 -162 37q-167 0 -278 -123t-111 -332zM784 262q166 0 278 122t112 335q0 169 -82 291l-471 -711q75 -37 163 -37zM784 -25q-179 0 -327 74l-101 -151h-227l172 260q-106 97 -164.5 239t-58.5 322q0 169 57 310t154 234t224.5 144
t270.5 51q178 0 326 -74l100 152h230l-172 -260q103 -97 162 -239.5t59 -317.5q0 -173 -57.5 -316t-155 -235t-224 -142.5t-268.5 -50.5zM874 1554h-235v5l131 288h332v-4z" />
    <glyph glyph-name="oslashacute" unicode="&#x1ff;" horiz-adv-x="1183" 
d="M367 516q0 -97 36 -164l267 420q-35 14 -78 14q-94 0 -159.5 -71t-65.5 -199zM592 238q96 0 160.5 73.5t64.5 204.5q0 94 -35 156l-264 -420q32 -14 74 -14zM592 -23q-111 0 -219 43l-78 -122h-176l127 200q-178 150 -178 418q0 125 44.5 227.5t118.5 167.5t167.5 100.5
t193.5 35.5q113 0 221 -43l76 118h176l-125 -196q82 -70 129 -174.5t47 -235.5q0 -125 -44.5 -229t-118 -170.5t-167 -103t-194.5 -36.5zM696 1145h-235v4l131 289h332v-4z" />
    <glyph glyph-name="Scommaaccent" unicode="&#x218;" horiz-adv-x="1259" 
d="M635 -23q-252 0 -408 132q-155 131 -164 383l302 26q4 -143 80 -219t192 -76q105 0 172.5 47t67.5 127q0 73 -65 120.5t-210 86.5l-145 41q-342 94 -342 397q0 185 141 299q141 117 375 117q236 0 377 -112q142 -109 145 -291v-25l-299 -31v19q-1 96 -63.5 145t-161.5 49
q-98 0 -155.5 -42t-57.5 -109q0 -57 41.5 -91t156.5 -69l164 -49q204 -62 304 -166.5t100 -257.5q0 -198 -152 -326q-149 -125 -395 -125zM670 -567h-162l80 164q-40 15 -70.5 50t-30.5 89q0 62 45 105.5t103 43.5q66 0 108.5 -43.5t42.5 -105.5q0 -39 -13.5 -78.5
t-43.5 -103.5z" />
    <glyph glyph-name="scommaaccent" unicode="&#x219;" horiz-adv-x="991" 
d="M492 -20q-184 0 -299.5 76.5t-153.5 222.5l250 71q47 -153 203 -153q67 0 109 24.5t42 71.5q0 48 -54 74t-157 41q-168 28 -260 101.5t-92 211.5q0 146 121 235q126 91 307 91q175 0 279.5 -75t138.5 -200l-250 -63q-33 122 -170 122q-66 0 -105 -27t-39 -71
q0 -20 10 -35t25.5 -25t44.5 -18t55 -13t70 -11q81 -13 142.5 -35.5t113.5 -59.5t79.5 -95t27.5 -134q0 -149 -123 -237q-125 -90 -315 -90zM524 -567h-162l80 164q-40 15 -70 50t-30 89q0 62 44.5 105.5t102.5 43.5q66 0 109 -44t43 -105q0 -39 -13.5 -78.5t-43.5 -103.5z
" />
    <glyph glyph-name="Tcommaaccent" unicode="&#x21a;" 
d="M1186 1434v-271h-418v-1163h-307v1163h-420v271h1145zM647 -567h-162l80 164q-40 15 -70 50t-30 89q0 62 44.5 105.5t102.5 43.5q66 0 109 -44t43 -105q0 -39 -13.5 -78.5t-43.5 -103.5z" />
    <glyph glyph-name="tcommaaccent" unicode="&#x21b;" horiz-adv-x="768" 
d="M647 268l107 -192q-108 -90 -267 -90q-143 0 -231 81t-88 244l2 465h-145v244h147v272h287v-272h254v-244h-256v-436q0 -113 92 -113q47 0 98 41zM467 -567h-162l80 164q-40 15 -70 50t-30 89q0 62 44.5 105.5t102.5 43.5q66 0 109 -44t43 -105q0 -39 -13.5 -77.5
t-44.5 -104.5z" />
    <glyph glyph-name="dotlessj" unicode="&#x237;" horiz-adv-x="567" 
d="M135 1020h295v-1092q0 -186 -100 -264q-103 -80 -248 -80q-95 0 -175.5 30.5t-129.5 86.5l162 188q46 -53 106 -53q40 0 65 23.5t25 66.5v1094z" />
    <glyph glyph-name="circumflex" unicode="&#x2c6;" horiz-adv-x="802" 
d="M395 1272l-303 -158v215l311 170l308 -170v-215z" />
    <glyph glyph-name="caron" unicode="&#x2c7;" horiz-adv-x="802" 
d="M408 1356l303 157v-215l-312 -170l-307 170v215z" />
    <glyph glyph-name="breve" unicode="&#x2d8;" horiz-adv-x="802" 
d="M401 1141q-152 0 -240.5 78.5t-94.5 214.5h192q2 -52 39.5 -83.5t103.5 -31.5q67 0 104.5 31.5t39.5 83.5h192q-8 -135 -97.5 -214t-238.5 -79z" />
    <glyph glyph-name="dotaccent" unicode="&#x2d9;" horiz-adv-x="462" 
d="M231 1163q-69 0 -114 46.5t-45 115.5q0 68 46 115t113 47q68 0 114 -47t46 -115q0 -69 -46 -115.5t-114 -46.5z" />
    <glyph glyph-name="ring" unicode="&#x2da;" horiz-adv-x="524" 
d="M262 1116q-78 0 -133 54t-55 133q0 78 55 131t133 53t133.5 -53t55.5 -131q0 -79 -55 -133t-134 -54zM262 1227q31 0 52.5 22t21.5 54q0 31 -21.5 52t-52.5 21t-52.5 -21t-21.5 -52q0 -32 21.5 -54t52.5 -22z" />
    <glyph glyph-name="ogonek" unicode="&#x2db;" horiz-adv-x="552" 
d="M291 -414q-97 0 -162.5 48.5t-65.5 132.5t58 150t178 130l158 -47q-72 -29 -123 -72t-51 -92q0 -26 16.5 -40.5t42.5 -14.5q36 0 82 33l94 -150q-101 -78 -227 -78z" />
    <glyph glyph-name="tilde" unicode="&#x2dc;" horiz-adv-x="806" 
d="M532 1161q-45 0 -89 19.5t-80 39t-62 19.5q-32 0 -52 -20.5t-22 -53.5l-155 21q0 101 53 178q53 80 147 80q45 0 89 -19.5t81 -39t64 -19.5q35 0 53.5 20t20.5 56l155 -23q0 -100 -53 -180q-54 -78 -150 -78z" />
    <glyph glyph-name="hungarumlaut" unicode="&#x2dd;" horiz-adv-x="841" 
d="M582 1145h-187l172 293h242zM250 1145h-178l123 293h229z" />
    <glyph glyph-name="Wgrave" unicode="&#x1e80;" horiz-adv-x="1832" 
d="M1468 0h-290l-263 657l-260 -657h-293l-331 1434h311l221 -996l266 676h185l266 -676l221 996h299zM1055 1546h-236l-227 289v4h332l131 -289v-4z" />
    <glyph glyph-name="wgrave" unicode="&#x1e81;" horiz-adv-x="1484" 
d="M1176 0h-242l-193 432l-192 -432h-246l-278 1020h290l156 -621l164 396h223l158 -389l164 614h280zM881 1145h-236l-227 289v4h332l131 -289v-4z" />
    <glyph glyph-name="Wacute" unicode="&#x1e82;" horiz-adv-x="1832" 
d="M1468 0h-290l-263 657l-260 -657h-293l-331 1434h311l221 -996l266 676h185l266 -676l221 996h299zM1028 1546h-235v4l131 289h331v-4z" />
    <glyph glyph-name="wacute" unicode="&#x1e83;" horiz-adv-x="1484" 
d="M1176 0h-242l-193 432l-192 -432h-246l-278 1020h290l156 -621l164 396h223l158 -389l164 614h280zM856 1145h-235v4l131 289h331v-4z" />
    <glyph glyph-name="Wdieresis" unicode="&#x1e84;" horiz-adv-x="1832" 
d="M1468 0h-290l-263 657l-260 -657h-293l-331 1434h311l221 -996l266 676h185l266 -676l221 996h299zM1137 1561q-62 0 -106 44t-44 105q0 60 44.5 104t105.5 44t104 -44t43 -104q0 -62 -43 -105.5t-104 -43.5zM698 1561q-62 0 -105.5 43.5t-43.5 105.5q0 60 44 104t105 44
t104.5 -44t43.5 -104q0 -62 -43.5 -105.5t-104.5 -43.5z" />
    <glyph glyph-name="wdieresis" unicode="&#x1e85;" horiz-adv-x="1484" 
d="M1176 0h-242l-193 432l-192 -432h-246l-278 1020h290l156 -621l164 396h223l158 -389l164 614h280zM963 1159q-61 0 -105.5 44.5t-44.5 105.5q0 60 44.5 103.5t105.5 43.5t104 -43.5t43 -103.5q0 -62 -43 -106t-104 -44zM524 1159q-61 0 -105 44t-44 106q0 60 44 103.5
t105 43.5t104.5 -43.5t43.5 -103.5q0 -62 -43.5 -106t-104.5 -44z" />
    <glyph glyph-name="Ygrave" unicode="&#x1ef2;" horiz-adv-x="1249" 
d="M778 735v-735h-307v735l-463 699h357l268 -420l270 420h338zM762 1546h-236l-227 289v4h332l131 -289v-4z" />
    <glyph glyph-name="ygrave" unicode="&#x1ef3;" horiz-adv-x="1021" 
d="M1016 1020l-590 -1409h-287l234 571l-367 838h301l215 -522l203 522h291zM657 1145h-235l-227 289v4h331l131 -289v-4z" />
    <glyph glyph-name="endash" unicode="&#x2013;" horiz-adv-x="1071" 
d="M987 545h-903v223h903v-223z" />
    <glyph glyph-name="emdash" unicode="&#x2014;" horiz-adv-x="1615" 
d="M1532 545h-1448v223h1448v-223z" />
    <glyph glyph-name="quoteleft" unicode="&#x2018;" horiz-adv-x="475" 
d="M162 1434h248l-86 -463h-273z" />
    <glyph glyph-name="quoteright" unicode="&#x2019;" horiz-adv-x="475" 
d="M313 971h-247l86 463h272z" />
    <glyph glyph-name="quotesinglbase" unicode="&#x201a;" horiz-adv-x="475" 
d="M313 -150h-247l86 463h272z" />
    <glyph glyph-name="quotedblleft" unicode="&#x201c;" horiz-adv-x="841" 
d="M557 1434h219l-86 -463h-244zM160 1434h219l-88 -463h-242z" />
    <glyph glyph-name="quotedblright" unicode="&#x201d;" horiz-adv-x="841" 
d="M285 971h-219l86 463h243zM682 971h-219l88 463h242z" />
    <glyph glyph-name="quotedblbase" unicode="&#x201e;" horiz-adv-x="841" 
d="M285 -150h-219l86 463h243zM682 -150h-219l88 463h242z" />
    <glyph glyph-name="dagger" unicode="&#x2020;" horiz-adv-x="1034" 
d="M965 1098v-246h-306v-852h-284v852h-305v246h305v336h284v-336h306z" />
    <glyph glyph-name="daggerdbl" unicode="&#x2021;" horiz-adv-x="1034" 
d="M965 588v-256h-308v-332h-280v332h-307v256h307v280h-307v254h307v312h280v-312h308v-254h-308v-280h308z" />
    <glyph glyph-name="bullet" unicode="&#x2022;" horiz-adv-x="782" 
d="M391 362q-109 0 -190 78q-78 81 -78 191t78 188q80 80 190 80q112 0 189 -80q79 -76 79 -188t-79 -191q-78 -78 -189 -78z" />
    <glyph glyph-name="ellipsis" unicode="&#x2026;" horiz-adv-x="1712" 
d="M289 -25q-75 0 -130 56t-55 131t55 129.5t130 54.5t129.5 -54.5t54.5 -129.5t-54.5 -131t-129.5 -56zM856 -25q-75 0 -129.5 56t-54.5 131t54.5 129.5t129.5 54.5t129.5 -54.5t54.5 -129.5t-54.5 -131t-129.5 -56zM1425 -25q-75 0 -129.5 56t-54.5 131t54.5 129.5
t129.5 54.5t130 -54.5t55 -129.5t-55 -131t-130 -56z" />
    <glyph glyph-name="perthousand" unicode="&#x2030;" horiz-adv-x="3006" 
d="M506 623q-169 0 -280 113t-111 306q0 189 111 302.5t280 113.5q167 0 276 -112q113 -113 113 -304q0 -194 -113 -307q-109 -112 -276 -112zM506 840q68 0 108.5 53.5t40.5 148.5q0 91 -41 145t-108 54q-68 0 -109 -53t-41 -146q0 -95 41.5 -148.5t108.5 -53.5zM698 -25
l-190 134l922 1351l192 -133zM1624 -20q-169 0 -280 113t-111 306q0 189 111 302.5t280 113.5q167 0 277 -113q112 -112 112 -303q0 -195 -112 -307q-109 -112 -277 -112zM1624 197q69 0 109.5 53.5t40.5 148.5q0 91 -41.5 145t-108.5 54q-68 0 -108.5 -53t-40.5 -146
q0 -95 41 -148.5t108 -53.5zM2501 -20q-169 0 -280.5 113t-111.5 306q0 189 111.5 302.5t280.5 113.5q166 0 276 -113q113 -113 113 -303q0 -194 -113 -307q-109 -112 -276 -112zM2501 197q68 0 108.5 53.5t40.5 148.5q0 91 -41 145t-108 54q-68 0 -109 -53t-41 -146
q0 -95 41.5 -148.5t108.5 -53.5z" />
    <glyph glyph-name="guilsinglleft" unicode="&#x2039;" horiz-adv-x="669" 
d="M604 207l-192 -158l-369 463l369 461l188 -154l-248 -303z" />
    <glyph glyph-name="guilsinglright" unicode="&#x203a;" horiz-adv-x="669" 
d="M66 815l192 158l369 -463l-369 -461l-188 154l247 303z" />
    <glyph glyph-name="fraction" unicode="&#x2044;" horiz-adv-x="499" 
d="M-117 -25l-190 134l921 1351l193 -133z" />
    <glyph glyph-name="twoinferior" unicode="&#x2082;" horiz-adv-x="776" 
d="M711 184v-184h-656v154l355 311q41 37 56 62t15 53q0 37 -25 60.5t-69 23.5t-70 -27t-26 -70h-232q3 131 99 209q94 76 235 76q151 0 234 -80q86 -80 86 -186q0 -67 -27 -118.5t-98 -111.5l-199 -172h322z" />
    <glyph glyph-name="fourinferior" unicode="&#x2084;" horiz-adv-x="823" 
d="M795 356v-182h-129v-174h-211v174h-426v162l280 502h234l-275 -482h193v160h205v-160h129z" />
    <glyph glyph-name="Euro" unicode="&#x20ac;" horiz-adv-x="1482" 
d="M1200 385l199 -201q-171 -209 -486 -209q-225 0 -388.5 121t-223.5 348h-190v187h163q-2 18 -2 61q0 44 2 62h-163v184h192q61 218 224 337.5t386 119.5q161 0 279 -53.5t209 -159.5l-201 -193q-122 141 -287 141q-104 0 -182 -49t-121 -143h346v-184h-391q-2 -18 -2 -62
q0 -43 2 -61h391v-187h-350q42 -99 122 -150.5t185 -51.5q156 0 287 143z" />
    <glyph glyph-name="trademark" unicode="&#x2122;" horiz-adv-x="1736" 
d="M694 1434v-203h-200v-561h-222v561h-200v203h622zM1040 670h-209v764h252l134 -211l133 211h249v-764h-208v499l-136 -206h-79l-136 206v-499z" />
    <glyph glyph-name="estimated" unicode="&#x212e;" horiz-adv-x="1660" 
d="M829 -20q-205 0 -369.5 79.5t-261 232t-96.5 351.5q0 127 39 236.5t107 187.5t159.5 134t197.5 83t220 27q331 0 526.5 -186.5t207.5 -499.5h-1160q-10 0 -15 -1.5t-9 -9t-4 -22.5v-338q0 -29 34 -66t91.5 -72t146.5 -59t186 -24q139 0 263 58t200 151h133
q-126 -137 -272.5 -199.5t-323.5 -62.5zM825 1257q-112 0 -218 -30t-171 -78t-65 -98v-340q0 -19 6.5 -26t23.5 -7h852q22 0 28.5 7t6.5 26v340q0 51 -72 99.5t-179.5 77.5t-211.5 29z" />
    <glyph glyph-name="minus" unicode="&#x2212;" horiz-adv-x="1196" 
d="M1108 575h-1020v256h1020v-256z" />
    <glyph glyph-name="approxequal" unicode="&#x2248;" horiz-adv-x="1079" 
d="M727 266q-52 0 -108.5 24t-96.5 53t-84.5 53t-75.5 24q-45 0 -74 -33t-36 -98l-195 35q2 63 19.5 120t50.5 107.5t91 80.5t134 30q51 0 107.5 -24t97 -53t85.5 -53t75 -24q45 0 74 34t36 99l195 -35q-2 -50 -12.5 -97t-33.5 -92t-55.5 -78t-82.5 -53t-111 -20zM727 743
q-52 0 -108.5 24t-96.5 53t-84.5 53t-75.5 24q-45 0 -74 -33t-36 -98l-195 35q2 63 19.5 120t50.5 107.5t91 80.5t134 30q51 0 107.5 -24t97 -53t85.5 -53t75 -24q45 0 74 34t36 99l195 -35q-2 -50 -12.5 -97t-33.5 -92t-55.5 -78t-82.5 -53t-111 -20z" />
    <glyph glyph-name="notequal" unicode="&#x2260;" horiz-adv-x="1204" 
d="M1092 582v-244h-529l-121 -264h-252l121 264h-198v244h309l108 241h-417v244h528l121 264h252l-121 -264h199v-244h-310l-108 -241h418z" />
    <glyph glyph-name="commaaccent" unicode="&#xf6c3;" horiz-adv-x="468" 
d="M268 -567h-162l80 164q-40 15 -70 50t-30 89q0 62 44.5 105.5t102.5 43.5q66 0 109 -44t43 -105q0 -39 -13.5 -78.5t-43.5 -103.5z" />
    <glyph glyph-name="thinspace" horiz-adv-x="53" 
 />
    <glyph glyph-name="registered.alt" horiz-adv-x="1691" 
d="M846 -25q-202 0 -374 98.5t-273 270t-101 375.5q0 202 101 373t273 269.5t374 98.5q151 0 289 -58.5t238 -157t159 -236t59 -289.5q0 -153 -59 -291t-159 -237.5t-238 -157.5t-289 -58zM846 135q159 0 291.5 77.5t209 212t76.5 294.5q0 159 -76.5 293t-209.5 211t-291 77
q-159 0 -291.5 -77t-209.5 -211t-77 -293q0 -160 77 -294.5t209.5 -212t291.5 -77.5zM854 948h-94v-155h96q38 0 60 21t22 56q0 33 -24 55.5t-60 22.5zM1188 336h-227l-150 305h-51v-305h-203v768h342q104 0 176 -61t72 -166q0 -68 -35.5 -123.5t-93.5 -85.5z" />
    <glyph glyph-name="i.TRK" horiz-adv-x="567" 
d="M283 1149q-72 0 -121 49t-49 121q0 69 49.5 118.5t120.5 49.5q73 0 122.5 -49t49.5 -119q0 -72 -49.5 -121t-122.5 -49zM430 0h-295v1020h295v-1020z" />
    <glyph glyph-name="dieresis.i" horiz-adv-x="749" 
d="M553 1180q-55 0 -94 39.5t-39 93.5q0 55 39 94t94 39q54 0 93.5 -39t39.5 -94q0 -54 -39.5 -93.5t-93.5 -39.5zM197 1180q-55 0 -94.5 39.5t-39.5 93.5q0 55 39 94t95 39q55 0 94 -39t39 -94q0 -54 -39 -93.5t-94 -39.5z" />
    <glyph glyph-name="commaaccentup" horiz-adv-x="468" 
d="M201 1597h161l-79 -163q39 -15 69.5 -50.5t30.5 -89.5q0 -62 -44.5 -105.5t-102.5 -43.5q-66 0 -109 44t-43 105q0 39 13.5 79t43.5 104z" />
    <glyph glyph-name="circumflex.lc" horiz-adv-x="716" 
d="M354 1274l-282 -156v215l288 168l287 -168v-215z" />
    <glyph glyph-name="caron.lc" horiz-adv-x="716" 
d="M362 1348l283 155v-215l-289 -168l-286 168v215z" />
    <glyph glyph-name="breve.lc" horiz-adv-x="765" 
d="M383 1149q-136 0 -219.5 76t-87.5 209h184q0 -50 35.5 -81.5t87.5 -31.5t86.5 31.5t34.5 81.5h186q-6 -133 -90.5 -209t-216.5 -76z" />
    <glyph glyph-name="breve.i" horiz-adv-x="692" 
d="M346 1157q-126 0 -200 72t-78 205h178q0 -51 28 -82t72 -31q47 0 73.5 30.5t26.5 82.5h179q-6 -133 -80 -205t-199 -72z" />
    <glyph glyph-name="dieresis.lc" horiz-adv-x="880" 
d="M659 1159q-61 0 -105 44t-44 106q0 60 44 103.5t105 43.5t104.5 -43.5t43.5 -103.5q0 -62 -43.5 -106t-104.5 -44zM221 1159q-61 0 -105 44t-44 106q0 60 44 103.5t105 43.5t104.5 -43.5t43.5 -103.5q0 -62 -43.5 -106t-104.5 -44z" />
    <glyph glyph-name="tilde.lc" horiz-adv-x="806" 
d="M532 1161q-45 0 -89 19.5t-80 39t-62 19.5q-32 0 -52 -20.5t-22 -53.5l-155 21q0 101 53 178q53 80 147 80q45 0 89 -19.5t81 -39t64 -19.5q35 0 53.5 20t20.5 56l155 -23q0 -100 -53 -180q-54 -78 -150 -78z" />
    <glyph glyph-name="macron.lc" horiz-adv-x="657" 
d="M582 1202h-506v191h506v-191z" />
    <glyph glyph-name="zero.onum" horiz-adv-x="1286" 
d="M643 -23q-255 0 -404 173t-149 505q0 166 42 296t117 211.5t174.5 124t219.5 42.5q122 0 222.5 -42t174.5 -124.5t115 -212t41 -295.5q0 -331 -150.5 -504.5t-402.5 -173.5zM643 238q122 0 185 109t63 308q0 201 -65 307.5t-183 106.5q-121 0 -184.5 -105.5t-63.5 -308.5
q0 -195 63.5 -306t184.5 -111z" />
    <glyph glyph-name="one.onum" horiz-adv-x="827" 
d="M674 1307v-1307h-295v989l-322 -133l-16 260l430 191h203z" />
    <glyph glyph-name="two.onum" horiz-adv-x="1089" 
d="M1018 250v-250h-959v205l525 502q72 68 99.5 115.5t27.5 99.5q0 66 -48 107.5t-126 41.5q-85 0 -135.5 -47t-51.5 -129h-284q4 199 137.5 316.5t339.5 117.5q213 0 345 -114.5t132 -286.5q0 -96 -46.5 -182.5t-154.5 -184.5l-352 -311h551z" />
    <glyph glyph-name="three.onum" horiz-adv-x="1128" 
d="M545 -18q-136 0 -246 43.5t-180.5 136.5t-73.5 223h289q7 -74 65.5 -117t145.5 -43q89 0 147 47t58 121q0 75 -65.5 121.5t-170.5 46.5h-182v234h192q97 0 150 42.5t53 110.5q0 63 -50 101t-132 38q-80 0 -132.5 -38t-58.5 -105h-284q5 117 71 205.5t172 134t236 45.5
q225 0 350 -104q129 -102 129 -256q0 -95 -50.5 -165.5t-135.5 -111.5q98 -40 157.5 -122t59.5 -193q0 -171 -144 -285q-143 -110 -370 -110z" />
    <glyph glyph-name="four.onum" horiz-adv-x="1150" 
d="M1116 535v-242h-188v-293h-287v293h-602v215l430 799h307l-418 -772h289v239h281v-239h188z" />
    <glyph glyph-name="five.onum" horiz-adv-x="1126" 
d="M547 -23q-198 0 -326 93q-122 89 -158 225l271 84q19 -68 80 -112t135 -44q93 0 154 54t61 143q0 86 -63.5 142t-157.5 56q-118 0 -201 -83h-250l78 772h831v-250h-581l-29 -246q93 49 207 49q205 0 336 -119t131 -313q0 -139 -70 -243t-186.5 -156t-261.5 -52z" />
    <glyph glyph-name="six.onum" horiz-adv-x="1191" 
d="M1118 424q0 -192 -142.5 -319.5t-357.5 -127.5q-286 0 -423 222q-105 174 -105 405q0 431 197 606q132 119 356 119q184 0 310 -83t169 -230l-268 -70q-21 65 -76 101t-139 36q-108 0 -162 -61q-78 -81 -92 -291q43 58 116.5 87.5t162.5 29.5q206 0 330 -120.5
t124 -303.5zM621 223q92 0 149 55t57 136q0 79 -59.5 135.5t-146.5 56.5t-146 -56t-59 -136q0 -78 57 -134.5t148 -56.5z" />
    <glyph glyph-name="seven.onum" horiz-adv-x="1011" 
d="M975 1075l-535 -1075h-338l545 1057h-608v250h936v-232z" />
    <glyph glyph-name="eight.onum" horiz-adv-x="1163" 
d="M580 -23q-220 0 -361 112t-141 282q0 101 50 181.5t138 133.5q-71 45 -111 114.5t-40 155.5q0 160 133 266.5t334 106.5q208 0 338 -106q131 -107 131 -267q0 -167 -152 -264q186 -112 186 -321q0 -169 -145 -281.5t-360 -112.5zM582 1098q-82 0 -134.5 -43.5
t-52.5 -110.5q0 -65 54 -108t133 -43q82 0 135 42.5t53 108.5q0 67 -53 110.5t-135 43.5zM582 213q96 0 155.5 49t59.5 125q0 75 -61.5 124.5t-153.5 49.5t-152.5 -49.5t-60.5 -124.5q0 -74 61 -124t152 -50z" />
    <glyph glyph-name="nine.onum" horiz-adv-x="1191" 
d="M571 1083q-92 0 -149 -54.5t-57 -135.5q0 -79 59.5 -136t146.5 -57t146 56.5t59 136.5q0 78 -57 134t-148 56zM549 -23q-183 0 -309.5 83.5t-169.5 230.5l268 69q21 -65 76 -101t139 -36q108 0 162 62q78 81 92 290q-86 -116 -279 -116q-206 0 -330 120.5t-124 303.5
q0 192 142 319t357 127q132 0 242.5 -53t181.5 -168q105 -174 105 -406q0 -431 -197 -606q-132 -119 -356 -119z" />
    <glyph glyph-name="Euro.onum" horiz-adv-x="1417" 
d="M1149 354l194 -186q-172 -191 -471 -191q-207 0 -372 109q-161 109 -219 317h-183v170h156q-2 18 -2 56q0 39 2 57h-156v170h185q60 199 218 307.5t371 108.5q155 0 268.5 -49t202.5 -146l-196 -178q-123 127 -275 127q-98 0 -171.5 -44t-114.5 -126h327v-170h-372
q-2 -18 -2 -57q0 -38 2 -56h372v-170h-333q41 -87 116.5 -133.5t175.5 -46.5q89 0 152.5 35t124.5 96z" />
    <glyph glyph-name="dollar.onum" horiz-adv-x="1234" 
d="M414 897q0 -50 30.5 -82t114.5 -51v262q-68 -11 -106.5 -44.5t-38.5 -84.5zM858 340q0 52 -34.5 87t-118.5 54v-276q71 12 112 47t41 88zM705 -12v-191h-146v191q-212 18 -333 126.5t-128 305.5l283 26q1 -107 51 -164.5t127 -72.5v295l-57 8q-190 28 -280.5 126
t-90.5 245q0 152 116.5 250t311.5 112v170h146v-172q187 -15 305 -108q120 -91 120 -263l-280 -26q0 150 -145 176v-285l45 -8q196 -36 294.5 -130t98.5 -228q0 -159 -118.5 -262.5t-319.5 -120.5z" />
    <glyph glyph-name="sterling.onum" horiz-adv-x="1204" 
d="M1102 236v-236h-981v236h149q109 79 109 165q0 54 -39 127h-227v205h116q-32 84 -32 152q0 177 129 283t323 106q207 0 330.5 -102.5t136.5 -288.5l-293 -11q-1 74 -47.5 116t-122.5 42q-74 0 -116.5 -39t-42.5 -106q0 -68 41 -152h372v-205h-262q19 -59 19 -100
q0 -113 -101 -192h539z" />
    <glyph glyph-name="yen.onum" horiz-adv-x="1263" 
d="M1079 383v-170h-301v-213h-297v213h-297v170h297v113h-297v168h265l-414 587h348l258 -383l258 383h328l-412 -587h264v-168h-301v-113h301z" />
    <glyph glyph-name="percent.onum" horiz-adv-x="2043" 
d="M672 -23l-187 123l885 1231l186 -123zM481 567q-163 0 -270 103t-107 280q0 173 107 276t270 103q164 0 271.5 -103t107.5 -276q0 -175 -107.5 -279t-271.5 -104zM481 768q65 0 104.5 48t39.5 134q0 81 -40 129.5t-104 48.5t-103.5 -47.5t-39.5 -130.5q0 -86 39.5 -134
t103.5 -48zM1561 -18q-163 0 -270 103t-107 280q0 173 107 275.5t270 102.5q160 0 268 -102q110 -101 110 -276q0 -180 -110 -281q-108 -102 -268 -102zM1561 182q64 0 103.5 48.5t39.5 134.5q0 81 -39.5 129.5t-103.5 48.5t-104 -47.5t-40 -130.5q0 -86 40 -134.5
t104 -48.5z" />
    <glyph glyph-name="perthousand.onum" horiz-adv-x="2889" 
d="M672 -23l-187 123l885 1231l186 -123zM481 567q-163 0 -270 103t-107 280q0 173 107 276t270 103q164 0 271.5 -103t107.5 -276q0 -175 -107.5 -279t-271.5 -104zM481 768q65 0 104.5 48t39.5 134q0 81 -40 129.5t-104 48.5t-103.5 -47.5t-39.5 -130.5q0 -86 39.5 -134
t103.5 -48zM1561 -18q-163 0 -270 103t-107 280q0 173 107 275.5t270 102.5q160 0 268 -102q110 -101 110 -276q0 -180 -110 -281q-108 -102 -268 -102zM2408 -18q-164 0 -271 103t-107 280q0 173 107 275.5t271 102.5q161 0 269 -102t108 -276q0 -179 -108 -281t-269 -102z
M1561 182q64 0 103.5 48.5t39.5 134.5q0 81 -39.5 129.5t-103.5 48.5t-104 -47.5t-40 -130.5q0 -86 40 -134.5t104 -48.5zM2408 182q64 0 103 48.5t39 134.5q0 81 -39 129.5t-103 48.5t-103.5 -47.5t-39.5 -130.5q0 -86 39.5 -134.5t103.5 -48.5z" />
    <glyph glyph-name="zero.tlf" horiz-adv-x="1282" 
d="M639 -23q-221 0 -359.5 136t-156.5 350q-12 164 -12 254q0 92 12 256q18 211 159.5 348t360.5 137q221 0 359.5 -135.5t156.5 -349.5q12 -164 12 -256q0 -90 -12 -254q-18 -212 -158.5 -349t-361.5 -137zM641 260q90 0 143 55.5t64 149.5q12 89 12 252q0 166 -12 254
q-11 94 -66.5 149.5t-140.5 55.5t-140 -55t-67 -150q-12 -88 -12 -254q0 -163 12 -252q11 -90 66 -147.5t141 -57.5z" />
    <glyph glyph-name="one.tlf" horiz-adv-x="1282" 
d="M1165 274v-274h-966v274h372v816l-335 -150l-15 285l445 209h206v-1160h293z" />
    <glyph glyph-name="two.tlf" horiz-adv-x="1282" 
d="M1124 270v-270h-993v221l547 551q75 78 104 130.5t29 109.5q0 74 -51.5 121t-132.5 47q-88 0 -141 -53t-54 -144h-293q4 218 142 346.5t352 128.5q221 0 357 -124.5t136 -313.5q0 -108 -47 -203.5t-161 -200.5l-369 -346h575z" />
    <glyph glyph-name="three.tlf" horiz-adv-x="1282" 
d="M610 -20q-104 0 -195.5 28t-163 81.5t-114.5 139.5t-45 193h295q10 -82 71 -130t152 -48q94 0 154.5 51t60.5 135q0 86 -67 137t-178 51h-189v252h197q102 0 158.5 47t56.5 123q0 69 -54 113.5t-139 44.5q-83 0 -138 -43t-62 -117h-289q5 128 72 224.5t176.5 146
t244.5 49.5q230 0 363 -115t133 -280q0 -103 -54 -181t-141 -122q103 -45 164.5 -134t61.5 -212q0 -191 -148.5 -312.5t-382.5 -121.5z" />
    <glyph glyph-name="four.tlf" horiz-adv-x="1282" 
d="M1200 586v-264h-194v-322h-293v322h-627v231l449 881h315l-434 -848h303v264h287v-264h194z" />
    <glyph glyph-name="five.tlf" horiz-adv-x="1282" 
d="M637 -25q-207 0 -338 101q-129 102 -164 250l277 90q20 -78 84 -126t143 -48q96 0 159.5 60.5t63.5 158.5q0 94 -65 157.5t-164 63.5q-123 0 -211 -96h-256l80 848h862v-271h-604l-33 -272q94 53 215 53q216 0 350 -131q135 -132 135 -344q0 -115 -41.5 -209t-114 -156
t-169.5 -95.5t-209 -33.5z" />
    <glyph glyph-name="six.tlf" horiz-adv-x="1282" 
d="M1188 465q0 -211 -149 -350.5t-371 -139.5q-139 0 -256 59t-191 187q-100 180 -100 443q0 477 198 665q140 129 375 129q191 0 321 -90.5t175 -251.5l-275 -76q-24 71 -82 112.5t-143 41.5q-107 0 -172 -70q-80 -89 -94 -319q94 125 291 125q107 0 196.5 -36t149.5 -99
t93.5 -148t33.5 -182zM670 242q93 0 155 62t62 151t-62 151t-155 62t-154 -62t-61 -151q0 -90 59.5 -151.5t155.5 -61.5z" />
    <glyph glyph-name="seven.tlf" horiz-adv-x="1282" 
d="M1126 1182l-555 -1182h-344l561 1163h-628v271h966v-252z" />
    <glyph glyph-name="eight.tlf" horiz-adv-x="1282" 
d="M639 -25q-228 0 -373 122.5t-145 310.5q0 109 52.5 198t143.5 148q-159 107 -159 297q0 177 137 292t346 115q213 0 349 -114.5t136 -292.5q0 -182 -157 -293q91 -56 142.5 -145.5t51.5 -204.5q0 -186 -150 -309.5t-374 -123.5zM641 1206q-86 0 -140.5 -48t-54.5 -122
q0 -73 56 -120.5t139 -47.5q86 0 141.5 47t55.5 121t-55.5 122t-141.5 48zM641 229q99 0 162 56t63 141q0 82 -64 137t-161 55q-98 0 -161.5 -55t-63.5 -137t64.5 -139.5t160.5 -57.5z" />
    <glyph glyph-name="nine.tlf" horiz-adv-x="1282" 
d="M612 1192q-93 0 -155 -62t-62 -151t62 -151t155 -62t154 62t61 151q0 90 -59.5 151.5t-155.5 61.5zM588 -25q-191 0 -321 90.5t-175 251.5l275 76q24 -71 82 -112t143 -41q108 0 172 69q80 97 94 320q-46 -61 -123 -93t-168 -32q-107 0 -196.5 36t-149.5 99t-93.5 148
t-33.5 182q0 211 149 350t371 139q139 0 256 -59t191 -187q100 -180 100 -442q0 -478 -198 -666q-140 -129 -375 -129z" />
    <glyph glyph-name="space.tlf" horiz-adv-x="641" 
 />
    <glyph glyph-name="period.tlf" horiz-adv-x="641" 
d="M322 -25q-75 0 -130 56t-55 131t55 129.5t130 54.5t129.5 -54.5t54.5 -129.5t-54.5 -131t-129.5 -56z" />
    <glyph glyph-name="comma.tlf" horiz-adv-x="641" 
d="M266 -365l-153 117q111 148 155 234q-58 18 -94.5 65.5t-36.5 112.5q0 75 55 128.5t130 53.5q80 0 132 -55t52 -141q0 -69 -21 -141t-61.5 -142.5t-74.5 -120t-83 -111.5z" />
    <glyph glyph-name="quoteright.tlf" horiz-adv-x="641" 
d="M406 971h-248l86 463h272z" />
    <glyph glyph-name="zero.sup" horiz-adv-x="901" 
d="M451 684q-180 0 -282.5 114t-102.5 320q0 207 102 318.5t283 111.5q184 0 284.5 -110.5t100.5 -319.5q0 -206 -102 -320t-283 -114zM451 877q149 0 149 241q0 236 -149 236q-76 0 -113 -62t-37 -174q0 -241 150 -241z" />
    <glyph glyph-name="one.sup" horiz-adv-x="581" 
d="M475 698h-235v600l-197 -67l-14 203l290 102h156v-838z" />
    <glyph glyph-name="two.sup" horiz-adv-x="776" 
d="M711 883v-185h-656v154l355 311q41 37 56 62t15 53q0 37 -25 60.5t-69 23.5t-70 -26.5t-26 -69.5h-232q3 131 99 209q93 75 235 75q151 0 234 -80q86 -80 86 -186q0 -67 -27 -118t-98 -111l-199 -172h322z" />
    <glyph glyph-name="three.sup" horiz-adv-x="780" 
d="M383 686q-152 0 -244.5 69.5t-93.5 196.5h229q1 -43 32 -66.5t77 -23.5t75 23.5t29 66.5q0 45 -38 68.5t-93 23.5h-100v173h102q57 0 86 23t29 60q0 33 -24 54.5t-66 21.5q-39 0 -66.5 -23t-27.5 -59h-226q0 116 95 187q92 69 229 69q149 0 230 -66.5t81 -168.5
q0 -58 -33.5 -103.5t-89.5 -72.5q65 -26 103.5 -76.5t38.5 -120.5q0 -97 -84 -178q-84 -78 -250 -78z" />
    <glyph glyph-name="four.sup" horiz-adv-x="823" 
d="M795 1055v-183h-129v-174h-211v174h-426v162l280 502h234l-275 -481h193v159h205v-159h129z" />
    <glyph glyph-name="five.sup" horiz-adv-x="792" 
d="M395 684q-141 0 -228 57.5t-112 145.5l205 63q12 -36 44.5 -62t80.5 -26q53 0 86 29.5t33 83.5q0 49 -33.5 78.5t-85.5 29.5q-74 0 -109 -39h-190l37 492h586v-184h-394l-10 -125q62 20 121 20q137 0 223 -73.5t86 -196.5q0 -147 -94.5 -220t-245.5 -73z" />
    <glyph glyph-name="six.sup" horiz-adv-x="819" 
d="M764 971q0 -128 -94.5 -207.5t-251.5 -79.5q-72 0 -133 22t-111.5 67.5t-79 126t-28.5 187.5q0 463 383 463q108 0 190.5 -44.5t116.5 -110.5l-166 -97q-18 36 -56 57t-88 21q-71 0 -115 -47.5t-48 -138.5q68 55 180 55q135 0 218 -77.5t83 -196.5zM418 854q53 0 85 32.5
t32 82.5q0 45 -33.5 78.5t-83.5 33.5q-51 0 -84 -31.5t-33 -80.5q0 -50 33 -82.5t84 -32.5z" />
    <glyph glyph-name="seven.sup" horiz-adv-x="698" 
d="M315 698h-252l361 654h-406v184h664v-172z" />
    <glyph glyph-name="eight.sup" horiz-adv-x="815" 
d="M408 682q-162 0 -255.5 71t-93.5 185q0 120 123 190q-50 32 -77 78t-27 97q0 108 89.5 178.5t240.5 70.5t240 -69t89 -180q0 -50 -28 -96.5t-78 -78.5q125 -62 125 -190q0 -114 -94.5 -185t-253.5 -71zM408 1384q-57 0 -89 -25.5t-32 -68.5q0 -39 34 -64.5t87 -25.5
q54 0 87 25.5t33 64.5q0 43 -32.5 68.5t-87.5 25.5zM408 850q61 0 97 27.5t36 70.5t-36 71t-97 28q-62 0 -98 -27.5t-36 -71.5q0 -42 36.5 -70t97.5 -28z" />
    <glyph glyph-name="nine.sup" horiz-adv-x="839" 
d="M401 1380q-53 0 -84.5 -32t-31.5 -82q0 -46 33 -79.5t83 -33.5q51 0 84 32t33 81q0 50 -33 82t-84 32zM371 684q-108 0 -191 45t-117 111l166 96q18 -36 56 -57t88 -21q71 0 115.5 47.5t48.5 138.5q-68 -55 -181 -55q-135 0 -218 78t-83 197q0 128 94.5 207t251.5 79
q72 0 133 -22t111.5 -67.5t79.5 -126t29 -187.5q0 -463 -383 -463z" />
    <glyph glyph-name="zero.num" horiz-adv-x="901" 
d="M451 582q-180 0 -282.5 114t-102.5 320q0 207 102 318.5t283 111.5q184 0 284.5 -110.5t100.5 -319.5q0 -206 -102 -320t-283 -114zM451 774q149 0 149 242q0 235 -149 235q-150 0 -150 -235q0 -242 150 -242z" />
    <glyph glyph-name="one.num" horiz-adv-x="581" 
d="M475 596h-235v600l-197 -68l-14 203l290 103h156v-838z" />
    <glyph glyph-name="two.num" horiz-adv-x="776" 
d="M711 780v-184h-656v154l355 311q41 37 56 62t15 53q0 37 -25 60.5t-69 23.5t-70 -27t-26 -70h-232q3 131 99 209q94 76 235 76q151 0 234 -80q86 -80 86 -186q0 -67 -27 -118.5t-98 -111.5l-199 -172h322z" />
    <glyph glyph-name="three.num" horiz-adv-x="780" 
d="M383 584q-152 0 -244.5 69.5t-93.5 196.5h229q1 -43 32 -66.5t77 -23.5t75 23.5t29 66.5q0 45 -38 68.5t-93 23.5h-100v172h102q57 0 86 23.5t29 60.5q0 33 -24 54.5t-66 21.5q-39 0 -66.5 -23t-27.5 -59h-226q0 115 95 186q94 70 229 70q149 0 230 -67t81 -169
q0 -58 -33.5 -103.5t-89.5 -72.5q66 -26 104 -76t38 -120q0 -97 -84 -178q-84 -78 -250 -78z" />
    <glyph glyph-name="four.num" horiz-adv-x="823" 
d="M795 952v-182h-129v-174h-211v174h-426v162l280 502h234l-275 -482h193v160h205v-160h129z" />
    <glyph glyph-name="five.num" horiz-adv-x="792" 
d="M395 582q-141 0 -228 57t-112 145l205 64q12 -36 44.5 -62t80.5 -26q53 0 86 29t33 83q0 49 -33.5 79t-85.5 30q-74 0 -109 -39h-190l37 492h586v-185h-394l-10 -125q65 21 121 21q137 0 223 -74t86 -197q0 -147 -94.5 -219.5t-245.5 -72.5z" />
    <glyph glyph-name="six.num" horiz-adv-x="819" 
d="M764 868q0 -128 -94.5 -207t-251.5 -79q-72 0 -133 22t-111.5 67.5t-79 126t-28.5 187.5q0 463 383 463q108 0 190.5 -44.5t116.5 -111.5l-166 -96q-18 36 -56 57t-88 21q-71 0 -115 -48t-48 -139q69 56 180 56q135 0 218 -78t83 -197zM418 752q53 0 85 32t32 82
q0 45 -33.5 79t-83.5 34q-51 0 -84 -32t-33 -81q0 -50 33 -82t84 -32z" />
    <glyph glyph-name="seven.num" horiz-adv-x="698" 
d="M315 596h-252l361 653h-406v185h664v-172z" />
    <glyph glyph-name="eight.num" horiz-adv-x="815" 
d="M408 580q-162 0 -255.5 71t-93.5 185q0 120 123 190q-50 32 -77 78t-27 96q0 108 90 179t240 71q151 0 240 -69.5t89 -180.5q0 -50 -27.5 -96t-78.5 -78q125 -62 125 -190q0 -114 -94.5 -185t-253.5 -71zM408 1282q-57 0 -89 -25.5t-32 -68.5q0 -39 34 -64.5t87 -25.5
q54 0 87 25.5t33 64.5q0 43 -32.5 68.5t-87.5 25.5zM408 748q61 0 97 27.5t36 70.5t-36 70.5t-97 27.5q-62 0 -98 -27t-36 -71q0 -42 36.5 -70t97.5 -28z" />
    <glyph glyph-name="nine.num" horiz-adv-x="839" 
d="M401 1278q-53 0 -84.5 -32.5t-31.5 -82.5q0 -45 33 -78.5t83 -33.5q51 0 84 31.5t33 80.5q0 50 -33 82.5t-84 32.5zM371 582q-108 0 -191 44.5t-117 110.5l166 97q18 -36 56 -57t88 -21q71 0 115.5 47.5t48.5 138.5q-68 -55 -181 -55q-135 0 -218 77.5t-83 196.5
q0 128 94.5 207.5t251.5 79.5q72 0 133.5 -22t111.5 -68t79 -126.5t29 -187.5q0 -228 -93 -345t-290 -117z" />
    <glyph glyph-name="zero.den" horiz-adv-x="901" 
d="M451 -14q-180 0 -282.5 114t-102.5 320q0 207 102 318.5t283 111.5q184 0 284.5 -110.5t100.5 -319.5q0 -206 -102 -320t-283 -114zM451 178q149 0 149 242q0 235 -149 235q-150 0 -150 -235q0 -242 150 -242z" />
    <glyph glyph-name="one.den" horiz-adv-x="581" 
d="M475 0h-235v600l-197 -68l-14 203l290 103h156v-838z" />
    <glyph glyph-name="two.den" horiz-adv-x="776" 
d="M711 184v-184h-656v154l355 311q41 37 56 62t15 53q0 37 -25 60.5t-69 23.5t-70 -27t-26 -70h-232q3 131 99 209q94 76 235 76q151 0 234 -80q86 -80 86 -186q0 -67 -27 -118.5t-98 -111.5l-199 -172h322z" />
    <glyph glyph-name="three.den" horiz-adv-x="780" 
d="M383 -12q-152 0 -244.5 69.5t-93.5 196.5h229q1 -43 32 -66.5t77 -23.5t75 23.5t29 66.5q0 45 -38 68.5t-93 23.5h-100v172h102q57 0 86 23.5t29 60.5q0 33 -24 54.5t-66 21.5q-39 0 -66.5 -23t-27.5 -59h-226q0 115 95 186q94 70 229 70q149 0 230 -67t81 -169
q0 -58 -33.5 -103.5t-89.5 -72.5q66 -26 104 -76t38 -120q0 -97 -84 -178q-84 -78 -250 -78z" />
    <glyph glyph-name="four.den" horiz-adv-x="823" 
d="M795 356v-182h-129v-174h-211v174h-426v162l280 502h234l-275 -482h193v160h205v-160h129z" />
    <glyph glyph-name="five.den" horiz-adv-x="792" 
d="M395 -14q-141 0 -228 57t-112 145l205 64q12 -36 44.5 -62t80.5 -26q53 0 86 29t33 83q0 49 -33.5 79t-85.5 30q-74 0 -109 -39h-190l37 492h586v-185h-394l-10 -125q65 21 121 21q137 0 223 -73.5t86 -196.5q0 -147 -94.5 -220t-245.5 -73z" />
    <glyph glyph-name="six.den" horiz-adv-x="819" 
d="M764 272q0 -128 -94.5 -207t-251.5 -79q-72 0 -133 22t-111.5 67.5t-79 126t-28.5 187.5q0 463 383 463q108 0 190.5 -44.5t116.5 -111.5l-166 -96q-18 36 -56 57t-88 21q-71 0 -115 -47.5t-48 -138.5q68 55 180 55q135 0 218 -78t83 -197zM418 156q53 0 85 32t32 82
q0 45 -33.5 79t-83.5 34q-51 0 -84 -32t-33 -81q0 -50 33 -82t84 -32z" />
    <glyph glyph-name="seven.den" horiz-adv-x="698" 
d="M315 0h-252l361 653h-406v185h664v-172z" />
    <glyph glyph-name="eight.den" horiz-adv-x="815" 
d="M408 -16q-162 0 -255.5 71t-93.5 185q0 120 123 190q-50 32 -77 78t-27 96q0 108 90 179t240 71q151 0 240 -69.5t89 -180.5q0 -50 -27.5 -96t-78.5 -78q125 -62 125 -190q0 -114 -94.5 -185t-253.5 -71zM408 686q-57 0 -89 -25.5t-32 -68.5q0 -39 34 -64.5t87 -25.5
q54 0 87 25.5t33 64.5q0 43 -32.5 68.5t-87.5 25.5zM408 152q61 0 97 27.5t36 70.5t-36 70.5t-97 27.5q-62 0 -98 -27t-36 -71q0 -42 36.5 -70t97.5 -28z" />
    <glyph glyph-name="nine.den" horiz-adv-x="819" 
d="M401 682q-53 0 -84.5 -32.5t-31.5 -82.5q0 -45 33 -78.5t83 -33.5q51 0 84 31.5t33 80.5q0 50 -33 82.5t-84 32.5zM371 -14q-108 0 -191 44.5t-117 110.5l166 97q18 -36 56 -57t88 -21q71 0 115.5 47.5t48.5 138.5q-68 -55 -181 -55q-135 0 -218 77.5t-83 196.5
q0 128 94.5 207.5t251.5 79.5q72 0 133 -22t111.5 -67.5t79.5 -126t29 -187.5q0 -463 -383 -463z" />
    <glyph glyph-name="zero.sub" horiz-adv-x="901" 
d="M451 -219q-180 0 -282.5 114t-102.5 320q0 207 102 318.5t283 111.5q184 0 284.5 -110.5t100.5 -319.5q0 -206 -102 -320t-283 -114zM451 -27q149 0 149 242q0 236 -149 236q-76 0 -113 -62t-37 -174q0 -242 150 -242z" />
    <glyph glyph-name="one.sub" horiz-adv-x="581" 
d="M475 -205h-235v600l-197 -67l-14 202l290 103h156v-838z" />
    <glyph glyph-name="two.sub" horiz-adv-x="776" 
d="M711 -20v-185h-656v154l355 311q41 37 56 62t15 53q0 37 -25 60.5t-69 23.5t-70 -27t-26 -70h-232q3 131 99 209q94 76 235 76q151 0 234 -80q86 -80 86 -186q0 -67 -27 -118t-98 -111l-199 -172h322z" />
    <glyph glyph-name="three.sub" horiz-adv-x="780" 
d="M383 -217q-152 0 -244.5 69.5t-93.5 196.5h229q1 -43 32 -66.5t77 -23.5t75 23.5t29 66.5q0 45 -38 68.5t-93 23.5h-100v172h102q57 0 86 23.5t29 60.5q0 33 -24 54.5t-66 21.5q-39 0 -66.5 -23t-27.5 -59h-226q0 116 95 187q92 69 229 69q149 0 230 -66.5t81 -168.5
q0 -58 -33.5 -103.5t-89.5 -72.5q65 -26 103.5 -76.5t38.5 -120.5q0 -98 -84 -176q-83 -80 -250 -80z" />
    <glyph glyph-name="four.sub" horiz-adv-x="823" 
d="M795 152v-183h-129v-174h-211v174h-426v162l280 502h234l-275 -481h193v159h205v-159h129z" />
    <glyph glyph-name="five.sub" horiz-adv-x="792" 
d="M395 -219q-141 0 -228 57.5t-112 145.5l205 63q12 -36 44.5 -62t80.5 -26q53 0 86 29.5t33 83.5q0 49 -33.5 78.5t-85.5 29.5q-74 0 -109 -39h-190l37 492h586v-184h-394l-10 -125q62 20 121 20q137 0 223 -73.5t86 -196.5q0 -147 -94.5 -220t-245.5 -73z" />
    <glyph glyph-name="six.sub" horiz-adv-x="819" 
d="M764 68q0 -128 -94.5 -207.5t-251.5 -79.5q-72 0 -133 22t-111.5 67.5t-79 126t-28.5 187.5q0 463 383 463q108 0 190.5 -44.5t116.5 -110.5l-166 -97q-18 36 -56 57t-88 21q-71 0 -115 -47.5t-48 -138.5q68 55 180 55q135 0 218 -77.5t83 -196.5zM418 -49q53 0 85 32.5
t32 82.5q0 45 -33.5 78.5t-83.5 33.5q-51 0 -84 -31.5t-33 -80.5q0 -50 33 -82.5t84 -32.5z" />
    <glyph glyph-name="seven.sub" horiz-adv-x="698" 
d="M315 -205h-252l361 654h-406v184h664v-172z" />
    <glyph glyph-name="eight.sub" horiz-adv-x="815" 
d="M408 -221q-162 0 -255.5 71t-93.5 185q0 120 123 190q-50 32 -77 78t-27 96q0 108 90 179t240 71q151 0 240 -69.5t89 -180.5q0 -50 -27.5 -96t-78.5 -78q125 -63 125 -190q0 -114 -94.5 -185t-253.5 -71zM408 481q-57 0 -89 -25.5t-32 -68.5q0 -39 34 -64.5t87 -25.5
q54 0 87 25.5t33 64.5q0 43 -32.5 68.5t-87.5 25.5zM408 -53q61 0 97 27.5t36 70.5t-36 70.5t-97 27.5q-62 0 -98 -27t-36 -71q0 -42 36.5 -70t97.5 -28z" />
    <glyph glyph-name="nine.sub" horiz-adv-x="819" 
d="M401 477q-53 0 -84.5 -32.5t-31.5 -82.5q0 -45 33 -78.5t83 -33.5q51 0 84 31.5t33 80.5q0 50 -33 82.5t-84 32.5zM371 -219q-108 0 -191 45t-117 111l166 96q18 -36 56 -57t88 -21q71 0 115.5 47.5t48.5 138.5q-68 -55 -181 -55q-135 0 -218 77.5t-83 196.5
q0 128 94.5 207.5t251.5 79.5q72 0 133 -22t111.5 -67.5t79.5 -126t29 -187.5q0 -463 -383 -463z" />
    <glyph glyph-name="a.sup" horiz-adv-x="804" 
d="M371 836q33 0 86 24l30 14l2 105l-106 -27q-42 -11 -62 -25.5t-20 -39.5t20.5 -38t49.5 -13zM500 729l-17 -10q-89 -60 -180 -60q-96 0 -161.5 56.5t-65.5 146.5q0 87 58 141.5t181 83.5l174 41q-4 32 -33 51t-73 19q-98 0 -121 -72l-184 62q24 83 113 137.5t206 54.5
q148 0 234 -67t86 -189v-454h-217v59z" />
    <glyph glyph-name="b.sup" horiz-adv-x="917" 
d="M526 657q-108 0 -192 74v-61h-232v1034h250v-371q74 49 172 49q68 0 128.5 -21.5t109.5 -63.5t77.5 -113t28.5 -162q0 -93 -29 -165t-78 -114.5t-108.5 -64t-126.5 -21.5zM479 870q63 0 100 38.5t37 113.5t-38.5 112t-102.5 37q-48 0 -84.5 -27.5t-38.5 -60.5v-125
q2 -32 40 -60t87 -28z" />
    <glyph glyph-name="c.sup" horiz-adv-x="806" 
d="M424 657q-72 0 -138 23t-119.5 66.5t-85.5 115t-32 160.5q0 88 32 158.5t86 113.5t119.5 65.5t137.5 22.5q147 0 235 -73q87 -69 109 -156l-203 -63q-14 36 -47 56.5t-82 20.5q-59 0 -98 -37t-39 -108t39.5 -110.5t97.5 -39.5q47 0 79.5 23.5t47.5 58.5l205 -69
q-37 -114 -127.5 -171t-216.5 -57z" />
    <glyph glyph-name="d.sup" horiz-adv-x="919" 
d="M440 870q49 0 86 28t39 60v123q-2 34 -38 62t-89 28q-60 0 -97.5 -37.5t-37.5 -111.5q0 -76 37 -114t100 -38zM817 670h-231v61q-81 -74 -199 -74q-64 0 -122 21.5t-107 63.5t-78 114.5t-29 165.5q0 91 28.5 162t77 113t108 63.5t126.5 21.5q100 0 174 -49v371h252v-1034
z" />
    <glyph glyph-name="e.sup" horiz-adv-x="837" 
d="M420 1208q-47 0 -81 -29t-40 -83h242q-1 55 -34.5 83.5t-86.5 28.5zM612 918l160 -107q-32 -43 -115 -98q-79 -54 -219 -54q-79 0 -148 22.5t-123.5 65.5t-86 114t-31.5 161q0 171 108.5 266.5t270.5 95.5q158 0 257.5 -91t100.5 -251v-73h-487q2 -58 42.5 -90.5
t113.5 -32.5q103 0 157 72z" />
    <glyph glyph-name="f.sup" horiz-adv-x="575" 
d="M563 1366v-205h-164v-491h-247v491h-117v205h117v59q0 142 86 215q81 72 208 72q160 0 246 -86l-133 -156q-42 33 -80 33q-37 0 -58.5 -23t-21.5 -61v-53h164z" />
    <glyph glyph-name="g.sup" horiz-adv-x="927" 
d="M449 881q46 0 84 28.5t38 51.5l2 118q-5 33 -42 61.5t-85 28.5q-60 0 -97.5 -37t-37.5 -108q0 -72 37.5 -107.5t100.5 -35.5zM420 334q-217 0 -334 88l125 180q68 -55 186 -55q174 0 174 133v45q-70 -57 -174 -57q-66 0 -125 21t-108 62t-78 111.5t-29 161.5
q0 89 28.5 159t77 112t108.5 63.5t128 21.5q110 0 187 -61v47h239v-698q0 -168 -114 -250q-116 -84 -291 -84z" />
    <glyph glyph-name="h.sup" horiz-adv-x="919" 
d="M471 1155q-81 0 -119 -72v-413h-250v1034h250v-404q73 80 199 80q129 0 203.5 -71.5t74.5 -194.5v-444h-251v368q0 56 -28.5 86.5t-78.5 30.5z" />
    <glyph glyph-name="i.sup" horiz-adv-x="454" 
d="M227 1440q-57 0 -98 39t-41 96t40 97t99 40q57 0 98.5 -40t41.5 -97t-41.5 -96t-98.5 -39zM352 670h-250v696h250v-696z" />
    <glyph glyph-name="j.sup" horiz-adv-x="626" 
d="M397 1446q-60 0 -99.5 38.5t-39.5 94.5q0 60 39.5 99.5t99.5 39.5q58 0 99 -40t41 -99q0 -55 -41.5 -94t-98.5 -39zM274 1366h250v-731q0 -149 -84 -209q-82 -55 -192 -55q-165 0 -250 102l143 148q35 -35 72 -35q61 0 61 61v719z" />
    <glyph glyph-name="k.sup" horiz-adv-x="917" 
d="M883 670h-293l-156 264l-86 -80v-184h-246v1034h246v-569l236 231h311l-285 -266z" />
    <glyph glyph-name="l.sup" horiz-adv-x="454" 
d="M352 670h-250v1034h250v-1034z" />
    <glyph glyph-name="m.sup" horiz-adv-x="1361" 
d="M461 1153q-36 0 -66 -19t-43 -53v-411h-250v696h250v-70q80 80 205 80q128 0 197 -88q88 88 241 88q126 0 200.5 -68.5t74.5 -193.5v-444h-250v366q0 117 -100 117q-36 0 -66 -19t-43 -53v-411h-250v366q0 117 -100 117z" />
    <glyph glyph-name="n.sup" horiz-adv-x="919" 
d="M473 1151q-43 0 -75.5 -19.5t-45.5 -54.5v-407h-250v696h250v-70q82 82 203 82q128 0 201 -72t73 -196v-440h-251v366q0 55 -27.5 85t-77.5 30z" />
    <glyph glyph-name="o.sup" horiz-adv-x="872" 
d="M436 657q-105 0 -191.5 40t-141 124t-54.5 199q0 86 32 156t86.5 113.5t123 67t145.5 23.5q78 0 147 -23t123 -66.5t85.5 -113.5t31.5 -157q0 -115 -54.5 -199t-141 -124t-191.5 -40zM436 872q60 0 97.5 40.5t37.5 107.5q0 66 -37.5 105.5t-97.5 39.5t-97.5 -39.5
t-37.5 -105.5t38.5 -107t96.5 -41z" />
    <glyph glyph-name="p.sup" horiz-adv-x="929" 
d="M492 870q60 0 97.5 38t37.5 114q0 74 -39.5 111.5t-100.5 37.5q-48 0 -85 -27.5t-37 -60.5v-125q0 -32 38.5 -60t88.5 -28zM539 657q-96 0 -174 58v-338h-252v989h231v-51q79 67 193 67q68 0 128 -21.5t108.5 -63.5t77 -113t28.5 -162q0 -93 -29 -165t-78 -114.5
t-108 -64t-125 -21.5z" />
    <glyph glyph-name="q.sup" horiz-adv-x="931" 
d="M817 1366v-989h-252v338q-78 -58 -178 -58q-64 0 -122 21.5t-107 63.5t-78 114.5t-29 165.5q0 91 28.5 162t77 113t108 63.5t126.5 21.5q116 0 195 -67v51h231zM440 870q50 0 86.5 27.5t38.5 60.5v123q-2 37 -37.5 63.5t-89.5 26.5q-60 0 -97.5 -37.5t-37.5 -111.5
q0 -76 37 -114t100 -38z" />
    <glyph glyph-name="r.sup" horiz-adv-x="647" 
d="M467 1145q-37 0 -70 -19.5t-45 -46.5v-409h-250v696h250v-70q26 36 70.5 58t89.5 22q76 0 131 -37l-76 -219q-49 25 -100 25z" />
    <glyph glyph-name="s.sup" horiz-adv-x="741" 
d="M369 657q-130 0 -212 52t-110 135l191 61q10 -38 45.5 -59t85.5 -21q90 0 90 49q0 27 -31.5 42t-116.5 28q-116 21 -179.5 70t-63.5 143q0 103 86.5 164t222.5 61q131 0 208.5 -51t106.5 -133l-190 -55q-25 71 -117 71q-39 0 -63.5 -13.5t-24.5 -37.5t24.5 -34t102.5 -23
q266 -43 266 -225q0 -105 -86.5 -164.5t-234.5 -59.5z" />
    <glyph glyph-name="t.sup" horiz-adv-x="634" 
d="M504 885l82 -162q-79 -66 -207 -66q-121 0 -185 62.5t-63 189.5v252h-102v205h112v193h230l-2 -193h178v-205h-178l-2 -225q0 -78 67 -78q40 0 70 27z" />
    <glyph glyph-name="u.sup" horiz-adv-x="915" 
d="M813 670h-250v69q-75 -82 -198 -82q-127 0 -200 71t-73 194v444h250v-369q0 -54 29 -84t75 -30q78 0 117 71v412h250v-696z" />
    <glyph glyph-name="v.sup" horiz-adv-x="837" 
d="M823 1366l-268 -696h-279l-262 696h267l141 -420l141 420h260z" />
    <glyph glyph-name="w.sup" horiz-adv-x="1148" 
d="M907 670h-207l-125 286l-126 -286h-209l-222 696h265l108 -362l117 270h141l111 -270l117 362h256z" />
    <glyph glyph-name="x.sup" horiz-adv-x="870" 
d="M831 670h-262l-127 204l-137 -204h-266l248 346l-238 350h260l127 -213l137 213h250l-233 -340z" />
    <glyph glyph-name="y.sup" horiz-adv-x="851" 
d="M840 1366l-451 -991h-270l170 360l-277 631h264l156 -369l143 369h265z" />
    <glyph glyph-name="z.sup" horiz-adv-x="733" 
d="M670 874v-204h-607v147l291 344h-284v205h594v-147l-287 -345h293z" />
    <glyph glyph-name="at.case" horiz-adv-x="1933" 
d="M969 -168q-176 0 -335 68.5t-274.5 186.5t-183 284t-67.5 352q0 245 111 447.5t311.5 321t449.5 118.5q185 0 344 -64.5t268.5 -175t171.5 -260.5t62 -319q0 -143 -47 -259.5t-140 -187t-215 -70.5q-174 0 -264 121q-38 -55 -101.5 -85.5t-141.5 -30.5q-172 0 -286 117.5
t-114 326.5q0 109 36 195t94 135.5t123 74.5t130 25q132 0 207 -78l10 70h238v-570q0 -50 23.5 -79t60.5 -29q78 0 126 84.5t48 218.5q0 104 -27.5 200t-82 176.5t-130 141t-176.5 94t-217 33.5q-147 0 -272 -55t-210 -149t-132.5 -220t-47.5 -268q0 -191 82.5 -349.5
t232 -251.5t335.5 -93q234 0 403 106l96 -168q-220 -135 -499 -135zM944 520q48 0 91 29.5t61 83.5v178q-18 45 -57.5 72.5t-94.5 27.5q-72 0 -115 -51t-43 -137q0 -96 44.5 -149.5t113.5 -53.5z" />
    <glyph glyph-name="hyphen.case" horiz-adv-x="798" 
d="M717 604h-631v256h631v-256z" />
    <glyph glyph-name="exclamdown.case" horiz-adv-x="630" 
d="M315 1458q75 0 130 -55.5t55 -130.5t-55 -130t-130 -55t-129.5 55t-54.5 130t54.5 130.5t129.5 55.5zM188 965h254l37 -965h-327z" />
    <glyph glyph-name="questiondown.case" horiz-adv-x="1095" 
d="M631 1460q75 0 129.5 -55.5t54.5 -130.5t-54.5 -129.5t-129.5 -54.5t-130 54.5t-55 129.5t55 130.5t130 55.5zM481 967h303v-90q0 -89 -13.5 -134.5t-43 -73.5t-102.5 -71l-58 -33q-102 -59 -138 -96.5t-36 -91.5q0 -60 49.5 -98.5t124.5 -38.5q84 0 137.5 48t57.5 136
l293 -27q-3 -132 -70 -229t-175 -145t-243 -48q-226 0 -357.5 109.5t-131.5 290.5q0 154 84 235q85 82 194 138l66 32q37 19 48 40.5t11 72.5v74z" />
    <glyph glyph-name="bracketleft.case" horiz-adv-x="765" 
d="M725 -195h-571v1823h571v-223h-281v-1376h281v-224z" />
    <glyph glyph-name="bracketright.case" horiz-adv-x="765" 
d="M41 1628h571v-1823h-571v224h281v1376h-281v223z" />
    <glyph glyph-name="endash.case" horiz-adv-x="1071" 
d="M987 625h-903v223h903v-223z" />
    <glyph glyph-name="emdash.case" horiz-adv-x="1615" 
d="M1532 625h-1448v223h1448v-223z" />
    <glyph glyph-name="guillemotleft.case" horiz-adv-x="1206" 
d="M618 418l-192 -158l-369 463l369 461l188 -154l-247 -303zM1133 418l-193 -158l-369 463l369 461l188 -154l-247 -303z" />
    <glyph glyph-name="guillemotright.case" horiz-adv-x="1206" 
d="M74 1026l192 158l369 -463l-369 -461l-188 154l248 303zM588 1026l192 158l369 -463l-369 -461l-188 154l248 303z" />
    <glyph glyph-name="guilsinglleft.case" horiz-adv-x="692" 
d="M618 418l-192 -158l-369 463l369 461l188 -154l-247 -303z" />
    <glyph glyph-name="guilsinglright.case" horiz-adv-x="692" 
d="M74 1026l192 158l369 -463l-369 -461l-188 154l248 303z" />
    <glyph glyph-name="parenleft.case" horiz-adv-x="780" 
d="M752 -139l-201 -180q-205 193 -329 463t-124 577q0 298 124 570t329 464l201 -182q-162 -167 -259.5 -381t-97.5 -471q0 -492 357 -860z" />
    <glyph glyph-name="parenright.case" horiz-adv-x="780" 
d="M29 1573l200 180q205 -193 329 -463t124 -577q0 -299 -124 -571t-329 -464l-200 183q162 167 259 381t97 471q0 493 -356 860z" />
    <glyph glyph-name="a.alt" horiz-adv-x="1224" 
d="M590 246q85 0 143.5 56t59.5 151v125q-1 91 -58.5 146.5t-144.5 55.5q-92 0 -153.5 -68t-61.5 -198q0 -132 61 -200t154 -68zM1087 0h-274v98q-114 -114 -276 -114q-91 0 -173 34t-146.5 98t-103 167t-38.5 231q0 127 38 229.5t102.5 166.5t146 98t172.5 34
q170 0 278 -114v92h274v-1020z" />
    <glyph glyph-name="g.alt" horiz-adv-x="1208" 
d="M584 283q81 0 137 54.5t57 147.5v99q-1 89 -57 143.5t-139 54.5q-87 0 -147 -64.5t-60 -182.5q0 -119 61 -185.5t148 -66.5zM580 -418q-174 0 -302.5 68t-189.5 196l236 131q72 -151 256 -151q94 0 146 49.5t52 149.5v84q-97 -84 -250 -84q-88 0 -168.5 33t-144 95
t-101.5 161t-38 221q0 97 24.5 180t67 142.5t99.5 101.5t123.5 62.5t137.5 20.5q162 0 271 -112v90h274v-1000q0 -113 -37.5 -198.5t-105 -137t-155.5 -77t-195 -25.5z" />
    <glyph glyph-name="j.alt" horiz-adv-x="567" 
d="M283 1149q-72 0 -121 49t-49 121q0 69 49.5 118.5t120.5 49.5q73 0 122.5 -49t49.5 -119q0 -72 -49.5 -121t-122.5 -49zM16 -397l-30 252q71 8 110 47.5t39 122.5v995h295v-1014q0 -389 -414 -403z" />
    <glyph glyph-name="dotlessj.alt" horiz-adv-x="567" 
d="M16 -397l-30 252q71 8 110 47.5t39 122.5v995h295v-1014q0 -389 -414 -403z" />
    <glyph glyph-name="ij.alt" horiz-adv-x="1132" 
d="M283 1149q-72 0 -121 49t-49 121q0 69 49.5 118.5t120.5 49.5q73 0 122.5 -49t49.5 -119q0 -72 -49.5 -121t-122.5 -49zM430 0h-295v1020h295v-1020zM850 1149q-72 0 -121 49t-49 121q0 69 49 118.5t121 49.5q73 0 122.5 -49t49.5 -119q0 -72 -49.5 -121t-122.5 -49z
M584 -397l-31 252q71 8 110 47.5t39 122.5v995h295v-1014q0 -389 -413 -403z" />
    <glyph glyph-name="aacute.alt" horiz-adv-x="1224" 
d="M590 246q85 0 143.5 56t59.5 151v125q-1 91 -58.5 146.5t-144.5 55.5q-92 0 -153.5 -68t-61.5 -198q0 -132 61 -200t154 -68zM1087 0h-274v98q-114 -114 -276 -114q-91 0 -173 34t-146.5 98t-103 167t-38.5 231q0 127 38 229.5t102.5 166.5t146 98t172.5 34
q170 0 278 -114v92h274v-1020zM721 1145h-236v4l131 289h332v-4z" />
    <glyph glyph-name="acircumflex.alt" horiz-adv-x="1224" 
d="M590 246q85 0 143.5 56t59.5 151v125q-1 91 -58.5 146.5t-144.5 55.5q-92 0 -153.5 -68t-61.5 -198q0 -132 61 -200t154 -68zM1087 0h-274v98q-114 -114 -276 -114q-91 0 -173 34t-146.5 98t-103 167t-38.5 231q0 127 38 229.5t102.5 166.5t146 98t172.5 34
q170 0 278 -114v92h274v-1020zM606 1274l-282 -156v215l288 168l287 -168v-215z" />
    <glyph glyph-name="adieresis.alt" horiz-adv-x="1224" 
d="M590 246q85 0 143.5 56t59.5 151v125q-1 91 -58.5 146.5t-144.5 55.5q-92 0 -153.5 -68t-61.5 -198q0 -132 61 -200t154 -68zM1087 0h-274v98q-114 -114 -276 -114q-91 0 -173 34t-146.5 98t-103 167t-38.5 231q0 127 38 229.5t102.5 166.5t146 98t172.5 34
q170 0 278 -114v92h274v-1020zM829 1159q-61 0 -105 44t-44 106q0 60 44 103.5t105 43.5t104.5 -43.5t43.5 -103.5q0 -62 -43.5 -106t-104.5 -44zM391 1159q-61 0 -105 44t-44 106q0 60 44 103.5t105 43.5t104.5 -43.5t43.5 -103.5q0 -62 -43.5 -106t-104.5 -44z" />
    <glyph glyph-name="agrave.alt" horiz-adv-x="1224" 
d="M590 246q85 0 143.5 56t59.5 151v125q-1 91 -58.5 146.5t-144.5 55.5q-92 0 -153.5 -68t-61.5 -198q0 -132 61 -200t154 -68zM1087 0h-274v98q-114 -114 -276 -114q-91 0 -173 34t-146.5 98t-103 167t-38.5 231q0 127 38 229.5t102.5 166.5t146 98t172.5 34
q170 0 278 -114v92h274v-1020zM748 1145h-236l-227 289v4h331l132 -289v-4z" />
    <glyph glyph-name="atilde.alt" horiz-adv-x="1224" 
d="M590 246q85 0 143.5 56t59.5 151v125q-1 91 -58.5 146.5t-144.5 55.5q-92 0 -153.5 -68t-61.5 -198q0 -132 61 -200t154 -68zM1087 0h-274v98q-114 -114 -276 -114q-91 0 -173 34t-146.5 98t-103 167t-38.5 231q0 127 38 229.5t102.5 166.5t146 98t172.5 34
q170 0 278 -114v92h274v-1020zM739 1161q-45 0 -89 19.5t-80 39t-62 19.5q-32 0 -52 -20.5t-22 -53.5l-155 21q0 101 53 178q53 80 147 80q45 0 89 -19.5t81 -39t64 -19.5q70 0 73 76l156 -23q0 -100 -53 -180q-54 -78 -150 -78z" />
    <glyph glyph-name="aring.alt" horiz-adv-x="1224" 
d="M590 246q85 0 143.5 56t59.5 151v125q-1 91 -58.5 146.5t-144.5 55.5q-92 0 -153.5 -68t-61.5 -198q0 -132 61 -200t154 -68zM1087 0h-274v98q-114 -114 -276 -114q-91 0 -173 34t-146.5 98t-103 167t-38.5 231q0 127 38 229.5t102.5 166.5t146 98t172.5 34
q170 0 278 -114v92h274v-1020zM610 1116q-78 0 -133 54t-55 133q0 78 55 131t133 53t133.5 -53t55.5 -131q0 -79 -55 -133t-134 -54zM610 1227q31 0 52.5 22t21.5 54q0 31 -21.5 52t-52.5 21t-52 -21t-21 -52q0 -32 21 -54t52 -22z" />
    <glyph glyph-name="abreve.alt" horiz-adv-x="1224" 
d="M590 246q85 0 143.5 56t59.5 151v125q-1 91 -58.5 146.5t-144.5 55.5q-92 0 -153.5 -68t-61.5 -198q0 -132 61 -200t154 -68zM1087 0h-274v98q-114 -114 -276 -114q-91 0 -173 34t-146.5 98t-103 167t-38.5 231q0 127 38 229.5t102.5 166.5t146 98t172.5 34
q170 0 278 -114v92h274v-1020zM610 1149q-136 0 -219.5 76t-87.5 209h184q0 -50 35.5 -81.5t87.5 -31.5t86.5 31.5t34.5 81.5h187q-6 -133 -91 -209t-217 -76z" />
    <glyph glyph-name="amacron.alt" horiz-adv-x="1224" 
d="M590 246q85 0 143.5 56t59.5 151v125q-1 91 -58.5 146.5t-144.5 55.5q-92 0 -153.5 -68t-61.5 -198q0 -132 61 -200t154 -68zM1087 0h-274v98q-114 -114 -276 -114q-91 0 -173 34t-146.5 98t-103 167t-38.5 231q0 127 38 229.5t102.5 166.5t146 98t172.5 34
q170 0 278 -114v92h274v-1020zM862 1202h-506v191h506v-191z" />
    <glyph glyph-name="aogonek.alt" horiz-adv-x="1224" 
d="M590 246q85 0 143.5 56t59.5 151v125q-1 91 -58.5 146.5t-144.5 55.5q-92 0 -153.5 -68t-61.5 -198q0 -132 61 -200t154 -68zM1087 0h-274v98q-114 -114 -276 -114q-91 0 -173 34t-146.5 98t-103 167t-38.5 231q0 127 38 229.5t102.5 166.5t146 98t172.5 34
q170 0 278 -114v92h274v-1020zM922 -414q-97 0 -162.5 48.5t-65.5 132.5t58 150t178 130l157 -47q-72 -29 -123 -72t-51 -92q0 -25 17 -40t43 -15q36 0 82 33l94 -150q-101 -78 -227 -78z" />
    <glyph glyph-name="aringacute.alt" horiz-adv-x="1224" 
d="M590 246q85 0 143.5 56t59.5 151v125q-1 91 -58.5 146.5t-144.5 55.5q-92 0 -153.5 -68t-61.5 -198q0 -132 61 -200t154 -68zM1087 0h-274v98q-114 -114 -276 -114q-91 0 -173 34t-146.5 98t-103 167t-38.5 231q0 127 38 229.5t102.5 166.5t146 98t172.5 34
q170 0 278 -114v92h274v-1020zM610 1116q-78 0 -133 54t-55 133q0 78 55 131t133 53t133.5 -53t55.5 -131q0 -79 -55 -133t-134 -54zM610 1227q31 0 52.5 22t21.5 54q0 31 -21.5 52t-52.5 21t-52 -21t-21 -52q0 -32 21 -54t52 -22zM729 1573h-235v4l131 289h331v-4z" />
    <glyph glyph-name="gdotaccent.alt" horiz-adv-x="1208" 
d="M584 283q81 0 137 54.5t57 147.5v99q-1 89 -57 143.5t-139 54.5q-87 0 -147 -64.5t-60 -182.5q0 -119 61 -185.5t148 -66.5zM580 -418q-174 0 -302.5 68t-189.5 196l236 131q72 -151 256 -151q94 0 146 49.5t52 149.5v84q-97 -84 -250 -84q-88 0 -168.5 33t-144 95
t-101.5 161t-38 221q0 97 24.5 180t67 142.5t99.5 101.5t123.5 62.5t137.5 20.5q162 0 271 -112v90h274v-1000q0 -113 -37.5 -198.5t-105 -137t-155.5 -77t-195 -25.5zM586 1163q-69 0 -114.5 46.5t-45.5 115.5q0 68 46.5 115t113.5 47q68 0 113.5 -47t45.5 -115
q0 -69 -45.5 -115.5t-113.5 -46.5z" />
    <glyph glyph-name="gcommaaccent.alt" horiz-adv-x="1208" 
d="M584 283q81 0 137 54.5t57 147.5v99q-1 89 -57 143.5t-139 54.5q-87 0 -147 -64.5t-60 -182.5q0 -119 61 -185.5t148 -66.5zM580 -418q-174 0 -302.5 68t-189.5 196l236 131q72 -151 256 -151q94 0 146 49.5t52 149.5v84q-97 -84 -250 -84q-88 0 -168.5 33t-144 95
t-101.5 161t-38 221q0 97 24.5 180t67 142.5t99.5 101.5t123.5 62.5t137.5 20.5q162 0 271 -112v90h274v-1000q0 -113 -37.5 -198.5t-105 -137t-155.5 -77t-195 -25.5zM555 1597h162l-80 -163q39 -15 69.5 -50.5t30.5 -89.5q0 -62 -44.5 -105.5t-102.5 -43.5q-66 0 -109 44
t-43 105q0 39 13.5 78.5t44.5 104.5z" />
    <glyph glyph-name="gbreve.alt" horiz-adv-x="1208" 
d="M584 283q81 0 137 54.5t57 147.5v99q-1 89 -57 143.5t-139 54.5q-87 0 -147 -64.5t-60 -182.5q0 -119 61 -185.5t148 -66.5zM580 -418q-174 0 -302.5 68t-189.5 196l236 131q72 -151 256 -151q94 0 146 49.5t52 149.5v84q-97 -84 -250 -84q-88 0 -168.5 33t-144 95
t-101.5 161t-38 221q0 97 24.5 180t67 142.5t99.5 101.5t123.5 62.5t137.5 20.5q162 0 271 -112v90h274v-1000q0 -113 -37.5 -198.5t-105 -137t-155.5 -77t-195 -25.5zM586 1149q-136 0 -219.5 76t-87.5 209h184q0 -50 35.5 -81.5t87.5 -31.5t86.5 31.5t34.5 81.5h186
q-6 -133 -90.5 -209t-216.5 -76z" />
    <glyph glyph-name="gcircumflex.alt" horiz-adv-x="1208" 
d="M584 283q81 0 137 54.5t57 147.5v99q-1 89 -57 143.5t-139 54.5q-87 0 -147 -64.5t-60 -182.5q0 -119 61 -185.5t148 -66.5zM580 -418q-174 0 -302.5 68t-189.5 196l236 131q72 -151 256 -151q94 0 146 49.5t52 149.5v84q-97 -84 -250 -84q-88 0 -168.5 33t-144 95
t-101.5 161t-38 221q0 97 24.5 180t67 142.5t99.5 101.5t123.5 62.5t137.5 20.5q162 0 271 -112v90h274v-1000q0 -113 -37.5 -198.5t-105 -137t-155.5 -77t-195 -25.5zM584 1274l-283 -156v215l289 168l287 -168v-215z" />
    <glyph glyph-name="jcircumflex.alt" horiz-adv-x="567" 
d="M16 -397l-30 252q71 8 110 47.5t39 122.5v995h295v-1014q0 -389 -414 -403zM281 1274l-283 -156v215l289 168l286 -168v-215z" />
    <glyph glyph-name="zero.percent" horiz-adv-x="954" 
d="M477 -20q-169 0 -280 113t-111 306q0 189 111 302.5t280 113.5q167 0 277 -113q112 -112 112 -303q0 -195 -112 -307q-109 -112 -277 -112zM477 197q69 0 109.5 53.5t40.5 148.5q0 91 -41.5 145t-108.5 54q-68 0 -108.5 -53t-40.5 -146q0 -95 41 -148.5t108 -53.5z" />
    <glyph glyph-name="germandbls.alt" horiz-adv-x="1292" 
d="M430 0h-295v1020q0 142 64 247.5t171.5 158.5t243.5 53q110 0 198 -31.5t142 -84t82.5 -118t28.5 -137.5q0 -61 -18.5 -109.5t-45.5 -78.5t-54 -54.5t-45.5 -50.5t-18.5 -53q0 -39 30 -68t111 -67q106 -53 154 -119t47 -172q-3 -146 -117 -248q-113 -98 -285 -98
q-83 0 -168 22t-135 58l105 209q86 -66 166 -66q61 0 101 32t40 83q0 46 -32 78t-107 65q-106 48 -152.5 95t-46.5 134q0 50 19 93.5t46.5 75t55 61t46.5 64t19 71.5q0 79 -47.5 123.5t-118.5 44.5q-83 0 -133.5 -56.5t-50.5 -154.5v-1022z" />
    <glyph glyph-name="acute.ss01" horiz-adv-x="755" 
d="M647 1520h-541v34l537 88h4v-122z" />
    <glyph glyph-name="grave.ss01" horiz-adv-x="755" 
d="M647 1520h-541v125h5l536 -93v-32z" />
    <glyph glyph-name="circumflex.ss01" horiz-adv-x="755" 
d="M375 1542l-269 -41v43l273 105l268 -105v-43z" />
    <glyph glyph-name="caron.ss01" horiz-adv-x="755" 
d="M381 1608l268 41v-43l-272 -105l-268 105v43z" />
    <glyph glyph-name="cedilla.ss01" horiz-adv-x="575" 
d="M262 -264h-156v114h134q59 0 84 18.5t30 61.5l115 -4q-6 -101 -58.5 -145.5t-148.5 -44.5z" />
    <glyph glyph-name="ogonek.ss01" horiz-adv-x="503" 
d="M389 -145v-107h-143q-78 0 -124 32.5t-46 96.5q0 81 67.5 122t194.5 62l59 -61q-102 0 -152 -25.5t-50 -64.5q0 -55 69 -55h125z" />
    <glyph glyph-name="breve.ss01" horiz-adv-x="745" 
d="M432 1518h-121q-47 0 -79.5 5.5t-62 19.5t-45.5 43t-18 73h95q8 -55 102 -55h139q95 0 103 55h92q-3 -90 -62 -117q-59 -24 -143 -24z" />
    <glyph glyph-name="dieresis.ss01" horiz-adv-x="880" 
d="M774 1520h-278v90h278v-90zM385 1520h-279v90h279v-90z" />
    <glyph glyph-name="dieresis.i.ss01" horiz-adv-x="706" 
d="M600 1520h-205v90h205v-90zM311 1520h-205v90h205v-90z" />
    <glyph glyph-name="hungarumlaut.ss01" horiz-adv-x="931" 
d="M825 1520h-307v34l303 88h4v-122zM414 1520h-308v34l304 88h4v-122z" />
    <glyph glyph-name="ring.ss01" horiz-adv-x="735" 
d="M494 1503h-252q-62 0 -99 26t-37 83t37.5 83.5t98.5 26.5h252q135 0 135 -110q0 -109 -135 -109zM233 1581h267q37 0 37 31q0 30 -37 30h-267q-36 0 -36 -30q0 -14 9.5 -22.5t26.5 -8.5z" />
    <glyph glyph-name="tilde.ss01" horiz-adv-x="798" 
d="M195 1497l-89 12q4 129 111 129q13 0 41.5 -2.5t38.5 -3.5l252 -22q29 -2 42.5 8.5t14.5 36.5l86 -13q-2 -60 -26.5 -93t-83.5 -33q-16 0 -78 4l-254 24q-29 1 -41 -9.5t-14 -37.5z" />
    <glyph glyph-name="macron.ss01" horiz-adv-x="720" 
d="M612 1520h-506v88h506v-88z" />
    <glyph glyph-name="dotaccent.ss01" horiz-adv-x="415" 
d="M207 1516q-36 0 -59 22t-23 55q0 30 23 52t59 22q37 0 60.5 -22t23.5 -52q0 -33 -23 -55t-61 -22z" />
    <glyph glyph-name="commaaccent.ss01" horiz-adv-x="421" 
d="M252 -268h-146l54 162h153z" />
    <glyph glyph-name="Aacute.ss01" horiz-adv-x="1411" 
d="M702 1112h-4l-145 -453h295zM1391 0h-332l-137 391h-445l-135 -391h-319l505 1434h357zM975 1516h-541v34l537 88h4v-122z" />
    <glyph glyph-name="Acircumflex.ss01" horiz-adv-x="1411" 
d="M702 1112h-4l-145 -453h295zM1391 0h-332l-137 391h-445l-135 -391h-319l505 1434h357zM702 1538l-268 -41v43l273 105l268 -105v-43z" />
    <glyph glyph-name="Adieresis.ss01" horiz-adv-x="1411" 
d="M702 1112h-4l-145 -453h295zM1391 0h-332l-137 391h-445l-135 -391h-319l505 1434h357zM1040 1516h-278v90h278v-90zM651 1516h-278v90h278v-90z" />
    <glyph glyph-name="Agrave.ss01" horiz-adv-x="1411" 
d="M702 1112h-4l-145 -453h295zM1391 0h-332l-137 391h-445l-135 -391h-319l505 1434h357zM975 1516h-541v124h4l537 -92v-32z" />
    <glyph glyph-name="Atilde.ss01" horiz-adv-x="1411" 
d="M702 1112h-4l-145 -453h295zM1391 0h-332l-137 391h-445l-135 -391h-319l505 1434h357zM502 1493l-88 12q4 129 110 129q13 0 41.5 -2.5t38.5 -3.5l252 -22q29 -2 42.5 8.5t14.5 36.5l86 -13q-2 -60 -26.5 -93.5t-83.5 -33.5q-1 0 -78 5l-254 24q-29 1 -41 -9.5
t-14 -37.5z" />
    <glyph glyph-name="Aring.ss01" horiz-adv-x="1411" 
d="M702 1112h-4l-145 -453h295zM1391 0h-332l-137 391h-445l-135 -391h-319l505 1434h357zM831 1499h-251q-62 0 -99 26t-37 83t37 83.5t99 26.5h251q136 0 136 -110q0 -57 -37 -83t-99 -26zM571 1577h267q36 0 36 31q0 30 -36 30h-267q-36 0 -36 -30q0 -14 9.5 -22.5
t26.5 -8.5z" />
    <glyph glyph-name="Abreve.ss01" horiz-adv-x="1411" 
d="M702 1112h-4l-145 -453h295zM1391 0h-332l-137 391h-445l-135 -391h-319l505 1434h357zM766 1513h-121q-47 0 -80 5.5t-62 20t-45 43.5t-18 73h95q8 -56 102 -56h139q95 0 103 56h92q-3 -90 -62 -117q-61 -25 -143 -25z" />
    <glyph glyph-name="Amacron.ss01" horiz-adv-x="1411" 
d="M702 1112h-4l-145 -453h295zM1391 0h-332l-137 391h-445l-135 -391h-319l505 1434h357zM958 1516h-505v88h505v-88z" />
    <glyph glyph-name="Aogonek.ss01" horiz-adv-x="1411" 
d="M702 1112h-4l-145 -453h295zM1391 0h-332l-137 391h-445l-135 -391h-319l505 1434h357zM1382 -145v-107h-143q-78 0 -124 32.5t-46 96.5q0 81 67.5 122t194.5 62l60 -61q-102 0 -152.5 -25.5t-50.5 -64.5q0 -55 69 -55h125z" />
    <glyph glyph-name="Aringacute.ss01" horiz-adv-x="1411" 
d="M702 1112h-4l-145 -453h295zM1391 0h-332l-137 391h-445l-135 -391h-319l505 1434h357zM831 1499h-251q-62 0 -99 26t-37 83t37 83.5t99 26.5h251q136 0 136 -110q0 -57 -37 -83t-99 -26zM571 1577h267q36 0 36 31q0 30 -36 30h-267q-36 0 -36 -30q0 -14 9.5 -22.5
t26.5 -8.5zM975 1784h-541v35l537 88h4v-123z" />
    <glyph glyph-name="AEacute.ss01" horiz-adv-x="1923" 
d="M866 1163h-30l-195 -454h250zM1839 0h-909l-25 453h-375l-194 -453h-328l631 1434h1188v-271h-664l15 -252h600v-268h-584l20 -373h625v-270zM1493 1499h-541v35l537 88h4v-123z" />
    <glyph glyph-name="Ccaron.ss01" horiz-adv-x="1470" 
d="M768 -25q-138 0 -262.5 50.5t-220 143.5t-151.5 236t-56 316q0 135 36.5 253t101.5 206t152 151t190 95t214 32q248 0 412.5 -124.5t216.5 -340.5l-299 -67q-20 91 -105 170q-81 78 -227 78q-158 0 -266.5 -124.5t-108.5 -328.5q0 -214 108.5 -336.5t268.5 -122.5
q143 0 233 83.5t117 209.5l299 -61q-44 -242 -221 -379q-178 -140 -432 -140zM774 1604l268 41v-43l-272 -105l-268 105v43z" />
    <glyph glyph-name="Ccedilla.ss01" horiz-adv-x="1470" 
d="M768 -25q-138 0 -262.5 50.5t-220 143.5t-151.5 236t-56 316q0 135 36.5 253t101.5 206t152 151t190 95t214 32q248 0 412.5 -124.5t216.5 -340.5l-299 -67q-20 91 -105 170q-81 78 -227 78q-158 0 -266.5 -124.5t-108.5 -328.5q0 -214 108.5 -336.5t268.5 -122.5
q143 0 233 83.5t117 209.5l299 -61q-44 -242 -221 -379q-178 -140 -432 -140zM670 -264h-156v114h133q59 0 84.5 18.5t30.5 61.5l115 -4q-6 -101 -58.5 -145.5t-148.5 -44.5z" />
    <glyph glyph-name="Cacute.ss01" horiz-adv-x="1470" 
d="M768 -25q-138 0 -262.5 50.5t-220 143.5t-151.5 236t-56 316q0 135 36.5 253t101.5 206t152 151t190 95t214 32q248 0 412.5 -124.5t216.5 -340.5l-299 -67q-20 91 -105 170q-81 78 -227 78q-158 0 -266.5 -124.5t-108.5 -328.5q0 -214 108.5 -336.5t268.5 -122.5
q143 0 233 83.5t117 209.5l299 -61q-44 -242 -221 -379q-178 -140 -432 -140zM1040 1516h-540v34l536 88h4v-122z" />
    <glyph glyph-name="Ccircumflex.ss01" horiz-adv-x="1470" 
d="M768 -25q-138 0 -262.5 50.5t-220 143.5t-151.5 236t-56 316q0 135 36.5 253t101.5 206t152 151t190 95t214 32q248 0 412.5 -124.5t216.5 -340.5l-299 -67q-20 91 -105 170q-81 78 -227 78q-158 0 -266.5 -124.5t-108.5 -328.5q0 -214 108.5 -336.5t268.5 -122.5
q143 0 233 83.5t117 209.5l299 -61q-44 -242 -221 -379q-178 -140 -432 -140zM768 1538l-268 -41v43l272 105l268 -105v-43z" />
    <glyph glyph-name="Cdotaccent.ss01" horiz-adv-x="1470" 
d="M768 -25q-138 0 -262.5 50.5t-220 143.5t-151.5 236t-56 316q0 135 36.5 253t101.5 206t152 151t190 95t214 32q248 0 412.5 -124.5t216.5 -340.5l-299 -67q-20 91 -105 170q-81 78 -227 78q-158 0 -266.5 -124.5t-108.5 -328.5q0 -214 108.5 -336.5t268.5 -122.5
q143 0 233 83.5t117 209.5l299 -61q-44 -242 -221 -379q-178 -140 -432 -140zM770 1511q-36 0 -59 22.5t-23 55.5q0 30 23 52t59 22q37 0 60.5 -22t23.5 -52q0 -33 -23.5 -55.5t-60.5 -22.5z" />
    <glyph glyph-name="Dcaron.ss01" horiz-adv-x="1427" 
d="M659 0h-509v1434h512q107 0 206.5 -27t187 -84t152.5 -139t102.5 -199.5t37.5 -257.5q0 -144 -38 -265t-103 -205t-153.5 -143t-188 -86.5t-206.5 -27.5zM455 1163v-893h192q174 0 278.5 121.5t104.5 335.5q0 200 -108 317q-107 119 -281 119h-186zM639 1604l268 41v-43
l-272 -105l-268 105v43z" />
    <glyph glyph-name="Ecircumflex.ss01" 
d="M455 270h688v-270h-993v1434h980v-271h-675v-252h626v-270h-626v-371zM645 1538l-268 -41v43l272 105l269 -105v-43z" />
    <glyph glyph-name="Eacute.ss01" 
d="M455 270h688v-270h-993v1434h980v-271h-675v-252h626v-270h-626v-371zM918 1516h-541v34l536 88h5v-122z" />
    <glyph glyph-name="Edieresis.ss01" 
d="M455 270h688v-270h-993v1434h980v-271h-675v-252h626v-270h-626v-371zM981 1516h-279v90h279v-90zM592 1516h-279v90h279v-90z" />
    <glyph glyph-name="Egrave.ss01" 
d="M455 270h688v-270h-993v1434h980v-271h-675v-252h626v-270h-626v-371zM918 1516h-541v124h4l537 -92v-32z" />
    <glyph glyph-name="Ebreve.ss01" 
d="M455 270h688v-270h-993v1434h980v-271h-675v-252h626v-270h-626v-371zM709 1513h-121q-47 0 -80 5.5t-62 20t-45 43.5t-18 73h94q8 -56 103 -56h139q94 0 102 56h92q-3 -90 -61 -117q-61 -25 -143 -25z" />
    <glyph glyph-name="Edotaccent.ss01" 
d="M455 270h688v-270h-993v1434h980v-271h-675v-252h626v-270h-626v-371zM647 1511q-36 0 -59 22.5t-23 55.5q0 30 23 52t59 22q37 0 60.5 -22t23.5 -52q0 -33 -23.5 -55.5t-60.5 -22.5z" />
    <glyph glyph-name="Ecaron.ss01" 
d="M455 270h688v-270h-993v1434h980v-271h-675v-252h626v-270h-626v-371zM651 1604l269 41v-43l-273 -105l-268 105v43z" />
    <glyph glyph-name="Eogonek.ss01" 
d="M455 270h688v-270h-993v1434h980v-271h-675v-252h626v-270h-626v-371zM1135 -145v-107h-144q-78 0 -124 32.5t-46 96.5q0 81 67.5 122t194.5 62l60 -61q-102 0 -152.5 -25.5t-50.5 -64.5q0 -55 70 -55h125z" />
    <glyph glyph-name="Emacron.ss01" 
d="M455 270h688v-270h-993v1434h980v-271h-675v-252h626v-270h-626v-371zM901 1516h-506v88h506v-88z" />
    <glyph glyph-name="Gdotaccent.ss01" horiz-adv-x="1533" 
d="M1454 737v-69q0 -139 -37 -255t-101 -195.5t-150 -135t-182.5 -81.5t-201.5 -26q-142 0 -269 50.5t-224 143t-154 235t-57 315.5q0 170 56.5 311.5t152.5 234t223 143t270 50.5q237 0 410 -115.5t235 -320.5l-292 -86q-28 92 -121 164q-92 74 -232 74q-163 0 -274 -123.5
t-111 -331.5q0 -215 110.5 -339t276.5 -124q133 0 227 60t126 165h-324v256h643zM778 1511q-36 0 -59 22.5t-23 55.5q0 30 23 52t59 22q37 0 60.5 -22t23.5 -52q0 -33 -23.5 -55.5t-60.5 -22.5z" />
    <glyph glyph-name="Gbreve.ss01" horiz-adv-x="1533" 
d="M1454 737v-69q0 -139 -37 -255t-101 -195.5t-150 -135t-182.5 -81.5t-201.5 -26q-142 0 -269 50.5t-224 143t-154 235t-57 315.5q0 170 56.5 311.5t152.5 234t223 143t270 50.5q237 0 410 -115.5t235 -320.5l-292 -86q-28 92 -121 164q-92 74 -232 74q-163 0 -274 -123.5
t-111 -331.5q0 -215 110.5 -339t276.5 -124q133 0 227 60t126 165h-324v256h643zM840 1513h-121q-47 0 -80 5.5t-62 20t-45 43.5t-18 73h94q8 -56 103 -56h139q94 0 102 56h92q-3 -90 -61 -117q-61 -25 -143 -25z" />
    <glyph glyph-name="Gcircumflex.ss01" horiz-adv-x="1533" 
d="M1454 737v-69q0 -139 -37 -255t-101 -195.5t-150 -135t-182.5 -81.5t-201.5 -26q-142 0 -269 50.5t-224 143t-154 235t-57 315.5q0 170 56.5 311.5t152.5 234t223 143t270 50.5q237 0 410 -115.5t235 -320.5l-292 -86q-28 92 -121 164q-92 74 -232 74q-163 0 -274 -123.5
t-111 -331.5q0 -215 110.5 -339t276.5 -124q133 0 227 60t126 165h-324v256h643zM776 1538l-268 -41v43l272 105l269 -105v-43z" />
    <glyph glyph-name="Gcommaaccent.ss01" horiz-adv-x="1533" 
d="M1454 737v-69q0 -139 -37 -255t-101 -195.5t-150 -135t-182.5 -81.5t-201.5 -26q-142 0 -269 50.5t-224 143t-154 235t-57 315.5q0 170 56.5 311.5t152.5 234t223 143t270 50.5q237 0 410 -115.5t235 -320.5l-292 -86q-28 92 -121 164q-92 74 -232 74q-163 0 -274 -123.5
t-111 -331.5q0 -215 110.5 -339t276.5 -124q133 0 227 60t126 165h-324v256h643zM813 -268h-145l53 162h153z" />
    <glyph glyph-name="Hcircumflex.ss01" horiz-adv-x="1531" 
d="M1382 0h-307v702h-618v-702h-307v1434h307v-461h618v461h307v-1434zM762 1538l-268 -41v43l272 105l268 -105v-43z" />
    <glyph glyph-name="Iacute.ss01" horiz-adv-x="608" 
d="M457 0h-307v1434h307v-1434zM573 1516h-540v34l536 88h4v-122z" />
    <glyph glyph-name="Idieresis.ss01" horiz-adv-x="608" 
d="M457 0h-307v1434h307v-1434zM551 1516h-205v90h205v-90zM262 1516h-205v90h205v-90z" />
    <glyph glyph-name="Icircumflex.ss01" horiz-adv-x="608" 
d="M457 0h-307v1434h307v-1434zM301 1538l-268 -41v43l272 105l268 -105v-43z" />
    <glyph glyph-name="Igrave.ss01" horiz-adv-x="608" 
d="M457 0h-307v1434h307v-1434zM573 1516h-540v124h4l536 -92v-32z" />
    <glyph glyph-name="Ibreve.ss01" horiz-adv-x="608" 
d="M457 0h-307v1434h307v-1434zM365 1513h-121q-47 0 -80 5.5t-62 20t-45 43.5t-18 73h94q8 -56 103 -56h139q94 0 102 56h92q-3 -90 -61 -117q-61 -25 -143 -25z" />
    <glyph glyph-name="Itilde.ss01" horiz-adv-x="608" 
d="M457 0h-307v1434h307v-1434zM98 1493l-88 12q4 129 111 129q13 0 41.5 -2.5t38.5 -3.5l252 -22q29 -2 42.5 8.5t14.5 36.5l86 -13q-4 -127 -111 -127q-10 0 -22 1t-28 2t-27 2l-254 24q-29 1 -41.5 -9.5t-14.5 -37.5z" />
    <glyph glyph-name="Idotaccent.ss01" horiz-adv-x="608" 
d="M457 0h-307v1434h307v-1434zM573 1516h-540v34l536 88h4v-122z" />
    <glyph glyph-name="Icaron.ss01" horiz-adv-x="608" 
d="M457 0h-307v1434h307v-1434zM307 1604l268 41v-43l-272 -105l-268 105v43z" />
    <glyph glyph-name="Iogonek.ss01" horiz-adv-x="608" 
d="M457 0h-307v1434h307v-1434zM449 -145v-107h-144q-78 0 -124 32.5t-46 96.5q0 81 67.5 122t194.5 62l60 -61q-102 0 -152.5 -25.5t-50.5 -64.5q0 -55 70 -55h125z" />
    <glyph glyph-name="Imacron.ss01" horiz-adv-x="608" 
d="M457 0h-307v1434h307v-1434zM557 1516h-506v88h506v-88z" />
    <glyph glyph-name="Jcircumflex.ss01" horiz-adv-x="1116" 
d="M496 -20q-201 0 -329.5 109.5t-152.5 318.5l295 49q8 -88 54 -140.5t135 -52.5q78 0 124 51t46 150v969h307v-967q0 -243 -130.5 -365t-348.5 -122zM821 1538l-268 -41v43l272 105l269 -105v-43z" />
    <glyph glyph-name="Kcommaaccent.ss01" horiz-adv-x="1392" 
d="M1382 0h-358l-418 743l-151 -147v-596h-305v1434h305v-486l501 486h402l-518 -482zM731 -268h-145l53 162h154z" />
    <glyph glyph-name="Lacute.ss01" horiz-adv-x="1110" 
d="M1069 0h-919v1434h307v-1164h612v-270zM573 1516h-540v34l536 88h4v-122z" />
    <glyph glyph-name="Lcommaaccent.ss01" horiz-adv-x="1110" 
d="M1069 0h-919v1434h307v-1164h612v-270zM651 -268h-145l53 162h154z" />
    <glyph glyph-name="Nacute.ss01" horiz-adv-x="1511" 
d="M1362 0h-297l-614 901v-901h-301v1434h296l615 -914v914h301v-1434zM1026 1516h-541v34l537 88h4v-122z" />
    <glyph glyph-name="Ntilde.ss01" horiz-adv-x="1511" 
d="M1362 0h-297l-614 901v-901h-301v1434h296l615 -914v914h301v-1434zM551 1493l-88 12q4 129 110 129q13 0 41.5 -2.5t38.5 -3.5l252 -22q30 -2 43.5 8.5t14.5 36.5l86 -13q-4 -127 -111 -127l-78 5l-254 24q-29 1 -41 -9.5t-14 -37.5z" />
    <glyph glyph-name="Ncommaaccent.ss01" horiz-adv-x="1511" 
d="M1362 0h-297l-614 901v-901h-301v1434h296l615 -914v914h301v-1434zM788 -268h-145l53 162h154z" />
    <glyph glyph-name="Ncaron.ss01" horiz-adv-x="1511" 
d="M1362 0h-297l-614 901v-901h-301v1434h296l615 -914v914h301v-1434zM760 1604l268 41v-43l-272 -105l-269 105v43z" />
    <glyph glyph-name="Eng.ss01" horiz-adv-x="1511" 
d="M1020 -274q-184 0 -279 102l164 190q25 -38 82 -38q33 0 53.5 22t20.5 64v26l-610 826v-918h-301v1434h296l615 -838v838h301v-1364q0 -92 -27.5 -160.5t-76.5 -107.5t-108 -57.5t-130 -18.5z" />
    <glyph glyph-name="Oacute.ss01" horiz-adv-x="1568" 
d="M784 -25q-143 0 -270.5 50t-224.5 142.5t-154 235t-57 316.5q0 169 57 310t154 234t224.5 144t270.5 51t271 -50.5t224.5 -143t153 -234t56.5 -311.5q0 -173 -57.5 -316t-155 -235t-224 -142.5t-268.5 -50.5zM784 262q166 0 278 122t112 335q0 205 -113 330t-277 125
q-167 0 -278 -123t-111 -332q0 -211 113 -334t276 -123zM1053 1516h-541v34l537 88h4v-122z" />
    <glyph glyph-name="Ocircumflex.ss01" horiz-adv-x="1568" 
d="M784 -25q-143 0 -270.5 50t-224.5 142.5t-154 235t-57 316.5q0 169 57 310t154 234t224.5 144t270.5 51t271 -50.5t224.5 -143t153 -234t56.5 -311.5q0 -173 -57.5 -316t-155 -235t-224 -142.5t-268.5 -50.5zM784 262q166 0 278 122t112 335q0 205 -113 330t-277 125
q-167 0 -278 -123t-111 -332q0 -211 113 -334t276 -123zM780 1538l-268 -41v43l272 105l269 -105v-43z" />
    <glyph glyph-name="Odieresis.ss01" horiz-adv-x="1568" 
d="M784 -25q-143 0 -270.5 50t-224.5 142.5t-154 235t-57 316.5q0 169 57 310t154 234t224.5 144t270.5 51t271 -50.5t224.5 -143t153 -234t56.5 -311.5q0 -173 -57.5 -316t-155 -235t-224 -142.5t-268.5 -50.5zM784 262q166 0 278 122t112 335q0 205 -113 330t-277 125
q-167 0 -278 -123t-111 -332q0 -211 113 -334t276 -123zM1118 1516h-278v90h278v-90zM729 1516h-278v90h278v-90z" />
    <glyph glyph-name="Ohungarumlaut.ss01" horiz-adv-x="1568" 
d="M784 -25q-143 0 -270.5 50t-224.5 142.5t-154 235t-57 316.5q0 169 57 310t154 234t224.5 144t270.5 51t271 -50.5t224.5 -143t153 -234t56.5 -311.5q0 -173 -57.5 -316t-155 -235t-224 -142.5t-268.5 -50.5zM784 262q166 0 278 122t112 335q0 205 -113 330t-277 125
q-167 0 -278 -123t-111 -332q0 -211 113 -334t276 -123zM1143 1516h-307v34l303 88h4v-122zM731 1516h-307v34l303 88h4v-122z" />
    <glyph glyph-name="Ograve.ss01" horiz-adv-x="1568" 
d="M784 -25q-143 0 -270.5 50t-224.5 142.5t-154 235t-57 316.5q0 169 57 310t154 234t224.5 144t270.5 51t271 -50.5t224.5 -143t153 -234t56.5 -311.5q0 -173 -57.5 -316t-155 -235t-224 -142.5t-268.5 -50.5zM784 262q166 0 278 122t112 335q0 205 -113 330t-277 125
q-167 0 -278 -123t-111 -332q0 -211 113 -334t276 -123zM1053 1516h-541v124h4l537 -92v-32z" />
    <glyph glyph-name="Otilde.ss01" horiz-adv-x="1568" 
d="M784 -25q-143 0 -270.5 50t-224.5 142.5t-154 235t-57 316.5q0 169 57 310t154 234t224.5 144t270.5 51t271 -50.5t224.5 -143t153 -234t56.5 -311.5q0 -173 -57.5 -316t-155 -235t-224 -142.5t-268.5 -50.5zM784 262q166 0 278 122t112 335q0 205 -113 330t-277 125
q-167 0 -278 -123t-111 -332q0 -211 113 -334t276 -123zM580 1493l-88 12q4 129 110 129q13 0 41.5 -2.5t38.5 -3.5l252 -22q29 -2 42.5 8.5t14.5 36.5l86 -13q-2 -60 -26.5 -93.5t-83.5 -33.5q-1 0 -78 5l-254 24q-29 1 -41 -9.5t-14 -37.5z" />
    <glyph glyph-name="Omacron.ss01" horiz-adv-x="1568" 
d="M784 -25q-143 0 -270.5 50t-224.5 142.5t-154 235t-57 316.5q0 169 57 310t154 234t224.5 144t270.5 51t271 -50.5t224.5 -143t153 -234t56.5 -311.5q0 -173 -57.5 -316t-155 -235t-224 -142.5t-268.5 -50.5zM784 262q166 0 278 122t112 335q0 205 -113 330t-277 125
q-167 0 -278 -123t-111 -332q0 -211 113 -334t276 -123zM1036 1516h-506v88h506v-88z" />
    <glyph glyph-name="Obreve.ss01" horiz-adv-x="1568" 
d="M784 -25q-143 0 -270.5 50t-224.5 142.5t-154 235t-57 316.5q0 169 57 310t154 234t224.5 144t270.5 51t271 -50.5t224.5 -143t153 -234t56.5 -311.5q0 -173 -57.5 -316t-155 -235t-224 -142.5t-268.5 -50.5zM784 262q166 0 278 122t112 335q0 205 -113 330t-277 125
q-167 0 -278 -123t-111 -332q0 -211 113 -334t276 -123zM844 1513h-121q-47 0 -80 5.5t-62 20t-45 43.5t-18 73h94q8 -56 103 -56h139q94 0 102 56h93q-3 -90 -62 -117q-61 -25 -143 -25z" />
    <glyph glyph-name="Oslashacute.ss01" horiz-adv-x="1568" 
d="M395 719q0 -173 82 -295l469 713q-73 37 -162 37q-167 0 -278 -123t-111 -332zM784 262q166 0 278 122t112 335q0 169 -82 291l-471 -711q75 -37 163 -37zM784 -25q-179 0 -327 74l-101 -151h-227l172 260q-106 97 -164.5 239t-58.5 322q0 169 57 310t154 234t224.5 144
t270.5 51q178 0 326 -74l100 152h230l-172 -260q103 -97 162 -239.5t59 -317.5q0 -173 -57.5 -316t-155 -235t-224 -142.5t-268.5 -50.5zM1032 1516h-540v34l536 88h4v-122z" />
    <glyph glyph-name="Rcommaaccent.ss01" horiz-adv-x="1329" 
d="M727 1163h-274v-305h278q76 0 122 41.5t46 114.5q0 67 -48 108t-124 41zM1315 0h-352l-330 594h-180v-594h-303v1434h608q196 0 325 -112.5t129 -299.5q0 -90 -25.5 -159.5t-84.5 -129.5q-60 -63 -152 -100zM711 -268h-146l53 162h154z" />
    <glyph glyph-name="Rcaron.ss01" horiz-adv-x="1329" 
d="M727 1163h-274v-305h278q76 0 122 41.5t46 114.5q0 67 -48 108t-124 41zM1315 0h-352l-330 594h-180v-594h-303v1434h608q196 0 325 -112.5t129 -299.5q0 -90 -25.5 -159.5t-84.5 -129.5q-60 -63 -152 -100zM606 1604l268 41v-43l-272 -105l-268 105v43z" />
    <glyph glyph-name="Racute.ss01" horiz-adv-x="1329" 
d="M727 1163h-274v-305h278q76 0 122 41.5t46 114.5q0 67 -48 108t-124 41zM1315 0h-352l-330 594h-180v-594h-303v1434h608q196 0 325 -112.5t129 -299.5q0 -90 -25.5 -159.5t-84.5 -129.5q-60 -63 -152 -100zM872 1516h-540v34l536 88h4v-122z" />
    <glyph glyph-name="Scaron.ss01" horiz-adv-x="1259" 
d="M635 -23q-252 0 -408 132q-155 131 -164 383l302 26q4 -143 80 -219t192 -76q105 0 172.5 47t67.5 127q0 73 -65 120.5t-210 86.5l-145 41q-342 94 -342 397q0 185 141 299q141 117 375 117q236 0 377 -112q142 -109 145 -291v-25l-299 -31v19q-1 96 -63.5 145t-161.5 49
q-98 0 -155.5 -42t-57.5 -109q0 -57 41.5 -91t156.5 -69l164 -49q204 -62 304 -166.5t100 -257.5q0 -198 -152 -326q-149 -125 -395 -125zM635 1604l268 41v-43l-272 -105l-269 105v43z" />
    <glyph glyph-name="Scedilla.ss01" horiz-adv-x="1259" 
d="M635 -23q-252 0 -408 132q-155 131 -164 383l302 26q4 -143 80 -219t192 -76q105 0 172.5 47t67.5 127q0 73 -65 120.5t-210 86.5l-145 41q-342 94 -342 397q0 185 141 299q141 117 375 117q236 0 377 -112q142 -109 145 -291v-25l-299 -31v19q-1 96 -63.5 145t-161.5 49
q-98 0 -155.5 -42t-57.5 -109q0 -57 41.5 -91t156.5 -69l164 -49q204 -62 304 -166.5t100 -257.5q0 -198 -152 -326q-149 -125 -395 -125zM537 -264h-156v114h133q59 0 84.5 18.5t30.5 61.5l114 -4q-6 -101 -58 -145.5t-148 -44.5z" />
    <glyph glyph-name="Scircumflex.ss01" horiz-adv-x="1259" 
d="M635 -23q-252 0 -408 132q-155 131 -164 383l302 26q4 -143 80 -219t192 -76q105 0 172.5 47t67.5 127q0 73 -65 120.5t-210 86.5l-145 41q-342 94 -342 397q0 185 141 299q141 117 375 117q236 0 377 -112q142 -109 145 -291v-25l-299 -31v19q-1 96 -63.5 145t-161.5 49
q-98 0 -155.5 -42t-57.5 -109q0 -57 41.5 -91t156.5 -69l164 -49q204 -62 304 -166.5t100 -257.5q0 -198 -152 -326q-149 -125 -395 -125zM629 1538l-269 -41v43l273 105l268 -105v-43z" />
    <glyph glyph-name="Scommaaccent.ss01" horiz-adv-x="1259" 
d="M635 -23q-252 0 -408 132q-155 131 -164 383l302 26q4 -143 80 -219t192 -76q105 0 172.5 47t67.5 127q0 73 -65 120.5t-210 86.5l-145 41q-342 94 -342 397q0 185 141 299q141 117 375 117q236 0 377 -112q142 -109 145 -291v-25l-299 -31v19q-1 96 -63.5 145t-161.5 49
q-98 0 -155.5 -42t-57.5 -109q0 -57 41.5 -91t156.5 -69l164 -49q204 -62 304 -166.5t100 -257.5q0 -198 -152 -326q-149 -125 -395 -125zM666 -268h-146l53 162h154z" />
    <glyph glyph-name="Sacute.ss01" horiz-adv-x="1259" 
d="M635 -23q-252 0 -408 132q-155 131 -164 383l302 26q4 -143 80 -219t192 -76q105 0 172.5 47t67.5 127q0 73 -65 120.5t-210 86.5l-145 41q-342 94 -342 397q0 185 141 299q141 117 375 117q236 0 377 -112q142 -109 145 -291v-25l-299 -31v19q-1 96 -63.5 145t-161.5 49
q-98 0 -155.5 -42t-57.5 -109q0 -57 41.5 -91t156.5 -69l164 -49q204 -62 304 -166.5t100 -257.5q0 -198 -152 -326q-149 -125 -395 -125zM901 1516h-541v34l537 88h4v-122z" />
    <glyph glyph-name="Tcaron.ss01" 
d="M1186 1434v-271h-418v-1163h-307v1163h-420v271h1145zM618 1604l269 41v-43l-273 -105l-268 105v43z" />
    <glyph glyph-name="Tcommaaccent.ss01" 
d="M1186 1434v-271h-418v-1163h-307v1163h-420v271h1145zM643 -268h-145l53 162h154z" />
    <glyph glyph-name="Uacute.ss01" horiz-adv-x="1433" 
d="M715 -23q-269 0 -423.5 144.5t-154.5 425.5v887h307v-873q0 -140 74.5 -219.5t198.5 -79.5q128 0 200 78t72 219v875h307v-885q0 -279 -156 -425.5t-425 -146.5zM987 1516h-541v34l537 88h4v-122z" />
    <glyph glyph-name="Ucircumflex.ss01" horiz-adv-x="1433" 
d="M715 -23q-269 0 -423.5 144.5t-154.5 425.5v887h307v-873q0 -140 74.5 -219.5t198.5 -79.5q128 0 200 78t72 219v875h307v-885q0 -279 -156 -425.5t-425 -146.5zM715 1538l-269 -41v43l273 105l268 -105v-43z" />
    <glyph glyph-name="Udieresis.ss01" horiz-adv-x="1433" 
d="M715 -23q-269 0 -423.5 144.5t-154.5 425.5v887h307v-873q0 -140 74.5 -219.5t198.5 -79.5q128 0 200 78t72 219v875h307v-885q0 -279 -156 -425.5t-425 -146.5zM1051 1516h-279v90h279v-90zM662 1516h-279v90h279v-90z" />
    <glyph glyph-name="Ugrave.ss01" horiz-adv-x="1433" 
d="M715 -23q-269 0 -423.5 144.5t-154.5 425.5v887h307v-873q0 -140 74.5 -219.5t198.5 -79.5q128 0 200 78t72 219v875h307v-885q0 -279 -156 -425.5t-425 -146.5zM987 1516h-541v124h5l536 -92v-32z" />
    <glyph glyph-name="Uhungarumlaut.ss01" horiz-adv-x="1433" 
d="M715 -23q-269 0 -423.5 144.5t-154.5 425.5v887h307v-873q0 -140 74.5 -219.5t198.5 -79.5q128 0 200 78t72 219v875h307v-885q0 -279 -156 -425.5t-425 -146.5zM1077 1516h-307v34l303 88h4v-122zM666 1516h-308v34l304 88h4v-122z" />
    <glyph glyph-name="Uring.ss01" horiz-adv-x="1433" 
d="M715 -23q-269 0 -423.5 144.5t-154.5 425.5v887h307v-873q0 -140 74.5 -219.5t198.5 -79.5q128 0 200 78t72 219v875h307v-885q0 -279 -156 -425.5t-425 -146.5zM844 1499h-252q-135 0 -135 109q0 57 37 83.5t98 26.5h252q135 0 135 -110q0 -109 -135 -109zM584 1577h266
q37 0 37 31q0 30 -37 30h-266q-37 0 -37 -30q0 -14 10 -22.5t27 -8.5z" />
    <glyph glyph-name="Umacron.ss01" horiz-adv-x="1433" 
d="M715 -23q-269 0 -423.5 144.5t-154.5 425.5v887h307v-873q0 -140 74.5 -219.5t198.5 -79.5q128 0 200 78t72 219v875h307v-885q0 -279 -156 -425.5t-425 -146.5zM969 1516h-506v88h506v-88z" />
    <glyph glyph-name="Ubreve.ss01" horiz-adv-x="1433" 
d="M715 -23q-269 0 -423.5 144.5t-154.5 425.5v887h307v-873q0 -140 74.5 -219.5t198.5 -79.5q128 0 200 78t72 219v875h307v-885q0 -279 -156 -425.5t-425 -146.5zM776 1513h-121q-37 0 -64.5 3t-54 12t-44 24.5t-28.5 41.5t-13 61h94q8 -56 102 -56h139q95 0 103 56h92
q-3 -90 -61 -117q-61 -25 -144 -25z" />
    <glyph glyph-name="Utilde.ss01" horiz-adv-x="1433" 
d="M715 -23q-269 0 -423.5 144.5t-154.5 425.5v887h307v-873q0 -140 74.5 -219.5t198.5 -79.5q128 0 200 78t72 219v875h307v-885q0 -279 -156 -425.5t-425 -146.5zM512 1493l-88 12q4 129 111 129q13 0 40.5 -2.5l38.5 -3.5l252 -22q30 -2 43.5 8.5t14.5 36.5l86 -13
q-4 -127 -111 -127q-1 0 -78 5l-254 24q-29 1 -41 -9.5t-14 -37.5z" />
    <glyph glyph-name="Uogonek.ss01" horiz-adv-x="1433" 
d="M967 -145v-107h-146q-82 0 -129 35t-47 102q0 55 37 92q-253 8 -399 153.5t-146 416.5v887h307v-873q0 -140 74.5 -219.5t198.5 -79.5q128 0 200 78t72 219v875h307v-885q0 -234 -113 -376.5t-313 -180.5q-56 -13 -80 -30.5t-24 -51.5q0 -26 18.5 -40.5t51.5 -14.5h131z
" />
    <glyph glyph-name="Wdieresis.ss01" horiz-adv-x="1832" 
d="M1468 0h-290l-263 657l-260 -657h-293l-331 1434h311l221 -996l266 676h185l266 -676l221 996h299zM1251 1507h-278v90h278v-90zM862 1507h-278v90h278v-90z" />
    <glyph glyph-name="Wacute.ss01" horiz-adv-x="1832" 
d="M1468 0h-290l-263 657l-260 -657h-293l-331 1434h311l221 -996l266 676h185l266 -676l221 996h299zM1186 1507h-541v35l537 88h4v-123z" />
    <glyph glyph-name="Wgrave.ss01" horiz-adv-x="1832" 
d="M1468 0h-290l-263 657l-260 -657h-293l-331 1434h311l221 -996l266 676h185l266 -676l221 996h299zM1186 1507h-541v125h4l537 -92v-33z" />
    <glyph glyph-name="Wcircumflex.ss01" horiz-adv-x="1832" 
d="M1468 0h-290l-263 657l-260 -657h-293l-331 1434h311l221 -996l266 676h185l266 -676l221 996h299zM913 1530l-268 -41v43l273 104l268 -104v-43z" />
    <glyph glyph-name="Yacute.ss01" horiz-adv-x="1249" 
d="M778 735v-735h-307v735l-463 699h357l268 -420l270 420h338zM895 1507h-541v35l537 88h4v-123z" />
    <glyph glyph-name="Ydieresis.ss01" horiz-adv-x="1249" 
d="M778 735v-735h-307v735l-463 699h357l268 -420l270 420h338zM958 1507h-278v90h278v-90zM569 1507h-278v90h278v-90z" />
    <glyph glyph-name="Ygrave.ss01" horiz-adv-x="1249" 
d="M778 735v-735h-307v735l-463 699h357l268 -420l270 420h338zM895 1507h-541v125h4l537 -92v-33z" />
    <glyph glyph-name="Ycircumflex.ss01" horiz-adv-x="1249" 
d="M778 735v-735h-307v735l-463 699h357l268 -420l270 420h338zM623 1530l-269 -41v43l273 104l268 -104v-43z" />
    <glyph glyph-name="Zcaron.ss01" horiz-adv-x="1210" 
d="M1149 270v-270h-1096v211l690 952h-655v271h1042v-211l-686 -953h705zM594 1604l268 41v-43l-272 -105l-268 105v43z" />
    <glyph glyph-name="Zdotaccent.ss01" horiz-adv-x="1210" 
d="M1149 270v-270h-1096v211l690 952h-655v271h1042v-211l-686 -953h705zM590 1511q-36 0 -59 22.5t-23 55.5q0 30 23 52t59 22q37 0 60.5 -22t23.5 -52q0 -33 -23.5 -55.5t-60.5 -22.5z" />
    <glyph glyph-name="Zacute.ss01" horiz-adv-x="1210" 
d="M1149 270v-270h-1096v211l690 952h-655v271h1042v-211l-686 -953h705zM860 1516h-541v34l537 88h4v-122z" />
    </font>
</defs>
</svg>
