<?xml version="1.0" standalone="no"?>
<!DOCTYPE svg PUBLIC "-//W3C//DTD SVG 1.1//EN" "http://www.w3.org/Graphics/SVG/1.1/DTD/svg11.dtd" >
<svg xmlns="http://www.w3.org/2000/svg" xmlns:xlink="http://www.w3.org/1999/xlink" version="1.1">
<metadata>
Created by FontForge 20170731 at Wed May 12 14:46:33 2021
 By Aleksey,,,
Copyright (c) 2016 by Fatype. All rights reserved.
</metadata>
<defs>
<font id="BatonTurbo-Book" horiz-adv-x="540" >
  <font-face 
    font-family="Baton Turbo"
    font-weight="400"
    font-stretch="normal"
    units-per-em="2048"
    panose-1="2 11 5 3 3 2 2 6 2 3"
    ascent="1536"
    descent="-512"
    x-height="1008"
    cap-height="1434"
    bbox="-307 -487 2779 2275"
    underline-thickness="0"
    underline-position="0"
    unicode-range="U+000D-FB04"
  />
<missing-glyph horiz-adv-x="1126" 
d="M1024 0h-922v1434h922v-1434zM205 1331v-1229h717v1229h-717z" />
    <glyph glyph-name="ff" unicode="ff" horiz-adv-x="1298" 
d="M827 0v831h-411v-831h-207v831h-156v177h156v159q0 159 82 238q77 74 209 74q116 0 207 -68l-91 -151q-47 38 -100 38q-44 0 -72 -27t-28 -89v-174h411v139q0 171 91 252q80 80 221 80q190 0 278 -107l-123 -129q-57 57 -133 57q-56 0 -91.5 -34.5t-35.5 -108.5v-149h236
v-177h-236v-831h-207z" />
    <glyph glyph-name="fi" unicode="fi" horiz-adv-x="1202" 
d="M932 1194q-56 0 -93.5 38t-37.5 93q0 57 37.5 94t93.5 37t93.5 -37t37.5 -94q0 -55 -37.5 -93t-93.5 -38zM1036 0h-209v831h-411v-831h-207v831h-156v177h156v153q0 167 84 242q76 76 213 76q104 0 180 -35l-59 -170q-60 24 -97 24q-51 0 -82.5 -31t-31.5 -96v-163h620
v-1008z" />
    <glyph glyph-name="fl" unicode="fl" horiz-adv-x="1202" 
d="M1036 0h-209v1470h209v-1470zM651 1008v-177h-235v-831h-207v831h-156v177h156v153q0 167 84 242q76 76 213 76q104 0 180 -35l-59 -170q-60 24 -97 24q-51 0 -82.5 -31t-31.5 -96v-163h235z" />
    <glyph glyph-name="f_f_i" unicode="ffi" horiz-adv-x="1820" 
d="M1550 1194q-56 0 -93.5 38t-37.5 93q0 57 37.5 94t93.5 37t93.5 -37t37.5 -94q0 -55 -37.5 -93t-93.5 -38zM827 0v831h-411v-831h-207v831h-156v177h156v159q0 159 82 238q77 74 209 74q116 0 207 -68l-91 -151q-47 38 -100 38q-44 0 -72 -27t-28 -89v-174h411v153
q0 167 84 242q76 76 213 76q105 0 181 -35l-60 -170q-60 24 -96 24q-51 0 -83 -31t-32 -96v-163h621v-1008h-209v831h-412v-831h-207z" />
    <glyph glyph-name="f_f_l" unicode="ffl" horiz-adv-x="1820" 
d="M1655 0h-209v1470h209v-1470zM827 0v831h-411v-831h-207v831h-156v177h156v159q0 159 82 238q77 74 209 74q115 0 196 -62l-82 -155q-42 36 -100 36q-98 0 -98 -116v-174h411v153q0 167 84 242q76 76 213 76q105 0 181 -35l-60 -170q-60 24 -96 24q-51 0 -83 -31t-32 -96
v-163h236v-177h-236v-831h-207z" />
    <glyph glyph-name="f_j" unicode="fj" horiz-adv-x="1202" 
d="M932 1194q-56 0 -93.5 38t-37.5 93q0 57 37.5 94t93.5 37t93.5 -37t37.5 -94q0 -55 -37.5 -93t-93.5 -38zM739 -414q-81 0 -151.5 34.5t-108.5 94.5l135 123q43 -69 113 -69q44 0 72 28t28 82v952h-411v-831h-207v831h-156v177h156v153q0 167 84 242q76 76 213 76
q104 0 180 -35l-59 -170q-60 24 -97 24q-51 0 -82.5 -31t-31.5 -96v-163h620v-1127q0 -146 -81.5 -220.5t-215.5 -74.5z" />
    <glyph glyph-name="f_b" unicode="fb" horiz-adv-x="1869" 
d="M1331 -20q-99 0 -178 37.5t-129 105.5v-123h-197v1470h209v-559q111 121 293 121q196 0 324.5 -143.5t128.5 -380.5q0 -235 -128.5 -381.5t-322.5 -146.5zM651 1008v-177h-235v-831h-207v831h-156v177h156v153q0 167 84 242q76 76 213 76q104 0 180 -35l-59 -170
q-60 24 -97 24q-51 0 -82.5 -31t-31.5 -96v-163h235zM1305 170q114 0 189 90.5t75 247.5q0 156 -75 246t-191 90q-101 0 -185 -72q-79 -70 -82 -213v-104q1 -134 78 -209.5t191 -75.5z" />
    <glyph glyph-name=".notdef" horiz-adv-x="1126" 
d="M1024 0h-922v1434h922v-1434zM205 1331v-1229h717v1229h-717z" />
    <glyph glyph-name=".null" horiz-adv-x="0" 
 />
    <glyph glyph-name="nonmarkingreturn" horiz-adv-x="682" 
 />
    <glyph glyph-name="NULL" horiz-adv-x="1024" 
 />
    <glyph glyph-name="NULL" horiz-adv-x="1024" 
 />
    <glyph glyph-name="CR" unicode="&#xd;" horiz-adv-x="1024" 
 />
    <glyph glyph-name="space" unicode=" " horiz-adv-x="503" 
 />
    <glyph glyph-name="exclam" unicode="!" horiz-adv-x="602" 
d="M387 428h-172l-29 1006h230zM301 -23q-57 0 -99 42t-42 102q0 57 42 99t99 42q59 0 100 -41.5t41 -99.5q0 -60 -40.5 -102t-100.5 -42z" />
    <glyph glyph-name="quotedbl" unicode="&#x22;" horiz-adv-x="819" 
d="M303 946h-153l-31 488h213zM670 946h-154l-31 488h213z" />
    <glyph glyph-name="numbersign" unicode="#" horiz-adv-x="1480" 
d="M551 475h293l84 402h-293zM934 0h-191l64 299h-293l-63 -299h-191l64 299h-261l37 176h260l84 402h-260l39 176h258l64 299h190l-63 -299h293l63 299h191l-64 -299h262l-39 -176h-260l-84 -402h260l-37 -176h-260z" />
    <glyph glyph-name="dollar" unicode="$" horiz-adv-x="1269" 
d="M387 997q0 -70 44.5 -115.5t156.5 -74.5v377q-90 -14 -145.5 -64t-55.5 -123zM950 373q0 143 -217 198v-393q96 14 156.5 65t60.5 130zM733 -2v-207h-145v205q-442 40 -473 473l211 18q7 -140 78.5 -217.5t183.5 -91.5v424l-43 8q-369 72 -369 379q0 157 113 258
q116 104 299 119v197h145v-199q189 -21 302.5 -130.5t113.5 -285.5l-205 -22q0 116 -56.5 179t-154.5 77v-408l23 -4q207 -44 306 -139t99 -244q0 -164 -121 -270q-123 -104 -307 -119z" />
    <glyph glyph-name="percent" unicode="%" horiz-adv-x="2037" 
d="M483 629q-155 0 -258 112q-104 113 -104 303q0 192 104 302q107 110 258 110q156 0 260 -110q105 -111 105 -302q0 -190 -107 -303q-103 -112 -258 -112zM483 797q80 0 130.5 66t50.5 181q0 112 -51.5 178t-129.5 66t-128 -65t-50 -179t50.5 -180.5t127.5 -66.5z
M1552 -20q-155 0 -258 112q-104 113 -104 303q0 191 104 301q108 111 258 111q155 0 260 -111t105 -301t-107 -303q-103 -112 -258 -112zM1552 147q80 0 130.5 66.5t50.5 181.5q0 112 -51.5 178t-129.5 66t-128 -65t-50 -179t50.5 -181t127.5 -67zM596 -25l-145 105
l989 1380l145 -104z" />
    <glyph glyph-name="ampersand" unicode="&#x26;" horiz-adv-x="1376" 
d="M1294 109l-145 -134l-166 177q-175 -175 -428 -175q-206 0 -334 113q-127 115 -127 287q0 251 291 411q-79 89 -114 161.5t-35 152.5q0 151 110 252q110 104 281 104q162 0 278 -96q113 -94 113 -248q0 -56 -14.5 -102.5t-36 -80.5t-66 -71t-85 -64t-111.5 -69l264 -278
q78 140 147 315l180 -72q-107 -258 -190 -385zM440 1098q0 -55 31 -106t107 -130q132 70 183.5 119t51.5 125q0 75 -51 122.5t-137 47.5q-84 0 -134.5 -52.5t-50.5 -125.5zM569 164q167 0 287 123l-344 364q-205 -100 -205 -268q0 -94 71 -156.5t191 -62.5z" />
    <glyph glyph-name="quotesingle" unicode="'" horiz-adv-x="450" 
d="M303 946h-153l-31 488h213z" />
    <glyph glyph-name="parenleft" unicode="(" horiz-adv-x="700" 
d="M678 -219l-150 -123q-187 187 -300 460.5t-113 567.5q0 273 114 546.5t299 463.5l150 -123q-149 -173 -248 -402q-102 -234 -102 -485q0 -267 102 -504q98 -227 248 -401z" />
    <glyph glyph-name="parenright" unicode=")" horiz-adv-x="700" 
d="M23 1573l149 123q187 -187 300.5 -461t113.5 -567q0 -273 -114.5 -546.5t-299.5 -463.5l-149 123q147 170 247 399q103 239 103 488q0 264 -103 503q-100 232 -247 402z" />
    <glyph glyph-name="asterisk" unicode="*" horiz-adv-x="935" 
d="M473 938l-174 -244l-123 92l170 238l-287 94l47 146l285 -93v299h154v-296l284 90l48 -144l-281 -90l176 -244l-125 -90z" />
    <glyph glyph-name="plus" unicode="+" horiz-adv-x="1196" 
d="M1092 795v-181h-398v-419h-192v419h-398v181h398v409h192v-409h398z" />
    <glyph glyph-name="comma" unicode="," horiz-adv-x="542" 
d="M221 -324l-110 84q5 7 29.5 42t33 48t25.5 40t27 48.5t18 43.5q-49 7 -81 47t-32 92q0 58 41 99.5t100 41.5t100.5 -42t41.5 -109q0 -117 -62 -232q-64 -119 -131 -203z" />
    <glyph glyph-name="hyphen" unicode="-" horiz-adv-x="761" 
d="M680 453h-598v180h598v-180z" />
    <glyph glyph-name="period" unicode="." horiz-adv-x="542" 
d="M272 -23q-60 0 -100.5 42t-40.5 102q0 58 41 99.5t100 41.5q57 0 99.5 -42t42.5 -99q0 -59 -42 -101.5t-100 -42.5z" />
    <glyph glyph-name="slash" unicode="/" horiz-adv-x="860" 
d="M244 -123h-207l579 1679h209z" />
    <glyph glyph-name="zero" unicode="0" horiz-adv-x="1329" 
d="M664 -23q-249 0 -399 189.5t-150 554.5q0 183 42.5 326t118 231.5t174 134t214.5 45.5q120 0 219.5 -45t174.5 -133.5t117 -231.5t42 -327t-42.5 -328t-118 -234t-175 -136t-217.5 -46zM664 180q156 0 241.5 141t85.5 400t-86.5 396.5t-240.5 137.5t-240 -137t-86 -397
q0 -257 86.5 -399t239.5 -142z" />
    <glyph glyph-name="one" unicode="1" horiz-adv-x="825" 
d="M639 1434v-1434h-217v1176l-342 -181l-19 209l428 230h150z" />
    <glyph glyph-name="two" unicode="2" horiz-adv-x="1128" 
d="M1018 195v-195h-936v154l551 571q93 96 128.5 163.5t35.5 143.5q0 95 -65.5 159t-168.5 64q-113 0 -178.5 -65t-73.5 -174h-215q9 194 140 319q132 123 327 123q106 0 194 -33.5t145 -91.5t88.5 -134.5t31.5 -162.5q0 -111 -53.5 -214.5t-175.5 -225.5l-406 -401h631z
" />
    <glyph glyph-name="three" unicode="3" horiz-adv-x="1163" 
d="M565 -20q-214 0 -350 118q-138 120 -147 305h215q18 -101 91.5 -164t190.5 -63t195 68t78 172t-80 171.5t-203 67.5h-178v189h182q116 0 184 60t68 153q0 91 -68.5 148t-173.5 57q-106 0 -174 -52t-78 -145h-213q17 184 148 288.5t319 104.5q207 0 334 -111.5t127 -279.5
q0 -102 -55.5 -185t-142.5 -122q103 -45 166 -136.5t63 -215.5q0 -182 -142.5 -305t-355.5 -123z" />
    <glyph glyph-name="four" unicode="4" horiz-adv-x="1169" 
d="M1106 526v-190h-197v-336h-209v336h-639v139l488 959h229l-467 -908h391v285h207v-285h197z" />
    <glyph glyph-name="five" unicode="5" horiz-adv-x="1169" 
d="M569 -23q-194 0 -319 101q-125 102 -160 252l203 59q20 -98 96.5 -156.5t181.5 -58.5q123 0 202 78t79 199q0 118 -80.5 197t-202.5 79q-142 0 -252 -117h-188l82 824h801v-195h-615l-43 -385q101 70 240 70q216 0 347.5 -134.5t131.5 -336.5q0 -103 -39.5 -192.5
t-107.5 -151.5t-160.5 -97t-196.5 -35z" />
    <glyph glyph-name="six" unicode="6" horiz-adv-x="1224" 
d="M1128 449q0 -132 -67 -241t-180.5 -170t-249.5 -61q-139 0 -269 68q-129 72 -192 244q-57 156 -57 373q0 273 49 421q54 154 135 238q72 74 161.5 105.5t205.5 31.5q167 0 290.5 -83.5t167.5 -231.5l-198 -66q-31 87 -101 135t-164 48q-133 0 -215 -91
q-54 -62 -81.5 -160t-34.5 -261q44 75 132.5 118t198.5 43q207 0 338 -133t131 -327zM633 174q118 0 197 76t79 192q0 117 -82 193q-81 78 -194 78q-114 0 -193 -76q-80 -77 -80 -195q0 -114 76 -191t197 -77z" />
    <glyph glyph-name="seven" unicode="7" horiz-adv-x="1026" 
d="M969 1272l-561 -1272h-242l553 1239h-668v195h918v-162z" />
    <glyph glyph-name="eight" unicode="8" horiz-adv-x="1183" 
d="M592 -23q-215 0 -352.5 121t-137.5 303q0 111 56.5 204t154.5 151q-80 51 -126 130.5t-46 176.5q0 168 130 281.5t321 113.5q196 0 324 -113t128 -282q0 -97 -46 -175.5t-128 -129.5q98 -56 154.5 -149.5t56.5 -207.5q0 -180 -139 -302t-350 -122zM592 1266
q-108 0 -174 -61.5t-66 -151.5q0 -88 69 -148.5t171 -60.5q107 0 175.5 60t68.5 149q0 90 -68 151.5t-176 61.5zM592 170q124 0 199 70.5t75 173.5q0 102 -76.5 171.5t-197.5 69.5q-122 0 -199 -71q-76 -70 -76 -170q0 -99 76 -172q78 -72 199 -72z" />
    <glyph glyph-name="nine" unicode="9" horiz-adv-x="1224" 
d="M592 1262q-118 0 -197.5 -76.5t-79.5 -192.5q0 -117 80 -194q82 -76 197 -76q113 0 192 76q80 77 80 194q0 115 -75.5 192t-196.5 77zM561 -23q-167 0 -291 84t-168 232l199 65q31 -87 100.5 -134.5t163.5 -47.5q134 0 215 90q54 62 82 160.5t35 261.5
q-44 -75 -133 -118.5t-199 -43.5q-207 0 -338 133.5t-131 327.5q0 132 67 240.5t181 169.5t250 61q143 0 266 -69q131 -69 195 -242q57 -156 57 -373q0 -278 -51 -424q-49 -148 -133 -235q-133 -138 -367 -138z" />
    <glyph glyph-name="colon" unicode=":" horiz-adv-x="579" 
d="M291 -23q-60 0 -100.5 42t-40.5 102q0 58 41 99.5t100 41.5q57 0 99 -42t42 -99q0 -60 -42 -102t-99 -42zM291 748q-60 0 -100.5 41.5t-40.5 101.5q0 58 41 99.5t100 41.5q57 0 99 -42t42 -99q0 -59 -42 -101t-99 -42z" />
    <glyph glyph-name="semicolon" unicode=";" horiz-adv-x="579" 
d="M240 -324l-111 84q5 7 29.5 42t33 48t25.5 40t27 48.5t18 43.5q-49 7 -80.5 47t-31.5 92q0 58 41 99.5t100 41.5t100 -42t41 -109q0 -119 -61 -232q-64 -119 -131 -203zM291 748q-60 0 -100.5 41.5t-40.5 101.5q0 58 41 99.5t100 41.5q57 0 99 -42t42 -99q0 -59 -42 -101
t-99 -42z" />
    <glyph glyph-name="less" unicode="&#x3c;" horiz-adv-x="993" 
d="M879 412v-209l-781 381v182l781 381v-199l-568 -268z" />
    <glyph glyph-name="equal" unicode="=" horiz-adv-x="1191" 
d="M1059 836h-926v176h926v-176zM1059 393h-926v176h926v-176z" />
    <glyph glyph-name="greater" unicode="&#x3e;" horiz-adv-x="993" 
d="M895 584l-780 -381v198l567 269l-567 268v209l780 -381v-182z" />
    <glyph glyph-name="question" unicode="?" horiz-adv-x="1048" 
d="M565 428h-207v90q0 100 14.5 155.5t44 86t89.5 59.5l67 35q170 87 170 221q0 83 -64 139t-163 56q-105 0 -173.5 -64.5t-74.5 -173.5l-207 19q7 186 135.5 296.5t319.5 110.5q204 0 322 -106q123 -108 123 -275q0 -130 -64.5 -215.5t-189.5 -146.5l-78 -39
q-35 -19 -49.5 -47.5t-14.5 -93.5v-107zM461 -23q-57 0 -98 42t-41 102q0 57 41 99t98 42q59 0 100 -41.5t41 -99.5q0 -60 -40.5 -102t-100.5 -42z" />
    <glyph glyph-name="at" unicode="@" horiz-adv-x="1886" 
d="M946 -348q-174 0 -330 66t-269.5 180t-180 276.5t-66.5 347.5q0 247 109.5 447t305 314t437.5 114q179 0 335 -65t265 -176t171.5 -264t62.5 -325q0 -68 -15 -136t-46.5 -130.5t-76 -110.5t-108.5 -77t-139 -29q-82 0 -145.5 35t-100.5 94q-91 -123 -246 -123
q-167 0 -278 116.5t-111 315.5q0 101 33.5 183.5t88 133.5t121 78t136.5 27q138 0 219 -94l6 86h181v-565q0 -56 29 -88.5t73 -32.5q92 0 145 90q52 88 52 217q0 188 -81 341t-231 243t-340 90q-194 0 -348 -93t-238.5 -254.5t-84.5 -361.5q0 -150 51.5 -281t140 -223
t211.5 -145t262 -53q214 0 393 106l78 -147q-207 -127 -471 -127zM928 274q59 0 109.5 38t74.5 108v192q-20 66 -71 107t-113 41q-92 0 -149.5 -64.5t-57.5 -173.5q0 -117 59 -182.5t148 -65.5z" />
    <glyph glyph-name="A" unicode="A" horiz-adv-x="1351" 
d="M672 1217h-2l-183 -533h367zM1317 0h-234l-170 492h-483l-172 -492h-223l514 1434h254z" />
    <glyph glyph-name="B" unicode="B" horiz-adv-x="1294" 
d="M676 0h-500v1434h520q205 0 326 -95t121 -260q0 -96 -49 -171.5t-129 -114.5q103 -40 166 -133.5t63 -223.5q0 -208 -138.5 -322t-379.5 -114zM694 1247h-299v-370h336q82 0 137.5 50.5t55.5 135.5q0 100 -72 141q-70 43 -158 43zM395 694v-508h295q126 0 204.5 67.5
t78.5 186.5q0 124 -82.5 189t-212.5 65h-283z" />
    <glyph glyph-name="C" unicode="C" horiz-adv-x="1454" 
d="M762 -20q-140 0 -263 54.5t-212.5 151t-141 235.5t-51.5 302q0 157 51.5 294t140.5 233.5t212 152t262 55.5q220 0 377 -106t223 -312l-211 -61q-35 110 -127 190q-96 84 -262 84q-128 0 -229 -72t-155 -192.5t-54 -265.5q0 -151 54.5 -273.5t156 -194t229.5 -71.5
q171 0 274 103q104 104 131 252l217 -39q-20 -123 -78.5 -222.5t-142 -164t-186.5 -99t-215 -34.5z" />
    <glyph glyph-name="D" unicode="D" horiz-adv-x="1415" 
d="M662 0h-486v1434h481q132 0 252.5 -50t211.5 -138.5t145.5 -221.5t54.5 -289q0 -168 -53.5 -308.5t-144.5 -232.5t-210 -143t-251 -51zM395 1239v-1044h262q184 0 310.5 149t126.5 391q0 148 -61.5 264.5t-162 178t-219.5 61.5h-256z" />
    <glyph glyph-name="E" unicode="E" horiz-adv-x="1230" 
d="M395 195h740v-195h-959v1434h952v-195h-733v-334h682v-194h-682v-516z" />
    <glyph glyph-name="F" unicode="F" horiz-adv-x="1116" 
d="M993 887v-195h-598v-692h-219v1434h879v-195h-660v-352h598z" />
    <glyph glyph-name="G" unicode="G" horiz-adv-x="1503" 
d="M1409 688v-57q0 -199 -87.5 -349t-231 -226t-320.5 -76q-144 0 -268.5 54t-214.5 150t-141.5 235.5t-51.5 303.5q0 213 87 381t240.5 261t346.5 93q216 0 379 -100q166 -100 231 -307l-209 -66q-35 112 -140.5 190t-260.5 78q-199 0 -322.5 -151t-123.5 -379
q0 -236 124.5 -388.5t323.5 -152.5q159 0 271.5 86.5t138.5 229.5h-392v190h621z" />
    <glyph glyph-name="H" unicode="H" horiz-adv-x="1501" 
d="M1325 0h-219v750h-711v-750h-219v1434h219v-490h711v490h219v-1434z" />
    <glyph glyph-name="I" unicode="I" horiz-adv-x="571" 
d="M395 0h-219v1434h219v-1434z" />
    <glyph glyph-name="J" unicode="J" horiz-adv-x="1064" 
d="M467 -18q-187 0 -305 104.5t-144 304.5l211 41q31 -248 242 -248q92 0 152.5 64.5t60.5 187.5v998h219v-998q0 -216 -120.5 -335t-315.5 -119z" />
    <glyph glyph-name="K" unicode="K" horiz-adv-x="1316" 
d="M1303 0h-259l-462 807l-187 -178v-629h-219v1434h219v-549l582 549h293l-516 -478z" />
    <glyph glyph-name="L" unicode="L" horiz-adv-x="1091" 
d="M1049 0h-873v1434h219v-1239h654v-195z" />
    <glyph glyph-name="M" unicode="M" horiz-adv-x="1671" 
d="M791 623l-398 479v-1102h-217v1434h221l443 -543l440 543h215v-1434h-217v1104l-399 -481h-88z" />
    <glyph glyph-name="N" unicode="N" horiz-adv-x="1497" 
d="M1321 0h-211l-719 1053v-1053h-215v1434h211l721 -1061v1061h213v-1434z" />
    <glyph glyph-name="O" unicode="O" horiz-adv-x="1546" 
d="M772 -20q-143 0 -267.5 53.5t-215.5 149t-143 235.5t-52 305q0 157 51.5 294t141 233.5t215.5 152t270 55.5q194 0 349.5 -93.5t243 -261.5t87.5 -380q0 -164 -53 -304t-144.5 -235.5t-216.5 -149.5t-266 -54zM772 184q200 0 326.5 153t126.5 386q0 146 -55.5 266
t-159.5 192t-238 72q-133 0 -236.5 -71t-158.5 -191.5t-55 -267.5q0 -152 56 -274.5t159.5 -193.5t234.5 -71z" />
    <glyph glyph-name="P" unicode="P" horiz-adv-x="1189" 
d="M690 1239h-295v-405h297q103 0 162 54t59 146t-61.5 148.5t-161.5 56.5zM707 637h-312v-637h-219v1434h539q185 0 305 -105q121 -103 121 -293q0 -97 -33.5 -173.5t-93 -125.5t-137.5 -74.5t-170 -25.5z" />
    <glyph glyph-name="Q" unicode="Q" horiz-adv-x="1546" 
d="M1448 68l-137 -136l-154 166q-169 -118 -385 -118q-143 0 -267.5 53.5t-215.5 149t-143 235.5t-52 305q0 157 51.5 294t141 233.5t215.5 152t270 55.5q194 0 349.5 -93.5t243 -261.5t87.5 -380q0 -292 -158 -494zM772 184q124 0 238 72l-265 274l134 132l258 -271
q88 139 88 332q0 146 -55.5 266t-159.5 192t-238 72q-133 0 -236.5 -71t-158.5 -191.5t-55 -267.5q0 -152 56 -274.5t159.5 -193.5t234.5 -71z" />
    <glyph glyph-name="R" unicode="R" horiz-adv-x="1288" 
d="M717 1239h-324v-397h330q98 0 157.5 53t59.5 152q0 88 -63 140t-160 52zM1264 0h-256l-377 649h-238v-649h-217v1434h559q185 0 308.5 -105.5t123.5 -279.5q0 -171 -112 -283q-67 -67 -185 -98z" />
    <glyph glyph-name="S" unicode="S" horiz-adv-x="1232" 
d="M618 -20q-108 0 -200.5 28.5t-169.5 88t-125.5 161.5t-56.5 238l215 18q12 -171 105 -258.5t235 -87.5q122 0 208 60t86 161q0 94 -75 153t-226 105l-127 39q-186 57 -269 146.5t-83 230.5q0 172 135.5 283.5t347.5 111.5q219 0 357.5 -114t142.5 -302v-16l-213 -20v12
q-3 136 -88 194q-85 60 -199 60q-117 0 -192.5 -55.5t-75.5 -143.5q0 -75 55 -119.5t197 -85.5l131 -39q208 -62 306 -164.5t98 -261.5q0 -188 -147 -305.5t-372 -117.5z" />
    <glyph glyph-name="T" unicode="T" horiz-adv-x="1177" 
d="M1137 1434v-195h-439v-1239h-219v1239h-438v195h1096z" />
    <glyph glyph-name="U" unicode="U" horiz-adv-x="1404" 
d="M702 -20q-245 0 -394.5 144.5t-149.5 405.5v904h219v-897q0 -164 88.5 -258.5t236.5 -94.5q149 0 237.5 94t88.5 257v899h219v-902q0 -262 -151 -407t-394 -145z" />
    <glyph glyph-name="V" unicode="V" horiz-adv-x="1294" 
d="M772 0h-250l-487 1434h229l383 -1176h6l385 1176h222z" />
    <glyph glyph-name="W" unicode="W" horiz-adv-x="1773" 
d="M1397 0h-226l-284 803l-287 -803h-225l-328 1434h219l252 -1131l299 852h148l299 -856l252 1135h210z" />
    <glyph glyph-name="X" unicode="X" horiz-adv-x="1257" 
d="M1237 0h-254l-356 590l-361 -590h-246l469 756l-430 678h254l316 -512l321 512h248l-430 -666z" />
    <glyph glyph-name="Y" unicode="Y" horiz-adv-x="1171" 
d="M694 719v-719h-219v721l-467 713h260l324 -508l323 508h248z" />
    <glyph glyph-name="Z" unicode="Z" horiz-adv-x="1185" 
d="M1120 195v-195h-1061v141l772 1098h-731v195h1014v-142l-770 -1097h776z" />
    <glyph glyph-name="bracketleft" unicode="[" horiz-adv-x="737" 
d="M696 -317h-520v1923h520v-170h-313v-1583h313v-170z" />
    <glyph glyph-name="backslash" unicode="\" horiz-adv-x="862" 
d="M825 -123h-209l-579 1679h209z" />
    <glyph glyph-name="bracketright" unicode="]" horiz-adv-x="737" 
d="M41 1606h520v-1923h-520v170h313v1583h-313v170z" />
    <glyph glyph-name="asciicircum" unicode="^" horiz-adv-x="1046" 
d="M989 811h-223l-248 426l-248 -426h-213l373 623h186z" />
    <glyph glyph-name="underscore" unicode="_" horiz-adv-x="884" 
d="M864 -209h-844v146h844v-146z" />
    <glyph glyph-name="grave" unicode="`" horiz-adv-x="548" 
d="M457 1157h-170l-205 289v4h231l144 -289v-4z" />
    <glyph glyph-name="a" unicode="a" horiz-adv-x="1085" 
d="M469 156q51 0 96.5 19.5t116.5 66.5l47 32v256l-201 -53q-124 -34 -176.5 -71t-52.5 -103q0 -69 51.5 -108t118.5 -39zM731 104l-14 -12q-131 -108 -285 -108q-65 0 -125.5 21t-108.5 59t-77 98t-29 131q0 127 86.5 203.5t274.5 124.5l276 71q-6 78 -64.5 121t-148.5 43
q-84 0 -145 -37.5t-92 -105.5l-177 73q49 119 165.5 183.5t262.5 64.5q173 0 289 -90q115 -89 115 -274v-670h-201z" />
    <glyph glyph-name="b" unicode="b" horiz-adv-x="1208" 
d="M670 -20q-99 0 -178.5 37.5t-129.5 105.5v-123h-196v1470h209v-559q111 121 293 121q196 0 324 -143.5t128 -380.5q0 -236 -128 -382t-322 -146zM643 170q114 0 189 90.5t75 247.5q0 156 -75 246t-191 90q-100 0 -184 -72q-79 -70 -82 -213v-104q1 -134 77.5 -209.5
t190.5 -75.5z" />
    <glyph glyph-name="c" unicode="c" horiz-adv-x="1071" 
d="M567 -20q-95 0 -181 35.5t-154 100.5t-108 167t-40 225q0 99 26.5 184.5t73 147t108 106t132 66.5t145.5 22q162 0 276 -77t159 -209l-185 -74q-70 172 -248 172q-113 0 -194.5 -89.5t-81.5 -248.5t81.5 -249.5t194.5 -90.5q93 0 159 52t99 147l185 -74
q-49 -152 -167 -232.5t-280 -80.5z" />
    <glyph glyph-name="d" unicode="d" horiz-adv-x="1208" 
d="M565 170q103 0 185 70q81 69 84 215v106q-1 132 -78 207.5t-191 75.5t-189 -90t-75 -246q0 -157 75 -247.5t189 -90.5zM1042 0h-198v117q-50 -60 -130.5 -98.5t-174.5 -38.5q-195 0 -323 145t-128 383q0 235 128.5 379.5t322.5 144.5q189 0 295 -119v557h208v-1470z" />
    <glyph glyph-name="e" unicode="e" horiz-adv-x="1110" 
d="M563 862q-105 0 -180.5 -63t-85.5 -176h520q-11 116 -82.5 177.5t-171.5 61.5zM870 309l148 -104q-57 -104 -172 -163.5t-262 -59.5q-214 0 -357 143t-143 387q0 117 37.5 215.5t102.5 165.5t153.5 104t189.5 37q201 0 324.5 -127.5t134.5 -343.5q4 -82 4 -96h-737
q3 -145 90 -229q90 -84 209 -84q88 0 162 40.5t116 114.5z" />
    <glyph glyph-name="f" unicode="f" horiz-adv-x="679" 
d="M651 1008v-177h-235v-831h-207v831h-156v177h156v139q0 171 90 252q80 80 221 80q191 0 279 -107l-123 -129q-57 57 -133 57q-56 0 -91.5 -34.5t-35.5 -108.5v-149h235z" />
    <glyph glyph-name="g" unicode="g" horiz-adv-x="1052" 
d="M301 674q0 -87 58 -140t147 -53t146 53t57 140q0 84 -57.5 137t-145.5 53q-89 0 -147 -53t-58 -137zM969 -113q0 -136 -116 -217.5t-312 -81.5h-70q-182 0 -301 70t-119 205q0 85 54.5 145t150.5 90q-74 46 -74 121q0 92 105 150q-84 46 -132.5 124.5t-48.5 180.5
q0 107 56 189.5t146.5 124.5t199.5 42q40 0 124 -11t167 -11h207v-162l-158 2q53 -82 53 -174q0 -163 -112 -261t-281 -98q-70 0 -99.5 -23t-29.5 -52q0 -67 119 -70l151 -6q157 -6 238.5 -81t81.5 -196zM475 -250h70q109 0 167 34t58 95t-51 93t-150 32h-92
q-229 -3 -229 -129q0 -61 60.5 -93t166.5 -32z" />
    <glyph glyph-name="h" unicode="h" horiz-adv-x="1191" 
d="M618 844q-80 0 -145.5 -50t-97.5 -137v-657h-209v1470h209v-593q98 155 299 155q167 0 266.5 -104t99.5 -305v-623h-206v594q0 125 -57 187.5t-159 62.5z" />
    <glyph glyph-name="i" unicode="i" 
d="M270 1194q-56 0 -93.5 38t-37.5 93q0 57 37.5 94t93.5 37t93.5 -37t37.5 -94q0 -55 -37.5 -93t-93.5 -38zM375 0h-209v1008h209v-1008z" />
    <glyph glyph-name="j" unicode="j" 
d="M270 1194q-56 0 -93.5 38t-37.5 93q0 57 37.5 94t93.5 37t93.5 -37t37.5 -94q0 -55 -37.5 -93t-93.5 -38zM166 1008h209v-1127q0 -146 -81.5 -220.5t-215.5 -74.5q-81 0 -151.5 34.5t-108.5 94.5l135 123q43 -69 113 -69q44 0 72 28t28 82v1129z" />
    <glyph glyph-name="k" unicode="k" horiz-adv-x="1085" 
d="M1059 0h-242l-319 551l-127 -117v-434h-205v1470h205v-808l401 346h279l-394 -332z" />
    <glyph glyph-name="l" unicode="l" 
d="M375 0h-209v1470h209v-1470z" />
    <glyph glyph-name="m" unicode="m" horiz-adv-x="1792" 
d="M602 842q-79 0 -140 -49t-87 -136v-657h-209v1008h209v-117q99 139 282 139q101 0 178 -42.5t121 -123.5q50 76 134 121t192 45q166 0 263 -104t97 -301v-625h-208v596q0 119 -50.5 182.5t-146.5 63.5q-81 0 -142.5 -52.5t-86.5 -140.5v-24v-625h-207v596
q0 119 -51 182.5t-148 63.5z" />
    <glyph glyph-name="n" unicode="n" horiz-adv-x="1191" 
d="M618 844q-80 0 -145.5 -50t-97.5 -137v-657h-209v1008h209v-131q98 155 299 155q167 0 266.5 -104t99.5 -305v-623h-206v594q0 125 -57 187.5t-159 62.5z" />
    <glyph glyph-name="o" unicode="o" horiz-adv-x="1155" 
d="M578 -20q-211 0 -352.5 146.5t-141.5 381.5q0 119 39 218.5t106.5 166.5t157.5 104t191 37q211 0 353 -144.5t142 -381.5q0 -117 -39 -216.5t-106 -167.5t-158 -106t-192 -38zM578 166q124 0 203 92.5t79 249.5q0 155 -80.5 246.5t-201.5 91.5q-123 0 -203 -90.5
t-80 -247.5q0 -156 80.5 -249t202.5 -93z" />
    <glyph glyph-name="p" unicode="p" horiz-adv-x="1208" 
d="M643 170q114 0 189 90.5t75 247.5q0 156 -75 246t-191 90q-100 0 -184 -72q-79 -70 -82 -213v-104q1 -134 77.5 -209.5t190.5 -75.5zM670 -20q-186 0 -295 122v-491h-209v1397h196v-117q46 63 127.5 102t178.5 39q196 0 324 -143.5t128 -380.5q0 -236 -128 -382
t-322 -146z" />
    <glyph glyph-name="q" unicode="q" horiz-adv-x="1208" 
d="M1042 1008v-1397h-208v491q-49 -56 -126.5 -89t-168.5 -33q-195 0 -323 145t-128 383q0 235 128.5 379.5t322.5 144.5q197 0 305 -133v109h198zM565 170q103 0 185 70q81 69 84 215v106q-1 132 -78 207.5t-191 75.5t-189 -90t-75 -246q0 -157 75 -247.5t189 -90.5z" />
    <glyph glyph-name="r" unicode="r" horiz-adv-x="772" 
d="M551 827q-59 0 -104.5 -39.5t-71.5 -99.5v-688h-209v1008h209v-117q35 59 90 96t125 37q99 0 170 -49l-80 -189q-59 41 -129 41z" />
    <glyph glyph-name="s" unicode="s" horiz-adv-x="976" 
d="M496 -20q-161 0 -276.5 71.5t-158.5 214.5l179 62q32 -88 98.5 -135.5t157.5 -47.5q86 0 141 35.5t55 100.5q0 28 -12.5 49.5t-31 35.5t-52 25.5t-61 18t-72.5 14.5q-156 27 -256 88q-101 64 -101 211q0 142 110 227.5t278 85.5q157 0 256.5 -69t136.5 -185l-178 -57
q-49 147 -215 147q-85 0 -137 -39t-52 -102q0 -71 66 -92q70 -23 159 -37q152 -24 258 -92q105 -65 105 -219q0 -142 -113 -226.5t-284 -84.5z" />
    <glyph glyph-name="t" unicode="t" horiz-adv-x="751" 
d="M627 213l100 -129q-87 -100 -248 -100q-130 0 -207 72.5t-77 224.5v550h-154v177h156v290h202v-290h297v-177h-297v-534q0 -72 31.5 -103.5t81.5 -31.5q61 0 115 51z" />
    <glyph glyph-name="u" unicode="u" horiz-adv-x="1179" 
d="M1014 0h-209v131q-48 -68 -123 -109.5t-172 -41.5q-161 0 -259.5 100t-98.5 293v635h206v-605q0 -118 57.5 -176.5t153.5 -58.5q75 0 139.5 49t96.5 133v658h209v-1008z" />
    <glyph glyph-name="v" unicode="v" horiz-adv-x="997" 
d="M975 1008l-379 -1008h-197l-379 1008h211l271 -752l272 752h201z" />
    <glyph glyph-name="w" unicode="w" horiz-adv-x="1378" 
d="M1065 0h-162l-215 508l-213 -508h-162l-272 1008h205l182 -693l182 447h166l178 -447l187 693h196z" />
    <glyph glyph-name="x" unicode="x" horiz-adv-x="1001" 
d="M975 0h-232l-245 381l-248 -381h-223l342 514l-334 494h231l238 -357l233 357h224l-328 -488z" />
    <glyph glyph-name="y" unicode="y" horiz-adv-x="958" 
d="M944 1008l-598 -1397h-209l242 563l-363 834h217l254 -607l246 607h211z" />
    <glyph glyph-name="z" unicode="z" horiz-adv-x="933" 
d="M860 176v-176h-788v115l510 716h-498v177h768v-115l-510 -717h518z" />
    <glyph glyph-name="braceleft" unicode="{" horiz-adv-x="737" 
d="M532 -319q-274 0 -274 292v506l-10 74l-166 29v125l166 28l10 74v506q0 293 274 293q40 0 85.5 -1t48.5 -1v-170q-116 0 -157.5 -30t-41.5 -124v-489q0 -102 -80 -148q80 -46 80 -149v-490q0 -94 41.5 -123.5t157.5 -29.5v-170q-3 0 -48.5 -1t-85.5 -1z" />
    <glyph glyph-name="bar" unicode="|" horiz-adv-x="581" 
d="M391 -287h-201v1803h201v-1803z" />
    <glyph glyph-name="braceright" unicode="}" horiz-adv-x="737" 
d="M205 -319q-40 0 -85 1t-48 1v170q116 0 157 29.5t41 123.5v490q0 101 80 147q-80 46 -80 150v489q0 94 -41 124t-157 30v170q3 0 48 1t85 1q274 0 274 -293v-506l10 -74l166 -28v-125l-166 -29l-10 -74v-506q0 -292 -274 -292z" />
    <glyph glyph-name="asciitilde" unicode="~" horiz-adv-x="1130" 
d="M762 467q-50 0 -98 18.5t-84 45t-69.5 53t-68 45t-65.5 18.5q-52 0 -89 -41t-44 -114l-156 24q8 127 82 216t199 89q61 0 120.5 -28t97.5 -61t83.5 -61t83.5 -28q52 0 89 41.5t44 114.5l155 -25q-5 -128 -79 -217.5t-201 -89.5z" />
    <glyph glyph-name="exclamdown" unicode="&#xa1;" horiz-adv-x="602" 
d="M301 1034q59 0 100 -41.5t41 -99.5q0 -60 -40.5 -101.5t-100.5 -41.5q-57 0 -99 42t-42 101q0 57 42 99t99 42zM215 584h172l29 -973h-230z" />
    <glyph glyph-name="cent" unicode="&#xa2;" horiz-adv-x="1175" 
d="M899 369l180 -70q-44 -131 -145 -209.5t-242 -91.5v-207h-145v209q-87 13 -162 53t-133.5 104t-92.5 158.5t-34 206.5t34 205.5t93 157t134 103t161 52.5v205h145v-203q139 -13 237 -86t140 -186l-180 -72q-64 137 -197 160v-676q144 26 207 187zM334 522q0 -134 60 -221
t153 -115v668q-94 -26 -153.5 -112t-59.5 -220z" />
    <glyph glyph-name="sterling" unicode="&#xa3;" horiz-adv-x="1226" 
d="M1118 180v-180h-977v180h125q82 44 127 112.5t45 149.5q0 75 -61 185h-238v170h150q-43 101 -43 192q0 179 126 293.5t310 114.5q194 0 313 -113q123 -111 129 -287l-211 -4q-2 94 -65.5 153.5t-163.5 59.5q-102 0 -162.5 -59.5t-60.5 -157.5q0 -81 51 -192h379v-170
h-291q47 -96 47 -174q0 -83 -37 -155.5t-92 -117.5h600z" />
    <glyph glyph-name="yen" unicode="&#xa5;" horiz-adv-x="1292" 
d="M1077 381v-158h-325v-223h-211v223h-326v158h326v151h-326v158h307l-450 682h254l327 -510l328 510h242l-451 -682h305v-158h-325v-151h325z" />
    <glyph glyph-name="brokenbar" unicode="&#xa6;" horiz-adv-x="581" 
d="M391 778h-201v738h201v-738zM391 -287h-201v779h201v-779z" />
    <glyph glyph-name="section" unicode="&#xa7;" horiz-adv-x="1148" 
d="M475 453l154 -66q4 -1 12 -5t12 -5q90 14 142.5 58t52.5 110q0 53 -37.5 90.5t-116.5 71.5l-182 79q-90 -14 -143.5 -56.5t-53.5 -106.5q0 -55 39.5 -96t120.5 -74zM561 -311q-204 0 -334 106q-130 109 -133 332l191 18q2 -131 74.5 -208.5t205.5 -77.5q86 0 145.5 42.5
t59.5 114.5q0 32 -12.5 58.5t-29.5 44.5t-53.5 38.5t-64 33t-82.5 34.5l-153 66q-131 57 -194.5 132t-63.5 181q0 100 67 172.5t158 104.5q-127 97 -127 241q0 150 111.5 245t271.5 95q179 0 282 -99.5t103 -246.5q0 -6 -0.5 -11.5t-1 -8.5t-0.5 -4l-178 -21v25
q-1 96 -56.5 146t-148.5 50q-81 0 -135.5 -43t-54.5 -116q0 -34 12 -59t42 -47t60.5 -37.5t87.5 -39.5l150 -63q152 -65 220.5 -141.5t68.5 -190.5q0 -102 -62.5 -171.5t-155.5 -104.5q72 -50 103 -110t31 -142q0 -151 -118 -244.5t-286 -93.5z" />
    <glyph glyph-name="dieresis" unicode="&#xa8;" horiz-adv-x="876" 
d="M639 1198q-48 0 -82.5 34t-34.5 83t34.5 83t82.5 34q50 0 84.5 -34t34.5 -83t-34.5 -83t-84.5 -34zM238 1198q-50 0 -83.5 34t-33.5 83t33.5 83t83.5 34q49 0 82.5 -33.5t33.5 -83.5t-33.5 -83.5t-82.5 -33.5z" />
    <glyph glyph-name="copyright" unicode="&#xa9;" horiz-adv-x="1720" 
d="M860 -25q-202 0 -373.5 99.5t-271.5 271t-100 373.5q0 101 27 197t75 177.5t117 149.5t150.5 116t178 74.5t197.5 26.5q202 0 373 -99t271 -269.5t100 -372.5q0 -203 -100 -374t-271 -270.5t-373 -99.5zM860 123q122 0 231.5 47t188 127t124.5 190t46 232
q0 162 -78 298.5t-214 216t-298 79.5q-161 0 -297 -79.5t-214.5 -216t-78.5 -298.5t78.5 -299.5t214.5 -217t297 -79.5zM864 313q-155 0 -263.5 111.5t-108.5 300.5q0 183 108.5 291t263.5 108q123 0 214 -62.5t126 -172.5l-153 -49q-26 59 -74.5 95t-112.5 36
q-83 0 -144 -66.5t-61 -179.5q0 -122 60.5 -190t144.5 -68q140 0 193 166l160 -39q-31 -137 -125.5 -209t-227.5 -72z" />
    <glyph glyph-name="ordfeminine" unicode="&#xaa;" horiz-adv-x="817" 
d="M362 879q61 0 132 43l32 20v145l-131 -32q-74 -20 -105.5 -40.5t-31.5 -56.5t31.5 -57.5t72.5 -21.5zM532 815l-14 -10q-93 -68 -194 -68q-94 0 -168 56q-72 57 -72 151q0 86 60 137t192 84l190 49q-6 43 -43 67t-94 24q-111 0 -153 -86l-146 53q32 83 117.5 131.5
t193.5 48.5q137 0 218 -65t81 -185v-454h-168v67z" />
    <glyph glyph-name="guillemotleft" unicode="&#xab;" horiz-adv-x="1183" 
d="M592 178l-135 -117l-387 451l389 453l131 -115l-289 -334zM1079 178l-135 -117l-387 451l389 453l131 -115l-289 -334z" />
    <glyph glyph-name="registered" unicode="&#xae;" horiz-adv-x="1134" 
d="M567 549q-189 0 -320.5 131t-131.5 321q0 189 131.5 321t320.5 132t321 -131.5t132 -321.5q0 -189 -132 -320.5t-321 -131.5zM567 641q147 0 250 106t103 254q0 150 -103 255.5t-250 105.5t-249.5 -105.5t-102.5 -255.5q0 -149 102.5 -254.5t249.5 -105.5zM573 1149h-69
v-105h71q27 0 43.5 14t16.5 40q0 24 -17.5 37.5t-44.5 13.5zM774 772h-123l-102 186h-45v-186h-105v465h193q65 0 109 -38t44 -99q0 -46 -24 -79.5t-62 -47.5z" />
    <glyph glyph-name="overscore" unicode="&#xaf;" horiz-adv-x="727" 
d="M610 1233h-491v145h491v-145z" />
    <glyph glyph-name="degree" unicode="&#xb0;" horiz-adv-x="755" 
d="M379 893q-118 0 -203 82q-84 84 -84 199q0 114 84 198q87 84 203 84q117 0 201 -84t84 -198q0 -115 -84 -199q-82 -82 -201 -82zM379 1028q62 0 102.5 42t40.5 104t-40.5 103.5t-102.5 41.5t-102.5 -42t-40.5 -103t40.5 -103.5t102.5 -42.5z" />
    <glyph glyph-name="plusminus" unicode="&#xb1;" horiz-adv-x="1196" 
d="M1092 924v-181h-398v-348h-192v348h-398v181h398v338h192v-338h398zM1092 51h-988v180h988v-180z" />
    <glyph glyph-name="twosuperior" unicode="&#xb2;" horiz-adv-x="716" 
d="M655 758v-142h-604v113l350 340q44 44 62 74t18 61q0 45 -33 73t-88 28q-56 0 -90 -32.5t-34 -84.5h-168q0 116 82.5 188t211.5 72q128 0 209.5 -70.5t81.5 -171.5q0 -60 -24.5 -109t-93.5 -112l-246 -227h366z" />
    <glyph glyph-name="threesuperior" unicode="&#xb3;" horiz-adv-x="743" 
d="M360 604q-142 0 -228 68t-87 184h168q1 -54 41 -85.5t104 -31.5t104 32t40 87q0 57 -48.5 88t-121.5 31h-92v133h84q82 0 121.5 29.5t39.5 77.5q0 44 -33 70t-90 26q-56 0 -92.5 -30t-36.5 -77h-165q0 105 85 173.5t214 68.5q133 0 211.5 -63t78.5 -158
q0 -59 -35.5 -104.5t-95.5 -71.5q70 -26 110 -78t40 -125q0 -94 -82 -170q-80 -74 -234 -74z" />
    <glyph glyph-name="acute" unicode="&#xb4;" horiz-adv-x="548" 
d="M262 1157h-170v4l144 289h231v-4z" />
    <glyph glyph-name="paragraph" unicode="&#xb6;" horiz-adv-x="1230" 
d="M801 1268h-199v-1268h-186v725q-141 9 -240 111q-96 104 -96 241q0 149 106 252q108 105 273 105h710v-166h-180v-1268h-188v1268z" />
    <glyph glyph-name="middot" unicode="&#xb7;" horiz-adv-x="501" 
d="M252 510q-60 0 -100.5 41.5t-40.5 101.5q0 58 41 100t100 42q57 0 99 -42.5t42 -99.5q0 -59 -41.5 -101t-99.5 -42z" />
    <glyph glyph-name="cedilla" unicode="&#xb8;" horiz-adv-x="575" 
d="M246 -436q-89 0 -156 22l31 117q67 -25 121 -25q39 0 63.5 17.5t24.5 48.5q0 30 -27 48t-72 18q-16 0 -44.5 -4t-34.5 -5l51 236h121l-35 -125q78 -2 130 -45t52 -121q0 -89 -62 -135.5t-163 -46.5z" />
    <glyph glyph-name="onesuperior" unicode="&#xb9;" 
d="M420 616h-172v625l-203 -88l-12 158l284 123h103v-818z" />
    <glyph glyph-name="ordmasculine" unicode="&#xba;" horiz-adv-x="870" 
d="M434 733q-156 0 -260 98t-104 261q0 164 106 261t258 97q157 0 263 -96t106 -262q0 -162 -107 -260.5t-262 -98.5zM434 897q80 0 131 52.5t51 142.5q0 89 -52 141.5t-130 52.5t-129 -51.5t-51 -142.5q0 -90 51.5 -142.5t128.5 -52.5z" />
    <glyph glyph-name="guillemotright" unicode="&#xbb;" horiz-adv-x="1183" 
d="M104 848l136 117l387 -451l-389 -453l-132 115l289 334zM592 848l135 117l387 -451l-389 -453l-131 115l289 334z" />
    <glyph glyph-name="onequarter" unicode="&#xbc;" horiz-adv-x="1802" 
d="M424 -25l-145 105l989 1380l145 -104zM475 616h-172v625l-203 -88l-12 158l285 123h102v-818zM1716 332v-137h-135v-195h-160v195h-403v108l297 514h178l-287 -485h217v155h158v-155h135z" />
    <glyph glyph-name="onehalf" unicode="&#xbd;" horiz-adv-x="1832" 
d="M475 616h-172v625l-203 -88l-12 158l285 123h102v-818zM1714 141v-141h-604v113l350 340q44 44 62 74t18 61q0 45 -33 72.5t-88 27.5q-56 0 -90.5 -32.5t-34.5 -84.5h-168q0 116 83 188t212 72q128 0 209.5 -70t81.5 -171q0 -60 -25 -109t-94 -112l-245 -228h366z
M424 -25l-145 105l989 1380l145 -104z" />
    <glyph glyph-name="threequarters" unicode="&#xbe;" horiz-adv-x="1943" 
d="M418 604q-142 0 -228.5 68t-87.5 184h168q1 -53 41.5 -85t104.5 -32t103.5 32t39.5 87q0 57 -48.5 88t-121.5 31h-92v133h84q82 0 122 29.5t40 77.5q0 44 -33 70t-90 26q-56 0 -92.5 -30t-36.5 -77h-166q0 105 85 173.5t214 68.5q133 0 212 -63t79 -158
q0 -59 -35.5 -104.5t-95.5 -71.5q69 -25 109 -77.5t40 -125.5q0 -94 -82 -170q-80 -74 -233 -74zM565 -25l-145 105l989 1380l145 -104zM1858 332v-137h-136v-195h-159v195h-404v108l297 514h178l-286 -485h217v155h157v-155h136z" />
    <glyph glyph-name="questiondown" unicode="&#xbf;" horiz-adv-x="1048" 
d="M588 1034q57 0 99 -42t42 -99q0 -59 -41.5 -101t-99.5 -42q-60 0 -101 41.5t-41 101.5q0 58 41.5 99.5t100.5 41.5zM485 584h207v-80q0 -96 -14 -149.5t-44 -84t-91 -59.5l-68 -35q-85 -45 -126.5 -93.5t-41.5 -115.5q0 -80 64.5 -134t163.5 -54q103 0 171 60.5t74 166.5
l209 -16q-5 -124 -67.5 -216t-163 -138t-223.5 -46q-198 0 -324 105q-123 105 -123 270q0 126 65.5 206.5t190.5 143.5l76 39q37 20 51 46.5t14 86.5v97z" />
    <glyph glyph-name="Agrave" unicode="&#xc0;" horiz-adv-x="1351" 
d="M672 1217h-2l-183 -533h367zM1317 0h-234l-170 492h-483l-172 -492h-223l514 1434h254zM776 1567h-170l-205 288v5h232l143 -289v-4z" />
    <glyph glyph-name="Aacute" unicode="&#xc1;" horiz-adv-x="1351" 
d="M672 1217h-2l-183 -533h367zM1317 0h-234l-170 492h-483l-172 -492h-223l514 1434h254zM750 1567h-170v4l143 289h231v-5z" />
    <glyph glyph-name="Acircumflex" unicode="&#xc2;" horiz-adv-x="1351" 
d="M672 1217h-2l-183 -533h367zM1317 0h-234l-170 492h-483l-172 -492h-223l514 1434h254zM674 1688l-281 -148v162l285 162l280 -162v-162z" />
    <glyph glyph-name="Atilde" unicode="&#xc3;" horiz-adv-x="1351" 
d="M672 1217h-2l-183 -533h367zM1317 0h-234l-170 492h-483l-172 -492h-223l514 1434h254zM786 1587q-43 0 -84.5 20.5t-75.5 41t-57 20.5q-56 0 -67 -74l-123 21q2 86 53.5 143.5t130.5 57.5q42 0 83 -21t75 -42t59 -21q31 0 47.5 21t18.5 52l125 -18q-2 -87 -54 -144
t-131 -57z" />
    <glyph glyph-name="Adieresis" unicode="&#xc4;" horiz-adv-x="1351" 
d="M672 1217h-2l-183 -533h367zM1317 0h-234l-170 492h-483l-172 -492h-223l514 1434h254zM877 1608q-48 0 -82.5 33.5t-34.5 82.5t34.5 83t82.5 34q50 0 84 -34t34 -83t-34 -82.5t-84 -33.5zM475 1608q-50 0 -83.5 33.5t-33.5 82.5q0 50 34 83.5t83 33.5t83 -33.5t34 -83.5
q0 -49 -33.5 -82.5t-83.5 -33.5z" />
    <glyph glyph-name="Aring" unicode="&#xc5;" horiz-adv-x="1351" 
d="M672 1217h-2l-183 -533h367zM1317 0h-234l-170 492h-483l-172 -492h-223l514 1434h254zM676 1542q-75 0 -127.5 50.5t-52.5 125.5t52.5 126.5t127.5 51.5t127.5 -51.5t52.5 -126.5q0 -74 -53 -125t-127 -51zM676 1640q31 0 54.5 23t23.5 55t-23.5 56t-54.5 24
q-33 0 -55.5 -22.5t-22.5 -57.5q0 -32 23 -55t55 -23z" />
    <glyph glyph-name="AE" unicode="&#xc6;" horiz-adv-x="1896" 
d="M868 1239h-26l-260 -539h313zM1802 0h-872l-25 512h-416l-247 -512h-234l715 1434h1071v-195h-711l17 -334h645v-194h-635l27 -516h665v-195z" />
    <glyph glyph-name="Ccedilla" unicode="&#xc7;" horiz-adv-x="1454" 
d="M762 -20q-140 0 -263 54.5t-212.5 151t-141 235.5t-51.5 302q0 157 51.5 294t140.5 233.5t212 152t262 55.5q220 0 377 -106t223 -312l-211 -61q-35 110 -127 190q-96 84 -262 84q-128 0 -229 -72t-155 -192.5t-54 -265.5q0 -151 54.5 -273.5t156 -194t229.5 -71.5
q171 0 274 103q104 104 131 252l217 -39q-20 -123 -78.5 -222.5t-142 -164t-186.5 -99t-215 -34.5zM756 -436q-89 0 -156 22l31 117q67 -25 121 -25q39 0 63.5 17.5t24.5 48.5q0 30 -27 48t-72 18q-16 0 -44.5 -4t-34.5 -5l51 236h121l-35 -125q78 -2 130 -45t52 -121
q0 -89 -62 -135.5t-163 -46.5z" />
    <glyph glyph-name="Egrave" unicode="&#xc8;" horiz-adv-x="1230" 
d="M395 195h740v-195h-959v1434h952v-195h-733v-334h682v-194h-682v-516zM756 1567h-170l-205 288v5h231l144 -289v-4z" />
    <glyph glyph-name="Eacute" unicode="&#xc9;" horiz-adv-x="1230" 
d="M395 195h740v-195h-959v1434h952v-195h-733v-334h682v-194h-682v-516zM731 1567h-170v4l144 289h231v-5z" />
    <glyph glyph-name="Ecircumflex" unicode="&#xca;" horiz-adv-x="1230" 
d="M395 195h740v-195h-959v1434h952v-195h-733v-334h682v-194h-682v-516zM653 1688l-280 -148v162l284 162l281 -162v-162z" />
    <glyph glyph-name="Edieresis" unicode="&#xcb;" horiz-adv-x="1230" 
d="M395 195h740v-195h-959v1434h952v-195h-733v-334h682v-194h-682v-516zM856 1608q-48 0 -82.5 33.5t-34.5 82.5t34.5 83t82.5 34q50 0 84.5 -34t34.5 -83t-34.5 -82.5t-84.5 -33.5zM455 1608q-50 0 -83.5 33.5t-33.5 82.5q0 50 34 83.5t83 33.5t82.5 -33.5t33.5 -83.5
t-33.5 -83t-82.5 -33z" />
    <glyph glyph-name="Igrave" unicode="&#xcc;" horiz-adv-x="571" 
d="M395 0h-219v1434h219v-1434zM387 1567h-170l-205 288v5h232l143 -289v-4z" />
    <glyph glyph-name="Iacute" unicode="&#xcd;" horiz-adv-x="571" 
d="M395 0h-219v1434h219v-1434zM360 1567h-170v4l144 289h231v-5z" />
    <glyph glyph-name="Icircumflex" unicode="&#xce;" horiz-adv-x="571" 
d="M395 0h-219v1434h219v-1434zM285 1688l-281 -148v162l285 162l280 -162v-162z" />
    <glyph glyph-name="Idieresis" unicode="&#xcf;" horiz-adv-x="571" 
d="M395 0h-219v1434h219v-1434zM487 1608q-48 0 -82 33.5t-34 82.5t34 83t82 34q50 0 84.5 -34t34.5 -83t-34.5 -82.5t-84.5 -33.5zM86 1608q-50 0 -83.5 33.5t-33.5 82.5q0 50 33.5 83.5t83.5 33.5t83.5 -33.5t33.5 -83.5q0 -49 -33.5 -82.5t-83.5 -33.5z" />
    <glyph glyph-name="Eth" unicode="&#xd0;" horiz-adv-x="1478" 
d="M725 0h-485v672h-193v176h193v586h481q132 0 252 -50t211.5 -138.5t145.5 -221.5t54 -289q0 -168 -53.5 -308.5t-144.5 -232.5t-210 -143t-251 -51zM459 672v-477h262q89 0 168.5 38t139 107t94 171.5t34.5 223.5q0 148 -61 264.5t-161.5 178t-219.5 61.5h-256v-391h264
v-176h-264z" />
    <glyph glyph-name="Ntilde" unicode="&#xd1;" horiz-adv-x="1497" 
d="M1321 0h-211l-719 1053v-1053h-215v1434h211l721 -1061v1061h213v-1434zM860 1587q-43 0 -84.5 20.5t-75.5 41t-57 20.5q-57 0 -68 -74l-122 21q2 86 53.5 143.5t130.5 57.5q42 0 83 -21t75 -42t59 -21q31 0 47.5 21t18.5 52l124 -18q-2 -87 -53.5 -144t-130.5 -57z" />
    <glyph glyph-name="Ograve" unicode="&#xd2;" horiz-adv-x="1546" 
d="M772 -20q-143 0 -267.5 53.5t-215.5 149t-143 235.5t-52 305q0 157 51.5 294t141 233.5t215.5 152t270 55.5q194 0 349.5 -93.5t243 -261.5t87.5 -380q0 -164 -53 -304t-144.5 -235.5t-216.5 -149.5t-266 -54zM772 184q200 0 326.5 153t126.5 386q0 146 -55.5 266
t-159.5 192t-238 72q-133 0 -236.5 -71t-158.5 -191.5t-55 -267.5q0 -152 56 -274.5t159.5 -193.5t234.5 -71zM872 1567h-170l-204 288v5h231l143 -289v-4z" />
    <glyph glyph-name="Oacute" unicode="&#xd3;" horiz-adv-x="1546" 
d="M772 -20q-143 0 -267.5 53.5t-215.5 149t-143 235.5t-52 305q0 157 51.5 294t141 233.5t215.5 152t270 55.5q194 0 349.5 -93.5t243 -261.5t87.5 -380q0 -164 -53 -304t-144.5 -235.5t-216.5 -149.5t-266 -54zM772 184q200 0 326.5 153t126.5 386q0 146 -55.5 266
t-159.5 192t-238 72q-133 0 -236.5 -71t-158.5 -191.5t-55 -267.5q0 -152 56 -274.5t159.5 -193.5t234.5 -71zM848 1567h-170v4l143 289h232v-5z" />
    <glyph glyph-name="Ocircumflex" unicode="&#xd4;" horiz-adv-x="1546" 
d="M772 -20q-143 0 -267.5 53.5t-215.5 149t-143 235.5t-52 305q0 157 51.5 294t141 233.5t215.5 152t270 55.5q194 0 349.5 -93.5t243 -261.5t87.5 -380q0 -164 -53 -304t-144.5 -235.5t-216.5 -149.5t-266 -54zM772 184q200 0 326.5 153t126.5 386q0 146 -55.5 266
t-159.5 192t-238 72q-133 0 -236.5 -71t-158.5 -191.5t-55 -267.5q0 -152 56 -274.5t159.5 -193.5t234.5 -71zM770 1688l-281 -148v162l285 162l281 -162v-162z" />
    <glyph glyph-name="Otilde" unicode="&#xd5;" horiz-adv-x="1546" 
d="M772 -20q-143 0 -267.5 53.5t-215.5 149t-143 235.5t-52 305q0 157 51.5 294t141 233.5t215.5 152t270 55.5q194 0 349.5 -93.5t243 -261.5t87.5 -380q0 -164 -53 -304t-144.5 -235.5t-216.5 -149.5t-266 -54zM772 184q200 0 326.5 153t126.5 386q0 146 -55.5 266
t-159.5 192t-238 72q-133 0 -236.5 -71t-158.5 -191.5t-55 -267.5q0 -152 56 -274.5t159.5 -193.5t234.5 -71zM885 1587q-43 0 -84.5 20.5t-75.5 41t-57 20.5q-57 0 -68 -74l-123 21q2 86 54 143.5t131 57.5q42 0 83 -21t75 -42t59 -21q30 0 46.5 20.5t18.5 52.5l125 -18
q-2 -87 -53.5 -144t-130.5 -57z" />
    <glyph glyph-name="Odieresis" unicode="&#xd6;" horiz-adv-x="1546" 
d="M772 -20q-143 0 -267.5 53.5t-215.5 149t-143 235.5t-52 305q0 157 51.5 294t141 233.5t215.5 152t270 55.5q194 0 349.5 -93.5t243 -261.5t87.5 -380q0 -164 -53 -304t-144.5 -235.5t-216.5 -149.5t-266 -54zM772 184q200 0 326.5 153t126.5 386q0 146 -55.5 266
t-159.5 192t-238 72q-133 0 -236.5 -71t-158.5 -191.5t-55 -267.5q0 -152 56 -274.5t159.5 -193.5t234.5 -71zM973 1608q-48 0 -82.5 33.5t-34.5 82.5t34.5 83t82.5 34q50 0 84.5 -34t34.5 -83t-34.5 -82.5t-84.5 -33.5zM571 1608q-49 0 -82.5 33t-33.5 83t33.5 83.5
t82.5 33.5t83 -33.5t34 -83.5q0 -49 -33.5 -82.5t-83.5 -33.5z" />
    <glyph glyph-name="multiply" unicode="&#xd7;" horiz-adv-x="1187" 
d="M1016 416l-135 -137l-291 290l-287 -286l-129 131l285 284l-289 289l135 135l291 -288l287 286l127 -131l-285 -284z" />
    <glyph glyph-name="Oslash" unicode="&#xd8;" horiz-adv-x="1546" 
d="M322 723q0 -219 114 -371l553 842q-89 59 -217 59q-133 0 -236.5 -71t-158.5 -191.5t-55 -267.5zM772 184q200 0 326.5 153t126.5 386q0 216 -113 360l-553 -841q98 -58 213 -58zM772 -20q-184 0 -332 83l-108 -165h-195l174 264q-102 99 -159.5 243t-57.5 318
q0 157 51.5 294t141 233.5t215.5 152t270 55.5q183 0 336 -86l106 164h195l-172 -262q102 -100 158.5 -242t56.5 -309q0 -164 -53 -304t-144.5 -235.5t-216.5 -149.5t-266 -54z" />
    <glyph glyph-name="Ugrave" unicode="&#xd9;" horiz-adv-x="1404" 
d="M702 -20q-245 0 -394.5 144.5t-149.5 405.5v904h219v-897q0 -164 88.5 -258.5t236.5 -94.5q149 0 237.5 94t88.5 257v899h219v-902q0 -262 -151 -407t-394 -145zM803 1567h-170l-205 288v5h231l144 -289v-4z" />
    <glyph glyph-name="Uacute" unicode="&#xda;" horiz-adv-x="1404" 
d="M702 -20q-245 0 -394.5 144.5t-149.5 405.5v904h219v-897q0 -164 88.5 -258.5t236.5 -94.5q149 0 237.5 94t88.5 257v899h219v-902q0 -262 -151 -407t-394 -145zM776 1567h-170v4l144 289h231v-5z" />
    <glyph glyph-name="Ucircumflex" unicode="&#xdb;" horiz-adv-x="1404" 
d="M702 -20q-245 0 -394.5 144.5t-149.5 405.5v904h219v-897q0 -164 88.5 -258.5t236.5 -94.5q149 0 237.5 94t88.5 257v899h219v-902q0 -262 -151 -407t-394 -145zM700 1688l-280 -148v162l285 162l280 -162v-162z" />
    <glyph glyph-name="Udieresis" unicode="&#xdc;" horiz-adv-x="1404" 
d="M702 -20q-245 0 -394.5 144.5t-149.5 405.5v904h219v-897q0 -164 88.5 -258.5t236.5 -94.5q149 0 237.5 94t88.5 257v899h219v-902q0 -262 -151 -407t-394 -145zM903 1608q-48 0 -82.5 33.5t-34.5 82.5t34.5 83t82.5 34q50 0 84.5 -34t34.5 -83t-34.5 -82.5t-84.5 -33.5z
M502 1608q-50 0 -83.5 33.5t-33.5 82.5q0 50 33.5 83.5t83.5 33.5q49 0 82.5 -33.5t33.5 -83.5t-33 -83t-83 -33z" />
    <glyph glyph-name="Yacute" unicode="&#xdd;" horiz-adv-x="1171" 
d="M694 719v-719h-219v721l-467 713h260l324 -508l323 508h248zM659 1565h-170v4l144 289h231v-5z" />
    <glyph glyph-name="Thorn" unicode="&#xde;" horiz-adv-x="1196" 
d="M692 969h-297v-406h299q103 0 162 55t59 148q0 92 -61.5 147.5t-161.5 55.5zM709 369h-314v-369h-219v1434h219v-271h322q185 0 305 -102q121 -103 121 -293q0 -97 -33.5 -173.5t-93 -125.5t-137.5 -74.5t-170 -25.5z" />
    <glyph glyph-name="germandbls" unicode="&#xdf;" horiz-adv-x="1198" 
d="M655 -12q-93 0 -163 24l45 174q63 -18 110 -18q94 0 168 65t74 193q0 129 -87 204t-231 75h-47v167h51q119 0 184.5 55.5t65.5 159.5q0 92 -63.5 151.5t-163.5 59.5t-161.5 -67.5t-61.5 -192.5v-1038h-209v1038q0 196 119 318q120 123 315 123q101 0 184.5 -32t136.5 -86
t82 -122t29 -143q0 -95 -46 -172t-130 -121q111 -46 178.5 -143.5t67.5 -233.5q0 -84 -23.5 -155.5t-65 -123t-98 -88t-122.5 -54t-138 -17.5z" />
    <glyph glyph-name="agrave" unicode="&#xe0;" horiz-adv-x="1085" 
d="M469 156q51 0 96.5 19.5t116.5 66.5l47 32v256l-201 -53q-124 -34 -176.5 -71t-52.5 -103q0 -69 51.5 -108t118.5 -39zM731 104l-14 -12q-131 -108 -285 -108q-65 0 -125.5 21t-108.5 59t-77 98t-29 131q0 127 86.5 203.5t274.5 124.5l276 71q-6 78 -64.5 121t-148.5 43
q-84 0 -145 -37.5t-92 -105.5l-177 73q49 119 165.5 183.5t262.5 64.5q173 0 289 -90q115 -89 115 -274v-670h-201zM635 1157h-170l-205 289v4h232l143 -289v-4z" />
    <glyph glyph-name="aacute" unicode="&#xe1;" horiz-adv-x="1085" 
d="M469 156q51 0 96.5 19.5t116.5 66.5l47 32v256l-201 -53q-124 -34 -176.5 -71t-52.5 -103q0 -69 51.5 -108t118.5 -39zM731 104l-14 -12q-131 -108 -285 -108q-65 0 -125.5 21t-108.5 59t-77 98t-29 131q0 127 86.5 203.5t274.5 124.5l276 71q-6 78 -64.5 121t-148.5 43
q-84 0 -145 -37.5t-92 -105.5l-177 73q49 119 165.5 183.5t262.5 64.5q173 0 289 -90q115 -89 115 -274v-670h-201zM610 1157h-170v4l144 289h231v-4z" />
    <glyph glyph-name="acircumflex" unicode="&#xe2;" horiz-adv-x="1085" 
d="M469 156q51 0 96.5 19.5t116.5 66.5l47 32v256l-201 -53q-124 -34 -176.5 -71t-52.5 -103q0 -69 51.5 -108t118.5 -39zM731 104l-14 -12q-131 -108 -285 -108q-65 0 -125.5 21t-108.5 59t-77 98t-29 131q0 127 86.5 203.5t274.5 124.5l276 71q-6 78 -64.5 121t-148.5 43
q-84 0 -145 -37.5t-92 -105.5l-177 73q49 119 165.5 183.5t262.5 64.5q173 0 289 -90q115 -89 115 -274v-670h-201zM532 1300l-258 -141v162l265 156l260 -156v-162z" />
    <glyph glyph-name="atilde" unicode="&#xe3;" horiz-adv-x="1085" 
d="M469 156q51 0 96.5 19.5t116.5 66.5l47 32v256l-201 -53q-124 -34 -176.5 -71t-52.5 -103q0 -69 51.5 -108t118.5 -39zM731 104l-14 -12q-131 -108 -285 -108q-65 0 -125.5 21t-108.5 59t-77 98t-29 131q0 127 86.5 203.5t274.5 124.5l276 71q-6 78 -64.5 121t-148.5 43
q-84 0 -145 -37.5t-92 -105.5l-177 73q49 119 165.5 183.5t262.5 64.5q173 0 289 -90q115 -89 115 -274v-670h-201zM647 1178q-43 0 -84.5 20.5t-75.5 41t-57 20.5q-57 0 -68 -74l-122 20q2 86 53.5 143.5t130.5 57.5q42 0 83 -21t75 -42t59 -21q31 0 47.5 21t18.5 53
l124 -19q-2 -87 -53.5 -143.5t-130.5 -56.5z" />
    <glyph glyph-name="adieresis" unicode="&#xe4;" horiz-adv-x="1085" 
d="M469 156q51 0 96.5 19.5t116.5 66.5l47 32v256l-201 -53q-124 -34 -176.5 -71t-52.5 -103q0 -69 51.5 -108t118.5 -39zM731 104l-14 -12q-131 -108 -285 -108q-65 0 -125.5 21t-108.5 59t-77 98t-29 131q0 127 86.5 203.5t274.5 124.5l276 71q-6 78 -64.5 121t-148.5 43
q-84 0 -145 -37.5t-92 -105.5l-177 73q49 119 165.5 183.5t262.5 64.5q173 0 289 -90q115 -89 115 -274v-670h-201zM735 1198q-48 0 -82.5 34t-34.5 83t34.5 83t82.5 34q50 0 84.5 -34t34.5 -83t-34.5 -83t-84.5 -34zM334 1198q-50 0 -83.5 34t-33.5 83t33.5 83t83.5 34
t83.5 -34t33.5 -83t-33.5 -83t-83.5 -34z" />
    <glyph glyph-name="aring" unicode="&#xe5;" horiz-adv-x="1085" 
d="M469 156q51 0 96.5 19.5t116.5 66.5l47 32v256l-201 -53q-124 -34 -176.5 -71t-52.5 -103q0 -69 51.5 -108t118.5 -39zM731 104l-14 -12q-131 -108 -285 -108q-65 0 -125.5 21t-108.5 59t-77 98t-29 131q0 127 86.5 203.5t274.5 124.5l276 71q-6 78 -64.5 121t-148.5 43
q-84 0 -145 -37.5t-92 -105.5l-177 73q49 119 165.5 183.5t262.5 64.5q173 0 289 -90q115 -89 115 -274v-670h-201zM537 1133q-75 0 -128 50.5t-53 125.5t53 126.5t128 51.5t127.5 -51.5t52.5 -126.5q0 -74 -53 -125t-127 -51zM537 1231q31 0 54 23t23 55t-23 56t-54 24
q-33 0 -55.5 -22.5t-22.5 -57.5q0 -32 23 -55t55 -23z" />
    <glyph glyph-name="ae" unicode="&#xe6;" horiz-adv-x="1748" 
d="M1202 862q-105 0 -180.5 -63t-85.5 -176h520q-11 116 -82.5 177.5t-171.5 61.5zM467 156q103 0 225 86l70 47q-39 103 -39 223v14l-195 -51q-123 -32 -176 -69.5t-53 -102.5q0 -70 50 -108.5t118 -38.5zM1509 309l148 -104q-57 -104 -172 -163.5t-262 -59.5
q-113 0 -213 43.5t-168 124.5l-74 -52q-164 -114 -340 -114q-64 0 -124 21t-107.5 59t-76 98t-28.5 131q0 126 86.5 201.5t274.5 123.5l274 72q-6 80 -63.5 123t-147.5 43q-84 0 -145 -37.5t-92 -105.5l-177 73q49 119 165.5 183.5t262.5 64.5q106 0 191.5 -38t136.5 -107
q139 145 348 145q201 0 324.5 -127.5t134.5 -343.5q4 -82 4 -96h-737q3 -145 90 -229q90 -84 209 -84q88 0 162 40.5t116 114.5z" />
    <glyph glyph-name="ccedilla" unicode="&#xe7;" horiz-adv-x="1071" 
d="M567 -20q-95 0 -181 35.5t-154 100.5t-108 167t-40 225q0 99 26.5 184.5t73 147t108 106t132 66.5t145.5 22q162 0 276 -77t159 -209l-185 -74q-70 172 -248 172q-113 0 -194.5 -89.5t-81.5 -248.5t81.5 -249.5t194.5 -90.5q93 0 159 52t99 147l185 -74
q-49 -152 -167 -232.5t-280 -80.5zM565 -436q-88 0 -155 22l30 117q67 -25 121 -25q39 0 63.5 17.5t24.5 48.5t-26.5 48.5t-71.5 17.5q-16 0 -45 -4t-35 -5l51 236h121l-35 -125q78 -2 130.5 -45t52.5 -121q0 -89 -62.5 -135.5t-163.5 -46.5z" />
    <glyph glyph-name="egrave" unicode="&#xe8;" horiz-adv-x="1110" 
d="M563 862q-105 0 -180.5 -63t-85.5 -176h520q-11 116 -82.5 177.5t-171.5 61.5zM870 309l148 -104q-57 -104 -172 -163.5t-262 -59.5q-214 0 -357 143t-143 387q0 117 37.5 215.5t102.5 165.5t153.5 104t189.5 37q201 0 324.5 -127.5t134.5 -343.5q4 -82 4 -96h-737
q3 -145 90 -229q90 -84 209 -84q88 0 162 40.5t116 114.5zM668 1157h-170l-205 289v4h231l144 -289v-4z" />
    <glyph glyph-name="eacute" unicode="&#xe9;" horiz-adv-x="1110" 
d="M563 862q-105 0 -180.5 -63t-85.5 -176h520q-11 116 -82.5 177.5t-171.5 61.5zM870 309l148 -104q-57 -104 -172 -163.5t-262 -59.5q-214 0 -357 143t-143 387q0 117 37.5 215.5t102.5 165.5t153.5 104t189.5 37q201 0 324.5 -127.5t134.5 -343.5q4 -82 4 -96h-737
q3 -145 90 -229q90 -84 209 -84q88 0 162 40.5t116 114.5zM641 1157h-170v4l143 289h232v-4z" />
    <glyph glyph-name="ecircumflex" unicode="&#xea;" horiz-adv-x="1110" 
d="M563 862q-105 0 -180.5 -63t-85.5 -176h520q-11 116 -82.5 177.5t-171.5 61.5zM870 309l148 -104q-57 -104 -172 -163.5t-262 -59.5q-214 0 -357 143t-143 387q0 117 37.5 215.5t102.5 165.5t153.5 104t189.5 37q201 0 324.5 -127.5t134.5 -343.5q4 -82 4 -96h-737
q3 -145 90 -229q90 -84 209 -84q88 0 162 40.5t116 114.5zM563 1300l-258 -141v162l264 156l260 -156v-162z" />
    <glyph glyph-name="edieresis" unicode="&#xeb;" horiz-adv-x="1110" 
d="M563 862q-105 0 -180.5 -63t-85.5 -176h520q-11 116 -82.5 177.5t-171.5 61.5zM870 309l148 -104q-57 -104 -172 -163.5t-262 -59.5q-214 0 -357 143t-143 387q0 117 37.5 215.5t102.5 165.5t153.5 104t189.5 37q201 0 324.5 -127.5t134.5 -343.5q4 -82 4 -96h-737
q3 -145 90 -229q90 -84 209 -84q88 0 162 40.5t116 114.5zM766 1198q-48 0 -82.5 34t-34.5 83t34.5 83t82.5 34q50 0 84.5 -34t34.5 -83t-34.5 -83t-84.5 -34zM365 1198q-49 0 -83 34t-34 83t34 83t83 34t82.5 -33.5t33.5 -83.5t-33.5 -83.5t-82.5 -33.5z" />
    <glyph glyph-name="igrave" unicode="&#xec;" 
d="M375 0h-209v1008h209v-1008zM371 1157h-170l-205 289v4h231l144 -289v-4z" />
    <glyph glyph-name="iacute" unicode="&#xed;" 
d="M375 0h-209v1008h209v-1008zM344 1157h-170v4l143 289h232v-4z" />
    <glyph glyph-name="icircumflex" unicode="&#xee;" 
d="M375 0h-209v1008h209v-1008zM266 1300l-258 -141v162l264 156l260 -156v-162z" />
    <glyph glyph-name="idieresis" unicode="&#xef;" 
d="M375 0h-209v1008h209v-1008zM428 1217q-44 0 -74 30t-30 74q0 43 30 72.5t74 29.5q43 0 72.5 -29.5t29.5 -72.5q0 -44 -29.5 -74t-72.5 -30zM113 1217q-43 0 -73 30t-30 74q0 43 30 72.5t73 29.5q44 0 74 -29.5t30 -72.5q0 -44 -30 -74t-74 -30z" />
    <glyph glyph-name="eth" unicode="&#xf0;" horiz-adv-x="1155" 
d="M575 -20q-211 0 -351 146t-140 374q0 112 37.5 209t101.5 163.5t150.5 104t181.5 37.5q107 0 201 -58q-52 93 -127 174q-7 9 -68 70l-258 -119l-51 115l209 96q-104 90 -223 178h282l117 -98l209 94l51 -114l-160 -74q96 -100 154 -191q92 -144 135 -274t43 -299
q0 -232 -135.5 -383t-358.5 -151zM575 168q124 0 202.5 89.5t78.5 242.5q0 150 -80.5 239.5t-200.5 89.5q-121 0 -199.5 -87.5t-78.5 -241.5q0 -151 79 -241.5t199 -90.5z" />
    <glyph glyph-name="ntilde" unicode="&#xf1;" horiz-adv-x="1191" 
d="M618 844q-80 0 -145.5 -50t-97.5 -137v-657h-209v1008h209v-131q98 155 299 155q167 0 266.5 -104t99.5 -305v-623h-206v594q0 125 -57 187.5t-159 62.5zM735 1178q-43 0 -84.5 20.5t-75.5 41t-57 20.5q-56 0 -67 -74l-123 20q2 86 53.5 143.5t130.5 57.5q42 0 83 -21
t75 -42t59 -21q31 0 47.5 21t18.5 53l125 -19q-2 -87 -54 -143.5t-131 -56.5z" />
    <glyph glyph-name="ograve" unicode="&#xf2;" horiz-adv-x="1155" 
d="M578 -20q-211 0 -352.5 146.5t-141.5 381.5q0 119 39 218.5t106.5 166.5t157.5 104t191 37q211 0 353 -144.5t142 -381.5q0 -117 -39 -216.5t-106 -167.5t-158 -106t-192 -38zM578 166q124 0 203 92.5t79 249.5q0 155 -80.5 246.5t-201.5 91.5q-123 0 -203 -90.5
t-80 -247.5q0 -156 80.5 -249t202.5 -93zM678 1157h-170l-205 289v4h232l143 -289v-4z" />
    <glyph glyph-name="oacute" unicode="&#xf3;" horiz-adv-x="1155" 
d="M578 -20q-211 0 -352.5 146.5t-141.5 381.5q0 119 39 218.5t106.5 166.5t157.5 104t191 37q211 0 353 -144.5t142 -381.5q0 -117 -39 -216.5t-106 -167.5t-158 -106t-192 -38zM578 166q124 0 203 92.5t79 249.5q0 155 -80.5 246.5t-201.5 91.5q-123 0 -203 -90.5
t-80 -247.5q0 -156 80.5 -249t202.5 -93zM651 1157h-170v4l144 289h231v-4z" />
    <glyph glyph-name="ocircumflex" unicode="&#xf4;" horiz-adv-x="1155" 
d="M578 -20q-211 0 -352.5 146.5t-141.5 381.5q0 119 39 218.5t106.5 166.5t157.5 104t191 37q211 0 353 -144.5t142 -381.5q0 -117 -39 -216.5t-106 -167.5t-158 -106t-192 -38zM578 166q124 0 203 92.5t79 249.5q0 155 -80.5 246.5t-201.5 91.5q-123 0 -203 -90.5
t-80 -247.5q0 -156 80.5 -249t202.5 -93zM573 1300l-258 -141v162l265 156l260 -156v-162z" />
    <glyph glyph-name="otilde" unicode="&#xf5;" horiz-adv-x="1155" 
d="M578 -20q-211 0 -352.5 146.5t-141.5 381.5q0 119 39 218.5t106.5 166.5t157.5 104t191 37q211 0 353 -144.5t142 -381.5q0 -117 -39 -216.5t-106 -167.5t-158 -106t-192 -38zM578 166q124 0 203 92.5t79 249.5q0 155 -80.5 246.5t-201.5 91.5q-123 0 -203 -90.5
t-80 -247.5q0 -156 80.5 -249t202.5 -93zM690 1178q-43 0 -84.5 20.5t-75.5 41t-57 20.5q-56 0 -67 -74l-123 20q2 86 53.5 143.5t130.5 57.5q42 0 83 -21t75 -42t59 -21q31 0 47.5 21t18.5 53l124 -19q-2 -87 -53.5 -143.5t-130.5 -56.5z" />
    <glyph glyph-name="odieresis" unicode="&#xf6;" horiz-adv-x="1155" 
d="M578 -20q-211 0 -352.5 146.5t-141.5 381.5q0 119 39 218.5t106.5 166.5t157.5 104t191 37q211 0 353 -144.5t142 -381.5q0 -117 -39 -216.5t-106 -167.5t-158 -106t-192 -38zM578 166q124 0 203 92.5t79 249.5q0 155 -80.5 246.5t-201.5 91.5q-123 0 -203 -90.5
t-80 -247.5q0 -156 80.5 -249t202.5 -93zM778 1198q-48 0 -82 34t-34 83t34 83t82 34q50 0 84.5 -34t34.5 -83t-34.5 -83t-84.5 -34zM377 1198q-49 0 -83 34t-34 83t34 83t83 34t83 -34t34 -83t-34 -83t-83 -34z" />
    <glyph glyph-name="divide" unicode="&#xf7;" horiz-adv-x="1196" 
d="M598 983q-60 0 -100.5 41.5t-40.5 101.5q0 58 41 100t100 42q57 0 99 -42.5t42 -99.5q0 -60 -41.5 -101.5t-99.5 -41.5zM598 143q-60 0 -100.5 42t-40.5 102q0 58 41 99.5t100 41.5q57 0 99 -42t42 -99q0 -60 -42 -102t-99 -42zM1092 614h-988v181h988v-181z" />
    <glyph glyph-name="oslash" unicode="&#xf8;" horiz-adv-x="1155" 
d="M295 508q0 -137 63 -229l336 542q-55 25 -116 25q-123 0 -203 -90.5t-80 -247.5zM578 166q124 0 203 92.5t79 249.5q0 137 -61 223l-336 -541q53 -24 115 -24zM578 -20q-116 0 -216 47l-79 -129h-160l127 204q-77 71 -121.5 175.5t-44.5 230.5q0 119 39 218.5
t106.5 166.5t157.5 104t191 37q119 0 219 -47l75 123h160l-123 -199q77 -71 120.5 -174t43.5 -229q0 -117 -39 -216.5t-106 -167.5t-158 -106t-192 -38z" />
    <glyph glyph-name="ugrave" unicode="&#xf9;" horiz-adv-x="1179" 
d="M1014 0h-209v131q-48 -68 -123 -109.5t-172 -41.5q-161 0 -259.5 100t-98.5 293v635h206v-605q0 -118 57.5 -176.5t153.5 -58.5q75 0 139.5 49t96.5 133v658h209v-1008zM684 1157h-170l-205 289v4h232l143 -289v-4z" />
    <glyph glyph-name="uacute" unicode="&#xfa;" horiz-adv-x="1179" 
d="M1014 0h-209v131q-48 -68 -123 -109.5t-172 -41.5q-161 0 -259.5 100t-98.5 293v635h206v-605q0 -118 57.5 -176.5t153.5 -58.5q75 0 139.5 49t96.5 133v658h209v-1008zM657 1157h-170v4l144 289h231v-4z" />
    <glyph glyph-name="ucircumflex" unicode="&#xfb;" horiz-adv-x="1179" 
d="M1014 0h-209v131q-48 -68 -123 -109.5t-172 -41.5q-161 0 -259.5 100t-98.5 293v635h206v-605q0 -118 57.5 -176.5t153.5 -58.5q75 0 139.5 49t96.5 133v658h209v-1008zM580 1300l-258 -141v162l264 156l260 -156v-162z" />
    <glyph glyph-name="udieresis" unicode="&#xfc;" horiz-adv-x="1179" 
d="M1014 0h-209v131q-48 -68 -123 -109.5t-172 -41.5q-161 0 -259.5 100t-98.5 293v635h206v-605q0 -118 57.5 -176.5t153.5 -58.5q75 0 139.5 49t96.5 133v658h209v-1008zM782 1198q-48 0 -82 34t-34 83t34 83t82 34q50 0 84.5 -34t34.5 -83t-34.5 -83t-84.5 -34zM381 1198
q-49 0 -83 34t-34 83t34 83t83 34t83 -34t34 -83t-34 -83t-83 -34z" />
    <glyph glyph-name="yacute" unicode="&#xfd;" horiz-adv-x="958" 
d="M944 1008l-598 -1397h-209l242 563l-363 834h217l254 -607l246 607h211zM559 1157h-170v4l143 289h232v-4z" />
    <glyph glyph-name="thorn" unicode="&#xfe;" horiz-adv-x="1208" 
d="M643 170q114 0 189 90.5t75 247.5q0 156 -75 246t-191 90q-100 0 -184 -72q-79 -70 -82 -213v-104q1 -134 77.5 -209.5t190.5 -75.5zM670 -20q-186 0 -295 122v-491h-209v1859h209v-559q111 121 293 121q196 0 324 -143.5t128 -380.5q0 -236 -128 -382t-322 -146z" />
    <glyph glyph-name="ydieresis" unicode="&#xff;" horiz-adv-x="958" 
d="M944 1008l-598 -1397h-209l242 563l-363 834h217l254 -607l246 607h211zM684 1198q-48 0 -82.5 34t-34.5 83t34.5 83t82.5 34q50 0 84.5 -34t34.5 -83t-34.5 -83t-84.5 -34zM283 1198q-49 0 -83 34t-34 83t34 83t83 34t82.5 -33.5t33.5 -83.5t-33.5 -83.5t-82.5 -33.5z
" />
    <glyph glyph-name="Amacron" unicode="&#x100;" horiz-adv-x="1351" 
d="M672 1217h-2l-183 -533h367zM1317 0h-234l-170 492h-483l-172 -492h-223l514 1434h254zM922 1642h-492v146h492v-146z" />
    <glyph glyph-name="amacron" unicode="&#x101;" horiz-adv-x="1085" 
d="M469 156q51 0 96.5 19.5t116.5 66.5l47 32v256l-201 -53q-124 -34 -176.5 -71t-52.5 -103q0 -69 51.5 -108t118.5 -39zM731 104l-14 -12q-131 -108 -285 -108q-65 0 -125.5 21t-108.5 59t-77 98t-29 131q0 127 86.5 203.5t274.5 124.5l276 71q-6 78 -64.5 121t-148.5 43
q-84 0 -145 -37.5t-92 -105.5l-177 73q49 119 165.5 183.5t262.5 64.5q173 0 289 -90q115 -89 115 -274v-670h-201zM776 1233h-481v143h481v-143z" />
    <glyph glyph-name="Abreve" unicode="&#x102;" horiz-adv-x="1351" 
d="M672 1217h-2l-183 -533h367zM1317 0h-234l-170 492h-483l-172 -492h-223l514 1434h254zM676 1575q-136 0 -220 73t-85 195h151q0 -57 40.5 -92t113.5 -35t113 35t42 92h152q-1 -122 -88 -195t-219 -73z" />
    <glyph glyph-name="abreve" unicode="&#x103;" horiz-adv-x="1085" 
d="M469 156q51 0 96.5 19.5t116.5 66.5l47 32v256l-201 -53q-124 -34 -176.5 -71t-52.5 -103q0 -69 51.5 -108t118.5 -39zM731 104l-14 -12q-131 -108 -285 -108q-65 0 -125.5 21t-108.5 59t-77 98t-29 131q0 127 86.5 203.5t274.5 124.5l276 71q-6 78 -64.5 121t-148.5 43
q-84 0 -145 -37.5t-92 -105.5l-177 73q49 119 165.5 183.5t262.5 64.5q173 0 289 -90q115 -89 115 -274v-670h-201zM535 1169q-117 0 -192.5 72.5t-76.5 192.5h150q0 -57 31.5 -91t87.5 -34t88 34.5t32 90.5h150q-1 -120 -78.5 -192.5t-191.5 -72.5z" />
    <glyph glyph-name="Aogonek" unicode="&#x104;" horiz-adv-x="1351" 
d="M672 1217h-2l-183 -533h367zM1317 0h-234l-170 492h-483l-172 -492h-223l514 1434h254zM1163 -414q-85 0 -145 44.5t-60 127.5q0 89 64 162t182 139l113 -59q-81 -36 -138 -91t-57 -114q0 -34 20 -49.5t50 -15.5q51 0 90 39l78 -103q-36 -37 -88 -58.5t-109 -21.5z" />
    <glyph glyph-name="aogonek" unicode="&#x105;" horiz-adv-x="1085" 
d="M469 156q51 0 96.5 19.5t116.5 66.5l47 32v256l-201 -53q-124 -34 -176.5 -71t-52.5 -103q0 -69 51.5 -108t118.5 -39zM731 104l-14 -12q-131 -108 -285 -108q-65 0 -125.5 21t-108.5 59t-77 98t-29 131q0 127 86.5 203.5t274.5 124.5l276 71q-6 78 -64.5 121t-148.5 43
q-84 0 -145 -37.5t-92 -105.5l-177 73q49 119 165.5 183.5t262.5 64.5q173 0 289 -90q115 -89 115 -274v-670h-201zM780 -414q-85 0 -145 44.5t-60 127.5q0 89 64 162t182 139l113 -59q-81 -36 -138 -91t-57 -114q0 -34 20 -49.5t50 -15.5q51 0 90 39l78 -103
q-36 -37 -88 -58.5t-109 -21.5z" />
    <glyph glyph-name="Cacute" unicode="&#x106;" horiz-adv-x="1454" 
d="M762 -20q-140 0 -263 54.5t-212.5 151t-141 235.5t-51.5 302q0 157 51.5 294t140.5 233.5t212 152t262 55.5q220 0 377 -106t223 -312l-211 -61q-35 110 -127 190q-96 84 -262 84q-128 0 -229 -72t-155 -192.5t-54 -265.5q0 -151 54.5 -273.5t156 -194t229.5 -71.5
q171 0 274 103q104 104 131 252l217 -39q-20 -123 -78.5 -222.5t-142 -164t-186.5 -99t-215 -34.5zM836 1567h-170v4l143 289h231v-5z" />
    <glyph glyph-name="cacute" unicode="&#x107;" horiz-adv-x="1071" 
d="M567 -20q-95 0 -181 35.5t-154 100.5t-108 167t-40 225q0 99 26.5 184.5t73 147t108 106t132 66.5t145.5 22q162 0 276 -77t159 -209l-185 -74q-70 172 -248 172q-113 0 -194.5 -89.5t-81.5 -248.5t81.5 -249.5t194.5 -90.5q93 0 159 52t99 147l185 -74
q-49 -152 -167 -232.5t-280 -80.5zM643 1157h-170v4l143 289h232v-4z" />
    <glyph glyph-name="Ccircumflex" unicode="&#x108;" horiz-adv-x="1454" 
d="M762 -20q-140 0 -263 54.5t-212.5 151t-141 235.5t-51.5 302q0 157 51.5 294t140.5 233.5t212 152t262 55.5q220 0 377 -106t223 -312l-211 -61q-35 110 -127 190q-96 84 -262 84q-128 0 -229 -72t-155 -192.5t-54 -265.5q0 -151 54.5 -273.5t156 -194t229.5 -71.5
q171 0 274 103q104 104 131 252l217 -39q-20 -123 -78.5 -222.5t-142 -164t-186.5 -99t-215 -34.5zM758 1688l-281 -148v162l285 162l280 -162v-162z" />
    <glyph glyph-name="ccircumflex" unicode="&#x109;" horiz-adv-x="1071" 
d="M567 -20q-95 0 -181 35.5t-154 100.5t-108 167t-40 225q0 99 26.5 184.5t73 147t108 106t132 66.5t145.5 22q162 0 276 -77t159 -209l-185 -74q-70 172 -248 172q-113 0 -194.5 -89.5t-81.5 -248.5t81.5 -249.5t194.5 -90.5q93 0 159 52t99 147l185 -74
q-49 -152 -167 -232.5t-280 -80.5zM565 1300l-258 -141v162l264 156l260 -156v-162z" />
    <glyph glyph-name="Cdotaccent" unicode="&#x10a;" horiz-adv-x="1454" 
d="M762 -20q-140 0 -263 54.5t-212.5 151t-141 235.5t-51.5 302q0 157 51.5 294t140.5 233.5t212 152t262 55.5q220 0 377 -106t223 -312l-211 -61q-35 110 -127 190q-96 84 -262 84q-128 0 -229 -72t-155 -192.5t-54 -265.5q0 -151 54.5 -273.5t156 -194t229.5 -71.5
q171 0 274 103q104 104 131 252l217 -39q-20 -123 -78.5 -222.5t-142 -164t-186.5 -99t-215 -34.5zM760 1610q-54 0 -90.5 36t-36.5 91t36.5 92t90.5 37q56 0 92.5 -37t36.5 -92t-36.5 -91t-92.5 -36z" />
    <glyph glyph-name="cdotaccent" unicode="&#x10b;" horiz-adv-x="1071" 
d="M567 -20q-95 0 -181 35.5t-154 100.5t-108 167t-40 225q0 99 26.5 184.5t73 147t108 106t132 66.5t145.5 22q162 0 276 -77t159 -209l-185 -74q-70 172 -248 172q-113 0 -194.5 -89.5t-81.5 -248.5t81.5 -249.5t194.5 -90.5q93 0 159 52t99 147l185 -74
q-49 -152 -167 -232.5t-280 -80.5zM567 1200q-54 0 -90.5 36t-36.5 91t36.5 92t90.5 37q55 0 92 -37t37 -92t-36.5 -91t-92.5 -36z" />
    <glyph glyph-name="Ccaron" unicode="&#x10c;" horiz-adv-x="1454" 
d="M762 -20q-140 0 -263 54.5t-212.5 151t-141 235.5t-51.5 302q0 157 51.5 294t140.5 233.5t212 152t262 55.5q220 0 377 -106t223 -312l-211 -61q-35 110 -127 190q-96 84 -262 84q-128 0 -229 -72t-155 -192.5t-54 -265.5q0 -151 54.5 -273.5t156 -194t229.5 -71.5
q171 0 274 103q104 104 131 252l217 -39q-20 -123 -78.5 -222.5t-142 -164t-186.5 -99t-215 -34.5zM768 1737l281 147v-162l-285 -161l-281 161v162z" />
    <glyph glyph-name="ccaron" unicode="&#x10d;" horiz-adv-x="1071" 
d="M567 -20q-95 0 -181 35.5t-154 100.5t-108 167t-40 225q0 99 26.5 184.5t73 147t108 106t132 66.5t145.5 22q162 0 276 -77t159 -209l-185 -74q-70 172 -248 172q-113 0 -194.5 -89.5t-81.5 -248.5t81.5 -249.5t194.5 -90.5q93 0 159 52t99 147l185 -74
q-49 -152 -167 -232.5t-280 -80.5zM571 1341l258 142v-162l-264 -156l-260 156v162z" />
    <glyph glyph-name="Dcaron" unicode="&#x10e;" horiz-adv-x="1415" 
d="M662 0h-486v1434h481q132 0 252.5 -50t211.5 -138.5t145.5 -221.5t54.5 -289q0 -168 -53.5 -308.5t-144.5 -232.5t-210 -143t-251 -51zM395 1239v-1044h262q184 0 310.5 149t126.5 391q0 148 -61.5 264.5t-162 178t-219.5 61.5h-256zM653 1737l281 147v-162l-285 -161
l-280 161v162z" />
    <glyph glyph-name="dcaron" unicode="&#x10f;" horiz-adv-x="1208" 
d="M1329 1135h-174l86 335h189zM565 170q103 0 185 70q81 69 84 215v106q-1 132 -78 207.5t-191 75.5t-189 -90t-75 -246q0 -157 75 -247.5t189 -90.5zM1042 0h-198v117q-50 -60 -130.5 -98.5t-174.5 -38.5q-195 0 -323 145t-128 383q0 235 128.5 379.5t322.5 144.5
q189 0 295 -119v557h208v-1470z" />
    <glyph glyph-name="Dcroat" unicode="&#x110;" horiz-adv-x="1478" 
d="M725 0h-485v672h-193v176h193v586h481q132 0 252 -50t211.5 -138.5t145.5 -221.5t54 -289q0 -168 -53.5 -308.5t-144.5 -232.5t-210 -143t-251 -51zM459 672v-477h262q89 0 168.5 38t139 107t94 171.5t34.5 223.5q0 148 -61 264.5t-161.5 178t-219.5 61.5h-256v-391h264
v-176h-264z" />
    <glyph glyph-name="dslash" unicode="&#x111;" horiz-adv-x="1208" 
d="M565 170q103 0 185 70q81 69 84 215v106q-1 132 -78 207.5t-191 75.5t-189 -90t-75 -246q0 -157 75 -247.5t189 -90.5zM1042 0h-198v117q-50 -60 -130.5 -98.5t-174.5 -38.5q-195 0 -323 145t-128 383q0 235 128.5 379.5t322.5 144.5q189 0 295 -119v267h-297v137h297
v153h208v-153h183v-137h-183v-1180z" />
    <glyph glyph-name="Emacron" unicode="&#x112;" horiz-adv-x="1230" 
d="M395 195h740v-195h-959v1434h952v-195h-733v-334h682v-194h-682v-516zM903 1642h-491v146h491v-146z" />
    <glyph glyph-name="emacron" unicode="&#x113;" horiz-adv-x="1110" 
d="M563 862q-105 0 -180.5 -63t-85.5 -176h520q-11 116 -82.5 177.5t-171.5 61.5zM870 309l148 -104q-57 -104 -172 -163.5t-262 -59.5q-214 0 -357 143t-143 387q0 117 37.5 215.5t102.5 165.5t153.5 104t189.5 37q201 0 324.5 -127.5t134.5 -343.5q4 -82 4 -96h-737
q3 -145 90 -229q90 -84 209 -84q88 0 162 40.5t116 114.5zM807 1233h-481v143h481v-143z" />
    <glyph glyph-name="Ebreve" unicode="&#x114;" horiz-adv-x="1230" 
d="M395 195h740v-195h-959v1434h952v-195h-733v-334h682v-194h-682v-516zM655 1575q-136 0 -220 73t-85 195h152q0 -57 40 -92t113 -35t113.5 35t42.5 92h152q-1 -122 -88.5 -195t-219.5 -73z" />
    <glyph glyph-name="ebreve" unicode="&#x115;" horiz-adv-x="1110" 
d="M563 862q-105 0 -180.5 -63t-85.5 -176h520q-11 116 -82.5 177.5t-171.5 61.5zM870 309l148 -104q-57 -104 -172 -163.5t-262 -59.5q-214 0 -357 143t-143 387q0 117 37.5 215.5t102.5 165.5t153.5 104t189.5 37q201 0 324.5 -127.5t134.5 -343.5q4 -82 4 -96h-737
q3 -145 90 -229q90 -84 209 -84q88 0 162 40.5t116 114.5zM565 1169q-117 0 -192 72.5t-76 192.5h149q0 -57 31.5 -91t87.5 -34t88.5 34.5t32.5 90.5h150q-1 -120 -79 -192.5t-192 -72.5z" />
    <glyph glyph-name="Edotaccent" unicode="&#x116;" horiz-adv-x="1230" 
d="M395 195h740v-195h-959v1434h952v-195h-733v-334h682v-194h-682v-516zM655 1610q-54 0 -90.5 36t-36.5 91t36.5 92t90.5 37q55 0 92 -37t37 -92t-36.5 -91t-92.5 -36z" />
    <glyph glyph-name="edotaccent" unicode="&#x117;" horiz-adv-x="1110" 
d="M563 862q-105 0 -180.5 -63t-85.5 -176h520q-11 116 -82.5 177.5t-171.5 61.5zM870 309l148 -104q-57 -104 -172 -163.5t-262 -59.5q-214 0 -357 143t-143 387q0 117 37.5 215.5t102.5 165.5t153.5 104t189.5 37q201 0 324.5 -127.5t134.5 -343.5q4 -82 4 -96h-737
q3 -145 90 -229q90 -84 209 -84q88 0 162 40.5t116 114.5zM565 1200q-54 0 -90.5 36t-36.5 91t36.5 92t90.5 37q55 0 92 -37t37 -92t-36.5 -91t-92.5 -36z" />
    <glyph glyph-name="Eogonek" unicode="&#x118;" horiz-adv-x="1230" 
d="M395 195h740v-195h-959v1434h952v-195h-733v-334h682v-194h-682v-516zM981 -414q-85 0 -145 44.5t-60 127.5q0 89 64 162t182 139l113 -59q-81 -36 -138 -91t-57 -114q0 -34 20 -49.5t50 -15.5q51 0 90 39l78 -103q-36 -37 -88 -58.5t-109 -21.5z" />
    <glyph glyph-name="eogonek" unicode="&#x119;" horiz-adv-x="1110" 
d="M563 862q-105 0 -180.5 -63t-85.5 -176h520q-11 116 -82.5 177.5t-171.5 61.5zM907 -231l78 -103q-80 -80 -199 -80q-84 0 -143 47t-59 131q0 118 88 224q-81 -6 -88 -6q-214 0 -357 143t-143 387q0 117 37.5 215.5t102.5 165.5t153.5 104t189.5 37q201 0 324.5 -127.5
t134.5 -343.5q4 -82 4 -96h-737q3 -145 90 -229q90 -84 209 -84q88 0 162 40.5t116 114.5l148 -104q-40 -70 -109 -123q-161 -136 -161 -279q0 -37 19 -55t50 -18q45 0 90 39z" />
    <glyph glyph-name="Ecaron" unicode="&#x11a;" horiz-adv-x="1230" 
d="M395 195h740v-195h-959v1434h952v-195h-733v-334h682v-194h-682v-516zM664 1737l280 147v-162l-285 -161l-280 161v162z" />
    <glyph glyph-name="ecaron" unicode="&#x11b;" horiz-adv-x="1110" 
d="M563 862q-105 0 -180.5 -63t-85.5 -176h520q-11 116 -82.5 177.5t-171.5 61.5zM870 309l148 -104q-57 -104 -172 -163.5t-262 -59.5q-214 0 -357 143t-143 387q0 117 37.5 215.5t102.5 165.5t153.5 104t189.5 37q201 0 324.5 -127.5t134.5 -343.5q4 -82 4 -96h-737
q3 -145 90 -229q90 -84 209 -84q88 0 162 40.5t116 114.5zM571 1341l258 142v-162l-264 -156l-260 156v162z" />
    <glyph glyph-name="Gcircumflex" unicode="&#x11c;" horiz-adv-x="1503" 
d="M1409 688v-57q0 -199 -87.5 -349t-231 -226t-320.5 -76q-144 0 -268.5 54t-214.5 150t-141.5 235.5t-51.5 303.5q0 213 87 381t240.5 261t346.5 93q216 0 379 -100q166 -100 231 -307l-209 -66q-35 112 -140.5 190t-260.5 78q-199 0 -322.5 -151t-123.5 -379
q0 -236 124.5 -388.5t323.5 -152.5q159 0 271.5 86.5t138.5 229.5h-392v190h621zM766 1688l-281 -148v162l285 162l281 -162v-162z" />
    <glyph glyph-name="gcircumflex" unicode="&#x11d;" horiz-adv-x="1052" 
d="M301 674q0 -87 58 -140t147 -53t146 53t57 140q0 84 -57.5 137t-145.5 53q-89 0 -147 -53t-58 -137zM969 -113q0 -136 -116 -217.5t-312 -81.5h-70q-182 0 -301 70t-119 205q0 85 54.5 145t150.5 90q-74 46 -74 121q0 92 105 150q-84 46 -132.5 124.5t-48.5 180.5
q0 107 56 189.5t146.5 124.5t199.5 42q40 0 124 -11t167 -11h207v-162l-158 2q53 -82 53 -174q0 -163 -112 -261t-281 -98q-70 0 -99.5 -23t-29.5 -52q0 -67 119 -70l151 -6q157 -6 238.5 -81t81.5 -196zM475 -250h70q109 0 167 34t58 95t-51 93t-150 32h-92
q-229 -3 -229 -129q0 -61 60.5 -93t166.5 -32zM522 1298l-258 -141v162l264 156l260 -156v-162z" />
    <glyph glyph-name="Gbreve" unicode="&#x11e;" horiz-adv-x="1503" 
d="M1409 688v-57q0 -199 -87.5 -349t-231 -226t-320.5 -76q-144 0 -268.5 54t-214.5 150t-141.5 235.5t-51.5 303.5q0 213 87 381t240.5 261t346.5 93q216 0 379 -100q166 -100 231 -307l-209 -66q-35 112 -140.5 190t-260.5 78q-199 0 -322.5 -151t-123.5 -379
q0 -236 124.5 -388.5t323.5 -152.5q159 0 271.5 86.5t138.5 229.5h-392v190h621zM768 1575q-136 0 -220 73t-85 195h151q0 -57 40.5 -92t113.5 -35t113.5 35t42.5 92h151q-1 -122 -88 -195t-219 -73z" />
    <glyph glyph-name="gbreve" unicode="&#x11f;" horiz-adv-x="1052" 
d="M301 674q0 -87 58 -140t147 -53t146 53t57 140q0 84 -57.5 137t-145.5 53q-89 0 -147 -53t-58 -137zM969 -113q0 -136 -116 -217.5t-312 -81.5h-70q-182 0 -301 70t-119 205q0 85 54.5 145t150.5 90q-74 46 -74 121q0 92 105 150q-84 46 -132.5 124.5t-48.5 180.5
q0 107 56 189.5t146.5 124.5t199.5 42q40 0 124 -11t167 -11h207v-162l-158 2q53 -82 53 -174q0 -163 -112 -261t-281 -98q-70 0 -99.5 -23t-29.5 -52q0 -67 119 -70l151 -6q157 -6 238.5 -81t81.5 -196zM475 -250h70q109 0 167 34t58 95t-51 93t-150 32h-92
q-229 -3 -229 -129q0 -61 60.5 -93t166.5 -32zM526 1167q-117 0 -192 72.5t-76 192.5h150q0 -57 31 -91t87 -34t88.5 34.5t32.5 90.5h150q-1 -120 -79 -192.5t-192 -72.5z" />
    <glyph glyph-name="Gdotaccent" unicode="&#x120;" horiz-adv-x="1503" 
d="M1409 688v-57q0 -199 -87.5 -349t-231 -226t-320.5 -76q-144 0 -268.5 54t-214.5 150t-141.5 235.5t-51.5 303.5q0 213 87 381t240.5 261t346.5 93q216 0 379 -100q166 -100 231 -307l-209 -66q-35 112 -140.5 190t-260.5 78q-199 0 -322.5 -151t-123.5 -379
q0 -236 124.5 -388.5t323.5 -152.5q159 0 271.5 86.5t138.5 229.5h-392v190h621zM768 1610q-54 0 -90.5 36t-36.5 91t36.5 92t90.5 37q56 0 92.5 -37t36.5 -92t-36.5 -91t-92.5 -36z" />
    <glyph glyph-name="gdotaccent" unicode="&#x121;" horiz-adv-x="1052" 
d="M301 674q0 -87 58 -140t147 -53t146 53t57 140q0 84 -57.5 137t-145.5 53q-89 0 -147 -53t-58 -137zM969 -113q0 -136 -116 -217.5t-312 -81.5h-70q-182 0 -301 70t-119 205q0 85 54.5 145t150.5 90q-74 46 -74 121q0 92 105 150q-84 46 -132.5 124.5t-48.5 180.5
q0 107 56 189.5t146.5 124.5t199.5 42q40 0 124 -11t167 -11h207v-162l-158 2q53 -82 53 -174q0 -163 -112 -261t-281 -98q-70 0 -99.5 -23t-29.5 -52q0 -67 119 -70l151 -6q157 -6 238.5 -81t81.5 -196zM475 -250h70q109 0 167 34t58 95t-51 93t-150 32h-92
q-229 -3 -229 -129q0 -61 60.5 -93t166.5 -32zM524 1198q-54 0 -90.5 36t-36.5 91t36.5 92t90.5 37q56 0 92.5 -37t36.5 -92t-36.5 -91t-92.5 -36z" />
    <glyph glyph-name="Gcommaaccent" unicode="&#x122;" horiz-adv-x="1503" 
d="M1409 688v-57q0 -199 -87.5 -349t-231 -226t-320.5 -76q-144 0 -268.5 54t-214.5 150t-141.5 235.5t-51.5 303.5q0 213 87 381t240.5 261t346.5 93q216 0 379 -100q166 -100 231 -307l-209 -66q-35 112 -140.5 190t-260.5 78q-199 0 -322.5 -151t-123.5 -379
q0 -236 124.5 -388.5t323.5 -152.5q159 0 271.5 86.5t138.5 229.5h-392v190h621zM797 -487h-127l61 151q-30 9 -55 38.5t-25 70.5q0 49 36.5 82.5t82.5 33.5q50 0 84.5 -34t34.5 -82q0 -53 -37 -135z" />
    <glyph glyph-name="gcommaaccent" unicode="&#x123;" horiz-adv-x="1052" 
d="M301 674q0 -87 58 -140t147 -53t146 53t57 140q0 84 -57.5 137t-145.5 53q-89 0 -147 -53t-58 -137zM969 -113q0 -136 -116 -217.5t-312 -81.5h-70q-182 0 -301 70t-119 205q0 85 54.5 145t150.5 90q-74 46 -74 121q0 92 105 150q-84 46 -132.5 124.5t-48.5 180.5
q0 107 56 189.5t146.5 124.5t199.5 42q40 0 124 -11t167 -11h207v-162l-158 2q53 -82 53 -174q0 -163 -112 -261t-281 -98q-70 0 -99.5 -23t-29.5 -52q0 -67 119 -70l151 -6q157 -6 238.5 -81t81.5 -196zM475 -250h70q109 0 167 34t58 95t-51 93t-150 32h-92
q-229 -3 -229 -129q0 -61 60.5 -93t166.5 -32zM502 1524h127l-62 -152q30 -9 55 -38t25 -70q0 -49 -36.5 -83t-82.5 -34q-50 0 -84 34.5t-34 82.5q0 55 36 135z" />
    <glyph glyph-name="Hcircumflex" unicode="&#x124;" horiz-adv-x="1501" 
d="M1325 0h-219v750h-711v-750h-219v1434h219v-490h711v490h219v-1434zM748 1688l-281 -148v162l285 162l280 -162v-162z" />
    <glyph glyph-name="hcircumflex" unicode="&#x125;" horiz-adv-x="1191" 
d="M618 844q-80 0 -145.5 -50t-97.5 -137v-657h-209v1470h209v-593q98 155 299 155q167 0 266.5 -104t99.5 -305v-623h-206v594q0 125 -57 187.5t-159 62.5zM627 1714l-258 -141v162l264 155l260 -155v-162z" />
    <glyph glyph-name="Hbar" unicode="&#x126;" horiz-adv-x="1507" 
d="M399 840h711v213h-711v-213zM1329 0h-219v645h-711v-645h-219v1053h-143v155h143v226h219v-226h711v226h219v-226h144v-155h-144v-1053z" />
    <glyph glyph-name="hbar" unicode="&#x127;" horiz-adv-x="1191" 
d="M618 844q-80 0 -145.5 -50t-97.5 -137v-657h-209v1180h-182v137h182v153h209v-153h297v-137h-297v-303q98 155 299 155q167 0 266.5 -104t99.5 -305v-623h-206v594q0 125 -57 187.5t-159 62.5z" />
    <glyph glyph-name="Itilde" unicode="&#x128;" horiz-adv-x="571" 
d="M395 0h-219v1434h219v-1434zM397 1587q-43 0 -84.5 20.5t-75.5 41t-57 20.5q-56 0 -67 -74l-123 21q2 86 53.5 143.5t130.5 57.5q42 0 83 -21t75 -42t59 -21q31 0 47.5 21t18.5 52l125 -18q-2 -87 -54 -144t-131 -57z" />
    <glyph glyph-name="itilde" unicode="&#x129;" 
d="M375 0h-209v1008h209v-1008zM383 1178q-43 0 -84.5 20.5t-75.5 41t-57 20.5q-57 0 -68 -74l-123 20q2 86 54 143.5t131 57.5q42 0 83 -21t75 -42t59 -21q30 0 46.5 21t18.5 53l125 -19q-2 -87 -53.5 -143.5t-130.5 -56.5z" />
    <glyph glyph-name="Imacron" unicode="&#x12a;" horiz-adv-x="571" 
d="M395 0h-219v1434h219v-1434zM532 1642h-491v146h491v-146z" />
    <glyph glyph-name="imacron" unicode="&#x12b;" 
d="M375 0h-209v1008h209v-1008zM512 1233h-481v143h481v-143z" />
    <glyph glyph-name="Ibreve" unicode="&#x12c;" horiz-adv-x="571" 
d="M395 0h-219v1434h219v-1434zM287 1581q-115 0 -188 70.5t-74 191.5h149q0 -57 29.5 -91t83.5 -34t83 34t29 91h148q-1 -120 -74.5 -191t-185.5 -71z" />
    <glyph glyph-name="ibreve" unicode="&#x12d;" 
d="M375 0h-209v1008h209v-1008zM270 1171q-115 0 -188 71t-74 192h150q0 -57 29 -91t83 -34t83.5 34t29.5 91h147q-1 -120 -75 -191.5t-185 -71.5z" />
    <glyph glyph-name="Iogonek" unicode="&#x12e;" horiz-adv-x="571" 
d="M395 0h-219v1434h219v-1434zM242 -414q-85 0 -145 44.5t-60 127.5q0 89 64 162t182 139l112 -59q-81 -35 -137.5 -90.5t-56.5 -114.5q0 -34 19.5 -49.5t49.5 -15.5q51 0 90 39l78 -103q-77 -80 -196 -80z" />
    <glyph glyph-name="iogonek" unicode="&#x12f;" 
d="M270 1194q-56 0 -93.5 38t-37.5 93q0 57 37.5 94t93.5 37t93.5 -37t37.5 -94q0 -55 -37.5 -93t-93.5 -38zM375 0h-209v1008h209v-1008zM221 -414q-85 0 -145 44.5t-60 127.5q0 89 64 162t182 139l113 -59q-81 -36 -138 -91t-57 -114q0 -34 20 -49.5t50 -15.5q51 0 90 39
l78 -103q-36 -37 -88 -58.5t-109 -21.5z" />
    <glyph glyph-name="Idot" unicode="&#x130;" horiz-adv-x="571" 
d="M395 0h-219v1434h219v-1434zM285 1610q-54 0 -90.5 36t-36.5 91t36.5 92t90.5 37q55 0 92 -37t37 -92t-36.5 -91t-92.5 -36z" />
    <glyph glyph-name="dotlessi" unicode="&#x131;" 
d="M375 0h-209v1008h209v-1008z" />
    <glyph glyph-name="IJ" unicode="&#x132;" horiz-adv-x="1331" 
d="M395 0h-219v1434h219v-1434zM805 -16q-146 0 -252 75l113 179q65 -52 137 -52q145 0 145 197v1051h219v-1055q0 -197 -95 -296t-267 -99z" />
    <glyph glyph-name="ij" unicode="&#x133;" horiz-adv-x="1081" 
d="M270 1194q-56 0 -93.5 38t-37.5 93q0 57 37.5 94t93.5 37t93.5 -37t37.5 -94q0 -55 -37.5 -93t-93.5 -38zM375 0h-209v1008h209v-1008zM811 1194q-55 0 -93 38t-38 93q0 57 37.5 94t93.5 37t93.5 -37t37.5 -94q0 -55 -38 -93t-93 -38zM707 1008h208v-1127
q0 -146 -81.5 -220.5t-215.5 -74.5q-81 0 -151.5 34.5t-108.5 94.5l136 123q43 -69 112 -69q44 0 72.5 28t28.5 82v1129z" />
    <glyph glyph-name="Jcircumflex" unicode="&#x134;" horiz-adv-x="1064" 
d="M467 -18q-187 0 -305 104.5t-144 304.5l211 41q31 -248 242 -248q92 0 152.5 64.5t60.5 187.5v998h219v-998q0 -216 -120.5 -335t-315.5 -119zM793 1688l-281 -148v162l285 162l280 -162v-162z" />
    <glyph glyph-name="jcircumflex" unicode="&#x135;" 
d="M166 1008h209v-1127q0 -146 -81.5 -220.5t-215.5 -74.5q-81 0 -151.5 34.5t-108.5 94.5l135 123q43 -69 113 -69q44 0 72 28t28 82v1129zM266 1300l-258 -141v162l264 156l260 -156v-162z" />
    <glyph glyph-name="Kcommaaccent" unicode="&#x136;" horiz-adv-x="1316" 
d="M1303 0h-259l-462 807l-187 -178v-629h-219v1434h219v-549l582 549h293l-516 -478zM709 -487h-127l61 151q-30 9 -55 38.5t-25 70.5q0 49 36.5 82.5t82.5 33.5q50 0 84.5 -34t34.5 -82q0 -53 -37 -135z" />
    <glyph glyph-name="kcommaaccent" unicode="&#x137;" horiz-adv-x="1085" 
d="M1059 0h-242l-319 551l-127 -117v-434h-205v1470h205v-808l401 346h279l-394 -332zM600 -487h-127l62 151q-30 9 -55 38.5t-25 70.5q0 49 36 82.5t82 33.5q50 0 84.5 -34t34.5 -82q0 -53 -37 -135z" />
    <glyph glyph-name="kgreenlandic" unicode="&#x138;" horiz-adv-x="1075" 
d="M1059 0h-242l-317 547l-129 -119v-428h-205v1008h205v-351l401 351h279l-392 -334z" />
    <glyph glyph-name="Lacute" unicode="&#x139;" horiz-adv-x="1091" 
d="M1049 0h-873v1434h219v-1239h654v-195zM360 1567h-170v4l144 289h231v-5z" />
    <glyph glyph-name="lacute" unicode="&#x13a;" 
d="M375 0h-209v1470h209v-1470zM344 1550h-170v4l143 289h232v-4z" />
    <glyph glyph-name="Lcommaaccent" unicode="&#x13b;" horiz-adv-x="1091" 
d="M1049 0h-873v1434h219v-1239h654v-195zM651 -487h-127l62 151q-30 9 -55 38.5t-25 70.5q0 49 36.5 82.5t82.5 33.5q50 0 84 -34t34 -82q0 -55 -36 -135z" />
    <glyph glyph-name="lcommaaccent" unicode="&#x13c;" 
d="M375 0h-209v1470h209v-1470zM295 -487h-127l61 151q-30 9 -54.5 38.5t-24.5 70.5q0 49 36 82.5t82 33.5q50 0 84.5 -34t34.5 -82q0 -53 -37 -135z" />
    <glyph glyph-name="Lcaron" unicode="&#x13d;" horiz-adv-x="1091" 
d="M1049 0h-873v1434h219v-1239h654v-195zM735 1069h-127l62 152q-30 9 -55 38t-25 70q0 49 36.5 83t82.5 34q50 0 84 -34.5t34 -82.5q0 -55 -36 -135z" />
    <glyph glyph-name="lcaron" unicode="&#x13e;" 
d="M375 0h-209v1470h209v-1470zM662 1135h-175l88 335h187z" />
    <glyph glyph-name="Ldot" unicode="&#x13f;" horiz-adv-x="1093" 
d="M1049 0h-873v1434h219v-1239h654v-195zM805 623q-60 0 -100.5 41.5t-40.5 101.5q0 58 41 99.5t100 41.5q57 0 99 -42t42 -99q0 -60 -42 -101.5t-99 -41.5z" />
    <glyph glyph-name="ldot" unicode="&#x140;" horiz-adv-x="804" 
d="M375 0h-209v1470h209v-1470zM633 573q-60 0 -100.5 42t-40.5 102q0 58 41 99.5t100 41.5q57 0 99 -42t42 -99q0 -60 -42 -102t-99 -42z" />
    <glyph glyph-name="Lslash" unicode="&#x141;" horiz-adv-x="1110" 
d="M1065 195v-195h-872v428l-154 -82v182l154 80v826h219v-727l397 211v-183l-397 -209v-331h653z" />
    <glyph glyph-name="lslash" unicode="&#x142;" horiz-adv-x="593" 
d="M399 719v-719h-209v606l-159 -84v183l159 83v682h209v-571l164 86v-180z" />
    <glyph glyph-name="Nacute" unicode="&#x143;" horiz-adv-x="1497" 
d="M1321 0h-211l-719 1053v-1053h-215v1434h211l721 -1061v1061h213v-1434zM823 1567h-170v4l144 289h231v-5z" />
    <glyph glyph-name="nacute" unicode="&#x144;" horiz-adv-x="1191" 
d="M618 844q-80 0 -145.5 -50t-97.5 -137v-657h-209v1008h209v-131q98 155 299 155q167 0 266.5 -104t99.5 -305v-623h-206v594q0 125 -57 187.5t-159 62.5zM698 1157h-170v4l144 289h231v-4z" />
    <glyph glyph-name="Ncommaaccent" unicode="&#x145;" horiz-adv-x="1497" 
d="M1321 0h-211l-719 1053v-1053h-215v1434h211l721 -1061v1061h213v-1434zM776 -487h-127l62 151q-30 9 -55 38.5t-25 70.5q0 49 36.5 82.5t82.5 33.5q50 0 84 -34t34 -82q0 -53 -37 -135z" />
    <glyph glyph-name="ncommaaccent" unicode="&#x146;" horiz-adv-x="1191" 
d="M618 844q-80 0 -145.5 -50t-97.5 -137v-657h-209v1008h209v-131q98 155 299 155q167 0 266.5 -104t99.5 -305v-623h-206v594q0 125 -57 187.5t-159 62.5zM623 -487h-127l61 151q-30 9 -55 38.5t-25 70.5q0 49 36.5 82.5t82.5 33.5q50 0 84.5 -34t34.5 -82q0 -53 -37 -135
z" />
    <glyph glyph-name="Ncaron" unicode="&#x147;" horiz-adv-x="1497" 
d="M1321 0h-211l-719 1053v-1053h-215v1434h211l721 -1061v1061h213v-1434zM756 1737l280 147v-162l-284 -161l-281 161v162z" />
    <glyph glyph-name="ncaron" unicode="&#x148;" horiz-adv-x="1191" 
d="M618 844q-80 0 -145.5 -50t-97.5 -137v-657h-209v1008h209v-131q98 155 299 155q167 0 266.5 -104t99.5 -305v-623h-206v594q0 125 -57 187.5t-159 62.5zM627 1341l258 142v-162l-264 -156l-261 156v162z" />
    <glyph glyph-name="Eng" unicode="&#x14a;" horiz-adv-x="1497" 
d="M1030 -420q-78 0 -145.5 31.5t-104.5 89.5l135 125q41 -62 103 -62q40 0 65 26t25 79v133l-717 1051v-1053h-215v1434h211l721 -1061v1061h213v-1563q0 -145 -81 -218t-210 -73z" />
    <glyph glyph-name="eng" unicode="&#x14b;" horiz-adv-x="1167" 
d="M1040 623v-666q0 -164 -81 -256t-244 -102l-21 186q140 14 140 184v625q0 125 -57 187.5t-159 62.5q-80 0 -145.5 -50t-97.5 -137v-657h-209v1008h209v-131q98 155 299 155q167 0 266.5 -104t99.5 -305z" />
    <glyph glyph-name="Omacron" unicode="&#x14c;" horiz-adv-x="1546" 
d="M772 -20q-143 0 -267.5 53.5t-215.5 149t-143 235.5t-52 305q0 157 51.5 294t141 233.5t215.5 152t270 55.5q194 0 349.5 -93.5t243 -261.5t87.5 -380q0 -164 -53 -304t-144.5 -235.5t-216.5 -149.5t-266 -54zM772 184q200 0 326.5 153t126.5 386q0 146 -55.5 266
t-159.5 192t-238 72q-133 0 -236.5 -71t-158.5 -191.5t-55 -267.5q0 -152 56 -274.5t159.5 -193.5t234.5 -71zM1020 1642h-492v146h492v-146z" />
    <glyph glyph-name="omacron" unicode="&#x14d;" horiz-adv-x="1155" 
d="M578 -20q-211 0 -352.5 146.5t-141.5 381.5q0 119 39 218.5t106.5 166.5t157.5 104t191 37q211 0 353 -144.5t142 -381.5q0 -117 -39 -216.5t-106 -167.5t-158 -106t-192 -38zM578 166q124 0 203 92.5t79 249.5q0 155 -80.5 246.5t-201.5 91.5q-123 0 -203 -90.5
t-80 -247.5q0 -156 80.5 -249t202.5 -93zM819 1233h-481v143h481v-143z" />
    <glyph glyph-name="Obreve" unicode="&#x14e;" horiz-adv-x="1546" 
d="M772 -20q-143 0 -267.5 53.5t-215.5 149t-143 235.5t-52 305q0 157 51.5 294t141 233.5t215.5 152t270 55.5q194 0 349.5 -93.5t243 -261.5t87.5 -380q0 -164 -53 -304t-144.5 -235.5t-216.5 -149.5t-266 -54zM772 184q200 0 326.5 153t126.5 386q0 146 -55.5 266
t-159.5 192t-238 72q-133 0 -236.5 -71t-158.5 -191.5t-55 -267.5q0 -152 56 -274.5t159.5 -193.5t234.5 -71zM772 1575q-136 0 -220 73t-85 195h151q0 -57 40.5 -92t113.5 -35t113.5 35t42.5 92h151q-1 -122 -88 -195t-219 -73z" />
    <glyph glyph-name="obreve" unicode="&#x14f;" horiz-adv-x="1155" 
d="M578 -20q-211 0 -352.5 146.5t-141.5 381.5q0 119 39 218.5t106.5 166.5t157.5 104t191 37q211 0 353 -144.5t142 -381.5q0 -117 -39 -216.5t-106 -167.5t-158 -106t-192 -38zM578 166q124 0 203 92.5t79 249.5q0 155 -80.5 246.5t-201.5 91.5q-123 0 -203 -90.5
t-80 -247.5q0 -156 80.5 -249t202.5 -93zM578 1169q-117 0 -192.5 72.5t-76.5 192.5h150q0 -57 31.5 -91t87.5 -34t88 34.5t32 90.5h150q-1 -120 -78.5 -192.5t-191.5 -72.5z" />
    <glyph glyph-name="Ohungarumlaut" unicode="&#x150;" horiz-adv-x="1546" 
d="M772 -20q-143 0 -267.5 53.5t-215.5 149t-143 235.5t-52 305q0 157 51.5 294t141 233.5t215.5 152t270 55.5q194 0 349.5 -93.5t243 -261.5t87.5 -380q0 -164 -53 -304t-144.5 -235.5t-216.5 -149.5t-266 -54zM772 184q200 0 326.5 153t126.5 386q0 146 -55.5 266
t-159.5 192t-238 72q-133 0 -236.5 -71t-158.5 -191.5t-55 -267.5q0 -152 56 -274.5t159.5 -193.5t234.5 -71zM981 1567h-147l174 293h192zM696 1567h-141l135 293h180z" />
    <glyph glyph-name="ohungarumlaut" unicode="&#x151;" horiz-adv-x="1155" 
d="M578 -20q-211 0 -352.5 146.5t-141.5 381.5q0 119 39 218.5t106.5 166.5t157.5 104t191 37q211 0 353 -144.5t142 -381.5q0 -117 -39 -216.5t-106 -167.5t-158 -106t-192 -38zM578 166q124 0 203 92.5t79 249.5q0 155 -80.5 246.5t-201.5 91.5q-123 0 -203 -90.5
t-80 -247.5q0 -156 80.5 -249t202.5 -93zM786 1157h-147l174 293h193zM502 1157h-142l136 293h180z" />
    <glyph glyph-name="OE" unicode="&#x152;" horiz-adv-x="2004" 
d="M764 199h188v1036h-188q-132 0 -234 -69t-155 -185t-53 -258q0 -147 54 -266t155.5 -188.5t232.5 -69.5zM1911 0h-1147q-142 0 -266 52.5t-213 146t-140 229t-51 295.5q0 205 86.5 367.5t239.5 253t344 90.5h1141v-195h-734v-334h682v-194h-682v-516h740v-195z" />
    <glyph glyph-name="oe" unicode="&#x153;" horiz-adv-x="1873" 
d="M1327 862q-104 0 -179 -63t-85 -176h516q-10 116 -81 177.5t-171 61.5zM571 162q121 0 200 94t79 252q0 156 -79.5 250t-199.5 94q-121 0 -198.5 -92t-77.5 -252q0 -157 78 -251.5t198 -94.5zM1634 309l148 -104q-58 -104 -173 -164.5t-261 -60.5q-125 0 -228 54.5
t-164 153.5q-62 -99 -162.5 -153.5t-222.5 -54.5q-210 0 -348.5 146t-138.5 382q0 119 38.5 218.5t104.5 166.5t155 104t189 37q123 0 223 -53.5t160 -151.5q62 98 159.5 151.5t217.5 53.5q201 0 324 -127.5t135 -343.5q4 -82 4 -96h-735q3 -145 90 -229q90 -84 207 -84
q87 0 160.5 40.5t117.5 114.5z" />
    <glyph glyph-name="Racute" unicode="&#x154;" horiz-adv-x="1288" 
d="M717 1239h-324v-397h330q98 0 157.5 53t59.5 152q0 88 -63 140t-160 52zM1264 0h-256l-377 649h-238v-649h-217v1434h559q185 0 308.5 -105.5t123.5 -279.5q0 -171 -112 -283q-67 -67 -185 -98zM657 1567h-170v4l144 289h231v-5z" />
    <glyph glyph-name="racute" unicode="&#x155;" horiz-adv-x="772" 
d="M551 827q-59 0 -104.5 -39.5t-71.5 -99.5v-688h-209v1008h209v-117q35 59 90 96t125 37q99 0 170 -49l-80 -189q-59 41 -129 41zM494 1157h-170v4l143 289h231v-4z" />
    <glyph glyph-name="Rcommaaccent" unicode="&#x156;" horiz-adv-x="1288" 
d="M717 1239h-324v-397h330q98 0 157.5 53t59.5 152q0 88 -63 140t-160 52zM1264 0h-256l-377 649h-238v-649h-217v1434h559q185 0 308.5 -105.5t123.5 -279.5q0 -171 -112 -283q-67 -67 -185 -98zM694 -487h-127l62 151q-30 9 -55 38.5t-25 70.5q0 49 36.5 82.5t82.5 33.5
q50 0 84 -34t34 -82q0 -55 -36 -135z" />
    <glyph glyph-name="rcommaaccent" unicode="&#x157;" horiz-adv-x="772" 
d="M551 827q-59 0 -104.5 -39.5t-71.5 -99.5v-688h-209v1008h209v-117q35 59 90 96t125 37q99 0 170 -49l-80 -189q-59 41 -129 41zM295 -487h-127l61 151q-30 9 -54.5 38.5t-24.5 70.5q0 49 36 82.5t82 33.5q50 0 84.5 -34t34.5 -82q0 -53 -37 -135z" />
    <glyph glyph-name="Rcaron" unicode="&#x158;" horiz-adv-x="1288" 
d="M717 1239h-324v-397h330q98 0 157.5 53t59.5 152q0 88 -63 140t-160 52zM1264 0h-256l-377 649h-238v-649h-217v1434h559q185 0 308.5 -105.5t123.5 -279.5q0 -171 -112 -283q-67 -67 -185 -98zM590 1737l280 147v-162l-284 -161l-281 161v162z" />
    <glyph glyph-name="rcaron" unicode="&#x159;" horiz-adv-x="772" 
d="M551 827q-59 0 -104.5 -39.5t-71.5 -99.5v-688h-209v1008h209v-117q35 59 90 96t125 37q99 0 170 -49l-80 -189q-59 41 -129 41zM424 1341l258 142v-162l-264 -156l-260 156v162z" />
    <glyph glyph-name="Sacute" unicode="&#x15a;" horiz-adv-x="1232" 
d="M618 -20q-108 0 -200.5 28.5t-169.5 88t-125.5 161.5t-56.5 238l215 18q12 -171 105 -258.5t235 -87.5q122 0 208 60t86 161q0 94 -75 153t-226 105l-127 39q-186 57 -269 146.5t-83 230.5q0 172 135.5 283.5t347.5 111.5q219 0 357.5 -114t142.5 -302v-16l-213 -20v12
q-3 136 -88 194q-85 60 -199 60q-117 0 -192.5 -55.5t-75.5 -143.5q0 -75 55 -119.5t197 -85.5l131 -39q208 -62 306 -164.5t98 -261.5q0 -188 -147 -305.5t-372 -117.5zM700 1567h-170v4l144 289h231v-5z" />
    <glyph glyph-name="sacute" unicode="&#x15b;" horiz-adv-x="976" 
d="M496 -20q-161 0 -276.5 71.5t-158.5 214.5l179 62q32 -88 98.5 -135.5t157.5 -47.5q86 0 141 35.5t55 100.5q0 28 -12.5 49.5t-31 35.5t-52 25.5t-61 18t-72.5 14.5q-156 27 -256 88q-101 64 -101 211q0 142 110 227.5t278 85.5q157 0 256.5 -69t136.5 -185l-178 -57
q-49 147 -215 147q-85 0 -137 -39t-52 -102q0 -71 66 -92q70 -23 159 -37q152 -24 258 -92q105 -65 105 -219q0 -142 -113 -226.5t-284 -84.5zM567 1157h-170v4l144 289h231v-4z" />
    <glyph glyph-name="Scircumflex" unicode="&#x15c;" horiz-adv-x="1232" 
d="M618 -20q-108 0 -200.5 28.5t-169.5 88t-125.5 161.5t-56.5 238l215 18q12 -171 105 -258.5t235 -87.5q122 0 208 60t86 161q0 94 -75 153t-226 105l-127 39q-186 57 -269 146.5t-83 230.5q0 172 135.5 283.5t347.5 111.5q219 0 357.5 -114t142.5 -302v-16l-213 -20v12
q-3 136 -88 194q-85 60 -199 60q-117 0 -192.5 -55.5t-75.5 -143.5q0 -75 55 -119.5t197 -85.5l131 -39q208 -62 306 -164.5t98 -261.5q0 -188 -147 -305.5t-372 -117.5zM623 1688l-281 -148v162l285 162l280 -162v-162z" />
    <glyph glyph-name="scircumflex" unicode="&#x15d;" horiz-adv-x="976" 
d="M496 -20q-161 0 -276.5 71.5t-158.5 214.5l179 62q32 -88 98.5 -135.5t157.5 -47.5q86 0 141 35.5t55 100.5q0 28 -12.5 49.5t-31 35.5t-52 25.5t-61 18t-72.5 14.5q-156 27 -256 88q-101 64 -101 211q0 142 110 227.5t278 85.5q157 0 256.5 -69t136.5 -185l-178 -57
q-49 147 -215 147q-85 0 -137 -39t-52 -102q0 -71 66 -92q70 -23 159 -37q152 -24 258 -92q105 -65 105 -219q0 -142 -113 -226.5t-284 -84.5zM489 1300l-258 -141v162l265 156l260 -156v-162z" />
    <glyph glyph-name="Scedilla" unicode="&#x15e;" horiz-adv-x="1232" 
d="M618 -20q-108 0 -200.5 28.5t-169.5 88t-125.5 161.5t-56.5 238l215 18q12 -171 105 -258.5t235 -87.5q122 0 208 60t86 161q0 94 -75 153t-226 105l-127 39q-186 57 -269 146.5t-83 230.5q0 172 135.5 283.5t347.5 111.5q219 0 357.5 -114t142.5 -302v-16l-213 -20v12
q-3 136 -88 194q-85 60 -199 60q-117 0 -192.5 -55.5t-75.5 -143.5q0 -75 55 -119.5t197 -85.5l131 -39q208 -62 306 -164.5t98 -261.5q0 -188 -147 -305.5t-372 -117.5zM621 -436q-89 0 -156 22l31 117q67 -25 120 -25q40 0 64.5 17.5t24.5 48.5q0 30 -27 48t-72 18
q-16 0 -45 -4t-35 -5l52 236h120l-34 -125q78 -2 130 -45t52 -121q0 -89 -62 -135.5t-163 -46.5z" />
    <glyph glyph-name="scedilla" unicode="&#x15f;" horiz-adv-x="976" 
d="M496 -20q-161 0 -276.5 71.5t-158.5 214.5l179 62q32 -88 98.5 -135.5t157.5 -47.5q86 0 141 35.5t55 100.5q0 28 -12.5 49.5t-31 35.5t-52 25.5t-61 18t-72.5 14.5q-156 27 -256 88q-101 64 -101 211q0 142 110 227.5t278 85.5q157 0 256.5 -69t136.5 -185l-178 -57
q-49 147 -215 147q-85 0 -137 -39t-52 -102q0 -71 66 -92q70 -23 159 -37q152 -24 258 -92q105 -65 105 -219q0 -142 -113 -226.5t-284 -84.5zM489 -436q-88 0 -155 22l31 117q67 -25 120 -25q39 0 63.5 17.5t24.5 48.5t-26.5 48.5t-71.5 17.5q-16 0 -45 -4t-35 -5l51 236
h121l-35 -125q78 -2 130.5 -45t52.5 -121q0 -89 -62.5 -135.5t-163.5 -46.5z" />
    <glyph glyph-name="Scaron" unicode="&#x160;" horiz-adv-x="1232" 
d="M618 -20q-108 0 -200.5 28.5t-169.5 88t-125.5 161.5t-56.5 238l215 18q12 -171 105 -258.5t235 -87.5q122 0 208 60t86 161q0 94 -75 153t-226 105l-127 39q-186 57 -269 146.5t-83 230.5q0 172 135.5 283.5t347.5 111.5q219 0 357.5 -114t142.5 -302v-16l-213 -20v12
q-3 136 -88 194q-85 60 -199 60q-117 0 -192.5 -55.5t-75.5 -143.5q0 -75 55 -119.5t197 -85.5l131 -39q208 -62 306 -164.5t98 -261.5q0 -188 -147 -305.5t-372 -117.5zM633 1737l280 147v-162l-284 -161l-281 161v162z" />
    <glyph glyph-name="scaron" unicode="&#x161;" horiz-adv-x="976" 
d="M496 -20q-161 0 -276.5 71.5t-158.5 214.5l179 62q32 -88 98.5 -135.5t157.5 -47.5q86 0 141 35.5t55 100.5q0 28 -12.5 49.5t-31 35.5t-52 25.5t-61 18t-72.5 14.5q-156 27 -256 88q-101 64 -101 211q0 142 110 227.5t278 85.5q157 0 256.5 -69t136.5 -185l-178 -57
q-49 147 -215 147q-85 0 -137 -39t-52 -102q0 -71 66 -92q70 -23 159 -37q152 -24 258 -92q105 -65 105 -219q0 -142 -113 -226.5t-284 -84.5zM498 1341l258 142v-162l-264 -156l-261 156v162z" />
    <glyph glyph-name="Tcaron" unicode="&#x164;" horiz-adv-x="1177" 
d="M1137 1434v-195h-439v-1239h-219v1239h-438v195h1096zM596 1737l281 147v-162l-285 -161l-281 161v162z" />
    <glyph glyph-name="tcaron" unicode="&#x165;" horiz-adv-x="751" 
d="M719 1153h-174l82 317h186zM627 213l100 -129q-87 -100 -248 -100q-130 0 -207 72.5t-77 224.5v550h-154v177h156v290h202v-290h297v-177h-297v-534q0 -72 31.5 -103.5t81.5 -31.5q61 0 115 51z" />
    <glyph glyph-name="Tbar" unicode="&#x166;" horiz-adv-x="1177" 
d="M975 823v-178h-277v-645h-219v645h-276v178h276v416h-438v195h1096v-195h-439v-416h277z" />
    <glyph glyph-name="tbar" unicode="&#x167;" horiz-adv-x="780" 
d="M639 213l100 -129q-87 -100 -247 -100q-130 0 -207.5 72.5t-77.5 224.5v217h-154v164h154v169h-154v177h156v290h203v-290h297v-177h-297v-169h295v-164h-295v-201q0 -135 112 -135q61 0 115 51z" />
    <glyph glyph-name="Utilde" unicode="&#x168;" horiz-adv-x="1404" 
d="M702 -20q-245 0 -394.5 144.5t-149.5 405.5v904h219v-897q0 -164 88.5 -258.5t236.5 -94.5q149 0 237.5 94t88.5 257v899h219v-902q0 -262 -151 -407t-394 -145zM815 1587q-43 0 -84.5 20.5t-75.5 41t-57 20.5q-57 0 -68 -74l-122 21q2 86 53.5 143.5t130.5 57.5
q42 0 83 -21t75 -42t59 -21q30 0 46.5 20.5t18.5 52.5l125 -18q-2 -87 -53.5 -144t-130.5 -57z" />
    <glyph glyph-name="utilde" unicode="&#x169;" horiz-adv-x="1179" 
d="M1014 0h-209v131q-48 -68 -123 -109.5t-172 -41.5q-161 0 -259.5 100t-98.5 293v635h206v-605q0 -118 57.5 -176.5t153.5 -58.5q75 0 139.5 49t96.5 133v658h209v-1008zM694 1178q-43 0 -84.5 20.5t-75.5 41t-57 20.5q-56 0 -67 -74l-123 20q2 86 53.5 143.5t130.5 57.5
q42 0 83 -21t75 -42t59 -21q31 0 47.5 21t18.5 53l125 -19q-2 -87 -54 -143.5t-131 -56.5z" />
    <glyph glyph-name="Umacron" unicode="&#x16a;" horiz-adv-x="1404" 
d="M702 -20q-245 0 -394.5 144.5t-149.5 405.5v904h219v-897q0 -164 88.5 -258.5t236.5 -94.5q149 0 237.5 94t88.5 257v899h219v-902q0 -262 -151 -407t-394 -145zM948 1642h-491v146h491v-146z" />
    <glyph glyph-name="umacron" unicode="&#x16b;" horiz-adv-x="1179" 
d="M1014 0h-209v131q-48 -68 -123 -109.5t-172 -41.5q-161 0 -259.5 100t-98.5 293v635h206v-605q0 -118 57.5 -176.5t153.5 -58.5q75 0 139.5 49t96.5 133v658h209v-1008zM823 1233h-481v143h481v-143z" />
    <glyph glyph-name="Ubreve" unicode="&#x16c;" horiz-adv-x="1404" 
d="M702 -20q-245 0 -394.5 144.5t-149.5 405.5v904h219v-897q0 -164 88.5 -258.5t236.5 -94.5q149 0 237.5 94t88.5 257v899h219v-902q0 -262 -151 -407t-394 -145zM702 1575q-136 0 -220 73t-85 195h152q0 -57 40 -92t113 -35t113.5 35t42.5 92h152q-1 -122 -88.5 -195
t-219.5 -73z" />
    <glyph glyph-name="ubreve" unicode="&#x16d;" horiz-adv-x="1179" 
d="M1014 0h-209v131q-48 -68 -123 -109.5t-172 -41.5q-161 0 -259.5 100t-98.5 293v635h206v-605q0 -118 57.5 -176.5t153.5 -58.5q75 0 139.5 49t96.5 133v658h209v-1008zM582 1169q-117 0 -192.5 72.5t-76.5 192.5h150q0 -57 31.5 -91t87.5 -34t88 34.5t32 90.5h150
q-1 -120 -78.5 -192.5t-191.5 -72.5z" />
    <glyph glyph-name="Uring" unicode="&#x16e;" horiz-adv-x="1404" 
d="M702 -20q-245 0 -394.5 144.5t-149.5 405.5v904h219v-897q0 -164 88.5 -258.5t236.5 -94.5q149 0 237.5 94t88.5 257v899h219v-902q0 -262 -151 -407t-394 -145zM705 1542q-75 0 -128 50.5t-53 125.5t53 126.5t128 51.5t127.5 -51.5t52.5 -126.5q0 -74 -53 -125t-127 -51
zM705 1640q31 0 54 23t23 55t-23 56t-54 24q-33 0 -55.5 -22.5t-22.5 -57.5q0 -32 23 -55t55 -23z" />
    <glyph glyph-name="uring" unicode="&#x16f;" horiz-adv-x="1179" 
d="M1014 0h-209v131q-48 -68 -123 -109.5t-172 -41.5q-161 0 -259.5 100t-98.5 293v635h206v-605q0 -118 57.5 -176.5t153.5 -58.5q75 0 139.5 49t96.5 133v658h209v-1008zM584 1133q-75 0 -128 50.5t-53 125.5t53 126.5t128 51.5t127.5 -51.5t52.5 -126.5q0 -74 -53 -125
t-127 -51zM584 1231q31 0 54.5 23t23.5 55t-23.5 56t-54.5 24q-33 0 -55.5 -22.5t-22.5 -57.5q0 -32 23 -55t55 -23z" />
    <glyph glyph-name="Uhungarumlaut" unicode="&#x170;" horiz-adv-x="1404" 
d="M702 -20q-245 0 -394.5 144.5t-149.5 405.5v904h219v-897q0 -164 88.5 -258.5t236.5 -94.5q149 0 237.5 94t88.5 257v899h219v-902q0 -262 -151 -407t-394 -145zM911 1567h-147l174 293h192zM627 1567h-142l136 293h180z" />
    <glyph glyph-name="uhungarumlaut" unicode="&#x171;" horiz-adv-x="1179" 
d="M1014 0h-209v131q-48 -68 -123 -109.5t-172 -41.5q-161 0 -259.5 100t-98.5 293v635h206v-605q0 -118 57.5 -176.5t153.5 -58.5q75 0 139.5 49t96.5 133v658h209v-1008zM791 1157h-148l174 293h193zM506 1157h-141l135 293h180z" />
    <glyph glyph-name="Uogonek" unicode="&#x172;" horiz-adv-x="1404" 
d="M872 -414q-86 0 -145 46t-59 132q0 121 94 218q-18 -2 -60 -2q-245 0 -394.5 144.5t-149.5 405.5v904h219v-897q0 -164 88.5 -258.5t236.5 -94.5q149 0 237.5 94t88.5 257v899h219v-902q0 -161 -59 -280.5t-166 -188.5q-56 -40 -92.5 -73t-67.5 -84.5t-31 -104.5
q0 -36 20.5 -53.5t49.5 -17.5q51 0 90 39l78 -103q-36 -37 -88 -58.5t-109 -21.5z" />
    <glyph glyph-name="uogonek" unicode="&#x173;" horiz-adv-x="1179" 
d="M1014 0h-209v131q-48 -68 -123 -109.5t-172 -41.5q-161 0 -259.5 100t-98.5 293v635h206v-605q0 -118 57.5 -176.5t153.5 -58.5q75 0 139.5 49t96.5 133v658h209v-1008zM860 -414q-85 0 -145 44.5t-60 127.5q0 89 64 162t182 139l113 -59q-81 -36 -138 -91t-57 -114
q0 -34 20 -49.5t50 -15.5q51 0 90 39l78 -103q-36 -37 -88 -58.5t-109 -21.5z" />
    <glyph glyph-name="Wcircumflex" unicode="&#x174;" horiz-adv-x="1773" 
d="M1397 0h-226l-284 803l-287 -803h-225l-328 1434h219l252 -1131l299 852h148l299 -856l252 1135h210zM885 1686l-281 -148v162l285 162l280 -162v-162z" />
    <glyph glyph-name="wcircumflex" unicode="&#x175;" horiz-adv-x="1378" 
d="M1065 0h-162l-215 508l-213 -508h-162l-272 1008h205l182 -693l182 447h166l178 -447l187 693h196zM686 1300l-258 -141v162l264 156l260 -156v-162z" />
    <glyph glyph-name="Ycircumflex" unicode="&#x176;" horiz-adv-x="1171" 
d="M694 719v-719h-219v721l-467 713h260l324 -508l323 508h248zM584 1686l-281 -148v162l285 162l280 -162v-162z" />
    <glyph glyph-name="ycircumflex" unicode="&#x177;" horiz-adv-x="958" 
d="M944 1008l-598 -1397h-209l242 563l-363 834h217l254 -607l246 607h211zM481 1300l-258 -141v162l264 156l261 -156v-162z" />
    <glyph glyph-name="Ydieresis" unicode="&#x178;" horiz-adv-x="1171" 
d="M694 719v-719h-219v721l-467 713h260l324 -508l323 508h248zM786 1606q-48 0 -82 33.5t-34 82.5t34 83t82 34q50 0 84.5 -34t34.5 -83t-34.5 -82.5t-84.5 -33.5zM385 1606q-50 0 -83.5 33.5t-33.5 82.5q0 50 34 83.5t83 33.5t83 -33.5t34 -83.5q0 -49 -33.5 -82.5
t-83.5 -33.5z" />
    <glyph glyph-name="Zacute" unicode="&#x179;" horiz-adv-x="1185" 
d="M1120 195v-195h-1061v141l772 1098h-731v195h1014v-142l-770 -1097h776zM666 1567h-170v4l143 289h231v-5z" />
    <glyph glyph-name="zacute" unicode="&#x17a;" horiz-adv-x="933" 
d="M860 176v-176h-788v115l510 716h-498v177h768v-115l-510 -717h518zM535 1157h-170v4l143 289h231v-4z" />
    <glyph glyph-name="Zdotaccent" unicode="&#x17b;" horiz-adv-x="1185" 
d="M1120 195v-195h-1061v141l772 1098h-731v195h1014v-142l-770 -1097h776zM590 1610q-54 0 -90.5 36t-36.5 91t36.5 92t90.5 37q56 0 92.5 -37t36.5 -92t-36.5 -91t-92.5 -36z" />
    <glyph glyph-name="zdotaccent" unicode="&#x17c;" horiz-adv-x="933" 
d="M860 176v-176h-788v115l510 716h-498v177h768v-115l-510 -717h518zM461 1200q-54 0 -90.5 36t-36.5 91t36.5 92t90.5 37q55 0 92 -37t37 -92t-36.5 -91t-92.5 -36z" />
    <glyph glyph-name="Zcaron" unicode="&#x17d;" horiz-adv-x="1185" 
d="M1120 195v-195h-1061v141l772 1098h-731v195h1014v-142l-770 -1097h776zM598 1737l281 147v-162l-285 -161l-281 161v162z" />
    <glyph glyph-name="zcaron" unicode="&#x17e;" horiz-adv-x="933" 
d="M860 176v-176h-788v115l510 716h-498v177h768v-115l-510 -717h518zM465 1341l258 142v-162l-264 -156l-260 156v162z" />
    <glyph glyph-name="florin" unicode="&#x192;" horiz-adv-x="942" 
d="M59 -410q-161 0 -241 107l139 127q41 -55 102 -55q49 0 78.5 32t42.5 105l164 925h-180v177h211l26 153q57 318 326 318q156 0 242 -107l-138 -127q-51 55 -104 55q-47 0 -76.5 -32t-42.5 -107l-26 -153h206v-177h-237l-164 -925q-57 -316 -328 -316z" />
    <glyph glyph-name="Icaron" unicode="&#x1cf;" horiz-adv-x="571" 
d="M395 0h-219v1434h219v-1434zM293 1737l280 147v-162l-284 -161l-281 161v162z" />
    <glyph glyph-name="icaron" unicode="&#x1d0;" 
d="M375 0h-209v1008h209v-1008zM274 1341l258 142v-162l-264 -156l-260 156v162z" />
    <glyph glyph-name="Aringacute" unicode="&#x1fa;" horiz-adv-x="1351" 
d="M672 1217h-2l-183 -533h367zM1317 0h-234l-170 492h-483l-172 -492h-223l514 1434h254zM676 1542q-75 0 -127.5 50.5t-52.5 125.5t52.5 126.5t127.5 51.5t127.5 -51.5t52.5 -126.5q0 -74 -53 -125t-127 -51zM676 1640q31 0 54.5 23t23.5 55t-23.5 56t-54.5 24
q-33 0 -55.5 -22.5t-22.5 -57.5q0 -32 23 -55t55 -23zM752 1982h-170v5l143 288h231v-4z" />
    <glyph glyph-name="aringacute" unicode="&#x1fb;" horiz-adv-x="1085" 
d="M469 156q51 0 96.5 19.5t116.5 66.5l47 32v256l-201 -53q-124 -34 -176.5 -71t-52.5 -103q0 -69 51.5 -108t118.5 -39zM731 104l-14 -12q-131 -108 -285 -108q-65 0 -125.5 21t-108.5 59t-77 98t-29 131q0 127 86.5 203.5t274.5 124.5l276 71q-6 78 -64.5 121t-148.5 43
q-84 0 -145 -37.5t-92 -105.5l-177 73q49 119 165.5 183.5t262.5 64.5q173 0 289 -90q115 -89 115 -274v-670h-201zM537 1133q-75 0 -128 50.5t-53 125.5t53 126.5t128 51.5t127.5 -51.5t52.5 -126.5q0 -74 -53 -125t-127 -51zM537 1231q31 0 54 23t23 55t-23 56t-54 24
q-33 0 -55.5 -22.5t-22.5 -57.5q0 -32 23 -55t55 -23zM612 1573h-170v4l144 289h231v-4z" />
    <glyph glyph-name="AEacute" unicode="&#x1fc;" horiz-adv-x="1896" 
d="M868 1239h-26l-260 -539h313zM1802 0h-872l-25 512h-416l-247 -512h-234l715 1434h1071v-195h-711l17 -334h645v-194h-635l27 -516h665v-195zM1319 1563h-170v4l143 288h232v-4z" />
    <glyph glyph-name="aeacute" unicode="&#x1fd;" horiz-adv-x="1748" 
d="M1202 862q-105 0 -180.5 -63t-85.5 -176h520q-11 116 -82.5 177.5t-171.5 61.5zM467 156q103 0 225 86l70 47q-39 103 -39 223v14l-195 -51q-123 -32 -176 -69.5t-53 -102.5q0 -70 50 -108.5t118 -38.5zM1509 309l148 -104q-57 -104 -172 -163.5t-262 -59.5
q-113 0 -213 43.5t-168 124.5l-74 -52q-164 -114 -340 -114q-64 0 -124 21t-107.5 59t-76 98t-28.5 131q0 126 86.5 201.5t274.5 123.5l274 72q-6 80 -63.5 123t-147.5 43q-84 0 -145 -37.5t-92 -105.5l-177 73q49 119 165.5 183.5t262.5 64.5q106 0 191.5 -38t136.5 -107
q139 145 348 145q201 0 324.5 -127.5t134.5 -343.5q4 -82 4 -96h-737q3 -145 90 -229q90 -84 209 -84q88 0 162 40.5t116 114.5zM950 1157h-170v4l144 289h231v-4z" />
    <glyph glyph-name="Oslashacute" unicode="&#x1fe;" horiz-adv-x="1546" 
d="M322 723q0 -219 114 -371l553 842q-89 59 -217 59q-133 0 -236.5 -71t-158.5 -191.5t-55 -267.5zM772 184q200 0 326.5 153t126.5 386q0 216 -113 360l-553 -841q98 -58 213 -58zM772 -20q-184 0 -332 83l-108 -165h-195l174 264q-102 99 -159.5 243t-57.5 318
q0 157 51.5 294t141 233.5t215.5 152t270 55.5q183 0 336 -86l106 164h195l-172 -262q102 -100 158.5 -242t56.5 -309q0 -164 -53 -304t-144.5 -235.5t-216.5 -149.5t-266 -54zM825 1567h-170v4l144 289h231v-5z" />
    <glyph glyph-name="oslashacute" unicode="&#x1ff;" horiz-adv-x="1155" 
d="M295 508q0 -137 63 -229l336 542q-55 25 -116 25q-123 0 -203 -90.5t-80 -247.5zM578 166q124 0 203 92.5t79 249.5q0 137 -61 223l-336 -541q53 -24 115 -24zM578 -20q-116 0 -216 47l-79 -129h-160l127 204q-77 71 -121.5 175.5t-44.5 230.5q0 119 39 218.5
t106.5 166.5t157.5 104t191 37q119 0 219 -47l75 123h160l-123 -199q77 -71 120.5 -174t43.5 -229q0 -117 -39 -216.5t-106 -167.5t-158 -106t-192 -38zM645 1157h-170v4l143 289h232v-4z" />
    <glyph glyph-name="Scommaaccent" unicode="&#x218;" horiz-adv-x="1232" 
d="M618 -20q-108 0 -200.5 28.5t-169.5 88t-125.5 161.5t-56.5 238l215 18q12 -171 105 -258.5t235 -87.5q122 0 208 60t86 161q0 94 -75 153t-226 105l-127 39q-186 57 -269 146.5t-83 230.5q0 172 135.5 283.5t347.5 111.5q219 0 357.5 -114t142.5 -302v-16l-213 -20v12
q-3 136 -88 194q-85 60 -199 60q-117 0 -192.5 -55.5t-75.5 -143.5q0 -75 55 -119.5t197 -85.5l131 -39q208 -62 306 -164.5t98 -261.5q0 -188 -147 -305.5t-372 -117.5zM651 -487h-127l62 151q-30 9 -55 38.5t-25 70.5q0 49 36.5 82.5t82.5 33.5q50 0 84 -34t34 -82
q0 -55 -36 -135z" />
    <glyph glyph-name="scommaaccent" unicode="&#x219;" horiz-adv-x="976" 
d="M496 -20q-161 0 -276.5 71.5t-158.5 214.5l179 62q32 -88 98.5 -135.5t157.5 -47.5q86 0 141 35.5t55 100.5q0 28 -12.5 49.5t-31 35.5t-52 25.5t-61 18t-72.5 14.5q-156 27 -256 88q-101 64 -101 211q0 142 110 227.5t278 85.5q157 0 256.5 -69t136.5 -185l-178 -57
q-49 147 -215 147q-85 0 -137 -39t-52 -102q0 -71 66 -92q70 -23 159 -37q152 -24 258 -92q105 -65 105 -219q0 -142 -113 -226.5t-284 -84.5zM520 -487h-127l62 151q-30 9 -55 38.5t-25 70.5q0 49 36.5 82.5t82.5 33.5q50 0 84 -34t34 -82q0 -53 -37 -135z" />
    <glyph glyph-name="Tcommaaccent" unicode="&#x21a;" horiz-adv-x="1177" 
d="M1137 1434v-195h-439v-1239h-219v1239h-438v195h1096zM614 -487h-127l62 151q-30 9 -55 38.5t-25 70.5q0 49 36.5 82.5t82.5 33.5q50 0 84.5 -34t34.5 -82q0 -53 -37 -135z" />
    <glyph glyph-name="tcommaaccent" unicode="&#x21b;" horiz-adv-x="751" 
d="M627 213l100 -129q-87 -100 -248 -100q-130 0 -207 72.5t-77 224.5v550h-154v177h156v290h202v-290h297v-177h-297v-534q0 -72 31.5 -103.5t81.5 -31.5q61 0 115 51zM457 -487h-127l61 151q-30 9 -55 38.5t-25 70.5q0 49 36.5 82.5t82.5 33.5q50 0 84.5 -34t34.5 -82
q0 -53 -37 -135z" />
    <glyph glyph-name="dotlessj" unicode="&#x237;" 
d="M166 1008h209v-1127q0 -146 -81.5 -220.5t-215.5 -74.5q-81 0 -151.5 34.5t-108.5 94.5l135 123q43 -69 113 -69q44 0 72 28t28 82v1129z" />
    <glyph glyph-name="circumflex" unicode="&#x2c6;" horiz-adv-x="802" 
d="M399 1278l-280 -148v162l284 162l281 -162v-162z" />
    <glyph glyph-name="caron" unicode="&#x2c7;" horiz-adv-x="802" 
d="M403 1327l281 148v-162l-285 -162l-280 162v162z" />
    <glyph glyph-name="breve" unicode="&#x2d8;" horiz-adv-x="765" 
d="M383 1165q-136 0 -220 73.5t-85 195.5h151q0 -57 40.5 -92t113.5 -35t113.5 35t42.5 92h151q-1 -122 -88 -195.5t-219 -73.5z" />
    <glyph glyph-name="dotaccent" unicode="&#x2d9;" horiz-adv-x="440" 
d="M219 1200q-54 0 -90.5 36t-36.5 91t36.5 92t90.5 37q55 0 92 -37t37 -92t-36.5 -91t-92.5 -36z" />
    <glyph glyph-name="ring" unicode="&#x2da;" horiz-adv-x="563" 
d="M283 1133q-75 0 -128 50.5t-53 125.5t53 126.5t128 51.5t127.5 -51.5t52.5 -126.5q0 -74 -53 -125t-127 -51zM283 1231q31 0 54 23t23 55t-23 56t-54 24q-33 0 -55.5 -22.5t-22.5 -57.5q0 -32 23 -55t55 -23z" />
    <glyph glyph-name="ogonek" unicode="&#x2db;" horiz-adv-x="563" 
d="M297 -414q-85 0 -145 44.5t-60 127.5q0 89 64 162t182 139l113 -59q-81 -36 -138 -91t-57 -114q0 -34 20 -49.5t50 -15.5q51 0 90 39l78 -103q-36 -37 -88 -58.5t-109 -21.5z" />
    <glyph glyph-name="tilde" unicode="&#x2dc;" horiz-adv-x="776" 
d="M500 1178q-43 0 -84.5 20.5t-75.5 41t-57 20.5q-57 0 -68 -74l-123 20q2 86 53.5 143.5t130.5 57.5q42 0 83 -21t75.5 -42t59.5 -21q30 0 46.5 21t18.5 53l125 -19q-2 -87 -53.5 -143.5t-130.5 -56.5z" />
    <glyph glyph-name="hungarumlaut" unicode="&#x2dd;" horiz-adv-x="774" 
d="M518 1157h-147l174 293h192zM233 1157h-141l135 293h181z" />
    <glyph glyph-name="Wgrave" unicode="&#x1e80;" horiz-adv-x="1773" 
d="M1397 0h-226l-284 803l-287 -803h-225l-328 1434h219l252 -1131l299 852h148l299 -856l252 1135h210zM987 1565h-170l-205 288v5h232l143 -289v-4z" />
    <glyph glyph-name="wgrave" unicode="&#x1e81;" horiz-adv-x="1378" 
d="M1065 0h-162l-215 508l-213 -508h-162l-272 1008h205l182 -693l182 447h166l178 -447l187 693h196zM791 1157h-170l-205 289v4h231l144 -289v-4z" />
    <glyph glyph-name="Wacute" unicode="&#x1e82;" horiz-adv-x="1773" 
d="M1397 0h-226l-284 803l-287 -803h-225l-328 1434h219l252 -1131l299 852h148l299 -856l252 1135h210zM961 1565h-170v4l143 289h231v-5z" />
    <glyph glyph-name="wacute" unicode="&#x1e83;" horiz-adv-x="1378" 
d="M1065 0h-162l-215 508l-213 -508h-162l-272 1008h205l182 -693l182 447h166l178 -447l187 693h196zM764 1157h-170v4l143 289h232v-4z" />
    <glyph glyph-name="Wdieresis" unicode="&#x1e84;" horiz-adv-x="1773" 
d="M1397 0h-226l-284 803l-287 -803h-225l-328 1434h219l252 -1131l299 852h148l299 -856l252 1135h210zM1087 1606q-48 0 -82 33.5t-34 82.5t34 83t82 34q50 0 84.5 -34t34.5 -83t-34.5 -82.5t-84.5 -33.5zM686 1606q-50 0 -83.5 33.5t-33.5 82.5q0 50 33.5 83.5t83.5 33.5
t83.5 -33.5t33.5 -83.5q0 -49 -33.5 -82.5t-83.5 -33.5z" />
    <glyph glyph-name="wdieresis" unicode="&#x1e85;" horiz-adv-x="1378" 
d="M1065 0h-162l-215 508l-213 -508h-162l-272 1008h205l182 -693l182 447h166l178 -447l187 693h196zM891 1198q-48 0 -82.5 34t-34.5 83t34.5 83t82.5 34q50 0 84.5 -34t34.5 -83t-34.5 -83t-84.5 -34zM489 1198q-49 0 -82.5 33.5t-33.5 83.5t33.5 83.5t82.5 33.5t83 -34
t34 -83t-34 -83t-83 -34z" />
    <glyph glyph-name="Ygrave" unicode="&#x1ef2;" horiz-adv-x="1171" 
d="M694 719v-719h-219v721l-467 713h260l324 -508l323 508h248zM686 1565h-170l-205 288v5h232l143 -289v-4z" />
    <glyph glyph-name="ygrave" unicode="&#x1ef3;" horiz-adv-x="958" 
d="M944 1008l-598 -1397h-209l242 563l-363 834h217l254 -607l246 607h211zM584 1157h-170l-205 289v4h231l144 -289v-4z" />
    <glyph glyph-name="endash" unicode="&#x2013;" horiz-adv-x="1142" 
d="M1053 553h-963v170h963v-170z" />
    <glyph glyph-name="emdash" unicode="&#x2014;" horiz-adv-x="1624" 
d="M1534 553h-1444v170h1444v-170z" />
    <glyph glyph-name="quoteleft" unicode="&#x2018;" horiz-adv-x="434" 
d="M172 1434h184l-86 -406h-198z" />
    <glyph glyph-name="quoteright" unicode="&#x2019;" horiz-adv-x="434" 
d="M262 1028h-184l86 406h198z" />
    <glyph glyph-name="quotesinglbase" unicode="&#x201a;" horiz-adv-x="434" 
d="M262 -166h-184l86 406h198z" />
    <glyph glyph-name="quotedblleft" unicode="&#x201c;" horiz-adv-x="761" 
d="M514 1434h170l-86 -406h-184zM174 1434h170l-86 -406h-186z" />
    <glyph glyph-name="quotedblright" unicode="&#x201d;" horiz-adv-x="761" 
d="M248 1028h-170l86 406h184zM588 1028h-170l86 406h186z" />
    <glyph glyph-name="quotedblbase" unicode="&#x201e;" horiz-adv-x="761" 
d="M248 -166h-170l86 406h184zM588 -166h-170l86 406h186z" />
    <glyph glyph-name="dagger" unicode="&#x2020;" horiz-adv-x="962" 
d="M899 1075v-176h-315v-899h-203v899h-318v176h318v359h203v-359h315z" />
    <glyph glyph-name="daggerdbl" unicode="&#x2021;" horiz-adv-x="962" 
d="M899 559v-180h-317v-379h-201v379h-318v180h318v350h-318v181h318v344h201v-344h317v-181h-317v-350h317z" />
    <glyph glyph-name="bullet" unicode="&#x2022;" horiz-adv-x="770" 
d="M385 403q-98 0 -165.5 68t-67.5 168q0 97 67 164q66 69 166 69t166 -69q70 -67 70 -164q0 -99 -68.5 -167.5t-167.5 -68.5z" />
    <glyph glyph-name="ellipsis" unicode="&#x2026;" horiz-adv-x="1597" 
d="M272 -23q-60 0 -100.5 42t-40.5 102q0 58 41 99.5t100 41.5q57 0 99.5 -42t42.5 -99q0 -59 -42 -101.5t-100 -42.5zM799 -23q-60 0 -101 42t-41 102q0 58 41.5 99.5t100.5 41.5q57 0 99 -42t42 -99q0 -60 -42 -102t-99 -42zM1327 -23q-60 0 -100.5 42t-40.5 102
q0 58 41 99.5t100 41.5q57 0 99 -42t42 -99q0 -60 -42 -102t-99 -42z" />
    <glyph glyph-name="perthousand" unicode="&#x2030;" horiz-adv-x="2899" 
d="M483 629q-155 0 -258 112q-104 113 -104 303q0 192 104 302q107 110 258 110q156 0 260 -110q105 -111 105 -302q0 -190 -107 -303q-103 -112 -258 -112zM483 797q80 0 130.5 66t50.5 181q0 112 -51.5 178t-129.5 66t-128 -65t-50 -179t50.5 -180.5t127.5 -66.5zM596 -25
l-145 105l989 1380l145 -104zM1552 -20q-155 0 -258 112q-104 113 -104 303q0 191 104 301q108 111 258 111q155 0 260 -111t105 -301t-107 -303q-103 -112 -258 -112zM1552 147q80 0 130.5 66.5t50.5 181.5q0 112 -51.5 178t-129.5 66t-128 -65t-50 -179t50.5 -181
t127.5 -67zM2415 -20q-155 0 -258 112q-105 114 -105 303q0 190 105 301q108 111 258 111q155 0 260 -111q104 -110 104 -301t-106 -303q-103 -112 -258 -112zM2415 147q80 0 130 66.5t50 181.5q0 112 -51.5 178t-128.5 66q-78 0 -128.5 -65t-50.5 -179t51 -181t128 -67z
" />
    <glyph glyph-name="guilsinglleft" unicode="&#x2039;" horiz-adv-x="696" 
d="M592 178l-135 -117l-387 451l389 453l131 -115l-289 -334z" />
    <glyph glyph-name="guilsinglright" unicode="&#x203a;" horiz-adv-x="696" 
d="M104 848l136 117l387 -451l-389 -453l-132 115l289 334z" />
    <glyph glyph-name="fraction" unicode="&#x2044;" horiz-adv-x="520" 
d="M-162 -25l-145 105l989 1380l145 -104z" />
    <glyph glyph-name="twoinferior" unicode="&#x2082;" horiz-adv-x="716" 
d="M655 141v-141h-604v113l350 340q44 44 62 74t18 61q0 45 -33 72.5t-88 27.5q-56 0 -90 -32.5t-34 -84.5h-168q0 116 82.5 188t211.5 72q128 0 209.5 -70t81.5 -171q0 -60 -24.5 -109t-93.5 -112l-246 -228h366z" />
    <glyph glyph-name="fourinferior" unicode="&#x2084;" horiz-adv-x="755" 
d="M727 332v-137h-135v-195h-160v195h-403v108l297 514h178l-287 -485h217v155h158v-155h135z" />
    <glyph glyph-name="Euro" unicode="&#x20ac;" horiz-adv-x="1486" 
d="M1264 309l141 -153q-86 -86 -194 -131t-255 -45q-226 0 -387.5 128t-218.5 353h-219v157h193q-2 27 -2 80q0 49 2 72h-193v158h219q60 219 219 342q165 127 385 127q150 0 256.5 -45t194.5 -133l-141 -154q-135 139 -310 139q-133 0 -233 -74.5t-148 -201.5h447v-158
h-481q-4 -46 -4 -72t4 -80h481v-157h-447q45 -133 147 -212t236 -79q169 0 308 139z" />
    <glyph glyph-name="trademark" unicode="&#x2122;" horiz-adv-x="1746" 
d="M711 1434v-150h-230v-629h-159v629h-230v150h619zM1024 655h-156v779h179l176 -248l178 248h176v-779h-154v566l-166 -226h-69l-164 226v-566z" />
    <glyph glyph-name="estimated" unicode="&#x212e;" horiz-adv-x="1660" 
d="M829 -20q-205 0 -369.5 79.5t-261 232t-96.5 351.5q0 127 39 236.5t107 187.5t159.5 134t197.5 83t220 27q331 0 526.5 -186.5t207.5 -499.5h-1160q-10 0 -15 -1.5t-9 -9t-4 -22.5v-338q0 -29 34 -66t91.5 -72t146.5 -59t186 -24q139 0 263 58t200 151h133
q-126 -137 -272.5 -199.5t-323.5 -62.5zM825 1257q-112 0 -218 -30t-171 -78t-65 -98v-340q0 -19 6.5 -26t23.5 -7h852q22 0 28.5 7t6.5 26v340q0 51 -72 99.5t-179.5 77.5t-211.5 29z" />
    <glyph glyph-name="minus" unicode="&#x2212;" horiz-adv-x="1196" 
d="M1092 614h-988v181h988v-181z" />
    <glyph glyph-name="approxequal" unicode="&#x2248;" horiz-adv-x="1130" 
d="M762 297q-50 0 -98 18.5t-84 45t-69.5 53t-68 45t-65.5 18.5q-52 0 -89 -41t-44 -114l-156 24q8 127 82 216t199 89q61 0 120.5 -28t97.5 -61t83.5 -61t83.5 -28q52 0 89 41.5t44 114.5l155 -25q-5 -128 -79 -217.5t-201 -89.5zM762 741q-61 0 -120.5 28.5t-97.5 62
t-83.5 62t-83.5 28.5q-52 0 -89 -41.5t-44 -114.5l-156 25q8 127 82 216t199 89q61 0 120.5 -28t97.5 -61t83.5 -61t83.5 -28q52 0 89 41t44 114l155 -24q-5 -128 -79 -218t-201 -90z" />
    <glyph glyph-name="notequal" unicode="&#x2260;" horiz-adv-x="1191" 
d="M1059 569v-176h-514l-123 -262h-186l122 262h-225v176h307l127 267h-434v176h516l123 262h184l-122 -262h225v-176h-307l-125 -267h432z" />
    <glyph glyph-name="commaaccent" unicode="&#xf6c3;" horiz-adv-x="401" 
d="M227 -487h-127l62 151q-30 9 -55 38.5t-25 70.5q0 49 36.5 82.5t82.5 33.5q50 0 84 -34t34 -82q0 -55 -36 -135z" />
    <glyph glyph-name="thinspace" horiz-adv-x="59" 
 />
    <glyph glyph-name="registered.alt" horiz-adv-x="1720" 
d="M860 -25q-202 0 -373.5 99.5t-271.5 271t-100 373.5q0 101 27 197t75 177.5t117 149.5t150.5 116t178 74.5t197.5 26.5q202 0 373 -99t271 -269.5t100 -372.5q0 -203 -100 -374t-271 -270.5t-373 -99.5zM860 123q122 0 231.5 47t188 127t124.5 190t46 232
q0 162 -78 298.5t-214 216t-298 79.5q-161 0 -297 -79.5t-214.5 -216t-78.5 -298.5t78.5 -299.5t214.5 -217t297 -79.5zM866 981h-127v-201h133q51 0 82 28t31 73q0 49 -32 74.5t-87 25.5zM1182 332h-183l-176 321h-84v-321h-157v778h307q114 0 186 -60.5t72 -166.5
q0 -77 -42 -132t-114 -81z" />
    <glyph glyph-name="i.TRK" 
d="M270 1194q-56 0 -93.5 38t-37.5 93q0 57 37.5 94t93.5 37t93.5 -37t37.5 -94q0 -55 -37.5 -93t-93.5 -38zM375 0h-209v1008h209v-1008z" />
    <glyph glyph-name="dieresis.i" horiz-adv-x="757" 
d="M537 1217q-44 0 -74.5 30t-30.5 74q0 43 30.5 72.5t74.5 29.5q43 0 72.5 -29.5t29.5 -72.5q0 -44 -29.5 -74t-72.5 -30zM221 1217q-43 0 -72.5 30t-29.5 74q0 43 29.5 72.5t72.5 29.5q44 0 74.5 -29.5t30.5 -72.5q0 -44 -30.5 -74t-74.5 -30z" />
    <glyph glyph-name="commaaccentup" horiz-adv-x="401" 
d="M174 1526h127l-61 -152q30 -9 54.5 -38t24.5 -70q0 -49 -36 -83t-82 -34q-50 0 -84.5 34.5t-34.5 82.5q0 53 37 135z" />
    <glyph glyph-name="circumflex.lc" horiz-adv-x="708" 
d="M350 1300l-258 -141v162l264 156l260 -156v-162z" />
    <glyph glyph-name="caron.lc" horiz-adv-x="708" 
d="M358 1341l258 142v-162l-264 -156l-260 156v162z" />
    <glyph glyph-name="breve.lc" horiz-adv-x="753" 
d="M377 1169q-117 0 -192 72.5t-76 192.5h149q0 -57 31.5 -91t87.5 -34t88.5 34.5t32.5 90.5h149q-1 -120 -78.5 -192.5t-191.5 -72.5z" />
    <glyph glyph-name="breve.i" horiz-adv-x="731" 
d="M367 1171q-115 0 -188.5 71t-74.5 192h150q0 -57 29.5 -91t83.5 -34t83 34t29 91h148q-1 -120 -75 -191.5t-185 -71.5z" />
    <glyph glyph-name="dieresis.lc" horiz-adv-x="876" 
d="M639 1198q-48 0 -82.5 34t-34.5 83t34.5 83t82.5 34q50 0 84.5 -34t34.5 -83t-34.5 -83t-84.5 -34zM238 1198q-50 0 -83.5 34t-33.5 83t33.5 83t83.5 34q49 0 82.5 -33.5t33.5 -83.5t-33.5 -83.5t-82.5 -33.5z" />
    <glyph glyph-name="tilde.lc" horiz-adv-x="776" 
d="M500 1178q-43 0 -84.5 20.5t-75.5 41t-57 20.5q-57 0 -68 -74l-123 20q2 86 53.5 143.5t130.5 57.5q42 0 83 -21t75.5 -42t59.5 -21q30 0 46.5 21t18.5 53l125 -19q-2 -87 -53.5 -143.5t-130.5 -56.5z" />
    <glyph glyph-name="macron.lc" horiz-adv-x="698" 
d="M590 1233h-481v143h481v-143z" />
    <glyph glyph-name="zero.onum" horiz-adv-x="1261" 
d="M631 -20q-237 0 -381 171t-144 500q0 165 40.5 293.5t112 209t166 122t206.5 41.5q114 0 208.5 -41t165.5 -121t110.5 -208.5t39.5 -295.5q0 -166 -40 -296t-111 -211t-165.5 -122.5t-207.5 -41.5zM631 166q147 0 228 127t81 358q0 230 -83 354.5t-226 124.5
q-148 0 -228.5 -122t-80.5 -357q0 -231 81 -358t228 -127z" />
    <glyph glyph-name="one.onum" horiz-adv-x="776" 
d="M602 1294v-1294h-207v1059l-323 -162l-19 193l408 204h141z" />
    <glyph glyph-name="two.onum" horiz-adv-x="1062" 
d="M963 180v-180h-891v143l524 514q87 85 120.5 146t33.5 129q0 86 -61.5 142t-160.5 56q-106 0 -167.5 -58t-69.5 -154h-205q9 178 131 288q126 111 313 111q200 0 317.5 -109.5t117.5 -271.5q0 -101 -50.5 -194.5t-166.5 -202.5l-381 -359h596z" />
    <glyph glyph-name="three.onum" horiz-adv-x="1101" 
d="M535 -18q-204 0 -334 106q-131 107 -140 277h207q14 -89 84.5 -145t182.5 -56q111 0 184.5 60t73.5 153t-76 153t-193 60h-170v174h172q112 0 177 54t65 136q0 81 -64.5 132t-164.5 51t-165 -46.5t-75 -129.5h-203q17 166 141.5 261t303.5 95q196 0 317 -103t121 -249
q0 -93 -52.5 -166.5t-135.5 -112.5q98 -40 157.5 -122t59.5 -195q0 -166 -135 -276.5t-338 -110.5z" />
    <glyph glyph-name="four.onum" horiz-adv-x="1099" 
d="M1047 479v-176h-187v-303h-203v303h-606v131l463 860h221l-444 -815h368v254h201v-254h187z" />
    <glyph glyph-name="five.onum" horiz-adv-x="1101" 
d="M541 -20q-180 0 -302 89t-155 230l195 53q20 -88 92 -140t172 -52q115 0 188.5 69.5t73.5 178.5q0 105 -74 176t-190 71q-136 0 -240 -104h-180l78 743h762v-178h-584l-41 -342q105 62 227 62q206 0 330.5 -120t124.5 -304q0 -125 -64.5 -224.5t-173 -153.5t-239.5 -54z
" />
    <glyph glyph-name="six.onum" horiz-adv-x="1161" 
d="M1069 408q0 -184 -136.5 -306t-334.5 -122q-92 0 -171.5 25.5t-151 90t-111.5 162.5q-58 146 -58 340q0 234 46 375t133 221q123 123 342 123q161 0 278 -75.5t158 -209.5l-189 -59q-29 75 -95.5 118.5t-153.5 43.5q-133 0 -205 -80q-51 -54 -77 -144.5t-34 -238.5
q41 69 126.5 110t189.5 41q197 0 320.5 -119.5t123.5 -295.5zM598 160q111 0 186.5 68t75.5 171q0 104 -75.5 174t-186.5 70q-106 0 -182 -70t-76 -174q0 -101 72 -170t186 -69z" />
    <glyph glyph-name="seven.onum" horiz-adv-x="970" 
d="M920 1145l-535 -1145h-233l530 1116h-635v178h873v-149z" />
    <glyph glyph-name="eight.onum" horiz-adv-x="1126" 
d="M563 -20q-204 0 -334.5 109.5t-130.5 275.5q0 98 53.5 181.5t145.5 135.5q-76 46 -119 117.5t-43 161.5q0 151 123.5 253.5t304.5 102.5q185 0 309 -103q123 -102 123 -253q0 -89 -43.5 -160.5t-120.5 -116.5q93 -52 145 -134.5t52 -184.5q0 -165 -132.5 -275
t-332.5 -110zM563 1141q-102 0 -164.5 -54.5t-62.5 -134.5q0 -81 65 -134.5t162 -53.5q100 0 165 53t65 135q0 80 -64 134.5t-166 54.5zM563 158q118 0 188 62t70 153q0 92 -72 154.5t-186 62.5t-186 -62t-72 -155q0 -89 72.5 -152t185.5 -63z" />
    <glyph glyph-name="nine.onum" horiz-adv-x="1161" 
d="M563 1137q-111 0 -186.5 -68.5t-75.5 -171.5q0 -104 75.5 -174t186.5 -70q104 0 180 70q78 72 78 174t-72 171t-186 69zM535 -20q-161 0 -278.5 75t-158.5 209l189 60q29 -75 96 -118.5t154 -43.5q132 0 204 80q51 54 77 144.5t34 238.5q-41 -69 -126 -110.5t-189 -41.5
q-197 0 -321 120t-124 296q0 184 136.5 306t334.5 122q92 0 171.5 -26t151 -90.5t111.5 -162.5q58 -146 58 -340q0 -235 -45.5 -375.5t-132.5 -220.5q-122 -122 -342 -122z" />
    <glyph glyph-name="Euro.onum" horiz-adv-x="1400" 
d="M1192 283l135 -142q-83 -78 -184.5 -118.5t-241.5 -40.5q-214 0 -367 115t-208 319h-211v143h186q-2 25 -2 74q0 45 2 63h-186v144h211q55 192 209 307t364 115q141 0 241.5 -41t186.5 -121l-135 -142q-136 127 -293 127q-126 0 -220.5 -66t-139.5 -179h422v-144h-455
q-4 -36 -4 -63q0 -24 4 -74h455v-143h-422q45 -119 140 -188.5t222 -69.5q158 0 291 125z" />
    <glyph glyph-name="dollar.onum" horiz-adv-x="1196" 
d="M362 901q0 -63 42.5 -104t148.5 -66v336q-86 -12 -138.5 -56.5t-52.5 -109.5zM895 338q0 125 -203 176v-350q89 13 146 58t57 116zM692 -2v-188h-139v186q-93 6 -169 33t-138 76.5t-99 130.5t-43 188l201 16q7 -127 74 -194t174 -82v377l-41 8q-179 31 -264.5 120.5
t-85.5 223.5q0 140 108.5 233t282.5 107v178h139v-180q181 -19 287 -116.5t106 -258.5l-196 -18q0 101 -53 157t-144 70v-363l21 -4q385 -73 385 -348q0 -147 -112.5 -242.5t-293.5 -109.5z" />
    <glyph glyph-name="sterling.onum" horiz-adv-x="1153" 
d="M1055 168v-168h-926v168h119q75 38 118.5 99t43.5 130q0 61 -58 168h-227v156h143q-41 84 -41 172q0 163 119.5 266t294.5 103q184 0 299 -103q117 -102 123 -260l-203 -2q-2 83 -61.5 135.5t-155.5 52.5t-153.5 -52.5t-57.5 -139.5q0 -79 49 -172h359v-156h-273
q43 -84 43 -155q0 -73 -35 -136t-88 -106h568z" />
    <glyph glyph-name="yen.onum" horiz-adv-x="1218" 
d="M1020 346v-143h-311v-203h-201v203h-309v143h309v137h-309v144h290l-428 612h244l311 -455l312 455h229l-426 -612h289v-144h-311v-137h311z" />
    <glyph glyph-name="percent.onum" horiz-adv-x="1929" 
d="M563 -23l-137 97l936 1245l139 -94zM457 567q-145 0 -248 103q-98 101 -98 272q0 172 100 272q103 103 246 103q145 0 248 -103q100 -100 100 -272q0 -169 -100 -272q-103 -103 -248 -103zM457 721q75 0 122.5 60t47.5 161q0 102 -48 160.5t-122 58.5q-75 0 -121.5 -58.5
t-46.5 -160.5q0 -101 46.5 -161t121.5 -60zM1470 -18q-145 0 -247 102q-99 102 -99 272q0 172 101 273q102 102 245 102q146 0 248 -102q101 -101 101 -273q0 -168 -101 -272q-102 -102 -248 -102zM1470 135q75 0 122.5 60t47.5 161q0 102 -48 160.5t-122 58.5
q-75 0 -121 -58.5t-46 -160.5q0 -101 46 -161t121 -60z" />
    <glyph glyph-name="perthousand.onum" horiz-adv-x="2748" 
d="M563 -23l-137 97l936 1245l139 -94zM457 567q-145 0 -248 103q-98 101 -98 272q0 172 100 272q103 103 246 103q145 0 248 -103q100 -100 100 -272q0 -169 -100 -272q-103 -103 -248 -103zM457 721q75 0 122.5 60t47.5 161q0 102 -48 160.5t-122 58.5q-75 0 -121.5 -58.5
t-46.5 -160.5q0 -101 46.5 -161t121.5 -60zM1470 -18q-145 0 -247 102q-99 102 -99 272q0 172 101 273q102 102 245 102q146 0 248 -102q101 -101 101 -273q0 -168 -101 -272q-102 -102 -248 -102zM2292 -18q-146 0 -248 102q-100 100 -100 272q0 173 100 273
q102 102 248 102t245 -102q101 -101 101 -273q0 -168 -101 -272q-102 -102 -245 -102zM1470 135q75 0 122.5 60t47.5 161q0 102 -48 160.5t-122 58.5q-75 0 -121 -58.5t-46 -160.5q0 -101 46 -161t121 -60zM2292 135q73 0 120.5 60t47.5 161t-48 160t-120 59
q-75 0 -122.5 -58.5t-47.5 -160.5q0 -101 47.5 -161t122.5 -60z" />
    <glyph glyph-name="zero.tlf" horiz-adv-x="1282" 
d="M641 -18q-184 0 -316 109.5t-169 307.5q-31 143 -31 322q0 174 31 317q41 198 172 308t313 110q186 0 315 -109t170 -309q31 -143 31 -317q0 -179 -31 -322q-37 -197 -169.5 -307t-315.5 -110zM641 186q97 0 164 56t94 157q35 129 35 322q0 196 -33 317q-26 103 -94 158
t-166 55q-99 0 -166.5 -54.5t-93.5 -158.5q-33 -112 -33 -317q0 -193 35 -322q27 -101 94 -157t164 -56z" />
    <glyph glyph-name="one.tlf" horiz-adv-x="1282" 
d="M1139 197v-197h-928v197h397v979l-342 -181l-18 209l428 230h149v-1237h314z" />
    <glyph glyph-name="two.tlf" horiz-adv-x="1282" 
d="M1092 195v-195h-936v154l551 571q92 95 127.5 163t35.5 144q0 95 -65 159t-168 64q-113 0 -178.5 -65t-73.5 -174h-215q9 195 139 319q132 123 328 123q106 0 194 -33.5t145 -91.5t88.5 -134.5t31.5 -162.5q0 -111 -54 -214.5t-176 -225.5l-405 -401h631z" />
    <glyph glyph-name="three.tlf" horiz-adv-x="1282" 
d="M610 -20q-214 0 -350 118q-138 120 -147 305h215q18 -101 91.5 -164t190.5 -63t195 68t78 172t-80 171.5t-203 67.5h-178v189h182q116 0 184 60t68 153q0 91 -68.5 148t-173.5 57q-106 0 -174 -52t-78 -145h-212q17 184 147.5 288.5t318.5 104.5q207 0 334 -111.5
t127 -279.5q0 -102 -55.5 -185t-142.5 -122q103 -45 166 -136.5t63 -215.5q0 -182 -142.5 -305t-355.5 -123z" />
    <glyph glyph-name="four.tlf" horiz-adv-x="1282" 
d="M1174 526v-190h-197v-336h-209v336h-639v139l487 959h230l-467 -908h391v285h207v-285h197z" />
    <glyph glyph-name="five.tlf" horiz-adv-x="1282" 
d="M651 -23q-194 0 -319 101q-125 102 -160 252l203 59q20 -98 96.5 -156.5t181.5 -58.5q123 0 202 78t79 199q0 118 -80.5 197t-202.5 79q-142 0 -252 -117h-188l82 824h801v-195h-615l-43 -385q101 70 240 70q216 0 347.5 -134.5t131.5 -336.5q0 -103 -39.5 -192.5
t-107.5 -151.5t-160.5 -97t-196.5 -35z" />
    <glyph glyph-name="six.tlf" horiz-adv-x="1282" 
d="M1159 449q0 -132 -67 -241t-180.5 -170t-249.5 -61q-139 0 -269 68q-129 72 -192 244q-58 159 -58 373q0 269 50 421q54 154 135 238q72 75 161.5 106t204.5 31q168 0 291.5 -83.5t167.5 -231.5l-199 -66q-31 87 -100.5 135t-163.5 48q-133 0 -215 -91q-54 -62 -82 -160
t-35 -261q44 75 133 118t199 43q207 0 338 -133t131 -327zM664 174q118 0 197 76t79 192q0 117 -82 193q-81 78 -194 78q-114 0 -193 -76q-80 -77 -80 -195q0 -114 76 -191t197 -77z" />
    <glyph glyph-name="seven.tlf" horiz-adv-x="1282" 
d="M1100 1272l-561 -1272h-242l553 1239h-668v195h918v-162z" />
    <glyph glyph-name="eight.tlf" horiz-adv-x="1282" 
d="M641 -23q-215 0 -352 121t-137 303q0 111 56 204t154 151q-80 51 -126 130.5t-46 176.5q0 168 130 281.5t321 113.5q196 0 324.5 -113t128.5 -282q0 -97 -46 -175.5t-128 -129.5q98 -56 154 -149.5t56 -207.5q0 -180 -139 -302t-350 -122zM641 1266q-108 0 -174 -61.5
t-66 -151.5q0 -88 69 -148.5t171 -60.5q107 0 175.5 60t68.5 149q0 90 -68 151.5t-176 61.5zM641 170q124 0 199 70.5t75 173.5q0 102 -76.5 171.5t-197.5 69.5q-122 0 -199 -71q-75 -69 -75 -170q0 -100 75 -172q78 -72 199 -72z" />
    <glyph glyph-name="nine.tlf" horiz-adv-x="1282" 
d="M618 1262q-118 0 -197 -76.5t-79 -192.5q0 -117 80 -194q82 -76 196 -76t193 76q80 77 80 194q0 115 -76 192t-197 77zM588 -23q-167 0 -291 84t-168 232l199 65q31 -87 100.5 -134.5t163.5 -47.5q134 0 215 90q54 62 82 160.5t35 261.5q-44 -75 -133 -118.5t-199 -43.5
q-207 0 -338 133.5t-131 327.5q0 132 67 240.5t181 169.5t250 61q143 0 266 -69q130 -68 194 -242q58 -159 58 -373q0 -275 -52 -424q-49 -148 -133 -235q-72 -75 -161.5 -106.5t-204.5 -31.5z" />
    <glyph glyph-name="space.tlf" horiz-adv-x="641" 
 />
    <glyph glyph-name="period.tlf" horiz-adv-x="641" 
d="M322 -23q-60 0 -101 42t-41 102q0 58 41.5 99.5t100.5 41.5q57 0 99 -42t42 -99q0 -60 -42 -102t-99 -42z" />
    <glyph glyph-name="comma.tlf" horiz-adv-x="641" 
d="M270 -324l-110 84q5 7 29.5 42t33 48t25.5 40t27 48.5t18 43.5q-49 7 -81 47t-32 92q0 58 41.5 99.5t100.5 41.5t100 -42t41 -109q0 -117 -62 -232q-64 -119 -131 -203z" />
    <glyph glyph-name="quoteright.tlf" horiz-adv-x="641" 
d="M369 1028h-185l86 406h199z" />
    <glyph glyph-name="zero.sup" horiz-adv-x="833" 
d="M418 705q-162 0 -253 108.5t-91 312.5t91 313t253 109t252 -108.5t90 -313.5q0 -202 -90.5 -311.5t-251.5 -109.5zM418 852q168 0 168 274q0 131 -43.5 203t-124.5 72q-84 0 -127 -70.5t-43 -204.5q0 -274 170 -274z" />
    <glyph glyph-name="one.sup" 
d="M420 719h-172v624l-203 -88l-12 158l284 123h103v-817z" />
    <glyph glyph-name="two.sup" horiz-adv-x="716" 
d="M655 860v-141h-604v112l350 340q44 44 62 74.5t18 61.5q0 45 -33 72.5t-88 27.5q-56 0 -90 -32.5t-34 -84.5h-168q0 116 82.5 188t211.5 72q128 0 209.5 -70t81.5 -171q0 -61 -24.5 -110t-93.5 -112l-246 -227h366z" />
    <glyph glyph-name="three.sup" horiz-adv-x="743" 
d="M360 707q-142 0 -228 67.5t-87 183.5h168q1 -53 41 -84.5t104 -31.5t104 32t40 87q0 57 -48.5 87.5t-121.5 30.5h-92v133h84q82 0 121.5 29.5t39.5 77.5q0 44 -33 70t-90 26q-56 0 -92.5 -29.5t-36.5 -76.5h-165q0 105 84.5 173t214.5 68q133 0 211.5 -63t78.5 -158
q0 -59 -35.5 -104.5t-95.5 -71.5q70 -26 110 -78t40 -125q0 -94 -82 -170q-79 -73 -234 -73z" />
    <glyph glyph-name="four.sup" horiz-adv-x="755" 
d="M727 1051v-138h-135v-194h-160v194h-403v109l297 514h178l-287 -485h217v155h158v-155h135z" />
    <glyph glyph-name="five.sup" horiz-adv-x="733" 
d="M365 707q-118 0 -199 51.5t-107 130.5l154 55q15 -42 54 -72t93 -30q66 0 107 37t41 100q0 59 -42 96t-106 37q-39 0 -72 -14t-50 -31h-148l39 469h522v-141h-377l-18 -181q53 29 133 29q126 0 207.5 -71.5t81.5 -190.5q0 -130 -88.5 -202t-224.5 -72z" />
    <glyph glyph-name="six.sup" horiz-adv-x="772" 
d="M709 979q0 -118 -87 -196t-223 -78q-148 0 -236.5 102t-88.5 305q0 216 86.5 326t253.5 110q112 0 188.5 -50.5t104.5 -129.5l-142 -55q-14 45 -53.5 72.5t-95.5 27.5q-170 0 -180 -235q72 65 182 65q131 0 211 -75.5t80 -188.5zM399 838q64 0 104 40t40 99
q0 58 -41 97.5t-103 39.5q-64 0 -105.5 -38t-41.5 -99q0 -62 40.5 -100.5t106.5 -38.5z" />
    <glyph glyph-name="seven.sup" horiz-adv-x="649" 
d="M264 719h-184l350 676h-403v141h600v-115z" />
    <glyph glyph-name="eight.sup" horiz-adv-x="757" 
d="M379 705q-139 0 -227.5 70t-88.5 175q0 61 32.5 111.5t90.5 83.5q-102 70 -102 174q0 100 83 165.5t212 65.5q128 0 210.5 -65.5t82.5 -165.5q0 -50 -27.5 -95.5t-75.5 -78.5q58 -33 90.5 -83.5t32.5 -111.5q0 -106 -87 -175.5t-226 -69.5zM379 1421q-62 0 -100.5 -30
t-38.5 -78q0 -49 39 -79t100 -30q62 0 99.5 30t37.5 79q0 47 -38.5 77.5t-98.5 30.5zM379 838q68 0 110.5 34t42.5 86q0 54 -42.5 87.5t-110.5 33.5q-70 0 -113 -33t-43 -88q0 -51 44 -85.5t112 -34.5z" />
    <glyph glyph-name="nine.sup" horiz-adv-x="778" 
d="M373 1415q-64 0 -104 -40t-40 -99q0 -58 41 -97.5t103 -39.5q64 0 105.5 38t41.5 99q0 62 -40.5 100.5t-106.5 38.5zM358 705q-112 0 -188 50.5t-104 129.5l141 55q14 -45 53.5 -72.5t95.5 -27.5q171 0 181 235q-72 -65 -183 -65q-131 0 -211 75.5t-80 188.5
q0 118 87 196t223 78q148 0 236.5 -102t88.5 -305q0 -216 -86.5 -326t-253.5 -110z" />
    <glyph glyph-name="zero.num" horiz-adv-x="833" 
d="M418 602q-162 0 -253 109t-91 313t91 313t253 109t252 -108.5t90 -313.5q0 -202 -90.5 -312t-251.5 -110zM418 750q168 0 168 274q0 131 -43.5 202.5t-124.5 71.5q-170 0 -170 -274t170 -274z" />
    <glyph glyph-name="one.num" 
d="M420 616h-172v625l-203 -88l-12 158l284 123h103v-818z" />
    <glyph glyph-name="two.num" horiz-adv-x="716" 
d="M655 758v-142h-604v113l350 340q44 44 62 74t18 61q0 45 -33 73t-88 28q-56 0 -90 -32.5t-34 -84.5h-168q0 116 82.5 188t211.5 72q128 0 209.5 -70.5t81.5 -171.5q0 -60 -24.5 -109t-93.5 -112l-246 -227h366z" />
    <glyph glyph-name="three.num" horiz-adv-x="743" 
d="M360 604q-142 0 -228 68t-87 184h168q1 -54 41 -85.5t104 -31.5t104 32t40 87q0 57 -48.5 88t-121.5 31h-92v133h84q82 0 121.5 29.5t39.5 77.5q0 44 -33 70t-90 26q-56 0 -92.5 -30t-36.5 -77h-165q0 105 85 173.5t214 68.5q133 0 211.5 -63t78.5 -158
q0 -59 -35.5 -104.5t-95.5 -71.5q70 -26 110 -78t40 -125q0 -94 -82 -170q-80 -74 -234 -74z" />
    <glyph glyph-name="four.num" horiz-adv-x="755" 
d="M727 948v-137h-135v-195h-160v195h-403v109l297 514h178l-287 -486h217v156h158v-156h135z" />
    <glyph glyph-name="five.num" horiz-adv-x="733" 
d="M365 604q-118 0 -199 51.5t-107 130.5l154 56q15 -42 54.5 -72.5t92.5 -30.5q66 0 107 37.5t41 100.5q0 59 -42 96t-106 37q-39 0 -72 -14t-50 -31h-148l39 469h522v-142h-377l-18 -180q53 29 133 29q126 0 207.5 -71.5t81.5 -190.5q0 -130 -88.5 -202.5t-224.5 -72.5z
" />
    <glyph glyph-name="six.num" horiz-adv-x="772" 
d="M709 877q0 -118 -87.5 -196.5t-222.5 -78.5q-148 0 -236.5 102.5t-88.5 305.5q0 216 86.5 326t253.5 110q112 0 188.5 -50.5t104.5 -129.5l-142 -56q-14 45 -53.5 73t-95.5 28q-170 0 -180 -236q74 66 182 66q131 0 211 -75.5t80 -188.5zM399 735q64 0 104 40t40 99
q0 58 -41 98t-103 40q-64 0 -105.5 -38.5t-41.5 -99.5q0 -62 40.5 -100.5t106.5 -38.5z" />
    <glyph glyph-name="seven.num" horiz-adv-x="649" 
d="M264 616h-184l350 676h-403v142h600v-115z" />
    <glyph glyph-name="eight.num" horiz-adv-x="757" 
d="M379 602q-139 0 -227.5 70t-88.5 176q0 61 32.5 111t90.5 83q-48 33 -75 79t-27 96q0 100 83 165.5t212 65.5q128 0 210.5 -65.5t82.5 -165.5q0 -50 -27.5 -96t-75.5 -79q58 -33 90.5 -83t32.5 -111q0 -106 -87 -176t-226 -70zM379 1319q-62 0 -100.5 -30.5t-38.5 -78.5
q0 -49 39 -78.5t100 -29.5q62 0 99.5 29.5t37.5 78.5q0 47 -38.5 78t-98.5 31zM379 735q68 0 110.5 34.5t42.5 86.5q0 54 -42.5 87.5t-110.5 33.5q-70 0 -113 -33t-43 -88q0 -52 44 -86.5t112 -34.5z" />
    <glyph glyph-name="nine.num" horiz-adv-x="778" 
d="M373 1313q-64 0 -104 -40t-40 -99q0 -58 41 -98t103 -40q64 0 105.5 38.5t41.5 99.5q0 62 -40.5 100.5t-106.5 38.5zM358 602q-112 0 -188 50.5t-104 129.5l141 56q14 -45 53.5 -73t95.5 -28q171 0 181 236q-74 -66 -183 -66q-131 0 -211 75.5t-80 188.5
q0 118 87.5 196.5t222.5 78.5q148 0 236.5 -102.5t88.5 -305.5q0 -216 -86.5 -326t-253.5 -110z" />
    <glyph glyph-name="zero.den" horiz-adv-x="833" 
d="M418 -14q-162 0 -253 109t-91 313t91 312.5t253 108.5t252 -108.5t90 -312.5q0 -202 -90.5 -312t-251.5 -110zM418 133q168 0 168 275q0 131 -43.5 202.5t-124.5 71.5q-170 0 -170 -274q0 -275 170 -275z" />
    <glyph glyph-name="one.den" 
d="M420 0h-172v625l-203 -88l-12 157l284 123h103v-817z" />
    <glyph glyph-name="two.den" horiz-adv-x="716" 
d="M655 141v-141h-604v113l350 340q44 44 62 74t18 61q0 45 -33 72.5t-88 27.5q-56 0 -90 -32.5t-34 -84.5h-168q0 116 82.5 188t211.5 72q128 0 209.5 -70t81.5 -171q0 -60 -24.5 -109t-93.5 -112l-246 -228h366z" />
    <glyph glyph-name="three.den" horiz-adv-x="743" 
d="M360 -12q-142 0 -228 68t-87 184h168q1 -54 41 -85.5t104 -31.5t104 32t40 87q0 57 -48.5 87.5t-121.5 30.5h-92v134h84q82 0 121.5 29t39.5 77q0 44 -33 70t-90 26q-56 0 -92.5 -29.5t-36.5 -76.5h-165q0 105 84.5 173t214.5 68q133 0 211.5 -63t78.5 -158
q0 -59 -35.5 -104.5t-95.5 -71.5q70 -26 110 -78t40 -125q0 -94 -82 -170q-79 -73 -234 -73z" />
    <glyph glyph-name="four.den" horiz-adv-x="755" 
d="M727 332v-137h-135v-195h-160v195h-403v108l297 514h178l-287 -485h217v155h158v-155h135z" />
    <glyph glyph-name="five.den" horiz-adv-x="733" 
d="M365 -12q-118 0 -199 51.5t-107 130.5l154 55q15 -42 54 -72t93 -30q66 0 107 37t41 100q0 59 -42 96t-106 37q-39 0 -72 -14t-50 -31h-148l39 469h522v-141h-377l-18 -180q51 28 133 28q126 0 207.5 -71.5t81.5 -190.5q0 -130 -88.5 -202t-224.5 -72z" />
    <glyph glyph-name="six.den" horiz-adv-x="772" 
d="M709 260q0 -118 -87 -196t-223 -78q-148 0 -236.5 102t-88.5 305q0 216 86.5 326t253.5 110q112 0 188.5 -50.5t104.5 -129.5l-142 -55q-14 45 -53.5 72.5t-95.5 27.5q-170 0 -180 -235q72 65 182 65q131 0 211 -75.5t80 -188.5zM399 119q64 0 104 40t40 99
q0 58 -41 97.5t-103 39.5q-64 0 -105.5 -38t-41.5 -99q0 -62 40.5 -100.5t106.5 -38.5z" />
    <glyph glyph-name="seven.den" horiz-adv-x="649" 
d="M264 0h-184l350 676h-403v141h600v-115z" />
    <glyph glyph-name="eight.den" horiz-adv-x="757" 
d="M379 -14q-139 0 -227.5 70t-88.5 175q0 61 32.5 111.5t90.5 83.5q-102 70 -102 174q0 100 83 165.5t212 65.5q128 0 210.5 -65.5t82.5 -165.5q0 -50 -27.5 -95.5t-75.5 -78.5q58 -33 90.5 -83.5t32.5 -111.5q0 -106 -87 -175.5t-226 -69.5zM379 702q-62 0 -100.5 -30
t-38.5 -78q0 -49 39 -79t100 -30q62 0 99.5 30t37.5 79q0 47 -38.5 77.5t-98.5 30.5zM379 119q68 0 110.5 34.5t42.5 86.5q0 54 -42.5 87t-110.5 33q-70 0 -113 -32.5t-43 -87.5q0 -52 44 -86.5t112 -34.5z" />
    <glyph glyph-name="nine.den" horiz-adv-x="772" 
d="M373 696q-64 0 -104 -40t-40 -99q0 -58 41 -97.5t103 -39.5q64 0 105.5 38t41.5 99q0 62 -40.5 100.5t-106.5 38.5zM358 -14q-112 0 -188 50.5t-104 129.5l141 55q14 -45 53.5 -72.5t95.5 -27.5q171 0 181 235q-72 -65 -183 -65q-131 0 -211 75.5t-80 188.5q0 118 87 196
t223 78q148 0 236.5 -102t88.5 -305q0 -216 -86.5 -326t-253.5 -110z" />
    <glyph glyph-name="zero.sub" horiz-adv-x="833" 
d="M418 -219q-162 0 -253 109t-91 313t91 313t253 109t252 -108.5t90 -313.5q0 -202 -90.5 -312t-251.5 -110zM418 -72q168 0 168 275q0 131 -43.5 202.5t-124.5 71.5q-170 0 -170 -274q0 -275 170 -275z" />
    <glyph glyph-name="one.sub" 
d="M420 -205h-172v625l-203 -88l-12 157l284 123h103v-817z" />
    <glyph glyph-name="two.sub" horiz-adv-x="716" 
d="M655 -63v-142h-604v113l350 340q44 44 62 74t18 61q0 45 -33 72.5t-88 27.5q-56 0 -90 -32t-34 -84h-168q0 116 82.5 188t211.5 72q128 0 209.5 -70.5t81.5 -171.5q0 -60 -24.5 -109t-93.5 -112l-246 -227h366z" />
    <glyph glyph-name="three.sub" horiz-adv-x="743" 
d="M360 -217q-142 0 -228 68t-87 184h168q1 -54 41 -85.5t104 -31.5t104 32t40 87q0 57 -48.5 88t-121.5 31h-92v133h84q82 0 121.5 29.5t39.5 76.5q0 44 -33 70.5t-90 26.5q-56 0 -92.5 -30t-36.5 -77h-165q0 105 85 173.5t214 68.5q133 0 211.5 -63t78.5 -158
q0 -59 -35.5 -105t-95.5 -72q70 -26 110 -77.5t40 -124.5q0 -95 -82 -168q-79 -76 -234 -76z" />
    <glyph glyph-name="four.sub" horiz-adv-x="755" 
d="M727 127v-137h-135v-195h-160v195h-403v108l297 514h178l-287 -485h217v156h158v-156h135z" />
    <glyph glyph-name="five.sub" horiz-adv-x="733" 
d="M365 -217q-118 0 -199 51.5t-107 130.5l154 55q15 -42 54 -72t93 -30q66 0 107 37t41 100q0 59 -42 96t-106 37q-39 0 -72 -14t-50 -31h-148l39 469h522v-141h-377l-18 -180q51 28 133 28q126 0 207.5 -71.5t81.5 -190.5q0 -130 -88.5 -202t-224.5 -72z" />
    <glyph glyph-name="six.sub" horiz-adv-x="772" 
d="M709 55q0 -118 -87 -196t-223 -78q-148 0 -236.5 102t-88.5 305q0 216 87 326.5t253 110.5q112 0 188.5 -51t104.5 -130l-142 -55q-14 45 -53.5 72.5t-95.5 27.5q-170 0 -180 -235q72 65 182 65q131 0 211 -75.5t80 -188.5zM399 -86q64 0 104 40t40 99q0 58 -41 97.5
t-103 39.5q-64 0 -105.5 -38t-41.5 -99q0 -62 40.5 -100.5t106.5 -38.5z" />
    <glyph glyph-name="seven.sub" horiz-adv-x="649" 
d="M264 -205h-184l350 676h-403v141h600v-114z" />
    <glyph glyph-name="eight.sub" horiz-adv-x="757" 
d="M379 -219q-139 0 -227.5 70t-88.5 176q0 61 32.5 111t90.5 83q-102 70 -102 174q0 100 83.5 166t211.5 66t210.5 -66t82.5 -166q0 -50 -27.5 -95.5t-75.5 -78.5q58 -33 90.5 -83t32.5 -111q0 -106 -87 -176t-226 -70zM379 498q-62 0 -100.5 -30.5t-38.5 -78.5
q0 -49 39 -78.5t100 -29.5q62 0 99.5 29.5t37.5 78.5q0 47 -38.5 78t-98.5 31zM379 -86q68 0 110.5 34.5t42.5 86.5q0 54 -42.5 87.5t-110.5 33.5q-70 0 -113 -33t-43 -88q0 -52 44 -86.5t112 -34.5z" />
    <glyph glyph-name="nine.sub" horiz-adv-x="772" 
d="M373 492q-64 0 -104 -40.5t-40 -99.5q0 -58 41 -97.5t103 -39.5q64 0 105.5 38t41.5 99q0 62 -40.5 101t-106.5 39zM358 -219q-112 0 -188 50.5t-104 129.5l141 55q14 -45 53.5 -72.5t95.5 -27.5q171 0 181 236q-74 -66 -183 -66q-131 0 -211 75.5t-80 188.5
q0 118 87.5 196.5t222.5 78.5q148 0 236.5 -102.5t88.5 -305.5q0 -216 -86.5 -326t-253.5 -110z" />
    <glyph glyph-name="a.sup" horiz-adv-x="817" 
d="M362 784q61 0 132 43l32 21v145l-131 -32q-74 -20 -105.5 -40.5t-31.5 -56.5t31.5 -58t72.5 -22zM532 721l-14 -10q-93 -68 -194 -68q-95 0 -168 55q-72 57 -72 152q0 86 60 137t192 84l190 49q-6 42 -42.5 66t-94.5 24q-111 0 -153 -86l-146 54q32 83 117.5 131.5
t193.5 48.5q137 0 218 -65t81 -185v-455h-168v68z" />
    <glyph glyph-name="b.sup" horiz-adv-x="911" 
d="M510 641q-133 0 -213 90v-78h-170v987h184v-350q81 68 197 68q133 0 233 -92q99 -92 99 -265q0 -169 -95 -264.5t-235 -95.5zM481 805q76 0 124 51t48 145q0 91 -49 142t-125 51q-69 0 -118.5 -40.5t-49.5 -106.5v-93q0 -67 49.5 -108t120.5 -41z" />
    <glyph glyph-name="c.sup" horiz-adv-x="819" 
d="M426 641q-70 0 -133 23t-113 66.5t-80 113.5t-30 157q0 113 52 196t131.5 122t172.5 39q124 0 209 -58t117 -151l-158 -53q-20 47 -62.5 72.5t-99.5 25.5q-74 0 -126 -50.5t-52 -142.5t52 -144t126 -52q60 0 102.5 30t63.5 83l158 -60q-36 -107 -122.5 -162t-207.5 -55z
" />
    <glyph glyph-name="d.sup" horiz-adv-x="911" 
d="M430 805q71 0 120.5 41t49.5 110v88q0 67 -49.5 108.5t-120.5 41.5q-76 0 -124 -50t-48 -143q0 -95 47.5 -145.5t124.5 -50.5zM784 653h-172v74q-37 -39 -92.5 -62.5t-120.5 -23.5q-140 0 -233.5 95t-93.5 265q0 172 96 265q100 92 233 92q122 0 199 -68v350h184v-987z
" />
    <glyph glyph-name="e.sup" horiz-adv-x="837" 
d="M424 1214q-67 0 -114.5 -35.5t-53.5 -101.5h326q-4 66 -48.5 101.5t-109.5 35.5zM635 881l125 -86q-44 -68 -127 -110t-195 -42q-160 0 -264 93t-104 265q0 163 102.5 260t255.5 97q149 0 239.5 -84.5t100.5 -237.5q2 -31 2 -73h-516q1 -78 56.5 -126.5t138.5 -48.5
q122 0 186 93z" />
    <glyph glyph-name="f.sup" horiz-adv-x="542" 
d="M514 1341v-155h-170v-533h-180v533h-113v155h113v60q0 132 69 188q63 60 177 60q146 0 217 -78l-101 -113q-38 35 -92 35q-41 0 -65.5 -22.5t-24.5 -67.5v-62h170z" />
    <glyph glyph-name="g.sup" horiz-adv-x="911" 
d="M434 809q64 0 115 43t51 102v88q0 59 -47.5 105.5t-118.5 46.5q-77 0 -125.5 -50t-48.5 -143t48.5 -142.5t125.5 -49.5zM420 336q-90 0 -174 26t-137 72l106 131q66 -69 195 -69q98 0 144 40.5t46 122.5v60q-81 -74 -194 -74q-136 0 -236 92q-96 93 -96 264q0 165 96 261
q98 94 236 94q124 0 204 -80v65h174v-690q0 -149 -93.5 -232t-270.5 -83z" />
    <glyph glyph-name="h.sup" horiz-adv-x="903" 
d="M465 1188q-107 0 -154 -101v-434h-184v987h184v-374q76 90 209 90q124 0 196 -70t72 -201v-432h-184v391q0 144 -139 144z" />
    <glyph glyph-name="i.sup" horiz-adv-x="436" 
d="M217 1442q-44 0 -76 32t-32 76t32 76.5t76 32.5q47 0 79 -32t32 -77t-32 -76.5t-79 -31.5zM311 653h-184v688h184v-688z" />
    <glyph glyph-name="j.sup" horiz-adv-x="563" 
d="M342 1444q-44 0 -76.5 32t-32.5 76t32.5 76.5t76.5 32.5q47 0 79 -32t32 -77t-32 -76.5t-79 -31.5zM252 1341h184v-751q0 -116 -63.5 -170.5t-165.5 -54.5q-63 0 -118 24.5t-87 65.5l113 110q31 -39 73 -39q27 0 45.5 17.5t18.5 48.5v749z" />
    <glyph glyph-name="k.sup" horiz-adv-x="845" 
d="M815 653h-217l-201 308l-90 -82v-226h-180v987h180v-553l273 254h235l-285 -260z" />
    <glyph glyph-name="l.sup" horiz-adv-x="436" 
d="M311 653h-184v987h184v-987z" />
    <glyph glyph-name="m.sup" horiz-adv-x="1343" 
d="M457 1188q-52 0 -92.5 -28t-53.5 -75v-432h-184v688h184v-75q74 88 205 88q144 0 209 -103q89 103 240 103q122 0 193 -69.5t71 -201.5v-430h-182v391q0 71 -33.5 107.5t-95.5 36.5q-51 0 -91 -28t-57 -75v-4v-428h-184v391q0 71 -33.5 107.5t-95.5 36.5z" />
    <glyph glyph-name="n.sup" horiz-adv-x="903" 
d="M465 1188q-52 0 -93 -27.5t-61 -77.5v-430h-184v688h184v-75q76 90 211 90q122 0 194 -70.5t72 -202.5v-430h-184v389q0 72 -36 109t-103 37z" />
    <glyph glyph-name="o.sup" horiz-adv-x="870" 
d="M434 641q-157 0 -260.5 97.5t-103.5 260.5q0 164 106 261.5t258 97.5q157 0 263 -96.5t106 -262.5q0 -162 -107 -260t-262 -98zM434 805q80 0 131 52t51 142t-52 142.5t-130 52.5t-129 -52t-51 -143q0 -90 51 -142t129 -52z" />
    <glyph glyph-name="p.sup" horiz-adv-x="913" 
d="M483 805q77 0 124.5 50.5t47.5 145.5q0 94 -48 143.5t-126 49.5q-66 0 -116.5 -40.5t-51.5 -106.5v-93q1 -67 50 -108t120 -41zM514 641q-122 0 -201 76v-334h-184v958h172v-69q83 86 211 86q136 0 231 -92q99 -92 99 -265q0 -169 -95 -264.5t-233 -95.5z" />
    <glyph glyph-name="q.sup" horiz-adv-x="915" 
d="M784 1341v-958h-184v332q-81 -74 -201 -74q-140 0 -233.5 95t-93.5 265q0 172 96 265q100 92 233 92q132 0 211 -82v65h172zM430 805q71 0 120.5 41t49.5 110v88q0 67 -49.5 108.5t-120.5 41.5q-76 0 -124 -50t-48 -143q0 -95 47.5 -145.5t124.5 -50.5z" />
    <glyph glyph-name="r.sup" horiz-adv-x="606" 
d="M434 1180q-40 0 -74.5 -23.5t-48.5 -56.5v-447h-184v688h184v-73q26 37 67.5 60.5t90.5 23.5q75 0 127 -35l-64 -164q-46 27 -98 27z" />
    <glyph glyph-name="s.sup" horiz-adv-x="743" 
d="M377 641q-120 0 -203 50t-113 143l150 49q19 -51 62 -79t104 -28q54 0 88.5 19.5t34.5 54.5q0 36 -38 53.5t-120 30.5q-122 21 -187 67.5t-65 139.5q0 98 82.5 157.5t208.5 59.5q117 0 191 -48t100 -128l-150 -45q-27 88 -141 88q-53 0 -86 -22.5t-33 -55.5
q0 -18 9.5 -30t32.5 -20.5t45 -13t63 -10.5q123 -19 192.5 -69.5t69.5 -147.5q0 -98 -83 -156.5t-214 -58.5z" />
    <glyph glyph-name="t.sup" horiz-adv-x="614" 
d="M483 827l76 -118q-66 -66 -188 -66q-103 0 -161 54t-58 165v324h-107v155h111v193h176v-193h198v-155h-200v-305q0 -84 76 -84q39 0 77 30z" />
    <glyph glyph-name="u.sup" horiz-adv-x="894" 
d="M770 653h-184v80q-78 -92 -207 -92q-120 0 -192 68.5t-72 195.5v436h184v-393q0 -69 37.5 -104t97.5 -35q49 0 89 26t63 76v430h184v-688z" />
    <glyph glyph-name="v.sup" horiz-adv-x="776" 
d="M752 1341l-271 -688h-188l-268 688h190l176 -473l178 473h183z" />
    <glyph glyph-name="w.sup" horiz-adv-x="1064" 
d="M823 653h-147l-144 316l-145 -316h-147l-205 688h188l123 -426l125 285h127l123 -287l127 428h182z" />
    <glyph glyph-name="x.sup" horiz-adv-x="780" 
d="M748 653h-199l-158 238l-160 -238h-198l246 346l-238 342h201l149 -233l156 233h192l-233 -335z" />
    <glyph glyph-name="y.sup" horiz-adv-x="765" 
d="M743 1341l-434 -958h-192l170 371l-262 587h192l174 -391l164 391h188z" />
    <glyph glyph-name="z.sup" horiz-adv-x="720" 
d="M645 809v-156h-569v109l325 424h-317v155h555v-106l-326 -426h332z" />
    <glyph glyph-name="at.case" horiz-adv-x="1921" 
d="M963 -154q-174 0 -330 66t-269.5 180.5t-180 277t-66.5 347.5t64.5 347t176.5 278t270.5 182.5t340.5 66.5q179 0 335 -64.5t264.5 -176t171 -264t62.5 -324.5q0 -68 -15 -136t-46.5 -130.5t-76 -110.5t-108.5 -77t-139 -29q-82 0 -145.5 35t-100.5 94
q-91 -123 -245 -123q-167 0 -278 116.5t-111 315.5q0 101 33 183.5t88 133.5t121 78t136 27q138 0 220 -95l6 86h180v-565q0 -56 29 -88.5t73 -32.5q92 0 146 91q51 86 51 217q0 140 -47.5 264t-131.5 214t-206.5 142.5t-265.5 52.5q-194 0 -348 -92.5t-239 -254t-85 -361.5
t88 -361.5t240 -251.5t338 -90q212 0 393 107l78 -148q-207 -127 -471 -127zM944 469q59 0 109.5 37.5t74.5 107.5v193q-20 66 -71 106.5t-113 40.5q-92 0 -149.5 -64t-57.5 -173q0 -117 59 -182.5t148 -65.5z" />
    <glyph glyph-name="hyphen.case" horiz-adv-x="776" 
d="M686 639h-598v180h598v-180z" />
    <glyph glyph-name="exclamdown.case" horiz-adv-x="602" 
d="M301 1456q57 0 99 -42t42 -101q0 -57 -42 -99.5t-99 -42.5q-59 0 -100 42t-41 100q0 60 40.5 101.5t100.5 41.5zM215 1006h172l29 -1006h-230z" />
    <glyph glyph-name="questiondown.case" horiz-adv-x="1048" 
d="M588 1458q57 0 98 -41.5t41 -101.5q0 -57 -41 -99t-98 -42q-59 0 -100.5 41.5t-41.5 99.5q0 60 41 101.5t101 41.5zM483 1008h207v-90q0 -100 -14 -156t-43.5 -86.5t-89.5 -59.5l-68 -34q-170 -87 -170 -222q0 -83 64 -138.5t163 -55.5q105 0 173.5 64t74.5 173l207 -18
q-7 -186 -135.5 -297t-319.5 -111q-201 0 -323 107q-121 109 -121 274q0 130 64.5 216t189.5 147l78 39q35 19 49 47.5t14 93.5v107z" />
    <glyph glyph-name="bracketleft.case" horiz-adv-x="737" 
d="M696 -217h-518v1868h518v-170h-311v-1528h311v-170z" />
    <glyph glyph-name="bracketright.case" horiz-adv-x="737" 
d="M41 1651h518v-1868h-518v170h311v1528h-311v170z" />
    <glyph glyph-name="endash.case" horiz-adv-x="1142" 
d="M1053 645h-963v170h963v-170z" />
    <glyph glyph-name="emdash.case" horiz-adv-x="1624" 
d="M1534 645h-1444v170h1444v-170z" />
    <glyph glyph-name="guillemotleft.case" horiz-adv-x="1189" 
d="M596 389l-135 -117l-387 451l389 453l131 -115l-289 -334zM1083 389l-135 -117l-387 451l389 453l131 -115l-288 -334z" />
    <glyph glyph-name="guillemotright.case" horiz-adv-x="1189" 
d="M106 1059l136 117l387 -451l-389 -453l-131 115l288 334zM594 1059l135 117l387 -451l-389 -453l-131 115l289 334z" />
    <glyph glyph-name="guilsinglleft.case" horiz-adv-x="704" 
d="M596 389l-135 -117l-387 451l389 453l131 -115l-289 -334z" />
    <glyph glyph-name="guilsinglright.case" horiz-adv-x="704" 
d="M106 1059l136 117l387 -451l-389 -453l-131 115l288 334z" />
    <glyph glyph-name="parenleft.case" horiz-adv-x="700" 
d="M678 -178l-150 -123q-187 187 -300 460.5t-113 567.5q0 273 114 546.5t299 463.5l150 -123q-149 -173 -248 -402q-102 -234 -102 -485q0 -267 102 -504q98 -227 248 -401z" />
    <glyph glyph-name="parenright.case" horiz-adv-x="700" 
d="M23 1614l149 123q187 -187 300.5 -461t113.5 -567q0 -273 -114.5 -546.5t-299.5 -463.5l-149 123q147 170 247 399q103 239 103 488q0 264 -103 503q-100 232 -247 402z" />
    <glyph glyph-name="a.alt" horiz-adv-x="1208" 
d="M565 170q103 0 185 70q81 69 84 215v106q-1 132 -78 207.5t-191 75.5t-189 -90t-75 -246q0 -157 75 -247.5t189 -90.5zM1042 0h-198v117q-50 -60 -130.5 -98.5t-174.5 -38.5q-195 0 -323 145t-128 383q0 235 128.5 379.5t322.5 144.5q197 0 305 -133v109h198v-1008z" />
    <glyph glyph-name="g.alt" horiz-adv-x="1193" 
d="M561 209q106 0 181.5 72.5t76.5 201.5v86q-1 126 -76 201.5t-184 75.5q-112 0 -185 -85t-73 -233t73 -233.5t187 -85.5zM578 -414q-158 0 -278.5 64t-178.5 190l170 92q86 -165 284 -165q116 0 180 69t64 193v110q-47 -54 -120.5 -86.5t-163.5 -32.5q-194 0 -320.5 139.5
t-126.5 368.5q0 225 126.5 364.5t317.5 139.5q192 0 299 -133v109h197v-990q0 -206 -121.5 -319t-328.5 -113z" />
    <glyph glyph-name="j.alt" 
d="M270 1194q-56 0 -93.5 38t-37.5 93q0 57 37.5 94t93.5 37t93.5 -37t37.5 -94q0 -55 -37.5 -93t-93.5 -38zM39 -401l-21 186q72 8 110 49t38 135v1039h209v-1051q0 -335 -336 -358z" />
    <glyph glyph-name="dotlessj.alt" 
d="M39 -401l-21 186q72 8 110 49t38 135v1039h209v-1051q0 -335 -336 -358z" />
    <glyph glyph-name="ij.alt" horiz-adv-x="1081" 
d="M270 1194q-56 0 -93.5 38t-37.5 93q0 57 37.5 94t93.5 37t93.5 -37t37.5 -94q0 -55 -37.5 -93t-93.5 -38zM375 0h-209v1008h209v-1008zM811 1194q-55 0 -93 38t-38 93q0 57 37.5 94t93.5 37t93.5 -37t37.5 -94q0 -55 -38 -93t-93 -38zM580 -401l-21 186q72 8 110 49
t38 135v1039h208v-1051q0 -335 -335 -358z" />
    <glyph glyph-name="aacute.alt" horiz-adv-x="1208" 
d="M565 170q103 0 185 70q81 69 84 215v106q-1 132 -78 207.5t-191 75.5t-189 -90t-75 -246q0 -157 75 -247.5t189 -90.5zM1042 0h-198v117q-50 -60 -130.5 -98.5t-174.5 -38.5q-195 0 -323 145t-128 383q0 235 128.5 379.5t322.5 144.5q197 0 305 -133v109h198v-1008z
M674 1157h-170v4l143 289h232v-4z" />
    <glyph glyph-name="acircumflex.alt" horiz-adv-x="1208" 
d="M565 170q103 0 185 70q81 69 84 215v106q-1 132 -78 207.5t-191 75.5t-189 -90t-75 -246q0 -157 75 -247.5t189 -90.5zM1042 0h-198v117q-50 -60 -130.5 -98.5t-174.5 -38.5q-195 0 -323 145t-128 383q0 235 128.5 379.5t322.5 144.5q197 0 305 -133v109h198v-1008z
M596 1300l-258 -141v162l264 156l260 -156v-162z" />
    <glyph glyph-name="adieresis.alt" horiz-adv-x="1208" 
d="M565 170q103 0 185 70q81 69 84 215v106q-1 132 -78 207.5t-191 75.5t-189 -90t-75 -246q0 -157 75 -247.5t189 -90.5zM1042 0h-198v117q-50 -60 -130.5 -98.5t-174.5 -38.5q-195 0 -323 145t-128 383q0 235 128.5 379.5t322.5 144.5q197 0 305 -133v109h198v-1008z
M799 1198q-48 0 -82.5 34t-34.5 83t34.5 83t82.5 34q50 0 84.5 -34t34.5 -83t-34.5 -83t-84.5 -34zM397 1198q-49 0 -82.5 33.5t-33.5 83.5t33.5 83.5t82.5 33.5t83 -34t34 -83t-34 -83t-83 -34z" />
    <glyph glyph-name="agrave.alt" horiz-adv-x="1208" 
d="M565 170q103 0 185 70q81 69 84 215v106q-1 132 -78 207.5t-191 75.5t-189 -90t-75 -246q0 -157 75 -247.5t189 -90.5zM1042 0h-198v117q-50 -60 -130.5 -98.5t-174.5 -38.5q-195 0 -323 145t-128 383q0 235 128.5 379.5t322.5 144.5q197 0 305 -133v109h198v-1008z
M698 1157h-170l-204 289v4h231l143 -289v-4z" />
    <glyph glyph-name="atilde.alt" horiz-adv-x="1208" 
d="M565 170q103 0 185 70q81 69 84 215v106q-1 132 -78 207.5t-191 75.5t-189 -90t-75 -246q0 -157 75 -247.5t189 -90.5zM1042 0h-198v117q-50 -60 -130.5 -98.5t-174.5 -38.5q-195 0 -323 145t-128 383q0 235 128.5 379.5t322.5 144.5q197 0 305 -133v109h198v-1008z
M711 1178q-43 0 -84.5 20.5t-75.5 41t-57 20.5q-57 0 -68 -74l-123 20q2 86 53.5 143.5t130.5 57.5q42 0 83 -21t75.5 -42t59.5 -21q30 0 46.5 21t18.5 53l125 -19q-2 -87 -53.5 -143.5t-130.5 -56.5z" />
    <glyph glyph-name="aring.alt" horiz-adv-x="1208" 
d="M565 170q103 0 185 70q81 69 84 215v106q-1 132 -78 207.5t-191 75.5t-189 -90t-75 -246q0 -157 75 -247.5t189 -90.5zM1042 0h-198v117q-50 -60 -130.5 -98.5t-174.5 -38.5q-195 0 -323 145t-128 383q0 235 128.5 379.5t322.5 144.5q197 0 305 -133v109h198v-1008z
M600 1133q-75 0 -127.5 50.5t-52.5 125.5t52.5 126.5t127.5 51.5t127.5 -51.5t52.5 -126.5q0 -74 -53 -125t-127 -51zM600 1231q31 0 54.5 23t23.5 55t-23.5 56t-54.5 24q-33 0 -55.5 -22.5t-22.5 -57.5q0 -32 23 -55t55 -23z" />
    <glyph glyph-name="abreve.alt" horiz-adv-x="1208" 
d="M565 170q103 0 185 70q81 69 84 215v106q-1 132 -78 207.5t-191 75.5t-189 -90t-75 -246q0 -157 75 -247.5t189 -90.5zM1042 0h-198v117q-50 -60 -130.5 -98.5t-174.5 -38.5q-195 0 -323 145t-128 383q0 235 128.5 379.5t322.5 144.5q197 0 305 -133v109h198v-1008z
M598 1169q-117 0 -192 72.5t-76 192.5h149q0 -57 31.5 -91t87.5 -34t88.5 34.5t32.5 90.5h149q-1 -120 -78.5 -192.5t-191.5 -72.5z" />
    <glyph glyph-name="amacron.alt" horiz-adv-x="1208" 
d="M565 170q103 0 185 70q81 69 84 215v106q-1 132 -78 207.5t-191 75.5t-189 -90t-75 -246q0 -157 75 -247.5t189 -90.5zM1042 0h-198v117q-50 -60 -130.5 -98.5t-174.5 -38.5q-195 0 -323 145t-128 383q0 235 128.5 379.5t322.5 144.5q197 0 305 -133v109h198v-1008z
M840 1233h-482v143h482v-143z" />
    <glyph glyph-name="aogonek.alt" horiz-adv-x="1208" 
d="M565 170q103 0 185 70q81 69 84 215v106q-1 132 -78 207.5t-191 75.5t-189 -90t-75 -246q0 -157 75 -247.5t189 -90.5zM1042 0h-198v117q-50 -60 -130.5 -98.5t-174.5 -38.5q-195 0 -323 145t-128 383q0 235 128.5 379.5t322.5 144.5q197 0 305 -133v109h198v-1008z
M887 -414q-85 0 -145 44.5t-60 127.5q0 89 64 162t182 139l112 -59q-81 -35 -137.5 -90.5t-56.5 -114.5q0 -34 19.5 -49.5t49.5 -15.5q52 0 91 39l77 -103q-77 -80 -196 -80z" />
    <glyph glyph-name="aringacute.alt" horiz-adv-x="1208" 
d="M565 170q103 0 185 70q81 69 84 215v106q-1 132 -78 207.5t-191 75.5t-189 -90t-75 -246q0 -157 75 -247.5t189 -90.5zM1042 0h-198v117q-50 -60 -130.5 -98.5t-174.5 -38.5q-195 0 -323 145t-128 383q0 235 128.5 379.5t322.5 144.5q197 0 305 -133v109h198v-1008z
M600 1133q-75 0 -127.5 50.5t-52.5 125.5t52.5 126.5t127.5 51.5t127.5 -51.5t52.5 -126.5q0 -74 -53 -125t-127 -51zM600 1231q31 0 54.5 23t23.5 55t-23.5 56t-54.5 24q-33 0 -55.5 -22.5t-22.5 -57.5q0 -32 23 -55t55 -23zM676 1573h-170v4l143 289h232v-4z" />
    <glyph glyph-name="gdotaccent.alt" horiz-adv-x="1193" 
d="M561 209q106 0 181.5 72.5t76.5 201.5v86q-1 126 -76 201.5t-184 75.5q-112 0 -185 -85t-73 -233t73 -233.5t187 -85.5zM578 -414q-158 0 -278.5 64t-178.5 190l170 92q86 -165 284 -165q116 0 180 69t64 193v110q-47 -54 -120.5 -86.5t-163.5 -32.5q-194 0 -320.5 139.5
t-126.5 368.5q0 225 126.5 364.5t317.5 139.5q192 0 299 -133v109h197v-990q0 -206 -121.5 -319t-328.5 -113zM571 1200q-54 0 -90.5 36t-36.5 91t36.5 92t90.5 37q55 0 92 -37t37 -92t-36.5 -91t-92.5 -36z" />
    <glyph glyph-name="gcommaaccent.alt" horiz-adv-x="1193" 
d="M561 209q106 0 181.5 72.5t76.5 201.5v86q-1 126 -76 201.5t-184 75.5q-112 0 -185 -85t-73 -233t73 -233.5t187 -85.5zM578 -414q-158 0 -278.5 64t-178.5 190l170 92q86 -165 284 -165q116 0 180 69t64 193v110q-47 -54 -120.5 -86.5t-163.5 -32.5q-194 0 -320.5 139.5
t-126.5 368.5q0 225 126.5 364.5t317.5 139.5q192 0 299 -133v109h197v-990q0 -206 -121.5 -319t-328.5 -113zM547 1526h127l-62 -152q30 -9 55 -38t25 -70q0 -49 -36.5 -83t-82.5 -34q-50 0 -84 34.5t-34 82.5q0 53 37 135z" />
    <glyph glyph-name="gbreve.alt" horiz-adv-x="1193" 
d="M561 209q106 0 181.5 72.5t76.5 201.5v86q-1 126 -76 201.5t-184 75.5q-112 0 -185 -85t-73 -233t73 -233.5t187 -85.5zM578 -414q-158 0 -278.5 64t-178.5 190l170 92q86 -165 284 -165q116 0 180 69t64 193v110q-47 -54 -120.5 -86.5t-163.5 -32.5q-194 0 -320.5 139.5
t-126.5 368.5q0 225 126.5 364.5t317.5 139.5q192 0 299 -133v109h197v-990q0 -206 -121.5 -319t-328.5 -113zM571 1169q-117 0 -192 72.5t-76 192.5h150q0 -57 31 -91t87 -34t88.5 34.5t32.5 90.5h150q-1 -120 -79 -192.5t-192 -72.5z" />
    <glyph glyph-name="gcircumflex.alt" horiz-adv-x="1193" 
d="M561 209q106 0 181.5 72.5t76.5 201.5v86q-1 126 -76 201.5t-184 75.5q-112 0 -185 -85t-73 -233t73 -233.5t187 -85.5zM578 -414q-158 0 -278.5 64t-178.5 190l170 92q86 -165 284 -165q116 0 180 69t64 193v110q-47 -54 -120.5 -86.5t-163.5 -32.5q-194 0 -320.5 139.5
t-126.5 368.5q0 225 126.5 364.5t317.5 139.5q192 0 299 -133v109h197v-990q0 -206 -121.5 -319t-328.5 -113zM567 1300l-258 -141v162l264 156l261 -156v-162z" />
    <glyph glyph-name="jcircumflex.alt" 
d="M39 -401l-21 186q72 8 110 49t38 135v1039h209v-1051q0 -335 -336 -358zM266 1300l-258 -141v162l264 156l260 -156v-162z" />
    <glyph glyph-name="zero.percent" horiz-adv-x="923" 
d="M461 -20q-155 0 -258 112q-105 114 -105 303q0 190 105 301q108 111 258 111q155 0 260 -111q104 -110 104 -301t-106 -303q-103 -112 -258 -112zM461 147q80 0 130 66.5t50 181.5q0 112 -51.5 178t-128.5 66q-78 0 -128 -65t-50 -179t50.5 -181t127.5 -67z" />
    <glyph glyph-name="germandbls.alt" horiz-adv-x="1251" 
d="M375 0h-209v1040q0 193 117 316q120 123 311 123q97 0 174.5 -28t126 -77t73.5 -111.5t25 -134.5q0 -64 -23.5 -116t-56.5 -84t-66.5 -59.5t-57 -56.5t-23.5 -60q0 -43 33.5 -72t115.5 -62q135 -54 193.5 -127.5t58.5 -189.5q0 -133 -108 -225q-110 -90 -260 -90
q-98 0 -186 35.5t-142 89.5l109 145q98 -98 206 -98q73 0 122.5 39t49.5 98q0 55 -32.5 95t-112.5 69q-138 49 -197 106t-59 154q0 47 17 88.5t42.5 69t55 56.5t55 53t42.5 57t17 69q0 84 -53.5 135t-140.5 51q-96 0 -156.5 -66.5t-60.5 -189.5v-1042z" />
    <glyph glyph-name="acute.ss01" horiz-adv-x="747" 
d="M631 1532h-512v35l508 63h4v-98z" />
    <glyph glyph-name="grave.ss01" horiz-adv-x="747" 
d="M631 1532h-512v100h4l508 -65v-35z" />
    <glyph glyph-name="circumflex.ss01" horiz-adv-x="747" 
d="M373 1548l-254 -37v48l258 86l254 -86v-48z" />
    <glyph glyph-name="caron.ss01" horiz-adv-x="747" 
d="M375 1608l254 37v-48l-258 -86l-254 86v48z" />
    <glyph glyph-name="cedilla.ss01" horiz-adv-x="567" 
d="M250 -248h-131v101h104q65 0 90 20t33 70l103 -4q-14 -187 -199 -187z" />
    <glyph glyph-name="ogonek.ss01" horiz-adv-x="532" 
d="M406 -145v-95h-136q-75 0 -118 30t-43 91q0 71 61 111.5t178 62.5l66 -55q-102 0 -151.5 -27t-49.5 -67q0 -51 68 -51h125z" />
    <glyph glyph-name="breve.ss01" horiz-adv-x="714" 
d="M401 1522h-88q-39 0 -67.5 4.5t-57 17t-46 38.5t-23.5 65h78q7 -30 37.5 -42t84.5 -12h76q54 0 84 12t37 42h80q-6 -39 -23.5 -65t-46 -38.5t-57.5 -17t-68 -4.5z" />
    <glyph glyph-name="dieresis.ss01" horiz-adv-x="825" 
d="M707 1532h-238v80h238v-80zM356 1532h-237v80h237v-80z" />
    <glyph glyph-name="dieresis.i.ss01" horiz-adv-x="681" 
d="M565 1532h-182v82h182v-82zM299 1532h-180v82h180v-82z" />
    <glyph glyph-name="hungarumlaut.ss01" horiz-adv-x="868" 
d="M752 1532h-263v39l259 59h4v-98zM379 1532h-260v39l256 59h4v-98z" />
    <glyph glyph-name="ring.ss01" horiz-adv-x="679" 
d="M434 1511h-188q-127 0 -127 103q0 102 127 102h188q63 0 96 -23.5t33 -78.5q0 -103 -129 -103zM238 1585h206q37 0 37 29q0 31 -37 31h-206q-37 0 -37 -31q0 -29 37 -29z" />
    <glyph glyph-name="tilde.ss01" horiz-adv-x="761" 
d="M197 1495l-78 12q4 115 110 115q31 0 88 -8l189 -21q56 -3 59 47l80 -12q-4 -115 -110 -115q-27 0 -91 9l-186 18q-58 3 -61 -45z" />
    <glyph glyph-name="macron.ss01" horiz-adv-x="716" 
d="M600 1532h-481v80h481v-80z" />
    <glyph glyph-name="dotaccent.ss01" horiz-adv-x="399" 
d="M201 1532q-32 0 -55 22t-23 52q0 29 23 51t55 22t53.5 -21.5t21.5 -51.5t-21.5 -52t-53.5 -22z" />
    <glyph glyph-name="commaaccent.ss01" horiz-adv-x="409" 
d="M236 -252h-117l47 156h125z" />
    <glyph glyph-name="Aacute.ss01" horiz-adv-x="1351" 
d="M672 1217h-2l-183 -533h367zM1317 0h-234l-170 492h-483l-172 -492h-223l514 1434h254zM932 1516h-512v34l508 64h4v-98z" />
    <glyph glyph-name="Acircumflex.ss01" horiz-adv-x="1351" 
d="M672 1217h-2l-183 -533h367zM1317 0h-234l-170 492h-483l-172 -492h-223l514 1434h254zM674 1532l-254 -37v47l258 86l254 -86v-47z" />
    <glyph glyph-name="Adieresis.ss01" horiz-adv-x="1351" 
d="M672 1217h-2l-183 -533h367zM1317 0h-234l-170 492h-483l-172 -492h-223l514 1434h254zM969 1516h-238v79h238v-79zM618 1516h-237v79h237v-79z" />
    <glyph glyph-name="Agrave.ss01" horiz-adv-x="1351" 
d="M672 1217h-2l-183 -533h367zM1317 0h-234l-170 492h-483l-172 -492h-223l514 1434h254zM932 1516h-512v100h4l508 -66v-34z" />
    <glyph glyph-name="Atilde.ss01" horiz-adv-x="1351" 
d="M672 1217h-2l-183 -533h367zM1317 0h-234l-170 492h-483l-172 -492h-223l514 1434h254zM492 1479l-78 12q4 115 110 115q24 0 88 -9l189 -20q56 -3 59 47l80 -12q-4 -115 -111 -115q-33 0 -90 8l-186 19q-58 3 -61 -45z" />
    <glyph glyph-name="Aring.ss01" horiz-adv-x="1351" 
d="M672 1217h-2l-183 -533h367zM1317 0h-234l-170 492h-483l-172 -492h-223l514 1434h254zM770 1495h-188q-127 0 -127 102q0 103 127 103h188q129 0 129 -103q0 -102 -129 -102zM573 1569h207q37 0 37 28q0 31 -37 31h-207q-36 0 -36 -31q0 -28 36 -28z" />
    <glyph glyph-name="Abreve.ss01" horiz-adv-x="1351" 
d="M672 1217h-2l-183 -533h367zM1317 0h-234l-170 492h-483l-172 -492h-223l514 1434h254zM719 1505h-88q-39 0 -68 4.5t-57.5 17t-46 38.5t-23.5 65h78q12 -53 123 -53h76q54 0 84 11.5t37 41.5h79q-6 -39 -23.5 -65t-46 -38.5t-57 -17t-67.5 -4.5z" />
    <glyph glyph-name="Amacron.ss01" horiz-adv-x="1351" 
d="M672 1217h-2l-183 -533h367zM1317 0h-234l-170 492h-483l-172 -492h-223l514 1434h254zM918 1516h-482v79h482v-79z" />
    <glyph glyph-name="Aogonek.ss01" horiz-adv-x="1351" 
d="M672 1217h-2l-183 -533h367zM1317 0h-234l-170 492h-483l-172 -492h-223l514 1434h254zM1309 -145v-95h-135q-75 0 -118.5 30t-43.5 91q0 71 61 111.5t178 62.5l66 -55q-102 0 -151.5 -27t-49.5 -67q0 -51 68 -51h125z" />
    <glyph glyph-name="Aringacute.ss01" horiz-adv-x="1351" 
d="M672 1217h-2l-183 -533h367zM1317 0h-234l-170 492h-483l-172 -492h-223l514 1434h254zM770 1495h-188q-127 0 -127 102q0 103 127 103h188q129 0 129 -103q0 -102 -129 -102zM573 1569h207q37 0 37 28q0 31 -37 31h-207q-36 0 -36 -31q0 -28 36 -28zM932 1780h-512v35
l508 63h4v-98z" />
    <glyph glyph-name="AEacute.ss01" horiz-adv-x="1896" 
d="M868 1239h-26l-260 -539h313zM1802 0h-872l-25 512h-416l-247 -512h-234l715 1434h1071v-195h-711l17 -334h645v-194h-635l27 -516h665v-195zM1501 1511h-512v35l508 64h4v-99z" />
    <glyph glyph-name="Ccaron.ss01" horiz-adv-x="1454" 
d="M762 -20q-140 0 -263 54.5t-212.5 151t-141 235.5t-51.5 302q0 157 51.5 294t140.5 233.5t212 152t262 55.5q220 0 377 -106t223 -312l-211 -61q-35 110 -127 190q-96 84 -262 84q-128 0 -229 -72t-155 -192.5t-54 -265.5q0 -151 54.5 -273.5t156 -194t229.5 -71.5
q171 0 274 103q104 104 131 252l217 -39q-20 -123 -78.5 -222.5t-142 -164t-186.5 -99t-215 -34.5zM762 1591l254 37v-47l-258 -86l-254 86v47z" />
    <glyph glyph-name="Ccedilla.ss01" horiz-adv-x="1454" 
d="M762 -20q-140 0 -263 54.5t-212.5 151t-141 235.5t-51.5 302q0 157 51.5 294t140.5 233.5t212 152t262 55.5q220 0 377 -106t223 -312l-211 -61q-35 110 -127 190q-96 84 -262 84q-128 0 -229 -72t-155 -192.5t-54 -265.5q0 -151 54.5 -273.5t156 -194t229.5 -71.5
q171 0 274 103q104 104 131 252l217 -39q-20 -123 -78.5 -222.5t-142 -164t-186.5 -99t-215 -34.5zM686 -248h-131v101h104q65 0 90 20t33 70l103 -4q-14 -187 -199 -187z" />
    <glyph glyph-name="Cacute.ss01" horiz-adv-x="1454" 
d="M762 -20q-140 0 -263 54.5t-212.5 151t-141 235.5t-51.5 302q0 157 51.5 294t140.5 233.5t212 152t262 55.5q220 0 377 -106t223 -312l-211 -61q-35 110 -127 190q-96 84 -262 84q-128 0 -229 -72t-155 -192.5t-54 -265.5q0 -151 54.5 -273.5t156 -194t229.5 -71.5
q171 0 274 103q104 104 131 252l217 -39q-20 -123 -78.5 -222.5t-142 -164t-186.5 -99t-215 -34.5zM1018 1516h-512v34l508 64h4v-98z" />
    <glyph glyph-name="Ccircumflex.ss01" horiz-adv-x="1454" 
d="M762 -20q-140 0 -263 54.5t-212.5 151t-141 235.5t-51.5 302q0 157 51.5 294t140.5 233.5t212 152t262 55.5q220 0 377 -106t223 -312l-211 -61q-35 110 -127 190q-96 84 -262 84q-128 0 -229 -72t-155 -192.5t-54 -265.5q0 -151 54.5 -273.5t156 -194t229.5 -71.5
q171 0 274 103q104 104 131 252l217 -39q-20 -123 -78.5 -222.5t-142 -164t-186.5 -99t-215 -34.5zM760 1532l-254 -37v47l258 86l254 -86v-47z" />
    <glyph glyph-name="Cdotaccent.ss01" horiz-adv-x="1454" 
d="M762 -20q-140 0 -263 54.5t-212.5 151t-141 235.5t-51.5 302q0 157 51.5 294t140.5 233.5t212 152t262 55.5q220 0 377 -106t223 -312l-211 -61q-35 110 -127 190q-96 84 -262 84q-128 0 -229 -72t-155 -192.5t-54 -265.5q0 -151 54.5 -273.5t156 -194t229.5 -71.5
q171 0 274 103q104 104 131 252l217 -39q-20 -123 -78.5 -222.5t-142 -164t-186.5 -99t-215 -34.5zM762 1516q-32 0 -55 22t-23 51q0 30 23 52t55 22t54 -22t22 -52t-22 -51.5t-54 -21.5z" />
    <glyph glyph-name="Dcaron.ss01" horiz-adv-x="1415" 
d="M662 0h-486v1434h481q132 0 252.5 -50t211.5 -138.5t145.5 -221.5t54.5 -289q0 -168 -53.5 -308.5t-144.5 -232.5t-210 -143t-251 -51zM395 1239v-1044h262q184 0 310.5 149t126.5 391q0 148 -61.5 264.5t-162 178t-219.5 61.5h-256zM647 1591l254 37v-47l-258 -86
l-254 86v47z" />
    <glyph glyph-name="Ecircumflex.ss01" horiz-adv-x="1230" 
d="M395 195h740v-195h-959v1434h952v-195h-733v-334h682v-194h-682v-516zM655 1532l-254 -37v47l258 86l254 -86v-47z" />
    <glyph glyph-name="Eacute.ss01" horiz-adv-x="1230" 
d="M395 195h740v-195h-959v1434h952v-195h-733v-334h682v-194h-682v-516zM913 1516h-512v34l508 64h4v-98z" />
    <glyph glyph-name="Edieresis.ss01" horiz-adv-x="1230" 
d="M395 195h740v-195h-959v1434h952v-195h-733v-334h682v-194h-682v-516zM950 1516h-237v79h237v-79zM600 1516h-238v79h238v-79z" />
    <glyph glyph-name="Egrave.ss01" horiz-adv-x="1230" 
d="M395 195h740v-195h-959v1434h952v-195h-733v-334h682v-194h-682v-516zM913 1516h-512v100h5l507 -66v-34z" />
    <glyph glyph-name="Ebreve.ss01" horiz-adv-x="1230" 
d="M395 195h740v-195h-959v1434h952v-195h-733v-334h682v-194h-682v-516zM700 1505h-88q-39 0 -67.5 4.5t-57 17t-46 38.5t-23.5 65h78q7 -30 37.5 -41.5t84.5 -11.5h76q54 0 84 11.5t37 41.5h80q-6 -39 -23.5 -65t-46 -38.5t-57.5 -17t-68 -4.5z" />
    <glyph glyph-name="Edotaccent.ss01" horiz-adv-x="1230" 
d="M395 195h740v-195h-959v1434h952v-195h-733v-334h682v-194h-682v-516zM657 1516q-32 0 -54.5 21.5t-22.5 51.5t22.5 52t54.5 22t54 -22t22 -52t-22 -51.5t-54 -21.5z" />
    <glyph glyph-name="Ecaron.ss01" horiz-adv-x="1230" 
d="M395 195h740v-195h-959v1434h952v-195h-733v-334h682v-194h-682v-516zM657 1591l254 37v-47l-258 -86l-254 86v47z" />
    <glyph glyph-name="Eogonek.ss01" horiz-adv-x="1230" 
d="M395 195h740v-195h-959v1434h952v-195h-733v-334h682v-194h-682v-516zM1126 -145v-95h-135q-75 0 -118.5 30t-43.5 91q0 71 61.5 111.5t178.5 62.5l66 -55q-102 0 -151.5 -27t-49.5 -67q0 -51 67 -51h125z" />
    <glyph glyph-name="Emacron.ss01" horiz-adv-x="1230" 
d="M395 195h740v-195h-959v1434h952v-195h-733v-334h682v-194h-682v-516zM897 1516h-481v79h481v-79z" />
    <glyph glyph-name="Gdotaccent.ss01" horiz-adv-x="1503" 
d="M1409 688v-57q0 -199 -87.5 -349t-231 -226t-320.5 -76q-144 0 -268.5 54t-214.5 150t-141.5 235.5t-51.5 303.5q0 213 87 381t240.5 261t346.5 93q216 0 379 -100q166 -100 231 -307l-209 -66q-35 112 -140.5 190t-260.5 78q-199 0 -322.5 -151t-123.5 -379
q0 -236 124.5 -388.5t323.5 -152.5q159 0 271.5 86.5t138.5 229.5h-392v190h621zM770 1516q-32 0 -55 22t-23 51q0 30 23 52t55 22t54 -22t22 -52t-22 -51.5t-54 -21.5z" />
    <glyph glyph-name="Gbreve.ss01" horiz-adv-x="1503" 
d="M1409 688v-57q0 -199 -87.5 -349t-231 -226t-320.5 -76q-144 0 -268.5 54t-214.5 150t-141.5 235.5t-51.5 303.5q0 213 87 381t240.5 261t346.5 93q216 0 379 -100q166 -100 231 -307l-209 -66q-35 112 -140.5 190t-260.5 78q-199 0 -322.5 -151t-123.5 -379
q0 -236 124.5 -388.5t323.5 -152.5q159 0 271.5 86.5t138.5 229.5h-392v190h621zM813 1505h-88q-39 0 -68 4.5t-57.5 17t-46 38.5t-23.5 65h78q12 -53 123 -53h76q54 0 84 11.5t37 41.5h80q-6 -39 -23.5 -65t-46 -38.5t-57.5 -17t-68 -4.5z" />
    <glyph glyph-name="Gcircumflex.ss01" horiz-adv-x="1503" 
d="M1409 688v-57q0 -199 -87.5 -349t-231 -226t-320.5 -76q-144 0 -268.5 54t-214.5 150t-141.5 235.5t-51.5 303.5q0 213 87 381t240.5 261t346.5 93q216 0 379 -100q166 -100 231 -307l-209 -66q-35 112 -140.5 190t-260.5 78q-199 0 -322.5 -151t-123.5 -379
q0 -236 124.5 -388.5t323.5 -152.5q159 0 271.5 86.5t138.5 229.5h-392v190h621zM768 1532l-254 -37v47l258 86l254 -86v-47z" />
    <glyph glyph-name="Gcommaaccent.ss01" horiz-adv-x="1503" 
d="M1409 688v-57q0 -199 -87.5 -349t-231 -226t-320.5 -76q-144 0 -268.5 54t-214.5 150t-141.5 235.5t-51.5 303.5q0 213 87 381t240.5 261t346.5 93q216 0 379 -100q166 -100 231 -307l-209 -66q-35 112 -140.5 190t-260.5 78q-199 0 -322.5 -151t-123.5 -379
q0 -236 124.5 -388.5t323.5 -152.5q159 0 271.5 86.5t138.5 229.5h-392v190h621zM780 -252h-116l47 156h125z" />
    <glyph glyph-name="Hcircumflex.ss01" horiz-adv-x="1501" 
d="M1325 0h-219v750h-711v-750h-219v1434h219v-490h711v490h219v-1434zM748 1532l-254 -37v47l258 86l254 -86v-47z" />
    <glyph glyph-name="Iacute.ss01" horiz-adv-x="571" 
d="M395 0h-219v1434h219v-1434zM543 1516h-512v34l508 64h4v-98z" />
    <glyph glyph-name="Idieresis.ss01" horiz-adv-x="571" 
d="M395 0h-219v1434h219v-1434zM510 1516h-182v81h182v-81zM244 1516h-181v81h181v-81z" />
    <glyph glyph-name="Icircumflex.ss01" horiz-adv-x="571" 
d="M395 0h-219v1434h219v-1434zM285 1532l-254 -37v47l258 86l254 -86v-47z" />
    <glyph glyph-name="Igrave.ss01" horiz-adv-x="571" 
d="M395 0h-219v1434h219v-1434zM543 1516h-512v100h4l508 -66v-34z" />
    <glyph glyph-name="Ibreve.ss01" horiz-adv-x="571" 
d="M395 0h-219v1434h219v-1434zM330 1505h-88q-39 0 -68 4.5t-57.5 17t-46 38.5t-23.5 65h78q12 -53 123 -53h76q54 0 83.5 11.5t36.5 41.5h80q-6 -39 -23.5 -65t-46 -38.5t-57 -17t-67.5 -4.5z" />
    <glyph glyph-name="Itilde.ss01" horiz-adv-x="571" 
d="M395 0h-219v1434h219v-1434zM102 1479l-77 12q4 115 110 115q23 0 88 -9l189 -20q56 -3 59 47l80 -12q-4 -115 -111 -115q-33 0 -90 8l-186 19q-59 3 -62 -45z" />
    <glyph glyph-name="Idotaccent.ss01" horiz-adv-x="571" 
d="M395 0h-219v1434h219v-1434zM543 1516h-512v34l508 64h4v-98z" />
    <glyph glyph-name="Icaron.ss01" horiz-adv-x="571" 
d="M395 0h-219v1434h219v-1434zM287 1591l254 37v-47l-258 -86l-254 86v47z" />
    <glyph glyph-name="Iogonek.ss01" horiz-adv-x="571" 
d="M395 0h-219v1434h219v-1434zM387 -145v-95h-135q-75 0 -118.5 30t-43.5 91q0 71 61.5 111.5t178.5 62.5l65 -55q-102 0 -151 -26.5t-49 -67.5q0 -51 67 -51h125z" />
    <glyph glyph-name="Imacron.ss01" horiz-adv-x="571" 
d="M395 0h-219v1434h219v-1434zM528 1516h-481v79h481v-79z" />
    <glyph glyph-name="Jcircumflex.ss01" horiz-adv-x="1064" 
d="M467 -18q-187 0 -305 104.5t-144 304.5l211 41q31 -248 242 -248q92 0 152.5 64.5t60.5 187.5v998h219v-998q0 -216 -120.5 -335t-315.5 -119zM793 1532l-254 -37v47l258 86l254 -86v-47z" />
    <glyph glyph-name="Kcommaaccent.ss01" horiz-adv-x="1316" 
d="M1303 0h-259l-462 807l-187 -178v-629h-219v1434h219v-549l582 549h293l-516 -478zM694 -252h-116l47 156h125z" />
    <glyph glyph-name="Lacute.ss01" horiz-adv-x="1091" 
d="M1049 0h-873v1434h219v-1239h654v-195zM543 1516h-512v34l508 64h4v-98z" />
    <glyph glyph-name="Lcommaaccent.ss01" horiz-adv-x="1091" 
d="M1049 0h-873v1434h219v-1239h654v-195zM635 -252h-117l47 156h125z" />
    <glyph glyph-name="Nacute.ss01" horiz-adv-x="1497" 
d="M1321 0h-211l-719 1053v-1053h-215v1434h211l721 -1061v1061h213v-1434zM1006 1516h-512v34l507 64h5v-98z" />
    <glyph glyph-name="Ntilde.ss01" horiz-adv-x="1497" 
d="M1321 0h-211l-719 1053v-1053h-215v1434h211l721 -1061v1061h213v-1434zM565 1479l-78 12q4 115 111 115q24 0 88 -9l188 -20q57 -3 60 47l80 -12q-4 -115 -111 -115q-33 0 -90 8l-186 19q-59 3 -62 -45z" />
    <glyph glyph-name="Ncommaaccent.ss01" horiz-adv-x="1497" 
d="M1321 0h-211l-719 1053v-1053h-215v1434h211l721 -1061v1061h213v-1434zM760 -252h-117l47 156h125z" />
    <glyph glyph-name="Ncaron.ss01" horiz-adv-x="1497" 
d="M1321 0h-211l-719 1053v-1053h-215v1434h211l721 -1061v1061h213v-1434zM750 1591l254 37v-47l-259 -86l-253 86v47z" />
    <glyph glyph-name="Eng.ss01" horiz-adv-x="1497" 
d="M1028 -254q-78 0 -145.5 31.5t-104.5 89.5l135 125q42 -64 103 -64q40 0 66 27t26 80v41l-717 985v-1061h-215v1434h211l721 -996v996h213v-1397q0 -153 -86 -221q-85 -70 -207 -70z" />
    <glyph glyph-name="Oacute.ss01" horiz-adv-x="1546" 
d="M772 -20q-143 0 -267.5 53.5t-215.5 149t-143 235.5t-52 305q0 157 51.5 294t141 233.5t215.5 152t270 55.5q194 0 349.5 -93.5t243 -261.5t87.5 -380q0 -164 -53 -304t-144.5 -235.5t-216.5 -149.5t-266 -54zM772 184q200 0 326.5 153t126.5 386q0 146 -55.5 266
t-159.5 192t-238 72q-133 0 -236.5 -71t-158.5 -191.5t-55 -267.5q0 -152 56 -274.5t159.5 -193.5t234.5 -71zM1030 1516h-512v34l508 64h4v-98z" />
    <glyph glyph-name="Ocircumflex.ss01" horiz-adv-x="1546" 
d="M772 -20q-143 0 -267.5 53.5t-215.5 149t-143 235.5t-52 305q0 157 51.5 294t141 233.5t215.5 152t270 55.5q194 0 349.5 -93.5t243 -261.5t87.5 -380q0 -164 -53 -304t-144.5 -235.5t-216.5 -149.5t-266 -54zM772 184q200 0 326.5 153t126.5 386q0 146 -55.5 266
t-159.5 192t-238 72q-133 0 -236.5 -71t-158.5 -191.5t-55 -267.5q0 -152 56 -274.5t159.5 -193.5t234.5 -71zM772 1532l-254 -37v47l258 86l254 -86v-47z" />
    <glyph glyph-name="Odieresis.ss01" horiz-adv-x="1546" 
d="M772 -20q-143 0 -267.5 53.5t-215.5 149t-143 235.5t-52 305q0 157 51.5 294t141 233.5t215.5 152t270 55.5q194 0 349.5 -93.5t243 -261.5t87.5 -380q0 -164 -53 -304t-144.5 -235.5t-216.5 -149.5t-266 -54zM772 184q200 0 326.5 153t126.5 386q0 146 -55.5 266
t-159.5 192t-238 72q-133 0 -236.5 -71t-158.5 -191.5t-55 -267.5q0 -152 56 -274.5t159.5 -193.5t234.5 -71zM1067 1516h-238v79h238v-79zM717 1516h-238v79h238v-79z" />
    <glyph glyph-name="Ohungarumlaut.ss01" horiz-adv-x="1546" 
d="M772 -20q-143 0 -267.5 53.5t-215.5 149t-143 235.5t-52 305q0 157 51.5 294t141 233.5t215.5 152t270 55.5q194 0 349.5 -93.5t243 -261.5t87.5 -380q0 -164 -53 -304t-144.5 -235.5t-216.5 -149.5t-266 -54zM772 184q200 0 326.5 153t126.5 386q0 146 -55.5 266
t-159.5 192t-238 72q-133 0 -236.5 -71t-158.5 -191.5t-55 -267.5q0 -152 56 -274.5t159.5 -193.5t234.5 -71zM1090 1516h-263v38l258 60h5v-98zM717 1516h-260v38l256 60h4v-98z" />
    <glyph glyph-name="Ograve.ss01" horiz-adv-x="1546" 
d="M772 -20q-143 0 -267.5 53.5t-215.5 149t-143 235.5t-52 305q0 157 51.5 294t141 233.5t215.5 152t270 55.5q194 0 349.5 -93.5t243 -261.5t87.5 -380q0 -164 -53 -304t-144.5 -235.5t-216.5 -149.5t-266 -54zM772 184q200 0 326.5 153t126.5 386q0 146 -55.5 266
t-159.5 192t-238 72q-133 0 -236.5 -71t-158.5 -191.5t-55 -267.5q0 -152 56 -274.5t159.5 -193.5t234.5 -71zM1030 1516h-512v100h4l508 -66v-34z" />
    <glyph glyph-name="Otilde.ss01" horiz-adv-x="1546" 
d="M772 -20q-143 0 -267.5 53.5t-215.5 149t-143 235.5t-52 305q0 157 51.5 294t141 233.5t215.5 152t270 55.5q194 0 349.5 -93.5t243 -261.5t87.5 -380q0 -164 -53 -304t-144.5 -235.5t-216.5 -149.5t-266 -54zM772 184q200 0 326.5 153t126.5 386q0 146 -55.5 266
t-159.5 192t-238 72q-133 0 -236.5 -71t-158.5 -191.5t-55 -267.5q0 -152 56 -274.5t159.5 -193.5t234.5 -71zM588 1479l-78 12q4 115 111 115q23 0 88 -9l188 -20q56 -3 59 47l80 -12q-4 -115 -110 -115q-33 0 -90 8l-187 19q-58 3 -61 -45z" />
    <glyph glyph-name="Omacron.ss01" horiz-adv-x="1546" 
d="M772 -20q-143 0 -267.5 53.5t-215.5 149t-143 235.5t-52 305q0 157 51.5 294t141 233.5t215.5 152t270 55.5q194 0 349.5 -93.5t243 -261.5t87.5 -380q0 -164 -53 -304t-144.5 -235.5t-216.5 -149.5t-266 -54zM772 184q200 0 326.5 153t126.5 386q0 146 -55.5 266
t-159.5 192t-238 72q-133 0 -236.5 -71t-158.5 -191.5t-55 -267.5q0 -152 56 -274.5t159.5 -193.5t234.5 -71zM1014 1516h-482v79h482v-79z" />
    <glyph glyph-name="Obreve.ss01" horiz-adv-x="1546" 
d="M772 -20q-143 0 -267.5 53.5t-215.5 149t-143 235.5t-52 305q0 157 51.5 294t141 233.5t215.5 152t270 55.5q194 0 349.5 -93.5t243 -261.5t87.5 -380q0 -164 -53 -304t-144.5 -235.5t-216.5 -149.5t-266 -54zM772 184q200 0 326.5 153t126.5 386q0 146 -55.5 266
t-159.5 192t-238 72q-133 0 -236.5 -71t-158.5 -191.5t-55 -267.5q0 -152 56 -274.5t159.5 -193.5t234.5 -71zM817 1505h-88q-39 0 -67.5 4.5t-57 17t-46 38.5t-23.5 65h77q12 -53 123 -53h76q54 0 84 11.5t37 41.5h80q-6 -39 -23.5 -65t-46 -38.5t-57.5 -17t-68 -4.5z" />
    <glyph glyph-name="Oslashacute.ss01" horiz-adv-x="1546" 
d="M322 723q0 -219 114 -371l553 842q-89 59 -217 59q-133 0 -236.5 -71t-158.5 -191.5t-55 -267.5zM772 184q200 0 326.5 153t126.5 386q0 216 -113 360l-553 -841q98 -58 213 -58zM772 -20q-184 0 -332 83l-108 -165h-195l174 264q-102 99 -159.5 243t-57.5 318
q0 157 51.5 294t141 233.5t215.5 152t270 55.5q183 0 336 -86l106 164h195l-172 -262q102 -100 158.5 -242t56.5 -309q0 -164 -53 -304t-144.5 -235.5t-216.5 -149.5t-266 -54zM1008 1516h-512v34l508 64h4v-98z" />
    <glyph glyph-name="Rcommaaccent.ss01" horiz-adv-x="1288" 
d="M717 1239h-324v-397h330q98 0 157.5 53t59.5 152q0 88 -63 140t-160 52zM1264 0h-256l-377 649h-238v-649h-217v1434h559q185 0 308.5 -105.5t123.5 -279.5q0 -171 -112 -283q-67 -67 -185 -98zM678 -252h-117l47 156h125z" />
    <glyph glyph-name="Rcaron.ss01" horiz-adv-x="1288" 
d="M717 1239h-324v-397h330q98 0 157.5 53t59.5 152q0 88 -63 140t-160 52zM1264 0h-256l-377 649h-238v-649h-217v1434h559q185 0 308.5 -105.5t123.5 -279.5q0 -171 -112 -283q-67 -67 -185 -98zM584 1591l254 37v-47l-258 -86l-254 86v47z" />
    <glyph glyph-name="Racute.ss01" horiz-adv-x="1288" 
d="M717 1239h-324v-397h330q98 0 157.5 53t59.5 152q0 88 -63 140t-160 52zM1264 0h-256l-377 649h-238v-649h-217v1434h559q185 0 308.5 -105.5t123.5 -279.5q0 -171 -112 -283q-67 -67 -185 -98zM840 1516h-512v34l508 64h4v-98z" />
    <glyph glyph-name="Scaron.ss01" horiz-adv-x="1232" 
d="M618 -20q-108 0 -200.5 28.5t-169.5 88t-125.5 161.5t-56.5 238l215 18q12 -171 105 -258.5t235 -87.5q122 0 208 60t86 161q0 94 -75 153t-226 105l-127 39q-186 57 -269 146.5t-83 230.5q0 172 135.5 283.5t347.5 111.5q219 0 357.5 -114t142.5 -302v-16l-213 -20v12
q-3 136 -88 194q-85 60 -199 60q-117 0 -192.5 -55.5t-75.5 -143.5q0 -75 55 -119.5t197 -85.5l131 -39q208 -62 306 -164.5t98 -261.5q0 -188 -147 -305.5t-372 -117.5zM627 1591l254 37v-47l-258 -86l-254 86v47z" />
    <glyph glyph-name="Scedilla.ss01" horiz-adv-x="1232" 
d="M618 -20q-108 0 -200.5 28.5t-169.5 88t-125.5 161.5t-56.5 238l215 18q12 -171 105 -258.5t235 -87.5q122 0 208 60t86 161q0 94 -75 153t-226 105l-127 39q-186 57 -269 146.5t-83 230.5q0 172 135.5 283.5t347.5 111.5q219 0 357.5 -114t142.5 -302v-16l-213 -20v12
q-3 136 -88 194q-85 60 -199 60q-117 0 -192.5 -55.5t-75.5 -143.5q0 -75 55 -119.5t197 -85.5l131 -39q208 -62 306 -164.5t98 -261.5q0 -188 -147 -305.5t-372 -117.5zM551 -248h-131v101h104q65 0 90 20t33 70l103 -4q-14 -187 -199 -187z" />
    <glyph glyph-name="Scircumflex.ss01" horiz-adv-x="1232" 
d="M618 -20q-108 0 -200.5 28.5t-169.5 88t-125.5 161.5t-56.5 238l215 18q12 -171 105 -258.5t235 -87.5q122 0 208 60t86 161q0 94 -75 153t-226 105l-127 39q-186 57 -269 146.5t-83 230.5q0 172 135.5 283.5t347.5 111.5q219 0 357.5 -114t142.5 -302v-16l-213 -20v12
q-3 136 -88 194q-85 60 -199 60q-117 0 -192.5 -55.5t-75.5 -143.5q0 -75 55 -119.5t197 -85.5l131 -39q208 -62 306 -164.5t98 -261.5q0 -188 -147 -305.5t-372 -117.5zM625 1532l-254 -37v47l258 86l254 -86v-47z" />
    <glyph glyph-name="Scommaaccent.ss01" horiz-adv-x="1232" 
d="M618 -20q-108 0 -200.5 28.5t-169.5 88t-125.5 161.5t-56.5 238l215 18q12 -171 105 -258.5t235 -87.5q122 0 208 60t86 161q0 94 -75 153t-226 105l-127 39q-186 57 -269 146.5t-83 230.5q0 172 135.5 283.5t347.5 111.5q219 0 357.5 -114t142.5 -302v-16l-213 -20v12
q-3 136 -88 194q-85 60 -199 60q-117 0 -192.5 -55.5t-75.5 -143.5q0 -75 55 -119.5t197 -85.5l131 -39q208 -62 306 -164.5t98 -261.5q0 -188 -147 -305.5t-372 -117.5zM635 -252h-117l47 156h125z" />
    <glyph glyph-name="Sacute.ss01" horiz-adv-x="1232" 
d="M618 -20q-108 0 -200.5 28.5t-169.5 88t-125.5 161.5t-56.5 238l215 18q12 -171 105 -258.5t235 -87.5q122 0 208 60t86 161q0 94 -75 153t-226 105l-127 39q-186 57 -269 146.5t-83 230.5q0 172 135.5 283.5t347.5 111.5q219 0 357.5 -114t142.5 -302v-16l-213 -20v12
q-3 136 -88 194q-85 60 -199 60q-117 0 -192.5 -55.5t-75.5 -143.5q0 -75 55 -119.5t197 -85.5l131 -39q208 -62 306 -164.5t98 -261.5q0 -188 -147 -305.5t-372 -117.5zM883 1516h-512v34l508 64h4v-98z" />
    <glyph glyph-name="Tcaron.ss01" horiz-adv-x="1177" 
d="M1137 1434v-195h-439v-1239h-219v1239h-438v195h1096zM590 1591l254 37v-47l-258 -86l-254 86v47z" />
    <glyph glyph-name="Tcommaaccent.ss01" horiz-adv-x="1177" 
d="M1137 1434v-195h-439v-1239h-219v1239h-438v195h1096zM598 -252h-117l47 156h125z" />
    <glyph glyph-name="Uacute.ss01" horiz-adv-x="1404" 
d="M702 -20q-245 0 -394.5 144.5t-149.5 405.5v904h219v-897q0 -164 88.5 -258.5t236.5 -94.5q149 0 237.5 94t88.5 257v899h219v-902q0 -262 -151 -407t-394 -145zM958 1516h-512v34l508 64h4v-98z" />
    <glyph glyph-name="Ucircumflex.ss01" horiz-adv-x="1404" 
d="M702 -20q-245 0 -394.5 144.5t-149.5 405.5v904h219v-897q0 -164 88.5 -258.5t236.5 -94.5q149 0 237.5 94t88.5 257v899h219v-902q0 -262 -151 -407t-394 -145zM700 1532l-254 -37v47l259 86l253 -86v-47z" />
    <glyph glyph-name="Udieresis.ss01" horiz-adv-x="1404" 
d="M702 -20q-245 0 -394.5 144.5t-149.5 405.5v904h219v-897q0 -164 88.5 -258.5t236.5 -94.5q149 0 237.5 94t88.5 257v899h219v-902q0 -262 -151 -407t-394 -145zM997 1516h-237v79h237v-79zM647 1516h-237v79h237v-79z" />
    <glyph glyph-name="Ugrave.ss01" horiz-adv-x="1404" 
d="M702 -20q-245 0 -394.5 144.5t-149.5 405.5v904h219v-897q0 -164 88.5 -258.5t236.5 -94.5q149 0 237.5 94t88.5 257v899h219v-902q0 -262 -151 -407t-394 -145zM958 1516h-512v100h5l507 -66v-34z" />
    <glyph glyph-name="Uhungarumlaut.ss01" horiz-adv-x="1404" 
d="M702 -20q-245 0 -394.5 144.5t-149.5 405.5v904h219v-897q0 -164 88.5 -258.5t236.5 -94.5q149 0 237.5 94t88.5 257v899h219v-902q0 -262 -151 -407t-394 -145zM1020 1516h-262v38l258 60h4v-98zM647 1516h-260v38l256 60h4v-98z" />
    <glyph glyph-name="Uring.ss01" horiz-adv-x="1404" 
d="M702 -20q-245 0 -394.5 144.5t-149.5 405.5v904h219v-897q0 -164 88.5 -258.5t236.5 -94.5q149 0 237.5 94t88.5 257v899h219v-902q0 -262 -151 -407t-394 -145zM797 1495h-189q-127 0 -127 102q0 103 127 103h189q129 0 129 -103q0 -102 -129 -102zM600 1569h207
q37 0 37 28q0 31 -37 31h-207q-37 0 -37 -31q0 -28 37 -28z" />
    <glyph glyph-name="Umacron.ss01" horiz-adv-x="1404" 
d="M702 -20q-245 0 -394.5 144.5t-149.5 405.5v904h219v-897q0 -164 88.5 -258.5t236.5 -94.5q149 0 237.5 94t88.5 257v899h219v-902q0 -262 -151 -407t-394 -145zM944 1516h-481v79h481v-79z" />
    <glyph glyph-name="Ubreve.ss01" horiz-adv-x="1404" 
d="M702 -20q-245 0 -394.5 144.5t-149.5 405.5v904h219v-897q0 -164 88.5 -258.5t236.5 -94.5q149 0 237.5 94t88.5 257v899h219v-902q0 -262 -151 -407t-394 -145zM748 1505h-89q-39 0 -67.5 4.5t-57 17t-46 38.5t-23.5 65h78q12 -53 123 -53h75q54 0 84 11.5t37 41.5h80
q-6 -39 -23.5 -65t-46 -38.5t-57 -17t-67.5 -4.5z" />
    <glyph glyph-name="Utilde.ss01" horiz-adv-x="1404" 
d="M702 -20q-245 0 -394.5 144.5t-149.5 405.5v904h219v-897q0 -164 88.5 -258.5t236.5 -94.5q149 0 237.5 94t88.5 257v899h219v-902q0 -262 -151 -407t-394 -145zM518 1479l-78 12q4 115 111 115q23 0 88 -9l188 -20q57 -3 60 47l80 -12q-4 -115 -111 -115q-33 0 -90 8
l-186 19q-59 3 -62 -45z" />
    <glyph glyph-name="Uogonek.ss01" horiz-adv-x="1404" 
d="M987 -145v-95h-145q-87 0 -131.5 37t-44.5 105q0 51 24 78q-241 5 -386.5 148.5t-145.5 401.5v904h219v-897q0 -164 88.5 -258.5t236.5 -94.5q149 0 237.5 94t88.5 257v899h219v-902q0 -212 -102 -351t-279 -183q-96 -26 -96 -86q0 -57 74 -57h143z" />
    <glyph glyph-name="Wdieresis.ss01" horiz-adv-x="1773" 
d="M1397 0h-226l-284 803l-287 -803h-225l-328 1434h219l252 -1131l299 852h148l299 -856l252 1135h210zM1180 1513h-238v80h238v-80zM829 1513h-237v80h237v-80z" />
    <glyph glyph-name="Wacute.ss01" horiz-adv-x="1773" 
d="M1397 0h-226l-284 803l-287 -803h-225l-328 1434h219l252 -1131l299 852h148l299 -856l252 1135h210zM1143 1513h-512v35l508 64h4v-99z" />
    <glyph glyph-name="Wgrave.ss01" horiz-adv-x="1773" 
d="M1397 0h-226l-284 803l-287 -803h-225l-328 1434h219l252 -1131l299 852h148l299 -856l252 1135h210zM1143 1513h-512v101h4l508 -66v-35z" />
    <glyph glyph-name="Wcircumflex.ss01" horiz-adv-x="1773" 
d="M1397 0h-226l-284 803l-287 -803h-225l-328 1434h219l252 -1131l299 852h148l299 -856l252 1135h210zM885 1530l-254 -37v47l258 86l254 -86v-47z" />
    <glyph glyph-name="Yacute.ss01" horiz-adv-x="1171" 
d="M694 719v-719h-219v721l-467 713h260l324 -508l323 508h248zM842 1513h-512v35l508 64h4v-99z" />
    <glyph glyph-name="Ydieresis.ss01" horiz-adv-x="1171" 
d="M694 719v-719h-219v721l-467 713h260l324 -508l323 508h248zM879 1513h-238v80h238v-80zM528 1513h-237v80h237v-80z" />
    <glyph glyph-name="Ygrave.ss01" horiz-adv-x="1171" 
d="M694 719v-719h-219v721l-467 713h260l324 -508l323 508h248zM842 1513h-512v101h4l508 -66v-35z" />
    <glyph glyph-name="Ycircumflex.ss01" horiz-adv-x="1171" 
d="M694 719v-719h-219v721l-467 713h260l324 -508l323 508h248zM584 1530l-254 -37v47l258 86l254 -86v-47z" />
    <glyph glyph-name="Zcaron.ss01" horiz-adv-x="1185" 
d="M1120 195v-195h-1061v141l772 1098h-731v195h1014v-142l-770 -1097h776zM592 1591l254 37v-47l-258 -86l-254 86v47z" />
    <glyph glyph-name="Zdotaccent.ss01" horiz-adv-x="1185" 
d="M1120 195v-195h-1061v141l772 1098h-731v195h1014v-142l-770 -1097h776zM592 1516q-32 0 -55 22t-23 51q0 30 23 52t55 22t54 -22t22 -52t-22 -51.5t-54 -21.5z" />
    <glyph glyph-name="Zacute.ss01" horiz-adv-x="1185" 
d="M1120 195v-195h-1061v141l772 1098h-731v195h1014v-142l-770 -1097h776zM848 1516h-512v34l508 64h4v-98z" />
    </font>
</defs>
</svg>
