<?xml version="1.0" standalone="no"?>
<!DOCTYPE svg PUBLIC "-//W3C//DTD SVG 1.1//EN" "http://www.w3.org/Graphics/SVG/1.1/DTD/svg11.dtd" >
<svg xmlns="http://www.w3.org/2000/svg" xmlns:xlink="http://www.w3.org/1999/xlink" version="1.1">
<metadata>
Created by FontForge 20170731 at Wed May 12 14:46:32 2021
 By Aleksey,,,
Copyright (c) 2016 by Fatype. All rights reserved.
</metadata>
<defs>
<font id="BatonTurbo-BookItalic" horiz-adv-x="1339" >
  <font-face 
    font-family="Baton Turbo"
    font-weight="400"
    font-style="italic"
    font-stretch="normal"
    units-per-em="2048"
    panose-1="2 11 5 3 3 2 2 13 2 3"
    ascent="1536"
    descent="-512"
    x-height="1008"
    cap-height="1434"
    bbox="-434 -487 2800 2275"
    underline-thickness="0"
    underline-position="0"
    slope="-12"
    unicode-range="U+000D-FB04"
  />
<missing-glyph horiz-adv-x="1126" 
d="M872 0h-921l305 1434h922zM336 1331l-260 -1229h717l260 1229h-717z" />
    <glyph glyph-name="ff" unicode="ff" horiz-adv-x="1294" 
d="M887 0h-205l178 831h-418l-178 -831h-205l177 831h-154l37 177h153l37 170q20 85 45.5 138t71.5 93q79 70 211 70q62 0 120.5 -21.5t88.5 -52.5l-113 -143q-39 36 -98 36q-94 0 -117 -106l-39 -184h418l31 145q20 91 50 152.5t81 101.5q87 72 227 72q90 0 158.5 -30.5
t105.5 -80.5l-141 -125q-44 57 -121 57q-59 0 -99.5 -35t-53.5 -106l-33 -151h231l-37 -177h-231z" />
    <glyph glyph-name="fi" unicode="fi" horiz-adv-x="1212" 
d="M1067 1194q-55 0 -93 38t-38 93q0 57 37.5 94t93.5 37t93.5 -37t37.5 -94q0 -55 -38 -93t-93 -38zM891 0h-209l176 831h-418l-176 -831h-205l177 831h-154l37 177h153l35 159q36 168 127 242q90 70 221 70q88 0 181 -39l-91 -166q-55 24 -98 24q-49 0 -84.5 -29.5
t-48.5 -94.5l-35 -166h625z" />
    <glyph glyph-name="fl" unicode="fl" horiz-adv-x="1212" 
d="M891 0h-209l313 1470h209zM711 1008l-37 -177h-234l-176 -831h-205l177 831h-154l37 177h153l35 159q36 168 127 242q90 70 221 70q88 0 181 -39l-91 -166q-55 24 -98 24q-49 0 -84.5 -29.5t-48.5 -94.5l-35 -166h232z" />
    <glyph glyph-name="f_f_i" unicode="ffi" horiz-adv-x="1835" 
d="M1690 1194q-56 0 -93.5 38t-37.5 93q0 57 37.5 94t93.5 37t93.5 -37t37.5 -94q0 -55 -37.5 -93t-93.5 -38zM887 0h-205l176 831h-416l-178 -831h-205l177 831h-154l37 177h153l37 170q20 85 45.5 138t71.5 93q79 70 211 70q62 0 120.5 -21.5t88.5 -52.5l-113 -143
q-39 36 -98 36q-94 0 -117 -106l-39 -184h416l35 159q36 168 127 242q90 70 221 70q87 0 180 -39l-90 -166q-55 24 -98 24q-49 0 -84.5 -29.5t-48.5 -94.5l-35 -166h624l-213 -1008h-208l176 831h-418z" />
    <glyph glyph-name="f_f_l" unicode="ffl" horiz-adv-x="1835" 
d="M1513 0h-208l313 1470h209zM887 0h-205l176 831h-416l-178 -831h-205l177 831h-154l37 177h153l37 170q20 85 45.5 138t71.5 93q79 70 211 70q62 0 120.5 -21.5t88.5 -52.5l-113 -143q-39 36 -98 36q-94 0 -117 -106l-39 -184h416l35 159q36 168 127 242q90 70 221 70
q87 0 180 -39l-90 -166q-55 24 -98 24q-49 0 -84.5 -29.5t-48.5 -94.5l-35 -166h231l-37 -177h-233z" />
    <glyph glyph-name="f_j" unicode="fj" horiz-adv-x="1212" 
d="M1067 1194q-55 0 -93 38t-38 93q0 57 37.5 94t93.5 37t93.5 -37t37.5 -94q0 -55 -38 -93t-93 -38zM512 -410q-26 0 -61 7l36 178h25q121 0 152 141l194 915h-418l-176 -831h-205l177 831h-154l37 177h153l35 159q36 168 127 242q90 70 221 70q88 0 181 -39l-91 -166
q-55 24 -98 24q-49 0 -84.5 -29.5t-48.5 -94.5l-35 -166h625l-236 -1112q-31 -156 -123.5 -231t-232.5 -75z" />
    <glyph glyph-name="f_b" unicode="fb" horiz-adv-x="1861" 
d="M1192 -20q-94 0 -171.5 38.5t-115.5 104.5l-26 -123h-197l313 1470h209l-119 -552q45 52 114 83t147 31q169 0 280 -114q113 -113 113 -304q0 -114 -38 -226t-106 -203.5t-173.5 -148t-229.5 -56.5zM1194 170q80 0 145.5 40.5t104.5 105t59.5 136t20.5 140.5
q0 117 -61.5 184.5t-162.5 67.5q-99 0 -178 -67t-108 -199l-29 -132q-6 -27 -6 -65q0 -96 60.5 -153.5t154.5 -57.5zM711 1008l-37 -177h-234l-176 -831h-205l177 831h-154l37 177h153l35 159q36 168 127 242q90 70 221 70q88 0 181 -39l-91 -166q-55 24 -98 24
q-49 0 -84.5 -29.5t-48.5 -94.5l-35 -166h232z" />
    <glyph glyph-name=".notdef" horiz-adv-x="1126" 
d="M872 0h-921l305 1434h922zM336 1331l-260 -1229h717l260 1229h-717z" />
    <glyph glyph-name=".null" horiz-adv-x="0" 
 />
    <glyph glyph-name="nonmarkingreturn" horiz-adv-x="682" 
 />
    <glyph glyph-name="NULL" horiz-adv-x="1024" 
 />
    <glyph glyph-name="NULL" horiz-adv-x="1024" 
 />
    <glyph glyph-name="CR" unicode="&#xd;" horiz-adv-x="1024" 
 />
    <glyph glyph-name="space" unicode=" " horiz-adv-x="503" 
 />
    <glyph glyph-name="exclam" unicode="!" horiz-adv-x="604" 
d="M330 428h-174l182 1006h233zM176 -23q-57 0 -99 42t-42 102q0 57 42 99t99 42q59 0 100 -41.5t41 -99.5q0 -60 -40.5 -102t-100.5 -42z" />
    <glyph glyph-name="quotedbl" unicode="&#x22;" horiz-adv-x="829" 
d="M358 946h-159l73 488h220zM731 946h-160l74 488h219z" />
    <glyph glyph-name="numbersign" unicode="#" horiz-adv-x="1480" 
d="M504 475h289l168 402h-291zM791 0h-195l125 299h-291l-125 -299h-194l125 299h-256l71 176h256l168 402h-256l76 176h252l125 299h196l-125 -299h289l125 299h197l-125 -299h256l-74 -176h-256l-166 -402h254l-74 -176h-254z" />
    <glyph glyph-name="dollar" unicode="$" horiz-adv-x="1255" 
d="M436 997q0 -59 34.5 -98t125.5 -76l78 365q-109 -8 -173.5 -59t-64.5 -132zM852 381q0 62 -35.5 108t-126.5 82l-84 -399q117 4 181.5 64t64.5 145zM580 -6h-13l-43 -203h-147l47 217q-169 34 -265.5 148.5t-95.5 314.5h211q0 -230 187 -283l92 430l-47 17
q-144 48 -213.5 135t-69.5 201q0 169 138.5 283t351.5 114l41 195h147l-45 -209q147 -33 238.5 -126.5t91.5 -223.5q0 -8 -2.5 -26.5t-3.5 -31.5h-205q2 14 2 35q0 71 -44 119.5t-116 70.5l-84 -397l21 -8q313 -113 313 -360q0 -184 -137 -297q-136 -115 -350 -115z" />
    <glyph glyph-name="percent" unicode="%" horiz-adv-x="2134" 
d="M514 629q-134 0 -229 92q-95 95 -95 248q0 125 55.5 237t151 181t205.5 69q134 0 229 -92q95 -89 95 -246q0 -126 -54.5 -238.5t-150 -181.5t-207.5 -69zM524 797q86 0 150.5 97t64.5 214q0 85 -41 132.5t-106 47.5q-86 0 -150.5 -95.5t-64.5 -213.5q0 -85 41 -133.5
t106 -48.5zM1534 -20q-134 0 -229 92q-95 95 -95 247q0 125 55.5 237.5t151 181.5t205.5 69q134 0 229 -92q95 -89 95 -246q0 -126 -54.5 -238.5t-150 -181.5t-207.5 -69zM1544 147q86 0 150.5 97.5t64.5 214.5q0 85 -41 132.5t-106 47.5q-86 0 -150.5 -95.5t-64.5 -213.5
q0 -86 41 -134.5t106 -48.5zM498 -29l-129 119l1265 1374l129 -118z" />
    <glyph glyph-name="ampersand" unicode="&#x26;" horiz-adv-x="1372" 
d="M1122 86l-166 -111l-102 152q-191 -150 -393 -150q-180 0 -304 104.5t-124 264.5q0 156 95 264t271 185q-98 157 -98 280q0 73 31 142.5t84.5 123t132 85.5t166.5 32q151 0 258.5 -92.5t107.5 -230.5q0 -148 -96 -238q-93 -87 -293 -188l199 -287q98 112 223 328l166 -97
q-131 -220 -281 -389zM506 1081q0 -91 86 -225q157 72 219.5 127.5t62.5 134.5q0 69 -50.5 113.5t-125.5 44.5q-85 0 -138.5 -58.5t-53.5 -136.5zM479 164q130 0 271 115l-246 360q-115 -42 -186.5 -110.5t-71.5 -161.5q0 -91 66 -147t167 -56z" />
    <glyph glyph-name="quotesingle" unicode="'" horiz-adv-x="456" 
d="M358 946h-159l73 488h220z" />
    <glyph glyph-name="parenleft" unicode="(" horiz-adv-x="706" 
d="M475 -221l-160 -119q-104 144 -168 342q-63 198 -63 410q0 348 177.5 700t463.5 584l135 -137q-112 -97 -212.5 -227t-178.5 -277.5t-124 -312.5t-46 -318q0 -180 47 -346.5t129 -298.5z" />
    <glyph glyph-name="parenright" unicode=")" horiz-adv-x="706" 
d="M215 1579l160 119q101 -139 166 -344q65 -201 65 -408q0 -348 -177.5 -700t-463.5 -584l-135 137q112 97 212.5 227t178.5 277.5t124 312.5t46 318q0 180 -47 346.5t-129 298.5z" />
    <glyph glyph-name="asterisk" unicode="*" horiz-adv-x="933" 
d="M528 938l-219 -242l-114 97l217 237l-260 94l73 142l260 -95l66 299h154l-64 -296l295 90l20 -150l-294 -88l124 -246l-139 -84z" />
    <glyph glyph-name="plus" unicode="+" horiz-adv-x="1193" 
d="M1106 795l-39 -181h-393l-90 -419h-193l90 419h-395l39 181h393l88 409h193l-88 -409h395z" />
    <glyph glyph-name="comma" unicode="," horiz-adv-x="550" 
d="M4 -317l-92 90q136 136 186 217q-39 14 -64.5 49.5t-25.5 79.5q0 57 42.5 100t99.5 43q58 0 98.5 -41t40.5 -102q0 -91 -85 -211.5t-200 -224.5z" />
    <glyph glyph-name="hyphen" unicode="-" horiz-adv-x="761" 
d="M621 453h-588l37 180h587z" />
    <glyph glyph-name="period" unicode="." horiz-adv-x="548" 
d="M150 -23q-60 0 -101 42t-41 102q0 58 41.5 99.5t100.5 41.5q57 0 99 -42t42 -99q0 -60 -42 -102t-99 -42z" />
    <glyph glyph-name="slash" unicode="/" horiz-adv-x="872" 
d="M82 -123h-221l930 1679h221z" />
    <glyph glyph-name="zero" unicode="0" horiz-adv-x="1335" 
d="M575 -20q-100 0 -184.5 34t-149 99.5t-101 170t-36.5 236.5q0 134 28.5 267.5t85.5 253.5t135 213t184.5 147.5t226.5 54.5q100 0 184.5 -34t148.5 -100t100 -170.5t36 -236.5q0 -135 -28.5 -269.5t-85.5 -254t-135 -211.5t-184 -146t-225 -54zM588 182q74 0 142 45
t117.5 120.5t87 170t56.5 196t19 197.5q0 164 -68.5 253t-191.5 89q-93 0 -174.5 -69.5t-134 -177t-83 -234.5t-30.5 -246q0 -164 70 -254t190 -90z" />
    <glyph glyph-name="one" unicode="1" horiz-adv-x="825" 
d="M788 1434l-305 -1434h-217l252 1176l-377 -181l29 209l471 230h147z" />
    <glyph glyph-name="two" unicode="2" horiz-adv-x="1130" 
d="M901 195l-43 -195h-924l33 154l656 571q134 119 184 186q51 68 51 154q0 81 -56.5 135.5t-150.5 54.5q-109 0 -182.5 -64t-93.5 -175h-211q30 192 169.5 317t336.5 125q192 0 304.5 -107.5t112.5 -256.5q0 -136 -73 -246q-68 -104 -248 -258l-465 -395h600z" />
    <glyph glyph-name="three" unicode="3" horiz-adv-x="1163" 
d="M471 -20q-212 0 -338 113.5t-127 309.5h213q6 -101 73 -164t195 -63q123 0 201 79t78 179t-66.5 160.5t-183.5 60.5h-156l41 189h183q146 0 217 71t71 160q0 84 -60 135.5t-155 51.5q-104 0 -173.5 -52.5t-94.5 -144.5h-211q34 169 165.5 281t332.5 112q197 0 309 -106
q113 -104 113 -258q0 -138 -76 -232q-78 -96 -176 -135q69 -39 109 -113t40 -172q0 -86 -38.5 -169t-105.5 -148t-166.5 -105t-213.5 -40z" />
    <glyph glyph-name="four" unicode="4" horiz-adv-x="1169" 
d="M1065 526l-43 -190h-193l-69 -336h-211l72 336h-637l28 139l674 959h246l-645 -908h377l59 285h209l-62 -285h195z" />
    <glyph glyph-name="five" unicode="5" horiz-adv-x="1161" 
d="M469 -23q-109 0 -205.5 38t-166.5 120.5t-83 196.5l203 55q17 -99 85.5 -156t176.5 -57q132 0 217.5 96t85.5 213q0 107 -66 175.5t-181 68.5q-73 0 -136.5 -32t-101.5 -85h-193l258 824h793l-43 -195h-600l-121 -377q94 62 207 62q194 0 301 -119q109 -118 109 -293
q0 -102 -38 -197.5t-105.5 -171t-171 -121t-224.5 -45.5z" />
    <glyph glyph-name="six" unicode="6" horiz-adv-x="1230" 
d="M1075 492q0 -96 -38.5 -189t-105.5 -165.5t-165.5 -116.5t-210.5 -44q-88 0 -168.5 29.5t-147.5 86.5t-107 153t-40 217q0 245 81.5 476t188.5 341q89 93 181.5 135.5t214.5 42.5q163 0 290.5 -89.5t151.5 -238.5l-203 -55q-20 89 -85.5 137t-159.5 48q-135 0 -238 -125
t-166 -363q51 64 129 99.5t168 35.5q186 0 308 -120.5t122 -294.5zM565 174q118 0 203.5 91t85.5 210q0 102 -70.5 170t-175.5 68q-118 0 -205.5 -85.5t-87.5 -211.5q0 -103 71 -172.5t179 -69.5z" />
    <glyph glyph-name="seven" unicode="7" horiz-adv-x="1026" 
d="M1083 1272l-817 -1272h-258l807 1239h-647l41 195h909z" />
    <glyph glyph-name="eight" unicode="8" horiz-adv-x="1185" 
d="M500 -23q-196 0 -325.5 116t-129.5 286q0 133 80 242.5t211 164.5q-119 101 -119 256q0 112 65 208.5t175 152t237 55.5q180 0 300 -107.5t120 -267.5q0 -111 -69 -207.5t-181 -148.5q70 -56 109 -132.5t39 -166.5q0 -87 -41 -169.5t-109.5 -144.5t-163.5 -99.5
t-198 -37.5zM676 1266q-105 0 -176 -68q-70 -64 -70 -156q0 -84 64 -142t157 -58q105 0 176 71q72 72 72 162q0 79 -63 135t-160 56zM516 170q119 0 199 77t80 179q0 98 -73 164.5t-179 66.5q-118 0 -199 -75q-80 -77 -80 -187q0 -88 72 -157q74 -68 180 -68z" />
    <glyph glyph-name="nine" unicode="9" horiz-adv-x="1230" 
d="M668 1262q-118 0 -203.5 -91t-85.5 -210q0 -102 70.5 -170t175.5 -68q118 0 205.5 85.5t87.5 211.5q0 103 -71 172.5t-179 69.5zM475 -23q-163 0 -290.5 89.5t-151.5 238.5l203 55q20 -89 85.5 -136.5t159.5 -47.5q135 0 238 125t166 363q-52 -64 -129.5 -100t-167.5 -36
q-186 0 -308 121t-122 295q0 96 38.5 189t105.5 165t165.5 116t210.5 44q88 0 168.5 -29.5t147.5 -86.5t107 -152.5t40 -216.5q0 -245 -82 -476t-189 -341q-89 -94 -181.5 -136.5t-213.5 -42.5z" />
    <glyph glyph-name="colon" unicode=":" horiz-adv-x="585" 
d="M168 -23q-60 0 -100.5 42t-40.5 102q0 58 41 99.5t100 41.5q57 0 99 -42t42 -99q0 -60 -42 -102t-99 -42zM332 748q-60 0 -101 41.5t-41 101.5q0 58 41.5 99.5t100.5 41.5q57 0 99 -42t42 -99q0 -59 -41.5 -101t-99.5 -42z" />
    <glyph glyph-name="semicolon" unicode=";" horiz-adv-x="585" 
d="M23 -317l-93 90q138 138 187 217q-39 14 -64.5 49.5t-25.5 79.5q0 57 42 100t99 43q58 0 98.5 -41t40.5 -102q0 -91 -85 -211.5t-199 -224.5zM332 748q-60 0 -101 41.5t-41 101.5q0 58 41.5 99.5t100.5 41.5q57 0 99 -42t42 -99q0 -59 -41.5 -101t-99.5 -42z" />
    <glyph glyph-name="less" unicode="&#x3c;" horiz-adv-x="991" 
d="M803 397l-41 -194l-688 381l41 182l848 381l-45 -213l-613 -268z" />
    <glyph glyph-name="equal" unicode="=" horiz-adv-x="1191" 
d="M1081 836h-919l37 176h919zM989 393h-919l36 176h920z" />
    <glyph glyph-name="greater" unicode="&#x3e;" horiz-adv-x="991" 
d="M860 584l-848 -381l45 213l613 268l-498 268l41 195l688 -381z" />
    <glyph glyph-name="question" unicode="?" horiz-adv-x="1050" 
d="M504 426h-209l22 111q29 130 75 185.5t169 111.5l72 32q89 40 133.5 91.5t44.5 127.5q0 81 -58.5 133t-154.5 52q-97 0 -165 -62t-91 -172l-201 33q36 185 163 287t300 102q187 0 305 -100q121 -103 121 -254q0 -146 -80 -239t-235 -167l-78 -36q-55 -27 -78.5 -55.5
t-36.5 -96.5zM346 -23q-60 0 -100.5 42t-40.5 102q0 58 41 99.5t100 41.5q57 0 99 -42t42 -99q0 -60 -42 -102t-99 -42z" />
    <glyph glyph-name="at" unicode="@" horiz-adv-x="1882" 
d="M838 -348q-161 0 -303.5 57t-245.5 156.5t-163 242.5t-60 308q0 151 44 296.5t127.5 268.5t194.5 216.5t254.5 146.5t298.5 53q216 0 391.5 -97.5t274 -265t98.5 -370.5q0 -78 -16 -157t-51.5 -154.5t-86 -133.5t-125 -93.5t-163.5 -35.5q-86 0 -149.5 35t-90.5 92
q-110 -123 -252 -123q-140 0 -237 96t-97 254q0 99 34.5 192t92 162t138 110.5t167.5 41.5q78 0 138.5 -25.5t93.5 -70.5l22 78l181 -8l-111 -527q-16 -73 11.5 -107t80.5 -34q71 0 127 58t84.5 146.5t28.5 186.5q0 165 -74.5 298t-209.5 208.5t-304 75.5q-154 0 -292 -67.5
t-234.5 -179t-152.5 -257.5t-56 -301q0 -174 78 -313t214.5 -216t305.5 -77q172 0 323 71l50 -155q-168 -82 -379 -82zM854 276q54 0 106.5 34.5t83.5 97.5l43 204q-1 66 -52 108t-122 42q-102 0 -166.5 -87.5t-64.5 -203.5q0 -91 48.5 -143t123.5 -52z" />
    <glyph glyph-name="A" unicode="A" 
d="M791 1214h-5l-284 -530h358zM1163 0h-223l-63 492h-474l-266 -492h-241l804 1434h261z" />
    <glyph glyph-name="B" unicode="B" horiz-adv-x="1298" 
d="M555 0h-524l305 1434h471q202 0 310 -90t108 -242q0 -115 -68 -206t-178 -130q71 -39 111 -115t40 -178q0 -209 -152 -341t-423 -132zM778 1247h-264l-78 -370h344q91 0 153 55.5t62 146.5q0 80 -58.5 124t-158.5 44zM397 694l-108 -508h291q149 0 237 81t88 206
q0 108 -68 164.5t-186 56.5h-254z" />
    <glyph glyph-name="C" unicode="C" horiz-adv-x="1470" 
d="M696 -20q-123 0 -232.5 47t-190.5 129t-128 200t-47 254q0 162 55.5 315t151.5 270t236 188t299 71q225 0 378 -114.5t185 -321.5l-221 -41q-21 106 -111 190q-88 82 -250 82q-137 0 -251.5 -90t-178 -235.5t-63.5 -309.5q0 -186 108 -309q109 -121 275 -121
q161 0 268 101q110 104 162 252l209 -64q-86 -240 -258 -366.5t-396 -126.5z" />
    <glyph glyph-name="D" unicode="D" horiz-adv-x="1421" 
d="M532 0h-501l305 1434h436q241 0 398 -160t157 -416q0 -195 -64.5 -358.5t-173.5 -272t-253 -168t-304 -59.5zM512 1239l-221 -1044h274q107 0 204.5 49t170 134.5t115.5 207.5t43 260q0 176 -105 284q-106 109 -264 109h-217z" />
    <glyph glyph-name="E" unicode="E" horiz-adv-x="1226" 
d="M293 195h723l-41 -195h-944l305 1434h936l-41 -195h-719l-70 -334h668l-41 -194h-668z" />
    <glyph glyph-name="F" unicode="F" horiz-adv-x="1116" 
d="M1026 887l-41 -195h-588l-147 -692h-219l305 1434h866l-41 -195h-649l-74 -352h588z" />
    <glyph glyph-name="G" unicode="G" horiz-adv-x="1523" 
d="M1417 688l-14 -70q-30 -147 -99 -268t-163 -201.5t-208.5 -124.5t-236.5 -44t-231.5 45.5t-190.5 126.5t-128.5 199.5t-47.5 256.5q0 130 35 254.5t102.5 231t159 187.5t213 127t256.5 46q218 0 376.5 -120.5t178.5 -313.5l-221 -51q-19 116 -114.5 198t-245.5 82
q-143 0 -261.5 -91.5t-183.5 -237t-65 -306.5q0 -188 108 -311q112 -121 277 -121q139 0 257 85t171 231h-383l41 190h618z" />
    <glyph glyph-name="H" unicode="H" horiz-adv-x="1501" 
d="M1165 0h-219l160 750h-696l-160 -750h-219l305 1434h219l-104 -490h696l104 490h219z" />
    <glyph glyph-name="I" unicode="I" horiz-adv-x="583" 
d="M250 0h-219l305 1434h219z" />
    <glyph glyph-name="J" unicode="J" horiz-adv-x="1067" 
d="M365 -18q-84 0 -157.5 26t-130.5 76t-89.5 129.5t-30.5 179.5l215 27q0 -111 56 -173.5t155 -62.5q88 0 148.5 63t86.5 181l216 1006h219l-226 -1055q-38 -190 -158 -293.5t-304 -103.5z" />
    <glyph glyph-name="K" unicode="K" horiz-adv-x="1300" 
d="M1135 0h-236l-276 815l-242 -197l-131 -618h-219l305 1434h219l-115 -539l666 539h311l-614 -486z" />
    <glyph glyph-name="L" unicode="L" horiz-adv-x="1093" 
d="M891 0h-860l305 1434h219l-264 -1239h643z" />
    <glyph glyph-name="M" unicode="M" horiz-adv-x="1671" 
d="M766 623l-281 483l-235 -1106h-219l305 1434h207l313 -543l555 543h231l-305 -1434h-219l236 1106l-498 -483h-90z" />
    <glyph glyph-name="N" unicode="N" horiz-adv-x="1497" 
d="M1161 0h-211l-475 1079l-229 -1079h-215l305 1434h211l475 -1084l229 1084h215z" />
    <glyph glyph-name="O" unicode="O" horiz-adv-x="1550" 
d="M692 -20q-124 0 -233.5 47t-189 129.5t-125.5 200t-46 251.5q0 157 56.5 308.5t154.5 271t242.5 193t308.5 73.5q166 0 302.5 -80.5t215 -224.5t78.5 -322q0 -125 -36 -249t-104.5 -231t-160 -189.5t-212 -130t-251.5 -47.5zM709 184q107 0 204.5 55.5t165.5 144.5
t108 203t40 230q0 186 -108 309t-277 123q-106 0 -203.5 -55t-165 -143.5t-107.5 -202.5t-40 -230q0 -189 108 -311.5t275 -122.5z" />
    <glyph glyph-name="P" unicode="P" horiz-adv-x="1191" 
d="M784 1239h-272l-86 -405h299q111 0 180 69q72 72 72 160q0 79 -51 127.5t-142 48.5zM709 637h-326l-135 -637h-217l305 1434h502q168 0 266 -101q100 -100 100 -252q0 -190 -136 -317t-359 -127z" />
    <glyph glyph-name="Q" unicode="Q" horiz-adv-x="1550" 
d="M1358 53l-152 -119l-125 166q-178 -120 -389 -120q-124 0 -233.5 47t-189 129.5t-125.5 200t-46 251.5q0 157 56.5 308.5t154.5 271t242.5 193t308.5 73.5q166 0 302.5 -80.5t215 -224.5t78.5 -322q0 -164 -61 -322t-170 -280zM709 184q128 0 247 82l-204 266l147 115
l191 -248q64 89 100.5 199t36.5 219q0 186 -108 309t-277 123q-106 0 -203.5 -55t-165 -143.5t-107.5 -202.5t-40 -230q0 -189 108 -311.5t275 -122.5z" />
    <glyph glyph-name="R" unicode="R" horiz-adv-x="1282" 
d="M813 1239h-303l-84 -397h334q108 0 179 65t71 154q0 85 -53.5 131.5t-143.5 46.5zM1102 0h-236l-229 649h-252l-137 -649h-217l305 1434h518q175 0 280 -95.5t105 -259.5q0 -95 -42 -182t-118 -143q-102 -73 -221 -95z" />
    <glyph glyph-name="S" unicode="S" horiz-adv-x="1230" 
d="M553 -20q-113 0 -206 27.5t-166 84t-113.5 151.5t-40.5 222v35l215 12q-2 -18 -2 -41q1 -149 88 -227t233 -78q107 0 191 68t84 169q0 80 -55.5 136t-186.5 112l-117 49q-130 55 -200 143t-70 193q0 177 141 297.5t350 120.5q205 0 340.5 -105.5t135.5 -275.5
q0 -8 -4 -29t-5 -32l-211 -4q2 16 2 39q0 115 -82 167q-85 54 -186 54q-113 0 -187.5 -55t-74.5 -142q0 -63 46.5 -110t156.5 -97l119 -51q311 -133 311 -385q0 -94 -39 -177.5t-106 -142.5t-161 -93.5t-200 -34.5z" />
    <glyph glyph-name="T" unicode="T" horiz-adv-x="1173" 
d="M1280 1434l-41 -195h-432l-262 -1239h-221l264 1239h-430l41 195h1081z" />
    <glyph glyph-name="U" unicode="U" horiz-adv-x="1406" 
d="M633 -20q-121 0 -221 37.5t-170.5 113t-94.5 189t7 264.5l180 850h219l-182 -859q-40 -194 43 -294q88 -97 235 -97q159 0 236 95q76 91 112 243l195 912h219l-199 -934q-111 -520 -579 -520z" />
    <glyph glyph-name="V" unicode="V" horiz-adv-x="1282" 
d="M608 0h-256l-172 1434h221l125 -1170h6l619 1170h238z" />
    <glyph glyph-name="W" unicode="W" horiz-adv-x="1757" 
d="M1221 0h-232l-106 791l-445 -791h-227l-21 1434h216l8 -1123l471 844h143l109 -854l489 1133h223z" />
    <glyph glyph-name="X" unicode="X" horiz-adv-x="1247" 
d="M1069 0h-238l-225 575l-467 -575h-266l625 756l-279 678h240l203 -521l417 521h264l-573 -695z" />
    <glyph glyph-name="Y" unicode="Y" horiz-adv-x="1169" 
d="M692 719l-149 -719h-221l153 725l-309 709h237l215 -512l429 512h262z" />
    <glyph glyph-name="Z" unicode="Z" horiz-adv-x="1161" 
d="M989 195l-43 -195h-1046l28 141l973 1098h-698l43 195h999l-28 -142l-973 -1097h745z" />
    <glyph glyph-name="bracketleft" unicode="[" horiz-adv-x="741" 
d="M477 -317h-516l410 1923h516l-37 -170h-307l-336 -1583h307z" />
    <glyph glyph-name="backslash" unicode="\" horiz-adv-x="845" 
d="M629 -123h-197l-213 1679h197z" />
    <glyph glyph-name="bracketright" unicode="]" horiz-adv-x="741" 
d="M233 1606h517l-410 -1923h-516l37 170h307l336 1583h-307z" />
    <glyph glyph-name="asciicircum" unicode="^" horiz-adv-x="1046" 
d="M1006 811h-205l-154 422l-330 -422h-233l500 623h184z" />
    <glyph glyph-name="underscore" unicode="_" horiz-adv-x="884" 
d="M666 -209h-838l31 146h837z" />
    <glyph glyph-name="grave" unicode="`" horiz-adv-x="530" 
d="M532 1157h-151l-141 289v4h213l79 -289v-4z" />
    <glyph glyph-name="a" unicode="a" horiz-adv-x="1198" 
d="M473 170q93 0 174 63q87 66 117 213l24 117q1 8 5 32.5t4 37.5q0 96 -61.5 153.5t-155.5 57.5q-80 0 -145.5 -41.5t-104.5 -105.5t-59.5 -136t-20.5 -139q0 -117 61 -184.5t162 -67.5zM428 -20q-167 0 -281 114q-110 116 -110 305q0 91 23 182t70 172t111 143.5t152.5 99
t188.5 36.5q94 0 172 -39t116 -106l25 121h197l-213 -1008h-197l23 113q-50 -60 -121.5 -96.5t-155.5 -36.5z" />
    <glyph glyph-name="b" unicode="b" horiz-adv-x="1198" 
d="M528 -20q-94 0 -171 38.5t-115 104.5l-27 -123h-197l314 1470h209l-119 -552q45 52 113.5 83t146.5 31q170 0 281 -114q112 -112 112 -304q0 -114 -38 -226t-106 -203.5t-173.5 -148t-229.5 -56.5zM530 170q80 0 145.5 40.5t104.5 105t59.5 136t20.5 140.5
q0 117 -61 184.5t-162 67.5q-99 0 -178.5 -67t-108.5 -199l-28 -132q-7 -32 -7 -65q0 -96 60.5 -153.5t154.5 -57.5z" />
    <glyph glyph-name="c" unicode="c" horiz-adv-x="1079" 
d="M477 -23q-115 0 -213 50t-161.5 153.5t-63.5 241.5q0 114 38.5 223.5t107 196t172 139.5t223.5 53q171 0 280 -92q112 -92 133 -221l-198 -51q-19 84 -79 130t-149 46q-85 0 -158 -56.5t-115 -151.5t-42 -204q0 -124 71 -196t169 -72q164 0 266 190l166 -92
q-73 -140 -189 -213.5t-258 -73.5z" />
    <glyph glyph-name="d" unicode="d" horiz-adv-x="1200" 
d="M473 170q100 0 182 71.5t111 211.5l22 110q9 40 9 70q0 96 -61.5 153.5t-155.5 57.5q-80 0 -145.5 -41.5t-104.5 -105.5t-59.5 -136t-20.5 -139q0 -117 61 -184.5t162 -67.5zM428 -20q-167 0 -281 114q-110 116 -110 305q0 91 23 182t70 172t111 143.5t152.5 99
t188.5 36.5q89 0 164 -35.5t116 -97.5l121 571h209l-313 -1470h-197l23 113q-50 -60 -121.5 -96.5t-155.5 -36.5z" />
    <glyph glyph-name="e" unicode="e" horiz-adv-x="1120" 
d="M582 862q-108 0 -185.5 -63.5t-113.5 -175.5h516q2 14 2 36q0 91 -64 147t-155 56zM780 313l140 -112q-70 -105 -183 -162t-260 -57q-184 0 -311 123t-127 317q0 111 39.5 219.5t109.5 196t176 142t228 54.5q189 0 303 -114q113 -113 113 -289q0 -61 -25 -164h-731
q-4 -32 -4 -41q0 -126 69 -199t177 -73q82 0 157 42t129 117z" />
    <glyph glyph-name="f" unicode="f" horiz-adv-x="671" 
d="M711 1008l-37 -177h-232l-178 -831h-205l179 831h-156l37 177h155l31 145q20 91 50 152.5t81 101.5q87 72 228 72q90 0 158.5 -30.5t105.5 -80.5l-142 -125q-44 57 -120 57q-59 0 -100 -35t-54 -106l-33 -151h232z" />
    <glyph glyph-name="g" unicode="g" horiz-adv-x="1202" 
d="M479 207q102 0 182.5 66.5t108.5 191.5l23 104q8 33 8 66q0 100 -62 155.5t-159 55.5q-64 0 -118 -25.5t-90.5 -67t-62.5 -95t-37.5 -107.5t-11.5 -105q0 -110 60 -174.5t159 -64.5zM385 -414q-144 0 -260.5 59t-165.5 171l166 114q36 -81 106.5 -122t165.5 -41
q110 0 182.5 68.5t98.5 193.5l18 82q-108 -93 -256 -93q-171 0 -284 113q-111 114 -111 297q0 87 22 173t67.5 163.5t108 137.5t149.5 95t186 35t177.5 -38.5t116.5 -106.5l25 121h199l-215 -1018q-42 -194 -168.5 -299t-327.5 -105z" />
    <glyph glyph-name="h" unicode="h" horiz-adv-x="1189" 
d="M649 844q-157 0 -284 -199l-138 -645h-209l314 1470h209l-127 -596q63 78 144.5 118t160.5 40q123 0 213 -78q92 -77 92 -229q0 -55 -16 -143l-123 -582h-209l125 590q10 44 10 100q0 68 -46 111t-116 43z" />
    <glyph glyph-name="i" unicode="i" horiz-adv-x="546" 
d="M403 1194q-55 0 -93 38t-38 93q0 57 37.5 94t93.5 37t94 -37t38 -94q0 -55 -38 -93t-94 -38zM227 0h-209l213 1008h209z" />
    <glyph glyph-name="j" unicode="j" horiz-adv-x="546" 
d="M403 1194q-55 0 -93 38t-38 93q0 57 37.5 94t93.5 37t94 -37t38 -94q0 -55 -38 -93t-94 -38zM231 1008h209l-235 -1112q-31 -156 -124 -231t-233 -75q-26 0 -61 7l37 178h24q121 0 152 141z" />
    <glyph glyph-name="k" unicode="k" horiz-adv-x="1075" 
d="M903 0h-219l-209 545l-162 -125l-90 -420h-205l314 1470h205l-172 -806l452 344h297l-469 -344z" />
    <glyph glyph-name="l" unicode="l" horiz-adv-x="548" 
d="M227 0h-209l314 1470h209z" />
    <glyph glyph-name="m" unicode="m" horiz-adv-x="1781" 
d="M631 842q-146 0 -264 -189l-140 -653h-209l213 1008h209l-26 -125q119 147 288 147q89 0 163 -47t106 -127q139 174 348 174q128 0 213.5 -82t85.5 -223q0 -35 -19 -139l-122 -586h-209l125 592q10 44 10 98q0 67 -42 109.5t-106 42.5q-145 0 -266 -189l-137 -653h-209
l125 592q10 44 10 98q0 67 -41.5 109.5t-105.5 42.5z" />
    <glyph glyph-name="n" unicode="n" horiz-adv-x="1189" 
d="M649 844q-156 0 -287 -201l-135 -643h-209l213 1008h209l-28 -136q63 78 145.5 119t161.5 41q123 0 213 -78q92 -77 92 -229q0 -55 -16 -143l-123 -582h-209l125 590q10 44 10 100q0 68 -46 111t-116 43z" />
    <glyph glyph-name="o" unicode="o" horiz-adv-x="1153" 
d="M479 -20q-186 0 -313 123.5t-127 322.5q0 87 24.5 174.5t73 165t113.5 138t152 95.5t184 35q121 0 221 -54t159.5 -155.5t59.5 -232.5q0 -114 -39.5 -223.5t-109 -196t-174 -139.5t-224.5 -53zM489 166q90 0 165.5 59t117 154t41.5 201q0 122 -67.5 194t-172.5 72
q-134 0 -227.5 -124t-93.5 -288q0 -121 67.5 -194.5t169.5 -73.5z" />
    <glyph glyph-name="p" unicode="p" horiz-adv-x="1198" 
d="M530 170q80 0 145.5 40.5t104.5 105t59.5 136t20.5 140.5q0 117 -61 184.5t-162 67.5q-99 0 -179.5 -72t-111.5 -213l-24 -113q-7 -29 -7 -65q0 -96 60.5 -153.5t154.5 -57.5zM528 -20q-88 0 -162.5 34.5t-115.5 94.5l-105 -498h-208l294 1397h199l-24 -113
q119 137 276 137q170 0 281 -114q112 -112 112 -304q0 -114 -38 -226t-106 -203.5t-173.5 -148t-229.5 -56.5z" />
    <glyph glyph-name="q" unicode="q" horiz-adv-x="1200" 
d="M428 -20q-167 0 -281 114q-110 116 -110 305q0 91 23 182t70 172t111 143.5t152.5 99t188.5 36.5q95 0 172.5 -39.5t115.5 -107.5l25 123h199l-297 -1397h-209l104 487q-109 -118 -264 -118zM473 170q101 0 182.5 70t110.5 213l22 110q9 40 9 70q0 96 -61.5 153.5
t-155.5 57.5q-80 0 -145.5 -41.5t-104.5 -105.5t-59.5 -136t-20.5 -139q0 -117 61 -184.5t162 -67.5z" />
    <glyph glyph-name="r" unicode="r" horiz-adv-x="772" 
d="M584 827q-61 0 -117 -40.5t-96 -106.5l-144 -680h-209l213 1008h209l-26 -127q94 143 229 143q99 0 168 -53l-109 -183q-48 39 -118 39z" />
    <glyph glyph-name="s" unicode="s" horiz-adv-x="960" 
d="M397 -23q-110 0 -199 33t-150.5 105t-72.5 176l187 45q13 -96 77.5 -143.5t161.5 -47.5q82 0 129.5 36t47.5 89t-40.5 86.5t-142.5 71.5q-147 53 -220 119t-73 180q0 129 105 217q110 90 278 90q167 0 269 -78.5t114 -199.5l-184 -39q-10 75 -64.5 114t-136.5 39
q-80 0 -129 -33t-49 -89q0 -55 41 -84t150 -70q66 -24 114.5 -50t89 -61.5t61.5 -83.5t21 -108q0 -136 -106 -223q-111 -91 -279 -91z" />
    <glyph glyph-name="t" unicode="t" horiz-adv-x="753" 
d="M512 215l80 -139q-103 -92 -254 -92q-59 0 -106 18.5t-81.5 57.5t-44 100t6.5 147l108 524h-151l36 177h154l62 290h204l-61 -290h289l-37 -177h-289l-115 -534q-29 -135 80 -135q56 0 119 53z" />
    <glyph glyph-name="u" unicode="u" horiz-adv-x="1179" 
d="M860 0h-209l29 137q-64 -79 -144.5 -119.5t-158.5 -40.5q-121 0 -211 78t-90 230q0 52 16 143l125 580h209l-125 -590q-12 -52 -12 -99q0 -67 44.5 -110t112.5 -43q154 0 283 203l135 639h209z" />
    <glyph glyph-name="v" unicode="v" horiz-adv-x="993" 
d="M1032 1008l-583 -1008h-201l-162 1008h201l106 -752l422 752h217z" />
    <glyph glyph-name="w" unicode="w" horiz-adv-x="1382" 
d="M913 0h-168l-104 514l-322 -514h-167l-48 1008h195l23 -709l278 463h166l96 -467l334 713h205z" />
    <glyph glyph-name="x" unicode="x" horiz-adv-x="997" 
d="M817 0h-215l-170 381l-315 -381h-240l451 528l-228 480h213l166 -355l297 355h240l-432 -500z" />
    <glyph glyph-name="y" unicode="y" horiz-adv-x="952" 
d="M999 1008l-880 -1397h-223l362 577l-180 820h205l125 -605l364 605h227z" />
    <glyph glyph-name="z" unicode="z" horiz-adv-x="929" 
d="M737 176l-37 -176h-776l25 115l639 716h-475l37 177h757l-24 -115l-637 -717h491z" />
    <glyph glyph-name="braceleft" unicode="{" horiz-adv-x="741" 
d="M334 -319q-45 0 -82 8t-73 28.5t-55.5 54.5t-28 85.5t8.5 122.5l109 507l4 74l-160 27l29 127l170 26l27 74l106 508q38 177 123 229q89 56 190 56q40 0 94.5 -1t57.5 -1l-35 -170q-117 0 -164 -27q-44 -26 -65 -127l-105 -498q-12 -56 -37.5 -90t-72.5 -57
q68 -49 47 -150l-103 -481q-19 -93 18 -123t146 -30l-37 -170q-3 0 -37.5 -1t-74.5 -1z" />
    <glyph glyph-name="bar" unicode="|" horiz-adv-x="585" 
d="M180 -287h-200l382 1803h201z" />
    <glyph glyph-name="braceright" unicode="}" horiz-adv-x="741" 
d="M10 -319q-40 0 -94 1t-57 1l35 170q116 0 161 26q48 28 68 127l104 498q12 55 38 89.5t73 57.5q-68 49 -47 150l102 481q19 93 -18 123.5t-146 30.5l37 170q3 0 38 1t75 1q45 0 82 -8t72.5 -28.5t55 -54.5t28 -85.5t-8.5 -122.5l-108 -508l-4 -74l159 -27l-28 -127
l-170 -26l-27 -74l-106 -508q-38 -177 -125 -229q-85 -55 -189 -55z" />
    <glyph glyph-name="asciitilde" unicode="~" horiz-adv-x="1130" 
d="M727 467q-48 0 -92 18.5t-77.5 45t-64 53t-64 45t-64.5 18.5q-50 0 -91.5 -40.5t-64.5 -114.5l-156 30q31 130 116 214.5t204 84.5q48 0 92 -18.5t77.5 -44.5t64 -52t63 -44.5t63.5 -18.5q51 0 93 41t65 115l156 -31q-31 -130 -116.5 -215.5t-203.5 -85.5z" />
    <glyph glyph-name="exclamdown" unicode="&#xa1;" horiz-adv-x="604" 
d="M340 1034q57 0 99 -42t42 -99q0 -59 -41.5 -101t-99.5 -42q-60 0 -100.5 41.5t-40.5 101.5q0 58 41 99.5t100 41.5zM186 584h174l-176 -973h-233z" />
    <glyph glyph-name="cent" unicode="&#xa2;" horiz-adv-x="1191" 
d="M295 446q0 -95 41 -159t108 -92l142 667q-123 -17 -207 -136t-84 -280zM829 358l166 -92q-73 -128 -190.5 -198.5t-259.5 -75.5l-43 -201h-144l45 217q-129 34 -223 142q-94 110 -94 286q0 114 38.5 223.5t106.5 195.5t171 139t223 53l43 198h143l-45 -215
q121 -30 199.5 -109.5t97.5 -185.5l-197 -51q-27 123 -139 162l-143 -666q142 14 245 178z" />
    <glyph glyph-name="sterling" unicode="&#xa3;" horiz-adv-x="1224" 
d="M997 180l-39 -180h-962l39 180h125q102 57 163.5 140.5t61.5 183.5q0 49 -18 123h-242l35 170h155q-16 66 -16 129q0 195 136 333t337 138q188 0 297 -109.5t109 -290.5l-215 -4q0 95 -52.5 154t-152.5 59q-113 0 -177.5 -77.5t-64.5 -192.5q0 -40 23 -139h366l-37 -170
h-280q12 -53 12 -107q0 -104 -51.5 -194t-126.5 -146h575z" />
    <glyph glyph-name="yen" unicode="&#xa5;" horiz-adv-x="1292" 
d="M1004 381l-35 -158h-322l-47 -223h-211l47 223h-319l35 158h319l31 151h-320l35 158h301l-301 682h238l215 -510l426 510h260l-590 -682h303l-35 -158h-321l-31 -151h322z" />
    <glyph glyph-name="brokenbar" unicode="&#xa6;" horiz-adv-x="587" 
d="M408 778h-201l155 738h201zM180 -287h-200l165 779h201z" />
    <glyph glyph-name="section" unicode="&#xa7;" horiz-adv-x="1134" 
d="M408 457l135 -78q11 -3 22 -14q98 10 159.5 59t61.5 117q0 41 -29 76.5t-87 72.5l-148 92q-104 -8 -168.5 -54.5t-64.5 -115.5q0 -49 29.5 -85t89.5 -70zM406 -311q-121 0 -217 43t-154 131t-58 207q0 42 9 69h188q-2 -18 -2 -49q0 -104 64 -167.5t170 -63.5q86 0 141 46
t55 111q0 63 -41 103.5t-153 107.5l-129 78q-99 58 -147 127t-48 160q0 123 83.5 205t201.5 110q-82 96 -82 213q0 141 110 242q109 100 293 100q89 0 160.5 -29.5t114 -77.5t64.5 -106t22 -119q0 -33 -2 -51h-181q0 4 1 12.5t1 12.5q0 83 -51 135.5t-137 52.5
q-89 0 -143 -45.5t-54 -113.5q0 -57 39 -102.5t119 -92.5l129 -78q111 -67 164 -139.5t53 -161.5q0 -125 -84 -209q-82 -79 -186 -106q84 -91 84 -215q0 -148 -113 -242q-113 -98 -284 -98z" />
    <glyph glyph-name="dieresis" unicode="&#xa8;" horiz-adv-x="880" 
d="M770 1198q-50 0 -83.5 34t-33.5 83t33.5 83t83.5 34t83.5 -34t33.5 -83t-33.5 -83t-83.5 -34zM369 1198q-50 0 -84.5 34t-34.5 83t34.5 83t84.5 34q49 0 82.5 -33.5t33.5 -83.5t-33.5 -83.5t-82.5 -33.5z" />
    <glyph glyph-name="copyright" unicode="&#xa9;" horiz-adv-x="1718" 
d="M862 -25q-202 0 -373.5 99.5t-271.5 271t-100 373.5q0 101 27 197t75 177.5t117 149.5t150.5 116t178 74.5t197.5 26.5q202 0 373 -99t271 -269.5t100 -372.5q0 -203 -100 -374t-271 -270.5t-373 -99.5zM862 123q122 0 231.5 47t188 127t124.5 190t46 232
q0 162 -78 298.5t-214 216t-298 79.5q-161 0 -297 -79.5t-214.5 -216t-78.5 -298.5t78.5 -299.5t214.5 -217t297 -79.5zM866 313q-155 0 -263.5 111.5t-108.5 300.5q0 183 108.5 291t263.5 108q123 0 214 -62.5t126 -172.5l-153 -49q-26 59 -74.5 95t-112.5 36
q-83 0 -143.5 -66.5t-60.5 -179.5q0 -122 60 -190t144 -68q140 0 193 166l160 -39q-31 -137 -125.5 -209t-227.5 -72z" />
    <glyph glyph-name="ordfeminine" unicode="&#xaa;" horiz-adv-x="911" 
d="M483 903q63 0 115.5 40t69.5 110l18 77q4 20 4 39q0 54 -39.5 86.5t-101.5 32.5q-95 0 -153 -73.5t-58 -165.5q0 -68 40.5 -107t104.5 -39zM432 739q-121 0 -201.5 78.5t-80.5 210.5q0 112 49 208.5t141 156t207 59.5q67 0 120.5 -22.5t82.5 -63.5l16 72h172l-154 -688
h-172l17 71q-75 -82 -197 -82z" />
    <glyph glyph-name="guillemotleft" unicode="&#xab;" horiz-adv-x="1191" 
d="M469 158l-154 -97l-284 451l479 453l111 -127l-363 -342zM956 158l-153 -97l-285 451l479 453l111 -127l-363 -342z" />
    <glyph glyph-name="registered" unicode="&#xae;" horiz-adv-x="1134" 
d="M629 549q-189 0 -321 131t-132 321q0 189 132 321t321 132t320.5 -131.5t131.5 -321.5q0 -189 -131.5 -320.5t-320.5 -131.5zM629 641q147 0 249.5 105.5t102.5 254.5q0 150 -102.5 255.5t-249.5 105.5t-250 -105.5t-103 -255.5q0 -148 103 -254t250 -106zM635 1149h-70
v-105h72q27 0 43 14t16 40q0 24 -17 37.5t-44 13.5zM836 772h-123l-103 186h-45v-186h-104v465h192q65 0 109.5 -38t44.5 -99q0 -46 -24 -79.5t-62 -47.5z" />
    <glyph glyph-name="overscore" unicode="&#xaf;" horiz-adv-x="729" 
d="M719 1233h-488l31 145h488z" />
    <glyph glyph-name="degree" unicode="&#xb0;" horiz-adv-x="768" 
d="M481 893q-118 0 -200 82q-84 84 -84 199q0 114 84 198t200 84q117 0 201 -84q86 -83 86 -198q0 -116 -86 -199q-82 -82 -201 -82zM481 1028q62 0 103 42t41 104t-40.5 103.5t-103.5 41.5q-62 0 -102.5 -42t-40.5 -103t41 -103.5t102 -42.5z" />
    <glyph glyph-name="plusminus" unicode="&#xb1;" horiz-adv-x="1193" 
d="M1133 924l-37 -181h-396l-73 -348h-193l74 348h-393l37 181h395l71 338h193l-72 -338h394zM948 51h-981l39 180h981z" />
    <glyph glyph-name="twosuperior" unicode="&#xb2;" horiz-adv-x="720" 
d="M659 758l-30 -142h-594l24 115l400 316q70 56 96.5 90.5t26.5 72.5t-28 65.5t-77 27.5q-56 0 -94 -32t-49 -87h-166q20 118 109 191t217 73q124 0 194 -70q72 -72 72 -151q0 -73 -41 -134.5t-139 -136.5l-263 -198h342z" />
    <glyph glyph-name="threesuperior" unicode="&#xb3;" horiz-adv-x="753" 
d="M375 604q-132 0 -214 68t-83 184h170q2 -50 39.5 -83.5t103.5 -33.5q63 0 103.5 38.5t40.5 88.5q0 48 -37 77.5t-99 29.5h-100l29 135h114q77 0 116.5 32t39.5 79q0 41 -31.5 67.5t-81.5 26.5q-56 0 -92.5 -27.5t-48.5 -75.5h-166q21 106 109 172t215 66q125 0 198.5 -61
t73.5 -154q0 -71 -45.5 -125.5t-112.5 -79.5q45 -21 71 -63.5t26 -98.5q0 -105 -94 -183.5t-244 -78.5z" />
    <glyph glyph-name="acute" unicode="&#xb4;" horiz-adv-x="561" 
d="M371 1157h-178l-5 4l201 289h244v-4z" />
    <glyph glyph-name="paragraph" unicode="&#xb6;" horiz-adv-x="1230" 
d="M920 1268h-195l-270 -1268h-189l154 725q-117 14 -189.5 96t-72.5 209q0 78 33 151.5t89.5 129t138.5 89.5t175 34h725l-35 -166h-176l-270 -1268h-189z" />
    <glyph glyph-name="middot" unicode="&#xb7;" horiz-adv-x="509" 
d="M242 510q-60 0 -101 41.5t-41 101.5q0 58 41.5 100t100.5 42q57 0 99 -42.5t42 -99.5q0 -59 -41.5 -101t-99.5 -42z" />
    <glyph glyph-name="cedilla" unicode="&#xb8;" horiz-adv-x="579" 
d="M14 -436q-79 0 -159 26l55 113q54 -25 117 -25q41 0 68.5 21t27.5 53q0 28 -24 43t-64 15q-14 0 -29 -1.5t-30.5 -4t-20.5 -3.5l98 236h129l-61 -125q63 -2 104 -41t41 -104q0 -89 -72.5 -146t-179.5 -57z" />
    <glyph glyph-name="onesuperior" unicode="&#xb9;" horiz-adv-x="544" 
d="M573 1434l-174 -818h-170l136 633l-220 -88l21 154l291 119h116z" />
    <glyph glyph-name="ordmasculine" unicode="&#xba;" horiz-adv-x="874" 
d="M481 731q-133 0 -233 80q-98 79 -98 227q0 168 116 291t287 123q141 0 236.5 -82.5t95.5 -222.5q0 -111 -52 -206t-145.5 -152.5t-206.5 -57.5zM489 895q87 0 146 70t59 170q0 71 -43 112t-108 41q-86 0 -145.5 -69t-59.5 -168q0 -73 43 -114.5t108 -41.5z" />
    <glyph glyph-name="guillemotright" unicode="&#xbb;" horiz-adv-x="1191" 
d="M152 868l153 97l285 -451l-479 -453l-111 127l362 342zM639 868l154 97l284 -451l-479 -453l-111 127l363 342z" />
    <glyph glyph-name="onequarter" unicode="&#xbc;" horiz-adv-x="1841" 
d="M289 -29l-129 119l1265 1374l129 -118zM629 1434l-174 -818h-170l135 633l-219 -88l20 154l291 119h117zM1677 332l-28 -137h-136l-43 -195h-161l43 195h-398l25 114l387 508h188l-374 -485h202l35 155h158l-33 -155h135z" />
    <glyph glyph-name="onehalf" unicode="&#xbd;" horiz-adv-x="1875" 
d="M629 1434l-174 -818h-170l135 633l-219 -88l20 154l291 119h117zM1628 141l-31 -141h-593l24 115l399 315q70 56 96.5 91t26.5 73t-27.5 65t-76.5 27q-56 0 -94 -32t-49 -87h-166q20 118 108.5 191t216.5 73q126 0 195 -69q72 -72 72 -152q0 -73 -41 -133.5t-140 -136.5
l-262 -199h342zM289 -29l-129 119l1265 1374l129 -118z" />
    <glyph glyph-name="threequarters" unicode="&#xbe;" horiz-adv-x="1992" 
d="M432 604q-132 0 -214 68t-83 184h170q2 -50 40 -83.5t104 -33.5q63 0 103 38.5t40 88.5q0 48 -36.5 77.5t-98.5 29.5h-101l29 135h115q77 0 116 32t39 79q0 41 -31.5 67.5t-80.5 26.5q-56 0 -93 -27.5t-49 -75.5h-165q21 106 108.5 172t214.5 66q125 0 198.5 -61
t73.5 -154q0 -71 -45 -125.5t-112 -79.5q45 -20 70.5 -63t25.5 -99q0 -105 -94 -183.5t-244 -78.5zM440 -29l-129 119l1266 1374l129 -118zM1829 332l-29 -137h-135l-43 -195h-162l43 195h-397l24 114l388 508h188l-375 -485h203l35 155h157l-32 -155h135z" />
    <glyph glyph-name="questiondown" unicode="&#xbf;" horiz-adv-x="1050" 
d="M625 1034q59 0 100 -41.5t41 -99.5q0 -60 -40.5 -101.5t-100.5 -41.5q-57 0 -98.5 41.5t-41.5 101.5q0 57 41.5 99t98.5 42zM459 584h211l-19 -74q-35 -132 -78 -186q-44 -56 -163 -111l-72 -33q-89 -40 -133.5 -91t-44.5 -126q0 -80 59 -132t152 -52q99 0 165.5 57.5
t86.5 161.5l200 -35q-35 -184 -161 -276q-132 -97 -295 -97q-187 0 -306 101q-120 102 -120 254q0 99 41 176t106.5 128t167.5 99l78 37q50 23 74 55.5t41 100.5z" />
    <glyph glyph-name="Agrave" unicode="&#xc0;" 
d="M791 1214h-5l-284 -530h358zM1163 0h-223l-63 492h-474l-266 -492h-241l804 1434h261zM954 1567h-151l-141 288v5h212l80 -289v-4z" />
    <glyph glyph-name="Aacute" unicode="&#xc1;" 
d="M791 1214h-5l-284 -530h358zM1163 0h-223l-63 492h-474l-266 -492h-241l804 1434h261zM944 1567h-178l-4 4l201 289h243v-5z" />
    <glyph glyph-name="Acircumflex" unicode="&#xc2;" 
d="M791 1214h-5l-284 -530h358zM1163 0h-223l-63 492h-474l-266 -492h-241l804 1434h261zM887 1688l-307 -148l34 162l301 162l256 -162l-32 -162z" />
    <glyph glyph-name="Atilde" unicode="&#xc3;" 
d="M791 1214h-5l-284 -530h358zM1163 0h-223l-63 492h-474l-266 -492h-241l804 1434h261zM995 1587q-42 0 -81.5 20.5t-71 41t-54.5 20.5q-30 0 -50.5 -21t-28.5 -53l-125 23q19 88 76 143.5t131 55.5q41 0 79 -21t69.5 -42t55.5 -21q31 0 52.5 20.5t29.5 52.5l125 -22
q-20 -89 -76.5 -143t-130.5 -54z" />
    <glyph glyph-name="Adieresis" unicode="&#xc4;" 
d="M791 1214h-5l-284 -530h358zM1163 0h-223l-63 492h-474l-266 -492h-241l804 1434h261zM1077 1608q-49 0 -82.5 33t-33.5 83t33.5 83.5t82.5 33.5t83 -33.5t34 -83.5q0 -49 -33.5 -82.5t-83.5 -33.5zM676 1608q-50 0 -84.5 33.5t-34.5 82.5t34.5 83t84.5 34t83.5 -33.5
t33.5 -83.5q0 -49 -33.5 -82.5t-83.5 -33.5z" />
    <glyph glyph-name="Aring" unicode="&#xc5;" 
d="M791 1214h-5l-284 -530h358zM1163 0h-223l-63 492h-474l-266 -492h-241l804 1434h261zM874 1542q-75 0 -127.5 50.5t-52.5 125.5t52.5 126.5t127.5 51.5t128 -51.5t53 -126.5t-53 -125.5t-128 -50.5zM874 1640q32 0 55 23t23 55t-23 56t-55 24q-33 0 -55 -22.5t-22 -57.5
q0 -32 22.5 -55t54.5 -23z" />
    <glyph glyph-name="AE" unicode="&#xc6;" horiz-adv-x="1898" 
d="M991 1239h-26l-367 -539h305zM1647 0h-859l84 512h-403l-348 -512h-252l1001 1434h1074l-43 -195h-695l-55 -334h631l-41 -194h-621l-84 -516h652z" />
    <glyph glyph-name="Ccedilla" unicode="&#xc7;" horiz-adv-x="1470" 
d="M696 -20q-123 0 -232.5 47t-190.5 129t-128 200t-47 254q0 162 55.5 315t151.5 270t236 188t299 71q225 0 378 -114.5t185 -321.5l-221 -41q-21 106 -111 190q-88 82 -250 82q-137 0 -251.5 -90t-178 -235.5t-63.5 -309.5q0 -186 108 -309q109 -121 275 -121
q161 0 268 101q110 104 162 252l209 -64q-86 -240 -258 -366.5t-396 -126.5zM526 -434q-79 0 -159 26l55 113q52 -24 117 -24q42 0 69 20.5t27 52.5q0 28 -24 43t-64 15q-14 0 -29 -1.5t-30.5 -4t-20.5 -3.5l98 236h129l-61 -125q63 -2 104 -41t41 -104q0 -89 -72.5 -146
t-179.5 -57z" />
    <glyph glyph-name="Egrave" unicode="&#xc8;" horiz-adv-x="1226" 
d="M293 195h723l-41 -195h-944l305 1434h936l-41 -195h-719l-70 -334h668l-41 -194h-668zM913 1567h-151l-141 288v5h213l79 -289v-4z" />
    <glyph glyph-name="Eacute" unicode="&#xc9;" horiz-adv-x="1226" 
d="M293 195h723l-41 -195h-944l305 1434h936l-41 -195h-719l-70 -334h668l-41 -194h-668zM903 1567h-178l-4 4l201 289h243v-5z" />
    <glyph glyph-name="Ecircumflex" unicode="&#xca;" horiz-adv-x="1226" 
d="M293 195h723l-41 -195h-944l305 1434h936l-41 -195h-719l-70 -334h668l-41 -194h-668zM846 1688l-307 -148l34 162l301 162l256 -162l-32 -162z" />
    <glyph glyph-name="Edieresis" unicode="&#xcb;" horiz-adv-x="1226" 
d="M293 195h723l-41 -195h-944l305 1434h936l-41 -195h-719l-70 -334h668l-41 -194h-668zM1036 1608q-50 0 -83 33t-33 83t33.5 83.5t82.5 33.5q50 0 83.5 -33.5t33.5 -83.5q0 -49 -33.5 -82.5t-83.5 -33.5zM635 1608q-50 0 -84.5 33.5t-34.5 82.5t34.5 83t84.5 34
q49 0 83 -33.5t34 -83.5q0 -49 -33.5 -82.5t-83.5 -33.5z" />
    <glyph glyph-name="Igrave" unicode="&#xcc;" horiz-adv-x="583" 
d="M250 0h-219l305 1434h219zM565 1567h-151l-142 288v5h213l80 -289v-4z" />
    <glyph glyph-name="Iacute" unicode="&#xcd;" horiz-adv-x="583" 
d="M250 0h-219l305 1434h219zM555 1567h-178l-4 4l200 289h244v-5z" />
    <glyph glyph-name="Icircumflex" unicode="&#xce;" horiz-adv-x="583" 
d="M250 0h-219l305 1434h219zM498 1688l-308 -148l35 162l301 162l256 -162l-32 -162z" />
    <glyph glyph-name="Idieresis" unicode="&#xcf;" horiz-adv-x="583" 
d="M250 0h-219l305 1434h219zM688 1608q-50 0 -83.5 33.5t-33.5 82.5q0 50 33.5 83.5t83.5 33.5t83.5 -33.5t33.5 -83.5q0 -49 -33.5 -82.5t-83.5 -33.5zM287 1608q-50 0 -84.5 33.5t-34.5 82.5t34.5 83t84.5 34q49 0 82.5 -33.5t33.5 -83.5t-33.5 -83t-82.5 -33z" />
    <glyph glyph-name="Eth" unicode="&#xd0;" horiz-adv-x="1480" 
d="M594 0h-502l144 672h-195l39 176h192l125 586h437q241 0 398 -160t157 -416q0 -195 -64.5 -358.5t-173.5 -272t-253 -168t-304 -59.5zM453 672l-101 -477h275q107 0 204.5 49t169.5 134.5t115 207.5t43 260q0 177 -104 284q-106 109 -264 109h-218l-81 -391h260l-39 -176
h-260z" />
    <glyph glyph-name="Ntilde" unicode="&#xd1;" horiz-adv-x="1497" 
d="M1161 0h-211l-475 1079l-229 -1079h-215l305 1434h211l475 -1084l229 1084h215zM1057 1587q-42 0 -81.5 20.5t-71 41t-54.5 20.5q-30 0 -51 -21t-29 -53l-125 23q19 88 76 143.5t131 55.5q32 0 63.5 -13t52 -29t45 -29t44.5 -13q31 0 52.5 20.5t29.5 52.5l125 -22
q-20 -89 -76.5 -143t-130.5 -54z" />
    <glyph glyph-name="Ograve" unicode="&#xd2;" horiz-adv-x="1550" 
d="M692 -20q-124 0 -233.5 47t-189 129.5t-125.5 200t-46 251.5q0 157 56.5 308.5t154.5 271t242.5 193t308.5 73.5q166 0 302.5 -80.5t215 -224.5t78.5 -322q0 -125 -36 -249t-104.5 -231t-160 -189.5t-212 -130t-251.5 -47.5zM709 184q107 0 204.5 55.5t165.5 144.5
t108 203t40 230q0 186 -108 309t-277 123q-106 0 -203.5 -55t-165 -143.5t-107.5 -202.5t-40 -230q0 -189 108 -311.5t275 -122.5zM989 1567h-151l-142 288v5h213l80 -289v-4z" />
    <glyph glyph-name="Oacute" unicode="&#xd3;" horiz-adv-x="1550" 
d="M692 -20q-124 0 -233.5 47t-189 129.5t-125.5 200t-46 251.5q0 157 56.5 308.5t154.5 271t242.5 193t308.5 73.5q166 0 302.5 -80.5t215 -224.5t78.5 -322q0 -125 -36 -249t-104.5 -231t-160 -189.5t-212 -130t-251.5 -47.5zM709 184q107 0 204.5 55.5t165.5 144.5
t108 203t40 230q0 186 -108 309t-277 123q-106 0 -203.5 -55t-165 -143.5t-107.5 -202.5t-40 -230q0 -189 108 -311.5t275 -122.5zM979 1567h-178l-4 4l200 289h244v-5z" />
    <glyph glyph-name="Ocircumflex" unicode="&#xd4;" horiz-adv-x="1550" 
d="M692 -20q-124 0 -233.5 47t-189 129.5t-125.5 200t-46 251.5q0 157 56.5 308.5t154.5 271t242.5 193t308.5 73.5q166 0 302.5 -80.5t215 -224.5t78.5 -322q0 -125 -36 -249t-104.5 -231t-160 -189.5t-212 -130t-251.5 -47.5zM709 184q107 0 204.5 55.5t165.5 144.5
t108 203t40 230q0 186 -108 309t-277 123q-106 0 -203.5 -55t-165 -143.5t-107.5 -202.5t-40 -230q0 -189 108 -311.5t275 -122.5zM922 1688l-308 -148l35 162l301 162l256 -162l-32 -162z" />
    <glyph glyph-name="Otilde" unicode="&#xd5;" horiz-adv-x="1550" 
d="M692 -20q-124 0 -233.5 47t-189 129.5t-125.5 200t-46 251.5q0 157 56.5 308.5t154.5 271t242.5 193t308.5 73.5q166 0 302.5 -80.5t215 -224.5t78.5 -322q0 -125 -36 -249t-104.5 -231t-160 -189.5t-212 -130t-251.5 -47.5zM709 184q107 0 204.5 55.5t165.5 144.5
t108 203t40 230q0 186 -108 309t-277 123q-106 0 -203.5 -55t-165 -143.5t-107.5 -202.5t-40 -230q0 -189 108 -311.5t275 -122.5zM1030 1587q-42 0 -81.5 20.5t-71 41t-54.5 20.5q-30 0 -51 -21t-29 -53l-125 23q19 88 76 143.5t131 55.5q32 0 63.5 -13t52 -29t45 -29
t44.5 -13q31 0 52.5 20.5t29.5 52.5l125 -22q-20 -89 -76.5 -143t-130.5 -54z" />
    <glyph glyph-name="Odieresis" unicode="&#xd6;" horiz-adv-x="1550" 
d="M692 -20q-124 0 -233.5 47t-189 129.5t-125.5 200t-46 251.5q0 157 56.5 308.5t154.5 271t242.5 193t308.5 73.5q166 0 302.5 -80.5t215 -224.5t78.5 -322q0 -125 -36 -249t-104.5 -231t-160 -189.5t-212 -130t-251.5 -47.5zM709 184q107 0 204.5 55.5t165.5 144.5
t108 203t40 230q0 186 -108 309t-277 123q-106 0 -203.5 -55t-165 -143.5t-107.5 -202.5t-40 -230q0 -189 108 -311.5t275 -122.5zM1112 1608q-50 0 -83.5 33.5t-33.5 82.5q0 50 33.5 83.5t83.5 33.5t83.5 -33.5t33.5 -83.5q0 -49 -33.5 -82.5t-83.5 -33.5zM711 1608
q-50 0 -84.5 33.5t-34.5 82.5t34.5 83t84.5 34q49 0 82.5 -33.5t33.5 -83.5t-33.5 -83t-82.5 -33z" />
    <glyph glyph-name="multiply" unicode="&#xd7;" horiz-adv-x="1187" 
d="M948 397l-151 -118l-224 288l-331 -284l-117 143l336 287l-225 291l149 118l221 -284l328 282l117 -143l-332 -285z" />
    <glyph glyph-name="Oslash" unicode="&#xd8;" horiz-adv-x="1550" 
d="M326 618q0 -131 55 -235l684 793q-92 73 -223 73q-106 0 -203.5 -55t-165 -143.5t-107.5 -202.5t-40 -230zM709 184q107 0 204.5 55.5t165.5 144.5t108 203t40 230q0 123 -58 236l-682 -795q93 -74 222 -74zM692 -20q-199 0 -348 112l-168 -194h-211l264 307
q-131 169 -131 403q0 157 56.5 308.5t154.5 271t242.5 193t308.5 73.5q188 0 348 -111l166 193h213l-264 -305q133 -168 133 -404q0 -125 -36 -249t-104.5 -231t-160 -189.5t-212 -130t-251.5 -47.5z" />
    <glyph glyph-name="Ugrave" unicode="&#xd9;" horiz-adv-x="1406" 
d="M616 -20q-121 0 -221 37.5t-170.5 113t-94.5 189t7 264.5l180 850h220l-183 -859q-40 -194 43 -294q88 -97 236 -97q158 0 235 95q78 92 113 243l195 912h219l-199 -934q-111 -520 -580 -520zM963 1567h-152l-141 288v5h213l80 -289v-4z" />
    <glyph glyph-name="Uacute" unicode="&#xda;" horiz-adv-x="1406" 
d="M616 -20q-121 0 -221 37.5t-170.5 113t-94.5 189t7 264.5l180 850h220l-183 -859q-40 -194 43 -294q88 -97 236 -97q158 0 235 95q78 92 113 243l195 912h219l-199 -934q-111 -520 -580 -520zM952 1567h-178l-4 4l201 289h243v-5z" />
    <glyph glyph-name="Ucircumflex" unicode="&#xdb;" horiz-adv-x="1406" 
d="M616 -20q-121 0 -221 37.5t-170.5 113t-94.5 189t7 264.5l180 850h220l-183 -859q-40 -194 43 -294q88 -97 236 -97q158 0 235 95q78 92 113 243l195 912h219l-199 -934q-111 -520 -580 -520zM895 1688l-307 -148l35 162l301 162l256 -162l-33 -162z" />
    <glyph glyph-name="Udieresis" unicode="&#xdc;" horiz-adv-x="1406" 
d="M616 -20q-121 0 -221 37.5t-170.5 113t-94.5 189t7 264.5l180 850h220l-183 -859q-40 -194 43 -294q88 -97 236 -97q158 0 235 95q78 92 113 243l195 912h219l-199 -934q-111 -520 -580 -520zM1085 1608q-49 0 -82.5 33t-33.5 83t33.5 83.5t82.5 33.5t83 -33.5t34 -83.5
q0 -49 -33.5 -82.5t-83.5 -33.5zM684 1608q-50 0 -84.5 33.5t-34.5 82.5t34.5 83t84.5 34t83.5 -33.5t33.5 -83.5q0 -49 -33.5 -82.5t-83.5 -33.5z" />
    <glyph glyph-name="Yacute" unicode="&#xdd;" horiz-adv-x="1169" 
d="M692 719l-149 -719h-221l153 725l-309 709h237l215 -512l429 512h262zM827 1565h-178l-4 4l201 289h244v-5z" />
    <glyph glyph-name="Thorn" unicode="&#xde;" horiz-adv-x="1200" 
d="M731 969h-274l-86 -406h303q110 0 180 70t70 160q0 80 -50.5 128t-142.5 48zM657 369h-329l-78 -369h-219l305 1434h219l-57 -271h288q170 0 267 -100q100 -100 100 -252q0 -188 -138.5 -315t-357.5 -127z" />
    <glyph glyph-name="germandbls" unicode="&#xdf;" horiz-adv-x="1202" 
d="M543 -12q-113 0 -187 24l72 172q56 -16 123 -16q110 0 192 82t82 217q0 108 -71.5 173t-198.5 65h-31l35 167h74q125 0 196.5 68t71.5 172q0 84 -55.5 135t-143.5 51q-94 0 -159.5 -62.5t-93.5 -193.5l-224 -1042h-207l226 1061q41 197 167.5 307.5t311.5 110.5
q174 0 280.5 -99.5t106.5 -244.5q0 -121 -67 -218.5t-175 -142.5q80 -39 126 -118t46 -185q0 -208 -144.5 -345.5t-352.5 -137.5z" />
    <glyph glyph-name="agrave" unicode="&#xe0;" horiz-adv-x="1198" 
d="M473 170q93 0 174 63q87 66 117 213l24 117q1 8 5 32.5t4 37.5q0 96 -61.5 153.5t-155.5 57.5q-80 0 -145.5 -41.5t-104.5 -105.5t-59.5 -136t-20.5 -139q0 -117 61 -184.5t162 -67.5zM428 -20q-167 0 -281 114q-110 116 -110 305q0 91 23 182t70 172t111 143.5t152.5 99
t188.5 36.5q94 0 172 -39t116 -106l25 121h197l-213 -1008h-197l23 113q-50 -60 -121.5 -96.5t-155.5 -36.5zM778 1157h-151l-142 289v4h213l80 -289v-4z" />
    <glyph glyph-name="aacute" unicode="&#xe1;" horiz-adv-x="1198" 
d="M473 170q93 0 174 63q87 66 117 213l24 117q1 8 5 32.5t4 37.5q0 96 -61.5 153.5t-155.5 57.5q-80 0 -145.5 -41.5t-104.5 -105.5t-59.5 -136t-20.5 -139q0 -117 61 -184.5t162 -67.5zM428 -20q-167 0 -281 114q-110 116 -110 305q0 91 23 182t70 172t111 143.5t152.5 99
t188.5 36.5q94 0 172 -39t116 -106l25 121h197l-213 -1008h-197l23 113q-50 -60 -121.5 -96.5t-155.5 -36.5zM768 1157h-178l-4 4l200 289h244v-4z" />
    <glyph glyph-name="acircumflex" unicode="&#xe2;" horiz-adv-x="1198" 
d="M473 170q93 0 174 63q87 66 117 213l24 117q1 8 5 32.5t4 37.5q0 96 -61.5 153.5t-155.5 57.5q-80 0 -145.5 -41.5t-104.5 -105.5t-59.5 -136t-20.5 -139q0 -117 61 -184.5t162 -67.5zM428 -20q-167 0 -281 114q-110 116 -110 305q0 91 23 182t70 172t111 143.5t152.5 99
t188.5 36.5q94 0 172 -39t116 -106l25 121h197l-213 -1008h-197l23 113q-50 -60 -121.5 -96.5t-155.5 -36.5zM721 1300l-283 -141l33 162l281 156l237 -156l-33 -162z" />
    <glyph glyph-name="atilde" unicode="&#xe3;" horiz-adv-x="1198" 
d="M473 170q93 0 174 63q87 66 117 213l24 117q1 8 5 32.5t4 37.5q0 96 -61.5 153.5t-155.5 57.5q-80 0 -145.5 -41.5t-104.5 -105.5t-59.5 -136t-20.5 -139q0 -117 61 -184.5t162 -67.5zM428 -20q-167 0 -281 114q-110 116 -110 305q0 91 23 182t70 172t111 143.5t152.5 99
t188.5 36.5q94 0 172 -39t116 -106l25 121h197l-213 -1008h-197l23 113q-50 -60 -121.5 -96.5t-155.5 -36.5zM819 1178q-42 0 -81.5 20.5t-72 41t-57.5 20.5q-30 0 -50 -21t-28 -55l-124 22q19 93 75.5 147t130.5 54q43 0 81 -21t69.5 -42t58.5 -21q31 0 51.5 21t28.5 55
l125 -23q-18 -92 -75 -145t-132 -53z" />
    <glyph glyph-name="adieresis" unicode="&#xe4;" horiz-adv-x="1198" 
d="M473 170q93 0 174 63q87 66 117 213l24 117q1 8 5 32.5t4 37.5q0 96 -61.5 153.5t-155.5 57.5q-80 0 -145.5 -41.5t-104.5 -105.5t-59.5 -136t-20.5 -139q0 -117 61 -184.5t162 -67.5zM428 -20q-167 0 -281 114q-110 116 -110 305q0 91 23 182t70 172t111 143.5t152.5 99
t188.5 36.5q94 0 172 -39t116 -106l25 121h197l-213 -1008h-197l23 113q-50 -60 -121.5 -96.5t-155.5 -36.5zM911 1198q-49 0 -82.5 33.5t-33.5 83.5t33.5 83.5t82.5 33.5t83 -34t34 -83t-34 -83t-83 -34zM510 1198q-50 0 -83.5 34t-33.5 83t33.5 83t83.5 34t83.5 -34
t33.5 -83t-33.5 -83t-83.5 -34z" />
    <glyph glyph-name="aring" unicode="&#xe5;" horiz-adv-x="1198" 
d="M473 170q93 0 174 63q87 66 117 213l24 117q1 8 5 32.5t4 37.5q0 96 -61.5 153.5t-155.5 57.5q-80 0 -145.5 -41.5t-104.5 -105.5t-59.5 -136t-20.5 -139q0 -117 61 -184.5t162 -67.5zM428 -20q-167 0 -281 114q-110 116 -110 305q0 91 23 182t70 172t111 143.5t152.5 99
t188.5 36.5q94 0 172 -39t116 -106l25 121h197l-213 -1008h-197l23 113q-50 -60 -121.5 -96.5t-155.5 -36.5zM698 1133q-75 0 -127.5 50.5t-52.5 125.5t52.5 126.5t127.5 51.5t128 -51.5t53 -126.5t-53 -125.5t-128 -50.5zM698 1231q32 0 55 23t23 55t-23 56t-55 24
q-33 0 -55 -22.5t-22 -57.5q0 -32 22.5 -55t54.5 -23z" />
    <glyph glyph-name="ae" unicode="&#xe6;" horiz-adv-x="1740" 
d="M1202 862q-108 0 -185.5 -63.5t-113.5 -175.5h516q2 14 2 36q0 91 -64 147t-155 56zM362 156q51 0 100.5 20t123.5 66l90 55q-17 66 -17 125q0 47 9 100l-213 -55q-149 -41 -193 -82q-45 -39 -45 -98q0 -58 43.5 -94.5t101.5 -36.5zM1401 313l139 -112
q-70 -105 -182.5 -162t-259.5 -57q-109 0 -203 46t-154 128l-90 -58q-95 -60 -170 -87t-168 -27q-121 0 -213 80t-92 200q0 125 84 209q82 82 314 141l307 78q7 76 -44.5 120t-136.5 44q-162 0 -245 -143l-174 75q68 122 183 184t265 62q101 0 181 -35t124 -100
q148 135 346 135q190 0 304 -114q112 -112 112 -289q0 -66 -24 -164h-732q-4 -32 -4 -41q0 -126 69 -199t177 -73q82 0 157.5 42t129.5 117z" />
    <glyph glyph-name="ccedilla" unicode="&#xe7;" horiz-adv-x="1079" 
d="M477 -23q-115 0 -213 50t-161.5 153.5t-63.5 241.5q0 114 38.5 223.5t107 196t172 139.5t223.5 53q171 0 280 -92q112 -92 133 -221l-198 -51q-19 84 -79 130t-149 46q-85 0 -158 -56.5t-115 -151.5t-42 -204q0 -124 71 -196t169 -72q164 0 266 190l166 -92
q-73 -140 -189 -213.5t-258 -73.5zM342 -436q-80 0 -160 26l56 113q54 -25 116 -25q41 0 69 21t28 53q0 28 -24.5 43t-64.5 15q-14 0 -29 -1.5t-30 -4t-20 -3.5l98 236h129l-61 -125q63 -2 104 -41t41 -104q0 -89 -72.5 -146t-179.5 -57z" />
    <glyph glyph-name="egrave" unicode="&#xe8;" horiz-adv-x="1120" 
d="M582 862q-108 0 -185.5 -63.5t-113.5 -175.5h516q2 14 2 36q0 91 -64 147t-155 56zM780 313l140 -112q-70 -105 -183 -162t-260 -57q-184 0 -311 123t-127 317q0 111 39.5 219.5t109.5 196t176 142t228 54.5q189 0 303 -114q113 -113 113 -289q0 -61 -25 -164h-731
q-4 -32 -4 -41q0 -126 69 -199t177 -73q82 0 157 42t129 117zM731 1157h-151l-142 289v4h213l80 -289v-4z" />
    <glyph glyph-name="eacute" unicode="&#xe9;" horiz-adv-x="1120" 
d="M582 862q-108 0 -185.5 -63.5t-113.5 -175.5h516q2 14 2 36q0 91 -64 147t-155 56zM780 313l140 -112q-70 -105 -183 -162t-260 -57q-184 0 -311 123t-127 317q0 111 39.5 219.5t109.5 196t176 142t228 54.5q189 0 303 -114q113 -113 113 -289q0 -61 -25 -164h-731
q-4 -32 -4 -41q0 -126 69 -199t177 -73q82 0 157 42t129 117zM721 1157h-178l-4 4l200 289h244v-4z" />
    <glyph glyph-name="ecircumflex" unicode="&#xea;" horiz-adv-x="1120" 
d="M582 862q-108 0 -185.5 -63.5t-113.5 -175.5h516q2 14 2 36q0 91 -64 147t-155 56zM780 313l140 -112q-70 -105 -183 -162t-260 -57q-184 0 -311 123t-127 317q0 111 39.5 219.5t109.5 196t176 142t228 54.5q189 0 303 -114q113 -113 113 -289q0 -61 -25 -164h-731
q-4 -32 -4 -41q0 -126 69 -199t177 -73q82 0 157 42t129 117zM674 1300l-283 -141l33 162l281 156l237 -156l-33 -162z" />
    <glyph glyph-name="edieresis" unicode="&#xeb;" horiz-adv-x="1120" 
d="M582 862q-108 0 -185.5 -63.5t-113.5 -175.5h516q2 14 2 36q0 91 -64 147t-155 56zM780 313l140 -112q-70 -105 -183 -162t-260 -57q-184 0 -311 123t-127 317q0 111 39.5 219.5t109.5 196t176 142t228 54.5q189 0 303 -114q113 -113 113 -289q0 -61 -25 -164h-731
q-4 -32 -4 -41q0 -126 69 -199t177 -73q82 0 157 42t129 117zM864 1198q-49 0 -82.5 33.5t-33.5 83.5t33.5 83.5t82.5 33.5q50 0 83.5 -34t33.5 -83t-33.5 -83t-83.5 -34zM463 1198q-49 0 -83 34t-34 83t34 83t83 34t83 -34t34 -83t-34 -83t-83 -34z" />
    <glyph glyph-name="igrave" unicode="&#xec;" horiz-adv-x="546" 
d="M227 0h-209l213 1008h209zM459 1157h-152l-141 289v4h213l80 -289v-4z" />
    <glyph glyph-name="iacute" unicode="&#xed;" horiz-adv-x="546" 
d="M227 0h-209l213 1008h209zM449 1157h-179l-4 4l201 289h244v-4z" />
    <glyph glyph-name="icircumflex" unicode="&#xee;" horiz-adv-x="546" 
d="M227 0h-209l213 1008h209zM401 1300l-282 -141l33 162l280 156l238 -156l-33 -162z" />
    <glyph glyph-name="idieresis" unicode="&#xef;" horiz-adv-x="546" 
d="M227 0h-209l213 1008h209zM559 1217q-43 0 -72.5 30t-29.5 74q0 43 29.5 72.5t72.5 29.5q44 0 74.5 -29.5t30.5 -72.5q0 -44 -30.5 -74t-74.5 -30zM246 1217q-44 0 -74.5 30t-30.5 74q0 43 30.5 72.5t74.5 29.5q43 0 72.5 -29.5t29.5 -72.5q0 -44 -29.5 -74t-72.5 -30z
" />
    <glyph glyph-name="eth" unicode="&#xf0;" horiz-adv-x="1148" 
d="M475 -20q-186 0 -311 122.5t-125 319.5q0 84 23.5 169.5t69.5 161.5t108.5 135t147.5 93.5t179 34.5q140 0 234 -88q-25 93 -90 192q-15 27 -49 74l-259 -98l-41 116l218 82q-49 59 -162 176h264q52 -55 88 -102l217 82l41 -117l-184 -69q73 -111 114 -213
q72 -178 72 -371q0 -100 -21.5 -198.5t-66.5 -189.5t-109 -160t-156.5 -110.5t-201.5 -41.5zM485 168q127 0 224.5 123.5t97.5 277.5q0 118 -68.5 189t-169.5 71q-87 0 -161 -57t-115 -148t-41 -192q0 -121 64.5 -192.5t168.5 -71.5z" />
    <glyph glyph-name="ntilde" unicode="&#xf1;" horiz-adv-x="1189" 
d="M649 844q-156 0 -287 -201l-135 -643h-209l213 1008h209l-28 -136q63 78 145.5 119t161.5 41q123 0 213 -78q92 -77 92 -229q0 -55 -16 -143l-123 -582h-209l125 590q10 44 10 100q0 68 -46 111t-116 43zM827 1178q-42 0 -81.5 20.5t-72 41t-57.5 20.5q-29 0 -49 -21
t-28 -55l-125 22q19 93 75.5 147t131.5 54q43 0 81 -21t69 -42t58 -21q31 0 51.5 21t28.5 55l125 -23q-18 -92 -75 -145t-132 -53z" />
    <glyph glyph-name="ograve" unicode="&#xf2;" horiz-adv-x="1153" 
d="M479 -20q-186 0 -313 123.5t-127 322.5q0 87 24.5 174.5t73 165t113.5 138t152 95.5t184 35q121 0 221 -54t159.5 -155.5t59.5 -232.5q0 -114 -39.5 -223.5t-109 -196t-174 -139.5t-224.5 -53zM489 166q90 0 165.5 59t117 154t41.5 201q0 122 -67.5 194t-172.5 72
q-134 0 -227.5 -124t-93.5 -288q0 -121 67.5 -194.5t169.5 -73.5zM715 1157h-152l-141 289v4h213l80 -289v-4z" />
    <glyph glyph-name="oacute" unicode="&#xf3;" horiz-adv-x="1153" 
d="M479 -20q-186 0 -313 123.5t-127 322.5q0 87 24.5 174.5t73 165t113.5 138t152 95.5t184 35q121 0 221 -54t159.5 -155.5t59.5 -232.5q0 -114 -39.5 -223.5t-109 -196t-174 -139.5t-224.5 -53zM489 166q90 0 165.5 59t117 154t41.5 201q0 122 -67.5 194t-172.5 72
q-134 0 -227.5 -124t-93.5 -288q0 -121 67.5 -194.5t169.5 -73.5zM705 1157h-179l-4 4l201 289h244v-4z" />
    <glyph glyph-name="ocircumflex" unicode="&#xf4;" horiz-adv-x="1153" 
d="M479 -20q-186 0 -313 123.5t-127 322.5q0 87 24.5 174.5t73 165t113.5 138t152 95.5t184 35q121 0 221 -54t159.5 -155.5t59.5 -232.5q0 -114 -39.5 -223.5t-109 -196t-174 -139.5t-224.5 -53zM489 166q90 0 165.5 59t117 154t41.5 201q0 122 -67.5 194t-172.5 72
q-134 0 -227.5 -124t-93.5 -288q0 -121 67.5 -194.5t169.5 -73.5zM657 1300l-282 -141l33 162l280 156l238 -156l-33 -162z" />
    <glyph glyph-name="otilde" unicode="&#xf5;" horiz-adv-x="1153" 
d="M479 -20q-186 0 -313 123.5t-127 322.5q0 87 24.5 174.5t73 165t113.5 138t152 95.5t184 35q121 0 221 -54t159.5 -155.5t59.5 -232.5q0 -114 -39.5 -223.5t-109 -196t-174 -139.5t-224.5 -53zM489 166q90 0 165.5 59t117 154t41.5 201q0 122 -67.5 194t-172.5 72
q-134 0 -227.5 -124t-93.5 -288q0 -121 67.5 -194.5t169.5 -73.5zM756 1178q-42 0 -81.5 20.5t-72 41t-57.5 20.5q-30 0 -50 -21t-28 -55l-125 22q19 93 75.5 147t131.5 54q43 0 81 -21t69.5 -42t58.5 -21q31 0 51.5 21t28.5 55l125 -23q-18 -92 -75 -145t-132 -53z" />
    <glyph glyph-name="odieresis" unicode="&#xf6;" horiz-adv-x="1153" 
d="M479 -20q-186 0 -313 123.5t-127 322.5q0 87 24.5 174.5t73 165t113.5 138t152 95.5t184 35q121 0 221 -54t159.5 -155.5t59.5 -232.5q0 -114 -39.5 -223.5t-109 -196t-174 -139.5t-224.5 -53zM489 166q90 0 165.5 59t117 154t41.5 201q0 122 -67.5 194t-172.5 72
q-134 0 -227.5 -124t-93.5 -288q0 -121 67.5 -194.5t169.5 -73.5zM848 1198q-50 0 -83.5 34t-33.5 83t33.5 83t83.5 34t83.5 -34t33.5 -83t-33.5 -83t-83.5 -34zM446 1198q-49 0 -82.5 33.5t-33.5 83.5t33.5 83.5t82.5 33.5q50 0 83.5 -34t33.5 -83t-33.5 -83t-83.5 -34z
" />
    <glyph glyph-name="divide" unicode="&#xf7;" horiz-adv-x="1193" 
d="M686 983q-60 0 -100.5 41.5t-40.5 101.5q0 58 41 100t100 42q57 0 99 -42.5t42 -99.5q0 -60 -41.5 -101.5t-99.5 -41.5zM508 143q-60 0 -100.5 42t-40.5 102q0 58 41 99.5t100 41.5q57 0 99 -42t42 -99q0 -60 -42 -102t-99 -42zM1067 614h-981l39 181h981z" />
    <glyph glyph-name="oslash" unicode="&#xf8;" horiz-adv-x="1153" 
d="M252 434q0 -69 27 -135l421 512q-53 35 -127 35q-134 0 -227.5 -124t-93.5 -288zM489 166q90 0 165.5 59t117 154t41.5 201q0 72 -27 131l-421 -510q53 -35 124 -35zM479 -20q-135 0 -241 67l-123 -149h-166l190 233q-100 125 -100 295q0 87 24.5 174.5t73 165t113.5 138
t152 95.5t184 35q137 0 243 -67l117 143h170l-188 -229q98 -123 98 -289q0 -114 -39.5 -223.5t-109 -196t-174 -139.5t-224.5 -53z" />
    <glyph glyph-name="ugrave" unicode="&#xf9;" horiz-adv-x="1179" 
d="M860 0h-209l29 137q-64 -79 -144.5 -119.5t-158.5 -40.5q-121 0 -211 78t-90 230q0 52 16 143l125 580h209l-125 -590q-12 -52 -12 -99q0 -67 44.5 -110t112.5 -43q154 0 283 203l135 639h209zM764 1157h-152l-141 289v4h213l80 -289v-4z" />
    <glyph glyph-name="uacute" unicode="&#xfa;" horiz-adv-x="1179" 
d="M860 0h-209l29 137q-64 -79 -144.5 -119.5t-158.5 -40.5q-121 0 -211 78t-90 230q0 52 16 143l125 580h209l-125 -590q-12 -52 -12 -99q0 -67 44.5 -110t112.5 -43q154 0 283 203l135 639h209zM754 1157h-179l-4 4l201 289h244v-4z" />
    <glyph glyph-name="ucircumflex" unicode="&#xfb;" horiz-adv-x="1179" 
d="M860 0h-209l29 137q-64 -79 -144.5 -119.5t-158.5 -40.5q-121 0 -211 78t-90 230q0 52 16 143l125 580h209l-125 -590q-12 -52 -12 -99q0 -67 44.5 -110t112.5 -43q154 0 283 203l135 639h209zM707 1300l-283 -141l33 162l280 156l238 -156l-33 -162z" />
    <glyph glyph-name="udieresis" unicode="&#xfc;" horiz-adv-x="1179" 
d="M860 0h-209l29 137q-64 -79 -144.5 -119.5t-158.5 -40.5q-121 0 -211 78t-90 230q0 52 16 143l125 580h209l-125 -590q-12 -52 -12 -99q0 -67 44.5 -110t112.5 -43q154 0 283 203l135 639h209zM897 1198q-49 0 -83 34t-34 83t34 83t83 34t83 -34t34 -83t-34 -83t-83 -34z
M496 1198q-50 0 -83.5 34t-33.5 83t33.5 83t83.5 34q49 0 82.5 -33.5t33.5 -83.5t-33.5 -83.5t-82.5 -33.5z" />
    <glyph glyph-name="yacute" unicode="&#xfd;" horiz-adv-x="952" 
d="M999 1008l-880 -1397h-223l362 577l-180 820h205l125 -605l364 605h227zM643 1157h-178l-4 4l201 289h243v-4z" />
    <glyph glyph-name="thorn" unicode="&#xfe;" horiz-adv-x="1198" 
d="M530 170q80 0 145.5 40.5t104.5 105t59.5 136t20.5 140.5q0 117 -61 184.5t-162 67.5q-99 0 -178.5 -67t-108.5 -199l-28 -132q-7 -32 -7 -65q0 -96 60.5 -153.5t154.5 -57.5zM528 -20q-92 0 -166.5 37t-111.5 98l-105 -504h-208l395 1859h209l-119 -552q45 52 113.5 83
t146.5 31q170 0 281 -114q112 -112 112 -304q0 -114 -38 -226t-106 -203.5t-173.5 -148t-229.5 -56.5z" />
    <glyph glyph-name="ydieresis" unicode="&#xff;" horiz-adv-x="952" 
d="M999 1008l-880 -1397h-223l362 577l-180 820h205l125 -605l364 605h227zM786 1198q-49 0 -82.5 33.5t-33.5 83.5t33.5 83.5t82.5 33.5q50 0 83.5 -34t33.5 -83t-33.5 -83t-83.5 -34zM385 1198q-49 0 -83 34t-34 83t34 83t83 34t83 -34t34 -83t-34 -83t-83 -34z" />
    <glyph glyph-name="Amacron" unicode="&#x100;" 
d="M791 1214h-5l-284 -530h358zM1163 0h-223l-63 492h-474l-266 -492h-241l804 1434h261zM1124 1642h-487l31 146h487z" />
    <glyph glyph-name="amacron" unicode="&#x101;" horiz-adv-x="1198" 
d="M473 170q93 0 174 63q87 66 117 213l24 117q1 8 5 32.5t4 37.5q0 96 -61.5 153.5t-155.5 57.5q-80 0 -145.5 -41.5t-104.5 -105.5t-59.5 -136t-20.5 -139q0 -117 61 -184.5t162 -67.5zM428 -20q-167 0 -281 114q-110 116 -110 305q0 91 23 182t70 172t111 143.5t152.5 99
t188.5 36.5q94 0 172 -39t116 -106l25 121h197l-213 -1008h-197l23 113q-50 -60 -121.5 -96.5t-155.5 -36.5zM942 1233h-479l31 143h479z" />
    <glyph glyph-name="Abreve" unicode="&#x102;" 
d="M791 1214h-5l-284 -530h358zM1163 0h-223l-63 492h-474l-266 -492h-241l804 1434h261zM889 1575q-127 0 -199 74.5t-72 193.5h150q2 -56 36 -91.5t103 -35.5q139 0 166 127h154q-26 -126 -117 -197t-221 -71z" />
    <glyph glyph-name="abreve" unicode="&#x103;" horiz-adv-x="1198" 
d="M473 170q93 0 174 63q87 66 117 213l24 117q1 8 5 32.5t4 37.5q0 96 -61.5 153.5t-155.5 57.5q-80 0 -145.5 -41.5t-104.5 -105.5t-59.5 -136t-20.5 -139q0 -117 61 -184.5t162 -67.5zM428 -20q-167 0 -281 114q-110 116 -110 305q0 91 23 182t70 172t111 143.5t152.5 99
t188.5 36.5q94 0 172 -39t116 -106l25 121h197l-213 -1008h-197l23 113q-50 -60 -121.5 -96.5t-155.5 -36.5zM711 1169q-111 0 -172.5 71t-61.5 194h148q0 -55 25 -90t77 -35q54 0 90.5 34.5t44.5 90.5h152q-26 -122 -109.5 -193.5t-193.5 -71.5z" />
    <glyph glyph-name="Aogonek" unicode="&#x104;" 
d="M791 1214h-5l-284 -530h358zM1163 0h-223l-63 492h-474l-266 -492h-241l804 1434h261zM942 -414q-79 0 -133.5 40.5t-54.5 115.5q0 168 303 319l106 -61q-97 -41 -168 -100t-71 -115q0 -55 59 -55q46 0 90 41l68 -107q-91 -78 -199 -78z" />
    <glyph glyph-name="aogonek" unicode="&#x105;" horiz-adv-x="1198" 
d="M473 170q93 0 174 63q87 66 117 213l24 117q1 8 5 32.5t4 37.5q0 96 -61.5 153.5t-155.5 57.5q-80 0 -145.5 -41.5t-104.5 -105.5t-59.5 -136t-20.5 -139q0 -117 61 -184.5t162 -67.5zM428 -20q-167 0 -281 114q-110 116 -110 305q0 91 23 182t70 172t111 143.5t152.5 99
t188.5 36.5q94 0 172 -39t116 -106l25 121h197l-213 -1008h-197l23 113q-50 -60 -121.5 -96.5t-155.5 -36.5zM657 -414q-79 0 -133.5 40.5t-54.5 115.5q0 168 303 319l107 -61q-97 -41 -168.5 -100t-71.5 -115q0 -55 59 -55q46 0 90 41l68 -107q-91 -78 -199 -78z" />
    <glyph glyph-name="Cacute" unicode="&#x106;" horiz-adv-x="1470" 
d="M696 -20q-123 0 -232.5 47t-190.5 129t-128 200t-47 254q0 162 55.5 315t151.5 270t236 188t299 71q225 0 378 -114.5t185 -321.5l-221 -41q-21 106 -111 190q-88 82 -250 82q-137 0 -251.5 -90t-178 -235.5t-63.5 -309.5q0 -186 108 -309q109 -121 275 -121
q161 0 268 101q110 104 162 252l209 -64q-86 -240 -258 -366.5t-396 -126.5zM997 1563h-178l-4 4l201 288h244v-4z" />
    <glyph glyph-name="cacute" unicode="&#x107;" horiz-adv-x="1079" 
d="M477 -23q-115 0 -213 50t-161.5 153.5t-63.5 241.5q0 114 38.5 223.5t107 196t172 139.5t223.5 53q171 0 280 -92q112 -92 133 -221l-198 -51q-19 84 -79 130t-149 46q-85 0 -158 -56.5t-115 -151.5t-42 -204q0 -124 71 -196t169 -72q164 0 266 190l166 -92
q-73 -140 -189 -213.5t-258 -73.5zM727 1153h-178l-4 4l200 289h244v-4z" />
    <glyph glyph-name="Ccircumflex" unicode="&#x108;" horiz-adv-x="1470" 
d="M696 -20q-123 0 -232.5 47t-190.5 129t-128 200t-47 254q0 162 55.5 315t151.5 270t236 188t299 71q225 0 378 -114.5t185 -321.5l-221 -41q-21 106 -111 190q-88 82 -250 82q-137 0 -251.5 -90t-178 -235.5t-63.5 -309.5q0 -186 108 -309q109 -121 275 -121
q161 0 268 101q110 104 162 252l209 -64q-86 -240 -258 -366.5t-396 -126.5zM940 1683l-307 -147l35 162l301 162l256 -162l-33 -162z" />
    <glyph glyph-name="ccircumflex" unicode="&#x109;" horiz-adv-x="1079" 
d="M477 -23q-115 0 -213 50t-161.5 153.5t-63.5 241.5q0 114 38.5 223.5t107 196t172 139.5t223.5 53q171 0 280 -92q112 -92 133 -221l-198 -51q-19 84 -79 130t-149 46q-85 0 -158 -56.5t-115 -151.5t-42 -204q0 -124 71 -196t169 -72q164 0 266 190l166 -92
q-73 -140 -189 -213.5t-258 -73.5zM680 1296l-283 -141l33 162l281 156l237 -156l-33 -162z" />
    <glyph glyph-name="Cdotaccent" unicode="&#x10a;" horiz-adv-x="1470" 
d="M696 -20q-123 0 -232.5 47t-190.5 129t-128 200t-47 254q0 162 55.5 315t151.5 270t236 188t299 71q225 0 378 -114.5t185 -321.5l-221 -41q-21 106 -111 190q-88 82 -250 82q-137 0 -251.5 -90t-178 -235.5t-63.5 -309.5q0 -186 108 -309q109 -121 275 -121
q161 0 268 101q110 104 162 252l209 -64q-86 -240 -258 -366.5t-396 -126.5zM938 1606q-54 0 -90.5 36t-36.5 91t36.5 92t90.5 37q56 0 92.5 -37t36.5 -92t-37 -91t-92 -36z" />
    <glyph glyph-name="cdotaccent" unicode="&#x10b;" horiz-adv-x="1079" 
d="M477 -23q-115 0 -213 50t-161.5 153.5t-63.5 241.5q0 114 38.5 223.5t107 196t172 139.5t223.5 53q171 0 280 -92q112 -92 133 -221l-198 -51q-19 84 -79 130t-149 46q-85 0 -158 -56.5t-115 -151.5t-42 -204q0 -124 71 -196t169 -72q164 0 266 190l166 -92
q-73 -140 -189 -213.5t-258 -73.5zM668 1196q-54 0 -90.5 36t-36.5 91t36.5 92t90.5 37q56 0 92.5 -37t36.5 -92t-37 -91t-92 -36z" />
    <glyph glyph-name="Ccaron" unicode="&#x10c;" horiz-adv-x="1470" 
d="M696 -20q-123 0 -232.5 47t-190.5 129t-128 200t-47 254q0 162 55.5 315t151.5 270t236 188t299 71q225 0 378 -114.5t185 -321.5l-221 -41q-21 106 -111 190q-88 82 -250 82q-137 0 -251.5 -90t-178 -235.5t-63.5 -309.5q0 -186 108 -309q109 -121 275 -121
q161 0 268 101q110 104 162 252l209 -64q-86 -240 -258 -366.5t-396 -126.5zM956 1733l308 147l-35 -162l-301 -162l-256 162l33 162z" />
    <glyph glyph-name="ccaron" unicode="&#x10d;" horiz-adv-x="1079" 
d="M477 -23q-115 0 -213 50t-161.5 153.5t-63.5 241.5q0 114 38.5 223.5t107 196t172 139.5t223.5 53q171 0 280 -92q112 -92 133 -221l-198 -51q-19 84 -79 130t-149 46q-85 0 -158 -56.5t-115 -151.5t-42 -204q0 -124 71 -196t169 -72q164 0 266 190l166 -92
q-73 -140 -189 -213.5t-258 -73.5zM698 1337l283 142l-33 -162l-280 -156l-238 156l33 162z" />
    <glyph glyph-name="Dcaron" unicode="&#x10e;" horiz-adv-x="1421" 
d="M532 0h-501l305 1434h436q241 0 398 -160t157 -416q0 -195 -64.5 -358.5t-173.5 -272t-253 -168t-304 -59.5zM512 1239l-221 -1044h274q107 0 204.5 49t170 134.5t115.5 207.5t43 260q0 176 -105 284q-106 109 -264 109h-217zM823 1737l307 147l-34 -162l-301 -161
l-256 161l32 162z" />
    <glyph glyph-name="dcaron" unicode="&#x10f;" horiz-adv-x="1200" 
d="M1415 1135h-182l158 335h194zM473 170q100 0 182 71.5t111 211.5l22 110q9 40 9 70q0 96 -61.5 153.5t-155.5 57.5q-80 0 -145.5 -41.5t-104.5 -105.5t-59.5 -136t-20.5 -139q0 -117 61 -184.5t162 -67.5zM428 -20q-167 0 -281 114q-110 116 -110 305q0 91 23 182t70 172
t111 143.5t152.5 99t188.5 36.5q89 0 164 -35.5t116 -97.5l121 571h209l-313 -1470h-197l23 113q-50 -60 -121.5 -96.5t-155.5 -36.5z" />
    <glyph glyph-name="Dcroat" unicode="&#x110;" horiz-adv-x="1480" 
d="M594 0h-502l144 672h-195l39 176h192l125 586h437q241 0 398 -160t157 -416q0 -195 -64.5 -358.5t-173.5 -272t-253 -168t-304 -59.5zM453 672l-101 -477h275q107 0 204.5 49t169.5 134.5t115 207.5t43 260q0 177 -104 284q-106 109 -264 109h-218l-81 -391h260l-39 -176
h-260z" />
    <glyph glyph-name="dslash" unicode="&#x111;" horiz-adv-x="1198" 
d="M473 170q100 0 182 71.5t111 211.5l22 110q9 40 9 70q0 96 -61.5 153.5t-155.5 57.5q-80 0 -145.5 -41.5t-104.5 -105.5t-59.5 -136t-20.5 -139q0 -117 61 -184.5t162 -67.5zM682 0l23 113q-50 -60 -121.5 -96.5t-155.5 -36.5q-167 0 -281 114q-110 116 -110 305
q0 91 23 182t70 172t111 143.5t152.5 99t188.5 36.5q89 0 164 -35.5t116 -97.5l60 281h-295l28 137h295l33 153h209l-33 -153h184l-28 -137h-185l-251 -1180h-197z" />
    <glyph glyph-name="Emacron" unicode="&#x112;" horiz-adv-x="1226" 
d="M293 195h723l-41 -195h-944l305 1434h936l-41 -195h-719l-70 -334h668l-41 -194h-668zM1083 1642h-487l31 146h487z" />
    <glyph glyph-name="emacron" unicode="&#x113;" horiz-adv-x="1120" 
d="M582 862q-108 0 -185.5 -63.5t-113.5 -175.5h516q2 14 2 36q0 91 -64 147t-155 56zM780 313l140 -112q-70 -105 -183 -162t-260 -57q-184 0 -311 123t-127 317q0 111 39.5 219.5t109.5 196t176 142t228 54.5q189 0 303 -114q113 -113 113 -289q0 -61 -25 -164h-731
q-4 -32 -4 -41q0 -126 69 -199t177 -73q82 0 157 42t129 117zM895 1233h-479l30 143h480z" />
    <glyph glyph-name="Ebreve" unicode="&#x114;" horiz-adv-x="1226" 
d="M293 195h723l-41 -195h-944l305 1434h936l-41 -195h-719l-70 -334h668l-41 -194h-668zM848 1575q-127 0 -198.5 74.5t-71.5 193.5h149q2 -56 36 -91.5t103 -35.5q139 0 166 127h154q-26 -126 -117 -197t-221 -71z" />
    <glyph glyph-name="ebreve" unicode="&#x115;" horiz-adv-x="1120" 
d="M582 862q-108 0 -185.5 -63.5t-113.5 -175.5h516q2 14 2 36q0 91 -64 147t-155 56zM780 313l140 -112q-70 -105 -183 -162t-260 -57q-184 0 -311 123t-127 317q0 111 39.5 219.5t109.5 196t176 142t228 54.5q189 0 303 -114q113 -113 113 -289q0 -61 -25 -164h-731
q-4 -32 -4 -41q0 -126 69 -199t177 -73q82 0 157 42t129 117zM664 1169q-111 0 -172.5 71t-61.5 194h148q0 -55 25 -90t77 -35q54 0 90.5 34.5t44.5 90.5h152q-26 -122 -109.5 -193.5t-193.5 -71.5z" />
    <glyph glyph-name="Edotaccent" unicode="&#x116;" horiz-adv-x="1226" 
d="M293 195h723l-41 -195h-944l305 1434h936l-41 -195h-719l-70 -334h668l-41 -194h-668zM844 1610q-54 0 -90.5 36t-36.5 91t36.5 92t90.5 37q56 0 92.5 -37t36.5 -92t-37 -91t-92 -36z" />
    <glyph glyph-name="edotaccent" unicode="&#x117;" horiz-adv-x="1120" 
d="M582 862q-108 0 -185.5 -63.5t-113.5 -175.5h516q2 14 2 36q0 91 -64 147t-155 56zM780 313l140 -112q-70 -105 -183 -162t-260 -57q-184 0 -311 123t-127 317q0 111 39.5 219.5t109.5 196t176 142t228 54.5q189 0 303 -114q113 -113 113 -289q0 -61 -25 -164h-731
q-4 -32 -4 -41q0 -126 69 -199t177 -73q82 0 157 42t129 117zM662 1200q-54 0 -90.5 36t-36.5 91t36.5 92t90.5 37q56 0 92.5 -37t36.5 -92t-37 -91t-92 -36z" />
    <glyph glyph-name="Eogonek" unicode="&#x118;" horiz-adv-x="1226" 
d="M293 195h723l-41 -195h-944l305 1434h936l-41 -195h-719l-70 -334h668l-41 -194h-668zM754 -414q-79 0 -134 40.5t-55 115.5q0 168 303 319l107 -61q-97 -41 -168.5 -100t-71.5 -115q0 -55 60 -55q46 0 90 41l67 -107q-91 -78 -198 -78z" />
    <glyph glyph-name="eogonek" unicode="&#x119;" horiz-adv-x="1120" 
d="M582 862q-108 0 -185.5 -63.5t-113.5 -175.5h516q2 14 2 36q0 91 -64 147t-155 56zM717 -229l65 -107q-91 -78 -196 -78q-80 0 -135.5 40.5t-55.5 115.5q0 116 123 242q-10 -2 -41 -2q-184 0 -311 123t-127 317q0 111 39.5 219.5t109.5 196t176 142t228 54.5
q189 0 303 -114q113 -113 113 -289q0 -61 -25 -164h-731q-4 -32 -4 -41q0 -126 69 -199t177 -73q82 0 157 42t129 117l140 -112q-62 -87 -142 -138q-41 -31 -72 -57.5t-66.5 -64t-55 -77.5t-19.5 -79q0 -29 18 -42t44 -13q39 0 90 41z" />
    <glyph glyph-name="Ecaron" unicode="&#x11a;" horiz-adv-x="1226" 
d="M293 195h723l-41 -195h-944l305 1434h936l-41 -195h-719l-70 -334h668l-41 -194h-668zM862 1737l307 147l-34 -162l-301 -161l-256 161l32 162z" />
    <glyph glyph-name="ecaron" unicode="&#x11b;" horiz-adv-x="1120" 
d="M582 862q-108 0 -185.5 -63.5t-113.5 -175.5h516q2 14 2 36q0 91 -64 147t-155 56zM780 313l140 -112q-70 -105 -183 -162t-260 -57q-184 0 -311 123t-127 317q0 111 39.5 219.5t109.5 196t176 142t228 54.5q189 0 303 -114q113 -113 113 -289q0 -61 -25 -164h-731
q-4 -32 -4 -41q0 -126 69 -199t177 -73q82 0 157 42t129 117zM692 1341l283 142l-33 -162l-280 -156l-238 156l33 162z" />
    <glyph glyph-name="Gcircumflex" unicode="&#x11c;" horiz-adv-x="1523" 
d="M1417 688l-14 -70q-30 -147 -99 -268t-163 -201.5t-208.5 -124.5t-236.5 -44t-231.5 45.5t-190.5 126.5t-128.5 199.5t-47.5 256.5q0 130 35 254.5t102.5 231t159 187.5t213 127t256.5 46q218 0 376.5 -120.5t178.5 -313.5l-221 -51q-19 116 -114.5 198t-245.5 82
q-143 0 -261.5 -91.5t-183.5 -237t-65 -306.5q0 -188 108 -311q112 -121 277 -121q139 0 257 85t171 231h-383l41 190h618zM938 1688l-307 -148l35 162l301 162l256 -162l-33 -162z" />
    <glyph glyph-name="gcircumflex" unicode="&#x11d;" horiz-adv-x="1202" 
d="M479 207q102 0 182.5 66.5t108.5 191.5l23 104q8 33 8 66q0 100 -62 155.5t-159 55.5q-64 0 -118 -25.5t-90.5 -67t-62.5 -95t-37.5 -107.5t-11.5 -105q0 -110 60 -174.5t159 -64.5zM385 -414q-144 0 -260.5 59t-165.5 171l166 114q36 -81 106.5 -122t165.5 -41
q110 0 182.5 68.5t98.5 193.5l18 82q-108 -93 -256 -93q-171 0 -284 113q-111 114 -111 297q0 87 22 173t67.5 163.5t108 137.5t149.5 95t186 35t177.5 -38.5t116.5 -106.5l25 121h199l-215 -1018q-42 -194 -168.5 -299t-327.5 -105zM666 1300l-283 -141l33 162l280 156
l238 -156l-33 -162z" />
    <glyph glyph-name="Gbreve" unicode="&#x11e;" horiz-adv-x="1523" 
d="M1417 688l-14 -70q-30 -147 -99 -268t-163 -201.5t-208.5 -124.5t-236.5 -44t-231.5 45.5t-190.5 126.5t-128.5 199.5t-47.5 256.5q0 130 35 254.5t102.5 231t159 187.5t213 127t256.5 46q218 0 376.5 -120.5t178.5 -313.5l-221 -51q-19 116 -114.5 198t-245.5 82
q-143 0 -261.5 -91.5t-183.5 -237t-65 -306.5q0 -188 108 -311q112 -121 277 -121q139 0 257 85t171 231h-383l41 190h618zM940 1575q-127 0 -198.5 74.5t-71.5 193.5h149q2 -56 36 -91.5t103 -35.5q139 0 166 127h154q-26 -126 -117 -197t-221 -71z" />
    <glyph glyph-name="gbreve" unicode="&#x11f;" horiz-adv-x="1202" 
d="M479 207q102 0 182.5 66.5t108.5 191.5l23 104q8 33 8 66q0 100 -62 155.5t-159 55.5q-64 0 -118 -25.5t-90.5 -67t-62.5 -95t-37.5 -107.5t-11.5 -105q0 -110 60 -174.5t159 -64.5zM385 -414q-144 0 -260.5 59t-165.5 171l166 114q36 -81 106.5 -122t165.5 -41
q110 0 182.5 68.5t98.5 193.5l18 82q-108 -93 -256 -93q-171 0 -284 113q-111 114 -111 297q0 87 22 173t67.5 163.5t108 137.5t149.5 95t186 35t177.5 -38.5t116.5 -106.5l25 121h199l-215 -1018q-42 -194 -168.5 -299t-327.5 -105zM655 1169q-111 0 -172 71t-61 194h147
q0 -55 25.5 -90t77.5 -35q54 0 90.5 34.5t44.5 90.5h151q-26 -122 -109.5 -193.5t-193.5 -71.5z" />
    <glyph glyph-name="Gdotaccent" unicode="&#x120;" horiz-adv-x="1523" 
d="M1417 688l-14 -70q-30 -147 -99 -268t-163 -201.5t-208.5 -124.5t-236.5 -44t-231.5 45.5t-190.5 126.5t-128.5 199.5t-47.5 256.5q0 130 35 254.5t102.5 231t159 187.5t213 127t256.5 46q218 0 376.5 -120.5t178.5 -313.5l-221 -51q-19 116 -114.5 198t-245.5 82
q-143 0 -261.5 -91.5t-183.5 -237t-65 -306.5q0 -188 108 -311q112 -121 277 -121q139 0 257 85t171 231h-383l41 190h618zM936 1610q-54 0 -90.5 36t-36.5 91t36.5 92t90.5 37q56 0 92.5 -37t36.5 -92t-37 -91t-92 -36z" />
    <glyph glyph-name="gdotaccent" unicode="&#x121;" horiz-adv-x="1202" 
d="M479 207q102 0 182.5 66.5t108.5 191.5l23 104q8 33 8 66q0 100 -62 155.5t-159 55.5q-64 0 -118 -25.5t-90.5 -67t-62.5 -95t-37.5 -107.5t-11.5 -105q0 -110 60 -174.5t159 -64.5zM385 -414q-144 0 -260.5 59t-165.5 171l166 114q36 -81 106.5 -122t165.5 -41
q110 0 182.5 68.5t98.5 193.5l18 82q-108 -93 -256 -93q-171 0 -284 113q-111 114 -111 297q0 87 22 173t67.5 163.5t108 137.5t149.5 95t186 35t177.5 -38.5t116.5 -106.5l25 121h199l-215 -1018q-42 -194 -168.5 -299t-327.5 -105zM653 1200q-54 0 -90.5 36t-36.5 91
t36.5 92t90.5 37q55 0 92 -37t37 -92t-37 -91t-92 -36z" />
    <glyph glyph-name="Gcommaaccent" unicode="&#x122;" horiz-adv-x="1523" 
d="M1417 688l-14 -70q-30 -147 -99 -268t-163 -201.5t-208.5 -124.5t-236.5 -44t-231.5 45.5t-190.5 126.5t-128.5 199.5t-47.5 256.5q0 130 35 254.5t102.5 231t159 187.5t213 127t256.5 46q218 0 376.5 -120.5t178.5 -313.5l-221 -51q-19 116 -114.5 198t-245.5 82
q-143 0 -261.5 -91.5t-183.5 -237t-65 -306.5q0 -188 108 -311q112 -121 277 -121q139 0 257 85t171 231h-383l41 190h618zM596 -487h-129l70 151q-27 9 -48.5 36.5t-21.5 68.5q0 49 37.5 84.5t85.5 35.5q49 0 82 -33.5t33 -78.5q0 -51 -48 -139z" />
    <glyph glyph-name="gcommaaccent" unicode="&#x123;" horiz-adv-x="1202" 
d="M479 207q102 0 182.5 66.5t108.5 191.5l23 104q8 33 8 66q0 100 -62 155.5t-159 55.5q-64 0 -118 -25.5t-90.5 -67t-62.5 -95t-37.5 -107.5t-11.5 -105q0 -110 60 -174.5t159 -64.5zM385 -414q-144 0 -260.5 59t-165.5 171l166 114q36 -81 106.5 -122t165.5 -41
q110 0 182.5 68.5t98.5 193.5l18 82q-108 -93 -256 -93q-171 0 -284 113q-111 114 -111 297q0 87 22 173t67.5 163.5t108 137.5t149.5 95t186 35t177.5 -38.5t116.5 -106.5l25 121h199l-215 -1018q-42 -194 -168.5 -299t-327.5 -105zM653 1526h129l-69 -152q27 -9 48 -36
t21 -68q0 -49 -37.5 -85t-85.5 -36t-81 34t-33 79q0 53 47 139z" />
    <glyph glyph-name="Hcircumflex" unicode="&#x124;" horiz-adv-x="1501" 
d="M1165 0h-219l160 750h-696l-160 -750h-219l305 1434h219l-104 -490h696l104 490h219zM942 1688l-307 -148l35 162l301 162l256 -162l-33 -162z" />
    <glyph glyph-name="hcircumflex" unicode="&#x125;" horiz-adv-x="1189" 
d="M649 844q-157 0 -284 -199l-138 -645h-209l314 1470h209l-127 -596q63 78 144.5 118t160.5 40q123 0 213 -78q92 -77 92 -229q0 -55 -16 -143l-123 -582h-209l125 590q10 44 10 100q0 68 -46 111t-116 43zM848 1716l-283 -141l33 162l281 155l237 -155l-33 -162z" />
    <glyph glyph-name="Hbar" unicode="&#x126;" horiz-adv-x="1505" 
d="M432 840h694l45 213h-694zM1167 0h-219l137 645h-694l-137 -645h-221l223 1053h-141l32 155h144l47 226h221l-47 -226h694l47 226h220l-48 -226h142l-33 -155h-143z" />
    <glyph glyph-name="hbar" unicode="&#x127;" horiz-adv-x="1189" 
d="M649 844q-157 0 -284 -199l-138 -645h-209l252 1180h-186l29 137h186l33 153h209l-33 -153h293l-29 -137h-293l-65 -306q63 78 144.5 118t160.5 40q123 0 213 -78q92 -77 92 -229q0 -55 -16 -143l-123 -582h-209l125 590q10 44 10 100q0 68 -46 111t-116 43z" />
    <glyph glyph-name="Itilde" unicode="&#x128;" horiz-adv-x="583" 
d="M250 0h-219l305 1434h219zM606 1587q-42 0 -81.5 20.5t-71 41t-54.5 20.5q-30 0 -51 -21t-29 -53l-124 23q19 89 75.5 144t130.5 55q32 0 63.5 -13t52 -29t45 -29t44.5 -13q31 0 52.5 20.5t29.5 52.5l125 -22q-20 -89 -76.5 -143t-130.5 -54z" />
    <glyph glyph-name="itilde" unicode="&#x129;" horiz-adv-x="546" 
d="M227 0h-209l213 1008h209zM500 1178q-42 0 -81.5 20.5t-72 41t-57.5 20.5q-30 0 -50 -21t-28 -55l-125 22q19 93 75.5 147t131.5 54q43 0 81 -21t69.5 -42t58.5 -21q31 0 51.5 21t28.5 55l125 -23q-18 -92 -75 -145t-132 -53z" />
    <glyph glyph-name="Imacron" unicode="&#x12a;" horiz-adv-x="583" 
d="M250 0h-219l305 1434h219zM735 1642h-487l31 146h487z" />
    <glyph glyph-name="imacron" unicode="&#x12b;" horiz-adv-x="546" 
d="M227 0h-209l213 1008h209zM623 1233h-480l31 143h479z" />
    <glyph glyph-name="Ibreve" unicode="&#x12c;" horiz-adv-x="583" 
d="M250 0h-219l305 1434h219zM500 1581q-108 0 -168 71.5t-60 190.5h148q0 -125 96 -125q50 0 84.5 34.5t42.5 90.5h150q-26 -122 -106 -192t-187 -70z" />
    <glyph glyph-name="ibreve" unicode="&#x12d;" horiz-adv-x="546" 
d="M227 0h-209l213 1008h209zM393 1171q-108 0 -167.5 71.5t-59.5 191.5h147q0 -56 23 -90.5t74 -34.5q50 0 84.5 34.5t42.5 90.5h149q-26 -122 -106 -192.5t-187 -70.5z" />
    <glyph glyph-name="Iogonek" unicode="&#x12e;" horiz-adv-x="583" 
d="M250 0h-219l305 1434h219zM29 -414q-79 0 -134 40.5t-55 115.5q0 168 303 319l107 -61q-97 -41 -168.5 -100t-71.5 -115q0 -55 60 -55q46 0 90 41l67 -107q-91 -78 -198 -78z" />
    <glyph glyph-name="iogonek" unicode="&#x12f;" horiz-adv-x="546" 
d="M403 1194q-55 0 -93 38t-38 93q0 57 37.5 94t93.5 37t94 -37t38 -94q0 -55 -38 -93t-94 -38zM227 0h-209l213 1008h209zM6 -414q-79 0 -133.5 40.5t-54.5 115.5q0 168 303 319l106 -61q-97 -41 -168 -100t-71 -115q0 -55 59 -55q46 0 90 41l68 -107q-91 -78 -199 -78z
" />
    <glyph glyph-name="Idot" unicode="&#x130;" horiz-adv-x="583" 
d="M250 0h-219l305 1434h219zM496 1610q-54 0 -90.5 36t-36.5 91t36.5 92t90.5 37q56 0 92.5 -37t36.5 -92t-37 -91t-92 -36z" />
    <glyph glyph-name="dotlessi" unicode="&#x131;" horiz-adv-x="546" 
d="M227 0h-209l213 1008h209z" />
    <glyph glyph-name="IJ" unicode="&#x132;" horiz-adv-x="1343" 
d="M250 0h-219l305 1434h219zM694 -16q-73 0 -149 29t-109 67l142 162q56 -56 135 -56q130 0 168 181l227 1067h221l-233 -1092q-38 -176 -142.5 -267t-259.5 -91z" />
    <glyph glyph-name="ij" unicode="&#x133;" horiz-adv-x="1089" 
d="M403 1194q-55 0 -93 38t-38 93q0 57 37.5 94t93.5 37t94 -37t38 -94q0 -55 -38 -93t-94 -38zM227 0h-209l213 1008h209zM946 1194q-56 0 -93.5 38t-37.5 93q0 57 37.5 94t93.5 37t93.5 -37t37.5 -94q0 -55 -37.5 -93t-93.5 -38zM774 1008h209l-235 -1112
q-31 -156 -124 -231t-233 -75q-26 0 -61 7l37 178h24q121 0 152 141z" />
    <glyph glyph-name="Jcircumflex" unicode="&#x134;" horiz-adv-x="1067" 
d="M362 -18q-83 0 -157 26t-131 76t-89 129.5t-30 179.5l215 27q0 -111 56 -173.5t155 -62.5q88 0 148.5 63t86.5 181l215 1006h220l-226 -1055q-38 -190 -158.5 -293.5t-304.5 -103.5zM993 1688l-307 -148l35 162l301 162l256 -162l-33 -162z" />
    <glyph glyph-name="jcircumflex" unicode="&#x135;" horiz-adv-x="546" 
d="M231 1008h209l-235 -1112q-31 -156 -124 -231t-233 -75q-26 0 -61 7l37 178h24q121 0 152 141zM401 1300l-282 -141l33 162l280 156l238 -156l-33 -162z" />
    <glyph glyph-name="Kcommaaccent" unicode="&#x136;" horiz-adv-x="1300" 
d="M1135 0h-236l-276 815l-242 -197l-131 -618h-219l305 1434h219l-115 -539l666 539h311l-614 -486zM537 -487h-129l69 151q-27 9 -48 36.5t-21 68.5q0 49 37 84.5t85 35.5q49 0 82 -33.5t33 -78.5q0 -53 -47 -139z" />
    <glyph glyph-name="kcommaaccent" unicode="&#x137;" horiz-adv-x="1075" 
d="M903 0h-219l-209 545l-162 -125l-90 -420h-205l314 1470h205l-172 -806l452 344h297l-469 -344zM410 -487h-129l69 151q-27 9 -48 36.5t-21 68.5q0 49 37 84.5t85 35.5q49 0 82 -33.5t33 -78.5q0 -53 -47 -139z" />
    <glyph glyph-name="kgreenlandic" unicode="&#x138;" horiz-adv-x="1075" 
d="M903 0h-219l-207 543l-166 -133l-88 -410h-205l213 1008h207l-73 -349l452 349h297l-467 -349z" />
    <glyph glyph-name="Lacute" unicode="&#x139;" horiz-adv-x="1093" 
d="M891 0h-860l305 1434h219l-264 -1239h643zM555 1567h-178l-4 4l200 289h244v-5z" />
    <glyph glyph-name="lacute" unicode="&#x13a;" horiz-adv-x="548" 
d="M227 0h-209l314 1470h209zM532 1552h-178l-4 4l201 289h244v-4z" />
    <glyph glyph-name="Lcommaaccent" unicode="&#x13b;" horiz-adv-x="1093" 
d="M891 0h-860l305 1434h219l-264 -1239h643zM467 -487h-129l70 151q-27 9 -48.5 36.5t-21.5 68.5q0 49 37.5 84.5t85.5 35.5t81 -33.5t33 -78.5q0 -53 -47 -139z" />
    <glyph glyph-name="lcommaaccent" unicode="&#x13c;" horiz-adv-x="548" 
d="M227 0h-209l314 1470h209zM84 -487h-129l70 151q-27 9 -48.5 36.5t-21.5 68.5q0 49 37.5 84.5t85.5 35.5q49 0 82 -33.5t33 -78.5q0 -51 -48 -139z" />
    <glyph glyph-name="Lcaron" unicode="&#x13d;" horiz-adv-x="1093" 
d="M891 0h-860l305 1434h219l-264 -1239h643zM852 1069h-129l70 152q-27 9 -48.5 36t-21.5 68q0 49 37.5 85t85.5 36t81.5 -34t33.5 -79q0 -51 -48 -139z" />
    <glyph glyph-name="lcaron" unicode="&#x13e;" horiz-adv-x="548" 
d="M227 0h-209l314 1470h209zM764 1135h-182l155 335h197z" />
    <glyph glyph-name="Ldot" unicode="&#x13f;" horiz-adv-x="1095" 
d="M891 0h-860l305 1434h219l-264 -1239h643zM821 623q-60 0 -100.5 41.5t-40.5 101.5q0 58 41 99.5t100 41.5q57 0 99.5 -42t42.5 -99q0 -59 -42 -101t-100 -42z" />
    <glyph glyph-name="ldot" unicode="&#x140;" horiz-adv-x="817" 
d="M227 0h-209l314 1470h209zM639 573q-60 0 -100.5 42t-40.5 102q0 58 41 99.5t100 41.5q57 0 99 -42t42 -99q0 -60 -42 -102t-99 -42z" />
    <glyph glyph-name="Lslash" unicode="&#x141;" horiz-adv-x="1110" 
d="M950 195l-43 -195h-860l90 422l-168 -78l39 195l170 77l174 818h219l-153 -723l436 207l-41 -195l-438 -207l-68 -321h643z" />
    <glyph glyph-name="lslash" unicode="&#x142;" horiz-adv-x="600" 
d="M403 711l-151 -711h-209l127 600l-176 -84l41 189l176 83l145 682h209l-123 -571l181 84l-41 -188z" />
    <glyph glyph-name="Nacute" unicode="&#x143;" horiz-adv-x="1497" 
d="M1161 0h-211l-475 1079l-229 -1079h-215l305 1434h211l475 -1084l229 1084h215zM1006 1567h-179l-4 4l201 289h244v-5z" />
    <glyph glyph-name="nacute" unicode="&#x144;" horiz-adv-x="1189" 
d="M649 844q-156 0 -287 -201l-135 -643h-209l213 1008h209l-28 -136q63 78 145.5 119t161.5 41q123 0 213 -78q92 -77 92 -229q0 -55 -16 -143l-123 -582h-209l125 590q10 44 10 100q0 68 -46 111t-116 43zM776 1157h-178l-4 4l201 289h243v-4z" />
    <glyph glyph-name="Ncommaaccent" unicode="&#x145;" horiz-adv-x="1497" 
d="M1161 0h-211l-475 1079l-229 -1079h-215l305 1434h211l475 -1084l229 1084h215zM563 -487h-129l70 151q-27 9 -48.5 36.5t-21.5 68.5q0 49 37.5 84.5t85.5 35.5q49 0 82 -33.5t33 -78.5q0 -53 -47 -139z" />
    <glyph glyph-name="ncommaaccent" unicode="&#x146;" horiz-adv-x="1189" 
d="M649 844q-156 0 -287 -201l-135 -643h-209l213 1008h209l-28 -136q63 78 145.5 119t161.5 41q123 0 213 -78q92 -77 92 -229q0 -55 -16 -143l-123 -582h-209l125 590q10 44 10 100q0 68 -46 111t-116 43zM432 -487h-129l70 151q-27 9 -48.5 36.5t-21.5 68.5
q0 49 37.5 84.5t85.5 35.5q49 0 82 -33.5t33 -78.5q0 -53 -47 -139z" />
    <glyph glyph-name="Ncaron" unicode="&#x147;" horiz-adv-x="1497" 
d="M1161 0h-211l-475 1079l-229 -1079h-215l305 1434h211l475 -1084l229 1084h215zM965 1737l307 147l-35 -162l-301 -161l-256 161l33 162z" />
    <glyph glyph-name="ncaron" unicode="&#x148;" horiz-adv-x="1189" 
d="M649 844q-156 0 -287 -201l-135 -643h-209l213 1008h209l-28 -136q63 78 145.5 119t161.5 41q123 0 213 -78q92 -77 92 -229q0 -55 -16 -143l-123 -582h-209l125 590q10 44 10 100q0 68 -46 111t-116 43zM748 1341l282 142l-33 -162l-280 -156l-238 156l33 162z" />
    <glyph glyph-name="Eng" unicode="&#x14a;" horiz-adv-x="1503" 
d="M805 -420q-78 0 -144 34.5t-96 98.5l154 113q36 -64 98 -64q37 0 65 24t38 73l30 141l-475 1079l-229 -1079h-215l305 1434h211l475 -1084l229 1084h215l-336 -1586q-56 -268 -325 -268z" />
    <glyph glyph-name="eng" unicode="&#x14b;" horiz-adv-x="1189" 
d="M506 -410q-13 0 -62 7l37 178h25q60 0 97 32t54 107l144 676q10 44 10 100q0 68 -46 111t-116 43q-166 0 -287 -205l-135 -639h-209l213 1008h209l-28 -136q63 78 145.5 119t161.5 41q123 0 213 -78q92 -77 92 -229q0 -55 -16 -143l-146 -686q-31 -155 -123.5 -230.5
t-232.5 -75.5z" />
    <glyph glyph-name="Omacron" unicode="&#x14c;" horiz-adv-x="1550" 
d="M692 -20q-124 0 -233.5 47t-189 129.5t-125.5 200t-46 251.5q0 157 56.5 308.5t154.5 271t242.5 193t308.5 73.5q166 0 302.5 -80.5t215 -224.5t78.5 -322q0 -125 -36 -249t-104.5 -231t-160 -189.5t-212 -130t-251.5 -47.5zM709 184q107 0 204.5 55.5t165.5 144.5
t108 203t40 230q0 186 -108 309t-277 123q-106 0 -203.5 -55t-165 -143.5t-107.5 -202.5t-40 -230q0 -189 108 -311.5t275 -122.5zM1159 1642h-487l30 146h488z" />
    <glyph glyph-name="omacron" unicode="&#x14d;" horiz-adv-x="1153" 
d="M479 -20q-186 0 -313 123.5t-127 322.5q0 87 24.5 174.5t73 165t113.5 138t152 95.5t184 35q121 0 221 -54t159.5 -155.5t59.5 -232.5q0 -114 -39.5 -223.5t-109 -196t-174 -139.5t-224.5 -53zM489 166q90 0 165.5 59t117 154t41.5 201q0 122 -67.5 194t-172.5 72
q-134 0 -227.5 -124t-93.5 -288q0 -121 67.5 -194.5t169.5 -73.5zM879 1233h-480l31 143h479z" />
    <glyph glyph-name="Obreve" unicode="&#x14e;" horiz-adv-x="1550" 
d="M692 -20q-124 0 -233.5 47t-189 129.5t-125.5 200t-46 251.5q0 157 56.5 308.5t154.5 271t242.5 193t308.5 73.5q166 0 302.5 -80.5t215 -224.5t78.5 -322q0 -125 -36 -249t-104.5 -231t-160 -189.5t-212 -130t-251.5 -47.5zM709 184q107 0 204.5 55.5t165.5 144.5
t108 203t40 230q0 186 -108 309t-277 123q-106 0 -203.5 -55t-165 -143.5t-107.5 -202.5t-40 -230q0 -189 108 -311.5t275 -122.5zM924 1575q-127 0 -199 74.5t-72 193.5h150q2 -56 36 -91.5t103 -35.5q139 0 166 127h154q-26 -126 -117 -197t-221 -71z" />
    <glyph glyph-name="obreve" unicode="&#x14f;" horiz-adv-x="1153" 
d="M479 -20q-186 0 -313 123.5t-127 322.5q0 87 24.5 174.5t73 165t113.5 138t152 95.5t184 35q121 0 221 -54t159.5 -155.5t59.5 -232.5q0 -114 -39.5 -223.5t-109 -196t-174 -139.5t-224.5 -53zM489 166q90 0 165.5 59t117 154t41.5 201q0 122 -67.5 194t-172.5 72
q-134 0 -227.5 -124t-93.5 -288q0 -121 67.5 -194.5t169.5 -73.5zM647 1169q-111 0 -172 71t-61 194h147q0 -55 25.5 -90t77.5 -35q54 0 90.5 34.5t44.5 90.5h151q-26 -122 -109.5 -193.5t-193.5 -71.5z" />
    <glyph glyph-name="Ohungarumlaut" unicode="&#x150;" horiz-adv-x="1550" 
d="M692 -20q-124 0 -233.5 47t-189 129.5t-125.5 200t-46 251.5q0 157 56.5 308.5t154.5 271t242.5 193t308.5 73.5q166 0 302.5 -80.5t215 -224.5t78.5 -322q0 -125 -36 -249t-104.5 -231t-160 -189.5t-212 -130t-251.5 -47.5zM709 184q107 0 204.5 55.5t165.5 144.5
t108 203t40 230q0 186 -108 309t-277 123q-106 0 -203.5 -55t-165 -143.5t-107.5 -202.5t-40 -230q0 -189 108 -311.5t275 -122.5zM1100 1567h-164l235 293h205zM799 1567h-154l197 293h192z" />
    <glyph glyph-name="ohungarumlaut" unicode="&#x151;" horiz-adv-x="1153" 
d="M479 -20q-186 0 -313 123.5t-127 322.5q0 87 24.5 174.5t73 165t113.5 138t152 95.5t184 35q121 0 221 -54t159.5 -155.5t59.5 -232.5q0 -114 -39.5 -223.5t-109 -196t-174 -139.5t-224.5 -53zM489 166q90 0 165.5 59t117 154t41.5 201q0 122 -67.5 194t-172.5 72
q-134 0 -227.5 -124t-93.5 -288q0 -121 67.5 -194.5t169.5 -73.5zM825 1157h-163l235 293h205zM524 1157h-153l196 293h193z" />
    <glyph glyph-name="OE" unicode="&#x152;" horiz-adv-x="1994" 
d="M694 199h148l219 1036h-201q-119 0 -221.5 -54t-169.5 -142t-105 -197.5t-38 -223.5q0 -181 101 -300t267 -119zM1743 0h-1075q-165 0 -295.5 78t-203.5 217t-73 313q0 155 56 302.5t155 264t250 188t328 71.5h1155l-41 -195h-719l-70 -334h668l-41 -194h-668l-108 -516
h723z" />
    <glyph glyph-name="oe" unicode="&#x153;" horiz-adv-x="1861" 
d="M1331 862q-108 0 -184.5 -63t-114.5 -176h508q2 14 2 36q0 91 -61 147t-150 56zM487 162q88 0 161 60t113 155.5t40 202.5q0 122 -64.5 197t-165.5 75q-87 0 -161 -59.5t-116 -155.5t-42 -203q0 -121 67 -196.5t168 -75.5zM1522 313l139 -112q-72 -104 -182.5 -162.5
t-253.5 -58.5q-118 0 -214 55.5t-147 152.5q-70 -97 -169 -152.5t-218 -55.5q-185 0 -311.5 124t-126.5 322q0 110 39.5 218t108.5 195t172.5 141t222.5 54q120 0 213 -57t145 -158q73 99 176 157t227 58q189 0 297 -114q109 -115 109 -287q0 -63 -25 -166h-725
q-4 -32 -4 -41q0 -127 67.5 -199.5t178.5 -72.5q77 0 152 42.5t129 116.5z" />
    <glyph glyph-name="Racute" unicode="&#x154;" horiz-adv-x="1282" 
d="M813 1239h-303l-84 -397h334q108 0 179 65t71 154q0 85 -53.5 131.5t-143.5 46.5zM1102 0h-236l-229 649h-252l-137 -649h-217l305 1434h518q175 0 280 -95.5t105 -259.5q0 -95 -42 -182t-118 -143q-102 -73 -221 -95zM848 1567h-178l-4 4l200 289h244v-5z" />
    <glyph glyph-name="racute" unicode="&#x155;" horiz-adv-x="772" 
d="M584 827q-61 0 -117 -40.5t-96 -106.5l-144 -680h-209l213 1008h209l-26 -127q94 143 229 143q99 0 168 -53l-109 -183q-48 39 -118 39zM596 1157h-178l-4 4l200 289h244v-4z" />
    <glyph glyph-name="Rcommaaccent" unicode="&#x156;" horiz-adv-x="1282" 
d="M813 1239h-303l-84 -397h334q108 0 179 65t71 154q0 85 -53.5 131.5t-143.5 46.5zM1102 0h-236l-229 649h-252l-137 -649h-217l305 1434h518q175 0 280 -95.5t105 -259.5q0 -95 -42 -182t-118 -143q-102 -73 -221 -95zM522 -487h-129l70 151q-27 9 -48.5 36.5t-21.5 68.5
q0 49 37.5 84.5t85.5 35.5q49 0 82 -33.5t33 -78.5q0 -53 -47 -139z" />
    <glyph glyph-name="rcommaaccent" unicode="&#x157;" horiz-adv-x="772" 
d="M584 827q-61 0 -117 -40.5t-96 -106.5l-144 -680h-209l213 1008h209l-26 -127q94 143 229 143q99 0 168 -53l-109 -183q-48 39 -118 39zM84 -487h-129l70 151q-27 9 -48.5 36.5t-21.5 68.5q0 49 37.5 84.5t85.5 35.5q49 0 82 -33.5t33 -78.5q0 -51 -48 -139z" />
    <glyph glyph-name="Rcaron" unicode="&#x158;" horiz-adv-x="1282" 
d="M813 1239h-303l-84 -397h334q108 0 179 65t71 154q0 85 -53.5 131.5t-143.5 46.5zM1102 0h-236l-229 649h-252l-137 -649h-217l305 1434h518q175 0 280 -95.5t105 -259.5q0 -95 -42 -182t-118 -143q-102 -73 -221 -95zM807 1737l307 147l-35 -162l-301 -161l-256 161
l33 162z" />
    <glyph glyph-name="rcaron" unicode="&#x159;" horiz-adv-x="772" 
d="M584 827q-61 0 -117 -40.5t-96 -106.5l-144 -680h-209l213 1008h209l-26 -127q94 143 229 143q99 0 168 -53l-109 -183q-48 39 -118 39zM567 1341l283 142l-33 -162l-280 -156l-238 156l33 162z" />
    <glyph glyph-name="Sacute" unicode="&#x15a;" horiz-adv-x="1230" 
d="M553 -20q-113 0 -206 27.5t-166 84t-113.5 151.5t-40.5 222v35l215 12q-2 -18 -2 -41q1 -149 88 -227t233 -78q107 0 191 68t84 169q0 80 -55.5 136t-186.5 112l-117 49q-130 55 -200 143t-70 193q0 177 141 297.5t350 120.5q205 0 340.5 -105.5t135.5 -275.5
q0 -8 -4 -29t-5 -32l-211 -4q2 16 2 39q0 115 -82 167q-85 54 -186 54q-113 0 -187.5 -55t-74.5 -142q0 -63 46.5 -110t156.5 -97l119 -51q311 -133 311 -385q0 -94 -39 -177.5t-106 -142.5t-161 -93.5t-200 -34.5zM850 1563h-178l-4 4l200 288h244v-4z" />
    <glyph glyph-name="sacute" unicode="&#x15b;" horiz-adv-x="960" 
d="M397 -23q-110 0 -199 33t-150.5 105t-72.5 176l187 45q13 -96 77.5 -143.5t161.5 -47.5q82 0 129.5 36t47.5 89t-40.5 86.5t-142.5 71.5q-147 53 -220 119t-73 180q0 129 105 217q110 90 278 90q167 0 269 -78.5t114 -199.5l-184 -39q-10 75 -64.5 114t-136.5 39
q-80 0 -129 -33t-49 -89q0 -55 41 -84t150 -70q66 -24 114.5 -50t89 -61.5t61.5 -83.5t21 -108q0 -136 -106 -223q-111 -91 -279 -91zM643 1153h-178l-4 4l201 289h243v-4z" />
    <glyph glyph-name="Scircumflex" unicode="&#x15c;" horiz-adv-x="1230" 
d="M553 -20q-113 0 -206 27.5t-166 84t-113.5 151.5t-40.5 222v35l215 12q-2 -18 -2 -41q1 -149 88 -227t233 -78q107 0 191 68t84 169q0 80 -55.5 136t-186.5 112l-117 49q-130 55 -200 143t-70 193q0 177 141 297.5t350 120.5q205 0 340.5 -105.5t135.5 -275.5
q0 -8 -4 -29t-5 -32l-211 -4q2 16 2 39q0 115 -82 167q-85 54 -186 54q-113 0 -187.5 -55t-74.5 -142q0 -63 46.5 -110t156.5 -97l119 -51q311 -133 311 -385q0 -94 -39 -177.5t-106 -142.5t-161 -93.5t-200 -34.5zM793 1683l-308 -147l35 162l301 162l256 -162l-33 -162z
" />
    <glyph glyph-name="scircumflex" unicode="&#x15d;" horiz-adv-x="960" 
d="M397 -23q-110 0 -199 33t-150.5 105t-72.5 176l187 45q13 -96 77.5 -143.5t161.5 -47.5q82 0 129.5 36t47.5 89t-40.5 86.5t-142.5 71.5q-147 53 -220 119t-73 180q0 129 105 217q110 90 278 90q167 0 269 -78.5t114 -199.5l-184 -39q-10 75 -64.5 114t-136.5 39
q-80 0 -129 -33t-49 -89q0 -55 41 -84t150 -70q66 -24 114.5 -50t89 -61.5t61.5 -83.5t21 -108q0 -136 -106 -223q-111 -91 -279 -91zM596 1296l-283 -141l33 162l281 156l237 -156l-33 -162z" />
    <glyph glyph-name="Scedilla" unicode="&#x15e;" horiz-adv-x="1230" 
d="M553 -20q-113 0 -206 27.5t-166 84t-113.5 151.5t-40.5 222v35l215 12q-2 -18 -2 -41q1 -149 88 -227t233 -78q107 0 191 68t84 169q0 80 -55.5 136t-186.5 112l-117 49q-130 55 -200 143t-70 193q0 177 141 297.5t350 120.5q205 0 340.5 -105.5t135.5 -275.5
q0 -8 -4 -29t-5 -32l-211 -4q2 16 2 39q0 115 -82 167q-85 54 -186 54q-113 0 -187.5 -55t-74.5 -142q0 -63 46.5 -110t156.5 -97l119 -51q311 -133 311 -385q0 -94 -39 -177.5t-106 -142.5t-161 -93.5t-200 -34.5zM399 -436q-79 0 -159 26l55 113q54 -25 117 -25
q41 0 68.5 21t27.5 53q0 28 -24 43t-64 15q-14 0 -29 -1.5t-30.5 -4t-20.5 -3.5l98 236h129l-61 -125q63 -2 104 -41t41 -104q0 -89 -72.5 -146t-179.5 -57z" />
    <glyph glyph-name="scedilla" unicode="&#x15f;" horiz-adv-x="960" 
d="M397 -23q-110 0 -199 33t-150.5 105t-72.5 176l187 45q13 -96 77.5 -143.5t161.5 -47.5q82 0 129.5 36t47.5 89t-40.5 86.5t-142.5 71.5q-147 53 -220 119t-73 180q0 129 105 217q110 90 278 90q167 0 269 -78.5t114 -199.5l-184 -39q-10 75 -64.5 114t-136.5 39
q-80 0 -129 -33t-49 -89q0 -55 41 -84t150 -70q66 -24 114.5 -50t89 -61.5t61.5 -83.5t21 -108q0 -136 -106 -223q-111 -91 -279 -91zM266 -436q-80 0 -160 26l56 113q54 -25 117 -25q41 0 68.5 21t27.5 53q0 28 -24 43t-64 15q-14 0 -29 -1.5t-30.5 -4t-20.5 -3.5l98 236
h129l-61 -125q63 -2 104 -41t41 -104q0 -89 -72.5 -146t-179.5 -57z" />
    <glyph glyph-name="Scaron" unicode="&#x160;" horiz-adv-x="1230" 
d="M553 -20q-113 0 -206 27.5t-166 84t-113.5 151.5t-40.5 222v35l215 12q-2 -18 -2 -41q1 -149 88 -227t233 -78q107 0 191 68t84 169q0 80 -55.5 136t-186.5 112l-117 49q-130 55 -200 143t-70 193q0 177 141 297.5t350 120.5q205 0 340.5 -105.5t135.5 -275.5
q0 -8 -4 -29t-5 -32l-211 -4q2 16 2 39q0 115 -82 167q-85 54 -186 54q-113 0 -187.5 -55t-74.5 -142q0 -63 46.5 -110t156.5 -97l119 -51q311 -133 311 -385q0 -94 -39 -177.5t-106 -142.5t-161 -93.5t-200 -34.5zM809 1733l307 147l-35 -162l-301 -162l-256 162l33 162z
" />
    <glyph glyph-name="scaron" unicode="&#x161;" horiz-adv-x="960" 
d="M397 -23q-110 0 -199 33t-150.5 105t-72.5 176l187 45q13 -96 77.5 -143.5t161.5 -47.5q82 0 129.5 36t47.5 89t-40.5 86.5t-142.5 71.5q-147 53 -220 119t-73 180q0 129 105 217q110 90 278 90q167 0 269 -78.5t114 -199.5l-184 -39q-10 75 -64.5 114t-136.5 39
q-80 0 -129 -33t-49 -89q0 -55 41 -84t150 -70q66 -24 114.5 -50t89 -61.5t61.5 -83.5t21 -108q0 -136 -106 -223q-111 -91 -279 -91zM614 1337l283 142l-33 -162l-280 -156l-238 156l33 162z" />
    <glyph glyph-name="Tcaron" unicode="&#x164;" horiz-adv-x="1173" 
d="M1280 1434l-41 -195h-432l-262 -1239h-221l264 1239h-430l41 195h1081zM809 1737l307 147l-35 -162l-301 -161l-256 161l33 162z" />
    <glyph glyph-name="tcaron" unicode="&#x165;" horiz-adv-x="753" 
d="M823 1153h-182l147 317h195zM512 215l80 -139q-103 -92 -254 -92q-59 0 -106 18.5t-81.5 57.5t-44 100t6.5 147l108 524h-151l36 177h154l62 290h204l-61 -290h289l-37 -177h-289l-115 -534q-29 -135 80 -135q56 0 119 53z" />
    <glyph glyph-name="Tbar" unicode="&#x166;" horiz-adv-x="1173" 
d="M993 823l-37 -178h-274l-137 -645h-221l137 645h-275l37 178h277l88 416h-430l41 195h1081l-41 -195h-432l-88 -416h274z" />
    <glyph glyph-name="tbar" unicode="&#x167;" horiz-adv-x="782" 
d="M524 215l80 -139q-103 -92 -254 -92q-59 0 -106 18.5t-81.5 57.5t-44 100t6.5 147l39 191h-154l35 164h154l34 169h-151l37 177h153l62 290h205l-62 -290h289l-37 -177h-289l-37 -169h289l-35 -164h-288l-43 -201q-29 -135 80 -135q55 0 118 53z" />
    <glyph glyph-name="Utilde" unicode="&#x168;" horiz-adv-x="1406" 
d="M616 -20q-121 0 -221 37.5t-170.5 113t-94.5 189t7 264.5l180 850h220l-183 -859q-40 -194 43 -294q88 -97 236 -97q158 0 235 95q78 92 113 243l195 912h219l-199 -934q-111 -520 -580 -520zM1004 1587q-42 0 -81.5 20.5t-71 41t-54.5 20.5q-30 0 -51 -21t-29 -53
l-125 23q19 88 76 143.5t131 55.5q32 0 63.5 -13t52 -29t45 -29t44.5 -13q31 0 52 20.5t29 52.5l125 -22q-20 -89 -76 -143t-130 -54z" />
    <glyph glyph-name="utilde" unicode="&#x169;" horiz-adv-x="1179" 
d="M860 0h-209l29 137q-64 -79 -144.5 -119.5t-158.5 -40.5q-121 0 -211 78t-90 230q0 52 16 143l125 580h209l-125 -590q-12 -52 -12 -99q0 -67 44.5 -110t112.5 -43q154 0 283 203l135 639h209zM805 1178q-42 0 -81.5 20.5t-72 41t-57.5 20.5q-30 0 -50 -21t-28 -55
l-125 22q19 93 75.5 147t131.5 54q43 0 81 -21t69.5 -42t58.5 -21q31 0 51.5 21t28.5 55l125 -23q-18 -92 -75 -145t-132 -53z" />
    <glyph glyph-name="Umacron" unicode="&#x16a;" horiz-adv-x="1406" 
d="M616 -20q-121 0 -221 37.5t-170.5 113t-94.5 189t7 264.5l180 850h220l-183 -859q-40 -194 43 -294q88 -97 236 -97q158 0 235 95q78 92 113 243l195 912h219l-199 -934q-111 -520 -580 -520zM1133 1642h-488l31 146h487z" />
    <glyph glyph-name="umacron" unicode="&#x16b;" horiz-adv-x="1179" 
d="M860 0h-209l29 137q-64 -79 -144.5 -119.5t-158.5 -40.5q-121 0 -211 78t-90 230q0 52 16 143l125 580h209l-125 -590q-12 -52 -12 -99q0 -67 44.5 -110t112.5 -43q154 0 283 203l135 639h209zM928 1233h-479l30 143h479z" />
    <glyph glyph-name="Ubreve" unicode="&#x16c;" horiz-adv-x="1406" 
d="M616 -20q-121 0 -221 37.5t-170.5 113t-94.5 189t7 264.5l180 850h220l-183 -859q-40 -194 43 -294q88 -97 236 -97q158 0 235 95q78 92 113 243l195 912h219l-199 -934q-111 -520 -580 -520zM897 1575q-127 0 -198.5 74.5t-71.5 193.5h149q2 -56 36 -91.5t103 -35.5
q139 0 166 127h154q-26 -126 -117 -197t-221 -71z" />
    <glyph glyph-name="ubreve" unicode="&#x16d;" horiz-adv-x="1179" 
d="M860 0h-209l29 137q-64 -79 -144.5 -119.5t-158.5 -40.5q-121 0 -211 78t-90 230q0 52 16 143l125 580h209l-125 -590q-12 -52 -12 -99q0 -67 44.5 -110t112.5 -43q154 0 283 203l135 639h209zM696 1169q-111 0 -172 71t-61 194h147q0 -55 25.5 -90t77.5 -35
q54 0 90.5 34.5t44.5 90.5h151q-26 -122 -109.5 -193.5t-193.5 -71.5z" />
    <glyph glyph-name="Uring" unicode="&#x16e;" horiz-adv-x="1406" 
d="M616 -20q-121 0 -221 37.5t-170.5 113t-94.5 189t7 264.5l180 850h220l-183 -859q-40 -194 43 -294q88 -97 236 -97q158 0 235 95q78 92 113 243l195 912h219l-199 -934q-111 -520 -580 -520zM883 1542q-75 0 -128 50.5t-53 125.5t53 126.5t128 51.5t127.5 -51.5
t52.5 -126.5t-52.5 -125.5t-127.5 -50.5zM883 1640q32 0 55 23t23 55t-23 56t-55 24q-33 0 -55.5 -22.5t-22.5 -57.5q0 -32 23 -55t55 -23z" />
    <glyph glyph-name="uring" unicode="&#x16f;" horiz-adv-x="1179" 
d="M860 0h-209l29 137q-64 -79 -144.5 -119.5t-158.5 -40.5q-121 0 -211 78t-90 230q0 52 16 143l125 580h209l-125 -590q-12 -52 -12 -99q0 -67 44.5 -110t112.5 -43q154 0 283 203l135 639h209zM684 1133q-75 0 -127.5 50.5t-52.5 125.5t52.5 126.5t127.5 51.5
t127.5 -51.5t52.5 -126.5t-52.5 -125.5t-127.5 -50.5zM684 1231q32 0 55 23t23 55t-23 56t-55 24q-33 0 -55.5 -22.5t-22.5 -57.5q0 -32 23 -55t55 -23z" />
    <glyph glyph-name="Uhungarumlaut" unicode="&#x170;" horiz-adv-x="1406" 
d="M616 -20q-121 0 -221 37.5t-170.5 113t-94.5 189t7 264.5l180 850h220l-183 -859q-40 -194 43 -294q88 -97 236 -97q158 0 235 95q78 92 113 243l195 912h219l-199 -934q-111 -520 -580 -520zM1073 1567h-164l236 293h205zM772 1567h-154l197 293h193z" />
    <glyph glyph-name="uhungarumlaut" unicode="&#x171;" horiz-adv-x="1179" 
d="M860 0h-209l29 137q-64 -79 -144.5 -119.5t-158.5 -40.5q-121 0 -211 78t-90 230q0 52 16 143l125 580h209l-125 -590q-12 -52 -12 -99q0 -67 44.5 -110t112.5 -43q154 0 283 203l135 639h209zM874 1157h-163l235 293h205zM573 1157h-153l196 293h193z" />
    <glyph glyph-name="Uogonek" unicode="&#x172;" horiz-adv-x="1406" 
d="M727 -414q-79 0 -133.5 40.5t-54.5 115.5q0 118 127 238h-33q-121 0 -221 37.5t-170.5 113t-94.5 189t7 264.5l180 850h219l-182 -859q-40 -194 43 -294q88 -97 235 -97q159 0 236 95q76 91 112 243l195 912h219l-199 -934q-68 -322 -274 -445q-229 -151 -229 -270
q0 -55 59 -55q43 0 90 41l68 -107q-91 -78 -199 -78z" />
    <glyph glyph-name="uogonek" unicode="&#x173;" horiz-adv-x="1179" 
d="M860 0h-209l29 137q-64 -79 -144.5 -119.5t-158.5 -40.5q-121 0 -211 78t-90 230q0 52 16 143l125 580h209l-125 -590q-12 -52 -12 -99q0 -67 44.5 -110t112.5 -43q154 0 283 203l135 639h209zM639 -414q-79 0 -133.5 40.5t-54.5 115.5q0 168 303 319l106 -61
q-97 -41 -168 -100t-71 -115q0 -55 59 -55q46 0 90 41l68 -107q-91 -78 -199 -78z" />
    <glyph glyph-name="Wcircumflex" unicode="&#x174;" horiz-adv-x="1757" 
d="M1221 0h-232l-106 791l-445 -791h-227l-21 1434h216l8 -1123l471 844h143l109 -854l489 1133h223zM1067 1686l-307 -148l35 162l301 162l256 -162l-33 -162z" />
    <glyph glyph-name="wcircumflex" unicode="&#x175;" horiz-adv-x="1382" 
d="M913 0h-168l-104 514l-322 -514h-167l-48 1008h195l23 -709l278 463h166l96 -467l334 713h205zM815 1300l-283 -141l33 162l281 156l237 -156l-32 -162z" />
    <glyph glyph-name="Ycircumflex" unicode="&#x176;" horiz-adv-x="1169" 
d="M692 719l-149 -719h-221l153 725l-309 709h237l215 -512l429 512h262zM770 1686l-307 -148l35 162l301 162l256 -162l-33 -162z" />
    <glyph glyph-name="ycircumflex" unicode="&#x177;" horiz-adv-x="952" 
d="M999 1008l-880 -1397h-223l362 577l-180 820h205l125 -605l364 605h227zM596 1300l-283 -141l33 162l281 156l237 -156l-33 -162z" />
    <glyph glyph-name="Ydieresis" unicode="&#x178;" horiz-adv-x="1169" 
d="M692 719l-149 -719h-221l153 725l-309 709h237l215 -512l429 512h262zM961 1606q-50 0 -83.5 33.5t-33.5 82.5q0 50 34 83.5t83 33.5t82.5 -33.5t33.5 -83.5t-33.5 -83t-82.5 -33zM559 1606q-50 0 -84.5 33.5t-34.5 82.5t34.5 83t84.5 34q49 0 83 -33.5t34 -83.5
q0 -49 -33.5 -82.5t-83.5 -33.5z" />
    <glyph glyph-name="Zacute" unicode="&#x179;" horiz-adv-x="1161" 
d="M989 195l-43 -195h-1046l28 141l973 1098h-698l43 195h999l-28 -142l-973 -1097h745zM807 1567h-178l-4 4l200 289h244v-5z" />
    <glyph glyph-name="zacute" unicode="&#x17a;" horiz-adv-x="929" 
d="M737 176l-37 -176h-776l25 115l639 716h-475l37 177h757l-24 -115l-637 -717h491zM606 1157h-178l-4 4l201 289h243v-4z" />
    <glyph glyph-name="Zdotaccent" unicode="&#x17b;" horiz-adv-x="1161" 
d="M989 195l-43 -195h-1046l28 141l973 1098h-698l43 195h999l-28 -142l-973 -1097h745zM748 1610q-54 0 -90.5 36t-36.5 91t36.5 92t90.5 37q56 0 92.5 -37t36.5 -92t-37 -91t-92 -36z" />
    <glyph glyph-name="zdotaccent" unicode="&#x17c;" horiz-adv-x="929" 
d="M737 176l-37 -176h-776l25 115l639 716h-475l37 177h757l-24 -115l-637 -717h491zM547 1200q-54 0 -90.5 36t-36.5 91t36.5 92t90.5 37q55 0 92 -37t37 -92t-37 -91t-92 -36z" />
    <glyph glyph-name="Zcaron" unicode="&#x17d;" horiz-adv-x="1161" 
d="M989 195l-43 -195h-1046l28 141l973 1098h-698l43 195h999l-28 -142l-973 -1097h745zM766 1737l307 147l-35 -162l-301 -161l-256 161l33 162z" />
    <glyph glyph-name="zcaron" unicode="&#x17e;" horiz-adv-x="929" 
d="M737 176l-37 -176h-776l25 115l639 716h-475l37 177h757l-24 -115l-637 -717h491zM578 1341l282 142l-33 -162l-280 -156l-238 156l33 162z" />
    <glyph glyph-name="florin" unicode="&#x192;" horiz-adv-x="942" 
d="M-154 -410q-86 0 -149 31t-88 76l166 127q30 -55 98 -55q45 0 75.5 30.5t59.5 104.5l359 927h-179l37 177h209l70 182q56 150 145.5 219.5t214.5 69.5q85 0 146.5 -31.5t89.5 -75.5l-166 -127q-30 55 -98 55q-44 0 -75.5 -30.5t-60.5 -104.5l-61 -157h207l-37 -177h-238
l-366 -954q-56 -150 -144 -218.5t-215 -68.5z" />
    <glyph glyph-name="Icaron" unicode="&#x1cf;" horiz-adv-x="583" 
d="M250 0h-219l305 1434h219zM514 1737l307 147l-35 -162l-301 -161l-256 161l33 162z" />
    <glyph glyph-name="icaron" unicode="&#x1d0;" horiz-adv-x="546" 
d="M227 0h-209l213 1008h209zM420 1341l282 142l-32 -162l-281 -156l-237 156l32 162z" />
    <glyph glyph-name="Aringacute" unicode="&#x1fa;" 
d="M791 1214h-5l-284 -530h358zM1163 0h-223l-63 492h-474l-266 -492h-241l804 1434h261zM874 1542q-75 0 -127.5 50.5t-52.5 125.5t52.5 126.5t127.5 51.5t128 -51.5t53 -126.5t-53 -125.5t-128 -50.5zM874 1640q32 0 55 23t23 55t-23 56t-55 24q-33 0 -55 -22.5t-22 -57.5
q0 -32 22.5 -55t54.5 -23zM987 1982h-178l-4 5l201 288h243v-4z" />
    <glyph glyph-name="aringacute" unicode="&#x1fb;" horiz-adv-x="1198" 
d="M473 170q93 0 174 63q87 66 117 213l24 117q1 8 5 32.5t4 37.5q0 96 -61.5 153.5t-155.5 57.5q-80 0 -145.5 -41.5t-104.5 -105.5t-59.5 -136t-20.5 -139q0 -117 61 -184.5t162 -67.5zM428 -20q-167 0 -281 114q-110 116 -110 305q0 91 23 182t70 172t111 143.5t152.5 99
t188.5 36.5q94 0 172 -39t116 -106l25 121h197l-213 -1008h-197l23 113q-50 -60 -121.5 -96.5t-155.5 -36.5zM698 1133q-75 0 -127.5 50.5t-52.5 125.5t52.5 126.5t127.5 51.5t128 -51.5t53 -126.5t-53 -125.5t-128 -50.5zM698 1231q32 0 55 23t23 55t-23 56t-55 24
q-33 0 -55 -22.5t-22 -57.5q0 -32 22.5 -55t54.5 -23zM811 1573h-178l-4 4l200 289h244v-4z" />
    <glyph glyph-name="AEacute" unicode="&#x1fc;" horiz-adv-x="1898" 
d="M991 1239h-26l-367 -539h305zM1647 0h-859l84 512h-403l-348 -512h-252l1001 1434h1074l-43 -195h-695l-55 -334h631l-41 -194h-621l-84 -516h652zM1509 1563h-178l-4 4l201 288h244v-4z" />
    <glyph glyph-name="aeacute" unicode="&#x1fd;" horiz-adv-x="1740" 
d="M1202 862q-108 0 -185.5 -63.5t-113.5 -175.5h516q2 14 2 36q0 91 -64 147t-155 56zM362 156q51 0 100.5 20t123.5 66l90 55q-17 66 -17 125q0 47 9 100l-213 -55q-149 -41 -193 -82q-45 -39 -45 -98q0 -58 43.5 -94.5t101.5 -36.5zM1401 313l139 -112
q-70 -105 -182.5 -162t-259.5 -57q-109 0 -203 46t-154 128l-90 -58q-95 -60 -170 -87t-168 -27q-121 0 -213 80t-92 200q0 125 84 209q82 82 314 141l307 78q7 76 -44.5 120t-136.5 44q-162 0 -245 -143l-174 75q68 122 183 184t265 62q101 0 181 -35t124 -100
q148 135 346 135q190 0 304 -114q112 -112 112 -289q0 -66 -24 -164h-732q-4 -32 -4 -41q0 -126 69 -199t177 -73q82 0 157.5 42t129.5 117zM997 1157h-178l-4 4l201 289h244v-4z" />
    <glyph glyph-name="Oslashacute" unicode="&#x1fe;" horiz-adv-x="1550" 
d="M326 618q0 -131 55 -235l684 793q-92 73 -223 73q-106 0 -203.5 -55t-165 -143.5t-107.5 -202.5t-40 -230zM709 184q107 0 204.5 55.5t165.5 144.5t108 203t40 230q0 123 -58 236l-682 -795q93 -74 222 -74zM692 -20q-199 0 -348 112l-168 -194h-211l264 307
q-131 169 -131 403q0 157 56.5 308.5t154.5 271t242.5 193t308.5 73.5q188 0 348 -111l166 193h213l-264 -305q133 -168 133 -404q0 -125 -36 -249t-104.5 -231t-160 -189.5t-212 -130t-251.5 -47.5zM948 1567h-178l-4 4l201 289h243v-5z" />
    <glyph glyph-name="oslashacute" unicode="&#x1ff;" horiz-adv-x="1153" 
d="M252 434q0 -69 27 -135l421 512q-53 35 -127 35q-134 0 -227.5 -124t-93.5 -288zM489 166q90 0 165.5 59t117 154t41.5 201q0 72 -27 131l-421 -510q53 -35 124 -35zM479 -20q-135 0 -241 67l-123 -149h-166l190 233q-100 125 -100 295q0 87 24.5 174.5t73 165t113.5 138
t152 95.5t184 35q137 0 243 -67l117 143h170l-188 -229q98 -123 98 -289q0 -114 -39.5 -223.5t-109 -196t-174 -139.5t-224.5 -53zM676 1157h-178l-4 4l200 289h244v-4z" />
    <glyph glyph-name="Scommaaccent" unicode="&#x218;" horiz-adv-x="1230" 
d="M553 -20q-113 0 -206 27.5t-166 84t-113.5 151.5t-40.5 222v35l215 12q-2 -18 -2 -41q1 -149 88 -227t233 -78q107 0 191 68t84 169q0 80 -55.5 136t-186.5 112l-117 49q-130 55 -200 143t-70 193q0 177 141 297.5t350 120.5q205 0 340.5 -105.5t135.5 -275.5
q0 -8 -4 -29t-5 -32l-211 -4q2 16 2 39q0 115 -82 167q-85 54 -186 54q-113 0 -187.5 -55t-74.5 -142q0 -63 46.5 -110t156.5 -97l119 -51q311 -133 311 -385q0 -94 -39 -177.5t-106 -142.5t-161 -93.5t-200 -34.5zM446 -487h-129l70 151q-27 9 -48.5 36.5t-21.5 68.5
q0 49 37.5 84.5t85.5 35.5q49 0 82 -33.5t33 -78.5q0 -53 -47 -139z" />
    <glyph glyph-name="scommaaccent" unicode="&#x219;" horiz-adv-x="960" 
d="M397 -23q-110 0 -199 33t-150.5 105t-72.5 176l187 45q13 -96 77.5 -143.5t161.5 -47.5q82 0 129.5 36t47.5 89t-40.5 86.5t-142.5 71.5q-147 53 -220 119t-73 180q0 129 105 217q110 90 278 90q167 0 269 -78.5t114 -199.5l-184 -39q-10 75 -64.5 114t-136.5 39
q-80 0 -129 -33t-49 -89q0 -55 41 -84t150 -70q66 -24 114.5 -50t89 -61.5t61.5 -83.5t21 -108q0 -136 -106 -223q-111 -91 -279 -91zM313 -487h-129l70 151q-27 9 -48.5 36.5t-21.5 68.5q0 49 37.5 84.5t85.5 35.5q49 0 82 -33.5t33 -78.5q0 -53 -47 -139z" />
    <glyph glyph-name="Tcommaaccent" unicode="&#x21a;" horiz-adv-x="1173" 
d="M1280 1434l-41 -195h-432l-262 -1239h-221l264 1239h-430l41 195h1081zM399 -487h-129l70 151q-27 9 -48.5 36.5t-21.5 68.5q0 49 37.5 84.5t85.5 35.5q49 0 82 -33.5t33 -78.5q0 -53 -47 -139z" />
    <glyph glyph-name="tcommaaccent" unicode="&#x21b;" horiz-adv-x="753" 
d="M512 215l80 -139q-103 -92 -254 -92q-59 0 -106 18.5t-81.5 57.5t-44 100t6.5 147l108 524h-151l36 177h154l62 290h204l-61 -290h289l-37 -177h-289l-115 -534q-29 -135 80 -135q56 0 119 53zM274 -487h-129l70 151q-27 9 -48.5 36.5t-21.5 68.5q0 49 37.5 84.5
t85.5 35.5q49 0 82 -33.5t33 -78.5q0 -53 -47 -139z" />
    <glyph glyph-name="dotlessj" unicode="&#x237;" horiz-adv-x="546" 
d="M231 1008h209l-235 -1112q-31 -156 -124 -231t-233 -75q-26 0 -61 7l37 178h24q121 0 152 141z" />
    <glyph glyph-name="circumflex" unicode="&#x2c6;" horiz-adv-x="802" 
d="M518 1278l-307 -148l35 162l301 162l256 -162l-33 -162z" />
    <glyph glyph-name="caron" unicode="&#x2c7;" horiz-adv-x="802" 
d="M535 1327l307 148l-35 -162l-301 -162l-256 162l33 162z" />
    <glyph glyph-name="breve" unicode="&#x2d8;" horiz-adv-x="768" 
d="M504 1165q-127 0 -199 75t-72 194h150q2 -56 36 -91.5t103 -35.5q139 0 166 127h154q-26 -126 -117 -197.5t-221 -71.5z" />
    <glyph glyph-name="dotaccent" unicode="&#x2d9;" horiz-adv-x="440" 
d="M350 1200q-54 0 -90.5 36t-36.5 91t36.5 92t90.5 37q56 0 92.5 -37t36.5 -92t-37 -91t-92 -36z" />
    <glyph glyph-name="ring" unicode="&#x2da;" horiz-adv-x="563" 
d="M408 1133q-75 0 -128 50.5t-53 125.5t53 126.5t128 51.5t127.5 -51.5t52.5 -126.5t-52.5 -125.5t-127.5 -50.5zM408 1231q32 0 54.5 23t22.5 55q0 33 -22.5 56.5t-54.5 23.5q-33 0 -55.5 -22.5t-22.5 -57.5q0 -32 23 -55t55 -23z" />
    <glyph glyph-name="ogonek" unicode="&#x2db;" horiz-adv-x="573" 
d="M82 -414q-79 0 -133.5 40.5t-54.5 115.5q0 168 303 319l106 -61q-97 -41 -168.5 -100t-71.5 -115q0 -55 60 -55q46 0 90 41l68 -107q-91 -78 -199 -78z" />
    <glyph glyph-name="tilde" unicode="&#x2dc;" horiz-adv-x="774" 
d="M612 1178q-42 0 -81.5 20.5t-70.5 41t-54 20.5q-30 0 -51 -21t-29 -53l-125 22q19 88 76 143.5t131 55.5q41 0 79 -21t69.5 -42t55.5 -21q31 0 52.5 21t29.5 53l125 -23q-20 -89 -76.5 -142.5t-130.5 -53.5z" />
    <glyph glyph-name="hungarumlaut" unicode="&#x2dd;" horiz-adv-x="794" 
d="M639 1157h-164l236 293h204zM338 1157h-154l197 293h192z" />
    <glyph glyph-name="Wgrave" unicode="&#x1e80;" horiz-adv-x="1757" 
d="M1221 0h-232l-106 791l-445 -791h-227l-21 1434h216l8 -1123l471 844h143l109 -854l489 1133h223zM1135 1565h-152l-141 288v5h213l80 -289v-4z" />
    <glyph glyph-name="wgrave" unicode="&#x1e81;" horiz-adv-x="1382" 
d="M913 0h-168l-104 514l-322 -514h-167l-48 1008h195l23 -709l278 463h166l96 -467l334 713h205zM872 1157h-151l-141 289v4h213l79 -289v-4z" />
    <glyph glyph-name="Wacute" unicode="&#x1e82;" horiz-adv-x="1757" 
d="M1221 0h-232l-106 791l-445 -791h-227l-21 1434h216l8 -1123l471 844h143l109 -854l489 1133h223zM1124 1565h-178l-4 4l201 289h243v-5z" />
    <glyph glyph-name="wacute" unicode="&#x1e83;" horiz-adv-x="1382" 
d="M913 0h-168l-104 514l-322 -514h-167l-48 1008h195l23 -709l278 463h166l96 -467l334 713h205zM862 1157h-178l-4 4l201 289h243v-4z" />
    <glyph glyph-name="Wdieresis" unicode="&#x1e84;" horiz-adv-x="1757" 
d="M1221 0h-232l-106 791l-445 -791h-227l-21 1434h216l8 -1123l471 844h143l109 -854l489 1133h223zM1257 1606q-49 0 -82.5 33t-33.5 83t33.5 83.5t82.5 33.5t83 -33.5t34 -83.5q0 -49 -33.5 -82.5t-83.5 -33.5zM856 1606q-50 0 -84.5 33.5t-34.5 82.5t34.5 83t84.5 34
t83.5 -33.5t33.5 -83.5q0 -49 -33.5 -82.5t-83.5 -33.5z" />
    <glyph glyph-name="wdieresis" unicode="&#x1e85;" horiz-adv-x="1382" 
d="M913 0h-168l-104 514l-322 -514h-167l-48 1008h195l23 -709l278 463h166l96 -467l334 713h205zM1006 1198q-50 0 -83.5 34t-33.5 83t33.5 83t83.5 34q49 0 82.5 -33.5t33.5 -83.5t-33.5 -83.5t-82.5 -33.5zM604 1198q-50 0 -83.5 34t-33.5 83t33.5 83t83.5 34t83.5 -34
t33.5 -83t-33.5 -83t-83.5 -34z" />
    <glyph glyph-name="Ygrave" unicode="&#x1ef2;" horiz-adv-x="1169" 
d="M692 719l-149 -719h-221l153 725l-309 709h237l215 -512l429 512h262zM838 1565h-152l-141 288v5h213l80 -289v-4z" />
    <glyph glyph-name="ygrave" unicode="&#x1ef3;" horiz-adv-x="952" 
d="M999 1008l-880 -1397h-223l362 577l-180 820h205l125 -605l364 605h227zM653 1157h-151l-142 289v4h213l80 -289v-4z" />
    <glyph glyph-name="endash" unicode="&#x2013;" horiz-adv-x="1142" 
d="M1016 553h-957l35 170h957z" />
    <glyph glyph-name="emdash" unicode="&#x2014;" horiz-adv-x="1622" 
d="M1497 553h-1438l35 170h1438z" />
    <glyph glyph-name="quoteleft" unicode="&#x2018;" horiz-adv-x="450" 
d="M328 1434h196l-174 -406h-209z" />
    <glyph glyph-name="quoteright" unicode="&#x2019;" horiz-adv-x="450" 
d="M342 1028h-197l174 406h209z" />
    <glyph glyph-name="quotesinglbase" unicode="&#x201a;" horiz-adv-x="450" 
d="M88 -166h-197l175 406h208z" />
    <glyph glyph-name="quotedblleft" unicode="&#x201c;" horiz-adv-x="788" 
d="M680 1434h182l-174 -406h-194zM328 1434h182l-172 -406h-197z" />
    <glyph glyph-name="quotedblright" unicode="&#x201d;" horiz-adv-x="788" 
d="M328 1028h-183l174 406h195zM680 1028h-182l172 406h196z" />
    <glyph glyph-name="quotedblbase" unicode="&#x201e;" horiz-adv-x="786" 
d="M74 -166h-183l175 406h194zM426 -166h-182l172 406h196z" />
    <glyph glyph-name="dagger" unicode="&#x2020;" horiz-adv-x="968" 
d="M979 1075l-39 -176h-315l-191 -899h-203l191 899h-316l39 176h316l76 359h202l-75 -359h315z" />
    <glyph glyph-name="daggerdbl" unicode="&#x2021;" horiz-adv-x="968" 
d="M868 559l-39 -180h-315l-80 -379h-203l80 379h-315l39 180h315l76 350h-317l38 181h316l74 344h202l-73 -344h315l-39 -181h-313l-76 -350h315z" />
    <glyph glyph-name="bullet" unicode="&#x2022;" horiz-adv-x="778" 
d="M373 403q-98 0 -166 68t-68 168q0 96 68 164q66 69 166 69t166 -69q69 -66 69 -164q0 -99 -68 -167.5t-167 -68.5z" />
    <glyph glyph-name="ellipsis" unicode="&#x2026;" horiz-adv-x="1607" 
d="M150 -23q-60 0 -101 42t-41 102q0 58 41.5 99.5t100.5 41.5q57 0 99 -42t42 -99q0 -60 -42 -102t-99 -42zM678 -23q-60 0 -100.5 42t-40.5 102q0 58 41 99.5t100 41.5q57 0 99 -42t42 -99q0 -60 -42 -102t-99 -42zM1206 -23q-60 0 -100.5 42t-40.5 102q0 58 41 99.5
t100 41.5q57 0 99.5 -42t42.5 -99q0 -59 -42 -101.5t-100 -42.5z" />
    <glyph glyph-name="perthousand" unicode="&#x2030;" horiz-adv-x="2988" 
d="M514 629q-134 0 -229 92q-95 95 -95 248q0 125 55.5 237t151 181t205.5 69q134 0 229 -92q95 -89 95 -246q0 -126 -54.5 -238.5t-150 -181.5t-207.5 -69zM524 797q86 0 150.5 97t64.5 214q0 85 -41 132.5t-106 47.5q-86 0 -150.5 -95.5t-64.5 -213.5q0 -85 41 -133.5
t106 -48.5zM498 -29l-129 119l1265 1374l129 -118zM1534 -20q-134 0 -229 92q-95 95 -95 247q0 125 55.5 237.5t151 181.5t205.5 69q134 0 229 -92q95 -89 95 -246q0 -126 -54.5 -238.5t-150 -181.5t-207.5 -69zM1544 147q86 0 150.5 97.5t64.5 214.5q0 85 -41 132.5
t-106 47.5q-86 0 -150.5 -95.5t-64.5 -213.5q0 -86 41 -134.5t106 -48.5zM2388 -20q-134 0 -229 92q-95 95 -95 247q0 125 55.5 237.5t151 181.5t205.5 69q134 0 229 -92q95 -89 95 -246q0 -126 -54.5 -238.5t-150 -181.5t-207.5 -69zM2398 147q86 0 150.5 97.5t64.5 214.5
q0 85 -41 132.5t-106 47.5q-86 0 -150.5 -95.5t-64.5 -213.5q0 -86 41 -134.5t106 -48.5z" />
    <glyph glyph-name="guilsinglleft" unicode="&#x2039;" horiz-adv-x="704" 
d="M469 158l-154 -97l-284 451l479 453l111 -127l-363 -342z" />
    <glyph glyph-name="guilsinglright" unicode="&#x203a;" horiz-adv-x="704" 
d="M152 868l153 97l285 -451l-479 -453l-111 127l362 342z" />
    <glyph glyph-name="fraction" unicode="&#x2044;" horiz-adv-x="524" 
d="M-305 -29l-129 119l1265 1374l130 -118z" />
    <glyph glyph-name="twoinferior" unicode="&#x2082;" horiz-adv-x="720" 
d="M528 141l-30 -141h-594l24 115l400 315q70 56 96.5 91t26.5 73t-28 65t-77 27q-56 0 -94 -32t-49 -87h-166q20 118 108.5 191t216.5 73q126 0 195 -69q72 -72 72 -152q0 -73 -40.5 -134t-139.5 -136l-263 -199h342z" />
    <glyph glyph-name="fourinferior" unicode="&#x2084;" horiz-adv-x="761" 
d="M647 332l-29 -137h-135l-43 -195h-161l43 195h-398l25 114l387 508h188l-374 -485h202l35 155h158l-33 -155h135z" />
    <glyph glyph-name="Euro" unicode="&#x20ac;" horiz-adv-x="1501" 
d="M1182 291l118 -156q-181 -155 -426 -155q-210 0 -360.5 132.5t-187.5 348.5h-246l35 157h204q3 73 19 152h-193l35 158h205q86 210 258 339.5t391 129.5q137 0 251.5 -52.5t187.5 -150.5l-166 -131q-47 62 -121 100.5t-172 38.5q-125 0 -228.5 -74.5t-167.5 -199.5h443
l-33 -158h-469q-20 -97 -22 -152h458l-32 -157h-416q31 -131 124 -211t222 -80q154 0 289 121z" />
    <glyph glyph-name="trademark" unicode="&#x2122;" horiz-adv-x="1744" 
d="M866 1434l-32 -150h-228l-133 -629h-162l135 629h-227l33 150h614zM1010 655h-154l166 779h172l117 -248l227 248h184l-166 -779h-155l119 566l-207 -226h-68l-115 226z" />
    <glyph glyph-name="estimated" unicode="&#x212e;" horiz-adv-x="1660" 
d="M821 -20q-205 0 -369.5 79.5t-261 232t-96.5 351.5q0 127 39 236.5t107 187.5t159.5 134t197.5 83t220 27q331 0 526 -186.5t207 -499.5h-1159q-10 0 -15 -1.5t-9.5 -9t-4.5 -22.5v-338q0 -29 34 -66t91.5 -72t147 -59t186.5 -24q139 0 263 58t200 151h133
q-126 -137 -272.5 -199.5t-323.5 -62.5zM817 1257q-112 0 -218 -30t-171.5 -78t-65.5 -98v-340q0 -19 7 -26t24 -7h852q22 0 28.5 7t6.5 26v340q0 51 -72 99.5t-179.5 77.5t-211.5 29z" />
    <glyph glyph-name="minus" unicode="&#x2212;" horiz-adv-x="1193" 
d="M1067 614h-981l39 181h981z" />
    <glyph glyph-name="approxequal" unicode="&#x2248;" horiz-adv-x="1130" 
d="M692 297q-48 0 -92 18.5t-77.5 45t-64 53t-64 45t-64.5 18.5q-50 0 -91.5 -40.5t-64.5 -114.5l-156 30q31 130 116 214.5t204 84.5q48 0 92 -18.5t77.5 -44.5t64 -52t63 -44.5t63.5 -18.5q51 0 93 41t65 115l156 -31q-31 -130 -116.5 -215.5t-203.5 -85.5zM786 741
q-48 0 -92 18.5t-77.5 45.5t-64 53.5t-64 45t-64.5 18.5q-50 0 -91.5 -41t-64.5 -115l-155 31q31 130 115.5 214.5t203.5 84.5q48 0 92 -18.5t77.5 -44.5t64.5 -52t63.5 -44.5t63.5 -18.5q51 0 92.5 40.5t64.5 114.5l156 -31q-31 -130 -116.5 -215.5t-203.5 -85.5z" />
    <glyph glyph-name="notequal" unicode="&#x2260;" horiz-adv-x="1191" 
d="M1026 569l-37 -176h-506l-176 -262h-196l176 262h-217l36 176h300l180 267h-424l37 176h506l176 262h196l-176 -262h217l-37 -176h-299l-180 -267h424z" />
    <glyph glyph-name="commaaccent" unicode="&#xf6c3;" horiz-adv-x="403" 
d="M10 -487h-129l70 151q-27 9 -48.5 36.5t-21.5 68.5q0 49 37.5 84.5t85.5 35.5q49 0 82 -33.5t33 -78.5q0 -53 -47 -139z" />
    <glyph glyph-name="thinspace" horiz-adv-x="59" 
 />
    <glyph glyph-name="registered.alt" horiz-adv-x="1718" 
d="M862 -25q-202 0 -373.5 99.5t-271.5 271t-100 373.5q0 101 27 197t75 177.5t117 149.5t150.5 116t178 74.5t197.5 26.5q202 0 373 -99t271 -269.5t100 -372.5q0 -203 -100 -374t-271 -270.5t-373 -99.5zM862 123q122 0 231.5 47t188 127t124.5 190t46 232
q0 162 -78 298.5t-214 216t-298 79.5q-161 0 -297 -79.5t-214.5 -216t-78.5 -298.5t78.5 -299.5t214.5 -217t297 -79.5zM868 981h-127v-201h133q51 0 82 28t31 73q0 49 -32 74.5t-87 25.5zM1184 332h-183l-176 321h-84v-321h-157v778h307q114 0 186 -60.5t72 -166.5
q0 -77 -42 -132t-114 -81z" />
    <glyph glyph-name="i.TRK" horiz-adv-x="546" 
d="M403 1194q-55 0 -93 38t-38 93q0 57 37.5 94t93.5 37t94 -37t38 -94q0 -55 -38 -93t-94 -38zM227 0h-209l213 1008h209z" />
    <glyph glyph-name="dieresis.i" horiz-adv-x="759" 
d="M666 1217q-43 0 -73 30t-30 74q0 43 30 72.5t73 29.5q44 0 74 -29.5t30 -72.5q0 -44 -30 -74t-74 -30zM352 1217q-44 0 -74 30t-30 74q0 43 30 72.5t74 29.5q43 0 73 -29.5t30 -72.5q0 -44 -30 -74t-73 -30z" />
    <glyph glyph-name="commaaccentup" horiz-adv-x="403" 
d="M311 1526h129l-69 -152q27 -9 48 -36t21 -68q0 -49 -37.5 -85t-85.5 -36t-81 34t-33 79q0 53 47 139z" />
    <glyph glyph-name="circumflex.lc" horiz-adv-x="708" 
d="M473 1300l-283 -141l33 162l281 156l237 -156l-32 -162z" />
    <glyph glyph-name="caron.lc" horiz-adv-x="708" 
d="M492 1341l282 142l-33 -162l-280 -156l-238 156l33 162z" />
    <glyph glyph-name="breve.lc" horiz-adv-x="753" 
d="M496 1169q-111 0 -172.5 71t-61.5 194h148q0 -55 25 -90t77 -35q54 0 90.5 34.5t44.5 90.5h152q-26 -122 -109.5 -193.5t-193.5 -71.5z" />
    <glyph glyph-name="breve.i" horiz-adv-x="731" 
d="M485 1171q-108 0 -167.5 71.5t-59.5 191.5h148q0 -125 96 -125q50 0 84.5 34.5t42.5 90.5h149q-26 -122 -106 -192.5t-187 -70.5z" />
    <glyph glyph-name="dieresis.lc" horiz-adv-x="878" 
d="M768 1198q-50 0 -83.5 34t-33.5 83t33.5 83t83.5 34t83.5 -34t33.5 -83t-33.5 -83t-83.5 -34zM367 1198q-49 0 -83 34t-34 83t34 83t83 34t82.5 -33.5t33.5 -83.5t-33.5 -83.5t-82.5 -33.5z" />
    <glyph glyph-name="tilde.lc" horiz-adv-x="776" 
d="M614 1178q-42 0 -81.5 20.5t-72 41t-57.5 20.5q-29 0 -49 -21t-28 -55l-125 22q19 93 75.5 147t131.5 54q43 0 81 -21t69 -42t58 -21q31 0 51.5 21t28.5 55l125 -23q-18 -92 -75 -145t-132 -53z" />
    <glyph glyph-name="macron.lc" horiz-adv-x="694" 
d="M696 1233h-479l31 143h479z" />
    <glyph glyph-name="zero.onum" horiz-adv-x="1261" 
d="M539 -20q-203 0 -328 126t-125 365q0 152 43 301.5t119.5 271.5t193.5 197.5t252 75.5q201 0 327 -126.5t126 -363.5q0 -153 -43 -303t-119 -271.5t-193 -197t-253 -75.5zM551 166q83 0 156 63t120.5 160.5t75 212t27.5 221.5q0 147 -65 227t-183 80q-82 0 -155 -62.5
t-121 -159.5t-75.5 -211t-27.5 -220q0 -148 65 -229.5t183 -81.5z" />
    <glyph glyph-name="one.onum" horiz-adv-x="778" 
d="M723 1294l-274 -1294h-211l221 1044l-346 -159l24 205l443 204h143z" />
    <glyph glyph-name="two.onum" horiz-adv-x="1067" 
d="M840 180l-39 -180h-877l31 143l612 508q123 102 170 164q49 61 49 137q0 74 -52 123t-138 49q-102 0 -170 -54.5t-88 -151.5h-205q34 172 164 284q133 115 319 115q90 0 165.5 -29.5t125 -78t76.5 -110t27 -126.5q0 -117 -66 -218t-229 -229l-432 -346h557z" />
    <glyph glyph-name="three.onum" horiz-adv-x="1103" 
d="M434 -18q-199 0 -319.5 103t-120.5 280h207q5 -89 69.5 -145t182.5 -56q114 0 186 72t72 161q0 86 -63.5 139.5t-174.5 53.5h-145l39 174h170q132 0 203 58.5t71 142.5q0 75 -56.5 123.5t-144.5 48.5q-98 0 -163.5 -47.5t-86.5 -128.5h-204q27 151 153 253
q127 103 322 103q182 0 289 -96q106 -93 106 -238q0 -123 -76 -205q-72 -81 -168 -116q68 -36 108 -103.5t40 -155.5q0 -83 -36 -159t-100 -134t-158 -93t-202 -35z" />
    <glyph glyph-name="four.onum" horiz-adv-x="1099" 
d="M991 479l-37 -176h-182l-63 -303h-205l63 303h-600l27 131l629 860h235l-600 -815h348l53 254h205l-53 -254h180z" />
    <glyph glyph-name="five.onum" horiz-adv-x="1093" 
d="M432 -20q-104 0 -193.5 33t-156 107t-82.5 179l197 53q18 -87 83.5 -139.5t163.5 -52.5q126 0 203.5 84t77.5 190q0 94 -64 155.5t-172 61.5q-71 0 -131.5 -27.5t-93.5 -72.5h-182l231 743h764l-37 -178h-581l-107 -334q88 54 205 54q175 0 279 -107t104 -272
q0 -91 -35 -176t-98.5 -152.5t-161 -108t-213.5 -40.5z" />
    <glyph glyph-name="six.onum" horiz-adv-x="1165" 
d="M1001 446q0 -121 -60.5 -227.5t-173 -172.5t-251.5 -66q-83 0 -159 26.5t-139.5 78t-101.5 138t-38 197.5q0 225 77 431t179 308q79 82 168.5 120t199.5 38q165 0 281 -88q118 -87 139 -236l-198 -49q-14 88 -73 139.5t-157 51.5q-124 0 -218.5 -110t-151.5 -323
q50 57 123 89t155 32q175 0 287 -109.5t112 -267.5zM526 160q109 0 185 82q77 83 77 186q0 92 -63 153.5t-160 61.5q-102 0 -186 -78q-82 -76 -82 -188q0 -92 65 -154.5t164 -62.5z" />
    <glyph glyph-name="seven.onum" horiz-adv-x="968" 
d="M1004 1145l-758 -1145h-248l750 1116h-611l39 178h860z" />
    <glyph glyph-name="eight.onum" horiz-adv-x="1122" 
d="M463 -20q-189 0 -311 104q-121 106 -121 258q0 119 73 216.5t193 148.5q-109 82 -109 231q0 101 59.5 188.5t162 139t223.5 51.5q172 0 285 -98q114 -99 114 -244q0 -101 -63.5 -186t-167.5 -130q67 -48 104 -118t37 -154q0 -79 -37.5 -153.5t-100.5 -130t-152.5 -89.5
t-188.5 -34zM616 1141q-100 0 -161 -64q-62 -62 -62 -139q0 -75 59.5 -124.5t147.5 -49.5q93 0 159 60.5t66 142.5q0 71 -59.5 122.5t-149.5 51.5zM475 158q118 0 187 69q71 71 71 158q0 86 -66 145.5t-165 59.5q-108 0 -185 -68q-75 -66 -75 -164q0 -82 67.5 -141
t165.5 -59z" />
    <glyph glyph-name="nine.onum" horiz-adv-x="1165" 
d="M618 1137q-110 0 -186 -82t-76 -187q0 -92 63.5 -153.5t160.5 -61.5q104 0 186 76t82 191q0 92 -65.5 154.5t-164.5 62.5zM442 -20q-163 0 -282 88q-116 88 -137 235l198 49q14 -88 73 -139t157 -51q124 0 218.5 110t151.5 322q-50 -57 -123 -89t-155 -32
q-175 0 -287.5 109.5t-112.5 267.5q0 121 60.5 227.5t173.5 173t252 66.5q83 0 159 -26.5t139.5 -78t101.5 -138t38 -197.5q0 -226 -77 -432t-179 -308q-153 -157 -369 -157z" />
    <glyph glyph-name="Euro.onum" horiz-adv-x="1417" 
d="M1100 268l114 -145q-176 -141 -403 -141q-200 0 -344 120q-143 122 -178 314h-232l31 143h195q3 73 18 137h-182l33 144h194q76 181 240 301q165 121 377 121q128 0 236 -48.5t177 -136.5l-157 -121q-103 127 -277 127q-117 0 -213.5 -66t-159.5 -177h418l-33 -144h-442
q-17 -75 -20 -137h432l-31 -143h-391q30 -117 117 -187.5t208 -70.5q144 0 273 110z" />
    <glyph glyph-name="dollar.onum" horiz-adv-x="1183" 
d="M399 901q0 -52 32 -85t118 -68l69 321q-100 -6 -159.5 -51t-59.5 -117zM793 342q0 54 -34 94.5t-120 75.5l-76 -354q110 4 170 57t60 127zM537 -6h-11l-39 -184h-141l43 196q-160 31 -251 134t-91 284h203q0 -203 174 -252l84 385l-43 14q-136 43 -203 122t-67 181
q0 156 130.5 259.5t329.5 103.5l37 174h139l-40 -186q140 -27 228.5 -112.5t88.5 -205.5q0 -8 -2.5 -25.5t-3.5 -27.5h-197q2 10 2 33q0 64 -42 108t-109 62l-78 -357l22 -8q299 -104 299 -325q0 -166 -129 -271q-126 -102 -333 -102z" />
    <glyph glyph-name="sterling.onum" horiz-adv-x="1159" 
d="M932 168l-37 -168h-915l36 168h121q96 50 153.5 124.5t57.5 164.5q0 45 -18 108h-230l35 156h148q-17 59 -17 115q0 179 128.5 302.5t322.5 123.5q178 0 281.5 -100t103.5 -263l-205 -2q0 85 -50 136.5t-145 51.5q-106 0 -166.5 -68t-60.5 -171q0 -39 21 -125h348
l-35 -156h-268q12 -47 12 -94q0 -93 -48 -173.5t-118 -129.5h545z" />
    <glyph glyph-name="yen.onum" horiz-adv-x="1218" 
d="M928 346l-31 -143h-307l-45 -203h-201l45 203h-305l33 143h303l31 135h-306l33 146h287l-287 612h228l204 -455l404 455h250l-559 -612h284l-31 -146h-307l-28 -135h305z" />
    <glyph glyph-name="percent.onum" horiz-adv-x="1988" 
d="M442 -27l-123 111l1201 1237l122 -109zM457 567q-129 0 -219 84q-91 85 -91 223q0 113 51.5 214.5t143 165t197.5 63.5q129 0 219 -84t90 -223q0 -113 -51.5 -214.5t-142.5 -165t-197 -63.5zM465 721q80 0 141.5 86.5t61.5 191.5q0 76 -38.5 119t-101.5 43
q-80 0 -141 -86t-61 -190q0 -77 38 -120.5t101 -43.5zM1425 -18q-133 0 -221 84.5t-88 222.5q0 113 51.5 214.5t142.5 164.5t197 63q132 0 220 -84.5t88 -222.5q0 -112 -52 -214t-142.5 -165t-195.5 -63zM1432 135q83 0 143.5 86.5t60.5 192.5q0 76 -38 118.5t-101 42.5
q-80 0 -141.5 -86t-61.5 -190q0 -76 38.5 -120t99.5 -44z" />
    <glyph glyph-name="perthousand.onum" horiz-adv-x="2801" 
d="M442 -27l-123 111l1201 1237l122 -109zM457 567q-129 0 -219 84q-91 85 -91 223q0 113 51.5 214.5t143 165t197.5 63.5q129 0 219 -84t90 -223q0 -113 -51.5 -214.5t-142.5 -165t-197 -63.5zM465 721q80 0 141.5 86.5t61.5 191.5q0 76 -38.5 119t-101.5 43
q-80 0 -141 -86t-61 -190q0 -77 38 -120.5t101 -43.5zM1425 -18q-133 0 -221 84.5t-88 222.5q0 113 51.5 214.5t142.5 164.5t197 63q132 0 220 -84.5t88 -222.5q0 -112 -52 -214t-142.5 -165t-195.5 -63zM2236 -18q-132 0 -219 81q-90 84 -90 226q0 113 52 214.5
t143.5 164.5t197.5 63q132 0 220 -84.5t88 -222.5q0 -113 -51.5 -214.5t-143 -164.5t-197.5 -63zM1432 135q83 0 143.5 86.5t60.5 192.5q0 76 -38 118.5t-101 42.5q-80 0 -141.5 -86t-61.5 -190q0 -76 38.5 -120t99.5 -44zM2245 135q80 0 141 87t61 192q0 76 -37.5 118.5
t-99.5 42.5q-81 0 -143 -86t-62 -190q0 -77 38.5 -120.5t101.5 -43.5z" />
    <glyph glyph-name="zero.tlf" horiz-adv-x="1282" 
d="M561 -20q-205 0 -326.5 134.5t-121.5 381.5q0 148 47 366q22 104 80 238q71 162 194.5 259t288.5 97q205 0 326.5 -135.5t121.5 -382.5q0 -157 -45 -365q-23 -106 -82 -239q-73 -163 -195 -258.5t-288 -95.5zM573 182q152 0 248 183q51 100 88 253q39 170 39 312
q0 156 -59.5 239.5t-175.5 83.5q-155 0 -250 -182q-51 -99 -88 -254q-37 -161 -37 -313q0 -155 59.5 -238.5t175.5 -83.5z" />
    <glyph glyph-name="one.tlf" horiz-adv-x="1282" 
d="M1036 197l-41 -197h-917l41 197h352l211 979l-377 -181l29 209l471 230h147l-264 -1237h348z" />
    <glyph glyph-name="two.tlf" horiz-adv-x="1282" 
d="M973 195l-43 -195h-924l33 154l655 571q137 121 185 186q51 68 51 154q0 81 -56.5 135.5t-150.5 54.5q-110 0 -183.5 -64t-93.5 -175h-210q30 192 169 317t336 125q192 0 305 -107.5t113 -256.5q0 -134 -74 -246q-69 -106 -247 -258l-465 -395h600z" />
    <glyph glyph-name="three.tlf" horiz-adv-x="1282" 
d="M518 -20q-212 0 -338 113.5t-127 309.5h213q6 -101 73.5 -164t195.5 -63q123 0 200.5 79t77.5 179t-66.5 160.5t-183.5 60.5h-155l41 189h182q146 0 217 71q72 72 72 160q0 84 -60 135.5t-155 51.5q-104 0 -174 -52.5t-95 -144.5h-211q34 169 165.5 281t332.5 112
q197 0 309 -106q113 -104 113 -258q0 -138 -76 -232q-78 -96 -176 -135q69 -39 109 -113t40 -172q0 -86 -38.5 -169t-105.5 -148t-166.5 -105t-213.5 -40z" />
    <glyph glyph-name="four.tlf" horiz-adv-x="1282" 
d="M1133 526l-43 -190h-193l-70 -336h-211l72 336h-637l29 139l674 959h245l-645 -908h377l60 285h208l-61 -285h195z" />
    <glyph glyph-name="five.tlf" horiz-adv-x="1282" 
d="M555 -23q-109 0 -205.5 38t-166.5 120.5t-83 196.5l203 55q17 -99 85.5 -156t176.5 -57q132 0 217.5 96t85.5 213q0 107 -66 175.5t-181 68.5q-73 0 -136.5 -32t-101.5 -85h-193l259 824h792l-43 -195h-600l-121 -377q94 62 207 62q194 0 301 -119q109 -118 109 -293
q0 -102 -38 -197.5t-105.5 -171t-171 -121t-224.5 -45.5z" />
    <glyph glyph-name="six.tlf" horiz-adv-x="1282" 
d="M1102 492q0 -96 -38.5 -189t-105.5 -165.5t-165.5 -116.5t-210.5 -44q-88 0 -168.5 29.5t-147.5 86.5t-107 153t-40 217q0 245 81.5 476t188.5 341q89 93 181.5 135.5t213.5 42.5q106 0 200 -38.5t160.5 -114.5t82.5 -175l-203 -55q-20 89 -86 137t-160 48
q-135 0 -237.5 -125t-165.5 -363q51 64 129 99.5t168 35.5q186 0 308 -120.5t122 -294.5zM592 174q118 0 203.5 91t85.5 210q0 102 -70.5 170t-175.5 68q-118 0 -205.5 -85.5t-87.5 -211.5q0 -103 71 -172.5t179 -69.5z" />
    <glyph glyph-name="seven.tlf" horiz-adv-x="1282" 
d="M1217 1272l-818 -1272h-258l807 1239h-647l41 195h909z" />
    <glyph glyph-name="eight.tlf" horiz-adv-x="1282" 
d="M549 -23q-196 0 -325.5 116t-129.5 286q0 133 80 242.5t211 164.5q-119 101 -119 256q0 112 65 208.5t175 152t237 55.5q180 0 300 -107.5t120 -267.5q0 -111 -69 -207.5t-181 -148.5q70 -56 109 -132.5t39 -166.5q0 -87 -41 -169.5t-109.5 -144.5t-163.5 -99.5
t-198 -37.5zM725 1266q-105 0 -176 -68q-70 -64 -70 -156q0 -84 64 -142t157 -58q106 0 177 71t71 162q0 79 -63 135t-160 56zM565 170q119 0 199 77t80 179q0 98 -73 164.5t-179 66.5q-118 0 -199 -75q-80 -77 -80 -187q0 -88 72 -157q74 -68 180 -68z" />
    <glyph glyph-name="nine.tlf" horiz-adv-x="1282" 
d="M692 1262q-118 0 -203.5 -91t-85.5 -210q0 -102 70.5 -170t175.5 -68q118 0 205.5 85.5t87.5 211.5q0 103 -71 172.5t-179 69.5zM500 -23q-106 0 -200 38.5t-160.5 114.5t-82.5 175l203 55q20 -89 86 -136.5t160 -47.5q135 0 237.5 125t165.5 363q-52 -64 -129.5 -100
t-167.5 -36q-186 0 -308 121t-122 295q0 96 38.5 189t105.5 165t165.5 116t210.5 44q88 0 168.5 -29.5t147.5 -86.5t107 -152.5t40 -216.5q0 -245 -81.5 -476t-188.5 -341q-89 -94 -181.5 -136.5t-213.5 -42.5z" />
    <glyph glyph-name="space.tlf" horiz-adv-x="641" 
 />
    <glyph glyph-name="period.tlf" horiz-adv-x="641" 
d="M195 -23q-60 0 -101 42t-41 102q0 58 41.5 99.5t100.5 41.5q57 0 99 -42t42 -99q0 -60 -42 -102t-99 -42z" />
    <glyph glyph-name="comma.tlf" horiz-adv-x="641" 
d="M49 -317l-92 90q136 136 186 217q-39 14 -64.5 49.5t-25.5 79.5q0 57 42.5 100t99.5 43q58 0 98.5 -41t40.5 -102q0 -91 -85 -211.5t-200 -224.5z" />
    <glyph glyph-name="quoteright.tlf" horiz-adv-x="641" 
d="M426 1028h-197l174 406h209z" />
    <glyph glyph-name="zero.sup" horiz-adv-x="847" 
d="M469 705q-138 0 -225.5 85t-87.5 236q0 130 47 247.5t140 196t212 78.5q139 0 226 -83t87 -236q0 -94 -28 -186.5t-77.5 -168t-126.5 -122.5t-167 -47zM475 852q65 0 117.5 61.5t78 145t25.5 164.5q0 84 -39 131t-108 47q-65 0 -117 -61.5t-77 -145t-25 -164.5
q0 -85 38.5 -131.5t106.5 -46.5z" />
    <glyph glyph-name="one.sup" horiz-adv-x="542" 
d="M594 1536l-174 -817h-170l135 633l-219 -88l20 153l291 119h117z" />
    <glyph glyph-name="two.sup" horiz-adv-x="720" 
d="M682 860l-31 -141h-594l25 115l399 315q70 56 96.5 91t26.5 73t-27.5 65t-76.5 27q-56 0 -94.5 -32t-49.5 -87h-166q20 118 109 191t217 73q126 0 195 -69q71 -71 71 -152q0 -73 -40.5 -134t-139.5 -136l-262 -199h342z" />
    <glyph glyph-name="three.sup" horiz-adv-x="753" 
d="M397 707q-132 0 -214 67.5t-83 183.5h170q2 -50 40 -83t104 -33q63 0 103 38.5t40 88.5q0 48 -36.5 77t-98.5 29h-100l28 135h115q77 0 116.5 32t39.5 79q0 41 -31.5 67.5t-81.5 26.5q-56 0 -92.5 -27t-48.5 -75h-166q21 106 108.5 171.5t214.5 65.5q125 0 199 -61
t74 -154q0 -71 -45.5 -125.5t-112.5 -79.5q45 -21 70.5 -63t25.5 -98q0 -105 -94 -183.5t-244 -78.5z" />
    <glyph glyph-name="four.sup" horiz-adv-x="761" 
d="M801 1051l-29 -138h-135l-43 -194h-162l43 194h-397l24 115l387 508h189l-375 -485h203l35 155h157l-32 -155h135z" />
    <glyph glyph-name="five.sup" horiz-adv-x="743" 
d="M395 707q-117 0 -197.5 54t-93.5 146l156 41q11 -48 49 -77t94 -29q71 0 115.5 44.5t44.5 104.5q0 54 -38.5 87.5t-96.5 33.5q-73 0 -125 -45h-145l137 469h516l-31 -141h-366l-60 -183q53 31 129 31q110 0 182 -65.5t72 -165.5q0 -126 -92 -215q-93 -90 -250 -90z" />
    <glyph glyph-name="six.sup" horiz-adv-x="772" 
d="M762 1001q0 -120 -94 -208t-232 -88q-122 0 -204 74t-82 218q0 132 45 254q46 125 112 191q55 55 114 80.5t136 25.5q105 0 181 -55.5t96 -146.5l-144 -35q-12 49 -48.5 75.5t-92.5 26.5q-153 0 -217 -231q61 61 168 61q113 0 188 -72q74 -71 74 -170zM442 838
q62 0 108 46.5t46 104.5q0 51 -38 88t-93 37q-62 0 -108 -45t-46 -108q0 -51 38 -87t93 -36z" />
    <glyph glyph-name="seven.sup" horiz-adv-x="647" 
d="M768 1409l-494 -690h-204l495 676h-393l31 141h592z" />
    <glyph glyph-name="eight.sup" horiz-adv-x="768" 
d="M418 705q-128 0 -212.5 66t-84.5 165q0 73 47.5 132t124.5 91q-76 57 -76 148q0 101 92 172t215 71q117 0 196 -62.5t79 -156.5q0 -61 -40.5 -113.5t-105.5 -84.5q92 -63 92 -166q0 -104 -96 -185q-95 -77 -231 -77zM514 1421q-57 0 -97 -35t-40 -83q0 -42 36.5 -70.5
t88.5 -28.5q57 0 97 34.5t40 82.5q0 41 -37 70.5t-88 29.5zM428 838q64 0 108 38t44 89q0 49 -41 81.5t-99 32.5q-63 0 -108 -37.5t-45 -91.5q0 -47 41.5 -79.5t99.5 -32.5z" />
    <glyph glyph-name="nine.sup" horiz-adv-x="774" 
d="M506 1415q-62 0 -108 -46.5t-46 -104.5q0 -51 38 -88t93 -37q62 0 108 45t46 108q0 51 -38 87t-93 36zM391 705q-105 0 -180.5 55.5t-95.5 146.5l143 35q12 -49 48.5 -75.5t92.5 -26.5q153 0 217 231q-61 -61 -167 -61q-117 0 -189 69q-74 71 -74 172q0 120 94 208.5
t232 88.5q122 0 204.5 -74.5t82.5 -218.5q0 -127 -47 -254q-46 -125 -111 -190q-55 -55 -114 -80.5t-136 -25.5z" />
    <glyph glyph-name="zero.num" horiz-adv-x="849" 
d="M446 602q-138 0 -225.5 85.5t-87.5 236.5q0 130 47 247.5t140 196t212 78.5q139 0 226.5 -83.5t87.5 -236.5q0 -94 -28 -186.5t-77.5 -168t-127 -122.5t-167.5 -47zM453 750q50 0 93 36t70 91.5t42.5 119.5t15.5 123q0 84 -39.5 131t-108.5 47q-50 0 -92.5 -36
t-69.5 -91.5t-42 -119.5t-15 -123q0 -85 39 -131.5t107 -46.5z" />
    <glyph glyph-name="one.num" horiz-adv-x="544" 
d="M573 1434l-174 -818h-170l136 633l-220 -88l21 154l291 119h116z" />
    <glyph glyph-name="two.num" horiz-adv-x="720" 
d="M659 758l-30 -142h-594l24 115l400 316q70 56 96.5 90.5t26.5 72.5t-28 65.5t-77 27.5q-56 0 -94 -32t-49 -87h-166q20 118 109 191t217 73q124 0 194 -70q72 -72 72 -151q0 -73 -41 -134.5t-139 -136.5l-263 -198h342z" />
    <glyph glyph-name="three.num" horiz-adv-x="753" 
d="M375 604q-132 0 -214 68t-83 184h170q2 -50 39.5 -83.5t103.5 -33.5q63 0 103.5 38.5t40.5 88.5q0 48 -37 77.5t-99 29.5h-100l29 135h114q77 0 116.5 32t39.5 79q0 41 -31.5 67.5t-81.5 26.5q-56 0 -92.5 -27.5t-48.5 -75.5h-166q21 106 109 172t215 66q125 0 198.5 -61
t73.5 -154q0 -71 -45.5 -125.5t-112.5 -79.5q45 -21 71 -63.5t26 -98.5q0 -105 -94 -183.5t-244 -78.5z" />
    <glyph glyph-name="four.num" horiz-adv-x="761" 
d="M778 948l-28 -137h-136l-43 -195h-161l43 195h-398l25 115l387 508h188l-374 -486h202l35 156h158l-33 -156h135z" />
    <glyph glyph-name="five.num" horiz-adv-x="743" 
d="M375 604q-117 0 -197.5 54t-93.5 147l156 41q11 -48 49 -77.5t94 -29.5q71 0 115.5 45t44.5 105q0 54 -38.5 87.5t-96.5 33.5q-73 0 -125 -45h-146l137 469h517l-31 -142h-367l-59 -182q53 31 129 31q110 0 182 -66t72 -166q0 -126 -92 -215q-93 -90 -250 -90z" />
    <glyph glyph-name="six.num" horiz-adv-x="774" 
d="M741 899q0 -120 -93.5 -208.5t-231.5 -88.5q-122 0 -204.5 74.5t-82.5 218.5q0 132 45 254t113 190q55 55 114 81t136 26q105 0 180.5 -56t95.5 -147l-143 -35q-12 49 -49 76t-93 27q-153 0 -217 -232q62 62 168 62q114 0 189 -72q73 -70 73 -170zM422 735q62 0 107.5 47
t45.5 105q0 51 -38 88t-93 37q-62 0 -107.5 -45.5t-45.5 -108.5q0 -51 38 -87t93 -36z" />
    <glyph glyph-name="seven.num" horiz-adv-x="647" 
d="M748 1307l-494 -691h-205l496 676h-393l30 142h592z" />
    <glyph glyph-name="eight.num" horiz-adv-x="765" 
d="M397 602q-128 0 -212.5 66.5t-84.5 165.5q0 73 47.5 132t124.5 91q-75 56 -75 147q0 101 92 172q93 72 215 72q117 0 195.5 -62.5t78.5 -156.5q0 -61 -40 -114t-105 -85q92 -63 92 -166t-96 -184q-96 -78 -232 -78zM494 1319q-56 0 -97 -35.5t-41 -83.5q0 -42 36.5 -70
t88.5 -28q57 0 97 34.5t40 82.5q0 41 -36.5 70.5t-87.5 29.5zM408 735q64 0 107.5 38t43.5 89q0 49 -40.5 82t-98.5 33q-63 0 -108.5 -37.5t-45.5 -91.5q0 -47 42 -80t100 -33z" />
    <glyph glyph-name="nine.num" horiz-adv-x="774" 
d="M485 1313q-62 0 -107.5 -47t-45.5 -105q0 -51 38 -88t93 -37q62 0 107.5 45.5t45.5 108.5q0 51 -38 87t-93 36zM371 602q-105 0 -181 56t-96 147l144 35q12 -49 48.5 -76t92.5 -27q153 0 217 232q-62 -62 -168 -62q-115 0 -188 70q-74 71 -74 172q0 120 94 208.5
t232 88.5q122 0 204 -74.5t82 -218.5q0 -127 -47 -254t-110 -190q-55 -55 -114 -81t-136 -26z" />
    <glyph glyph-name="zero.den" horiz-adv-x="847" 
d="M315 -14q-138 0 -225.5 85t-87.5 236q0 130 47 247.5t140 196t212 78.5q139 0 226.5 -83t87.5 -236q0 -94 -28 -186.5t-77.5 -168t-127 -122.5t-167.5 -47zM322 133q65 0 117.5 61.5t78 145t25.5 164.5q0 84 -39.5 131t-108.5 47q-65 0 -117 -61.5t-77 -145t-25 -164.5
q0 -85 39 -131.5t107 -46.5z" />
    <glyph glyph-name="one.den" horiz-adv-x="544" 
d="M442 817l-174 -817h-170l135 633l-219 -88l21 153l291 119h116z" />
    <glyph glyph-name="two.den" horiz-adv-x="720" 
d="M528 141l-30 -141h-594l24 115l400 315q70 56 96.5 91t26.5 73t-28 65t-77 27q-56 0 -94 -32t-49 -87h-166q20 118 108.5 191t216.5 73q126 0 195 -69q72 -72 72 -152q0 -73 -40.5 -134t-139.5 -136l-263 -199h342z" />
    <glyph glyph-name="three.den" horiz-adv-x="753" 
d="M244 -12q-132 0 -214 68t-83 184h170q2 -50 39.5 -83.5t103.5 -33.5q63 0 103 38.5t40 88.5q0 48 -36.5 77t-98.5 29h-100l29 136h114q77 0 116.5 31.5t39.5 78.5q0 41 -31.5 67.5t-81.5 26.5q-56 0 -92.5 -27t-48.5 -75h-166q21 106 109 171.5t215 65.5q125 0 198.5 -61
t73.5 -154q0 -71 -45 -125t-113 -79q45 -21 71 -63.5t26 -98.5q0 -105 -94 -183.5t-244 -78.5z" />
    <glyph glyph-name="four.den" horiz-adv-x="761" 
d="M647 332l-29 -137h-135l-43 -195h-161l43 195h-398l25 114l387 508h188l-374 -485h202l35 155h158l-33 -155h135z" />
    <glyph glyph-name="five.den" horiz-adv-x="743" 
d="M244 -12q-117 0 -197.5 54t-93.5 146l156 41q11 -48 49 -77t94 -29q71 0 115.5 44.5t44.5 104.5q0 54 -39 87.5t-97 33.5q-72 0 -124 -45h-146l137 469h516l-30 -141h-367l-59 -182q51 30 129 30q110 0 182 -65.5t72 -165.5q0 -126 -92 -215q-93 -90 -250 -90z" />
    <glyph glyph-name="six.den" horiz-adv-x="774" 
d="M610 283q0 -120 -93.5 -208.5t-231.5 -88.5q-122 0 -204.5 74.5t-82.5 218.5q0 131 45 253q46 124 113 191q55 55 114 80.5t136 25.5q105 0 180.5 -55.5t95.5 -146.5l-143 -35q-12 49 -49 75.5t-93 26.5q-153 0 -217 -231q61 61 168 61q115 0 189 -71q73 -70 73 -170z
M291 119q62 0 107.5 46.5t45.5 104.5q0 51 -38 88t-93 37q-62 0 -107.5 -45t-45.5 -108q0 -51 38 -87t93 -36z" />
    <glyph glyph-name="seven.den" horiz-adv-x="647" 
d="M616 690l-493 -690h-205l496 676h-394l31 141h592z" />
    <glyph glyph-name="eight.den" horiz-adv-x="765" 
d="M266 -14q-128 0 -212.5 66t-84.5 165q0 73 47.5 132t124.5 91q-75 56 -75 148q0 101 92 172t215 71q117 0 195.5 -62.5t78.5 -156.5q0 -61 -40 -113.5t-105 -84.5q92 -63 92 -166q0 -104 -96 -185q-95 -77 -232 -77zM362 702q-57 0 -97 -35t-40 -83q0 -42 36.5 -70.5
t88.5 -28.5q57 0 97 34.5t40 82.5q0 41 -37 70.5t-88 29.5zM276 119q64 0 108 38t44 89q0 49 -40.5 81.5t-98.5 32.5q-63 0 -108.5 -37.5t-45.5 -91.5q0 -47 41.5 -79.5t99.5 -32.5z" />
    <glyph glyph-name="nine.den" horiz-adv-x="772" 
d="M354 696q-62 0 -107.5 -46.5t-45.5 -104.5q0 -51 38 -88t93 -37q62 0 107.5 45t45.5 108q0 51 -38 87t-93 36zM240 -14q-105 0 -181 55.5t-96 146.5l143 35q12 -49 49 -75.5t93 -26.5q153 0 217 231q-61 -61 -168 -61q-116 0 -188 69q-74 71 -74 172q0 120 93.5 208.5
t231.5 88.5q122 0 204.5 -74t82.5 -218q0 -127 -47 -254t-111 -191q-55 -55 -113.5 -80.5t-135.5 -25.5z" />
    <glyph glyph-name="zero.sub" horiz-adv-x="847" 
d="M272 -219q-138 0 -225.5 85t-87.5 236q0 130 47 248t140 196.5t212 78.5q139 0 226.5 -83.5t87.5 -236.5q0 -94 -28 -186.5t-77.5 -168t-127 -122.5t-167.5 -47zM279 -72q65 0 117.5 61.5t78 145t25.5 164.5q0 84 -39.5 131t-108.5 47q-65 0 -117 -61.5t-77 -145
t-25 -164.5q0 -85 39 -131.5t107 -46.5z" />
    <glyph glyph-name="one.sub" horiz-adv-x="542" 
d="M399 612l-174 -817h-170l135 633l-219 -88l21 154l291 118h116z" />
    <glyph glyph-name="two.sub" horiz-adv-x="720" 
d="M485 -63l-30 -142h-594l24 115l400 315q70 56 96.5 91t26.5 73t-28 65t-77 27q-56 0 -94 -32t-49 -87h-166q20 118 108.5 191.5t216.5 73.5q125 0 195 -70q72 -72 72 -151q0 -73 -41 -134.5t-139 -136.5l-263 -198h342z" />
    <glyph glyph-name="three.sub" horiz-adv-x="753" 
d="M201 -217q-132 0 -214 68t-83 184h170q2 -50 39.5 -83.5t103.5 -33.5q63 0 103 38.5t40 88.5q0 48 -36.5 77.5t-98.5 29.5h-100l29 135h114q77 0 116.5 31.5t39.5 78.5q0 41 -32 68t-81 27q-56 0 -92.5 -27.5t-48.5 -75.5h-166q21 106 109 172t215 66q125 0 198.5 -61
t73.5 -154q0 -71 -45.5 -125.5t-112.5 -79.5q45 -21 71 -63.5t26 -98.5q0 -105 -94 -183.5t-244 -78.5z" />
    <glyph glyph-name="four.sub" horiz-adv-x="761" 
d="M604 127l-29 -137h-135l-43 -195h-161l43 195h-398l25 114l387 508h188l-375 -485h203l35 156h158l-33 -156h135z" />
    <glyph glyph-name="five.sub" horiz-adv-x="743" 
d="M201 -217q-117 0 -197.5 54t-93.5 147l156 41q11 -48 49 -77.5t94 -29.5q71 0 115.5 45t44.5 105q0 54 -39 87t-97 33q-72 0 -124 -45h-146l137 469h516l-30 -141h-367l-59 -182q51 30 129 30q110 0 182 -65.5t72 -165.5q0 -126 -92 -215q-93 -90 -250 -90z" />
    <glyph glyph-name="six.sub" horiz-adv-x="774" 
d="M567 78q0 -120 -93.5 -208.5t-231.5 -88.5q-122 0 -204.5 74.5t-82.5 218.5q0 132 45 254t113 190q55 55 114 81t135 26q105 0 181 -56t96 -147l-143 -35q-12 49 -49 75.5t-93 26.5q-153 0 -217 -231q61 61 168 61q115 0 189 -71q73 -70 73 -170zM248 -86q62 0 107.5 47
t45.5 105q0 51 -38 87.5t-93 36.5q-62 0 -107.5 -45t-45.5 -108q0 -51 38 -87t93 -36z" />
    <glyph glyph-name="seven.sub" horiz-adv-x="647" 
d="M571 485l-493 -690h-205l496 676h-394l31 141h592z" />
    <glyph glyph-name="eight.sub" horiz-adv-x="765" 
d="M221 -219q-128 0 -212.5 66t-84.5 165q0 73 47.5 132.5t124.5 91.5q-76 57 -76 147q0 100 93 172t215 72q117 0 195.5 -62.5t78.5 -156.5q0 -61 -40 -114t-105 -85q92 -63 92 -166q0 -104 -96 -182q-95 -80 -232 -80zM317 498q-56 0 -96.5 -35.5t-40.5 -83.5
q0 -42 36.5 -70t88.5 -28q57 0 97 34.5t40 81.5q0 41 -37 71t-88 30zM231 -86q64 0 108 38t44 89q0 49 -40.5 82t-98.5 33q-63 0 -108.5 -37.5t-45.5 -91.5q0 -47 42 -80t99 -33z" />
    <glyph glyph-name="nine.sub" horiz-adv-x="774" 
d="M311 492q-62 0 -107.5 -47t-45.5 -105q0 -51 38 -88t93 -37q62 0 107.5 45.5t45.5 108.5q0 51 -38 87t-93 36zM197 -219q-105 0 -181 56t-96 147l143 34q12 -49 49 -75.5t93 -26.5q153 0 217 231q-61 -61 -168 -61q-115 0 -188 70q-74 71 -74 172q0 120 93.5 208.5
t231.5 88.5q122 0 204.5 -74.5t82.5 -218.5q0 -127 -47 -254t-111 -191q-55 -55 -113.5 -80.5t-135.5 -25.5z" />
    <glyph glyph-name="a.sup" horiz-adv-x="911" 
d="M463 807q63 0 115 39.5t69 109.5l19 78q4 20 4 39q0 53 -40 86t-102 33q-95 0 -153 -74t-58 -166q0 -67 40.5 -106t105.5 -39zM412 643q-121 0 -202 79t-81 210q0 112 49 208.5t141 156t207 59.5q67 0 120.5 -22.5t82.5 -63.5l16 71h173l-154 -688h-172l16 72
q-75 -82 -196 -82z" />
    <glyph glyph-name="b.sup" horiz-adv-x="909" 
d="M506 643q-65 0 -119 22.5t-84 61.5l-16 -74h-174l225 994h186l-82 -357q69 66 179 66q121 0 201.5 -78t80.5 -209q0 -113 -49 -210t-141 -156.5t-207 -59.5zM502 807q97 0 155 74t58 168q0 67 -41 105t-105 38q-62 0 -113.5 -40.5t-68.5 -107.5l-20 -83q-5 -25 -5 -35
q0 -53 39.5 -86t100.5 -33z" />
    <glyph glyph-name="c.sup" horiz-adv-x="817" 
d="M459 639q-88 0 -161 33t-120 104t-47 168q0 170 113 293t282 123q131 0 217 -68.5t97 -165.5l-174 -34q-12 50 -51 76t-97 26q-80 0 -139.5 -69.5t-59.5 -168.5q0 -72 44 -112.5t108 -40.5q103 0 170 108l147 -80q-55 -94 -140 -143t-189 -49z" />
    <glyph glyph-name="d.sup" horiz-adv-x="911" 
d="M463 807q64 0 115 39.5t69 111.5l19 76q4 28 4 39q0 53 -40 86t-102 33q-95 0 -153 -74t-58 -166q0 -67 40.5 -106t105.5 -39zM412 643q-121 0 -202 79t-81 210q0 112 49 208.5t141 156t207 59.5q62 0 113 -19.5t80 -54.5l86 365h184l-225 -994h-172l16 72
q-75 -82 -196 -82z" />
    <glyph glyph-name="e.sup" horiz-adv-x="851" 
d="M530 1214q-69 0 -118.5 -35t-69.5 -100h326q2 8 2 21q0 52 -40.5 83t-99.5 31zM666 883l122 -88q-118 -156 -327 -156q-134 0 -234 80q-96 84 -96 219q0 82 30.5 159t83.5 135t131 93t167 35q140 0 225.5 -78t85.5 -201q0 -65 -20 -123h-519q-2 -8 -2 -22
q0 -69 45 -110.5t119 -41.5q54 0 104 26t85 73z" />
    <glyph glyph-name="f.sup" horiz-adv-x="534" 
d="M645 1341l-33 -153h-163l-123 -535h-181l121 535h-108l32 153h111l18 78q27 124 101 183q63 51 176 51q146 0 209 -78l-123 -111q-29 37 -82 37q-84 0 -98 -80l-19 -80h162z" />
    <glyph glyph-name="g.sup" horiz-adv-x="905" 
d="M465 831q64 0 115.5 38.5t64.5 103.5l17 69q4 20 4 35q0 54 -39 85.5t-101 31.5q-65 0 -112 -35.5t-67.5 -85t-20.5 -104.5q0 -63 38 -100.5t101 -37.5zM385 373q-104 0 -189 35t-126 102l133 119q61 -101 192 -101q74 0 122 36t61 106l10 47q-74 -49 -170 -49
q-121 0 -201 77t-80 203q0 109 45.5 201t134.5 149.5t203 57.5q68 0 122.5 -22.5t80.5 -63.5l16 71h174l-157 -692q-63 -276 -371 -276z" />
    <glyph glyph-name="h.sup" horiz-adv-x="907" 
d="M575 1192q-98 0 -180 -113l-96 -426h-186l225 994h186l-88 -387q88 98 217 98q93 0 156 -56.5t63 -156.5q0 -43 -12 -96l-88 -396h-184l88 387q6 25 6 58q0 45 -30 69.5t-77 24.5z" />
    <glyph glyph-name="i.sup" horiz-adv-x="446" 
d="M406 1438q-44 0 -76.5 32t-32.5 76t32.5 75.5t76.5 31.5q47 0 78.5 -31t31.5 -76t-31.5 -76.5t-78.5 -31.5zM297 653h-184l153 688h185z" />
    <glyph glyph-name="j.sup" horiz-adv-x="446" 
d="M406 1438q-44 0 -76.5 32t-32.5 76t32.5 75.5t76.5 31.5q47 0 78.5 -31t31.5 -76t-31.5 -76.5t-78.5 -31.5zM266 1341h185l-162 -710q-57 -250 -295 -250q-23 0 -53 6l32 154h15q49 0 77.5 24t40.5 78z" />
    <glyph glyph-name="k.sup" horiz-adv-x="849" 
d="M801 653h-197l-133 346l-117 -84l-59 -262h-182l225 994h182l-119 -521l297 215h256l-333 -245z" />
    <glyph glyph-name="l.sup" horiz-adv-x="446" 
d="M299 653h-186l225 994h186z" />
    <glyph glyph-name="m.sup" horiz-adv-x="1343" 
d="M565 1192q-47 0 -92.5 -30t-77.5 -81l-96 -428h-186l155 688h185l-19 -84q86 99 211 99q64 0 115.5 -30t75.5 -83q105 113 251 113q96 0 160 -58t64 -155q0 -32 -13 -86l-92 -404h-182l88 391q1 6 2.5 17.5t2.5 20.5t1 16q0 43 -27 68.5t-71 25.5q-89 0 -168 -105v-6
l-98 -428h-185l88 391q1 5 4 25t3 29q0 43 -27.5 68.5t-71.5 25.5z" />
    <glyph glyph-name="n.sup" horiz-adv-x="907" 
d="M575 1192q-104 0 -182 -117l-94 -422h-186l155 688h185l-19 -86q43 50 101.5 76.5t117.5 26.5q93 0 156 -56.5t63 -156.5q0 -43 -12 -96l-88 -396h-184l88 387q6 54 6 58q0 45 -30 69.5t-77 24.5z" />
    <glyph glyph-name="o.sup" horiz-adv-x="874" 
d="M463 639q-134 0 -234 80q-98 79 -98 227q0 168 116.5 291t287.5 123q140 0 235.5 -82.5t95.5 -222.5q0 -111 -52 -206t-145 -152.5t-206 -57.5zM471 803q87 0 146 69.5t59 169.5q0 71 -43.5 112.5t-108.5 41.5q-86 0 -145.5 -69.5t-59.5 -168.5q0 -73 43 -114t109 -41z
" />
    <glyph glyph-name="p.sup" horiz-adv-x="911" 
d="M504 807q98 0 154.5 73.5t56.5 168.5q0 67 -40.5 105t-103.5 38q-64 0 -116.5 -42t-69.5 -114l-16 -75q-4 -28 -4 -35q0 -53 39 -86t100 -33zM508 643q-130 0 -195 68l-73 -320h-185l213 950h174l-16 -73q74 88 195 88q122 0 202 -77.5t80 -209.5q0 -174 -111.5 -300
t-283.5 -126z" />
    <glyph glyph-name="q.sup" horiz-adv-x="911" 
d="M412 643q-121 0 -202 79t-81 210q0 112 49 208.5t141 156t207 59.5q67 0 120.5 -23.5t82.5 -64.5l16 73h175l-215 -950h-185l72 320q-71 -68 -180 -68zM463 807q64 0 115 39.5t69 111.5l19 76q4 32 4 39q0 53 -40 86t-102 33q-95 0 -153 -74t-58 -166q0 -67 40.5 -106
t105.5 -39z" />
    <glyph glyph-name="r.sup" horiz-adv-x="618" 
d="M541 1182q-42 0 -79.5 -22t-62.5 -60l-100 -447h-186l155 688h185l-21 -92q74 101 168 101q72 0 127 -37l-96 -162q-43 31 -90 31z" />
    <glyph glyph-name="s.sup" horiz-adv-x="739" 
d="M403 639q-130 0 -215.5 56t-97.5 161l162 37q7 -56 49 -85.5t105 -29.5q50 0 79 18.5t29 49.5q0 28 -28.5 48t-100.5 46q-101 34 -152 79t-51 122q0 95 78.5 156t206.5 61q125 0 200.5 -55t86.5 -144l-160 -31q-6 48 -40.5 71.5t-88.5 23.5q-48 0 -77.5 -18.5
t-29.5 -49.5q0 -30 28.5 -46t102.5 -40q205 -61 205 -209q0 -97 -81 -159t-210 -62z" />
    <glyph glyph-name="t.sup" horiz-adv-x="593" 
d="M492 825l55 -125q-80 -55 -185 -55q-92 0 -151 53q-57 51 -29 174l76 316h-108l30 153h109l45 187h178l-43 -187h195l-33 -153h-197l-69 -311q-10 -41 5 -60.5t44 -19.5q31 0 78 28z" />
    <glyph glyph-name="u.sup" horiz-adv-x="899" 
d="M754 653h-185l21 88q-95 -102 -219 -102q-91 0 -154 56.5t-63 156.5q0 42 12 94l90 395h186l-90 -389q-1 -6 -2.5 -17t-2.5 -20t-1 -16q0 -43 29.5 -68.5t73.5 -25.5q101 0 180 117l94 419h186z" />
    <glyph glyph-name="v.sup" horiz-adv-x="778" 
d="M885 1341l-422 -688h-180l-115 688h174l68 -475l284 475h191z" />
    <glyph glyph-name="w.sup" horiz-adv-x="1071" 
d="M811 653h-152l-75 305l-215 -305h-154l-37 688h172l15 -440l190 283h141l64 -281l223 438h184z" />
    <glyph glyph-name="x.sup" horiz-adv-x="800" 
d="M739 653h-188l-111 240l-202 -240h-209l319 367l-160 321h187l108 -225l193 225h209l-307 -350z" />
    <glyph glyph-name="y.sup" horiz-adv-x="751" 
d="M860 1341l-635 -950h-192l260 400l-129 550h178l82 -372l242 372h194z" />
    <glyph glyph-name="z.sup" horiz-adv-x="724" 
d="M670 807l-33 -154h-584l23 111l428 424h-320l33 153h569l-24 -108l-428 -426h336z" />
    <glyph glyph-name="at.case" horiz-adv-x="1914" 
d="M895 -154q-161 0 -303.5 57t-245.5 156.5t-163 242.5t-60 308q0 151 44 296.5t127.5 268.5t194.5 216.5t254.5 146.5t298.5 53q216 0 391.5 -97.5t274 -265t98.5 -370.5q0 -78 -16 -157t-51.5 -154.5t-86 -133t-125 -93t-163.5 -35.5q-86 0 -149.5 35t-90.5 92
q-110 -123 -252 -123q-140 0 -236.5 96t-96.5 254q0 99 34.5 192t92 162t138 110.5t167.5 41.5q78 0 138 -25.5t93 -70.5l23 77l180 -8l-111 -526q-16 -73 11.5 -107t80.5 -34q71 0 127 58t84.5 146.5t28.5 186.5q0 124 -44 231.5t-121 184.5t-186.5 121t-236.5 44
q-154 0 -292 -67.5t-234.5 -179t-152.5 -257.5t-56 -301q0 -174 78 -313t214.5 -216t305.5 -77q171 0 324 72l49 -156q-168 -82 -379 -82zM911 471q54 0 107 34t84 97l43 205q-1 66 -52 107.5t-122 41.5q-102 0 -167 -87t-65 -203q0 -91 48.5 -143t123.5 -52z" />
    <glyph glyph-name="hyphen.case" horiz-adv-x="776" 
d="M668 639h-588l37 180h588z" />
    <glyph glyph-name="exclamdown.case" horiz-adv-x="606" 
d="M430 1456q58 0 99.5 -42t41.5 -101q0 -57 -42 -99.5t-99 -42.5q-59 0 -100 42t-41 100q0 60 40.5 101.5t100.5 41.5zM276 1006h175l-183 -1006h-233z" />
    <glyph glyph-name="questiondown.case" horiz-adv-x="1050" 
d="M705 1458q60 0 100.5 -41.5t40.5 -101.5q0 -58 -41 -99.5t-100 -41.5q-57 0 -99.5 42t-42.5 99q0 59 42 101t100 42zM547 1010h209l-23 -111q-29 -130 -75 -185.5t-169 -111.5l-71 -33q-89 -40 -133.5 -91.5t-44.5 -127.5q0 -80 58.5 -132t154.5 -52q97 0 165 61.5
t91 171.5l200 -32q-36 -185 -163 -287.5t-300 -102.5q-186 0 -305 101q-121 103 -121 254q0 76 22 137.5t66 109.5t98 85t130 73l78 37q55 27 78 55.5t36 96.5z" />
    <glyph glyph-name="bracketleft.case" horiz-adv-x="743" 
d="M502 -217h-516l397 1868h514l-37 -170h-305l-324 -1528h306z" />
    <glyph glyph-name="bracketright.case" horiz-adv-x="743" 
d="M242 1651h516l-398 -1868h-514l37 170h305l324 1528h-305z" />
    <glyph glyph-name="endash.case" horiz-adv-x="1144" 
d="M1036 645h-956l35 170h956z" />
    <glyph glyph-name="emdash.case" horiz-adv-x="1626" 
d="M1518 645h-1438l35 170h1437z" />
    <glyph glyph-name="guillemotleft.case" horiz-adv-x="1204" 
d="M520 369l-153 -97l-285 451l479 453l111 -127l-363 -342zM1008 369l-154 -97l-285 451l480 453l110 -127l-362 -342z" />
    <glyph glyph-name="guillemotright.case" horiz-adv-x="1202" 
d="M201 1079l153 97l285 -451l-479 -453l-111 127l363 342zM688 1079l154 97l284 -451l-479 -453l-110 127l362 342z" />
    <glyph glyph-name="guilsinglleft.case" horiz-adv-x="716" 
d="M520 369l-153 -97l-285 451l479 453l111 -127l-363 -342z" />
    <glyph glyph-name="guilsinglright.case" horiz-adv-x="714" 
d="M201 1079l153 97l285 -451l-479 -453l-111 127l363 342z" />
    <glyph glyph-name="parenleft.case" horiz-adv-x="710" 
d="M487 -180l-159 -119q-104 144 -168 342q-64 201 -64 410q0 348 177.5 700t463.5 584l135 -138q-112 -97 -212.5 -227t-178.5 -277t-124 -312t-46 -318q0 -180 47 -346.5t129 -298.5z" />
    <glyph glyph-name="parenright.case" horiz-adv-x="712" 
d="M227 1620l160 119q101 -139 166 -344q65 -201 65 -408q0 -348 -177.5 -700t-463.5 -584l-135 137q112 97 212.5 227t178.5 277.5t124 312.5t46 318q0 180 -47 346.5t-129 298.5z" />
    <glyph glyph-name="zero.percent" horiz-adv-x="925" 
d="M350 -20q-134 0 -229 92q-94 94 -94 247q0 93 33 182.5t88 156.5t131.5 108t158.5 41q135 0 230 -92q94 -88 94 -246q0 -126 -54.5 -238.5t-150 -181.5t-207.5 -69zM360 147q86 0 150.5 97.5t64.5 214.5q0 85 -41 132.5t-106 47.5q-86 0 -150.5 -95.5t-64.5 -213.5
q0 -86 41 -134.5t106 -48.5z" />
    <glyph glyph-name="germandbls.alt" horiz-adv-x="1232" 
d="M225 0h-207l228 1071q39 187 161.5 297.5t307.5 110.5q167 0 266.5 -91t99.5 -223q0 -62 -22.5 -115t-56 -86.5t-73 -65.5t-73 -54.5t-56 -50t-22.5 -54.5q0 -35 25 -62.5t94 -70.5q93 -56 136.5 -121.5t43.5 -152.5q0 -139 -114.5 -242.5t-286.5 -103.5q-99 0 -184 36.5
t-136 100.5l129 135q83 -100 197 -100q80 0 132 46t52 111q0 48 -29.5 84t-95.5 76q-86 54 -131 109t-45 123q0 58 31.5 107.5t77 86t90.5 71t76.5 78t31.5 91.5q0 71 -50 114t-126 43q-92 0 -156.5 -61.5t-88.5 -177.5z" />
    <glyph glyph-name="acute.ss01" horiz-adv-x="747" 
d="M801 1532h-506l8 35l516 63h4z" />
    <glyph glyph-name="grave.ss01" horiz-adv-x="747" 
d="M801 1532h-506l22 100h5l487 -65z" />
    <glyph glyph-name="circumflex.ss01" horiz-adv-x="747" 
d="M545 1548l-254 -37l10 48l262 86l244 -86l-10 -48z" />
    <glyph glyph-name="caron.ss01" horiz-adv-x="747" 
d="M569 1608l254 37l-10 -48l-262 -86l-244 86l10 48z" />
    <glyph glyph-name="cedilla.ss01" horiz-adv-x="567" 
d="M55 -248h-139l23 101h108q64 0 90.5 19.5t40.5 70.5l103 -4q-42 -187 -226 -187z" />
    <glyph glyph-name="ogonek.ss01" horiz-adv-x="536" 
d="M227 -145l-20 -95h-119q-76 0 -115 29.5t-39 81.5q0 139 275 184l55 -55q-108 0 -164.5 -30.5t-56.5 -67.5q0 -47 63 -47h121z" />
    <glyph glyph-name="breve.ss01" horiz-adv-x="716" 
d="M586 1522h-90q-174 0 -177 125h80q1 -32 29.5 -43t83.5 -11h78q53 0 82.5 11.5t42.5 42.5h80q-27 -75 -78.5 -100t-130.5 -25z" />
    <glyph glyph-name="dieresis.ss01" horiz-adv-x="821" 
d="M874 1532h-235l18 80h234zM528 1532h-233l16 80h236z" />
    <glyph glyph-name="dieresis.i.ss01" horiz-adv-x="686" 
d="M737 1532h-180l18 82h183zM475 1532h-180l18 82h181z" />
    <glyph glyph-name="hungarumlaut.ss01" horiz-adv-x="868" 
d="M922 1532h-260l10 39l268 59h4zM553 1532h-258l8 39l268 59h4z" />
    <glyph glyph-name="ring.ss01" horiz-adv-x="686" 
d="M629 1511h-189q-129 0 -129 103q0 102 129 102h189q63 0 96 -23.5t33 -78.5q0 -103 -129 -103zM430 1585h209q37 0 37 29q0 31 -37 31h-209q-17 0 -27 -8.5t-10 -22.5q0 -29 37 -29z" />
    <glyph glyph-name="tilde.ss01" horiz-adv-x="765" 
d="M369 1495l-78 16q15 53 43.5 82t81.5 29q33 0 88 -8l188 -21q54 -3 68 47l78 -16q-13 -54 -41 -82.5t-82 -28.5q-27 0 -88 9l-189 20q-30 1 -44 -9t-25 -38z" />
    <glyph glyph-name="macron.ss01" horiz-adv-x="716" 
d="M770 1532h-475l16 80h475z" />
    <glyph glyph-name="dotaccent.ss01" horiz-adv-x="403" 
d="M391 1532q-32 0 -54 22t-22 52t22 51.5t54 21.5t54 -21.5t22 -51.5t-22 -52t-54 -22z" />
    <glyph glyph-name="commaaccent.ss01" horiz-adv-x="409" 
d="M37 -252h-125l78 156h131z" />
    <glyph glyph-name="Aacute.ss01" 
d="M791 1214h-5l-284 -530h358zM1163 0h-223l-63 492h-474l-266 -492h-241l804 1434h261zM1104 1516h-506l8 34l516 64h4z" />
    <glyph glyph-name="Acircumflex.ss01" 
d="M791 1214h-5l-284 -530h358zM1163 0h-223l-63 492h-474l-266 -492h-241l804 1434h261zM848 1532l-254 -37l10 47l262 86l244 -86l-10 -47z" />
    <glyph glyph-name="Adieresis.ss01" 
d="M791 1214h-5l-284 -530h358zM1163 0h-223l-63 492h-474l-266 -492h-241l804 1434h261zM1141 1516h-236l19 79h233zM795 1516h-234l17 79h235z" />
    <glyph glyph-name="Agrave.ss01" 
d="M791 1214h-5l-284 -530h358zM1163 0h-223l-63 492h-474l-266 -492h-241l804 1434h261zM1104 1516h-506l23 100h4l487 -66z" />
    <glyph glyph-name="Atilde.ss01" 
d="M791 1214h-5l-284 -530h358zM1163 0h-223l-63 492h-474l-266 -492h-241l804 1434h261zM664 1479l-78 16q15 53 43.5 82t81.5 29q27 0 88 -9l188 -20q54 -3 68 47l78 -16q-13 -54 -41 -82.5t-82 -28.5q-33 0 -88 8l-189 21q-30 1 -44 -9t-25 -38z" />
    <glyph glyph-name="Aring.ss01" 
d="M791 1214h-5l-284 -530h358zM1163 0h-223l-63 492h-474l-266 -492h-241l804 1434h261zM963 1495h-189q-129 0 -129 102q0 103 129 103h189q129 0 129 -103q0 -102 -129 -102zM764 1569h209q37 0 37 28q0 31 -37 31h-209q-17 0 -27 -8.5t-10 -22.5q0 -28 37 -28z" />
    <glyph glyph-name="Abreve.ss01" 
d="M791 1214h-5l-284 -530h358zM1163 0h-223l-63 492h-474l-266 -492h-241l804 1434h261zM899 1505h-90q-173 0 -176 125h80q1 -32 29 -42.5t83 -10.5h78q53 0 82.5 11t42.5 42h80q-27 -75 -78.5 -100t-130.5 -25z" />
    <glyph glyph-name="Amacron.ss01" 
d="M791 1214h-5l-284 -530h358zM1163 0h-223l-63 492h-474l-266 -492h-241l804 1434h261zM1090 1516h-476l17 79h475z" />
    <glyph glyph-name="Aogonek.ss01" 
d="M791 1214h-5l-284 -530h358zM1163 0h-223l-63 492h-474l-266 -492h-241l804 1434h261zM1126 -145l-20 -95h-119q-76 0 -114.5 29.5t-38.5 81.5q0 139 274 184l55 -55q-108 0 -164.5 -30.5t-56.5 -67.5q0 -47 64 -47h120z" />
    <glyph glyph-name="Aringacute.ss01" 
d="M791 1214h-5l-284 -530h358zM1163 0h-223l-63 492h-474l-266 -492h-241l804 1434h261zM963 1495h-189q-129 0 -129 102q0 103 129 103h189q129 0 129 -103q0 -102 -129 -102zM764 1569h209q37 0 37 28q0 31 -37 31h-209q-17 0 -27 -8.5t-10 -22.5q0 -28 37 -28z
M1159 1778h-506l9 34l516 64h4z" />
    <glyph glyph-name="AEacute.ss01" horiz-adv-x="1898" 
d="M991 1239h-26l-367 -539h305zM1647 0h-859l84 512h-403l-348 -512h-252l1001 1434h1074l-43 -195h-695l-55 -334h631l-41 -194h-621l-84 -516h652zM1669 1511h-506l8 35l517 64h4z" />
    <glyph glyph-name="Ccaron.ss01" horiz-adv-x="1470" 
d="M696 -20q-123 0 -232.5 47t-190.5 129t-128 200t-47 254q0 162 55.5 315t151.5 270t236 188t299 71q225 0 378 -114.5t185 -321.5l-221 -41q-21 106 -111 190q-88 82 -250 82q-137 0 -251.5 -90t-178 -235.5t-63.5 -309.5q0 -186 108 -309q109 -121 275 -121
q161 0 268 101q110 104 162 252l209 -64q-86 -240 -258 -366.5t-396 -126.5zM926 1587l254 37l-11 -47l-262 -86l-243 86l10 47z" />
    <glyph glyph-name="Ccedilla.ss01" horiz-adv-x="1470" 
d="M696 -20q-123 0 -232.5 47t-190.5 129t-128 200t-47 254q0 162 55.5 315t151.5 270t236 188t299 71q225 0 378 -114.5t185 -321.5l-221 -41q-21 106 -111 190q-88 82 -250 82q-137 0 -251.5 -90t-178 -235.5t-63.5 -309.5q0 -186 108 -309q109 -121 275 -121
q161 0 268 101q110 104 162 252l209 -64q-86 -240 -258 -366.5t-396 -126.5zM492 -246h-140l23 101h108q64 0 90.5 19.5t40.5 70.5l103 -4q-42 -187 -225 -187z" />
    <glyph glyph-name="Cacute.ss01" horiz-adv-x="1470" 
d="M696 -20q-123 0 -232.5 47t-190.5 129t-128 200t-47 254q0 162 55.5 315t151.5 270t236 188t299 71q225 0 378 -114.5t185 -321.5l-221 -41q-21 106 -111 190q-88 82 -250 82q-137 0 -251.5 -90t-178 -235.5t-63.5 -309.5q0 -186 108 -309q109 -121 275 -121
q161 0 268 101q110 104 162 252l209 -64q-86 -240 -258 -366.5t-396 -126.5zM1157 1511h-506l8 35l517 64h4z" />
    <glyph glyph-name="Ccircumflex.ss01" horiz-adv-x="1470" 
d="M696 -20q-123 0 -232.5 47t-190.5 129t-128 200t-47 254q0 162 55.5 315t151.5 270t236 188t299 71q225 0 378 -114.5t185 -321.5l-221 -41q-21 106 -111 190q-88 82 -250 82q-137 0 -251.5 -90t-178 -235.5t-63.5 -309.5q0 -186 108 -309q109 -121 275 -121
q161 0 268 101q110 104 162 252l209 -64q-86 -240 -258 -366.5t-396 -126.5zM901 1528l-254 -37l10 47l263 86l243 -86l-10 -47z" />
    <glyph glyph-name="Cdotaccent.ss01" horiz-adv-x="1470" 
d="M696 -20q-123 0 -232.5 47t-190.5 129t-128 200t-47 254q0 162 55.5 315t151.5 270t236 188t299 71q225 0 378 -114.5t185 -321.5l-221 -41q-21 106 -111 190q-88 82 -250 82q-137 0 -251.5 -90t-178 -235.5t-63.5 -309.5q0 -186 108 -309q109 -121 275 -121
q161 0 268 101q110 104 162 252l209 -64q-86 -240 -258 -366.5t-396 -126.5zM889 1511q-32 0 -54 22t-22 52t22 52t54 22t54 -22t22 -52t-22 -52t-54 -22z" />
    <glyph glyph-name="Dcaron.ss01" horiz-adv-x="1421" 
d="M532 0h-501l305 1434h436q241 0 398 -160t157 -416q0 -195 -64.5 -358.5t-173.5 -272t-253 -168t-304 -59.5zM512 1239l-221 -1044h274q107 0 204.5 49t170 134.5t115.5 207.5t43 260q0 176 -105 284q-106 109 -264 109h-217zM793 1591l254 37l-11 -47l-262 -86l-244 86
l11 47z" />
    <glyph glyph-name="Ecircumflex.ss01" horiz-adv-x="1226" 
d="M293 195h723l-41 -195h-944l305 1434h936l-41 -195h-719l-70 -334h668l-41 -194h-668zM807 1532l-254 -37l10 47l262 86l244 -86l-10 -47z" />
    <glyph glyph-name="Eacute.ss01" horiz-adv-x="1226" 
d="M293 195h723l-41 -195h-944l305 1434h936l-41 -195h-719l-70 -334h668l-41 -194h-668zM1063 1516h-506l8 34l516 64h4z" />
    <glyph glyph-name="Edieresis.ss01" horiz-adv-x="1226" 
d="M293 195h723l-41 -195h-944l305 1434h936l-41 -195h-719l-70 -334h668l-41 -194h-668zM1100 1516h-236l19 79h233zM754 1516h-234l17 79h235z" />
    <glyph glyph-name="Egrave.ss01" horiz-adv-x="1226" 
d="M293 195h723l-41 -195h-944l305 1434h936l-41 -195h-719l-70 -334h668l-41 -194h-668zM1063 1516h-506l23 100h4l487 -66z" />
    <glyph glyph-name="Ebreve.ss01" horiz-adv-x="1226" 
d="M293 195h723l-41 -195h-944l305 1434h936l-41 -195h-719l-70 -334h668l-41 -194h-668zM858 1505h-90q-174 0 -176 125h80q1 -32 29 -42.5t83 -10.5h78q53 0 82.5 11t42.5 42h80q-27 -75 -78.5 -100t-130.5 -25z" />
    <glyph glyph-name="Edotaccent.ss01" horiz-adv-x="1226" 
d="M293 195h723l-41 -195h-944l305 1434h936l-41 -195h-719l-70 -334h668l-41 -194h-668zM795 1516q-32 0 -54 21.5t-22 51.5t22 52t54 22t53.5 -22t21.5 -52t-21.5 -51.5t-53.5 -21.5z" />
    <glyph glyph-name="Ecaron.ss01" horiz-adv-x="1226" 
d="M293 195h723l-41 -195h-944l305 1434h936l-41 -195h-719l-70 -334h668l-41 -194h-668zM831 1591l254 37l-10 -47l-262 -86l-244 86l11 47z" />
    <glyph glyph-name="Eogonek.ss01" horiz-adv-x="1226" 
d="M293 195h723l-41 -195h-944l305 1434h936l-41 -195h-719l-70 -334h668l-41 -194h-668zM938 -145l-20 -95h-119q-76 0 -115 29.5t-39 81.5q0 139 275 184l55 -55q-108 0 -164.5 -30.5t-56.5 -67.5q0 -47 63 -47h121z" />
    <glyph glyph-name="Emacron.ss01" horiz-adv-x="1226" 
d="M293 195h723l-41 -195h-944l305 1434h936l-41 -195h-719l-70 -334h668l-41 -194h-668zM1049 1516h-476l17 79h475z" />
    <glyph glyph-name="Gdotaccent.ss01" horiz-adv-x="1523" 
d="M1417 688l-14 -70q-30 -147 -99 -268t-163 -201.5t-208.5 -124.5t-236.5 -44t-231.5 45.5t-190.5 126.5t-128.5 199.5t-47.5 256.5q0 130 35 254.5t102.5 231t159 187.5t213 127t256.5 46q218 0 376.5 -120.5t178.5 -313.5l-221 -51q-19 116 -114.5 198t-245.5 82
q-143 0 -261.5 -91.5t-183.5 -237t-65 -306.5q0 -188 108 -311q112 -121 277 -121q139 0 257 85t171 231h-383l41 190h618zM887 1516q-32 0 -54 21.5t-22 51.5t22 52t54 22t54 -22t22 -52t-22 -51.5t-54 -21.5z" />
    <glyph glyph-name="Gbreve.ss01" horiz-adv-x="1523" 
d="M1417 688l-14 -70q-30 -147 -99 -268t-163 -201.5t-208.5 -124.5t-236.5 -44t-231.5 45.5t-190.5 126.5t-128.5 199.5t-47.5 256.5q0 130 35 254.5t102.5 231t159 187.5t213 127t256.5 46q218 0 376.5 -120.5t178.5 -313.5l-221 -51q-19 116 -114.5 198t-245.5 82
q-143 0 -261.5 -91.5t-183.5 -237t-65 -306.5q0 -188 108 -311q112 -121 277 -121q139 0 257 85t171 231h-383l41 190h618zM950 1505h-90q-174 0 -176 125h80q1 -32 29.5 -42.5t83.5 -10.5h77q53 0 82.5 11t42.5 42h80q-27 -75 -78.5 -100t-130.5 -25z" />
    <glyph glyph-name="Gcircumflex.ss01" horiz-adv-x="1523" 
d="M1417 688l-14 -70q-30 -147 -99 -268t-163 -201.5t-208.5 -124.5t-236.5 -44t-231.5 45.5t-190.5 126.5t-128.5 199.5t-47.5 256.5q0 130 35 254.5t102.5 231t159 187.5t213 127t256.5 46q218 0 376.5 -120.5t178.5 -313.5l-221 -51q-19 116 -114.5 198t-245.5 82
q-143 0 -261.5 -91.5t-183.5 -237t-65 -306.5q0 -188 108 -311q112 -121 277 -121q139 0 257 85t171 231h-383l41 190h618zM899 1532l-254 -37l10 47l263 86l243 -86l-10 -47z" />
    <glyph glyph-name="Gcommaaccent.ss01" horiz-adv-x="1523" 
d="M1417 688l-14 -70q-30 -147 -99 -268t-163 -201.5t-208.5 -124.5t-236.5 -44t-231.5 45.5t-190.5 126.5t-128.5 199.5t-47.5 256.5q0 130 35 254.5t102.5 231t159 187.5t213 127t256.5 46q218 0 376.5 -120.5t178.5 -313.5l-221 -51q-19 116 -114.5 198t-245.5 82
q-143 0 -261.5 -91.5t-183.5 -237t-65 -306.5q0 -188 108 -311q112 -121 277 -121q139 0 257 85t171 231h-383l41 190h618zM598 -252h-125l78 156h131z" />
    <glyph glyph-name="Hcircumflex.ss01" horiz-adv-x="1501" 
d="M1165 0h-219l160 750h-696l-160 -750h-219l305 1434h219l-104 -490h696l104 490h219zM903 1532l-254 -37l10 47l263 86l243 -86l-10 -47z" />
    <glyph glyph-name="Iacute.ss01" horiz-adv-x="583" 
d="M250 0h-219l305 1434h219zM715 1516h-506l8 34l516 64h4z" />
    <glyph glyph-name="Idieresis.ss01" horiz-adv-x="583" 
d="M250 0h-219l305 1434h219zM684 1516h-180l18 81h183zM422 1516h-180l18 81h180z" />
    <glyph glyph-name="Icircumflex.ss01" horiz-adv-x="583" 
d="M250 0h-219l305 1434h219zM459 1532l-254 -37l10 47l262 86l244 -86l-10 -47z" />
    <glyph glyph-name="Igrave.ss01" horiz-adv-x="583" 
d="M250 0h-219l305 1434h219zM715 1516h-506l22 100h5l487 -66z" />
    <glyph glyph-name="Ibreve.ss01" horiz-adv-x="583" 
d="M250 0h-219l305 1434h219zM510 1505h-90q-174 0 -176 125h80q1 -32 29 -42.5t83 -10.5h78q53 0 82.5 11t42.5 42h80q-27 -75 -78.5 -100t-130.5 -25z" />
    <glyph glyph-name="Itilde.ss01" horiz-adv-x="583" 
d="M250 0h-219l305 1434h219zM274 1479l-77 16q15 53 43.5 82t81.5 29q26 0 88 -9l188 -20q54 -3 68 47l77 -16q-13 -54 -40.5 -82.5t-81.5 -28.5q-34 0 -89 8l-188 21q-30 1 -44.5 -9.5t-25.5 -37.5z" />
    <glyph glyph-name="Idotaccent.ss01" horiz-adv-x="583" 
d="M250 0h-219l305 1434h219zM715 1516h-506l8 34l516 64h4z" />
    <glyph glyph-name="Icaron.ss01" horiz-adv-x="583" 
d="M250 0h-219l305 1434h219zM483 1591l254 37l-10 -47l-262 -86l-244 86l10 47z" />
    <glyph glyph-name="Iogonek.ss01" horiz-adv-x="583" 
d="M250 0h-219l305 1434h219zM213 -145l-20 -95h-119q-76 0 -115 29.5t-39 81.5q0 139 275 184l55 -55q-108 0 -164.5 -30.5t-56.5 -67.5q0 -47 63 -47h121z" />
    <glyph glyph-name="Imacron.ss01" horiz-adv-x="583" 
d="M250 0h-219l305 1434h219zM700 1516h-475l17 79h475z" />
    <glyph glyph-name="Jcircumflex.ss01" horiz-adv-x="1067" 
d="M362 -18q-83 0 -157 26t-131 76t-89 129.5t-30 179.5l215 27q0 -111 56 -173.5t155 -62.5q88 0 148.5 63t86.5 181l215 1006h220l-226 -1055q-38 -190 -158.5 -293.5t-304.5 -103.5zM954 1532l-254 -37l11 47l262 86l244 -86l-11 -47z" />
    <glyph glyph-name="Kcommaaccent.ss01" horiz-adv-x="1300" 
d="M1135 0h-236l-276 815l-242 -197l-131 -618h-219l305 1434h219l-115 -539l666 539h311l-614 -486zM539 -252h-125l78 156h131z" />
    <glyph glyph-name="Lacute.ss01" horiz-adv-x="1093" 
d="M891 0h-860l305 1434h219l-264 -1239h643zM715 1516h-506l8 34l516 64h4z" />
    <glyph glyph-name="Lcommaaccent.ss01" horiz-adv-x="1093" 
d="M891 0h-860l305 1434h219l-264 -1239h643zM469 -252h-125l78 156h131z" />
    <glyph glyph-name="Nacute.ss01" horiz-adv-x="1497" 
d="M1161 0h-211l-475 1079l-229 -1079h-215l305 1434h211l475 -1084l229 1084h215zM1165 1516h-506l9 34l516 64h4z" />
    <glyph glyph-name="Ntilde.ss01" horiz-adv-x="1497" 
d="M1161 0h-211l-475 1079l-229 -1079h-215l305 1434h211l475 -1084l229 1084h215zM725 1479l-78 16q15 53 43.5 82t81.5 29q26 0 88 -9l189 -20q53 -3 67 47l78 -16q-13 -54 -41 -82.5t-82 -28.5q-33 0 -88 8l-188 21q-30 1 -44.5 -9.5t-25.5 -37.5z" />
    <glyph glyph-name="Ncommaaccent.ss01" horiz-adv-x="1497" 
d="M1161 0h-211l-475 1079l-229 -1079h-215l305 1434h211l475 -1084l229 1084h215zM565 -252h-125l78 156h131z" />
    <glyph glyph-name="Ncaron.ss01" horiz-adv-x="1497" 
d="M1161 0h-211l-475 1079l-229 -1079h-215l305 1434h211l475 -1084l229 1084h215zM934 1591l254 37l-10 -47l-263 -86l-243 86l10 47z" />
    <glyph glyph-name="Eng.ss01" horiz-adv-x="1497" 
d="M846 -254q-88 0 -155.5 38.5t-96.5 106.5l158 103q37 -66 100 -66q36 0 64.5 26.5t39.5 82.5l9 37l-490 1009l-229 -1083h-215l305 1434h211l489 -1020l215 1020h215l-299 -1416q-28 -134 -116 -203t-205 -69z" />
    <glyph glyph-name="Oacute.ss01" horiz-adv-x="1550" 
d="M692 -20q-124 0 -233.5 47t-189 129.5t-125.5 200t-46 251.5q0 157 56.5 308.5t154.5 271t242.5 193t308.5 73.5q166 0 302.5 -80.5t215 -224.5t78.5 -322q0 -125 -36 -249t-104.5 -231t-160 -189.5t-212 -130t-251.5 -47.5zM709 184q107 0 204.5 55.5t165.5 144.5
t108 203t40 230q0 186 -108 309t-277 123q-106 0 -203.5 -55t-165 -143.5t-107.5 -202.5t-40 -230q0 -189 108 -311.5t275 -122.5zM1139 1516h-506l8 34l516 64h4z" />
    <glyph glyph-name="Ocircumflex.ss01" horiz-adv-x="1550" 
d="M692 -20q-124 0 -233.5 47t-189 129.5t-125.5 200t-46 251.5q0 157 56.5 308.5t154.5 271t242.5 193t308.5 73.5q166 0 302.5 -80.5t215 -224.5t78.5 -322q0 -125 -36 -249t-104.5 -231t-160 -189.5t-212 -130t-251.5 -47.5zM709 184q107 0 204.5 55.5t165.5 144.5
t108 203t40 230q0 186 -108 309t-277 123q-106 0 -203.5 -55t-165 -143.5t-107.5 -202.5t-40 -230q0 -189 108 -311.5t275 -122.5zM883 1532l-254 -37l10 47l262 86l244 -86l-10 -47z" />
    <glyph glyph-name="Odieresis.ss01" horiz-adv-x="1550" 
d="M692 -20q-124 0 -233.5 47t-189 129.5t-125.5 200t-46 251.5q0 157 56.5 308.5t154.5 271t242.5 193t308.5 73.5q166 0 302.5 -80.5t215 -224.5t78.5 -322q0 -125 -36 -249t-104.5 -231t-160 -189.5t-212 -130t-251.5 -47.5zM709 184q107 0 204.5 55.5t165.5 144.5
t108 203t40 230q0 186 -108 309t-277 123q-106 0 -203.5 -55t-165 -143.5t-107.5 -202.5t-40 -230q0 -189 108 -311.5t275 -122.5zM1176 1516h-236l18 79h234zM829 1516h-233l16 79h236z" />
    <glyph glyph-name="Ohungarumlaut.ss01" horiz-adv-x="1550" 
d="M692 -20q-124 0 -233.5 47t-189 129.5t-125.5 200t-46 251.5q0 157 56.5 308.5t154.5 271t242.5 193t308.5 73.5q166 0 302.5 -80.5t215 -224.5t78.5 -322q0 -125 -36 -249t-104.5 -231t-160 -189.5t-212 -130t-251.5 -47.5zM709 184q107 0 204.5 55.5t165.5 144.5
t108 203t40 230q0 186 -108 309t-277 123q-106 0 -203.5 -55t-165 -143.5t-107.5 -202.5t-40 -230q0 -189 108 -311.5t275 -122.5zM1200 1516h-260l10 38l269 60h4zM831 1516h-258l9 38l268 60h4z" />
    <glyph glyph-name="Ograve.ss01" horiz-adv-x="1550" 
d="M692 -20q-124 0 -233.5 47t-189 129.5t-125.5 200t-46 251.5q0 157 56.5 308.5t154.5 271t242.5 193t308.5 73.5q166 0 302.5 -80.5t215 -224.5t78.5 -322q0 -125 -36 -249t-104.5 -231t-160 -189.5t-212 -130t-251.5 -47.5zM709 184q107 0 204.5 55.5t165.5 144.5
t108 203t40 230q0 186 -108 309t-277 123q-106 0 -203.5 -55t-165 -143.5t-107.5 -202.5t-40 -230q0 -189 108 -311.5t275 -122.5zM1139 1516h-506l22 100h4l488 -66z" />
    <glyph glyph-name="Otilde.ss01" horiz-adv-x="1550" 
d="M692 -20q-124 0 -233.5 47t-189 129.5t-125.5 200t-46 251.5q0 157 56.5 308.5t154.5 271t242.5 193t308.5 73.5q166 0 302.5 -80.5t215 -224.5t78.5 -322q0 -125 -36 -249t-104.5 -231t-160 -189.5t-212 -130t-251.5 -47.5zM709 184q107 0 204.5 55.5t165.5 144.5
t108 203t40 230q0 186 -108 309t-277 123q-106 0 -203.5 -55t-165 -143.5t-107.5 -202.5t-40 -230q0 -189 108 -311.5t275 -122.5zM698 1479l-77 16q15 53 43 82t81 29q27 0 89 -9l188 -20q54 -3 68 47l77 -16q-13 -54 -41 -82.5t-82 -28.5q-33 0 -88 8l-188 21
q-30 1 -44.5 -9.5t-25.5 -37.5z" />
    <glyph glyph-name="Omacron.ss01" horiz-adv-x="1550" 
d="M692 -20q-124 0 -233.5 47t-189 129.5t-125.5 200t-46 251.5q0 157 56.5 308.5t154.5 271t242.5 193t308.5 73.5q166 0 302.5 -80.5t215 -224.5t78.5 -322q0 -125 -36 -249t-104.5 -231t-160 -189.5t-212 -130t-251.5 -47.5zM709 184q107 0 204.5 55.5t165.5 144.5
t108 203t40 230q0 186 -108 309t-277 123q-106 0 -203.5 -55t-165 -143.5t-107.5 -202.5t-40 -230q0 -189 108 -311.5t275 -122.5zM1124 1516h-475l17 79h475z" />
    <glyph glyph-name="Obreve.ss01" horiz-adv-x="1550" 
d="M692 -20q-124 0 -233.5 47t-189 129.5t-125.5 200t-46 251.5q0 157 56.5 308.5t154.5 271t242.5 193t308.5 73.5q166 0 302.5 -80.5t215 -224.5t78.5 -322q0 -125 -36 -249t-104.5 -231t-160 -189.5t-212 -130t-251.5 -47.5zM709 184q107 0 204.5 55.5t165.5 144.5
t108 203t40 230q0 186 -108 309t-277 123q-106 0 -203.5 -55t-165 -143.5t-107.5 -202.5t-40 -230q0 -189 108 -311.5t275 -122.5zM934 1505h-90q-174 0 -176 125h80q1 -32 29 -42.5t83 -10.5h78q53 0 82.5 11t42.5 42h80q-27 -75 -78.5 -100t-130.5 -25z" />
    <glyph glyph-name="Oslashacute.ss01" horiz-adv-x="1550" 
d="M326 618q0 -131 55 -235l684 793q-92 73 -223 73q-106 0 -203.5 -55t-165 -143.5t-107.5 -202.5t-40 -230zM709 184q107 0 204.5 55.5t165.5 144.5t108 203t40 230q0 123 -58 236l-682 -795q93 -74 222 -74zM692 -20q-199 0 -348 112l-168 -194h-211l264 307
q-131 169 -131 403q0 157 56.5 308.5t154.5 271t242.5 193t308.5 73.5q188 0 348 -111l166 193h213l-264 -305q133 -168 133 -404q0 -125 -36 -249t-104.5 -231t-160 -189.5t-212 -130t-251.5 -47.5zM1108 1516h-506l8 34l516 64h4z" />
    <glyph glyph-name="Rcommaaccent.ss01" horiz-adv-x="1282" 
d="M813 1239h-303l-84 -397h334q108 0 179 65t71 154q0 85 -53.5 131.5t-143.5 46.5zM1102 0h-236l-229 649h-252l-137 -649h-217l305 1434h518q175 0 280 -95.5t105 -259.5q0 -95 -42 -182t-118 -143q-102 -73 -221 -95zM524 -252h-125l78 156h131z" />
    <glyph glyph-name="Rcaron.ss01" horiz-adv-x="1282" 
d="M813 1239h-303l-84 -397h334q108 0 179 65t71 154q0 85 -53.5 131.5t-143.5 46.5zM1102 0h-236l-229 649h-252l-137 -649h-217l305 1434h518q175 0 280 -95.5t105 -259.5q0 -95 -42 -182t-118 -143q-102 -73 -221 -95zM776 1591l254 37l-10 -47l-262 -86l-244 86l10 47z
" />
    <glyph glyph-name="Racute.ss01" horiz-adv-x="1282" 
d="M813 1239h-303l-84 -397h334q108 0 179 65t71 154q0 85 -53.5 131.5t-143.5 46.5zM1102 0h-236l-229 649h-252l-137 -649h-217l305 1434h518q175 0 280 -95.5t105 -259.5q0 -95 -42 -182t-118 -143q-102 -73 -221 -95zM1008 1516h-506l8 34l516 64h4z" />
    <glyph glyph-name="Scaron.ss01" horiz-adv-x="1230" 
d="M553 -20q-113 0 -206 27.5t-166 84t-113.5 151.5t-40.5 222v35l215 12q-2 -18 -2 -41q1 -149 88 -227t233 -78q107 0 191 68t84 169q0 80 -55.5 136t-186.5 112l-117 49q-130 55 -200 143t-70 193q0 177 141 297.5t350 120.5q205 0 340.5 -105.5t135.5 -275.5
q0 -8 -4 -29t-5 -32l-211 -4q2 16 2 39q0 115 -82 167q-85 54 -186 54q-113 0 -187.5 -55t-74.5 -142q0 -63 46.5 -110t156.5 -97l119 -51q311 -133 311 -385q0 -94 -39 -177.5t-106 -142.5t-161 -93.5t-200 -34.5zM778 1587l254 37l-10 -47l-262 -86l-244 86l10 47z" />
    <glyph glyph-name="Scedilla.ss01" horiz-adv-x="1230" 
d="M553 -20q-113 0 -206 27.5t-166 84t-113.5 151.5t-40.5 222v35l215 12q-2 -18 -2 -41q1 -149 88 -227t233 -78q107 0 191 68t84 169q0 80 -55.5 136t-186.5 112l-117 49q-130 55 -200 143t-70 193q0 177 141 297.5t350 120.5q205 0 340.5 -105.5t135.5 -275.5
q0 -8 -4 -29t-5 -32l-211 -4q2 16 2 39q0 115 -82 167q-85 54 -186 54q-113 0 -187.5 -55t-74.5 -142q0 -63 46.5 -110t156.5 -97l119 -51q311 -133 311 -385q0 -94 -39 -177.5t-106 -142.5t-161 -93.5t-200 -34.5zM365 -248h-140l23 101h108q64 0 90.5 19.5t40.5 70.5
l103 -4q-42 -187 -225 -187z" />
    <glyph glyph-name="Scircumflex.ss01" horiz-adv-x="1230" 
d="M553 -20q-113 0 -206 27.5t-166 84t-113.5 151.5t-40.5 222v35l215 12q-2 -18 -2 -41q1 -149 88 -227t233 -78q107 0 191 68t84 169q0 80 -55.5 136t-186.5 112l-117 49q-130 55 -200 143t-70 193q0 177 141 297.5t350 120.5q205 0 340.5 -105.5t135.5 -275.5
q0 -8 -4 -29t-5 -32l-211 -4q2 16 2 39q0 115 -82 167q-85 54 -186 54q-113 0 -187.5 -55t-74.5 -142q0 -63 46.5 -110t156.5 -97l119 -51q311 -133 311 -385q0 -94 -39 -177.5t-106 -142.5t-161 -93.5t-200 -34.5zM754 1528l-254 -37l10 47l262 86l244 -86l-10 -47z" />
    <glyph glyph-name="Scommaaccent.ss01" horiz-adv-x="1230" 
d="M553 -20q-113 0 -206 27.5t-166 84t-113.5 151.5t-40.5 222v35l215 12q-2 -18 -2 -41q1 -149 88 -227t233 -78q107 0 191 68t84 169q0 80 -55.5 136t-186.5 112l-117 49q-130 55 -200 143t-70 193q0 177 141 297.5t350 120.5q205 0 340.5 -105.5t135.5 -275.5
q0 -8 -4 -29t-5 -32l-211 -4q2 16 2 39q0 115 -82 167q-85 54 -186 54q-113 0 -187.5 -55t-74.5 -142q0 -63 46.5 -110t156.5 -97l119 -51q311 -133 311 -385q0 -94 -39 -177.5t-106 -142.5t-161 -93.5t-200 -34.5zM449 -252h-125l77 156h131z" />
    <glyph glyph-name="Sacute.ss01" horiz-adv-x="1230" 
d="M553 -20q-113 0 -206 27.5t-166 84t-113.5 151.5t-40.5 222v35l215 12q-2 -18 -2 -41q1 -149 88 -227t233 -78q107 0 191 68t84 169q0 80 -55.5 136t-186.5 112l-117 49q-130 55 -200 143t-70 193q0 177 141 297.5t350 120.5q205 0 340.5 -105.5t135.5 -275.5
q0 -8 -4 -29t-5 -32l-211 -4q2 16 2 39q0 115 -82 167q-85 54 -186 54q-113 0 -187.5 -55t-74.5 -142q0 -63 46.5 -110t156.5 -97l119 -51q311 -133 311 -385q0 -94 -39 -177.5t-106 -142.5t-161 -93.5t-200 -34.5zM1010 1511h-506l8 35l516 64h4z" />
    <glyph glyph-name="Tcaron.ss01" horiz-adv-x="1173" 
d="M1280 1434l-41 -195h-432l-262 -1239h-221l264 1239h-430l41 195h1081zM778 1591l254 37l-10 -47l-262 -86l-244 86l10 47z" />
    <glyph glyph-name="Tcommaaccent.ss01" horiz-adv-x="1173" 
d="M1280 1434l-41 -195h-432l-262 -1239h-221l264 1239h-430l41 195h1081zM401 -252h-125l78 156h131z" />
    <glyph glyph-name="Uacute.ss01" horiz-adv-x="1406" 
d="M616 -20q-121 0 -221 37.5t-170.5 113t-94.5 189t7 264.5l180 850h220l-183 -859q-40 -194 43 -294q88 -97 236 -97q158 0 235 95q78 92 113 243l195 912h219l-199 -934q-111 -520 -580 -520zM1112 1516h-506l8 34l516 64h5z" />
    <glyph glyph-name="Ucircumflex.ss01" horiz-adv-x="1406" 
d="M616 -20q-121 0 -221 37.5t-170.5 113t-94.5 189t7 264.5l180 850h220l-183 -859q-40 -194 43 -294q88 -97 236 -97q158 0 235 95q78 92 113 243l195 912h219l-199 -934q-111 -520 -580 -520zM856 1532l-254 -37l10 47l262 86l244 -86l-10 -47z" />
    <glyph glyph-name="Udieresis.ss01" horiz-adv-x="1406" 
d="M616 -20q-121 0 -221 37.5t-170.5 113t-94.5 189t7 264.5l180 850h220l-183 -859q-40 -194 43 -294q88 -97 236 -97q158 0 235 95q78 92 113 243l195 912h219l-199 -934q-111 -520 -580 -520zM1149 1516h-236l19 79h233zM803 1516h-234l17 79h235z" />
    <glyph glyph-name="Ugrave.ss01" horiz-adv-x="1406" 
d="M616 -20q-121 0 -221 37.5t-170.5 113t-94.5 189t7 264.5l180 850h220l-183 -859q-40 -194 43 -294q88 -97 236 -97q158 0 235 95q78 92 113 243l195 912h219l-199 -934q-111 -520 -580 -520zM1112 1516h-506l23 100h4l487 -66z" />
    <glyph glyph-name="Uhungarumlaut.ss01" horiz-adv-x="1406" 
d="M616 -20q-121 0 -221 37.5t-170.5 113t-94.5 189t7 264.5l180 850h220l-183 -859q-40 -194 43 -294q88 -97 236 -97q158 0 235 95q78 92 113 243l195 912h219l-199 -934q-111 -520 -580 -520zM1174 1516h-261l11 38l268 60h4zM805 1516h-258l8 38l268 60h4z" />
    <glyph glyph-name="Uring.ss01" horiz-adv-x="1406" 
d="M616 -20q-121 0 -221 37.5t-170.5 113t-94.5 189t7 264.5l180 850h220l-183 -859q-40 -194 43 -294q88 -97 236 -97q158 0 235 95q78 92 113 243l195 912h219l-199 -934q-111 -520 -580 -520zM971 1495h-189q-129 0 -129 102q0 103 129 103h189q129 0 129 -103
q0 -102 -129 -102zM772 1569h209q37 0 37 28q0 31 -37 31h-209q-17 0 -27 -8.5t-10 -22.5q0 -28 37 -28z" />
    <glyph glyph-name="Umacron.ss01" horiz-adv-x="1406" 
d="M616 -20q-121 0 -221 37.5t-170.5 113t-94.5 189t7 264.5l180 850h220l-183 -859q-40 -194 43 -294q88 -97 236 -97q158 0 235 95q78 92 113 243l195 912h219l-199 -934q-111 -520 -580 -520zM1098 1516h-475l16 79h475z" />
    <glyph glyph-name="Ubreve.ss01" horiz-adv-x="1406" 
d="M616 -20q-121 0 -221 37.5t-170.5 113t-94.5 189t7 264.5l180 850h220l-183 -859q-40 -194 43 -294q88 -97 236 -97q158 0 235 95q78 92 113 243l195 912h219l-199 -934q-111 -520 -580 -520zM907 1505h-90q-173 0 -176 125h80q1 -32 29.5 -42.5t83.5 -10.5h77
q53 0 82.5 11t42.5 42h80q-27 -75 -78.5 -100t-130.5 -25z" />
    <glyph glyph-name="Utilde.ss01" horiz-adv-x="1406" 
d="M616 -20q-121 0 -221 37.5t-170.5 113t-94.5 189t7 264.5l180 850h220l-183 -859q-40 -194 43 -294q88 -97 236 -97q158 0 235 95q78 92 113 243l195 912h219l-199 -934q-111 -520 -580 -520zM672 1479l-78 16q15 53 43.5 82t81.5 29q27 0 88 -9l188 -20q54 -3 68 47
l78 -16q-13 -54 -41 -82.5t-82 -28.5q-33 0 -88 8l-189 21q-30 1 -44 -9t-25 -38z" />
    <glyph glyph-name="Uogonek.ss01" horiz-adv-x="1406" 
d="M893 -145l-21 -95h-135q-76 0 -114.5 30t-38.5 83q0 56 51 107h-2q-121 0 -221 37.5t-170.5 113t-94.5 189t7 264.5l180 850h219l-182 -859q-40 -194 43 -294q88 -97 235 -97q159 0 236 95q76 91 112 243l195 912h219l-199 -934q-39 -198 -139 -326.5t-260 -171.5
q-53 -15 -88 -40t-35 -58q0 -23 17.5 -36t48.5 -13h137z" />
    <glyph glyph-name="Wdieresis.ss01" horiz-adv-x="1757" 
d="M1221 0h-232l-106 791l-445 -791h-227l-21 1434h216l8 -1123l471 844h143l109 -854l489 1133h223zM1321 1513h-236l19 80h233zM975 1513h-234l17 80h235z" />
    <glyph glyph-name="Wacute.ss01" horiz-adv-x="1757" 
d="M1221 0h-232l-106 791l-445 -791h-227l-21 1434h216l8 -1123l471 844h143l109 -854l489 1133h223zM1284 1513h-506l8 35l517 64h4z" />
    <glyph glyph-name="Wgrave.ss01" horiz-adv-x="1757" 
d="M1221 0h-232l-106 791l-445 -791h-227l-21 1434h216l8 -1123l471 844h143l109 -854l489 1133h223zM1284 1513h-506l23 101h4l487 -66z" />
    <glyph glyph-name="Wcircumflex.ss01" horiz-adv-x="1757" 
d="M1221 0h-232l-106 791l-445 -791h-227l-21 1434h216l8 -1123l471 844h143l109 -854l489 1133h223zM1028 1530l-254 -37l10 47l263 86l243 -86l-10 -47z" />
    <glyph glyph-name="Yacute.ss01" horiz-adv-x="1169" 
d="M692 719l-149 -719h-221l153 725l-309 709h237l215 -512l429 512h262zM987 1513h-506l8 35l517 64h4z" />
    <glyph glyph-name="Ydieresis.ss01" horiz-adv-x="1169" 
d="M692 719l-149 -719h-221l153 725l-309 709h237l215 -512l429 512h262zM1024 1513h-236l19 80h233zM678 1513h-234l17 80h235z" />
    <glyph glyph-name="Ygrave.ss01" horiz-adv-x="1169" 
d="M692 719l-149 -719h-221l153 725l-309 709h237l215 -512l429 512h262zM987 1513h-506l23 101h4l487 -66z" />
    <glyph glyph-name="Ycircumflex.ss01" horiz-adv-x="1169" 
d="M692 719l-149 -719h-221l153 725l-309 709h237l215 -512l429 512h262zM731 1530l-254 -37l10 47l263 86l243 -86l-10 -47z" />
    <glyph glyph-name="Zcaron.ss01" horiz-adv-x="1161" 
d="M989 195l-43 -195h-1046l28 141l973 1098h-698l43 195h999l-28 -142l-973 -1097h745zM735 1591l254 37l-10 -47l-262 -86l-244 86l10 47z" />
    <glyph glyph-name="Zdotaccent.ss01" horiz-adv-x="1161" 
d="M989 195l-43 -195h-1046l28 141l973 1098h-698l43 195h999l-28 -142l-973 -1097h745zM698 1516q-32 0 -53.5 21.5t-21.5 51.5t21.5 52t53.5 22t54 -22t22 -52t-22 -51.5t-54 -21.5z" />
    <glyph glyph-name="Zacute.ss01" horiz-adv-x="1161" 
d="M989 195l-43 -195h-1046l28 141l973 1098h-698l43 195h999l-28 -142l-973 -1097h745zM967 1516h-506l8 34l516 64h4z" />
    <glyph glyph-name="f.alt" horiz-adv-x="671" 
d="M711 1008l-37 -177h-232l-260 -1220h-205l261 1220h-156l37 177h155l31 145q36 179 131 254q87 72 228 72q90 0 158.5 -30.5t105.5 -80.5l-142 -125q-44 57 -120 57q-59 0 -100 -35t-54 -106l-33 -151h232z" />
    <glyph glyph-name="fi.alt" horiz-adv-x="1212" 
d="M1067 1194q-55 0 -93 38t-38 93q0 57 37.5 94t93.5 37t93.5 -37t37.5 -94q0 -55 -38 -93t-93 -38zM891 0h-209l176 831h-416l-260 -1220h-205l259 1220h-154l37 177h153l35 159q36 168 127 242q90 70 221 70q88 0 181 -39l-91 -166q-55 24 -98 24q-49 0 -84.5 -29.5
t-48.5 -94.5l-35 -166h625z" />
    <glyph glyph-name="fl.alt" horiz-adv-x="1212" 
d="M891 0h-209l313 1470h209zM711 1008l-37 -177h-232l-260 -1220h-205l259 1220h-154l37 177h153l35 159q36 168 127 242q90 70 221 70q88 0 181 -39l-91 -166q-55 24 -98 24q-49 0 -84.5 -29.5t-48.5 -94.5l-35 -166h232z" />
    <glyph glyph-name="ff.alt" horiz-adv-x="1294" 
d="M805 -389h-205l260 1220h-418l-260 -1220h-205l259 1220h-154l37 177h153l37 170q20 85 45.5 138t71.5 93q79 70 211 70q62 0 120.5 -21.5t88.5 -52.5l-113 -143q-39 36 -98 36q-94 0 -117 -106l-39 -184h418l31 145q36 179 131 254q87 72 227 72q90 0 158.5 -30.5
t105.5 -80.5l-141 -125q-44 57 -121 57q-59 0 -99.5 -35t-53.5 -106l-33 -151h231l-37 -177h-231z" />
    <glyph glyph-name="f_f_i.alt" horiz-adv-x="1835" 
d="M1690 1194q-56 0 -93.5 38t-37.5 93q0 57 37.5 94t93.5 37t93.5 -37t37.5 -94q0 -55 -37.5 -93t-93.5 -38zM805 -389h-205l258 1220h-416l-260 -1220h-205l259 1220h-154l37 177h153l37 170q20 85 45.5 138t71.5 93q79 70 211 70q62 0 120.5 -21.5t88.5 -52.5l-113 -143
q-39 36 -98 36q-94 0 -117 -106l-39 -184h416l35 159q36 168 127 242q90 70 221 70q87 0 180 -39l-90 -166q-55 24 -98 24q-49 0 -84.5 -29.5t-48.5 -94.5l-35 -166h624l-213 -1008h-208l176 831h-416z" />
    <glyph glyph-name="f_j.alt" horiz-adv-x="1212" 
d="M1067 1194q-55 0 -93 38t-38 93q0 57 37.5 94t93.5 37t93.5 -37t37.5 -94q0 -55 -38 -93t-93 -38zM512 -410q-26 0 -61 7l36 178h25q121 0 152 141l194 915h-416l-260 -1220h-205l259 1220h-154l37 177h153l35 159q36 168 127 242q90 70 221 70q88 0 181 -39l-91 -166
q-55 24 -98 24q-49 0 -84.5 -29.5t-48.5 -94.5l-35 -166h625l-236 -1112q-31 -156 -123.5 -231t-232.5 -75z" />
    <glyph glyph-name="f_b.alt" horiz-adv-x="1861" 
d="M1192 -20q-94 0 -171.5 38.5t-115.5 104.5l-26 -123h-197l313 1470h209l-119 -552q45 52 114 83t147 31q169 0 280 -114q113 -113 113 -304q0 -114 -38 -226t-106 -203.5t-173.5 -148t-229.5 -56.5zM1194 170q80 0 145.5 40.5t104.5 105t59.5 136t20.5 140.5
q0 117 -61.5 184.5t-162.5 67.5q-99 0 -178 -67t-108 -199l-29 -132q-6 -27 -6 -65q0 -96 60.5 -153.5t154.5 -57.5zM711 1008l-37 -177h-232l-260 -1220h-205l259 1220h-154l37 177h153l35 159q36 168 127 242q90 70 221 70q88 0 181 -39l-91 -166q-55 24 -98 24
q-49 0 -84.5 -29.5t-48.5 -94.5l-35 -166h232z" />
    <glyph glyph-name="f_f_l.alt" horiz-adv-x="1835" 
d="M1513 0h-208l313 1470h209zM805 -389h-205l258 1220h-416l-260 -1220h-205l259 1220h-154l37 177h153l37 170q20 85 45.5 138t71.5 93q79 70 211 70q62 0 120.5 -21.5t88.5 -52.5l-113 -143q-39 36 -98 36q-94 0 -117 -106l-39 -184h416l35 159q36 168 127 242
q90 70 221 70q87 0 180 -39l-90 -166q-55 24 -98 24q-49 0 -84.5 -29.5t-48.5 -94.5l-35 -166h231l-37 -177h-231z" />
    </font>
</defs>
</svg>
