<?xml version="1.0" standalone="no"?>
<!DOCTYPE svg PUBLIC "-//W3C//DTD SVG 1.1//EN" "http://www.w3.org/Graphics/SVG/1.1/DTD/svg11.dtd" >
<svg xmlns="http://www.w3.org/2000/svg" xmlns:xlink="http://www.w3.org/1999/xlink" version="1.1">
<metadata>
Created by FontForge 20170731 at Wed May 12 14:46:35 2021
 By Aleksey,,,
Copyright (c) 2016 by Fatype. All rights reserved.
</metadata>
<defs>
<font id="BatonTurbo-Medium" horiz-adv-x="589" >
  <font-face 
    font-family="Baton Turbo"
    font-weight="500"
    font-stretch="normal"
    units-per-em="2048"
    panose-1="2 11 6 3 3 2 2 6 2 3"
    ascent="1536"
    descent="-512"
    x-height="1014"
    cap-height="1434"
    bbox="-307 -526 2834 2275"
    underline-thickness="0"
    underline-position="0"
    unicode-range="U+000D-FB04"
  />
<missing-glyph horiz-adv-x="1126" 
d="M1024 0h-922v1434h922v-1434zM205 1331v-1229h717v1229h-717z" />
    <glyph glyph-name="ff" unicode="ff" horiz-adv-x="1339" 
d="M1081 0h-247v805h-383v-805h-248v805h-154v209h154v129q0 173 92 258q84 78 223 78q124 0 213 -60l-88 -184q-50 33 -96 33q-43 0 -69.5 -26t-26.5 -83v-145h383v119q0 178 98 266q41 38 103.5 59t129.5 21q204 0 297 -113l-137 -152q-53 56 -127 56q-53 0 -85 -31.5
t-32 -97.5v-127h230v-209h-230v-805z" />
    <glyph glyph-name="fi" unicode="fi" horiz-adv-x="1234" 
d="M958 1174q-63 0 -106 43t-43 106t43 105t106 42q64 0 108 -42t44 -105t-44.5 -106t-107.5 -43zM1083 0h-249v805h-383v-805h-248v805h-154v209h154v125q0 178 94 262q84 78 225 78q102 0 185 -31l-60 -203q-53 23 -92 23q-47 0 -75.5 -28.5t-28.5 -88.5v-137h632v-1014z
" />
    <glyph glyph-name="fl" unicode="fl" horiz-adv-x="1234" 
d="M1083 0h-249v1470h249v-1470zM680 1014v-209h-229v-805h-248v805h-154v209h154v125q0 178 94 262q84 78 225 78q102 0 185 -31l-60 -203q-53 23 -92 23q-47 0 -75.5 -28.5t-28.5 -88.5v-137h229z" />
    <glyph glyph-name="f_f_i" unicode="ffi" horiz-adv-x="1865" 
d="M1589 1174q-63 0 -106 43t-43 106t43 105t106 42t107.5 -42t44.5 -105t-44.5 -106t-107.5 -43zM1081 0h-247v805h-383v-805h-248v805h-154v209h154v129q0 173 92 258q84 78 223 78q124 0 213 -60l-88 -184q-50 33 -96 33q-43 0 -69.5 -26t-26.5 -83v-145h383v125
q0 178 94 262q84 78 225 78q101 0 184 -31l-59 -203q-53 23 -92 23q-47 0 -76 -28.5t-29 -88.5v-137h633v-1014h-250v805h-383v-805z" />
    <glyph glyph-name="f_f_l" unicode="ffl" horiz-adv-x="1865" 
d="M1714 0h-250v1470h250v-1470zM1081 0h-247v805h-383v-805h-248v805h-154v209h154v129q0 173 92 258q84 78 223 78q117 0 195 -49l-74 -193q-48 31 -94 31q-94 0 -94 -109v-145h383v125q0 178 94 262q84 78 225 78q101 0 184 -31l-59 -203q-53 23 -92 23q-47 0 -76 -28.5
t-29 -88.5v-137h230v-209h-230v-805z" />
    <glyph glyph-name="f_j" unicode="fj" horiz-adv-x="1234" 
d="M958 1174q-63 0 -106 43t-43 106t43 105t106 42q64 0 108 -42t44 -105t-44.5 -106t-107.5 -43zM762 -416q-88 0 -163.5 33t-119.5 90l148 156q48 -62 112 -62q41 0 68 26t27 75v903h-383v-805h-248v805h-154v209h154v125q0 178 94 262q84 78 225 78q102 0 185 -31
l-60 -203q-53 23 -92 23q-47 0 -75.5 -28.5t-28.5 -88.5v-137h632v-1110q0 -159 -89 -239.5t-232 -80.5z" />
    <glyph glyph-name="f_b" unicode="fb" horiz-adv-x="1898" 
d="M1362 -18q-192 0 -295 137v-119h-233v1470h249v-536q109 104 277 104q94 0 177 -35.5t145.5 -101.5t98.5 -166.5t36 -222.5t-37 -223.5t-100 -168t-145 -102.5t-173 -36zM680 1014v-209h-229v-805h-248v805h-154v209h154v125q0 178 94 262q84 78 225 78q102 0 185 -31
l-60 -203q-53 23 -92 23q-47 0 -75.5 -28.5t-28.5 -88.5v-137h229zM1321 207q105 0 173.5 79.5t68.5 225.5q0 142 -69 221.5t-173 79.5q-99 0 -168 -65t-70 -179v-116q1 -113 69.5 -179.5t168.5 -66.5z" />
    <glyph glyph-name=".notdef" horiz-adv-x="1126" 
d="M1024 0h-922v1434h922v-1434zM205 1331v-1229h717v1229h-717z" />
    <glyph glyph-name=".null" horiz-adv-x="0" 
 />
    <glyph glyph-name="nonmarkingreturn" horiz-adv-x="682" 
 />
    <glyph glyph-name="NULL" horiz-adv-x="1024" 
 />
    <glyph glyph-name="NULL" horiz-adv-x="1024" 
 />
    <glyph glyph-name="CR" unicode="&#xd;" horiz-adv-x="1024" 
 />
    <glyph glyph-name="space" unicode=" " horiz-adv-x="493" 
 />
    <glyph glyph-name="exclam" unicode="!" horiz-adv-x="616" 
d="M414 449h-211l-33 985h276zM309 -25q-67 0 -114.5 49t-47.5 117q0 66 47.5 114t114.5 48t114.5 -48t47.5 -114q0 -68 -47.5 -117t-114.5 -49z" />
    <glyph glyph-name="quotedbl" unicode="&#x22;" horiz-adv-x="860" 
d="M326 930h-187l-33 504h252zM721 930h-186l-33 504h252z" />
    <glyph glyph-name="numbersign" unicode="#" horiz-adv-x="1474" 
d="M567 496h264l76 362h-264zM956 0h-229l59 287h-264l-59 -287h-227l59 287h-240l45 209h240l76 362h-242l45 209h242l59 285h228l-60 -285h264l60 285h229l-59 -285h239l-45 -209h-239l-76 -362h239l-45 -209h-239z" />
    <glyph glyph-name="dollar" unicode="$" horiz-adv-x="1284" 
d="M412 991q0 -62 39 -103.5t139 -66.5v338q-82 -14 -130 -58.5t-48 -109.5zM928 375q0 128 -191 176v-350q85 12 138 58t53 116zM737 -8v-207h-147v205q-202 15 -334 129t-141 346l247 24q8 -246 228 -288v379l-51 10q-375 69 -375 391q0 159 116.5 263.5t309.5 121.5v193
h147v-195q195 -19 311.5 -126t116.5 -286l-245 -24q0 100 -48.5 156.5t-134.5 70.5v-364l33 -7q205 -40 306.5 -140.5t101.5 -246.5q0 -169 -123 -280q-122 -110 -318 -125z" />
    <glyph glyph-name="percent" unicode="%" horiz-adv-x="2080" 
d="M496 627q-163 0 -269 112q-108 114 -108 305q0 188 107.5 301t269.5 113t268 -112q108 -111 108 -302t-108 -305q-106 -112 -268 -112zM496 819q75 0 120.5 60.5t45.5 164.5q0 103 -46.5 163.5t-119.5 60.5t-118.5 -60.5t-45.5 -163.5q0 -104 45.5 -164.5t118.5 -60.5z
M1587 -20q-162 0 -268 112q-109 115 -109 305q0 188 107.5 301t269.5 113q161 0 268 -113q109 -112 109 -301q0 -190 -109 -305q-106 -112 -268 -112zM1587 172q75 0 120.5 60.5t45.5 164.5q0 103 -46.5 163.5t-119.5 60.5t-118.5 -60.5t-45.5 -163.5q0 -104 45.5 -164.5
t118.5 -60.5zM645 -25l-166 119l959 1366l166 -117z" />
    <glyph glyph-name="ampersand" unicode="&#x26;" horiz-adv-x="1380" 
d="M1305 131l-175 -158l-153 164q-177 -162 -414 -162q-209 0 -342 115t-133 299q0 248 277 404q-74 90 -105 157.5t-31 143.5q0 156 115 262q116 104 289 104t288 -98.5t115 -257.5q0 -137 -78 -215q-75 -75 -223 -166l234 -242q73 131 131 281l211 -84
q-105 -246 -185 -363zM467 1090q0 -49 26 -92t93 -117q119 62 166 106t47 109q0 64 -47 107.5t-121 43.5q-75 0 -119.5 -45.5t-44.5 -111.5zM582 197q138 0 249 96l-319 338q-172 -88 -172 -234q0 -85 65 -142.5t177 -57.5z" />
    <glyph glyph-name="quotesingle" unicode="'" horiz-adv-x="464" 
d="M326 930h-187l-33 504h252z" />
    <glyph glyph-name="parenleft" unicode="(" horiz-adv-x="739" 
d="M713 -207l-172 -151q-194 186 -313 461t-119 573q0 289 118 559.5t314 462.5l172 -152q-158 -174 -255.5 -397.5t-97.5 -472.5q0 -257 97 -481.5t256 -401.5z" />
    <glyph glyph-name="parenright" unicode=")" horiz-adv-x="739" 
d="M27 1546l172 152q194 -186 313 -461t119 -573q0 -289 -118 -559.5t-314 -462.5l-172 151q157 174 254.5 398t97.5 473q0 257 -96.5 481t-255.5 401z" />
    <glyph glyph-name="asterisk" unicode="*" horiz-adv-x="929" 
d="M469 920l-162 -224l-145 107l160 221l-265 86l56 170l264 -86v276h178v-274l262 84l55 -170l-260 -82l164 -225l-145 -107z" />
    <glyph glyph-name="plus" unicode="+" horiz-adv-x="1196" 
d="M1100 813v-217h-387v-410h-230v410h-387v217h387v399h230v-399h387z" />
    <glyph glyph-name="comma" unicode="," horiz-adv-x="559" 
d="M227 -344l-131 100l38.5 52.5t42 58.5t34 53.5t31.5 61.5q-54 14 -88.5 58t-34.5 101q0 66 47.5 114t114.5 48q69 0 115 -48.5t46 -125.5q0 -199 -215 -473z" />
    <glyph glyph-name="hyphen" unicode="-" horiz-adv-x="772" 
d="M692 434h-612v217h612v-217z" />
    <glyph glyph-name="period" unicode="." horiz-adv-x="559" 
d="M281 -25q-67 0 -114.5 49t-47.5 117q0 66 47.5 114t114.5 48t114 -48t47 -114q0 -68 -47 -117t-114 -49z" />
    <glyph glyph-name="slash" unicode="/" horiz-adv-x="886" 
d="M276 -123h-245l579 1679h246z" />
    <glyph glyph-name="zero" unicode="0" horiz-adv-x="1333" 
d="M666 -25q-124 0 -226 46.5t-177.5 137.5t-117 234.5t-41.5 327.5q0 183 43 325.5t119.5 231.5t177.5 134.5t222 45.5q122 0 224 -45.5t178 -134.5t118.5 -231.5t42.5 -325.5q0 -364 -154.5 -555t-408.5 -191zM666 217q142 0 219.5 132.5t77.5 371.5q0 241 -79 369.5
t-218 128.5q-141 0 -218 -127.5t-77 -370.5q0 -239 77 -371.5t218 -132.5z" />
    <glyph glyph-name="one" unicode="1" horiz-adv-x="845" 
d="M672 1434v-1434h-258v1135l-338 -164l-19 243l437 220h178z" />
    <glyph glyph-name="two" unicode="2" horiz-adv-x="1136" 
d="M1040 231v-231h-964v186l549 562q85 86 117 146.5t32 127.5q0 87 -58 143t-151 56q-101 0 -160.5 -60t-64.5 -160h-252q9 206 141 332q134 125 338 125q216 0 345.5 -122.5t129.5 -307.5q0 -107 -51 -206.5t-168 -215.5l-385 -375h602z" />
    <glyph glyph-name="three" unicode="3" horiz-adv-x="1175" 
d="M569 -20q-139 0 -252 51.5t-182 151.5t-72 231h252q14 -92 82.5 -148.5t171.5 -56.5q105 0 175.5 61t70.5 154q0 94 -74.5 153.5t-191.5 59.5h-182v221h188q110 0 173 53.5t63 137.5q0 81 -62.5 131.5t-157.5 50.5t-157.5 -47.5t-69.5 -130.5h-250q12 187 147.5 296
t333.5 109q219 0 349 -115q129 -114 129 -278q0 -101 -55 -181t-142 -124q104 -44 165.5 -134.5t61.5 -213.5q0 -187 -145.5 -309.5t-368.5 -122.5z" />
    <glyph glyph-name="four" unicode="4" horiz-adv-x="1189" 
d="M1135 555v-225h-197v-330h-250v330h-633v182l469 922h271l-451 -879h348v274h246v-274h197z" />
    <glyph glyph-name="five" unicode="5" horiz-adv-x="1177" 
d="M573 -25q-201 0 -329 101q-128 103 -162 252l240 73q20 -87 90 -140.5t163 -53.5q109 0 180.5 70t71.5 180q0 105 -73.5 177.5t-182.5 72.5q-134 0 -233 -107h-221l82 834h829v-232h-608l-39 -332q108 64 229 64q215 0 348.5 -133.5t133.5 -339.5q0 -144 -70 -256
t-187.5 -171t-261.5 -59z" />
    <glyph glyph-name="six" unicode="6" horiz-adv-x="1230" 
d="M1143 457q0 -206 -146 -344t-362 -138q-146 0 -266.5 68t-188.5 213q-78 159 -78 408q0 256 49.5 412.5t143.5 248.5q133 133 371 133q178 0 304.5 -87t170.5 -241l-234 -69q-26 79 -90.5 123.5t-154.5 44.5q-126 0 -195 -80q-93 -106 -107 -373q47 69 129.5 106.5
t182.5 37.5q210 0 340.5 -133.5t130.5 -329.5zM637 207q106 0 177 69t71 173q0 100 -72 172q-71 71 -176 71q-104 0 -174 -69.5t-70 -173.5q0 -102 68 -172t176 -70z" />
    <glyph glyph-name="seven" unicode="7" horiz-adv-x="1046" 
d="M993 1229l-559 -1229h-291l559 1202h-651v232h942v-205z" />
    <glyph glyph-name="eight" unicode="8" horiz-adv-x="1198" 
d="M598 -25q-221 0 -362.5 123t-141.5 308q0 110 55 200.5t150 147.5q-78 53 -122 130.5t-44 172.5q0 172 133 286.5t334 114.5q203 0 335 -114t132 -287q0 -186 -166 -299q95 -57 149 -147.5t54 -204.5q0 -184 -144.5 -307.5t-361.5 -123.5zM600 1239q-98 0 -158.5 -54.5
t-60.5 -137.5q0 -82 62.5 -136.5t156.5 -54.5q96 0 157.5 54.5t61.5 136.5q0 83 -61 137.5t-158 54.5zM600 199q111 0 180.5 63.5t69.5 157.5q0 92 -71 154.5t-179 62.5q-110 0 -181 -62t-71 -155q0 -92 71.5 -156.5t180.5 -64.5z" />
    <glyph glyph-name="nine" unicode="9" horiz-adv-x="1230" 
d="M594 1229q-106 0 -177 -69t-71 -173q0 -102 72 -174q70 -70 176 -70q104 0 174 70t70 174q0 102 -68 172t-176 70zM565 -25q-178 0 -304.5 88t-170.5 242l234 70q26 -79 90.5 -123.5t154.5 -44.5q125 0 195 78q90 110 104 372q-44 -68 -125.5 -104.5t-183.5 -36.5
q-210 0 -340.5 133.5t-130.5 329.5q0 206 146 343.5t362 137.5q146 0 266.5 -67.5t188.5 -212.5q77 -157 77 -408q0 -256 -49.5 -412.5t-142.5 -248.5q-136 -136 -371 -136z" />
    <glyph glyph-name="colon" unicode=":" 
d="M297 -25q-67 0 -114.5 49t-47.5 117q0 66 47.5 114t114.5 48t114.5 -48t47.5 -114q0 -68 -47.5 -117t-114.5 -49zM297 711q-67 0 -114.5 49t-47.5 117q0 66 47.5 113.5t114.5 47.5t114.5 -47.5t47.5 -113.5q0 -68 -47.5 -117t-114.5 -49z" />
    <glyph glyph-name="semicolon" unicode=";" 
d="M244 -344l-131 100q9 13 37.5 52.5t42.5 59t33.5 52.5t31.5 62q-54 14 -88.5 58t-34.5 101q0 66 47.5 114t114.5 48q69 0 115.5 -48.5t46.5 -125.5q0 -199 -215 -473zM297 711q-67 0 -114.5 49t-47.5 117q0 66 47.5 113.5t114.5 47.5t114.5 -47.5t47.5 -113.5
q0 -68 -47.5 -117t-114.5 -49z" />
    <glyph glyph-name="less" unicode="&#x3c;" horiz-adv-x="987" 
d="M879 428v-244l-787 381v219l787 383v-235l-535 -252z" />
    <glyph glyph-name="equal" unicode="=" horiz-adv-x="1198" 
d="M1075 829h-952v209h952v-209zM1075 367h-952v208h952v-208z" />
    <glyph glyph-name="greater" unicode="&#x3e;" horiz-adv-x="987" 
d="M895 565l-786 -383v236l534 252l-534 252v243l786 -381v-219z" />
    <glyph glyph-name="question" unicode="?" horiz-adv-x="1071" 
d="M590 449h-254v90q0 95 14.5 146t43.5 79.5t95 64.5l64 33q93 49 132.5 96t39.5 109q0 73 -56.5 120.5t-146.5 47.5q-95 0 -156 -56.5t-65 -154.5l-250 20q7 193 139.5 304.5t331.5 111.5q214 0 340 -108q127 -109 127 -281q0 -145 -78 -229q-74 -80 -188 -140l-72 -36
q-37 -19 -49 -43t-12 -84v-90zM463 -25q-67 0 -114.5 49t-47.5 117q0 66 47.5 114t114.5 48t114.5 -48t47.5 -114q0 -68 -47.5 -117t-114.5 -49z" />
    <glyph glyph-name="at" unicode="@" horiz-adv-x="1900" 
d="M952 -371q-175 0 -332.5 67.5t-271.5 183.5t-181 280.5t-67 349.5q0 246 110.5 448t308.5 318.5t444 116.5q182 0 339.5 -65t266 -176.5t170 -263t61.5 -321.5q0 -96 -26 -184.5t-74 -159t-123.5 -113t-167.5 -42.5q-172 0 -256 125q-90 -121 -244 -121
q-170 0 -281.5 117.5t-111.5 322.5q0 104 34.5 188.5t90.5 134.5t121 76.5t133 26.5q134 0 213 -88l8 78h209v-566q0 -54 27 -85t67 -31q84 0 134.5 86.5t50.5 218.5q0 181 -77.5 330.5t-225.5 239t-338 89.5q-195 0 -348.5 -92.5t-236.5 -251.5t-83 -356q0 -194 85 -354
t236 -252t336 -92q226 0 398 106l88 -158q-207 -131 -486 -131zM932 285q54 0 101.5 34t66.5 97v182q-19 58 -64 92.5t-104 34.5q-83 0 -133.5 -58t-50.5 -157q0 -106 52.5 -165.5t131.5 -59.5z" />
    <glyph glyph-name="A" unicode="A" horiz-adv-x="1380" 
d="M688 1167h-4l-164 -493h332zM1352 0h-279l-155 444h-465l-154 -444h-270l510 1434h303z" />
    <glyph glyph-name="B" unicode="B" horiz-adv-x="1302" 
d="M688 0h-524v1434h545q212 0 333 -95.5t121 -265.5q0 -95 -48.5 -170.5t-129.5 -114.5q103 -39 165 -130.5t62 -217.5q0 -212 -138.5 -326t-385.5 -114zM702 1217h-278v-330h303q78 0 128 44.5t50 121.5q0 80 -58.5 122t-144.5 42zM424 674v-455h270q114 0 184 61t70 166
q0 107 -74 167.5t-190 60.5h-260z" />
    <glyph glyph-name="C" unicode="C" horiz-adv-x="1462" 
d="M766 -23q-140 0 -263.5 52.5t-215.5 147.5t-145.5 236.5t-53.5 309.5q0 162 53.5 300.5t145.5 233t216 148t263 53.5q233 0 393.5 -114t220.5 -326l-254 -64q-27 101 -116 181q-85 79 -244 79q-176 0 -293 -138.5t-117 -352.5q0 -224 117 -363t295 -139q152 0 252.5 93.5
t126.5 232.5l256 -49q-27 -161 -118.5 -280.5t-225.5 -180t-293 -60.5z" />
    <glyph glyph-name="D" unicode="D" horiz-adv-x="1421" 
d="M662 0h-498v1434h495q133 0 254 -47t215.5 -133.5t150.5 -222t56 -300.5q0 -173 -55.5 -314t-149.5 -230.5t-214 -138t-254 -48.5zM426 1202v-971h227q179 0 295.5 136t116.5 364q0 212 -120 341.5t-298 129.5h-221z" />
    <glyph glyph-name="E" unicode="E" horiz-adv-x="1228" 
d="M424 231h715v-231h-975v1434h966v-232h-706v-293h655v-231h-655v-447z" />
    <glyph glyph-name="F" unicode="F" horiz-adv-x="1126" 
d="M1006 897v-231h-582v-666h-260v1434h903v-232h-643v-305h582z" />
    <glyph glyph-name="G" unicode="G" horiz-adv-x="1519" 
d="M1432 719v-70q0 -161 -54 -291t-145.5 -212t-208.5 -125.5t-248 -43.5q-143 0 -269 52.5t-219 147t-146.5 235.5t-53.5 309q0 165 53 304t145.5 233.5t218 147t269.5 52.5q227 0 393 -106q169 -108 234 -314l-250 -75q-27 95 -127 172q-98 79 -250 79q-180 0 -299 -137
t-119 -356q0 -228 119 -365t301 -137q147 0 249.5 73t131.5 197h-358v230h633z" />
    <glyph glyph-name="H" unicode="H" horiz-adv-x="1515" 
d="M1352 0h-262v727h-664v-727h-262v1434h262v-476h664v476h262v-1434z" />
    <glyph glyph-name="I" unicode="I" 
d="M426 0h-262v1434h262v-1434z" />
    <glyph glyph-name="J" unicode="J" horiz-adv-x="1089" 
d="M481 -20q-194 0 -316.5 107.5t-148.5 311.5l252 45q28 -221 215 -221q86 0 139.5 58t53.5 170v983h262v-983q0 -227 -126.5 -349t-330.5 -122z" />
    <glyph glyph-name="K" unicode="K" horiz-adv-x="1353" 
d="M1341 0h-307l-440 776l-170 -164v-612h-260v1434h260v-519l543 519h346l-516 -480z" />
    <glyph glyph-name="L" unicode="L" horiz-adv-x="1101" 
d="M1059 0h-895v1434h262v-1203h633v-231z" />
    <glyph glyph-name="M" unicode="M" horiz-adv-x="1689" 
d="M799 594l-377 442v-1036h-258v1434h260l426 -510l424 510h252v-1434h-258v1038l-379 -444h-90z" />
    <glyph glyph-name="N" unicode="N" horiz-adv-x="1505" 
d="M1341 0h-251l-670 983v-983h-256v1434h252l669 -990v990h256v-1434z" />
    <glyph glyph-name="O" unicode="O" horiz-adv-x="1556" 
d="M778 -23q-142 0 -268 52t-220 146.5t-149 235.5t-55 310q0 164 54 303t147.5 233.5t220 147.5t270.5 53t270.5 -52.5t220 -147t147.5 -233.5t54 -304q0 -168 -55 -309t-149 -235.5t-220 -147t-268 -52.5zM778 221q184 0 303 138.5t119 361.5q0 217 -119.5 355t-302.5 138
t-302.5 -138t-119.5 -355q0 -221 120.5 -360.5t301.5 -139.5z" />
    <glyph glyph-name="P" unicode="P" horiz-adv-x="1214" 
d="M692 1202h-268v-366h270q93 0 146 49.5t53 132.5q0 84 -56 134t-145 50zM715 604h-291v-604h-260v1434h561q193 0 315.5 -110t122.5 -304q0 -196 -127.5 -306t-320.5 -110z" />
    <glyph glyph-name="Q" unicode="Q" horiz-adv-x="1556" 
d="M1454 80l-158 -158l-147 160q-164 -105 -371 -105q-142 0 -268 52t-220 146.5t-149 235.5t-55 310q0 164 54 303t147.5 233.5t220 147.5t270.5 53t270.5 -52.5t220 -147t147.5 -233.5t54 -304q0 -296 -159 -492zM778 221q104 0 197 49l-246 258l154 148l243 -254
q74 126 74 299q0 217 -119.5 355t-302.5 138t-302.5 -138t-119.5 -355q0 -221 120.5 -360.5t301.5 -139.5z" />
    <glyph glyph-name="R" unicode="R" horiz-adv-x="1308" 
d="M723 1202h-301v-352h305q88 0 141.5 47t53.5 133q0 78 -56.5 125t-142.5 47zM1288 0h-301l-352 623h-213v-623h-258v1434h584q189 0 315.5 -109.5t126.5 -288.5q0 -171 -113 -284q-66 -72 -168 -101z" />
    <glyph glyph-name="S" unicode="S" horiz-adv-x="1245" 
d="M627 -23q-242 0 -395.5 131t-165.5 386l256 22q7 -157 92 -239t215 -82q111 0 188 51q80 53 80 147q0 84 -69.5 136.5t-219.5 97.5l-135 41q-182 56 -265 150.5t-83 234.5q0 175 139 290t361 115q227 0 366 -112q141 -114 144 -297v-21l-254 -24v14q-1 76 -36.5 128
t-91.5 74.5t-128 22.5q-108 0 -175 -49t-67 -127q0 -64 49 -104t176 -78l148 -43q207 -60 305 -164t98 -262q0 -195 -148.5 -317t-383.5 -122z" />
    <glyph glyph-name="T" unicode="T" horiz-adv-x="1202" 
d="M1161 1434v-232h-430v-1202h-260v1202h-430v232h1120z" />
    <glyph glyph-name="U" unicode="U" horiz-adv-x="1419" 
d="M709 -23q-257 0 -409.5 145t-152.5 417v895h263v-885q0 -152 82.5 -240t218.5 -88q138 0 218.5 86.5t80.5 239.5v887h262v-893q0 -269 -153 -416.5t-410 -147.5z" />
    <glyph glyph-name="V" unicode="V" horiz-adv-x="1327" 
d="M813 0h-297l-487 1434h272l365 -1121h6l364 1121h262z" />
    <glyph glyph-name="W" unicode="W" horiz-adv-x="1802" 
d="M1432 0h-256l-275 733l-274 -733h-256l-332 1434h264l236 -1065l284 766h166l283 -766l237 1065h254z" />
    <glyph glyph-name="X" unicode="X" horiz-adv-x="1300" 
d="M1284 0h-301l-334 553l-340 -553h-293l469 745l-436 689h303l301 -488l303 488h295l-432 -672z" />
    <glyph glyph-name="Y" unicode="Y" horiz-adv-x="1208" 
d="M735 727v-727h-262v729l-465 705h307l297 -465l297 465h291z" />
    <glyph glyph-name="Z" unicode="Z" horiz-adv-x="1198" 
d="M1135 231v-231h-1078v176l731 1026h-694v232h1028v-174l-729 -1029h742z" />
    <glyph glyph-name="bracketleft" unicode="[" horiz-adv-x="749" 
d="M709 -317h-545v1923h545v-195h-297v-1534h297v-194z" />
    <glyph glyph-name="backslash" unicode="\" horiz-adv-x="892" 
d="M862 -123h-252l-579 1679h254z" />
    <glyph glyph-name="bracketright" unicode="]" horiz-adv-x="749" 
d="M41 1606h545v-1923h-545v194h297v1534h-297v195z" />
    <glyph glyph-name="asciicircum" unicode="^" horiz-adv-x="1081" 
d="M1028 797h-260l-231 407l-234 -407h-250l377 637h221z" />
    <glyph glyph-name="underscore" unicode="_" horiz-adv-x="911" 
d="M891 -229h-871v166h871v-166z" />
    <glyph glyph-name="grave" unicode="`" horiz-adv-x="561" 
d="M479 1151h-203l-215 289v4h281l137 -289v-4z" />
    <glyph glyph-name="a" unicode="a" horiz-adv-x="1099" 
d="M483 182q42 0 82.5 16.5t100.5 55.5l51 33l2 225l-184 -49q-108 -27 -154.5 -60.5t-46.5 -91.5q0 -60 44.5 -94.5t104.5 -34.5zM721 100l-12 -10q-128 -108 -279 -108q-142 0 -244 86.5t-102 228.5q0 127 86 204t268 122l281 71q-7 68 -58.5 106t-134.5 38
q-78 0 -133 -36t-80 -100l-217 74q46 126 167 196t278 70q194 0 308 -95t114 -275v-672h-242v100z" />
    <glyph glyph-name="b" unicode="b" horiz-adv-x="1216" 
d="M680 -18q-192 0 -295 137v-119h-233v1470h249v-536q109 104 277 104q94 0 177 -35.5t145.5 -101.5t98.5 -166.5t36 -222.5t-37 -223.5t-100 -168t-145 -102.5t-173 -36zM639 207q105 0 173.5 79.5t68.5 225.5q0 142 -69 221.5t-173 79.5q-99 0 -168 -65t-70 -179v-116
q1 -113 69.5 -179.5t168.5 -66.5z" />
    <glyph glyph-name="c" unicode="c" horiz-adv-x="1087" 
d="M573 -23q-96 0 -185 35.5t-159 101.5t-111.5 169t-41.5 229q0 125 42.5 227t113 166.5t159 99.5t184.5 35q173 0 290.5 -82.5t160.5 -218.5l-225 -77q-64 155 -223 155q-96 0 -172 -76t-76 -229q0 -155 76 -231q78 -78 174 -78q166 0 233 178l223 -84
q-50 -155 -172.5 -237.5t-290.5 -82.5z" />
    <glyph glyph-name="d" unicode="d" horiz-adv-x="1216" 
d="M578 207q99 0 167.5 65t69.5 183v114q-1 114 -68 179t-169 65q-105 0 -173.5 -79t-68.5 -222q0 -146 68.5 -225.5t173.5 -79.5zM1065 0h-236v109q-52 -58 -126.5 -92.5t-163.5 -34.5q-94 0 -176.5 35.5t-145 101.5t-99 167.5t-36.5 225.5q0 122 36.5 222.5t99 166
t144.5 101.5t175 36q173 0 278 -102v534h250v-1470z" />
    <glyph glyph-name="e" unicode="e" horiz-adv-x="1124" 
d="M567 842q-93 0 -161 -57t-74 -158h465q-7 105 -72.5 160t-157.5 55zM866 328l172 -119q-62 -107 -176.5 -168t-269.5 -61q-105 0 -198.5 35.5t-164 102t-112 169t-41.5 227.5q0 120 39.5 220t107.5 166.5t158.5 103t191.5 36.5q205 0 336 -131t140 -352q2 -51 2 -100
h-725q6 -126 84.5 -201.5t191.5 -75.5q81 0 151 39.5t113 108.5z" />
    <glyph glyph-name="f" unicode="f" horiz-adv-x="708" 
d="M680 1014v-209h-229v-805h-248v805h-154v209h154v119q0 178 98 266q41 38 104 59t130 21q203 0 296 -113l-137 -152q-53 56 -127 56q-53 0 -84.5 -31.5t-31.5 -97.5v-127h229z" />
    <glyph glyph-name="g" unicode="g" horiz-adv-x="1060" 
d="M324 674q0 -75 52 -123.5t132 -48.5q79 0 129.5 48.5t50.5 123.5q0 74 -51 122t-129 48q-81 0 -132.5 -48t-51.5 -122zM983 -104q0 -141 -121.5 -225.5t-322.5 -84.5h-58q-197 0 -316.5 73t-119.5 210q0 82 52 140.5t143 90.5q-72 45 -72 121q0 93 102 150
q-80 46 -127 124.5t-47 178.5q0 82 34 151t91 114t132 70t157 25q40 0 126.5 -10t174.5 -10h209v-187l-152 2q45 -82 45 -157q0 -165 -114 -263t-289 -98q-59 0 -85 -20t-26 -45q0 -57 115 -60l135 -6q164 -7 249 -81t85 -203zM485 -227h58q102 0 155.5 29t53.5 83
q0 113 -193 113h-76q-209 -3 -209 -117q0 -108 211 -108z" />
    <glyph glyph-name="h" unicode="h" horiz-adv-x="1202" 
d="M621 813q-70 0 -129.5 -44t-90.5 -118v-651h-249v1470h249v-585q46 71 122.5 112t176.5 41q167 0 266 -102.5t99 -302.5v-633h-250v590q0 223 -194 223z" />
    <glyph glyph-name="i" unicode="i" horiz-adv-x="552" 
d="M276 1174q-63 0 -106 43t-43 106t43 105t106 42q64 0 108 -42t44 -105t-44.5 -106t-107.5 -43zM401 0h-249v1014h249v-1014z" />
    <glyph glyph-name="j" unicode="j" horiz-adv-x="552" 
d="M276 1174q-63 0 -106 43t-43 106t43 105t106 42q64 0 108 -42t44 -105t-44.5 -106t-107.5 -43zM152 1014h249v-1110q0 -159 -89 -239.5t-232 -80.5q-88 0 -163.5 33t-119.5 90l148 156q48 -62 112 -62q41 0 68 26t27 75v1112z" />
    <glyph glyph-name="k" unicode="k" horiz-adv-x="1120" 
d="M1100 0h-289l-295 526l-119 -106v-420h-245v1470h245v-782l369 326h328l-385 -336z" />
    <glyph glyph-name="l" unicode="l" horiz-adv-x="552" 
d="M401 0h-249v1470h249v-1470z" />
    <glyph glyph-name="m" unicode="m" horiz-adv-x="1812" 
d="M608 813q-72 0 -126.5 -44t-80.5 -122v-647h-249v1014h249v-117q98 139 285 139q99 0 176.5 -40.5t120.5 -118.5q113 159 324 159q170 0 269 -103.5t99 -297.5v-635h-250v592q0 108 -46.5 164.5t-133.5 56.5q-69 0 -125 -45.5t-82 -120.5v-12v-635h-250v592
q0 108 -46.5 164.5t-133.5 56.5z" />
    <glyph glyph-name="n" unicode="n" horiz-adv-x="1202" 
d="M621 813q-70 0 -129.5 -44t-90.5 -118v-651h-249v1014h249v-129q46 71 122.5 112t176.5 41q167 0 266 -102.5t99 -302.5v-633h-250v590q0 223 -194 223z" />
    <glyph glyph-name="o" unicode="o" horiz-adv-x="1169" 
d="M586 -23q-138 0 -253 63t-186 186.5t-71 285.5q0 122 42 223t112.5 167t162.5 102t193 36q103 0 194.5 -36t161.5 -101.5t111 -166.5t41 -224q0 -121 -41.5 -223t-112 -169.5t-162 -105t-192.5 -37.5zM586 201q109 0 181.5 83.5t72.5 227.5q0 143 -72.5 225t-181.5 82
t-182.5 -81.5t-73.5 -225.5q0 -143 74 -227t182 -84z" />
    <glyph glyph-name="p" unicode="p" horiz-adv-x="1216" 
d="M639 207q105 0 173.5 79.5t68.5 223.5t-68.5 223.5t-173.5 79.5q-99 0 -168 -65t-70 -179v-116q1 -113 69.5 -179.5t168.5 -66.5zM680 -18q-172 0 -279 110v-481h-249v1403h233v-107q50 60 125 95.5t168 35.5q94 0 177 -36t145.5 -101.5t98.5 -166.5t36 -224
q0 -122 -37 -223t-100 -167t-145 -102t-173 -36z" />
    <glyph glyph-name="q" unicode="q" horiz-adv-x="1216" 
d="M1065 1014v-1403h-250v477q-111 -106 -276 -106q-94 0 -176.5 35.5t-145 101.5t-99 167.5t-36.5 225.5q0 122 36.5 222.5t99 166t144.5 101.5t175 36q182 0 292 -123v99h236zM578 207q99 0 167.5 65t69.5 183v114q-1 114 -68 179t-169 65q-105 0 -173.5 -79t-68.5 -222
q0 -146 68.5 -225.5t173.5 -79.5z" />
    <glyph glyph-name="r" unicode="r" horiz-adv-x="802" 
d="M571 799q-55 0 -102 -35.5t-68 -87.5v-676h-249v1014h249v-117q34 59 90.5 96t126.5 37q111 0 175 -49l-88 -223q-62 41 -134 41z" />
    <glyph glyph-name="s" unicode="s" horiz-adv-x="985" 
d="M494 -20q-170 0 -286.5 74t-156.5 218l213 66q26 -82 85.5 -125t144.5 -43q75 0 125.5 31t50.5 86q0 30 -15.5 52t-49.5 37t-67.5 23.5t-88.5 18.5q-151 27 -254 92q-101 64 -101 213q0 145 117 231q116 88 291 88q164 0 266.5 -72.5t136.5 -191.5l-211 -59
q-40 135 -194 135q-75 0 -120.5 -33.5t-45.5 -87.5q0 -23 11 -41t28 -29.5t47 -20.5t58 -14.5t71 -11.5q150 -21 256 -92q106 -69 106 -225q0 -149 -118 -233q-121 -86 -299 -86z" />
    <glyph glyph-name="t" unicode="t" horiz-adv-x="759" 
d="M637 240l102 -160q-44 -44 -112.5 -70t-143.5 -26q-137 0 -219 77t-82 234l2 510h-151v209h151v282h244v-282h277v-209h-277v-488q0 -122 102 -122q52 0 107 45z" />
    <glyph glyph-name="u" unicode="u" horiz-adv-x="1191" 
d="M1040 0h-249v129q-112 -149 -295 -149q-162 0 -260.5 99t-98.5 294v641h250v-596q0 -107 53 -160t140 -53q64 0 121.5 41.5t89.5 115.5v652h249v-1014z" />
    <glyph glyph-name="v" unicode="v" horiz-adv-x="1030" 
d="M1012 1014l-377 -1014h-240l-377 1014h250l252 -717l250 717h242z" />
    <glyph glyph-name="w" unicode="w" horiz-adv-x="1429" 
d="M1118 0h-200l-203 473l-203 -473h-203l-276 1014h246l170 -660l174 424h192l170 -420l174 656h238z" />
    <glyph glyph-name="x" unicode="x" horiz-adv-x="1028" 
d="M1008 0h-275l-221 360l-225 -360h-267l336 516l-327 498h274l213 -338l213 338h266l-323 -488z" />
    <glyph glyph-name="y" unicode="y" horiz-adv-x="989" 
d="M979 1014l-594 -1403h-246l236 567l-363 836h256l236 -568l225 568h250z" />
    <glyph glyph-name="z" unicode="z" horiz-adv-x="954" 
d="M883 209v-209h-811v145l487 660h-477v209h792v-146l-487 -659h496z" />
    <glyph glyph-name="braceleft" unicode="{" horiz-adv-x="780" 
d="M561 -322q-63 0 -114 15.5t-94 49.5t-67 97t-24 150v467l-12 84l-178 30v148l178 31l12 81v467q0 87 24 150t67 97t94 49.5t114 15.5q47 0 99.5 -2t58.5 -2v-195q-116 0 -162.5 -30.5t-46.5 -123.5v-448q0 -60 -20.5 -99.5t-69.5 -64.5q49 -25 69.5 -64.5t20.5 -99.5
v-448q0 -94 46.5 -125t162.5 -31v-194q-6 0 -58.5 -2.5t-99.5 -2.5z" />
    <glyph glyph-name="bar" unicode="|" horiz-adv-x="585" 
d="M412 -287h-238v1803h238v-1803z" />
    <glyph glyph-name="braceright" unicode="}" horiz-adv-x="780" 
d="M219 -322q-47 0 -99.5 2.5t-58.5 2.5v194q116 0 162.5 30.5t46.5 123.5v448q0 60 20.5 99.5t69.5 64.5q-49 25 -69.5 64.5t-20.5 99.5v448q0 94 -46.5 125t-162.5 31v195q6 0 58.5 2t99.5 2q63 0 114 -15.5t94 -49.5t67 -97t24 -150v-467l12 -83l179 -31v-148l-179 -30
l-12 -82v-467q0 -87 -24 -150t-67 -97t-94 -49.5t-114 -15.5z" />
    <glyph glyph-name="asciitilde" unicode="~" horiz-adv-x="1105" 
d="M745 459q-57 0 -114.5 26t-96.5 57t-84 57t-79 26q-50 0 -83 -38t-40 -106l-174 29q3 84 33.5 154.5t96 118.5t156.5 48q57 0 115.5 -26t98 -56.5t84.5 -56.5t79 -26q48 0 81 37.5t40 105.5l174 -29q-2 -62 -20.5 -118t-52 -102t-89 -73.5t-125.5 -27.5z" />
    <glyph glyph-name="exclamdown" unicode="&#xa1;" horiz-adv-x="616" 
d="M309 1042q67 0 114.5 -47.5t47.5 -115.5q0 -66 -47.5 -114t-114.5 -48t-114.5 48t-47.5 114q0 68 47.5 115.5t114.5 47.5zM203 571h211l32 -960h-276z" />
    <glyph glyph-name="cent" unicode="&#xa2;" horiz-adv-x="1189" 
d="M883 385l215 -80q-44 -136 -148.5 -217.5t-251.5 -95.5v-207h-147v207q-88 13 -164.5 53t-137 105t-95.5 161t-35 211q0 111 35.5 205.5t96.5 158t137.5 103.5t162.5 53v201h147v-199q149 -13 251.5 -93t140.5 -201l-220 -74q-51 130 -172 153v-620q131 26 185 176z
M365 522q0 -123 51.5 -202t134.5 -105v608q-83 -25 -134.5 -102t-51.5 -199z" />
    <glyph glyph-name="sterling" unicode="&#xa3;" horiz-adv-x="1247" 
d="M1135 217v-217h-996v217h142q68 43 105.5 101.5t37.5 121.5q0 58 -51 166h-240v195h137q-39 93 -39 180q0 187 130 301.5t323 114.5q203 0 328.5 -111t132.5 -301l-254 -8q-1 88 -57.5 141t-147.5 53t-144 -51t-53 -139q0 -82 48 -180h383v-195h-281q33 -79 33 -145
q0 -72 -32.5 -136.5t-84.5 -107.5h580z" />
    <glyph glyph-name="yen" unicode="&#xa5;" horiz-adv-x="1308" 
d="M1100 399v-170h-318v-229h-256v229h-317v170h317v138h-317v172h291l-441 663h303l302 -467l299 467h286l-440 -663h291v-172h-318v-138h318z" />
    <glyph glyph-name="brokenbar" unicode="&#xa6;" horiz-adv-x="585" 
d="M412 778h-238v738h238v-738zM412 -287h-238v779h238v-779z" />
    <glyph glyph-name="section" unicode="&#xa7;" horiz-adv-x="1144" 
d="M485 469l162 -72q74 14 116 52.5t42 95.5q0 48 -30.5 81.5t-98.5 65.5l-174 80q-71 -14 -112.5 -52.5t-41.5 -94.5q0 -50 33.5 -87.5t103.5 -68.5zM547 -311q-218 0 -339.5 111t-125.5 327l231 25q2 -121 62.5 -193t175.5 -72q74 0 126 38.5t52 99.5q0 70 -55 104
q-66 41 -156 82l-162 76q-127 59 -189.5 133.5t-62.5 177.5q0 109 68 180t145 101q-116 97 -116 239q0 103 54.5 184t144 123.5t196.5 42.5q184 0 289 -102q104 -101 104 -246v-26l-211 -25l-2 23q-1 87 -50 132.5t-128 45.5q-70 0 -118 -38t-48 -102q0 -29 10.5 -51t39 -42
t55.5 -33.5t84 -38.5l147 -66q146 -65 215.5 -144t69.5 -194q0 -101 -58.5 -170t-146.5 -106q64 -52 91.5 -111t27.5 -133q0 -158 -119.5 -255t-300.5 -97z" />
    <glyph glyph-name="dieresis" unicode="&#xa8;" horiz-adv-x="878" 
d="M649 1180q-54 0 -92.5 39t-38.5 94q0 54 38.5 92.5t92.5 38.5q55 0 94 -38.5t39 -92.5q0 -55 -39 -94t-94 -39zM229 1180q-54 0 -92.5 39t-38.5 94q0 54 38.5 92.5t92.5 38.5q55 0 94 -38.5t39 -92.5q0 -55 -39 -94t-94 -39z" />
    <glyph glyph-name="copyright" unicode="&#xa9;" horiz-adv-x="1705" 
d="M854 -25q-202 0 -373.5 99.5t-271.5 271t-100 373.5q0 152 59 289.5t159 236t238 157t289 58.5t289 -58.5t238 -157t159 -236t59 -289.5q0 -202 -100 -373.5t-271.5 -271t-373.5 -99.5zM854 129q160 0 294.5 78.5t212 214t77.5 297.5q0 161 -77.5 296.5t-212 213.5
t-294.5 78t-294.5 -78t-212 -213.5t-77.5 -296.5q0 -162 77.5 -297.5t212 -214t294.5 -78.5zM856 311q-159 0 -269 112.5t-110 303.5q0 124 53 216t138 137.5t188 45.5q130 0 222.5 -66.5t123.5 -182.5l-176 -46q-19 57 -63.5 91t-106.5 34q-75 0 -130.5 -60t-55.5 -169
q0 -117 55.5 -181.5t130.5 -64.5q66 0 110.5 44t65.5 120l182 -31q-25 -149 -121.5 -226t-236.5 -77z" />
    <glyph glyph-name="ordfeminine" unicode="&#xaa;" horiz-adv-x="811" 
d="M367 895q50 0 110 35l31 18l2 125l-119 -31q-60 -14 -86 -31t-26 -48t26.5 -49.5t61.5 -18.5zM516 811l-14 -10q-84 -64 -189 -64q-97 0 -165 57t-68 148q0 87 59.5 139.5t188.5 83.5l182 45q-4 38 -37.5 59t-85.5 21q-109 0 -139 -78l-164 58q26 82 114.5 134t200.5 52
q142 0 226 -66.5t84 -187.5v-454h-193v63z" />
    <glyph glyph-name="guillemotleft" unicode="&#xab;" horiz-adv-x="1183" 
d="M598 193l-162 -138l-379 457l379 457l160 -133l-270 -320zM1098 193l-162 -138l-379 457l379 457l160 -133l-271 -320z" />
    <glyph glyph-name="registered" unicode="&#xae;" horiz-adv-x="1118" 
d="M559 549q-188 0 -319 131.5t-131 320.5q0 190 130 321.5t320 131.5q92 0 176 -35.5t144.5 -96t96.5 -144.5t36 -177q0 -187 -132.5 -319.5t-320.5 -132.5zM559 645q144 0 247 105.5t103 250.5q0 148 -102.5 252.5t-247.5 104.5q-146 0 -247 -104.5t-101 -252.5
q0 -146 101.5 -251t246.5 -105zM565 1139h-61v-92h61q23 0 38 12.5t15 32.5q0 22 -15.5 34.5t-37.5 12.5zM768 778h-131l-94 176h-39v-176h-117v455h201q64 0 107.5 -38.5t43.5 -100.5q0 -41 -21.5 -73t-55.5 -50z" />
    <glyph glyph-name="overscore" unicode="&#xaf;" horiz-adv-x="739" 
d="M627 1219h-514v170h514v-170z" />
    <glyph glyph-name="degree" unicode="&#xb0;" horiz-adv-x="759" 
d="M381 868q-121 0 -211 84q-88 85 -88 209t88 209q89 86 211 86q123 0 209 -86q88 -85 88 -209q0 -122 -88 -207q-89 -86 -209 -86zM381 1020q61 0 101 40.5t40 100.5q0 61 -40 103.5t-101 42.5q-62 0 -101.5 -42.5t-39.5 -103.5q0 -58 40.5 -99.5t100.5 -41.5z" />
    <glyph glyph-name="plusminus" unicode="&#xb1;" horiz-adv-x="1196" 
d="M1100 946v-217h-387v-326h-230v326h-387v217h387v320h230v-320h387zM1100 41h-1004v217h1004v-217z" />
    <glyph glyph-name="twosuperior" unicode="&#xb2;" horiz-adv-x="745" 
d="M682 770v-162h-629v133l353 326q75 70 75 125q0 42 -28.5 68t-77.5 26q-53 0 -83 -30t-30 -78h-199q1 122 91 197t223 75q141 0 223 -76t82 -178q0 -63 -26 -113.5t-95 -111.5l-225 -201h346z" />
    <glyph glyph-name="threesuperior" unicode="&#xb3;" horiz-adv-x="761" 
d="M373 596q-149 0 -238 69t-90 191h199q1 -50 35.5 -77t91.5 -27q55 0 90 28t35 76q0 52 -43.5 79.5t-108.5 27.5h-96v151h92q70 0 104.5 26t34.5 70q0 39 -28 62.5t-78 23.5q-48 0 -80.5 -26.5t-32.5 -67.5h-194q0 109 90 178q88 70 221 70q142 0 221.5 -64.5t79.5 -162.5
q0 -59 -34.5 -104.5t-92.5 -71.5q66 -26 105.5 -77.5t39.5 -123.5q0 -98 -82 -174t-241 -76z" />
    <glyph glyph-name="acute" unicode="&#xb4;" horiz-adv-x="561" 
d="M285 1151h-203v4l137 289h281v-4z" />
    <glyph glyph-name="paragraph" unicode="&#xb6;" horiz-adv-x="1280" 
d="M825 1249h-180v-1249h-217v700q-149 9 -252 115q-102 105 -102 252q0 154 109.5 260.5t273.5 106.5h755v-185h-168v-1249h-219v1249z" />
    <glyph glyph-name="middot" unicode="&#xb7;" horiz-adv-x="518" 
d="M260 520q-67 0 -114.5 49t-47.5 117q0 66 47.5 114t114.5 48t114.5 -48t47.5 -114q0 -68 -47.5 -117t-114.5 -49z" />
    <glyph glyph-name="cedilla" unicode="&#xb8;" horiz-adv-x="565" 
d="M238 -444q-90 0 -160 22l33 125q61 -20 120 -20q88 0 88 59q0 30 -26 46.5t-70 16.5q-16 0 -47 -3.5t-39 -4.5l51 238h142l-37 -117q79 -2 131.5 -45.5t52.5 -126.5q0 -93 -65 -141.5t-174 -48.5z" />
    <glyph glyph-name="onesuperior" unicode="&#xb9;" horiz-adv-x="561" 
d="M446 606h-202v615l-199 -80l-14 180l288 113h127v-828z" />
    <glyph glyph-name="ordmasculine" unicode="&#xba;" horiz-adv-x="872" 
d="M436 731q-159 0 -268 97t-109 264q0 166 110 263t267 97q160 0 268.5 -95t108.5 -265q0 -166 -109 -263.5t-268 -97.5zM436 920q70 0 115 47t45 125t-45 125t-115 47t-115 -47t-45 -125t45.5 -125t114.5 -47z" />
    <glyph glyph-name="guillemotright" unicode="&#xbb;" horiz-adv-x="1183" 
d="M86 831l162 138l379 -457l-379 -457l-160 133l270 320zM586 831l162 138l378 -457l-378 -457l-160 133l270 320z" />
    <glyph glyph-name="onequarter" unicode="&#xbc;" horiz-adv-x="1847" 
d="M473 -25l-166 119l959 1366l166 -117zM498 606h-203v615l-199 -80l-14 180l289 113h127v-828zM1767 344v-160h-131v-184h-186v184h-414v135l289 508h205l-281 -483h205v158h182v-158h131z" />
    <glyph glyph-name="onehalf" unicode="&#xbd;" horiz-adv-x="1878" 
d="M498 606h-203v615l-199 -80l-14 180l289 113h127v-828zM1763 162v-162h-628v133l352 326q76 71 76 125q0 42 -29 68t-78 26q-53 0 -83 -30.5t-30 -78.5h-198q1 122 90.5 197.5t222.5 75.5q141 0 223 -76t82 -178q0 -63 -26 -114.5t-95 -111.5l-225 -200h346zM473 -25
l-166 119l959 1366l166 -117z" />
    <glyph glyph-name="threequarters" unicode="&#xbe;" horiz-adv-x="1990" 
d="M424 596q-149 0 -238 69t-90 191h199q1 -50 35.5 -77t91.5 -27q55 0 90 28t35 76q0 52 -43.5 79.5t-108.5 27.5h-96v151h92q70 0 104.5 26t34.5 70q0 39 -28 62.5t-78 23.5q-48 0 -80.5 -26.5t-32.5 -67.5h-194q0 109 90 178q88 70 221 70q142 0 221.5 -64.5t79.5 -162.5
q0 -59 -34.5 -104.5t-92.5 -71.5q66 -26 106 -77.5t40 -123.5q0 -98 -82 -174t-242 -76zM616 -25l-165 119l958 1366l166 -117zM1911 344v-160h-131v-184h-187v184h-413v135l288 508h205l-280 -483h204v158h183v-158h131z" />
    <glyph glyph-name="questiondown" unicode="&#xbf;" horiz-adv-x="1071" 
d="M608 1042q67 0 114.5 -47.5t47.5 -115.5q0 -66 -47.5 -114t-114.5 -48t-114.5 48t-47.5 114q0 68 47.5 115.5t114.5 47.5zM483 571h252v-79q0 -93 -14 -143t-43 -78.5t-96 -65.5l-62 -33q-95 -51 -133.5 -94t-38.5 -103q0 -69 58 -116t145 -47q94 0 154.5 54t66.5 152
l248 -22q-5 -127 -69.5 -221t-168 -140.5t-231.5 -46.5q-215 0 -340 107q-127 109 -127 276q0 148 78 226q79 76 188 135l72 37q37 19 49 42t12 78v82z" />
    <glyph glyph-name="Agrave" unicode="&#xc0;" horiz-adv-x="1380" 
d="M688 1167h-4l-164 -493h332zM1352 0h-279l-155 444h-465l-154 -444h-270l510 1434h303zM809 1561h-203l-215 288v4h281l137 -288v-4z" />
    <glyph glyph-name="Aacute" unicode="&#xc1;" horiz-adv-x="1380" 
d="M688 1167h-4l-164 -493h332zM1352 0h-279l-155 444h-465l-154 -444h-270l510 1434h303zM784 1561h-202v4l137 288h280v-4z" />
    <glyph glyph-name="Acircumflex" unicode="&#xc2;" horiz-adv-x="1380" 
d="M688 1167h-4l-164 -493h332zM1352 0h-279l-155 444h-465l-154 -444h-270l510 1434h303zM686 1686l-291 -154v188l297 166l293 -166v-188z" />
    <glyph glyph-name="Atilde" unicode="&#xc3;" horiz-adv-x="1380" 
d="M688 1167h-4l-164 -493h332zM1352 0h-279l-155 444h-465l-154 -444h-270l510 1434h303zM811 1579q-44 0 -86 20.5t-76.5 41t-60.5 20.5q-32 0 -51 -21.5t-21 -54.5l-139 21q2 96 55 162.5t137 66.5q43 0 86 -20.5t78.5 -41t61.5 -20.5q31 0 49 21t20 55l140 -21
q-2 -97 -55 -163t-138 -66z" />
    <glyph glyph-name="Adieresis" unicode="&#xc4;" horiz-adv-x="1380" 
d="M688 1167h-4l-164 -493h332zM1352 0h-279l-155 444h-465l-154 -444h-270l510 1434h303zM901 1589q-54 0 -92.5 39t-38.5 94q0 54 38.5 92.5t92.5 38.5q55 0 94 -38.5t39 -92.5q0 -56 -39 -94.5t-94 -38.5zM481 1589q-54 0 -92.5 39t-38.5 94q0 54 38.5 92.5t92.5 38.5
q55 0 94 -38.5t39 -92.5q0 -56 -39 -94.5t-94 -38.5z" />
    <glyph glyph-name="Aring" unicode="&#xc5;" horiz-adv-x="1380" 
d="M688 1167h-4l-164 -493h332zM1352 0h-279l-155 444h-465l-154 -444h-270l510 1434h303zM690 1534q-76 0 -130 52.5t-54 129.5q0 75 54.5 127.5t129.5 52.5q78 0 131 -52.5t53 -127.5q0 -77 -54 -129.5t-130 -52.5zM690 1638q31 0 53.5 23t22.5 55t-22.5 54t-53.5 22
t-53.5 -22t-22.5 -54t22.5 -55t53.5 -23z" />
    <glyph glyph-name="AE" unicode="&#xc6;" horiz-adv-x="1910" 
d="M868 1202h-28l-230 -497h283zM1821 0h-891l-25 483h-395l-223 -483h-279l676 1434h1126v-232h-688l17 -293h622v-229h-612l25 -449h647v-231z" />
    <glyph glyph-name="Ccedilla" unicode="&#xc7;" horiz-adv-x="1462" 
d="M766 -23q-140 0 -263.5 52.5t-215.5 147.5t-145.5 236.5t-53.5 309.5q0 162 53.5 300.5t145.5 233t216 148t263 53.5q233 0 393.5 -114t220.5 -326l-254 -64q-27 101 -116 181q-85 79 -244 79q-176 0 -293 -138.5t-117 -352.5q0 -224 117 -363t295 -139q152 0 252.5 93.5
t126.5 232.5l256 -49q-27 -161 -118.5 -280.5t-225.5 -180t-293 -60.5zM754 -444q-90 0 -160 22l33 125q61 -20 121 -20q88 0 88 59q0 30 -26.5 46.5t-70.5 16.5q-16 0 -47 -3.5t-39 -4.5l52 238h141l-37 -117q79 -2 131.5 -45.5t52.5 -126.5q0 -93 -65 -141.5t-174 -48.5z
" />
    <glyph glyph-name="Egrave" unicode="&#xc8;" horiz-adv-x="1228" 
d="M424 231h715v-231h-975v1434h966v-232h-706v-293h655v-231h-655v-447zM772 1561h-203l-215 288v4h281l137 -288v-4z" />
    <glyph glyph-name="Eacute" unicode="&#xc9;" horiz-adv-x="1228" 
d="M424 231h715v-231h-975v1434h966v-232h-706v-293h655v-231h-655v-447zM745 1561h-202v4l137 288h281v-4z" />
    <glyph glyph-name="Ecircumflex" unicode="&#xca;" horiz-adv-x="1228" 
d="M424 231h715v-231h-975v1434h966v-232h-706v-293h655v-231h-655v-447zM649 1686l-291 -154v188l297 166l293 -166v-188z" />
    <glyph glyph-name="Edieresis" unicode="&#xcb;" horiz-adv-x="1228" 
d="M424 231h715v-231h-975v1434h966v-232h-706v-293h655v-231h-655v-447zM862 1589q-54 0 -92.5 39t-38.5 94q0 54 38.5 92.5t92.5 38.5q55 0 94 -38.5t39 -92.5q0 -56 -38.5 -94.5t-94.5 -38.5zM442 1589q-54 0 -92.5 39t-38.5 94q0 54 38.5 92.5t92.5 38.5q55 0 94 -38.5
t39 -92.5q0 -56 -38.5 -94.5t-94.5 -38.5z" />
    <glyph glyph-name="Igrave" unicode="&#xcc;" 
d="M426 0h-262v1434h262v-1434zM414 1561h-203l-215 288v4h280l138 -288v-4z" />
    <glyph glyph-name="Iacute" unicode="&#xcd;" 
d="M426 0h-262v1434h262v-1434zM389 1561h-203v4l138 288h280v-4z" />
    <glyph glyph-name="Icircumflex" unicode="&#xce;" 
d="M426 0h-262v1434h262v-1434zM291 1686l-291 -154v188l297 166l293 -166v-188z" />
    <glyph glyph-name="Idieresis" unicode="&#xcf;" 
d="M426 0h-262v1434h262v-1434zM504 1589q-54 0 -92.5 39t-38.5 94q0 54 38.5 92.5t92.5 38.5q55 0 94 -38.5t39 -92.5q0 -56 -38.5 -94.5t-94.5 -38.5zM84 1589q-54 0 -92.5 39t-38.5 94q0 54 38.5 92.5t92.5 38.5q55 0 94 -38.5t39 -92.5q0 -56 -38.5 -94.5t-94.5 -38.5z
" />
    <glyph glyph-name="Eth" unicode="&#xd0;" horiz-adv-x="1482" 
d="M723 0h-498v645h-184v209h184v580h496q133 0 254 -47t215.5 -133.5t150.5 -222t56 -300.5q0 -139 -36 -258t-99.5 -205t-149 -147t-184.5 -91t-205 -30zM487 645v-414h228q179 0 295 136t116 364q0 212 -119.5 341.5t-297.5 129.5h-222v-348h252v-209h-252z" />
    <glyph glyph-name="Ntilde" unicode="&#xd1;" horiz-adv-x="1505" 
d="M1341 0h-251l-670 983v-983h-256v1434h252l669 -990v990h256v-1434zM874 1579q-44 0 -86 20.5t-76.5 41t-60.5 20.5q-31 0 -50 -21.5t-21 -54.5l-140 21q2 96 55.5 162.5t137.5 66.5q43 0 85.5 -20.5t78 -41t61.5 -20.5q31 0 49.5 21.5t20.5 54.5l139 -21
q-2 -97 -55 -163t-138 -66z" />
    <glyph glyph-name="Ograve" unicode="&#xd2;" horiz-adv-x="1556" 
d="M778 -23q-142 0 -268 52t-220 146.5t-149 235.5t-55 310q0 164 54 303t147.5 233.5t220 147.5t270.5 53t270.5 -52.5t220 -147t147.5 -233.5t54 -304q0 -168 -55 -309t-149 -235.5t-220 -147t-268 -52.5zM778 221q184 0 303 138.5t119 361.5q0 217 -119.5 355t-302.5 138
t-302.5 -138t-119.5 -355q0 -221 120.5 -360.5t301.5 -139.5zM897 1561h-203l-215 288v4h281l137 -288v-4z" />
    <glyph glyph-name="Oacute" unicode="&#xd3;" horiz-adv-x="1556" 
d="M778 -23q-142 0 -268 52t-220 146.5t-149 235.5t-55 310q0 164 54 303t147.5 233.5t220 147.5t270.5 53t270.5 -52.5t220 -147t147.5 -233.5t54 -304q0 -168 -55 -309t-149 -235.5t-220 -147t-268 -52.5zM778 221q184 0 303 138.5t119 361.5q0 217 -119.5 355t-302.5 138
t-302.5 -138t-119.5 -355q0 -221 120.5 -360.5t301.5 -139.5zM872 1561h-202v4l137 288h280v-4z" />
    <glyph glyph-name="Ocircumflex" unicode="&#xd4;" horiz-adv-x="1556" 
d="M778 -23q-142 0 -268 52t-220 146.5t-149 235.5t-55 310q0 164 54 303t147.5 233.5t220 147.5t270.5 53t270.5 -52.5t220 -147t147.5 -233.5t54 -304q0 -168 -55 -309t-149 -235.5t-220 -147t-268 -52.5zM778 221q184 0 303 138.5t119 361.5q0 217 -119.5 355t-302.5 138
t-302.5 -138t-119.5 -355q0 -221 120.5 -360.5t301.5 -139.5zM774 1686l-291 -154v188l297 166l293 -166v-188z" />
    <glyph glyph-name="Otilde" unicode="&#xd5;" horiz-adv-x="1556" 
d="M778 -23q-142 0 -268 52t-220 146.5t-149 235.5t-55 310q0 164 54 303t147.5 233.5t220 147.5t270.5 53t270.5 -52.5t220 -147t147.5 -233.5t54 -304q0 -168 -55 -309t-149 -235.5t-220 -147t-268 -52.5zM778 221q184 0 303 138.5t119 361.5q0 217 -119.5 355t-302.5 138
t-302.5 -138t-119.5 -355q0 -221 120.5 -360.5t301.5 -139.5zM899 1579q-44 0 -86 20.5t-76.5 41t-60.5 20.5q-32 0 -51 -21.5t-21 -54.5l-139 21q2 96 55 162.5t137 66.5q43 0 86 -20.5t78.5 -41t61.5 -20.5q31 0 49 21t20 55l140 -21q-2 -97 -55 -163t-138 -66z" />
    <glyph glyph-name="Odieresis" unicode="&#xd6;" horiz-adv-x="1556" 
d="M778 -23q-142 0 -268 52t-220 146.5t-149 235.5t-55 310q0 164 54 303t147.5 233.5t220 147.5t270.5 53t270.5 -52.5t220 -147t147.5 -233.5t54 -304q0 -168 -55 -309t-149 -235.5t-220 -147t-268 -52.5zM778 221q184 0 303 138.5t119 361.5q0 217 -119.5 355t-302.5 138
t-302.5 -138t-119.5 -355q0 -221 120.5 -360.5t301.5 -139.5zM989 1589q-54 0 -92.5 39t-38.5 94q0 54 38.5 92.5t92.5 38.5q55 0 94 -38.5t39 -92.5q0 -56 -39 -94.5t-94 -38.5zM569 1589q-54 0 -92.5 39t-38.5 94q0 54 38.5 92.5t92.5 38.5q55 0 94 -38.5t39 -92.5
q0 -56 -39 -94.5t-94 -38.5z" />
    <glyph glyph-name="multiply" unicode="&#xd7;" horiz-adv-x="1179" 
d="M1032 422l-162 -164l-286 287l-277 -277l-153 154l276 276l-283 281l162 164l283 -283l276 277l154 -156l-274 -274z" />
    <glyph glyph-name="Oslash" unicode="&#xd8;" horiz-adv-x="1556" 
d="M356 721q0 -193 99 -334l514 780q-83 47 -191 47q-183 0 -302.5 -138t-119.5 -355zM778 221q184 0 303 138.5t119 361.5q0 188 -98 328l-514 -781q86 -47 190 -47zM778 -23q-175 0 -329 80l-105 -159h-211l172 262q-103 100 -161 243.5t-58 317.5q0 164 54 303
t147.5 233.5t220 147.5t270.5 53q179 0 330 -80l104 158h211l-172 -260q103 -100 161 -241.5t58 -313.5q0 -168 -55 -309t-149 -235.5t-220 -147t-268 -52.5z" />
    <glyph glyph-name="Ugrave" unicode="&#xd9;" horiz-adv-x="1419" 
d="M709 -23q-257 0 -409.5 145t-152.5 417v895h263v-885q0 -152 82.5 -240t218.5 -88q138 0 218.5 86.5t80.5 239.5v887h262v-893q0 -269 -153 -416.5t-410 -147.5zM829 1561h-202l-215 288v4h280l137 -288v-4z" />
    <glyph glyph-name="Uacute" unicode="&#xda;" horiz-adv-x="1419" 
d="M709 -23q-257 0 -409.5 145t-152.5 417v895h263v-885q0 -152 82.5 -240t218.5 -88q138 0 218.5 86.5t80.5 239.5v887h262v-893q0 -269 -153 -416.5t-410 -147.5zM803 1561h-203v4l137 288h281v-4z" />
    <glyph glyph-name="Ucircumflex" unicode="&#xdb;" horiz-adv-x="1419" 
d="M709 -23q-257 0 -409.5 145t-152.5 417v895h263v-885q0 -152 82.5 -240t218.5 -88q138 0 218.5 86.5t80.5 239.5v887h262v-893q0 -269 -153 -416.5t-410 -147.5zM707 1686l-291 -154v188l297 166l293 -166v-188z" />
    <glyph glyph-name="Udieresis" unicode="&#xdc;" horiz-adv-x="1419" 
d="M709 -23q-257 0 -409.5 145t-152.5 417v895h263v-885q0 -152 82.5 -240t218.5 -88q138 0 218.5 86.5t80.5 239.5v887h262v-893q0 -269 -153 -416.5t-410 -147.5zM920 1589q-54 0 -93 39t-39 94q0 54 39 92.5t93 38.5q55 0 94 -38.5t39 -92.5q0 -56 -38.5 -94.5
t-94.5 -38.5zM500 1589q-54 0 -92.5 39t-38.5 94q0 54 38.5 92.5t92.5 38.5q55 0 94 -38.5t39 -92.5q0 -56 -38.5 -94.5t-94.5 -38.5z" />
    <glyph glyph-name="Yacute" unicode="&#xdd;" horiz-adv-x="1208" 
d="M735 727v-727h-262v729l-465 705h307l297 -465l297 465h291zM698 1556h-202v5l137 288h280v-4z" />
    <glyph glyph-name="Thorn" unicode="&#xde;" horiz-adv-x="1216" 
d="M696 940h-272v-369h274q93 0 146 50t53 133q0 84 -56 135t-145 51zM719 340h-295v-340h-260v1434h260v-263h305q126 0 224 -47t156 -142t58 -226q0 -196 -127.5 -306t-320.5 -110z" />
    <glyph glyph-name="germandbls" unicode="&#xdf;" horiz-adv-x="1224" 
d="M676 -14q-98 0 -168 24l51 205q50 -16 105 -16q85 0 151 57q68 59 68 172q0 116 -77 181t-208 65h-49v200h45q105 0 164 52t59 145q0 90 -58.5 143.5t-150.5 53.5q-93 0 -150 -62t-57 -176v-1030h-249v1028q0 208 129 328q129 123 329 123q108 0 195.5 -33t143 -88.5
t85 -125.5t29.5 -147q0 -92 -42 -168t-122 -122q108 -46 173 -141t65 -226q0 -105 -37 -190.5t-100.5 -139.5t-146.5 -83t-177 -29z" />
    <glyph glyph-name="agrave" unicode="&#xe0;" horiz-adv-x="1099" 
d="M483 182q42 0 82.5 16.5t100.5 55.5l51 33l2 225l-184 -49q-108 -27 -154.5 -60.5t-46.5 -91.5q0 -60 44.5 -94.5t104.5 -34.5zM721 100l-12 -10q-128 -108 -279 -108q-142 0 -244 86.5t-102 228.5q0 127 86 204t268 122l281 71q-7 68 -58.5 106t-134.5 38
q-78 0 -133 -36t-80 -100l-217 74q46 126 167 196t278 70q194 0 308 -95t114 -275v-672h-242v100zM666 1151h-203l-215 289v4h280l138 -289v-4z" />
    <glyph glyph-name="aacute" unicode="&#xe1;" horiz-adv-x="1099" 
d="M483 182q42 0 82.5 16.5t100.5 55.5l51 33l2 225l-184 -49q-108 -27 -154.5 -60.5t-46.5 -91.5q0 -60 44.5 -94.5t104.5 -34.5zM721 100l-12 -10q-128 -108 -279 -108q-142 0 -244 86.5t-102 228.5q0 127 86 204t268 122l281 71q-7 68 -58.5 106t-134.5 38
q-78 0 -133 -36t-80 -100l-217 74q46 126 167 196t278 70q194 0 308 -95t114 -275v-672h-242v100zM641 1151h-203v4l137 289h281v-4z" />
    <glyph glyph-name="acircumflex" unicode="&#xe2;" horiz-adv-x="1099" 
d="M483 182q42 0 82.5 16.5t100.5 55.5l51 33l2 225l-184 -49q-108 -27 -154.5 -60.5t-46.5 -91.5q0 -60 44.5 -94.5t104.5 -34.5zM721 100l-12 -10q-128 -108 -279 -108q-142 0 -244 86.5t-102 228.5q0 127 86 204t268 122l281 71q-7 68 -58.5 106t-134.5 38
q-78 0 -133 -36t-80 -100l-217 74q46 126 167 196t278 70q194 0 308 -95t114 -275v-672h-242v100zM545 1288l-271 -147v186l277 162l272 -162v-186z" />
    <glyph glyph-name="atilde" unicode="&#xe3;" horiz-adv-x="1099" 
d="M483 182q42 0 82.5 16.5t100.5 55.5l51 33l2 225l-184 -49q-108 -27 -154.5 -60.5t-46.5 -91.5q0 -60 44.5 -94.5t104.5 -34.5zM721 100l-12 -10q-128 -108 -279 -108q-142 0 -244 86.5t-102 228.5q0 127 86 204t268 122l281 71q-7 68 -58.5 106t-134.5 38
q-78 0 -133 -36t-80 -100l-217 74q46 126 167 196t278 70q194 0 308 -95t114 -275v-672h-242v100zM668 1169q-44 0 -86 20.5t-77 41t-61 20.5q-31 0 -50 -21t-21 -54l-140 20q2 96 55.5 162.5t137.5 66.5q43 0 85.5 -20.5t78 -41t61.5 -20.5q31 0 49.5 21.5t20.5 54.5
l139 -20q-2 -97 -54.5 -163.5t-137.5 -66.5z" />
    <glyph glyph-name="adieresis" unicode="&#xe4;" horiz-adv-x="1099" 
d="M483 182q42 0 82.5 16.5t100.5 55.5l51 33l2 225l-184 -49q-108 -27 -154.5 -60.5t-46.5 -91.5q0 -60 44.5 -94.5t104.5 -34.5zM721 100l-12 -10q-128 -108 -279 -108q-142 0 -244 86.5t-102 228.5q0 127 86 204t268 122l281 71q-7 68 -58.5 106t-134.5 38
q-78 0 -133 -36t-80 -100l-217 74q46 126 167 196t278 70q194 0 308 -95t114 -275v-672h-242v100zM758 1180q-54 0 -92.5 39t-38.5 94q0 54 38.5 92.5t92.5 38.5q55 0 94 -38.5t39 -92.5q0 -55 -38.5 -94t-94.5 -39zM338 1180q-54 0 -92.5 39t-38.5 94q0 54 38.5 92.5
t92.5 38.5q55 0 94 -38.5t39 -92.5q0 -55 -38.5 -94t-94.5 -39z" />
    <glyph glyph-name="aring" unicode="&#xe5;" horiz-adv-x="1099" 
d="M483 182q42 0 82.5 16.5t100.5 55.5l51 33l2 225l-184 -49q-108 -27 -154.5 -60.5t-46.5 -91.5q0 -60 44.5 -94.5t104.5 -34.5zM721 100l-12 -10q-128 -108 -279 -108q-142 0 -244 86.5t-102 228.5q0 127 86 204t268 122l281 71q-7 68 -58.5 106t-134.5 38
q-78 0 -133 -36t-80 -100l-217 74q46 126 167 196t278 70q194 0 308 -95t114 -275v-672h-242v100zM547 1124q-76 0 -130.5 53t-54.5 130q0 75 55 127.5t130 52.5q78 0 131 -52.5t53 -127.5q0 -77 -54 -130t-130 -53zM547 1229q31 0 53.5 23t22.5 55t-22.5 53.5t-53.5 21.5
t-53.5 -21.5t-22.5 -53.5t22.5 -55t53.5 -23z" />
    <glyph glyph-name="ae" unicode="&#xe6;" horiz-adv-x="1757" 
d="M1202 842q-93 0 -161 -57t-74 -158h465q-7 105 -72.5 160t-157.5 55zM481 182q78 0 191 72l73 47q-34 93 -34 209l-176 -47q-107 -27 -154 -61.5t-47 -90.5q0 -62 44 -95.5t103 -33.5zM1501 328l172 -119q-62 -107 -176.5 -168t-269.5 -61q-115 0 -216 41.5t-169 119.5
l-58 -39q-172 -120 -356 -120q-89 0 -167 37t-127.5 110t-49.5 168q0 127 86 202.5t268 121.5l277 71q-6 70 -57 108t-132 38q-78 0 -133 -36t-80 -100l-217 74q46 126 167 196t278 70q106 0 192 -34t137 -97q138 129 338 129q205 0 336 -131q130 -130 139 -352
q3 -77 3 -100h-725q6 -126 84.5 -201.5t191.5 -75.5q81 0 151 39.5t113 108.5z" />
    <glyph glyph-name="ccedilla" unicode="&#xe7;" horiz-adv-x="1087" 
d="M573 -23q-96 0 -185 35.5t-159 101.5t-111.5 169t-41.5 229q0 125 42.5 227t113 166.5t159 99.5t184.5 35q173 0 290.5 -82.5t160.5 -218.5l-225 -77q-64 155 -223 155q-96 0 -172 -76t-76 -229q0 -155 76 -231q78 -78 174 -78q166 0 233 178l223 -84
q-50 -155 -172.5 -237.5t-290.5 -82.5zM563 -444q-90 0 -160 22l33 125q61 -20 121 -20q88 0 88 59q0 30 -26 46.5t-70 16.5q-16 0 -47 -3.5t-39 -4.5l51 238h141l-37 -117q79 -2 132 -45.5t53 -126.5q0 -93 -65.5 -141.5t-174.5 -48.5z" />
    <glyph glyph-name="egrave" unicode="&#xe8;" horiz-adv-x="1124" 
d="M567 842q-93 0 -161 -57t-74 -158h465q-7 105 -72.5 160t-157.5 55zM866 328l172 -119q-62 -107 -176.5 -168t-269.5 -61q-105 0 -198.5 35.5t-164 102t-112 169t-41.5 227.5q0 120 39.5 220t107.5 166.5t158.5 103t191.5 36.5q205 0 336 -131t140 -352q2 -51 2 -100
h-725q6 -126 84.5 -201.5t191.5 -75.5q81 0 151 39.5t113 108.5zM692 1151h-203l-215 289v4h281l137 -289v-4z" />
    <glyph glyph-name="eacute" unicode="&#xe9;" horiz-adv-x="1124" 
d="M567 842q-93 0 -161 -57t-74 -158h465q-7 105 -72.5 160t-157.5 55zM866 328l172 -119q-62 -107 -176.5 -168t-269.5 -61q-105 0 -198.5 35.5t-164 102t-112 169t-41.5 227.5q0 120 39.5 220t107.5 166.5t158.5 103t191.5 36.5q205 0 336 -131t140 -352q2 -51 2 -100
h-725q6 -126 84.5 -201.5t191.5 -75.5q81 0 151 39.5t113 108.5zM666 1151h-203v4l137 289h281v-4z" />
    <glyph glyph-name="ecircumflex" unicode="&#xea;" horiz-adv-x="1124" 
d="M567 842q-93 0 -161 -57t-74 -158h465q-7 105 -72.5 160t-157.5 55zM866 328l172 -119q-62 -107 -176.5 -168t-269.5 -61q-105 0 -198.5 35.5t-164 102t-112 169t-41.5 227.5q0 120 39.5 220t107.5 166.5t158.5 103t191.5 36.5q205 0 336 -131t140 -352q2 -51 2 -100
h-725q6 -126 84.5 -201.5t191.5 -75.5q81 0 151 39.5t113 108.5zM569 1288l-270 -147v186l276 162l273 -162v-186z" />
    <glyph glyph-name="edieresis" unicode="&#xeb;" horiz-adv-x="1124" 
d="M567 842q-93 0 -161 -57t-74 -158h465q-7 105 -72.5 160t-157.5 55zM866 328l172 -119q-62 -107 -176.5 -168t-269.5 -61q-105 0 -198.5 35.5t-164 102t-112 169t-41.5 227.5q0 120 39.5 220t107.5 166.5t158.5 103t191.5 36.5q205 0 336 -131t140 -352q2 -51 2 -100
h-725q6 -126 84.5 -201.5t191.5 -75.5q81 0 151 39.5t113 108.5zM782 1180q-54 0 -92.5 39t-38.5 94q0 54 38.5 92.5t92.5 38.5q55 0 94 -38.5t39 -92.5q0 -55 -38.5 -94t-94.5 -39zM362 1180q-54 0 -92.5 39t-38.5 94q0 54 38.5 92.5t92.5 38.5q55 0 94.5 -38.5t39.5 -92.5
q0 -55 -39 -94t-95 -39z" />
    <glyph glyph-name="igrave" unicode="&#xec;" horiz-adv-x="552" 
d="M401 0h-249v1014h249v-1014zM395 1151h-202l-216 289v4h281l137 -289v-4z" />
    <glyph glyph-name="iacute" unicode="&#xed;" horiz-adv-x="552" 
d="M401 0h-249v1014h249v-1014zM371 1151h-203v4l137 289h281v-4z" />
    <glyph glyph-name="icircumflex" unicode="&#xee;" horiz-adv-x="552" 
d="M401 0h-249v1014h249v-1014zM272 1288l-270 -147v186l277 162l272 -162v-186z" />
    <glyph glyph-name="idieresis" unicode="&#xef;" horiz-adv-x="552" 
d="M401 0h-249v1014h249v-1014zM444 1200q-50 0 -84 34t-34 83q0 50 34.5 84.5t83.5 34.5t83 -34.5t34 -84.5q0 -49 -33.5 -83t-83.5 -34zM111 1200q-50 0 -84.5 34t-34.5 83t35 84t84 35t82.5 -34.5t33.5 -84.5t-33.5 -83.5t-82.5 -33.5z" />
    <glyph glyph-name="eth" unicode="&#xf0;" horiz-adv-x="1165" 
d="M580 -20q-138 0 -251.5 62t-181 180.5t-67.5 271.5q0 114 38 210t103 160.5t151 100.5t181 36q93 0 178 -45q-43 81 -108 152q-15 21 -68 74l-270 -115l-54 127l218 90q-120 104 -224 186h332q96 -85 107 -96l213 90l51 -127l-160 -67q106 -119 166 -219
q77 -133 114 -260t37 -275q0 -240 -138 -388t-367 -148zM582 203q107 0 178 79t71 212q0 132 -71.5 210t-177.5 78q-108 0 -178 -76.5t-70 -211.5q0 -133 71 -212t177 -79z" />
    <glyph glyph-name="ntilde" unicode="&#xf1;" horiz-adv-x="1202" 
d="M621 813q-70 0 -129.5 -44t-90.5 -118v-651h-249v1014h249v-129q46 71 122.5 112t176.5 41q167 0 266 -102.5t99 -302.5v-633h-250v590q0 223 -194 223zM745 1169q-44 0 -86 20.5t-76.5 41t-60.5 20.5q-31 0 -50 -21t-21 -54l-140 20q2 96 55.5 162.5t137.5 66.5
q43 0 85.5 -20.5t78 -41t61.5 -20.5q31 0 49.5 21.5t20.5 54.5l139 -20q-2 -97 -55 -163.5t-138 -66.5z" />
    <glyph glyph-name="ograve" unicode="&#xf2;" horiz-adv-x="1169" 
d="M586 -23q-138 0 -253 63t-186 186.5t-71 285.5q0 122 42 223t112.5 167t162.5 102t193 36q103 0 194.5 -36t161.5 -101.5t111 -166.5t41 -224q0 -121 -41.5 -223t-112 -169.5t-162 -105t-192.5 -37.5zM586 201q109 0 181.5 83.5t72.5 227.5q0 143 -72.5 225t-181.5 82
t-182.5 -81.5t-73.5 -225.5q0 -143 74 -227t182 -84zM705 1151h-203l-215 289v4h280l138 -289v-4z" />
    <glyph glyph-name="oacute" unicode="&#xf3;" horiz-adv-x="1169" 
d="M586 -23q-138 0 -253 63t-186 186.5t-71 285.5q0 122 42 223t112.5 167t162.5 102t193 36q103 0 194.5 -36t161.5 -101.5t111 -166.5t41 -224q0 -121 -41.5 -223t-112 -169.5t-162 -105t-192.5 -37.5zM586 201q109 0 181.5 83.5t72.5 227.5q0 143 -72.5 225t-181.5 82
t-182.5 -81.5t-73.5 -225.5q0 -143 74 -227t182 -84zM678 1151h-203v4l137 289h281v-4z" />
    <glyph glyph-name="ocircumflex" unicode="&#xf4;" horiz-adv-x="1169" 
d="M586 -23q-138 0 -253 63t-186 186.5t-71 285.5q0 122 42 223t112.5 167t162.5 102t193 36q103 0 194.5 -36t161.5 -101.5t111 -166.5t41 -224q0 -121 -41.5 -223t-112 -169.5t-162 -105t-192.5 -37.5zM586 201q109 0 181.5 83.5t72.5 227.5q0 143 -72.5 225t-181.5 82
t-182.5 -81.5t-73.5 -225.5q0 -143 74 -227t182 -84zM582 1288l-271 -147v186l277 162l272 -162v-186z" />
    <glyph glyph-name="otilde" unicode="&#xf5;" horiz-adv-x="1169" 
d="M586 -23q-138 0 -253 63t-186 186.5t-71 285.5q0 122 42 223t112.5 167t162.5 102t193 36q103 0 194.5 -36t161.5 -101.5t111 -166.5t41 -224q0 -121 -41.5 -223t-112 -169.5t-162 -105t-192.5 -37.5zM586 201q109 0 181.5 83.5t72.5 227.5q0 143 -72.5 225t-181.5 82
t-182.5 -81.5t-73.5 -225.5q0 -143 74 -227t182 -84zM707 1169q-44 0 -86 20.5t-77 41t-61 20.5q-31 0 -50 -21t-21 -54l-140 20q2 96 55.5 162.5t137.5 66.5q43 0 85.5 -20.5t78 -41t61.5 -20.5q31 0 49.5 21.5t20.5 54.5l139 -20q-2 -97 -54.5 -163.5t-137.5 -66.5z" />
    <glyph glyph-name="odieresis" unicode="&#xf6;" horiz-adv-x="1169" 
d="M586 -23q-138 0 -253 63t-186 186.5t-71 285.5q0 122 42 223t112.5 167t162.5 102t193 36q103 0 194.5 -36t161.5 -101.5t111 -166.5t41 -224q0 -121 -41.5 -223t-112 -169.5t-162 -105t-192.5 -37.5zM586 201q109 0 181.5 83.5t72.5 227.5q0 143 -72.5 225t-181.5 82
t-182.5 -81.5t-73.5 -225.5q0 -143 74 -227t182 -84zM795 1180q-54 0 -92.5 39t-38.5 94q0 54 38.5 92.5t92.5 38.5q55 0 94 -38.5t39 -92.5q0 -55 -39 -94t-94 -39zM375 1180q-54 0 -92.5 39t-38.5 94q0 54 38.5 92.5t92.5 38.5q55 0 94 -38.5t39 -92.5q0 -55 -39 -94
t-94 -39z" />
    <glyph glyph-name="divide" unicode="&#xf7;" horiz-adv-x="1196" 
d="M600 971q-67 0 -114.5 49t-47.5 117q0 66 47.5 113.5t114.5 47.5t114.5 -47.5t47.5 -113.5q0 -68 -47.5 -117t-114.5 -49zM600 109q-67 0 -114.5 48.5t-47.5 116.5q0 66 47.5 114t114.5 48t114.5 -48t47.5 -114q0 -68 -47.5 -116.5t-114.5 -48.5zM1100 596h-1004v217
h1004v-217z" />
    <glyph glyph-name="oslash" unicode="&#xf8;" horiz-adv-x="1169" 
d="M330 512q0 -120 51 -199l303 486q-44 20 -98 20q-109 0 -182.5 -81.5t-73.5 -225.5zM586 201q109 0 181.5 83.5t72.5 227.5q0 112 -49 193l-302 -486q56 -18 97 -18zM586 -23q-103 0 -219 46l-78 -125h-168l127 202q-81 71 -126.5 176.5t-45.5 235.5q0 122 42 223
t112.5 167t162.5 102t193 36q106 0 219 -45l76 121h168l-123 -198q78 -71 123 -174t45 -232q0 -121 -41.5 -223t-112 -169.5t-162 -105t-192.5 -37.5z" />
    <glyph glyph-name="ugrave" unicode="&#xf9;" horiz-adv-x="1191" 
d="M1040 0h-249v129q-112 -149 -295 -149q-162 0 -260.5 99t-98.5 294v641h250v-596q0 -107 53 -160t140 -53q64 0 121.5 41.5t89.5 115.5v652h249v-1014zM709 1151h-203l-215 289v4h280l138 -289v-4z" />
    <glyph glyph-name="uacute" unicode="&#xfa;" horiz-adv-x="1191" 
d="M1040 0h-249v129q-112 -149 -295 -149q-162 0 -260.5 99t-98.5 294v641h250v-596q0 -107 53 -160t140 -53q64 0 121.5 41.5t89.5 115.5v652h249v-1014zM682 1151h-203v4l137 289h281v-4z" />
    <glyph glyph-name="ucircumflex" unicode="&#xfb;" horiz-adv-x="1191" 
d="M1040 0h-249v129q-112 -149 -295 -149q-162 0 -260.5 99t-98.5 294v641h250v-596q0 -107 53 -160t140 -53q64 0 121.5 41.5t89.5 115.5v652h249v-1014zM586 1288l-271 -147v186l277 162l272 -162v-186z" />
    <glyph glyph-name="udieresis" unicode="&#xfc;" horiz-adv-x="1191" 
d="M1040 0h-249v129q-112 -149 -295 -149q-162 0 -260.5 99t-98.5 294v641h250v-596q0 -107 53 -160t140 -53q64 0 121.5 41.5t89.5 115.5v652h249v-1014zM799 1180q-54 0 -92.5 39t-38.5 94q0 54 38.5 92.5t92.5 38.5q55 0 94 -38.5t39 -92.5q0 -55 -39 -94t-94 -39z
M379 1180q-54 0 -92.5 39t-38.5 94q0 54 38.5 92.5t92.5 38.5q55 0 94 -38.5t39 -92.5q0 -55 -39 -94t-94 -39z" />
    <glyph glyph-name="yacute" unicode="&#xfd;" horiz-adv-x="989" 
d="M979 1014l-594 -1403h-246l236 567l-363 836h256l236 -568l225 568h250zM596 1151h-203v4l137 289h281v-4z" />
    <glyph glyph-name="thorn" unicode="&#xfe;" horiz-adv-x="1216" 
d="M639 207q105 0 173.5 79.5t68.5 225.5q0 142 -69 221.5t-173 79.5q-99 0 -168 -65t-70 -179v-116q1 -113 69.5 -179.5t168.5 -66.5zM680 -18q-172 0 -279 110v-481h-249v1859h249v-536q109 104 277 104q94 0 177 -35.5t145.5 -101.5t98.5 -166.5t36 -222.5t-37 -223.5
t-100 -168t-145 -102.5t-173 -36z" />
    <glyph glyph-name="ydieresis" unicode="&#xff;" horiz-adv-x="989" 
d="M979 1014l-594 -1403h-246l236 567l-363 836h256l236 -568l225 568h250zM713 1180q-54 0 -92.5 39t-38.5 94q0 54 38.5 92.5t92.5 38.5q55 0 94 -38.5t39 -92.5q0 -55 -39 -94t-94 -39zM293 1180q-54 0 -92.5 39t-38.5 94q0 54 38.5 92.5t92.5 38.5q55 0 94 -38.5
t39 -92.5q0 -55 -39 -94t-94 -39z" />
    <glyph glyph-name="Amacron" unicode="&#x100;" horiz-adv-x="1380" 
d="M688 1167h-4l-164 -493h332zM1352 0h-279l-155 444h-465l-154 -444h-270l510 1434h303zM948 1628h-514v170h514v-170z" />
    <glyph glyph-name="amacron" unicode="&#x101;" horiz-adv-x="1099" 
d="M483 182q42 0 82.5 16.5t100.5 55.5l51 33l2 225l-184 -49q-108 -27 -154.5 -60.5t-46.5 -91.5q0 -60 44.5 -94.5t104.5 -34.5zM721 100l-12 -10q-128 -108 -279 -108q-142 0 -244 86.5t-102 228.5q0 127 86 204t268 122l281 71q-7 68 -58.5 106t-134.5 38
q-78 0 -133 -36t-80 -100l-217 74q46 126 167 196t278 70q194 0 308 -95t114 -275v-672h-242v100zM795 1219h-494v165h494v-165z" />
    <glyph glyph-name="Abreve" unicode="&#x102;" horiz-adv-x="1380" 
d="M688 1167h-4l-164 -493h332zM1352 0h-279l-155 444h-465l-154 -444h-270l510 1434h303zM692 1565q-146 0 -231 74.5t-90 203.5h172q2 -55 40.5 -88t108.5 -33t109 33t41 88h170q-6 -128 -94 -203t-226 -75z" />
    <glyph glyph-name="abreve" unicode="&#x103;" horiz-adv-x="1099" 
d="M483 182q42 0 82.5 16.5t100.5 55.5l51 33l2 225l-184 -49q-108 -27 -154.5 -60.5t-46.5 -91.5q0 -60 44.5 -94.5t104.5 -34.5zM721 100l-12 -10q-128 -108 -279 -108q-142 0 -244 86.5t-102 228.5q0 127 86 204t268 122l281 71q-7 68 -58.5 106t-134.5 38
q-78 0 -133 -36t-80 -100l-217 74q46 126 167 196t278 70q194 0 308 -95t114 -275v-672h-242v100zM549 1159q-126 0 -205.5 74.5t-83.5 200.5h168q0 -54 33 -86.5t88 -32.5t88 32.5t33 86.5h166q-4 -126 -85 -200.5t-202 -74.5z" />
    <glyph glyph-name="Aogonek" unicode="&#x104;" horiz-adv-x="1380" 
d="M688 1167h-4l-164 -493h332zM1352 0h-279l-155 444h-465l-154 -444h-270l510 1434h303zM1192 -414q-91 0 -153 46t-62 130t61.5 155t178.5 138l135 -55q-78 -34 -131.5 -82.5t-53.5 -103.5q0 -30 18.5 -45t45.5 -15q45 0 86 35l86 -125q-84 -78 -211 -78z" />
    <glyph glyph-name="aogonek" unicode="&#x105;" horiz-adv-x="1099" 
d="M483 182q42 0 82.5 16.5t100.5 55.5l51 33l2 225l-184 -49q-108 -27 -154.5 -60.5t-46.5 -91.5q0 -60 44.5 -94.5t104.5 -34.5zM721 100l-12 -10q-128 -108 -279 -108q-142 0 -244 86.5t-102 228.5q0 127 86 204t268 122l281 71q-7 68 -58.5 106t-134.5 38
q-78 0 -133 -36t-80 -100l-217 74q46 126 167 196t278 70q194 0 308 -95t114 -275v-672h-242v100zM803 -414q-91 0 -153 46t-62 130t61 155t178 138l136 -55q-78 -34 -131.5 -82.5t-53.5 -103.5q0 -30 18.5 -45t45.5 -15q45 0 86 35l86 -125q-84 -78 -211 -78z" />
    <glyph glyph-name="Cacute" unicode="&#x106;" horiz-adv-x="1462" 
d="M766 -23q-140 0 -263.5 52.5t-215.5 147.5t-145.5 236.5t-53.5 309.5q0 162 53.5 300.5t145.5 233t216 148t263 53.5q233 0 393.5 -114t220.5 -326l-254 -64q-27 101 -116 181q-85 79 -244 79q-176 0 -293 -138.5t-117 -352.5q0 -224 117 -363t295 -139q152 0 252.5 93.5
t126.5 232.5l256 -49q-27 -161 -118.5 -280.5t-225.5 -180t-293 -60.5zM860 1561h-203v4l138 288h280v-4z" />
    <glyph glyph-name="cacute" unicode="&#x107;" horiz-adv-x="1087" 
d="M573 -23q-96 0 -185 35.5t-159 101.5t-111.5 169t-41.5 229q0 125 42.5 227t113 166.5t159 99.5t184.5 35q173 0 290.5 -82.5t160.5 -218.5l-225 -77q-64 155 -223 155q-96 0 -172 -76t-76 -229q0 -155 76 -231q78 -78 174 -78q166 0 233 178l223 -84
q-50 -155 -172.5 -237.5t-290.5 -82.5zM668 1151h-203v4l137 289h281v-4z" />
    <glyph glyph-name="Ccircumflex" unicode="&#x108;" horiz-adv-x="1462" 
d="M766 -23q-140 0 -263.5 52.5t-215.5 147.5t-145.5 236.5t-53.5 309.5q0 162 53.5 300.5t145.5 233t216 148t263 53.5q233 0 393.5 -114t220.5 -326l-254 -64q-27 101 -116 181q-85 79 -244 79q-176 0 -293 -138.5t-117 -352.5q0 -224 117 -363t295 -139q152 0 252.5 93.5
t126.5 232.5l256 -49q-27 -161 -118.5 -280.5t-225.5 -180t-293 -60.5zM762 1686l-291 -154v188l297 166l293 -166v-188z" />
    <glyph glyph-name="ccircumflex" unicode="&#x109;" horiz-adv-x="1087" 
d="M573 -23q-96 0 -185 35.5t-159 101.5t-111.5 169t-41.5 229q0 125 42.5 227t113 166.5t159 99.5t184.5 35q173 0 290.5 -82.5t160.5 -218.5l-225 -77q-64 155 -223 155q-96 0 -172 -76t-76 -229q0 -155 76 -231q78 -78 174 -78q166 0 233 178l223 -84
q-50 -155 -172.5 -237.5t-290.5 -82.5zM571 1288l-270 -147v186l277 162l272 -162v-186z" />
    <glyph glyph-name="Cdotaccent" unicode="&#x10a;" horiz-adv-x="1462" 
d="M766 -23q-140 0 -263.5 52.5t-215.5 147.5t-145.5 236.5t-53.5 309.5q0 162 53.5 300.5t145.5 233t216 148t263 53.5q233 0 393.5 -114t220.5 -326l-254 -64q-27 101 -116 181q-85 79 -244 79q-176 0 -293 -138.5t-117 -352.5q0 -224 117 -363t295 -139q152 0 252.5 93.5
t126.5 232.5l256 -49q-27 -161 -118.5 -280.5t-225.5 -180t-293 -60.5zM766 1591q-62 0 -102.5 41.5t-40.5 104.5q0 61 41.5 102t101.5 41q62 0 102.5 -41t40.5 -102q0 -63 -40.5 -104.5t-102.5 -41.5z" />
    <glyph glyph-name="cdotaccent" unicode="&#x10b;" horiz-adv-x="1087" 
d="M573 -23q-96 0 -185 35.5t-159 101.5t-111.5 169t-41.5 229q0 125 42.5 227t113 166.5t159 99.5t184.5 35q173 0 290.5 -82.5t160.5 -218.5l-225 -77q-64 155 -223 155q-96 0 -172 -76t-76 -229q0 -155 76 -231q78 -78 174 -78q166 0 233 178l223 -84
q-50 -155 -172.5 -237.5t-290.5 -82.5zM573 1182q-62 0 -102.5 41t-40.5 104q0 61 41.5 102t101.5 41q62 0 103 -41t41 -102q0 -63 -41 -104t-103 -41z" />
    <glyph glyph-name="Ccaron" unicode="&#x10c;" horiz-adv-x="1462" 
d="M766 -23q-140 0 -263.5 52.5t-215.5 147.5t-145.5 236.5t-53.5 309.5q0 162 53.5 300.5t145.5 233t216 148t263 53.5q233 0 393.5 -114t220.5 -326l-254 -64q-27 101 -116 181q-85 79 -244 79q-176 0 -293 -138.5t-117 -352.5q0 -224 117 -363t295 -139q152 0 252.5 93.5
t126.5 232.5l256 -49q-27 -161 -118.5 -280.5t-225.5 -180t-293 -60.5zM772 1749l291 154v-189l-297 -166l-293 166v189z" />
    <glyph glyph-name="ccaron" unicode="&#x10d;" horiz-adv-x="1087" 
d="M573 -23q-96 0 -185 35.5t-159 101.5t-111.5 169t-41.5 229q0 125 42.5 227t113 166.5t159 99.5t184.5 35q173 0 290.5 -82.5t160.5 -218.5l-225 -77q-64 155 -223 155q-96 0 -172 -76t-76 -229q0 -155 76 -231q78 -78 174 -78q166 0 233 178l223 -84
q-50 -155 -172.5 -237.5t-290.5 -82.5zM578 1343l270 148v-186l-277 -162l-272 162v186z" />
    <glyph glyph-name="Dcaron" unicode="&#x10e;" horiz-adv-x="1421" 
d="M662 0h-498v1434h495q133 0 254 -47t215.5 -133.5t150.5 -222t56 -300.5q0 -173 -55.5 -314t-149.5 -230.5t-214 -138t-254 -48.5zM426 1202v-971h227q179 0 295.5 136t116.5 364q0 212 -120 341.5t-298 129.5h-221zM647 1749l291 154v-189l-297 -166l-293 166v189z" />
    <glyph glyph-name="dcaron" unicode="&#x10f;" horiz-adv-x="1216" 
d="M1374 1133h-207l86 337h228zM578 207q99 0 167.5 65t69.5 183v114q-1 114 -68 179t-169 65q-105 0 -173.5 -79t-68.5 -222q0 -146 68.5 -225.5t173.5 -79.5zM1065 0h-236v109q-52 -58 -126.5 -92.5t-163.5 -34.5q-94 0 -176.5 35.5t-145 101.5t-99 167.5t-36.5 225.5
q0 122 36.5 222.5t99 166t144.5 101.5t175 36q173 0 278 -102v534h250v-1470z" />
    <glyph glyph-name="Dcroat" unicode="&#x110;" horiz-adv-x="1482" 
d="M723 0h-498v645h-184v209h184v580h496q133 0 254 -47t215.5 -133.5t150.5 -222t56 -300.5q0 -139 -36 -258t-99.5 -205t-149 -147t-184.5 -91t-205 -30zM487 645v-414h228q179 0 295 136t116 364q0 212 -119.5 341.5t-297.5 129.5h-222v-348h252v-209h-252z" />
    <glyph glyph-name="dslash" unicode="&#x111;" horiz-adv-x="1216" 
d="M578 207q99 0 167.5 65t69.5 183v114q-1 114 -68 179t-169 65q-105 0 -173.5 -79t-68.5 -222q0 -146 68.5 -225.5t173.5 -79.5zM1065 0h-236v109q-52 -58 -126.5 -92.5t-163.5 -34.5q-94 0 -176.5 35.5t-145 101.5t-99 167.5t-36.5 225.5q0 122 36.5 222.5t99 166
t144.5 101.5t175 36q173 0 278 -102v235h-287v150h287v149h250v-149h176v-150h-176v-1171z" />
    <glyph glyph-name="Emacron" unicode="&#x112;" horiz-adv-x="1228" 
d="M424 231h715v-231h-975v1434h966v-232h-706v-293h655v-231h-655v-447zM909 1628h-514v170h514v-170z" />
    <glyph glyph-name="emacron" unicode="&#x113;" horiz-adv-x="1124" 
d="M567 842q-93 0 -161 -57t-74 -158h465q-7 105 -72.5 160t-157.5 55zM866 328l172 -119q-62 -107 -176.5 -168t-269.5 -61q-105 0 -198.5 35.5t-164 102t-112 169t-41.5 227.5q0 120 39.5 220t107.5 166.5t158.5 103t191.5 36.5q205 0 336 -131t140 -352q2 -51 2 -100
h-725q6 -126 84.5 -201.5t191.5 -75.5q81 0 151 39.5t113 108.5zM819 1219h-493v165h493v-165z" />
    <glyph glyph-name="Ebreve" unicode="&#x114;" horiz-adv-x="1228" 
d="M424 231h715v-231h-975v1434h966v-232h-706v-293h655v-231h-655v-447zM653 1565q-146 0 -231 74.5t-90 203.5h172q2 -55 40.5 -88t108.5 -33t109 33t41 88h170q-6 -128 -94 -203t-226 -75z" />
    <glyph glyph-name="ebreve" unicode="&#x115;" horiz-adv-x="1124" 
d="M567 842q-93 0 -161 -57t-74 -158h465q-7 105 -72.5 160t-157.5 55zM866 328l172 -119q-62 -107 -176.5 -168t-269.5 -61q-105 0 -198.5 35.5t-164 102t-112 169t-41.5 227.5q0 120 39.5 220t107.5 166.5t158.5 103t191.5 36.5q205 0 336 -131t140 -352q2 -51 2 -100
h-725q6 -126 84.5 -201.5t191.5 -75.5q81 0 151 39.5t113 108.5zM573 1159q-126 0 -205 74.5t-83 200.5h168q0 -54 32.5 -86.5t87.5 -32.5t88 32.5t33 86.5h166q-4 -126 -85 -200.5t-202 -74.5z" />
    <glyph glyph-name="Edotaccent" unicode="&#x116;" horiz-adv-x="1228" 
d="M424 231h715v-231h-975v1434h966v-232h-706v-293h655v-231h-655v-447zM653 1591q-62 0 -102.5 41.5t-40.5 104.5q0 61 41.5 102t101.5 41q62 0 103 -41t41 -102q0 -63 -41 -104.5t-103 -41.5z" />
    <glyph glyph-name="edotaccent" unicode="&#x117;" horiz-adv-x="1124" 
d="M567 842q-93 0 -161 -57t-74 -158h465q-7 105 -72.5 160t-157.5 55zM866 328l172 -119q-62 -107 -176.5 -168t-269.5 -61q-105 0 -198.5 35.5t-164 102t-112 169t-41.5 227.5q0 120 39.5 220t107.5 166.5t158.5 103t191.5 36.5q205 0 336 -131t140 -352q2 -51 2 -100
h-725q6 -126 84.5 -201.5t191.5 -75.5q81 0 151 39.5t113 108.5zM573 1182q-62 0 -102.5 41t-40.5 104q0 61 41.5 102t101.5 41q62 0 103 -41t41 -102q0 -63 -41 -104t-103 -41z" />
    <glyph glyph-name="Eogonek" unicode="&#x118;" horiz-adv-x="1228" 
d="M424 231h715v-231h-975v1434h966v-232h-706v-293h655v-231h-655v-447zM979 -414q-91 0 -153 46t-62 130t61.5 155t178.5 138l135 -55q-78 -34 -131.5 -82.5t-53.5 -103.5q0 -30 18.5 -45t45.5 -15q45 0 86 35l86 -125q-84 -78 -211 -78z" />
    <glyph glyph-name="eogonek" unicode="&#x119;" horiz-adv-x="1124" 
d="M567 842q-93 0 -161 -57t-74 -158h465q-7 105 -72.5 160t-157.5 55zM920 -211l86 -125q-84 -78 -211 -78q-93 0 -154 47t-61 134q0 117 94 217q-54 -4 -82 -4q-105 0 -198.5 35.5t-164 102t-112 169t-41.5 227.5q0 120 39.5 220t107.5 166.5t158.5 103t191.5 36.5
q205 0 336 -131t140 -352q2 -51 2 -100h-725q6 -126 84.5 -201.5t191.5 -75.5q81 0 151 39.5t113 108.5l172 -119q-37 -67 -108 -125q-160 -136 -160 -262q0 -33 19 -50.5t47 -17.5q43 0 84 35z" />
    <glyph glyph-name="Ecaron" unicode="&#x11a;" horiz-adv-x="1228" 
d="M424 231h715v-231h-975v1434h966v-232h-706v-293h655v-231h-655v-447zM659 1749l291 154v-189l-297 -166l-293 166v189z" />
    <glyph glyph-name="ecaron" unicode="&#x11b;" horiz-adv-x="1124" 
d="M567 842q-93 0 -161 -57t-74 -158h465q-7 105 -72.5 160t-157.5 55zM866 328l172 -119q-62 -107 -176.5 -168t-269.5 -61q-105 0 -198.5 35.5t-164 102t-112 169t-41.5 227.5q0 120 39.5 220t107.5 166.5t158.5 103t191.5 36.5q205 0 336 -131t140 -352q2 -51 2 -100
h-725q6 -126 84.5 -201.5t191.5 -75.5q81 0 151 39.5t113 108.5zM578 1343l270 148v-186l-277 -162l-272 162v186z" />
    <glyph glyph-name="Gcircumflex" unicode="&#x11c;" horiz-adv-x="1519" 
d="M1432 719v-70q0 -161 -54 -291t-145.5 -212t-208.5 -125.5t-248 -43.5q-143 0 -269 52.5t-219 147t-146.5 235.5t-53.5 309q0 165 53 304t145.5 233.5t218 147t269.5 52.5q227 0 393 -106q169 -108 234 -314l-250 -75q-27 95 -127 172q-98 79 -250 79q-180 0 -299 -137
t-119 -356q0 -228 119 -365t301 -137q147 0 249.5 73t131.5 197h-358v230h633zM770 1686l-291 -154v188l297 166l293 -166v-188z" />
    <glyph glyph-name="gcircumflex" unicode="&#x11d;" horiz-adv-x="1060" 
d="M324 674q0 -75 52 -123.5t132 -48.5q79 0 129.5 48.5t50.5 123.5q0 74 -51 122t-129 48q-81 0 -132.5 -48t-51.5 -122zM983 -104q0 -141 -121.5 -225.5t-322.5 -84.5h-58q-197 0 -316.5 73t-119.5 210q0 82 52 140.5t143 90.5q-72 45 -72 121q0 93 102 150
q-80 46 -127 124.5t-47 178.5q0 82 34 151t91 114t132 70t157 25q40 0 126.5 -10t174.5 -10h209v-187l-152 2q45 -82 45 -157q0 -165 -114 -263t-289 -98q-59 0 -85 -20t-26 -45q0 -57 115 -60l135 -6q164 -7 249 -81t85 -203zM485 -227h58q102 0 155.5 29t53.5 83
q0 113 -193 113h-76q-209 -3 -209 -117q0 -108 211 -108zM530 1284l-270 -147v186l277 162l272 -162v-186z" />
    <glyph glyph-name="Gbreve" unicode="&#x11e;" horiz-adv-x="1519" 
d="M1432 719v-70q0 -161 -54 -291t-145.5 -212t-208.5 -125.5t-248 -43.5q-143 0 -269 52.5t-219 147t-146.5 235.5t-53.5 309q0 165 53 304t145.5 233.5t218 147t269.5 52.5q227 0 393 -106q169 -108 234 -314l-250 -75q-27 95 -127 172q-98 79 -250 79q-180 0 -299 -137
t-119 -356q0 -228 119 -365t301 -137q147 0 249.5 73t131.5 197h-358v230h633zM776 1565q-146 0 -231 74.5t-90 203.5h172q2 -55 40.5 -88t108.5 -33t109 33t41 88h170q-6 -128 -94 -203t-226 -75z" />
    <glyph glyph-name="gbreve" unicode="&#x11f;" horiz-adv-x="1060" 
d="M324 674q0 -75 52 -123.5t132 -48.5q79 0 129.5 48.5t50.5 123.5q0 74 -51 122t-129 48q-81 0 -132.5 -48t-51.5 -122zM983 -104q0 -141 -121.5 -225.5t-322.5 -84.5h-58q-197 0 -316.5 73t-119.5 210q0 82 52 140.5t143 90.5q-72 45 -72 121q0 93 102 150
q-80 46 -127 124.5t-47 178.5q0 82 34 151t91 114t132 70t157 25q40 0 126.5 -10t174.5 -10h209v-187l-152 2q45 -82 45 -157q0 -165 -114 -263t-289 -98q-59 0 -85 -20t-26 -45q0 -57 115 -60l135 -6q164 -7 249 -81t85 -203zM485 -227h58q102 0 155.5 29t53.5 83
q0 113 -193 113h-76q-209 -3 -209 -117q0 -108 211 -108zM535 1155q-126 0 -205.5 74.5t-83.5 200.5h168q0 -54 33 -86.5t88 -32.5t87.5 32.5t32.5 86.5h166q-4 -126 -84.5 -200.5t-201.5 -74.5z" />
    <glyph glyph-name="Gdotaccent" unicode="&#x120;" horiz-adv-x="1519" 
d="M1432 719v-70q0 -161 -54 -291t-145.5 -212t-208.5 -125.5t-248 -43.5q-143 0 -269 52.5t-219 147t-146.5 235.5t-53.5 309q0 165 53 304t145.5 233.5t218 147t269.5 52.5q227 0 393 -106q169 -108 234 -314l-250 -75q-27 95 -127 172q-98 79 -250 79q-180 0 -299 -137
t-119 -356q0 -228 119 -365t301 -137q147 0 249.5 73t131.5 197h-358v230h633zM774 1591q-62 0 -102.5 41.5t-40.5 104.5q0 61 41.5 102t101.5 41q62 0 103 -41t41 -102q0 -63 -41 -104.5t-103 -41.5z" />
    <glyph glyph-name="gdotaccent" unicode="&#x121;" horiz-adv-x="1060" 
d="M324 674q0 -75 52 -123.5t132 -48.5q79 0 129.5 48.5t50.5 123.5q0 74 -51 122t-129 48q-81 0 -132.5 -48t-51.5 -122zM983 -104q0 -141 -121.5 -225.5t-322.5 -84.5h-58q-197 0 -316.5 73t-119.5 210q0 82 52 140.5t143 90.5q-72 45 -72 121q0 93 102 150
q-80 46 -127 124.5t-47 178.5q0 82 34 151t91 114t132 70t157 25q40 0 126.5 -10t174.5 -10h209v-187l-152 2q45 -82 45 -157q0 -165 -114 -263t-289 -98q-59 0 -85 -20t-26 -45q0 -57 115 -60l135 -6q164 -7 249 -81t85 -203zM485 -227h58q102 0 155.5 29t53.5 83
q0 113 -193 113h-76q-209 -3 -209 -117q0 -108 211 -108zM532 1178q-62 0 -102.5 41t-40.5 104q0 61 41.5 102t101.5 41q62 0 103 -41t41 -102q0 -63 -41 -104t-103 -41z" />
    <glyph glyph-name="Gcommaaccent" unicode="&#x122;" horiz-adv-x="1519" 
d="M1432 719v-70q0 -161 -54 -291t-145.5 -212t-208.5 -125.5t-248 -43.5q-143 0 -269 52.5t-219 147t-146.5 235.5t-53.5 309q0 165 53 304t145.5 233.5t218 147t269.5 52.5q227 0 393 -106q169 -108 234 -314l-250 -75q-27 95 -127 172q-98 79 -250 79q-180 0 -299 -137
t-119 -356q0 -228 119 -365t301 -137q147 0 249.5 73t131.5 197h-358v230h633zM807 -526h-143l69 157q-35 13 -62.5 45t-27.5 78q0 56 40.5 94.5t92.5 38.5q56 0 94.5 -39t38.5 -94q0 -24 -6.5 -51t-14 -47t-24.5 -59z" />
    <glyph glyph-name="gcommaaccent" unicode="&#x123;" horiz-adv-x="1060" 
d="M324 674q0 -75 52 -123.5t132 -48.5q79 0 129.5 48.5t50.5 123.5q0 74 -51 122t-129 48q-81 0 -132.5 -48t-51.5 -122zM983 -104q0 -141 -121.5 -225.5t-322.5 -84.5h-58q-197 0 -316.5 73t-119.5 210q0 82 52 140.5t143 90.5q-72 45 -72 121q0 93 102 150
q-80 46 -127 124.5t-47 178.5q0 82 34 151t91 114t132 70t157 25q40 0 126.5 -10t174.5 -10h209v-187l-152 2q45 -82 45 -157q0 -165 -114 -263t-289 -98q-59 0 -85 -20t-26 -45q0 -57 115 -60l135 -6q164 -7 249 -81t85 -203zM485 -227h58q102 0 155.5 29t53.5 83
q0 113 -193 113h-76q-209 -3 -209 -117q0 -108 211 -108zM504 1556h143l-69 -157q35 -13 62.5 -45t27.5 -78q0 -56 -40.5 -94.5t-92.5 -38.5q-56 0 -95 39t-39 94q0 53 45 158z" />
    <glyph glyph-name="Hcircumflex" unicode="&#x124;" horiz-adv-x="1515" 
d="M1352 0h-262v727h-664v-727h-262v1434h262v-476h664v476h262v-1434zM754 1686l-291 -154v188l297 166l293 -166v-188z" />
    <glyph glyph-name="hcircumflex" unicode="&#x125;" horiz-adv-x="1202" 
d="M621 813q-70 0 -129.5 -44t-90.5 -118v-651h-249v1470h249v-585q46 71 122.5 112t176.5 41q167 0 266 -102.5t99 -302.5v-633h-250v590q0 223 -194 223zM641 1708l-270 -147v186l276 162l273 -162v-186z" />
    <glyph glyph-name="Hbar" unicode="&#x126;" horiz-adv-x="1529" 
d="M432 844h666v200h-666v-200zM1360 0h-262v612h-666v-612h-260v1044h-141v177h141v213h260v-213h666v213h262v-213h139v-177h-139v-1044z" />
    <glyph glyph-name="hbar" unicode="&#x127;" horiz-adv-x="1202" 
d="M621 813q-70 0 -129.5 -44t-90.5 -118v-651h-249v1171h-177v150h177v149h249v-149h287v-150h-287v-286q46 71 122.5 112t176.5 41q167 0 266 -102.5t99 -302.5v-633h-250v590q0 223 -194 223z" />
    <glyph glyph-name="Itilde" unicode="&#x128;" 
d="M426 0h-262v1434h262v-1434zM416 1579q-44 0 -86 20.5t-76.5 41t-60.5 20.5q-32 0 -51 -21.5t-21 -54.5l-139 21q2 96 55 162.5t137 66.5q43 0 85.5 -20.5t78 -41t61.5 -20.5q31 0 49.5 21.5t20.5 54.5l139 -21q-2 -97 -54.5 -163t-137.5 -66z" />
    <glyph glyph-name="itilde" unicode="&#x129;" horiz-adv-x="552" 
d="M401 0h-249v1014h249v-1014zM397 1169q-44 0 -86 20.5t-76.5 41t-60.5 20.5q-32 0 -51 -21t-21 -54l-139 20q2 96 55.5 162.5t137.5 66.5q43 0 85.5 -20.5t78 -41t61.5 -20.5q31 0 49.5 21.5t20.5 54.5l139 -20q-2 -97 -55 -163.5t-138 -66.5z" />
    <glyph glyph-name="Imacron" unicode="&#x12a;" 
d="M426 0h-262v1434h262v-1434zM551 1628h-514v170h514v-170z" />
    <glyph glyph-name="imacron" unicode="&#x12b;" horiz-adv-x="552" 
d="M401 0h-249v1014h249v-1014zM522 1219h-493v165h493v-165z" />
    <glyph glyph-name="Ibreve" unicode="&#x12c;" 
d="M426 0h-262v1434h262v-1434zM295 1575q-120 0 -193.5 71t-74.5 197h161q0 -52 28.5 -85.5t78.5 -33.5t78 33t28 86h164q-4 -127 -77.5 -197.5t-192.5 -70.5z" />
    <glyph glyph-name="ibreve" unicode="&#x12d;" horiz-adv-x="552" 
d="M401 0h-249v1014h249v-1014zM276 1165q-120 0 -193.5 71.5t-74.5 197.5h162q0 -53 28 -86t78 -33t78.5 33.5t28.5 85.5h164q-4 -127 -78 -198t-193 -71z" />
    <glyph glyph-name="Iogonek" unicode="&#x12e;" 
d="M426 0h-262v1434h262v-1434zM266 -414q-91 0 -153 46t-62 130t61.5 155t178.5 138l135 -55q-77 -33 -130.5 -82t-53.5 -104q0 -30 18 -45t45 -15q45 0 86 35l86 -125q-84 -78 -211 -78z" />
    <glyph glyph-name="iogonek" unicode="&#x12f;" horiz-adv-x="552" 
d="M276 1174q-63 0 -106 43t-43 106t43 105t106 42q64 0 108 -42t44 -105t-44.5 -106t-107.5 -43zM401 0h-249v1014h249v-1014zM242 -414q-91 0 -153 46t-62 130t61 155t178 138l135 -55q-77 -33 -130.5 -82t-53.5 -104q0 -30 18.5 -45t45.5 -15q45 0 86 35l86 -125
q-84 -78 -211 -78z" />
    <glyph glyph-name="Idot" unicode="&#x130;" 
d="M426 0h-262v1434h262v-1434zM295 1591q-62 0 -102.5 41.5t-40.5 104.5q0 61 41.5 102t101.5 41q61 0 102 -41t41 -102q0 -63 -40.5 -104.5t-102.5 -41.5z" />
    <glyph glyph-name="dotlessi" unicode="&#x131;" horiz-adv-x="552" 
d="M401 0h-249v1014h249v-1014z" />
    <glyph glyph-name="IJ" unicode="&#x132;" horiz-adv-x="1370" 
d="M426 0h-262v1434h262v-1434zM838 -18q-73 0 -145 20.5t-122 56.5l131 211q61 -47 127 -47q127 0 127 170v1041h261v-1043q0 -201 -99 -305t-280 -104z" />
    <glyph glyph-name="ij" unicode="&#x133;" horiz-adv-x="1105" 
d="M276 1174q-63 0 -106 43t-43 106t43 105t106 42q64 0 108 -42t44 -105t-44.5 -106t-107.5 -43zM401 0h-249v1014h249v-1014zM829 1174q-63 0 -106 43t-43 106t43 105t106 42t107.5 -42t44.5 -105t-44.5 -106t-107.5 -43zM705 1014h249v-1110q0 -159 -89 -239.5
t-232 -80.5q-88 0 -163.5 33t-119.5 90l148 156q48 -62 112 -62q41 0 68 26t27 75v1112z" />
    <glyph glyph-name="Jcircumflex" unicode="&#x134;" horiz-adv-x="1089" 
d="M481 -20q-194 0 -316.5 107.5t-148.5 311.5l252 45q28 -221 215 -221q86 0 139.5 58t53.5 170v983h262v-983q0 -227 -126.5 -349t-330.5 -122zM805 1686l-291 -154v188l297 166l293 -166v-188z" />
    <glyph glyph-name="jcircumflex" unicode="&#x135;" horiz-adv-x="552" 
d="M152 1014h249v-1110q0 -159 -89 -239.5t-232 -80.5q-88 0 -163.5 33t-119.5 90l148 156q48 -62 112 -62q41 0 68 26t27 75v1112zM272 1288l-270 -147v186l277 162l272 -162v-186z" />
    <glyph glyph-name="Kcommaaccent" unicode="&#x136;" horiz-adv-x="1353" 
d="M1341 0h-307l-440 776l-170 -164v-612h-260v1434h260v-519l543 519h346l-516 -480zM723 -526h-143l69 157q-35 13 -62.5 45t-27.5 78q0 56 40.5 94.5t92.5 38.5q56 0 94.5 -39t38.5 -94q0 -24 -6.5 -51t-14 -47t-24.5 -59z" />
    <glyph glyph-name="kcommaaccent" unicode="&#x137;" horiz-adv-x="1120" 
d="M1100 0h-289l-295 526l-119 -106v-420h-245v1470h245v-782l369 326h328l-385 -336zM606 -526h-143l69 157q-35 13 -62.5 45t-27.5 78q0 56 40.5 94.5t92.5 38.5q56 0 95 -39t39 -94q0 -24 -6.5 -51t-14 -47t-24.5 -59z" />
    <glyph glyph-name="kgreenlandic" unicode="&#x138;" horiz-adv-x="1114" 
d="M1100 0h-289l-291 522l-123 -114v-408h-245v1014h245v-334l371 334h326l-383 -342z" />
    <glyph glyph-name="Lacute" unicode="&#x139;" horiz-adv-x="1101" 
d="M1059 0h-895v1434h262v-1203h633v-231zM389 1561h-203v4l138 288h280v-4z" />
    <glyph glyph-name="lacute" unicode="&#x13a;" horiz-adv-x="552" 
d="M401 0h-249v1470h249v-1470zM371 1550h-203v4l137 289h281v-4z" />
    <glyph glyph-name="Lcommaaccent" unicode="&#x13b;" horiz-adv-x="1101" 
d="M1059 0h-895v1434h262v-1203h633v-231zM653 -526h-143l70 157q-35 13 -63 45t-28 78q0 56 40.5 94.5t93.5 38.5q56 0 94.5 -39t38.5 -94q0 -24 -6.5 -51t-14 -47t-24.5 -59z" />
    <glyph glyph-name="lcommaaccent" unicode="&#x13c;" horiz-adv-x="552" 
d="M401 0h-249v1470h249v-1470zM307 -526h-143l69 157q-35 13 -62.5 45t-27.5 78q0 56 40.5 94.5t92.5 38.5q56 0 95 -39t39 -94q0 -24 -6.5 -51t-14 -47t-24.5 -59z" />
    <glyph glyph-name="Lcaron" unicode="&#x13d;" horiz-adv-x="1101" 
d="M1059 0h-895v1434h262v-1203h633v-231zM778 1034h-143l70 158q-35 13 -63 45t-28 78q0 56 41 94.5t93 38.5q56 0 94.5 -39t38.5 -94q0 -53 -45 -158z" />
    <glyph glyph-name="lcaron" unicode="&#x13e;" horiz-adv-x="552" 
d="M401 0h-249v1470h249v-1470zM713 1133h-209l88 337h225z" />
    <glyph glyph-name="Ldot" unicode="&#x13f;" horiz-adv-x="1105" 
d="M1059 0h-895v1434h262v-1203h633v-231zM827 608q-67 0 -114 49t-47 117q0 66 47 114t114 48t114.5 -48t47.5 -114q0 -68 -47.5 -117t-114.5 -49z" />
    <glyph glyph-name="ldot" unicode="&#x140;" horiz-adv-x="868" 
d="M401 0h-249v1470h249v-1470zM678 561q-67 0 -114.5 49t-47.5 117q0 66 47.5 114t114.5 48t114.5 -48t47.5 -114q0 -68 -47.5 -117t-114.5 -49z" />
    <glyph glyph-name="Lslash" unicode="&#x141;" horiz-adv-x="1126" 
d="M1081 231v-231h-895v436l-149 -76v203l149 76v795h263v-682l385 194v-203l-385 -194v-318h632z" />
    <glyph glyph-name="lslash" unicode="&#x142;" horiz-adv-x="610" 
d="M428 686v-686h-250v561l-155 -78v213l155 78v696h250v-571l162 80v-213z" />
    <glyph glyph-name="Nacute" unicode="&#x143;" horiz-adv-x="1505" 
d="M1341 0h-251l-670 983v-983h-256v1434h252l669 -990v990h256v-1434zM846 1561h-203v4l137 288h281v-4z" />
    <glyph glyph-name="nacute" unicode="&#x144;" horiz-adv-x="1202" 
d="M621 813q-70 0 -129.5 -44t-90.5 -118v-651h-249v1014h249v-129q46 71 122.5 112t176.5 41q167 0 266 -102.5t99 -302.5v-633h-250v590q0 223 -194 223zM717 1151h-203v4l137 289h281v-4z" />
    <glyph glyph-name="Ncommaaccent" unicode="&#x145;" horiz-adv-x="1505" 
d="M1341 0h-251l-670 983v-983h-256v1434h252l669 -990v990h256v-1434zM784 -526h-143l70 157q-35 13 -62.5 45t-27.5 78q0 56 40.5 94.5t92.5 38.5q56 0 94.5 -39t38.5 -94q0 -24 -6.5 -51t-14 -47t-24.5 -59z" />
    <glyph glyph-name="ncommaaccent" unicode="&#x146;" horiz-adv-x="1202" 
d="M621 813q-70 0 -129.5 -44t-90.5 -118v-651h-249v1014h249v-129q46 71 122.5 112t176.5 41q167 0 266 -102.5t99 -302.5v-633h-250v590q0 223 -194 223zM637 -526h-143l69 157q-35 13 -62.5 45t-27.5 78q0 56 40.5 94.5t92.5 38.5q56 0 94.5 -39t38.5 -94q0 -24 -6.5 -51
t-14 -47t-24.5 -59z" />
    <glyph glyph-name="Ncaron" unicode="&#x147;" horiz-adv-x="1505" 
d="M1341 0h-251l-670 983v-983h-256v1434h252l669 -990v990h256v-1434zM760 1749l291 154v-189l-297 -166l-293 166v189z" />
    <glyph glyph-name="ncaron" unicode="&#x148;" horiz-adv-x="1202" 
d="M621 813q-70 0 -129.5 -44t-90.5 -118v-651h-249v1014h249v-129q46 71 122.5 112t176.5 41q167 0 266 -102.5t99 -302.5v-633h-250v590q0 223 -194 223zM629 1343l270 148v-186l-276 -162l-273 162v186z" />
    <glyph glyph-name="Eng" unicode="&#x14a;" horiz-adv-x="1505" 
d="M1026 -428q-83 0 -152.5 29t-111.5 84l149 155q39 -51 93 -51q35 0 58 24t23 72v121l-665 977v-983h-256v1434h252l669 -990v990h256v-1545q0 -170 -94 -243q-95 -74 -221 -74z" />
    <glyph glyph-name="eng" unicode="&#x14b;" horiz-adv-x="1185" 
d="M1065 633v-653q0 -176 -90.5 -274t-276.5 -105l-26 217q143 17 143 176v596q0 223 -194 223q-70 0 -129.5 -44t-90.5 -118v-651h-249v1014h249v-129q46 71 122.5 112t176.5 41q167 0 266 -102.5t99 -302.5z" />
    <glyph glyph-name="Omacron" unicode="&#x14c;" horiz-adv-x="1556" 
d="M778 -23q-142 0 -268 52t-220 146.5t-149 235.5t-55 310q0 164 54 303t147.5 233.5t220 147.5t270.5 53t270.5 -52.5t220 -147t147.5 -233.5t54 -304q0 -168 -55 -309t-149 -235.5t-220 -147t-268 -52.5zM778 221q184 0 303 138.5t119 361.5q0 217 -119.5 355t-302.5 138
t-302.5 -138t-119.5 -355q0 -221 120.5 -360.5t301.5 -139.5zM1036 1628h-514v170h514v-170z" />
    <glyph glyph-name="omacron" unicode="&#x14d;" horiz-adv-x="1169" 
d="M586 -23q-138 0 -253 63t-186 186.5t-71 285.5q0 122 42 223t112.5 167t162.5 102t193 36q103 0 194.5 -36t161.5 -101.5t111 -166.5t41 -224q0 -121 -41.5 -223t-112 -169.5t-162 -105t-192.5 -37.5zM586 201q109 0 181.5 83.5t72.5 227.5q0 143 -72.5 225t-181.5 82
t-182.5 -81.5t-73.5 -225.5q0 -143 74 -227t182 -84zM831 1219h-493v165h493v-165z" />
    <glyph glyph-name="Obreve" unicode="&#x14e;" horiz-adv-x="1556" 
d="M778 -23q-142 0 -268 52t-220 146.5t-149 235.5t-55 310q0 164 54 303t147.5 233.5t220 147.5t270.5 53t270.5 -52.5t220 -147t147.5 -233.5t54 -304q0 -168 -55 -309t-149 -235.5t-220 -147t-268 -52.5zM778 221q184 0 303 138.5t119 361.5q0 217 -119.5 355t-302.5 138
t-302.5 -138t-119.5 -355q0 -221 120.5 -360.5t301.5 -139.5zM780 1565q-146 0 -231 74.5t-90 203.5h172q2 -55 40.5 -88t108.5 -33t109 33t41 88h170q-6 -128 -94 -203t-226 -75z" />
    <glyph glyph-name="obreve" unicode="&#x14f;" horiz-adv-x="1169" 
d="M586 -23q-138 0 -253 63t-186 186.5t-71 285.5q0 122 42 223t112.5 167t162.5 102t193 36q103 0 194.5 -36t161.5 -101.5t111 -166.5t41 -224q0 -121 -41.5 -223t-112 -169.5t-162 -105t-192.5 -37.5zM586 201q109 0 181.5 83.5t72.5 227.5q0 143 -72.5 225t-181.5 82
t-182.5 -81.5t-73.5 -225.5q0 -143 74 -227t182 -84zM586 1159q-126 0 -205.5 74.5t-83.5 200.5h168q0 -54 33 -86.5t88 -32.5t88 32.5t33 86.5h165q-4 -126 -84.5 -200.5t-201.5 -74.5z" />
    <glyph glyph-name="Ohungarumlaut" unicode="&#x150;" horiz-adv-x="1556" 
d="M778 -23q-142 0 -268 52t-220 146.5t-149 235.5t-55 310q0 164 54 303t147.5 233.5t220 147.5t270.5 53t270.5 -52.5t220 -147t147.5 -233.5t54 -304q0 -168 -55 -309t-149 -235.5t-220 -147t-268 -52.5zM778 221q184 0 303 138.5t119 361.5q0 217 -119.5 355t-302.5 138
t-302.5 -138t-119.5 -355q0 -221 120.5 -360.5t301.5 -139.5zM1006 1561h-166l174 292h215zM698 1561h-159l131 292h202z" />
    <glyph glyph-name="ohungarumlaut" unicode="&#x151;" horiz-adv-x="1169" 
d="M586 -23q-138 0 -253 63t-186 186.5t-71 285.5q0 122 42 223t112.5 167t162.5 102t193 36q103 0 194.5 -36t161.5 -101.5t111 -166.5t41 -224q0 -121 -41.5 -223t-112 -169.5t-162 -105t-192.5 -37.5zM586 201q109 0 181.5 83.5t72.5 227.5q0 143 -72.5 225t-181.5 82
t-182.5 -81.5t-73.5 -225.5q0 -143 74 -227t182 -84zM813 1151h-166l174 293h215zM506 1151h-160l131 293h203z" />
    <glyph glyph-name="OE" unicode="&#x152;" horiz-adv-x="2011" 
d="M770 240h176v954h-176q-181 0 -299 -133q-115 -133 -115 -340q0 -213 117 -348q121 -133 297 -133zM1921 0h-1151q-142 0 -266.5 50t-216.5 141.5t-145.5 228t-53.5 301.5q0 160 52.5 294t144 225.5t216.5 142.5t269 51h1143v-232h-707v-293h656v-231h-656v-447h715v-231
z" />
    <glyph glyph-name="oe" unicode="&#x153;" horiz-adv-x="1875" 
d="M1321 842q-93 0 -161.5 -57t-74.5 -158h463q-7 105 -71.5 160t-155.5 55zM580 195q108 0 178.5 84.5t70.5 232.5q0 143 -71.5 228t-177.5 85q-107 0 -178.5 -83t-71.5 -230q0 -145 72 -231t178 -86zM1618 328l172 -119q-62 -107 -177.5 -169.5t-269.5 -62.5
q-122 0 -223 49.5t-164 141.5q-63 -91 -161 -141t-215 -50q-103 0 -194.5 37t-160.5 104.5t-109 169.5t-40 224t41 223t110.5 167t160.5 102t192 36q119 0 216 -48t160 -138q64 89 159.5 137.5t211.5 48.5q206 0 334 -131q130 -130 139 -352q2 -51 2 -100h-723
q6 -126 85 -201.5t192 -75.5q81 0 150 39t112 109z" />
    <glyph glyph-name="Racute" unicode="&#x154;" horiz-adv-x="1308" 
d="M723 1202h-301v-352h305q88 0 141.5 47t53.5 133q0 78 -56.5 125t-142.5 47zM1288 0h-301l-352 623h-213v-623h-258v1434h584q189 0 315.5 -109.5t126.5 -288.5q0 -171 -113 -284q-66 -72 -168 -101zM686 1561h-203v4l138 288h280v-4z" />
    <glyph glyph-name="racute" unicode="&#x155;" horiz-adv-x="802" 
d="M571 799q-55 0 -102 -35.5t-68 -87.5v-676h-249v1014h249v-117q34 59 90.5 96t126.5 37q111 0 175 -49l-88 -223q-62 41 -134 41zM516 1151h-203v4l138 289h280v-4z" />
    <glyph glyph-name="Rcommaaccent" unicode="&#x156;" horiz-adv-x="1308" 
d="M723 1202h-301v-352h305q88 0 141.5 47t53.5 133q0 78 -56.5 125t-142.5 47zM1288 0h-301l-352 623h-213v-623h-258v1434h584q189 0 315.5 -109.5t126.5 -288.5q0 -171 -113 -284q-66 -72 -168 -101zM705 -526h-144l70 157q-35 13 -62.5 45t-27.5 78q0 56 40.5 94.5
t92.5 38.5q56 0 94.5 -39t38.5 -94q0 -24 -6.5 -51t-14 -47t-24.5 -59z" />
    <glyph glyph-name="rcommaaccent" unicode="&#x157;" horiz-adv-x="802" 
d="M571 799q-55 0 -102 -35.5t-68 -87.5v-676h-249v1014h249v-117q34 59 90.5 96t126.5 37q111 0 175 -49l-88 -223q-62 41 -134 41zM307 -526h-143l69 157q-35 13 -62.5 45t-27.5 78q0 56 40.5 94.5t92.5 38.5q56 0 95 -39t39 -94q0 -24 -6.5 -51t-14 -47t-24.5 -59z" />
    <glyph glyph-name="Rcaron" unicode="&#x158;" horiz-adv-x="1308" 
d="M723 1202h-301v-352h305q88 0 141.5 47t53.5 133q0 78 -56.5 125t-142.5 47zM1288 0h-301l-352 623h-213v-623h-258v1434h584q189 0 315.5 -109.5t126.5 -288.5q0 -171 -113 -284q-66 -72 -168 -101zM600 1749l291 154v-189l-297 -166l-293 166v189z" />
    <glyph glyph-name="rcaron" unicode="&#x159;" horiz-adv-x="802" 
d="M571 799q-55 0 -102 -35.5t-68 -87.5v-676h-249v1014h249v-117q34 59 90.5 96t126.5 37q111 0 175 -49l-88 -223q-62 41 -134 41zM426 1343l270 148v-186l-276 -162l-273 162v186z" />
    <glyph glyph-name="Sacute" unicode="&#x15a;" horiz-adv-x="1245" 
d="M627 -23q-242 0 -395.5 131t-165.5 386l256 22q7 -157 92 -239t215 -82q111 0 188 51q80 53 80 147q0 84 -69.5 136.5t-219.5 97.5l-135 41q-182 56 -265 150.5t-83 234.5q0 175 139 290t361 115q227 0 366 -112q141 -114 144 -297v-21l-254 -24v14q-1 76 -36.5 128
t-91.5 74.5t-128 22.5q-108 0 -175 -49t-67 -127q0 -64 49 -104t176 -78l148 -43q207 -60 305 -164t98 -262q0 -195 -148.5 -317t-383.5 -122zM723 1561h-203v4l137 288h281v-4z" />
    <glyph glyph-name="sacute" unicode="&#x15b;" horiz-adv-x="985" 
d="M494 -20q-170 0 -286.5 74t-156.5 218l213 66q26 -82 85.5 -125t144.5 -43q75 0 125.5 31t50.5 86q0 30 -15.5 52t-49.5 37t-67.5 23.5t-88.5 18.5q-151 27 -254 92q-101 64 -101 213q0 145 117 231q116 88 291 88q164 0 266.5 -72.5t136.5 -191.5l-211 -59
q-40 135 -194 135q-75 0 -120.5 -33.5t-45.5 -87.5q0 -23 11 -41t28 -29.5t47 -20.5t58 -14.5t71 -11.5q150 -21 256 -92q106 -69 106 -225q0 -149 -118 -233q-121 -86 -299 -86zM594 1151h-203v4l137 289h281v-4z" />
    <glyph glyph-name="Scircumflex" unicode="&#x15c;" horiz-adv-x="1245" 
d="M627 -23q-242 0 -395.5 131t-165.5 386l256 22q7 -157 92 -239t215 -82q111 0 188 51q80 53 80 147q0 84 -69.5 136.5t-219.5 97.5l-135 41q-182 56 -265 150.5t-83 234.5q0 175 139 290t361 115q227 0 366 -112q141 -114 144 -297v-21l-254 -24v14q-1 76 -36.5 128
t-91.5 74.5t-128 22.5q-108 0 -175 -49t-67 -127q0 -64 49 -104t176 -78l148 -43q207 -60 305 -164t98 -262q0 -195 -148.5 -317t-383.5 -122zM625 1686l-291 -154v188l297 166l293 -166v-188z" />
    <glyph glyph-name="scircumflex" unicode="&#x15d;" horiz-adv-x="985" 
d="M494 -20q-170 0 -286.5 74t-156.5 218l213 66q26 -82 85.5 -125t144.5 -43q75 0 125.5 31t50.5 86q0 30 -15.5 52t-49.5 37t-67.5 23.5t-88.5 18.5q-151 27 -254 92q-101 64 -101 213q0 145 117 231q116 88 291 88q164 0 266.5 -72.5t136.5 -191.5l-211 -59
q-40 135 -194 135q-75 0 -120.5 -33.5t-45.5 -87.5q0 -23 11 -41t28 -29.5t47 -20.5t58 -14.5t71 -11.5q150 -21 256 -92q106 -69 106 -225q0 -149 -118 -233q-121 -86 -299 -86zM498 1288l-271 -147v186l277 162l272 -162v-186z" />
    <glyph glyph-name="Scedilla" unicode="&#x15e;" horiz-adv-x="1245" 
d="M627 -23q-242 0 -395.5 131t-165.5 386l256 22q7 -157 92 -239t215 -82q111 0 188 51q80 53 80 147q0 84 -69.5 136.5t-219.5 97.5l-135 41q-182 56 -265 150.5t-83 234.5q0 175 139 290t361 115q227 0 366 -112q141 -114 144 -297v-21l-254 -24v14q-1 76 -36.5 128
t-91.5 74.5t-128 22.5q-108 0 -175 -49t-67 -127q0 -64 49 -104t176 -78l148 -43q207 -60 305 -164t98 -262q0 -195 -148.5 -317t-383.5 -122zM621 -444q-90 0 -160 22l33 125q61 -20 120 -20q88 0 88 59q0 30 -26 46.5t-70 16.5q-16 0 -47 -3.5t-39 -4.5l51 238h142
l-37 -117q79 -2 131.5 -45.5t52.5 -126.5q0 -93 -65 -141.5t-174 -48.5z" />
    <glyph glyph-name="scedilla" unicode="&#x15f;" horiz-adv-x="985" 
d="M494 -20q-170 0 -286.5 74t-156.5 218l213 66q26 -82 85.5 -125t144.5 -43q75 0 125.5 31t50.5 86q0 30 -15.5 52t-49.5 37t-67.5 23.5t-88.5 18.5q-151 27 -254 92q-101 64 -101 213q0 145 117 231q116 88 291 88q164 0 266.5 -72.5t136.5 -191.5l-211 -59
q-40 135 -194 135q-75 0 -120.5 -33.5t-45.5 -87.5q0 -23 11 -41t28 -29.5t47 -20.5t58 -14.5t71 -11.5q150 -21 256 -92q106 -69 106 -225q0 -149 -118 -233q-121 -86 -299 -86zM483 -444q-89 0 -159 22l32 125q61 -20 121 -20q88 0 88 59q0 30 -26 46.5t-70 16.5
q-16 0 -47 -3.5t-39 -4.5l51 238h141l-36 -117q79 -2 131.5 -45.5t52.5 -126.5q0 -93 -65.5 -141.5t-174.5 -48.5z" />
    <glyph glyph-name="Scaron" unicode="&#x160;" horiz-adv-x="1245" 
d="M627 -23q-242 0 -395.5 131t-165.5 386l256 22q7 -157 92 -239t215 -82q111 0 188 51q80 53 80 147q0 84 -69.5 136.5t-219.5 97.5l-135 41q-182 56 -265 150.5t-83 234.5q0 175 139 290t361 115q227 0 366 -112q141 -114 144 -297v-21l-254 -24v14q-1 76 -36.5 128
t-91.5 74.5t-128 22.5q-108 0 -175 -49t-67 -127q0 -64 49 -104t176 -78l148 -43q207 -60 305 -164t98 -262q0 -195 -148.5 -317t-383.5 -122zM635 1749l291 154v-189l-297 -166l-293 166v189z" />
    <glyph glyph-name="scaron" unicode="&#x161;" horiz-adv-x="985" 
d="M494 -20q-170 0 -286.5 74t-156.5 218l213 66q26 -82 85.5 -125t144.5 -43q75 0 125.5 31t50.5 86q0 30 -15.5 52t-49.5 37t-67.5 23.5t-88.5 18.5q-151 27 -254 92q-101 64 -101 213q0 145 117 231q116 88 291 88q164 0 266.5 -72.5t136.5 -191.5l-211 -59
q-40 135 -194 135q-75 0 -120.5 -33.5t-45.5 -87.5q0 -23 11 -41t28 -29.5t47 -20.5t58 -14.5t71 -11.5q150 -21 256 -92q106 -69 106 -225q0 -149 -118 -233q-121 -86 -299 -86zM506 1343l270 148v-186l-276 -162l-273 162v186z" />
    <glyph glyph-name="Tcaron" unicode="&#x164;" horiz-adv-x="1202" 
d="M1161 1434v-232h-430v-1202h-260v1202h-430v232h1120zM608 1749l291 154v-189l-297 -166l-293 166v189z" />
    <glyph glyph-name="tcaron" unicode="&#x165;" horiz-adv-x="759" 
d="M762 1147h-209l84 323h225zM637 240l102 -160q-44 -44 -112.5 -70t-143.5 -26q-137 0 -219 77t-82 234l2 510h-151v209h151v282h244v-282h277v-209h-277v-488q0 -122 102 -122q52 0 107 45z" />
    <glyph glyph-name="Tbar" unicode="&#x166;" horiz-adv-x="1202" 
d="M1008 834v-209h-277v-625h-260v625h-276v209h276v368h-430v232h1120v-232h-430v-368h277z" />
    <glyph glyph-name="tbar" unicode="&#x167;" horiz-adv-x="784" 
d="M647 240l103 -160q-44 -44 -112.5 -70t-143.5 -26q-137 0 -219 77t-82 234v174h-150v182h152v154h-152v209h152v282h243v-282h277v-209h-277v-154h277v-182h-277v-152q0 -122 103 -122q51 0 106 45z" />
    <glyph glyph-name="Utilde" unicode="&#x168;" horiz-adv-x="1419" 
d="M709 -23q-257 0 -409.5 145t-152.5 417v895h263v-885q0 -152 82.5 -240t218.5 -88q138 0 218.5 86.5t80.5 239.5v887h262v-893q0 -269 -153 -416.5t-410 -147.5zM831 1579q-44 0 -86 20.5t-76.5 41t-60.5 20.5q-31 0 -50 -21.5t-21 -54.5l-140 21q2 96 55.5 162.5
t137.5 66.5q43 0 85.5 -20.5t78 -41t61.5 -20.5q31 0 49.5 21.5t20.5 54.5l139 -21q-2 -97 -55 -163t-138 -66z" />
    <glyph glyph-name="utilde" unicode="&#x169;" horiz-adv-x="1191" 
d="M1040 0h-249v129q-112 -149 -295 -149q-162 0 -260.5 99t-98.5 294v641h250v-596q0 -107 53 -160t140 -53q64 0 121.5 41.5t89.5 115.5v652h249v-1014zM711 1169q-44 0 -86 20.5t-77 41t-61 20.5q-31 0 -50 -21t-21 -54l-140 20q2 96 55.5 162.5t137.5 66.5
q43 0 85.5 -20.5t78 -41t61.5 -20.5q31 0 49.5 21.5t20.5 54.5l139 -20q-2 -97 -54.5 -163.5t-137.5 -66.5z" />
    <glyph glyph-name="Umacron" unicode="&#x16a;" horiz-adv-x="1419" 
d="M709 -23q-257 0 -409.5 145t-152.5 417v895h263v-885q0 -152 82.5 -240t218.5 -88q138 0 218.5 86.5t80.5 239.5v887h262v-893q0 -269 -153 -416.5t-410 -147.5zM967 1628h-514v170h514v-170z" />
    <glyph glyph-name="umacron" unicode="&#x16b;" horiz-adv-x="1191" 
d="M1040 0h-249v129q-112 -149 -295 -149q-162 0 -260.5 99t-98.5 294v641h250v-596q0 -107 53 -160t140 -53q64 0 121.5 41.5t89.5 115.5v652h249v-1014zM836 1219h-494v165h494v-165z" />
    <glyph glyph-name="Ubreve" unicode="&#x16c;" horiz-adv-x="1419" 
d="M709 -23q-257 0 -409.5 145t-152.5 417v895h263v-885q0 -152 82.5 -240t218.5 -88q138 0 218.5 86.5t80.5 239.5v887h262v-893q0 -269 -153 -416.5t-410 -147.5zM711 1565q-146 0 -231.5 74.5t-90.5 203.5h172q2 -55 41 -88t109 -33t108.5 33t40.5 88h170
q-6 -128 -93.5 -203t-225.5 -75z" />
    <glyph glyph-name="ubreve" unicode="&#x16d;" horiz-adv-x="1191" 
d="M1040 0h-249v129q-112 -149 -295 -149q-162 0 -260.5 99t-98.5 294v641h250v-596q0 -107 53 -160t140 -53q64 0 121.5 41.5t89.5 115.5v652h249v-1014zM590 1159q-126 0 -205.5 74.5t-83.5 200.5h168q0 -54 33 -86.5t88 -32.5t88 32.5t33 86.5h166q-4 -126 -85 -200.5
t-202 -74.5z" />
    <glyph glyph-name="Uring" unicode="&#x16e;" horiz-adv-x="1419" 
d="M709 -23q-257 0 -409.5 145t-152.5 417v895h263v-885q0 -152 82.5 -240t218.5 -88q138 0 218.5 86.5t80.5 239.5v887h262v-893q0 -269 -153 -416.5t-410 -147.5zM711 1534q-76 0 -130.5 52.5t-54.5 129.5q0 75 55 127.5t130 52.5q78 0 131 -52.5t53 -127.5
q0 -77 -54 -129.5t-130 -52.5zM711 1638q31 0 53 23t22 55t-22 54t-53 22t-53.5 -22t-22.5 -54t22.5 -55t53.5 -23z" />
    <glyph glyph-name="uring" unicode="&#x16f;" horiz-adv-x="1191" 
d="M1040 0h-249v129q-112 -149 -295 -149q-162 0 -260.5 99t-98.5 294v641h250v-596q0 -107 53 -160t140 -53q64 0 121.5 41.5t89.5 115.5v652h249v-1014zM590 1124q-76 0 -130 53t-54 130q0 75 54.5 127.5t129.5 52.5q78 0 131 -52.5t53 -127.5q0 -77 -54 -130t-130 -53z
M590 1229q31 0 53.5 23t22.5 55t-22.5 53.5t-53.5 21.5t-53.5 -21.5t-22.5 -53.5t22.5 -55t53.5 -23z" />
    <glyph glyph-name="Uhungarumlaut" unicode="&#x170;" horiz-adv-x="1419" 
d="M709 -23q-257 0 -409.5 145t-152.5 417v895h263v-885q0 -152 82.5 -240t218.5 -88q138 0 218.5 86.5t80.5 239.5v887h262v-893q0 -269 -153 -416.5t-410 -147.5zM938 1561h-166l174 292h215zM631 1561h-160l131 292h203z" />
    <glyph glyph-name="uhungarumlaut" unicode="&#x171;" horiz-adv-x="1191" 
d="M1040 0h-249v129q-112 -149 -295 -149q-162 0 -260.5 99t-98.5 294v641h250v-596q0 -107 53 -160t140 -53q64 0 121.5 41.5t89.5 115.5v652h249v-1014zM817 1151h-166l174 293h215zM510 1151h-160l131 293h203z" />
    <glyph glyph-name="Uogonek" unicode="&#x172;" horiz-adv-x="1419" 
d="M872 -414q-92 0 -153.5 47t-61.5 134q0 116 97 213q-21 -3 -45 -3q-257 0 -409.5 145t-152.5 417v895h263v-885q0 -152 82.5 -240t218.5 -88q138 0 218.5 86.5t80.5 239.5v887h262v-893q0 -167 -62 -290t-174 -192q-85 -55 -136.5 -113t-51.5 -128q0 -31 17.5 -47.5
t45.5 -16.5q45 0 86 35l86 -125q-84 -78 -211 -78z" />
    <glyph glyph-name="uogonek" unicode="&#x173;" horiz-adv-x="1191" 
d="M1040 0h-249v129q-112 -149 -295 -149q-162 0 -260.5 99t-98.5 294v641h250v-596q0 -107 53 -160t140 -53q64 0 121.5 41.5t89.5 115.5v652h249v-1014zM881 -414q-91 0 -153 46t-62 130t61 155t178 138l135 -55q-77 -33 -130.5 -82t-53.5 -104q0 -30 18.5 -45t45.5 -15
q45 0 86 35l86 -125q-84 -78 -211 -78z" />
    <glyph glyph-name="Wcircumflex" unicode="&#x174;" horiz-adv-x="1802" 
d="M1432 0h-256l-275 733l-274 -733h-256l-332 1434h264l236 -1065l284 766h166l283 -766l237 1065h254zM897 1681l-291 -153v188l297 166l293 -166v-188z" />
    <glyph glyph-name="wcircumflex" unicode="&#x175;" horiz-adv-x="1429" 
d="M1118 0h-200l-203 473l-203 -473h-203l-276 1014h246l170 -660l174 424h192l170 -420l174 656h238zM713 1288l-271 -147v186l277 162l272 -162v-186z" />
    <glyph glyph-name="Ycircumflex" unicode="&#x176;" horiz-adv-x="1208" 
d="M735 727v-727h-262v729l-465 705h307l297 -465l297 465h291zM600 1681l-291 -153v188l297 166l293 -166v-188z" />
    <glyph glyph-name="ycircumflex" unicode="&#x177;" horiz-adv-x="989" 
d="M979 1014l-594 -1403h-246l236 567l-363 836h256l236 -568l225 568h250zM500 1288l-271 -147v186l277 162l272 -162v-186z" />
    <glyph glyph-name="Ydieresis" unicode="&#x178;" horiz-adv-x="1208" 
d="M735 727v-727h-262v729l-465 705h307l297 -465l297 465h291zM815 1585q-54 0 -92.5 39t-38.5 94q0 54 38.5 92.5t92.5 38.5q55 0 94 -38.5t39 -92.5q0 -56 -39 -94.5t-94 -38.5zM395 1585q-54 0 -92.5 39t-38.5 94q0 54 38.5 92.5t92.5 38.5q55 0 94 -38.5t39 -92.5
q0 -56 -39 -94.5t-94 -38.5z" />
    <glyph glyph-name="Zacute" unicode="&#x179;" horiz-adv-x="1198" 
d="M1135 231v-231h-1078v176l731 1026h-694v232h1028v-174l-729 -1029h742zM684 1561h-203v4l137 288h281v-4z" />
    <glyph glyph-name="zacute" unicode="&#x17a;" horiz-adv-x="954" 
d="M883 209v-209h-811v145l487 660h-477v209h792v-146l-487 -659h496zM565 1151h-203v4l138 289h280v-4z" />
    <glyph glyph-name="Zdotaccent" unicode="&#x17b;" horiz-adv-x="1198" 
d="M1135 231v-231h-1078v176l731 1026h-694v232h1028v-174l-729 -1029h742zM592 1591q-62 0 -102.5 41.5t-40.5 104.5q0 61 41.5 102t101.5 41q62 0 102.5 -41t40.5 -102q0 -63 -40.5 -104.5t-102.5 -41.5z" />
    <glyph glyph-name="zdotaccent" unicode="&#x17c;" horiz-adv-x="954" 
d="M883 209v-209h-811v145l487 660h-477v209h792v-146l-487 -659h496zM473 1182q-62 0 -102.5 41t-40.5 104q0 61 41.5 102t101.5 41q61 0 102 -41t41 -102q0 -63 -40.5 -104t-102.5 -41z" />
    <glyph glyph-name="Zcaron" unicode="&#x17d;" horiz-adv-x="1198" 
d="M1135 231v-231h-1078v176l731 1026h-694v232h1028v-174l-729 -1029h742zM598 1749l291 154v-189l-297 -166l-293 166v189z" />
    <glyph glyph-name="zcaron" unicode="&#x17e;" horiz-adv-x="954" 
d="M883 209v-209h-811v145l487 660h-477v209h792v-146l-487 -659h496zM477 1343l271 148v-186l-277 -162l-272 162v186z" />
    <glyph glyph-name="florin" unicode="&#x192;" horiz-adv-x="974" 
d="M61 -412q-179 0 -262 111l160 151q39 -53 100 -53q89 0 111 121l156 887h-174v209h210l23 133q59 332 356 332q96 0 162 -32t101 -79l-160 -151q-39 53 -99 53q-45 0 -71.5 -28t-38.5 -93l-25 -135h201v-209h-238l-155 -885q-31 -176 -122 -254t-235 -78z" />
    <glyph glyph-name="Icaron" unicode="&#x1cf;" 
d="M426 0h-262v1434h262v-1434zM301 1749l291 154v-189l-297 -166l-293 166v189z" />
    <glyph glyph-name="icaron" unicode="&#x1d0;" horiz-adv-x="552" 
d="M401 0h-249v1014h249v-1014zM281 1343l270 148v-186l-277 -162l-272 162v186z" />
    <glyph glyph-name="Aringacute" unicode="&#x1fa;" horiz-adv-x="1380" 
d="M688 1167h-4l-164 -493h332zM1352 0h-279l-155 444h-465l-154 -444h-270l510 1434h303zM690 1534q-76 0 -130 52.5t-54 129.5q0 75 54.5 127.5t129.5 52.5q78 0 131 -52.5t53 -127.5q0 -77 -54 -129.5t-130 -52.5zM690 1638q31 0 53.5 23t22.5 55t-22.5 54t-53.5 22
t-53.5 -22t-22.5 -54t22.5 -55t53.5 -23zM788 1982h-202v5l137 288h281v-4z" />
    <glyph glyph-name="aringacute" unicode="&#x1fb;" horiz-adv-x="1099" 
d="M483 182q42 0 82.5 16.5t100.5 55.5l51 33l2 225l-184 -49q-108 -27 -154.5 -60.5t-46.5 -91.5q0 -60 44.5 -94.5t104.5 -34.5zM721 100l-12 -10q-128 -108 -279 -108q-142 0 -244 86.5t-102 228.5q0 127 86 204t268 122l281 71q-7 68 -58.5 106t-134.5 38
q-78 0 -133 -36t-80 -100l-217 74q46 126 167 196t278 70q194 0 308 -95t114 -275v-672h-242v100zM547 1124q-76 0 -130.5 53t-54.5 130q0 75 55 127.5t130 52.5q78 0 131 -52.5t53 -127.5q0 -77 -54 -130t-130 -53zM547 1229q31 0 53.5 23t22.5 55t-22.5 53.5t-53.5 21.5
t-53.5 -21.5t-22.5 -53.5t22.5 -55t53.5 -23zM645 1573h-203v4l138 289h280v-4z" />
    <glyph glyph-name="AEacute" unicode="&#x1fc;" horiz-adv-x="1910" 
d="M868 1202h-28l-230 -497h283zM1821 0h-891l-25 483h-395l-223 -483h-279l676 1434h1126v-232h-688l17 -293h622v-229h-612l25 -449h647v-231zM1329 1550h-203v4l138 289h280v-4z" />
    <glyph glyph-name="aeacute" unicode="&#x1fd;" horiz-adv-x="1757" 
d="M1202 842q-93 0 -161 -57t-74 -158h465q-7 105 -72.5 160t-157.5 55zM481 182q78 0 191 72l73 47q-34 93 -34 209l-176 -47q-107 -27 -154 -61.5t-47 -90.5q0 -62 44 -95.5t103 -33.5zM1501 328l172 -119q-62 -107 -176.5 -168t-269.5 -61q-115 0 -216 41.5t-169 119.5
l-58 -39q-172 -120 -356 -120q-89 0 -167 37t-127.5 110t-49.5 168q0 127 86 202.5t268 121.5l277 71q-6 70 -57 108t-132 38q-78 0 -133 -36t-80 -100l-217 74q46 126 167 196t278 70q106 0 192 -34t137 -97q138 129 338 129q205 0 336 -131q130 -130 139 -352
q3 -77 3 -100h-725q6 -126 84.5 -201.5t191.5 -75.5q81 0 151 39.5t113 108.5zM979 1151h-203v4l137 289h281v-4z" />
    <glyph glyph-name="Oslashacute" unicode="&#x1fe;" horiz-adv-x="1556" 
d="M356 721q0 -193 99 -334l514 780q-83 47 -191 47q-183 0 -302.5 -138t-119.5 -355zM778 221q184 0 303 138.5t119 361.5q0 188 -98 328l-514 -781q86 -47 190 -47zM778 -23q-175 0 -329 80l-105 -159h-211l172 262q-103 100 -161 243.5t-58 317.5q0 164 54 303
t147.5 233.5t220 147.5t270.5 53q179 0 330 -80l104 158h211l-172 -260q103 -100 161 -241.5t58 -313.5q0 -168 -55 -309t-149 -235.5t-220 -147t-268 -52.5zM850 1561h-203v4l137 288h281v-4z" />
    <glyph glyph-name="oslashacute" unicode="&#x1ff;" horiz-adv-x="1169" 
d="M330 512q0 -120 51 -199l303 486q-44 20 -98 20q-109 0 -182.5 -81.5t-73.5 -225.5zM586 201q109 0 181.5 83.5t72.5 227.5q0 112 -49 193l-302 -486q56 -18 97 -18zM586 -23q-103 0 -219 46l-78 -125h-168l127 202q-81 71 -126.5 176.5t-45.5 235.5q0 122 42 223
t112.5 167t162.5 102t193 36q106 0 219 -45l76 121h168l-123 -198q78 -71 123 -174t45 -232q0 -121 -41.5 -223t-112 -169.5t-162 -105t-192.5 -37.5zM672 1151h-203v4l137 289h281v-4z" />
    <glyph glyph-name="Scommaaccent" unicode="&#x218;" horiz-adv-x="1245" 
d="M627 -23q-242 0 -395.5 131t-165.5 386l256 22q7 -157 92 -239t215 -82q111 0 188 51q80 53 80 147q0 84 -69.5 136.5t-219.5 97.5l-135 41q-182 56 -265 150.5t-83 234.5q0 175 139 290t361 115q227 0 366 -112q141 -114 144 -297v-21l-254 -24v14q-1 76 -36.5 128
t-91.5 74.5t-128 22.5q-108 0 -175 -49t-67 -127q0 -64 49 -104t176 -78l148 -43q207 -60 305 -164t98 -262q0 -195 -148.5 -317t-383.5 -122zM662 -526h-144l70 157q-35 13 -62.5 45t-27.5 78q0 56 40.5 94.5t92.5 38.5q56 0 94.5 -39t38.5 -94q0 -24 -6.5 -51t-14 -47
t-24.5 -59z" />
    <glyph glyph-name="scommaaccent" unicode="&#x219;" horiz-adv-x="985" 
d="M494 -20q-170 0 -286.5 74t-156.5 218l213 66q26 -82 85.5 -125t144.5 -43q75 0 125.5 31t50.5 86q0 30 -15.5 52t-49.5 37t-67.5 23.5t-88.5 18.5q-151 27 -254 92q-101 64 -101 213q0 145 117 231q116 88 291 88q164 0 266.5 -72.5t136.5 -191.5l-211 -59
q-40 135 -194 135q-75 0 -120.5 -33.5t-45.5 -87.5q0 -23 11 -41t28 -29.5t47 -20.5t58 -14.5t71 -11.5q150 -21 256 -92q106 -69 106 -225q0 -149 -118 -233q-121 -86 -299 -86zM524 -526h-143l70 157q-35 13 -63 45t-28 78q0 56 41 94.5t93 38.5q56 0 94.5 -39t38.5 -94
q0 -24 -6.5 -51t-14 -47t-24.5 -59z" />
    <glyph glyph-name="Tcommaaccent" unicode="&#x21a;" horiz-adv-x="1202" 
d="M1161 1434v-232h-430v-1202h-260v1202h-430v232h1120zM631 -526h-144l70 157q-35 13 -62.5 45t-27.5 78q0 56 40.5 94.5t92.5 38.5q56 0 94.5 -39t38.5 -94q0 -24 -6.5 -51t-14 -47t-24.5 -59z" />
    <glyph glyph-name="tcommaaccent" unicode="&#x21b;" horiz-adv-x="759" 
d="M637 240l102 -160q-44 -44 -112.5 -70t-143.5 -26q-137 0 -219 77t-82 234l2 510h-151v209h151v282h244v-282h277v-209h-277v-488q0 -122 102 -122q52 0 107 45zM463 -526h-144l70 157q-35 13 -62.5 45t-27.5 78q0 56 40.5 94.5t92.5 38.5q56 0 94.5 -39t38.5 -94
q0 -24 -6.5 -51t-14 -47t-24.5 -59z" />
    <glyph glyph-name="dotlessj" unicode="&#x237;" horiz-adv-x="552" 
d="M152 1014h249v-1110q0 -159 -89 -239.5t-232 -80.5q-88 0 -163.5 33t-119.5 90l148 156q48 -62 112 -62q41 0 68 26t27 75v1112z" />
    <glyph glyph-name="circumflex" unicode="&#x2c6;" horiz-adv-x="802" 
d="M397 1276l-291 -154v189l297 166l293 -166v-189z" />
    <glyph glyph-name="caron" unicode="&#x2c7;" horiz-adv-x="802" 
d="M406 1339l290 154v-188l-297 -166l-293 166v188z" />
    <glyph glyph-name="breve" unicode="&#x2d8;" horiz-adv-x="784" 
d="M393 1155q-146 0 -231 74.5t-90 204.5h172q2 -55 40.5 -88t108.5 -33t109 33t41 88h170q-6 -128 -94 -203.5t-226 -75.5z" />
    <glyph glyph-name="dotaccent" unicode="&#x2d9;" horiz-adv-x="450" 
d="M225 1182q-62 0 -102.5 41t-40.5 104q0 61 41.5 102t101.5 41q62 0 103 -41t41 -102q0 -63 -41 -104t-103 -41z" />
    <glyph glyph-name="ring" unicode="&#x2da;" horiz-adv-x="544" 
d="M272 1124q-76 0 -130 53t-54 130q0 75 54.5 127.5t129.5 52.5q78 0 131.5 -52.5t53.5 -127.5q0 -77 -54.5 -130t-130.5 -53zM272 1229q31 0 53.5 23t22.5 55t-22.5 53.5t-53.5 21.5t-53 -21.5t-22 -53.5t22 -55t53 -23z" />
    <glyph glyph-name="ogonek" unicode="&#x2db;" horiz-adv-x="559" 
d="M295 -414q-91 0 -153 46t-62 130t61 155t178 138l136 -55q-78 -34 -131.5 -82.5t-53.5 -103.5q0 -30 18.5 -45t45.5 -15q45 0 86 35l86 -125q-84 -78 -211 -78z" />
    <glyph glyph-name="tilde" unicode="&#x2dc;" horiz-adv-x="790" 
d="M516 1169q-44 0 -86 20.5t-76.5 41t-60.5 20.5q-32 0 -51 -21t-21 -54l-139 20q2 96 55 162.5t137 66.5q43 0 85.5 -20.5t78.5 -41t62 -20.5q31 0 49 21t20 55l140 -20q-2 -97 -55 -163.5t-138 -66.5z" />
    <glyph glyph-name="hungarumlaut" unicode="&#x2dd;" horiz-adv-x="806" 
d="M549 1151h-166l174 293h215zM242 1151h-160l131 293h203z" />
    <glyph glyph-name="Wgrave" unicode="&#x1e80;" horiz-adv-x="1802" 
d="M1432 0h-256l-275 733l-274 -733h-256l-332 1434h264l236 -1065l284 766h166l283 -766l237 1065h254zM1020 1556h-203l-215 289v4h281l137 -288v-5z" />
    <glyph glyph-name="wgrave" unicode="&#x1e81;" horiz-adv-x="1429" 
d="M1118 0h-200l-203 473l-203 -473h-203l-276 1014h246l170 -660l174 424h192l170 -420l174 656h238zM836 1151h-203l-215 289v4h280l138 -289v-4z" />
    <glyph glyph-name="Wacute" unicode="&#x1e82;" horiz-adv-x="1802" 
d="M1432 0h-256l-275 733l-274 -733h-256l-332 1434h264l236 -1065l284 766h166l283 -766l237 1065h254zM995 1556h-202v5l137 288h280v-4z" />
    <glyph glyph-name="wacute" unicode="&#x1e83;" horiz-adv-x="1429" 
d="M1118 0h-200l-203 473l-203 -473h-203l-276 1014h246l170 -660l174 424h192l170 -420l174 656h238zM809 1151h-203v4l137 289h281v-4z" />
    <glyph glyph-name="Wdieresis" unicode="&#x1e84;" horiz-adv-x="1802" 
d="M1432 0h-256l-275 733l-274 -733h-256l-332 1434h264l236 -1065l284 766h166l283 -766l237 1065h254zM1112 1585q-54 0 -92.5 39t-38.5 94q0 54 38.5 92.5t92.5 38.5q55 0 94 -38.5t39 -92.5q0 -56 -38.5 -94.5t-94.5 -38.5zM692 1585q-54 0 -92.5 39t-38.5 94
q0 54 38.5 92.5t92.5 38.5q55 0 94 -38.5t39 -92.5q0 -56 -38.5 -94.5t-94.5 -38.5z" />
    <glyph glyph-name="wdieresis" unicode="&#x1e85;" horiz-adv-x="1429" 
d="M1118 0h-200l-203 473l-203 -473h-203l-276 1014h246l170 -660l174 424h192l170 -420l174 656h238zM926 1180q-54 0 -92.5 39t-38.5 94q0 54 38.5 92.5t92.5 38.5q55 0 94 -38.5t39 -92.5q0 -55 -38.5 -94t-94.5 -39zM506 1180q-54 0 -92.5 39t-38.5 94q0 54 38.5 92.5
t92.5 38.5q55 0 94 -38.5t39 -92.5q0 -55 -38.5 -94t-94.5 -39z" />
    <glyph glyph-name="Ygrave" unicode="&#x1ef2;" horiz-adv-x="1208" 
d="M735 727v-727h-262v729l-465 705h307l297 -465l297 465h291zM723 1556h-203l-215 289v4h281l137 -288v-5z" />
    <glyph glyph-name="ygrave" unicode="&#x1ef3;" horiz-adv-x="989" 
d="M979 1014l-594 -1403h-246l236 567l-363 836h256l236 -568l225 568h250zM621 1151h-203l-215 289v4h280l138 -289v-4z" />
    <glyph glyph-name="endash" unicode="&#x2013;" horiz-adv-x="1107" 
d="M1022 549h-934v196h934v-196z" />
    <glyph glyph-name="emdash" unicode="&#x2014;" horiz-adv-x="1619" 
d="M1534 549h-1446v196h1446v-196z" />
    <glyph glyph-name="quoteleft" unicode="&#x2018;" horiz-adv-x="454" 
d="M168 1434h215l-88 -433h-234z" />
    <glyph glyph-name="quoteright" unicode="&#x2019;" horiz-adv-x="454" 
d="M287 1001h-215l88 433h233z" />
    <glyph glyph-name="quotesinglbase" unicode="&#x201a;" horiz-adv-x="454" 
d="M287 -158h-215l88 432h233z" />
    <glyph glyph-name="quotedblleft" unicode="&#x201c;" horiz-adv-x="800" 
d="M535 1434h194l-88 -433h-211zM168 1434h192l-86 -433h-213z" />
    <glyph glyph-name="quotedblright" unicode="&#x201d;" horiz-adv-x="800" 
d="M266 1001h-194l88 433h211zM633 1001h-193l86 433h213z" />
    <glyph glyph-name="quotedblbase" unicode="&#x201e;" horiz-adv-x="800" 
d="M266 -158h-194l88 432h211zM633 -158h-193l86 432h213z" />
    <glyph glyph-name="dagger" unicode="&#x2020;" horiz-adv-x="997" 
d="M932 1085v-208h-311v-877h-242v877h-311v208h311v349h242v-349h311z" />
    <glyph glyph-name="daggerdbl" unicode="&#x2021;" horiz-adv-x="997" 
d="M932 573v-217h-314v-356h-239v356h-311v217h311v318h-311v215h311v328h239v-328h314v-215h-314v-318h314z" />
    <glyph glyph-name="bullet" unicode="&#x2022;" horiz-adv-x="776" 
d="M389 385q-103 0 -178 72q-74 74 -74 178t74 178t178 74q105 0 176 -74q74 -74 74 -178t-74 -178q-72 -72 -176 -72z" />
    <glyph glyph-name="ellipsis" unicode="&#x2026;" horiz-adv-x="1652" 
d="M281 -25q-67 0 -114.5 49t-47.5 117q0 66 47.5 114t114.5 48t114 -48t47 -114q0 -68 -47 -117t-114 -49zM827 -25q-67 0 -114 49t-47 117q0 66 47 114t114 48t114.5 -48t47.5 -114q0 -68 -47.5 -117t-114.5 -49zM1374 -25q-67 0 -114.5 49t-47.5 117q0 66 47.5 114
t114.5 48t114.5 -48t47.5 -114q0 -68 -47.5 -117t-114.5 -49z" />
    <glyph glyph-name="perthousand" unicode="&#x2030;" horiz-adv-x="2951" 
d="M496 627q-163 0 -269 112q-108 114 -108 305q0 188 107.5 301t269.5 113t268 -112q108 -111 108 -302t-108 -305q-106 -112 -268 -112zM496 819q75 0 120.5 60.5t45.5 164.5q0 103 -46.5 163.5t-119.5 60.5t-118.5 -60.5t-45.5 -163.5q0 -104 45.5 -164.5t118.5 -60.5z
M645 -25l-166 119l959 1366l166 -117zM1587 -20q-162 0 -268 112q-109 115 -109 305q0 188 107.5 301t269.5 113q161 0 268 -113q109 -112 109 -301q0 -190 -109 -305q-106 -112 -268 -112zM1587 172q75 0 120.5 60.5t45.5 164.5q0 103 -46.5 163.5t-119.5 60.5
t-118.5 -60.5t-45.5 -163.5q0 -104 45.5 -164.5t118.5 -60.5zM2458 -20q-163 0 -269 112q-108 114 -108 305q0 188 107.5 301t269.5 113q161 0 268 -113q108 -111 108 -301q0 -191 -108 -305q-106 -112 -268 -112zM2458 172q74 0 119.5 60.5t45.5 164.5q0 103 -46 163.5
t-119 60.5t-118.5 -60.5t-45.5 -163.5q0 -104 45.5 -164.5t118.5 -60.5z" />
    <glyph glyph-name="guilsinglleft" unicode="&#x2039;" horiz-adv-x="684" 
d="M598 193l-162 -138l-379 457l379 457l160 -133l-270 -320z" />
    <glyph glyph-name="guilsinglright" unicode="&#x203a;" horiz-adv-x="684" 
d="M86 831l162 138l379 -457l-379 -457l-160 133l270 320z" />
    <glyph glyph-name="fraction" unicode="&#x2044;" horiz-adv-x="509" 
d="M-141 -25l-166 119l958 1366l166 -117z" />
    <glyph glyph-name="twoinferior" unicode="&#x2082;" horiz-adv-x="745" 
d="M682 162v-162h-629v133l353 326q75 70 75 125q0 42 -28.5 68t-77.5 26q-53 0 -83 -30.5t-30 -78.5h-199q1 122 91 197.5t223 75.5q141 0 223 -76t82 -178q0 -63 -26 -114.5t-95 -111.5l-225 -200h346z" />
    <glyph glyph-name="fourinferior" unicode="&#x2084;" horiz-adv-x="788" 
d="M760 344v-160h-131v-184h-187v184h-413v135l288 508h205l-280 -483h204v158h183v-158h131z" />
    <glyph glyph-name="Euro" unicode="&#x20ac;" horiz-adv-x="1484" 
d="M1235 346l168 -176q-174 -193 -467 -193q-225 0 -388.5 126t-219.5 352h-207v170h180q-2 23 -2 71t2 66h-180v172h209q58 216 223 340q163 123 383 123q153 0 264.5 -49.5t202.5 -145.5l-170 -172q-121 139 -297 139q-120 0 -209.5 -62t-134.5 -173h399v-172h-440
q-2 -18 -2 -66q0 -13 1 -36.5t1 -34.5h440v-170h-401q45 -118 134.5 -184t211.5 -66q95 0 165 38.5t134 102.5z" />
    <glyph glyph-name="trademark" unicode="&#x2122;" horiz-adv-x="1742" 
d="M705 1434v-174h-218v-596h-188v596h-217v174h623zM1032 664h-180v770h213l156 -230l155 230h213v-770h-182v532l-150 -217h-75l-150 217v-532z" />
    <glyph glyph-name="estimated" unicode="&#x212e;" horiz-adv-x="1660" 
d="M829 -20q-205 0 -369.5 79.5t-261 232t-96.5 351.5q0 127 39 236.5t107 187.5t159.5 134t197.5 83t220 27q331 0 526.5 -186.5t207.5 -499.5h-1160q-10 0 -15 -1.5t-9 -9t-4 -22.5v-338q0 -29 34 -66t91.5 -72t146.5 -59t186 -24q139 0 263 58t200 151h133
q-126 -137 -272.5 -199.5t-323.5 -62.5zM825 1257q-112 0 -218 -30t-171 -78t-65 -98v-340q0 -19 6.5 -26t23.5 -7h852q22 0 28.5 7t6.5 26v340q0 51 -72 99.5t-179.5 77.5t-211.5 29z" />
    <glyph glyph-name="minus" unicode="&#x2212;" horiz-adv-x="1196" 
d="M1100 596h-1004v217h1004v-217z" />
    <glyph glyph-name="approxequal" unicode="&#x2248;" horiz-adv-x="1105" 
d="M745 283q-57 0 -114.5 26t-96.5 57t-84 57t-79 26q-50 0 -83 -38t-40 -106l-174 29q3 84 33.5 154.5t96 118.5t156.5 48q57 0 115.5 -26t98 -57t84.5 -57t79 -26q48 0 81 38t40 106l174 -29q-2 -62 -20.5 -118t-52 -102t-89 -73.5t-125.5 -27.5zM745 745q-57 0 -114.5 26
t-96.5 57t-84 57t-79 26q-50 0 -83 -37.5t-40 -105.5l-174 29q3 84 33.5 154.5t96 118.5t156.5 48q57 0 115.5 -26t98 -57t84.5 -57t79 -26q48 0 81 38t40 106l174 -29q-2 -62 -20.5 -118t-52 -102.5t-89 -74t-125.5 -27.5z" />
    <glyph glyph-name="notequal" unicode="&#x2260;" horiz-adv-x="1198" 
d="M1075 575v-208h-522l-121 -263h-217l121 263h-213v208h309l117 254h-426v209h522l123 265h217l-123 -265h213v-209h-309l-117 -254h426z" />
    <glyph glyph-name="commaaccent" unicode="&#xf6c3;" horiz-adv-x="434" 
d="M248 -526h-144l70 157q-35 13 -62.5 45t-27.5 78q0 56 40.5 94.5t92.5 38.5q56 0 94.5 -39t38.5 -94q0 -24 -6.5 -51t-14 -47t-24.5 -59z" />
    <glyph glyph-name="thinspace" horiz-adv-x="57" 
 />
    <glyph glyph-name="registered.alt" horiz-adv-x="1705" 
d="M854 -25q-202 0 -373.5 99.5t-271.5 271t-100 373.5q0 152 59 289.5t159 236t238 157t289 58.5t289 -58.5t238 -157t159 -236t59 -289.5q0 -202 -100 -373.5t-271.5 -271t-373.5 -99.5zM854 129q160 0 294.5 78.5t212 214t77.5 297.5q0 161 -77.5 296.5t-212 213.5
t-294.5 78t-294.5 -78t-212 -213.5t-77.5 -296.5q0 -162 77.5 -297.5t212 -214t294.5 -78.5zM862 965h-112v-179h114q44 0 71.5 25t27.5 66t-28 64.5t-73 23.5zM1186 334h-205l-162 313h-69v-313h-181v774h326q108 0 180 -61t72 -166q0 -73 -38 -128.5t-103 -82.5z" />
    <glyph glyph-name="i.TRK" horiz-adv-x="552" 
d="M276 1174q-63 0 -106 43t-43 106t43 105t106 42q64 0 108 -42t44 -105t-44.5 -106t-107.5 -43zM401 0h-249v1014h249v-1014z" />
    <glyph glyph-name="dieresis.i" horiz-adv-x="753" 
d="M545 1200q-50 0 -84.5 34t-34.5 83t35 84t84 35t83 -34.5t34 -84.5q0 -49 -34 -83t-83 -34zM211 1200q-50 0 -84.5 34t-34.5 83t35 84t84 35t83 -34.5t34 -84.5q0 -49 -34 -83t-83 -34z" />
    <glyph glyph-name="commaaccentup" horiz-adv-x="434" 
d="M186 1561h144l-70 -158q35 -13 62.5 -45t27.5 -78q0 -56 -40.5 -94.5t-92.5 -38.5q-56 0 -94.5 39t-38.5 94q0 53 45 158z" />
    <glyph glyph-name="circumflex.lc" horiz-adv-x="712" 
d="M352 1288l-270 -147v186l276 162l273 -162v-186z" />
    <glyph glyph-name="caron.lc" horiz-adv-x="712" 
d="M360 1343l271 148v-186l-277 -162l-272 162v186z" />
    <glyph glyph-name="breve.lc" horiz-adv-x="759" 
d="M381 1159q-126 0 -205.5 74.5t-83.5 200.5h168q0 -54 33 -86.5t88 -32.5t88 32.5t33 86.5h166q-4 -126 -85 -200.5t-202 -74.5z" />
    <glyph glyph-name="breve.i" horiz-adv-x="712" 
d="M356 1165q-120 0 -193.5 71.5t-74.5 197.5h162q0 -53 28 -86t78 -33t78.5 33.5t28.5 85.5h164q-4 -127 -78 -198t-193 -71z" />
    <glyph glyph-name="dieresis.lc" horiz-adv-x="878" 
d="M649 1180q-54 0 -92.5 39t-38.5 94q0 54 38.5 92.5t92.5 38.5q55 0 94 -38.5t39 -92.5q0 -55 -39 -94t-94 -39zM229 1180q-54 0 -92.5 39t-38.5 94q0 54 38.5 92.5t92.5 38.5q55 0 94 -38.5t39 -92.5q0 -55 -39 -94t-94 -39z" />
    <glyph glyph-name="tilde.lc" horiz-adv-x="790" 
d="M516 1169q-44 0 -86 20.5t-76.5 41t-60.5 20.5q-32 0 -51 -21t-21 -54l-139 20q2 96 55 162.5t137 66.5q43 0 85.5 -20.5t78.5 -41t62 -20.5q31 0 49 21t20 55l140 -20q-2 -97 -55 -163.5t-138 -66.5z" />
    <glyph glyph-name="macron.lc" horiz-adv-x="677" 
d="M586 1219h-494v165h494v-165z" />
    <glyph glyph-name="zero.onum" horiz-adv-x="1273" 
d="M637 -23q-120 0 -217.5 42t-170 124t-112 212t-39.5 298q0 166 41 295t114.5 210.5t170.5 123t213 41.5q117 0 214 -41.5t170 -123t114 -210.5t41 -295t-40.5 -296t-113 -212.5t-170 -125t-215.5 -42.5zM637 201q134 0 207.5 118.5t73.5 333.5q0 216 -75 332.5
t-206 116.5q-135 0 -208 -115t-73 -334q0 -212 73.5 -332t207.5 -120z" />
    <glyph glyph-name="one.onum" horiz-adv-x="800" 
d="M637 1300v-1300h-250v1024l-321 -145l-19 225l420 196h170z" />
    <glyph glyph-name="two.onum" horiz-adv-x="1075" 
d="M989 213v-213h-923v174l524 508q80 77 110.5 131t30.5 115q0 76 -56 126t-143 50q-95 0 -151.5 -54t-61.5 -143h-243q9 190 137 303t324 113q206 0 330 -111.5t124 -279.5q0 -99 -48 -189t-161 -192l-368 -338h575z" />
    <glyph glyph-name="three.onum" horiz-adv-x="1116" 
d="M541 -18q-135 0 -243.5 46t-174 136.5t-68.5 210.5h244q12 -82 77.5 -131t164.5 -49q101 0 166 52.5t65 137.5q0 86 -70.5 138t-181.5 52h-176v203h182q103 0 163.5 49t60.5 125q0 72 -58 117t-149 45q-89 0 -149.5 -43t-67.5 -117h-242q12 172 142.5 270.5t318.5 98.5
q212 0 334 -104q125 -101 125 -252q0 -95 -52 -166.5t-137 -110.5q98 -40 157.5 -122t59.5 -195q0 -168 -138.5 -279.5t-352.5 -111.5z" />
    <glyph glyph-name="four.onum" horiz-adv-x="1124" 
d="M1079 506v-207h-186v-299h-242v299h-606v170l449 831h262l-432 -794h331v248h238v-248h186z" />
    <glyph glyph-name="five.onum" horiz-adv-x="1114" 
d="M545 -23q-186 0 -312 90t-159 230l231 70q20 -79 87 -128t155 -49q104 0 171.5 62.5t67.5 161.5q0 94 -69.5 159.5t-173.5 65.5q-129 0 -221 -96h-216l78 757h797v-213h-584l-35 -294q92 55 218 55q206 0 333 -121t127 -307q0 -198 -142.5 -320.5t-352.5 -122.5z" />
    <glyph glyph-name="six.onum" horiz-adv-x="1175" 
d="M1094 416q0 -189 -139.5 -314t-346.5 -125q-137 0 -251 61.5t-179 190.5q-80 157 -80 373q0 426 189 600q129 121 348 121q172 0 294 -79t163 -220l-228 -63q-25 70 -85 109.5t-146 39.5q-117 0 -184 -70q-89 -95 -103 -338q44 63 122.5 98.5t174.5 35.5
q202 0 326.5 -120t124.5 -300zM610 190q102 0 168 62t66 156q0 92 -67 154.5t-167 62.5q-99 0 -166 -62t-67 -155q0 -92 65 -155t168 -63z" />
    <glyph glyph-name="seven.onum" horiz-adv-x="991" 
d="M946 1112l-534 -1112h-283l537 1087h-623v213h903v-188z" />
    <glyph glyph-name="eight.onum" horiz-adv-x="1144" 
d="M571 -23q-214 0 -348 113q-135 114 -135 279q0 100 52 181t143 134q-74 46 -116 116t-42 158q0 156 128 260.5t320 104.5q197 0 322 -104q127 -106 127 -261q0 -86 -42 -155t-116 -115q90 -52 141.5 -134.5t51.5 -184.5q0 -166 -139 -279t-347 -113zM573 1120
q-93 0 -150.5 -49t-57.5 -123q0 -73 60 -121.5t148 -48.5q92 0 150.5 48t58.5 122t-58 123t-151 49zM573 184q106 0 172 56.5t66 140.5q0 83 -67.5 138.5t-170.5 55.5q-104 0 -170.5 -54.5t-66.5 -139.5q0 -81 67.5 -139t169.5 -58z" />
    <glyph glyph-name="nine.onum" horiz-adv-x="1175" 
d="M565 1112q-102 0 -167.5 -61.5t-65.5 -155.5q0 -92 66.5 -154.5t166.5 -62.5q99 0 166.5 62t67.5 155q0 92 -65.5 154.5t-168.5 62.5zM541 -20q-172 0 -294 79t-163 220l227 63q25 -70 85 -109.5t147 -39.5q118 0 184 69q88 94 102 338q-44 -63 -122 -98t-175 -35
q-202 0 -326 119.5t-124 300.5q0 189 139 313.5t346 124.5q137 0 251 -61.5t179 -190.5q80 -157 80 -373q0 -427 -188 -600q-128 -120 -348 -120z" />
    <glyph glyph-name="Euro.onum" horiz-adv-x="1409" 
d="M1171 317l164 -161q-171 -176 -448 -176q-216 0 -372 113.5t-212 318.5h-194v155h170q-3 27 -3 64q0 34 3 61h-170v156h196q58 197 215 309q156 111 367 111q147 0 254 -45.5t194 -132.5l-164 -160q-127 127 -284 127q-112 0 -196.5 -55t-129.5 -154h377v-156h-416
q-2 -18 -2 -61q0 -46 2 -64h416v-155h-379q43 -106 127.5 -164t200.5 -58q93 0 159.5 34.5t124.5 92.5z" />
    <glyph glyph-name="dollar.onum" horiz-adv-x="1214" 
d="M387 899q0 -56 36.5 -93.5t133.5 -60.5v304q-77 -12 -123.5 -51.5t-46.5 -98.5zM879 340q0 57 -44 96t-137 62v-314q81 12 131 53.5t50 102.5zM698 -8v-189h-141v189q-98 7 -178 36t-141.5 80t-96.5 131t-39 183l240 22q4 -117 62.5 -180t152.5 -78v338l-49 8
q-185 31 -273 123.5t-88 233.5q0 146 112.5 241t297.5 109v174h141v-176q186 -18 298 -115t112 -258l-238 -22q0 90 -46 140.5t-126 64.5v-328l33 -6q196 -37 292.5 -128t96.5 -225q0 -153 -116 -254q-117 -99 -306 -114z" />
    <glyph glyph-name="sterling.onum" horiz-adv-x="1177" 
d="M1077 201v-201h-952v201h133q137 78 137 198q0 59 -47 148h-229v180h131q-37 79 -37 162q0 170 124 274.5t308 104.5q196 0 315 -101.5t130 -275.5l-246 -6q-1 79 -55 127.5t-140 48.5t-136 -47t-50 -125q0 -70 45 -162h364v-180h-264q29 -71 29 -127q0 -128 -113 -219
h553z" />
    <glyph glyph-name="yen.onum" horiz-adv-x="1241" 
d="M1049 365v-156h-306v-209h-247v209h-303v156h303v124h-303v156h276l-420 600h293l287 -420l284 420h277l-418 -600h277v-156h-306v-124h306z" />
    <glyph glyph-name="percent.onum" horiz-adv-x="1984" 
d="M614 -23l-159 109l911 1239l162 -108zM469 567q-154 0 -258 101q-102 102 -102 278q0 174 104 275q105 102 256 102q153 0 258 -102q104 -101 104 -275q0 -172 -104 -276q-106 -103 -258 -103zM469 743q70 0 114 55t44 148q0 92 -44.5 146.5t-113.5 54.5q-70 0 -113 -54
t-43 -147t43 -148t113 -55zM1513 -18q-153 0 -256 100q-104 101 -104 278q0 174 104 275q108 102 256 102q154 0 259 -102q104 -101 104 -275q0 -172 -104 -276q-105 -102 -259 -102zM1513 158q70 0 114 55t44 147t-44.5 146.5t-113.5 54.5q-70 0 -112.5 -54t-42.5 -147
t42.5 -147.5t112.5 -54.5z" />
    <glyph glyph-name="perthousand.onum" horiz-adv-x="2816" 
d="M614 -23l-159 109l911 1239l162 -108zM469 567q-154 0 -258 101q-102 102 -102 278q0 174 104 275q105 102 256 102q153 0 258 -102q104 -101 104 -275q0 -172 -104 -276q-106 -103 -258 -103zM469 743q70 0 114 55t44 148q0 92 -44.5 146.5t-113.5 54.5q-70 0 -113 -54
t-43 -147t43 -148t113 -55zM1513 -18q-153 0 -256 100q-104 101 -104 278q0 174 104 275q108 102 256 102q154 0 259 -102q104 -101 104 -275q0 -172 -104 -276q-105 -102 -259 -102zM2347 -18q-155 0 -258 100q-104 101 -104 278q0 174 104 275q108 102 258 102
q153 0 258 -102t105 -275q0 -171 -105 -276q-105 -102 -258 -102zM1513 158q70 0 114 55t44 147t-44.5 146.5t-113.5 54.5q-70 0 -112.5 -54t-42.5 -147t42.5 -147.5t112.5 -54.5zM2347 158q70 0 113 54.5t43 147.5q0 92 -43.5 146.5t-112.5 54.5q-70 0 -113 -54t-43 -147
q0 -92 43.5 -147t112.5 -55z" />
    <glyph glyph-name="zero.tlf" horiz-adv-x="1282" 
d="M641 -20q-201 0 -336 122.5t-166 327.5q-20 131 -20 289t20 289q30 201 166 325q137 125 338 125t335 -122t165 -328q22 -145 22 -289t-22 -289q-30 -201 -166 -328q-134 -122 -336 -122zM641 221q91 0 151.5 56.5t81.5 152.5q25 119 25 289q0 183 -22 287
q-20 100 -82.5 155.5t-153.5 55.5q-92 0 -152.5 -55.5t-80.5 -155.5q-25 -119 -25 -287q0 -170 25 -289q21 -96 81.5 -152.5t151.5 -56.5z" />
    <glyph glyph-name="one.tlf" horiz-adv-x="1282" 
d="M1153 233v-233h-948v233h387v902l-338 -164l-18 243l436 220h178v-1201h303z" />
    <glyph glyph-name="two.tlf" horiz-adv-x="1282" 
d="M1108 231v-231h-965v186l549 562q85 87 117.5 147t32.5 127q0 87 -58 143t-151 56q-101 0 -160.5 -60t-64.5 -160h-252q9 206 141 332q134 125 338 125q216 0 345.5 -122.5t129.5 -307.5q0 -107 -51 -206.5t-168 -215.5l-385 -375h602z" />
    <glyph glyph-name="three.tlf" horiz-adv-x="1282" 
d="M610 -20q-139 0 -252 51.5t-182 151.5t-72 231h252q14 -92 82.5 -148.5t171.5 -56.5q105 0 175.5 61t70.5 154q0 94 -74.5 153.5t-191.5 59.5h-182v221h188q110 0 172.5 53.5t62.5 137.5q0 81 -62 131.5t-157 50.5t-157.5 -47.5t-69.5 -130.5h-250q12 187 147.5 296
t333.5 109q219 0 349 -115q129 -114 129 -278q0 -101 -55 -181t-142 -124q104 -44 165.5 -134.5t61.5 -213.5q0 -187 -145.5 -309.5t-368.5 -122.5z" />
    <glyph glyph-name="four.tlf" horiz-adv-x="1282" 
d="M1188 555v-225h-197v-330h-250v330h-632v182l469 922h270l-451 -879h348v274h246v-274h197z" />
    <glyph glyph-name="five.tlf" horiz-adv-x="1282" 
d="M645 -25q-202 0 -330 101q-127 102 -161 252l239 73q20 -87 90.5 -140.5t163.5 -53.5q109 0 180.5 70t71.5 180q0 105 -73.5 177.5t-182.5 72.5q-134 0 -233 -107h-222l82 834h830v-232h-608l-39 -332q108 64 229 64q215 0 348 -133.5t133 -339.5q0 -108 -40.5 -200
t-110.5 -154t-165 -97t-202 -35z" />
    <glyph glyph-name="six.tlf" horiz-adv-x="1282" 
d="M1174 457q0 -206 -146 -344t-362 -138q-146 0 -266.5 68t-188.5 213q-78 159 -78 408q0 256 49.5 412.5t143.5 248.5q133 133 370 133q178 0 304.5 -87t170.5 -241l-233 -69q-26 79 -91 123.5t-155 44.5q-125 0 -194 -80q-93 -106 -107 -373q47 69 129 106.5t182 37.5
q210 0 341 -134t131 -329zM668 207q106 0 176.5 69t70.5 173q0 101 -71 172t-176 71q-104 0 -174 -69.5t-70 -173.5q0 -102 68 -172t176 -70z" />
    <glyph glyph-name="seven.tlf" horiz-adv-x="1282" 
d="M1114 1229l-559 -1229h-291l559 1202h-651v232h942v-205z" />
    <glyph glyph-name="eight.tlf" horiz-adv-x="1282" 
d="M641 -25q-221 0 -362.5 123t-141.5 308q0 110 55 200.5t150 147.5q-78 53 -122 130.5t-44 172.5q0 172 133 286.5t334 114.5q203 0 335 -114t132 -287q0 -186 -166 -299q95 -57 149 -147.5t54 -204.5q0 -184 -144.5 -307.5t-361.5 -123.5zM643 1239q-98 0 -158.5 -54.5
t-60.5 -137.5q0 -82 62.5 -136.5t156.5 -54.5q96 0 157.5 54.5t61.5 136.5q0 83 -61 137.5t-158 54.5zM643 199q111 0 180.5 63.5t69.5 157.5q0 92 -71 154.5t-179 62.5q-110 0 -181 -62t-71 -155q0 -92 71.5 -156.5t180.5 -64.5z" />
    <glyph glyph-name="nine.tlf" horiz-adv-x="1282" 
d="M616 1229q-106 0 -176.5 -69t-70.5 -173q0 -103 71 -174q70 -70 176 -70q104 0 174 70t70 174q0 102 -68 172t-176 70zM588 -25q-178 0 -304.5 88t-170.5 242l233 70q26 -79 91 -123.5t155 -44.5q124 0 194 78q91 111 105 372q-44 -68 -125.5 -104.5t-183.5 -36.5
q-210 0 -340.5 133.5t-130.5 329.5q0 206 145.5 343.5t361.5 137.5q146 0 266.5 -67.5t188.5 -212.5q78 -159 78 -408q0 -256 -49.5 -412.5t-143.5 -248.5q-136 -136 -370 -136z" />
    <glyph glyph-name="space.tlf" horiz-adv-x="641" 
 />
    <glyph glyph-name="period.tlf" horiz-adv-x="641" 
d="M324 -25q-67 0 -114.5 49t-47.5 117q0 66 47.5 114t114.5 48t114 -48t47 -114q0 -68 -47 -117t-114 -49z" />
    <glyph glyph-name="comma.tlf" horiz-adv-x="641" 
d="M270 -344l-131 100l38.5 52.5t42 58.5t34 53.5t31.5 61.5q-54 14 -88.5 58t-34.5 101q0 66 47.5 114t114.5 48q69 0 115 -48.5t46 -125.5q0 -199 -215 -473z" />
    <glyph glyph-name="quoteright.tlf" horiz-adv-x="641" 
d="M387 1001h-215l88 433h234z" />
    <glyph glyph-name="zero.sup" horiz-adv-x="866" 
d="M434 696q-169 0 -266.5 111.5t-97.5 316.5q0 204 97 315t267 111q172 0 267.5 -109.5t95.5 -316.5q0 -203 -96 -315.5t-267 -112.5zM434 866q160 0 160 258q0 256 -160 256t-160 -256q0 -258 160 -258z" />
    <glyph glyph-name="one.sup" horiz-adv-x="561" 
d="M446 709h-202v614l-199 -80l-14 180l288 113h127v-827z" />
    <glyph glyph-name="two.sup" horiz-adv-x="745" 
d="M682 872v-161h-629v133l353 325q75 70 75 125q0 42 -28.5 68.5t-77.5 26.5q-53 0 -83 -30.5t-30 -78.5h-199q1 122 91 197t223 75q142 0 223 -75q82 -76 82 -179q0 -63 -26 -113.5t-95 -111.5l-225 -201h346z" />
    <glyph glyph-name="three.sup" horiz-adv-x="761" 
d="M373 698q-149 0 -238 69t-90 191h199q1 -50 35.5 -77t91.5 -27q55 0 90 28t35 76q0 52 -43.5 79.5t-108.5 27.5h-96v152h92q70 0 104.5 26t34.5 70q0 39 -28 62.5t-78 23.5q-48 0 -80.5 -26.5t-32.5 -67.5h-194q0 109 90 178q87 69 221 69q142 0 221.5 -64.5t79.5 -162.5
q0 -59 -34.5 -104.5t-92.5 -71.5q66 -26 105.5 -77.5t39.5 -123.5q0 -98 -82 -174t-241 -76z" />
    <glyph glyph-name="four.sup" horiz-adv-x="788" 
d="M760 1053v-160h-131v-184h-187v184h-413v135l288 508h205l-280 -483h204v157h183v-157h131z" />
    <glyph glyph-name="five.sup" horiz-adv-x="761" 
d="M379 694q-128 0 -212 55t-110 140l179 59q13 -41 48.5 -68.5t88.5 -27.5q58 0 95.5 34.5t37.5 90.5q0 55 -37.5 88t-95.5 33q-38 0 -69.5 -12.5t-47.5 -28.5h-168l39 479h553v-162h-385l-14 -153q49 24 127 24q131 0 215 -72.5t84 -193.5q0 -143 -97 -215
q-94 -70 -231 -70z" />
    <glyph glyph-name="six.sup" horiz-adv-x="794" 
d="M735 977q0 -124 -89.5 -202.5t-235.5 -78.5q-139 0 -242 95q-98 94 -98 311q0 221 90.5 334.5t269.5 113.5q111 0 189.5 -47t111.5 -121l-153 -73q-14 39 -53 63.5t-95 24.5q-161 0 -172 -211q71 61 182 61q132 0 213.5 -77.5t81.5 -192.5zM410 848q59 0 94 36t35 91
q0 52 -36.5 89.5t-92.5 37.5q-57 0 -95.5 -36t-38.5 -91q0 -56 37 -91.5t97 -35.5z" />
    <glyph glyph-name="seven.sup" horiz-adv-x="673" 
d="M289 709h-215l354 665h-405v162h630v-143z" />
    <glyph glyph-name="eight.sup" horiz-adv-x="786" 
d="M393 694q-150 0 -241 71t-91 181q0 126 125 193q-50 32 -77 78t-27 96q0 105 85.5 172t225.5 67t226 -67t86 -172q0 -51 -27.5 -96.5t-77.5 -77.5q58 -31 90.5 -81.5t32.5 -111.5q0 -111 -90 -181.5t-240 -70.5zM393 1405q-60 0 -95.5 -27.5t-35.5 -72.5q0 -44 37 -72.5
t94 -28.5t93 28.5t36 72.5t-36 72t-93 28zM393 846q65 0 104.5 31t39.5 79q0 47 -40.5 78t-103.5 31q-66 0 -105.5 -29.5t-39.5 -79.5q0 -46 40 -78t105 -32z" />
    <glyph glyph-name="nine.sup" horiz-adv-x="808" 
d="M385 1399q-59 0 -94 -36t-35 -91q0 -52 36.5 -89.5t92.5 -37.5q57 0 95 36t38 91q0 56 -36.5 91.5t-96.5 35.5zM365 696q-112 0 -190.5 47.5t-111.5 120.5l154 74q14 -39 53 -63.5t95 -24.5q161 0 172 211q-73 -62 -183 -62q-132 0 -213.5 78t-81.5 193q0 124 89.5 202
t236.5 78q139 0 240 -96q100 -93 100 -309q0 -221 -90.5 -335t-269.5 -114z" />
    <glyph glyph-name="zero.num" horiz-adv-x="866" 
d="M434 594q-169 0 -266.5 111.5t-97.5 316.5q0 204 97 315t267 111q172 0 267.5 -109.5t95.5 -316.5q0 -203 -96 -315.5t-267 -112.5zM434 764q160 0 160 258q0 256 -160 256t-160 -256q0 -258 160 -258z" />
    <glyph glyph-name="one.num" horiz-adv-x="561" 
d="M446 606h-202v615l-199 -80l-14 180l288 113h127v-828z" />
    <glyph glyph-name="two.num" horiz-adv-x="745" 
d="M682 770v-162h-629v133l353 326q75 70 75 125q0 42 -28.5 68t-77.5 26q-53 0 -83 -30t-30 -78h-199q1 122 91 197t223 75q141 0 223 -76t82 -178q0 -63 -26 -113.5t-95 -111.5l-225 -201h346z" />
    <glyph glyph-name="three.num" horiz-adv-x="761" 
d="M373 596q-149 0 -238 69t-90 191h199q1 -50 35.5 -77t91.5 -27q55 0 90 28t35 76q0 52 -43.5 79.5t-108.5 27.5h-96v151h92q70 0 104.5 26t34.5 70q0 39 -28 62.5t-78 23.5q-48 0 -80.5 -26.5t-32.5 -67.5h-194q0 109 90 178q88 70 221 70q142 0 221.5 -64.5t79.5 -162.5
q0 -59 -34.5 -104.5t-92.5 -71.5q66 -26 105.5 -77.5t39.5 -123.5q0 -98 -82 -174t-241 -76z" />
    <glyph glyph-name="four.num" horiz-adv-x="788" 
d="M760 950v-159h-131v-185h-187v185h-413v135l288 508h205l-280 -484h204v158h183v-158h131z" />
    <glyph glyph-name="five.num" horiz-adv-x="761" 
d="M379 592q-129 0 -212.5 54.5t-109.5 139.5l179 60q13 -41 48.5 -68.5t88.5 -27.5q58 0 95.5 34t37.5 90q0 55 -37.5 88t-95.5 33q-38 0 -69.5 -12.5t-47.5 -28.5h-168l39 480h553v-162h-385l-14 -154q52 25 127 25q131 0 215 -72.5t84 -193.5q0 -143 -97 -215
q-94 -70 -231 -70z" />
    <glyph glyph-name="six.num" horiz-adv-x="794" 
d="M735 874q0 -124 -89 -202t-236 -78q-141 0 -242 94q-98 94 -98 311q0 221 90.5 335t269.5 114q111 0 189.5 -47t111.5 -121l-153 -74q-14 39 -53 63.5t-95 24.5q-161 0 -172 -211q73 62 182 62q132 0 213.5 -78t81.5 -193zM410 745q59 0 94 36t35 91q0 52 -36.5 89.5
t-92.5 37.5q-57 0 -95.5 -36t-38.5 -91q0 -56 37 -91.5t97 -35.5z" />
    <glyph glyph-name="seven.num" horiz-adv-x="673" 
d="M289 606h-215l354 666h-405v162h630v-144z" />
    <glyph glyph-name="eight.num" horiz-adv-x="786" 
d="M393 592q-150 0 -241 71t-91 181q0 125 125 192q-50 32 -77 78t-27 96q0 105 85.5 172.5t225.5 67.5t226 -67.5t86 -172.5q0 -51 -27.5 -96.5t-77.5 -77.5q58 -31 90.5 -81t32.5 -111q0 -111 -90 -181.5t-240 -70.5zM393 1303q-59 0 -95 -28t-36 -73q0 -44 37 -72t94 -28
t93 28t36 72t-36 72.5t-93 28.5zM393 743q65 0 104.5 31.5t39.5 79.5q0 47 -40.5 78t-103.5 31q-66 0 -105.5 -29.5t-39.5 -79.5q0 -46 40 -78.5t105 -32.5z" />
    <glyph glyph-name="nine.num" horiz-adv-x="808" 
d="M385 1296q-59 0 -94 -36t-35 -91q0 -52 36.5 -89.5t92.5 -37.5q57 0 95 36t38 91q0 56 -36.5 91.5t-96.5 35.5zM365 594q-112 0 -190.5 47.5t-111.5 120.5l154 74q14 -39 53 -63.5t95 -24.5q161 0 172 210q-71 -61 -183 -61q-132 0 -213.5 77.5t-81.5 192.5
q0 124 89.5 202.5t236.5 78.5q139 0 240 -96q100 -93 100 -310q0 -221 -90.5 -334.5t-269.5 -113.5z" />
    <glyph glyph-name="zero.den" horiz-adv-x="866" 
d="M434 -14q-169 0 -266.5 111.5t-97.5 316.5q0 204 97 315t267 111q172 0 267.5 -109.5t95.5 -316.5q0 -203 -96 -315.5t-267 -112.5zM434 156q160 0 160 258q0 256 -160 256t-160 -256q0 -258 160 -258z" />
    <glyph glyph-name="one.den" horiz-adv-x="561" 
d="M446 0h-202v614l-199 -79l-14 180l288 112h127v-827z" />
    <glyph glyph-name="two.den" horiz-adv-x="745" 
d="M682 162v-162h-629v133l353 326q75 70 75 125q0 42 -28.5 68t-77.5 26q-53 0 -83 -30.5t-30 -78.5h-199q1 122 91 197.5t223 75.5q141 0 223 -76t82 -178q0 -63 -26 -114.5t-95 -111.5l-225 -200h346z" />
    <glyph glyph-name="three.den" horiz-adv-x="761" 
d="M373 -12q-149 0 -238 69t-90 191h199q1 -50 35.5 -77.5t91.5 -27.5q55 0 90 28t35 77q0 51 -43 78.5t-109 27.5h-96v152h92q70 0 104.5 26t34.5 70q0 39 -28 62.5t-78 23.5q-48 0 -80.5 -26.5t-32.5 -67.5h-194q0 109 90 178q88 70 221 70q142 0 221.5 -65t79.5 -163
q0 -59 -34.5 -104.5t-92.5 -71.5q66 -26 105.5 -77t39.5 -123q0 -99 -82 -175q-81 -75 -241 -75z" />
    <glyph glyph-name="four.den" horiz-adv-x="788" 
d="M760 344v-160h-131v-184h-187v184h-413v135l288 508h205l-280 -483h204v158h183v-158h131z" />
    <glyph glyph-name="five.den" horiz-adv-x="761" 
d="M379 -14q-129 0 -212.5 54.5t-109.5 139.5l179 60q13 -41 49 -69t88 -28q58 0 95.5 34.5t37.5 90.5q0 55 -37.5 88t-95.5 33q-38 0 -69.5 -12.5t-47.5 -28.5h-168l39 479h553v-161h-385l-14 -154q52 25 127 25q131 0 215 -73t84 -194q0 -143 -97 -215q-92 -69 -231 -69z
" />
    <glyph glyph-name="six.den" horiz-adv-x="794" 
d="M735 266q0 -124 -89 -202t-236 -78q-141 0 -242 94q-98 94 -98 311q0 221 90.5 335t269.5 114q111 0 189.5 -47t111.5 -121l-153 -74q-14 39 -53 63.5t-95 24.5q-161 0 -172 -211q73 62 182 62q132 0 213.5 -78t81.5 -193zM410 137q59 0 94 36t35 91q0 52 -36.5 89.5
t-92.5 37.5q-57 0 -95.5 -36t-38.5 -91q0 -56 37 -91.5t97 -35.5z" />
    <glyph glyph-name="seven.den" horiz-adv-x="673" 
d="M289 0h-215l354 666h-405v161h630v-143z" />
    <glyph glyph-name="eight.den" horiz-adv-x="786" 
d="M393 -16q-150 0 -241 71t-91 181q0 125 125 192q-50 32 -77 78t-27 96q0 105 85.5 172.5t225.5 67.5t226 -67.5t86 -172.5q0 -51 -27.5 -96.5t-77.5 -77.5q58 -31 90.5 -81t32.5 -111q0 -111 -90 -181.5t-240 -70.5zM393 694q-60 0 -95.5 -27.5t-35.5 -72.5q0 -44 37 -72
t94 -28t93 28t36 72t-36 72t-93 28zM393 135q65 0 104.5 31.5t39.5 79.5q0 47 -40.5 77.5t-103.5 30.5q-66 0 -105.5 -29.5t-39.5 -78.5q0 -46 40 -78.5t105 -32.5z" />
    <glyph glyph-name="nine.den" horiz-adv-x="794" 
d="M385 688q-59 0 -94 -36t-35 -91q0 -52 36.5 -89.5t92.5 -37.5q57 0 95 36t38 91q0 56 -36.5 91.5t-96.5 35.5zM365 -14q-112 0 -190.5 47.5t-111.5 120.5l154 73q14 -39 53 -63.5t95 -24.5q161 0 172 211q-71 -61 -183 -61q-132 0 -213.5 77.5t-81.5 192.5
q0 124 89.5 202.5t236.5 78.5q138 0 240 -97q100 -93 100 -309q0 -221 -90.5 -334.5t-269.5 -113.5z" />
    <glyph glyph-name="zero.sub" horiz-adv-x="866" 
d="M434 -219q-169 0 -266.5 111.5t-97.5 316.5q0 204 97 315t267 111q172 0 267.5 -109.5t95.5 -316.5q0 -203 -96 -315.5t-267 -112.5zM434 -49q160 0 160 258q0 256 -160 256t-160 -256q0 -258 160 -258z" />
    <glyph glyph-name="one.sub" horiz-adv-x="561" 
d="M446 -205h-202v615l-199 -80l-14 180l288 113h127v-828z" />
    <glyph glyph-name="two.sub" horiz-adv-x="745" 
d="M682 -43v-162h-629v133l353 326q75 70 75 125q0 42 -28.5 68t-77.5 26q-53 0 -83 -30t-30 -78h-199q1 122 91 197t223 75q141 0 223 -76t82 -178q0 -63 -26 -113.5t-95 -111.5l-225 -201h346z" />
    <glyph glyph-name="three.sub" horiz-adv-x="761" 
d="M373 -217q-149 0 -238 69t-90 191h199q1 -50 35.5 -77t91.5 -27q55 0 90 28t35 76q0 52 -43.5 79.5t-108.5 27.5h-96v151h92q70 0 104.5 26t34.5 70q0 39 -28 62.5t-78 23.5q-48 0 -80.5 -26.5t-32.5 -67.5h-194q0 109 90 178q88 70 221 70q142 0 221.5 -64.5
t79.5 -162.5q0 -59 -34.5 -105t-92.5 -72q66 -26 105.5 -77t39.5 -123q0 -96 -82 -172q-84 -78 -241 -78z" />
    <glyph glyph-name="four.sub" horiz-adv-x="788" 
d="M760 139v-159h-131v-185h-187v185h-413v135l288 508h205l-280 -484h204v158h183v-158h131z" />
    <glyph glyph-name="five.sub" horiz-adv-x="761" 
d="M379 -219q-129 0 -212.5 54.5t-109.5 139.5l179 60q13 -41 48.5 -68.5t88.5 -27.5q58 0 95.5 34t37.5 90q0 55 -37.5 88t-95.5 33q-38 0 -69.5 -12.5t-47.5 -28.5h-168l39 480h553v-162h-385l-14 -154q52 25 127 25q131 0 215 -72.5t84 -193.5q0 -144 -97 -216
q-92 -69 -231 -69z" />
    <glyph glyph-name="six.sub" horiz-adv-x="794" 
d="M735 61q0 -124 -89 -202t-236 -78q-138 0 -242 96q-98 94 -98 309q0 221 90.5 335t269.5 114q111 0 189.5 -47t111.5 -121l-153 -74q-14 39 -53 63.5t-95 24.5q-161 0 -172 -211q73 62 182 62q132 0 213.5 -78t81.5 -193zM410 -68q59 0 94 36t35 91q0 52 -36.5 89.5
t-92.5 37.5q-57 0 -95.5 -36t-38.5 -91q0 -56 37 -91.5t97 -35.5z" />
    <glyph glyph-name="seven.sub" horiz-adv-x="673" 
d="M289 -205h-215l354 666h-405v162h630v-144z" />
    <glyph glyph-name="eight.sub" horiz-adv-x="786" 
d="M393 -221q-150 0 -241 71t-91 181q0 125 125 192q-50 32 -77 78t-27 96q0 105 85.5 172.5t225.5 67.5t226 -67.5t86 -172.5q0 -51 -27.5 -96.5t-77.5 -77.5q58 -31 90.5 -81t32.5 -111q0 -111 -90 -181.5t-240 -70.5zM393 489q-60 0 -95.5 -27.5t-35.5 -72.5
q0 -44 37 -72t94 -28t93 28t36 72t-36 72t-93 28zM393 -70q65 0 104.5 31.5t39.5 79.5q0 47 -40.5 78t-103.5 31q-66 0 -105.5 -29.5t-39.5 -79.5q0 -46 40 -78.5t105 -32.5z" />
    <glyph glyph-name="nine.sub" horiz-adv-x="794" 
d="M385 483q-59 0 -94 -36t-35 -91q0 -52 36.5 -89.5t92.5 -37.5q57 0 95 36t38 91q0 56 -36.5 91.5t-96.5 35.5zM365 -219q-112 0 -190.5 47.5t-111.5 120.5l154 74q14 -40 53.5 -64.5t94.5 -24.5q161 0 172 211q-71 -61 -183 -61q-132 0 -213.5 77.5t-81.5 192.5
q0 124 89.5 202.5t236.5 78.5q139 0 240 -96q100 -93 100 -310q0 -221 -90.5 -334.5t-269.5 -113.5z" />
    <glyph glyph-name="a.sup" horiz-adv-x="811" 
d="M367 809q50 0 110 35l31 18l2 125l-119 -31q-60 -14 -86 -31t-26 -48t26.5 -49.5t61.5 -18.5zM516 725l-14 -10q-84 -64 -189 -64q-97 0 -165 57t-68 148q0 87 59.5 139.5t188.5 83.5l182 45q-4 38 -37.5 59t-85.5 21q-109 0 -139 -78l-164 58q26 82 114.5 134t200.5 52
q142 0 226 -66.5t84 -187.5v-454h-193v63z" />
    <glyph glyph-name="b.sup" horiz-adv-x="915" 
d="M518 649q-121 0 -203 82v-69h-200v1009h217v-360q83 59 184 59q93 0 168 -38.5t122.5 -121.5t47.5 -198q0 -89 -28 -160t-75 -114.5t-106.5 -66t-126.5 -22.5zM481 836q69 0 111.5 45.5t42.5 130.5q0 84 -43.5 128t-114.5 44q-58 0 -101.5 -34.5t-43.5 -84.5v-109
q0 -51 43.5 -85.5t105.5 -34.5z" />
    <glyph glyph-name="c.sup" horiz-adv-x="813" 
d="M426 649q-97 0 -178.5 39t-135 123.5t-53.5 200.5q0 70 20.5 129t55.5 101t82 71t100 43t109 14q129 0 217.5 -63t116.5 -156l-178 -57q-43 88 -148 88q-66 0 -112 -44t-46 -126t46 -128t112 -46q105 0 148 98l180 -64q-36 -112 -124.5 -167.5t-211.5 -55.5z" />
    <glyph glyph-name="d.sup" horiz-adv-x="915" 
d="M436 836q58 0 103 36t45 86v105q0 51 -43.5 86t-106.5 35q-67 0 -110 -44t-43 -128q0 -85 42.5 -130.5t112.5 -45.5zM801 662h-201v69q-82 -82 -205 -82q-67 0 -126 22.5t-106 65.5t-74.5 114t-27.5 161q0 171 97.5 264.5t238.5 93.5q107 0 187 -57v358h217v-1009z" />
    <glyph glyph-name="e.sup" horiz-adv-x="837" 
d="M422 1212q-57 0 -96.5 -32t-46.5 -93h284q-4 61 -43 93t-98 32zM625 899l141 -96q-44 -64 -126.5 -108t-201.5 -44q-163 0 -271 94.5t-108 266.5q0 167 105.5 262.5t263.5 95.5q154 0 250 -89t100 -245v-69h-502q1 -69 50 -109.5t127 -40.5q113 0 172 82z" />
    <glyph glyph-name="f.sup" horiz-adv-x="559" 
d="M539 1354v-178h-168v-514h-213v514h-115v178h115v59q0 133 78 201q77 65 192 65q154 0 229 -82l-114 -133q-38 35 -86 35q-39 0 -62.5 -23t-23.5 -65v-57h168z" />
    <glyph glyph-name="g.sup" horiz-adv-x="919" 
d="M442 844q51 0 94.5 33t49.5 75l2 115q-6 47 -47.5 82t-100.5 35q-69 0 -112 -44.5t-43 -127.5t43 -125.5t114 -42.5zM420 336q-211 0 -322 92l115 156q70 -64 190 -64q183 0 183 150v51q-77 -64 -185 -64q-67 0 -126 22t-105.5 65t-74 112t-27.5 156q0 169 96 262.5
t239 93.5q114 0 197 -70v56h205v-695q0 -154 -102.5 -238.5t-282.5 -84.5z" />
    <glyph glyph-name="h.sup" horiz-adv-x="911" 
d="M469 1174q-97 0 -137 -87v-425h-217v1009h217v-387q74 84 205 84q125 0 198.5 -70.5t73.5 -197.5v-438h-217v380q0 63 -33 97.5t-90 34.5z" />
    <glyph glyph-name="i.sup" horiz-adv-x="446" 
d="M223 1442q-51 0 -88 35t-37 86t36 87t89 36q51 0 87 -36t36 -87t-36 -86t-87 -35zM332 662h-217v692h217v-692z" />
    <glyph glyph-name="j.sup" horiz-adv-x="593" 
d="M369 1446q-51 0 -87 35t-36 86t36 87t87 36q53 0 89 -36t36 -87t-35.5 -86t-89.5 -35zM262 1354h217v-742q0 -135 -76 -190q-77 -53 -176 -53q-151 0 -227 96l129 127q37 -37 72 -37q61 0 61 63v736z" />
    <glyph glyph-name="k.sup" horiz-adv-x="880" 
d="M848 662h-254l-178 286l-88 -80v-206h-213v1009h213v-561l254 244h272l-285 -262z" />
    <glyph glyph-name="l.sup" horiz-adv-x="446" 
d="M332 662h-217v1009h217v-1009z" />
    <glyph glyph-name="m.sup" horiz-adv-x="1353" 
d="M459 1171q-44 0 -79 -23.5t-48 -64.5v-421h-217v692h217v-72q74 84 205 84q64 0 117 -25.5t85 -72.5q85 98 240 98q125 0 197.5 -70t72.5 -198v-436h-215v378q0 131 -114 131q-45 0 -80.5 -23.5t-48.5 -64.5v-421h-216v378q0 131 -116 131z" />
    <glyph glyph-name="n.sup" horiz-adv-x="911" 
d="M469 1171q-95 0 -137 -88v-421h-217v692h217v-72q75 86 207 86q124 0 197 -71t73 -199v-436h-217v378q0 62 -32.5 96.5t-90.5 34.5z" />
    <glyph glyph-name="o.sup" horiz-adv-x="872" 
d="M436 649q-159 0 -268 97t-109 264q0 166 110 263t267 97q160 0 268.5 -95t108.5 -265q0 -166 -109 -263.5t-268 -97.5zM436 838q70 0 115 47t45 125t-45 125t-115 47t-115 -47t-45 -125t45.5 -125t114.5 -47z" />
    <glyph glyph-name="p.sup" horiz-adv-x="921" 
d="M487 836q70 0 113 45.5t43 130.5q0 84 -44 128t-114 44q-58 0 -102 -34.5t-45 -84.5v-109q1 -51 44 -85.5t105 -34.5zM526 649q-107 0 -188 68v-336h-215v973h199v-60q82 76 202 76q93 0 167.5 -38.5t121.5 -121t47 -198.5q0 -175 -97 -269t-237 -94z" />
    <glyph glyph-name="q.sup" horiz-adv-x="923" 
d="M801 1354v-973h-217v334q-80 -66 -189 -66q-67 0 -126 22.5t-106 65.5t-74.5 114t-27.5 161q0 171 97.5 264.5t238.5 93.5q123 0 203 -74v58h201zM436 836q59 0 103.5 35t44.5 87v105q0 53 -43 87t-107 34q-67 0 -110 -44t-43 -128q0 -85 42.5 -130.5t112.5 -45.5z" />
    <glyph glyph-name="r.sup" horiz-adv-x="626" 
d="M451 1163q-38 0 -71.5 -21t-47.5 -52v-428h-217v692h217v-72q27 37 68.5 59.5t88.5 22.5q77 0 129 -35l-69 -192q-45 26 -98 26z" />
    <glyph glyph-name="s.sup" horiz-adv-x="743" 
d="M373 649q-127 0 -209 51t-109 140l168 53q13 -44 53.5 -68t96.5 -24q49 0 78.5 15.5t29.5 45.5q0 31 -34.5 47.5t-118.5 30.5q-120 21 -184 68.5t-64 140.5q0 99 84.5 160t214.5 61q124 0 200 -49.5t103 -130.5l-168 -49q-26 80 -131 80q-47 0 -75.5 -18.5t-28.5 -47.5
t30 -41t109 -24q264 -40 264 -222q0 -102 -85 -160.5t-224 -58.5z" />
    <glyph glyph-name="t.sup" horiz-adv-x="624" 
d="M494 856l77 -139q-66 -66 -196 -66q-110 0 -172 57.5t-62 176.5l2 291h-104v178h111v192h200v-192h189v-178h-191v-269q0 -80 72 -80q45 0 74 29z" />
    <glyph glyph-name="u.sup" horiz-adv-x="905" 
d="M791 662h-216v73q-75 -86 -202 -86q-125 0 -197 69t-72 195v441h215v-381q0 -61 34 -94t87 -33q89 0 135 84v424h216v-692z" />
    <glyph glyph-name="v.sup" horiz-adv-x="806" 
d="M786 1354l-268 -692h-231l-267 692h226l162 -445l159 445h219z" />
    <glyph glyph-name="w.sup" horiz-adv-x="1105" 
d="M864 662h-176l-133 301l-137 -301h-178l-213 692h225l117 -393l120 276h134l118 -281l121 398h217z" />
    <glyph glyph-name="x.sup" horiz-adv-x="823" 
d="M788 662h-229l-143 223l-148 -223h-231l246 346l-238 346h229l140 -221l145 221h221l-235 -338z" />
    <glyph glyph-name="y.sup" horiz-adv-x="806" 
d="M791 1354l-443 -975h-229l170 366l-271 609h228l166 -381l153 381h226z" />
    <glyph glyph-name="z.sup" horiz-adv-x="727" 
d="M657 840v-178h-587v126l311 388h-303v178h573v-127l-309 -387h315z" />
    <glyph glyph-name="at.case" horiz-adv-x="1927" 
d="M967 -162q-175 0 -332.5 67.5t-271.5 183.5t-181 280.5t-67 349.5q0 184 65 347.5t178 281t274 186t345 68.5q182 0 339.5 -65t266 -176.5t170.5 -263t62 -321.5q0 -130 -44 -241.5t-135 -185t-213 -73.5q-172 0 -256 125q-89 -120 -243 -120q-170 0 -282 118t-112 322
q0 104 34.5 188.5t90.5 134.5t121 76.5t133 26.5q134 0 213 -88l8 78h209v-566q0 -53 27.5 -84.5t67.5 -31.5q84 0 134 86.5t50 218.5q0 181 -77.5 330.5t-225.5 239t-338 89.5q-195 0 -348.5 -92.5t-236.5 -251.5t-83 -356q0 -194 85 -354t236.5 -252.5t336.5 -92.5
q223 0 397 107l88 -158q-207 -131 -485 -131zM946 494q54 0 101.5 34t66.5 97v182q-19 58 -64 92.5t-104 34.5q-83 0 -133.5 -58t-50.5 -157q0 -106 52.5 -165.5t131.5 -59.5z" />
    <glyph glyph-name="hyphen.case" horiz-adv-x="788" 
d="M700 623h-612v217h612v-217z" />
    <glyph glyph-name="exclamdown.case" horiz-adv-x="616" 
d="M307 1458q67 0 114.5 -49t47.5 -117q0 -66 -47.5 -114t-114.5 -48t-114.5 48t-47.5 114q0 68 47.5 117t114.5 49zM203 985h211l32 -985h-276z" />
    <glyph glyph-name="questiondown.case" horiz-adv-x="1071" 
d="M608 1460q67 0 114.5 -49t47.5 -117q0 -66 -47.5 -113.5t-114.5 -47.5t-114.5 47.5t-47.5 113.5q0 68 47.5 117t114.5 49zM481 987h254v-90q0 -72 -6 -115.5t-25.5 -76t-45.5 -52.5t-76 -47l-64 -33q-94 -49 -133 -95.5t-39 -108.5q0 -73 56.5 -120.5t146.5 -47.5
q95 0 156 56.5t65 154.5l250 -21q-7 -193 -139.5 -304.5t-331.5 -111.5q-213 0 -340 109t-127 281q0 145 78 229q72 78 188 139l72 37q37 19 49 43t12 84v90z" />
    <glyph glyph-name="bracketleft.case" horiz-adv-x="751" 
d="M711 -207h-545v1847h545v-196h-297v-1454h297v-197z" />
    <glyph glyph-name="bracketright.case" horiz-adv-x="751" 
d="M41 1640h545v-1847h-545v197h297v1454h-297v196z" />
    <glyph glyph-name="endash.case" horiz-adv-x="1107" 
d="M1022 635h-934v196h934v-196z" />
    <glyph glyph-name="emdash.case" horiz-adv-x="1619" 
d="M1534 635h-1446v196h1446v-196z" />
    <glyph glyph-name="guillemotleft.case" horiz-adv-x="1198" 
d="M608 403l-162 -137l-378 457l378 457l160 -133l-270 -320zM1108 403l-162 -137l-379 457l379 457l160 -133l-270 -320z" />
    <glyph glyph-name="guillemotright.case" horiz-adv-x="1198" 
d="M92 1042l162 138l379 -457l-379 -457l-160 133l271 320zM592 1042l162 138l379 -457l-379 -457l-160 133l270 320z" />
    <glyph glyph-name="guilsinglleft.case" horiz-adv-x="698" 
d="M608 403l-162 -137l-378 457l378 457l160 -133l-270 -320z" />
    <glyph glyph-name="guilsinglright.case" horiz-adv-x="698" 
d="M92 1042l162 138l379 -457l-379 -457l-160 133l271 320z" />
    <glyph glyph-name="parenleft.case" horiz-adv-x="739" 
d="M713 -158l-172 -151q-194 186 -313 461t-119 573q0 289 118 559.5t314 462.5l172 -152q-158 -174 -255.5 -397.5t-97.5 -472.5q0 -257 97 -481.5t256 -401.5z" />
    <glyph glyph-name="parenright.case" horiz-adv-x="739" 
d="M27 1595l172 152q194 -186 313 -461t119 -573q0 -289 -118 -559.5t-314 -462.5l-172 151q157 174 254.5 398t97.5 473q0 257 -96.5 481t-255.5 401z" />
    <glyph glyph-name="a.alt" horiz-adv-x="1216" 
d="M578 207q99 0 167.5 65t69.5 183v114q-1 114 -68 179t-169 65q-105 0 -173.5 -79t-68.5 -222q0 -146 68.5 -225.5t173.5 -79.5zM1065 0h-236v109q-52 -58 -126.5 -92.5t-163.5 -34.5q-94 0 -176.5 35.5t-145 101.5t-99 167.5t-36.5 225.5q0 122 36.5 222.5t99 166
t144.5 101.5t175 36q182 0 292 -123v99h236v-1014z" />
    <glyph glyph-name="g.alt" horiz-adv-x="1202" 
d="M571 246q96 0 162.5 63.5t67.5 175.5v93q-1 107 -67 172t-163 65q-101 0 -168 -74.5t-67 -208.5q0 -135 67 -210.5t168 -75.5zM580 -416q-165 0 -290.5 66t-185.5 192l203 111q38 -78 107.5 -119t163.5 -41q106 0 164.5 60t58.5 174v98q-109 -102 -269 -102
q-91 0 -172 34.5t-142.5 98t-97.5 161t-36 215.5q0 230 129 368t317 138q178 0 285 -120v96h236v-994q0 -218 -133 -327t-338 -109z" />
    <glyph glyph-name="j.alt" horiz-adv-x="552" 
d="M276 1174q-63 0 -106 43t-43 106t43 105t106 42q64 0 108 -42t44 -105t-44.5 -106t-107.5 -43zM29 -399l-27 217q72 8 111 48t39 128v1020h249v-1034q0 -359 -372 -379z" />
    <glyph glyph-name="dotlessj.alt" horiz-adv-x="552" 
d="M29 -399l-27 217q72 8 111 48t39 128v1020h249v-1034q0 -359 -372 -379z" />
    <glyph glyph-name="ij.alt" horiz-adv-x="1105" 
d="M276 1174q-63 0 -106 43t-43 106t43 105t106 42q64 0 108 -42t44 -105t-44.5 -106t-107.5 -43zM401 0h-249v1014h249v-1014zM829 1174q-63 0 -106 43t-43 106t43 105t106 42t107.5 -42t44.5 -105t-44.5 -106t-107.5 -43zM582 -399l-27 217q72 8 111 48t39 128v1020h249
v-1034q0 -359 -372 -379z" />
    <glyph glyph-name="aacute.alt" horiz-adv-x="1216" 
d="M578 207q99 0 167.5 65t69.5 183v114q-1 114 -68 179t-169 65q-105 0 -173.5 -79t-68.5 -222q0 -146 68.5 -225.5t173.5 -79.5zM1065 0h-236v109q-52 -58 -126.5 -92.5t-163.5 -34.5q-94 0 -176.5 35.5t-145 101.5t-99 167.5t-36.5 225.5q0 122 36.5 222.5t99 166
t144.5 101.5t175 36q182 0 292 -123v99h236v-1014zM698 1151h-202v4l137 289h280v-4z" />
    <glyph glyph-name="acircumflex.alt" horiz-adv-x="1216" 
d="M578 207q99 0 167.5 65t69.5 183v114q-1 114 -68 179t-169 65q-105 0 -173.5 -79t-68.5 -222q0 -146 68.5 -225.5t173.5 -79.5zM1065 0h-236v109q-52 -58 -126.5 -92.5t-163.5 -34.5q-94 0 -176.5 35.5t-145 101.5t-99 167.5t-36.5 225.5q0 122 36.5 222.5t99 166
t144.5 101.5t175 36q182 0 292 -123v99h236v-1014zM602 1288l-270 -147v186l276 162l273 -162v-186z" />
    <glyph glyph-name="adieresis.alt" horiz-adv-x="1216" 
d="M578 207q99 0 167.5 65t69.5 183v114q-1 114 -68 179t-169 65q-105 0 -173.5 -79t-68.5 -222q0 -146 68.5 -225.5t173.5 -79.5zM1065 0h-236v109q-52 -58 -126.5 -92.5t-163.5 -34.5q-94 0 -176.5 35.5t-145 101.5t-99 167.5t-36.5 225.5q0 122 36.5 222.5t99 166
t144.5 101.5t175 36q182 0 292 -123v99h236v-1014zM815 1180q-54 0 -92.5 39t-38.5 94q0 54 38.5 92.5t92.5 38.5q55 0 94 -38.5t39 -92.5q0 -55 -39 -94t-94 -39zM395 1180q-54 0 -92.5 39t-38.5 94q0 54 38.5 92.5t92.5 38.5q55 0 94 -38.5t39 -92.5q0 -55 -39 -94
t-94 -39z" />
    <glyph glyph-name="agrave.alt" horiz-adv-x="1216" 
d="M578 207q99 0 167.5 65t69.5 183v114q-1 114 -68 179t-169 65q-105 0 -173.5 -79t-68.5 -222q0 -146 68.5 -225.5t173.5 -79.5zM1065 0h-236v109q-52 -58 -126.5 -92.5t-163.5 -34.5q-94 0 -176.5 35.5t-145 101.5t-99 167.5t-36.5 225.5q0 122 36.5 222.5t99 166
t144.5 101.5t175 36q182 0 292 -123v99h236v-1014zM723 1151h-203l-215 289v4h281l137 -289v-4z" />
    <glyph glyph-name="atilde.alt" horiz-adv-x="1216" 
d="M578 207q99 0 167.5 65t69.5 183v114q-1 114 -68 179t-169 65q-105 0 -173.5 -79t-68.5 -222q0 -146 68.5 -225.5t173.5 -79.5zM1065 0h-236v109q-52 -58 -126.5 -92.5t-163.5 -34.5q-94 0 -176.5 35.5t-145 101.5t-99 167.5t-36.5 225.5q0 122 36.5 222.5t99 166
t144.5 101.5t175 36q182 0 292 -123v99h236v-1014zM725 1169q-44 0 -86 20.5t-76.5 41t-60.5 20.5q-32 0 -51 -21t-21 -54l-139 20q2 96 55 162.5t137 66.5q43 0 86 -20.5t78.5 -41t61.5 -20.5q31 0 49 21t20 55l140 -20q-2 -97 -55 -163.5t-138 -66.5z" />
    <glyph glyph-name="aring.alt" horiz-adv-x="1216" 
d="M578 207q99 0 167.5 65t69.5 183v114q-1 114 -68 179t-169 65q-105 0 -173.5 -79t-68.5 -222q0 -146 68.5 -225.5t173.5 -79.5zM1065 0h-236v109q-52 -58 -126.5 -92.5t-163.5 -34.5q-94 0 -176.5 35.5t-145 101.5t-99 167.5t-36.5 225.5q0 122 36.5 222.5t99 166
t144.5 101.5t175 36q182 0 292 -123v99h236v-1014zM604 1124q-76 0 -130 53t-54 130q0 75 54.5 127.5t129.5 52.5q78 0 131 -52.5t53 -127.5q0 -77 -54 -130t-130 -53zM604 1229q31 0 53.5 23t22.5 55t-22.5 53.5t-53.5 21.5t-53.5 -21.5t-22.5 -53.5t22.5 -55t53.5 -23z
" />
    <glyph glyph-name="abreve.alt" horiz-adv-x="1216" 
d="M578 207q99 0 167.5 65t69.5 183v114q-1 114 -68 179t-169 65q-105 0 -173.5 -79t-68.5 -222q0 -146 68.5 -225.5t173.5 -79.5zM1065 0h-236v109q-52 -58 -126.5 -92.5t-163.5 -34.5q-94 0 -176.5 35.5t-145 101.5t-99 167.5t-36.5 225.5q0 122 36.5 222.5t99 166
t144.5 101.5t175 36q182 0 292 -123v99h236v-1014zM606 1159q-126 0 -205.5 74.5t-83.5 200.5h168q0 -54 33 -86.5t88 -32.5t88 32.5t33 86.5h166q-4 -126 -85 -200.5t-202 -74.5z" />
    <glyph glyph-name="amacron.alt" horiz-adv-x="1216" 
d="M578 207q99 0 167.5 65t69.5 183v114q-1 114 -68 179t-169 65q-105 0 -173.5 -79t-68.5 -222q0 -146 68.5 -225.5t173.5 -79.5zM1065 0h-236v109q-52 -58 -126.5 -92.5t-163.5 -34.5q-94 0 -176.5 35.5t-145 101.5t-99 167.5t-36.5 225.5q0 122 36.5 222.5t99 166
t144.5 101.5t175 36q182 0 292 -123v99h236v-1014zM852 1219h-494v165h494v-165z" />
    <glyph glyph-name="aogonek.alt" horiz-adv-x="1216" 
d="M578 207q99 0 167.5 65t69.5 183v114q-1 114 -68 179t-169 65q-105 0 -173.5 -79t-68.5 -222q0 -146 68.5 -225.5t173.5 -79.5zM1065 0h-236v109q-52 -58 -126.5 -92.5t-163.5 -34.5q-94 0 -176.5 35.5t-145 101.5t-99 167.5t-36.5 225.5q0 122 36.5 222.5t99 166
t144.5 101.5t175 36q182 0 292 -123v99h236v-1014zM905 -414q-91 0 -153 46t-62 130t61.5 155t178.5 138l135 -55q-77 -33 -130.5 -82t-53.5 -104q0 -30 18 -45t45 -15q45 0 86 35l86 -125q-84 -78 -211 -78z" />
    <glyph glyph-name="aringacute.alt" horiz-adv-x="1216" 
d="M578 207q99 0 167.5 65t69.5 183v114q-1 114 -68 179t-169 65q-105 0 -173.5 -79t-68.5 -222q0 -146 68.5 -225.5t173.5 -79.5zM1065 0h-236v109q-52 -58 -126.5 -92.5t-163.5 -34.5q-94 0 -176.5 35.5t-145 101.5t-99 167.5t-36.5 225.5q0 122 36.5 222.5t99 166
t144.5 101.5t175 36q182 0 292 -123v99h236v-1014zM604 1124q-76 0 -130 53t-54 130q0 75 54.5 127.5t129.5 52.5q78 0 131 -52.5t53 -127.5q0 -77 -54 -130t-130 -53zM604 1229q31 0 53.5 23t22.5 55t-22.5 53.5t-53.5 21.5t-53.5 -21.5t-22.5 -53.5t22.5 -55t53.5 -23z
M702 1573h-202v4l137 289h281v-4z" />
    <glyph glyph-name="gdotaccent.alt" horiz-adv-x="1202" 
d="M571 246q96 0 162.5 63.5t67.5 175.5v93q-1 107 -67 172t-163 65q-101 0 -168 -74.5t-67 -208.5q0 -135 67 -210.5t168 -75.5zM580 -416q-165 0 -290.5 66t-185.5 192l203 111q38 -78 107.5 -119t163.5 -41q106 0 164.5 60t58.5 174v98q-109 -102 -269 -102
q-91 0 -172 34.5t-142.5 98t-97.5 161t-36 215.5q0 230 129 368t317 138q178 0 285 -120v96h236v-994q0 -218 -133 -327t-338 -109zM580 1182q-62 0 -103 41t-41 104q0 61 42 102t102 41q62 0 102.5 -41t40.5 -102q0 -63 -40.5 -104t-102.5 -41z" />
    <glyph glyph-name="gcommaaccent.alt" horiz-adv-x="1202" 
d="M571 246q96 0 162.5 63.5t67.5 175.5v93q-1 107 -67 172t-163 65q-101 0 -168 -74.5t-67 -208.5q0 -135 67 -210.5t168 -75.5zM580 -416q-165 0 -290.5 66t-185.5 192l203 111q38 -78 107.5 -119t163.5 -41q106 0 164.5 60t58.5 174v98q-109 -102 -269 -102
q-91 0 -172 34.5t-142.5 98t-97.5 161t-36 215.5q0 230 129 368t317 138q178 0 285 -120v96h236v-994q0 -218 -133 -327t-338 -109zM551 1561h143l-69 -158q35 -13 62.5 -45t27.5 -78q0 -56 -40.5 -94.5t-92.5 -38.5q-56 0 -94.5 39t-38.5 94q0 53 45 158z" />
    <glyph glyph-name="gbreve.alt" horiz-adv-x="1202" 
d="M571 246q96 0 162.5 63.5t67.5 175.5v93q-1 107 -67 172t-163 65q-101 0 -168 -74.5t-67 -208.5q0 -135 67 -210.5t168 -75.5zM580 -416q-165 0 -290.5 66t-185.5 192l203 111q38 -78 107.5 -119t163.5 -41q106 0 164.5 60t58.5 174v98q-109 -102 -269 -102
q-91 0 -172 34.5t-142.5 98t-97.5 161t-36 215.5q0 230 129 368t317 138q178 0 285 -120v96h236v-994q0 -218 -133 -327t-338 -109zM580 1159q-126 0 -205.5 74.5t-83.5 200.5h168q0 -54 33 -86.5t88 -32.5t87.5 32.5t32.5 86.5h166q-4 -126 -84.5 -200.5t-201.5 -74.5z" />
    <glyph glyph-name="gcircumflex.alt" horiz-adv-x="1202" 
d="M571 246q96 0 162.5 63.5t67.5 175.5v93q-1 107 -67 172t-163 65q-101 0 -168 -74.5t-67 -208.5q0 -135 67 -210.5t168 -75.5zM580 -416q-165 0 -290.5 66t-185.5 192l203 111q38 -78 107.5 -119t163.5 -41q106 0 164.5 60t58.5 174v98q-109 -102 -269 -102
q-91 0 -172 34.5t-142.5 98t-97.5 161t-36 215.5q0 230 129 368t317 138q178 0 285 -120v96h236v-994q0 -218 -133 -327t-338 -109zM575 1288l-270 -147v186l277 162l272 -162v-186z" />
    <glyph glyph-name="jcircumflex.alt" horiz-adv-x="552" 
d="M29 -399l-27 217q72 8 111 48t39 128v1020h249v-1034q0 -359 -372 -379zM272 1288l-270 -147v186l277 162l272 -162v-186z" />
    <glyph glyph-name="zero.percent" horiz-adv-x="937" 
d="M469 -20q-162 0 -268 112q-109 115 -109 305q0 188 107.5 301t269.5 113q161 0 268 -113q109 -112 109 -301q0 -190 -109 -305q-106 -112 -268 -112zM469 172q75 0 120.5 60.5t45.5 164.5q0 103 -46.5 163.5t-119.5 60.5t-118.5 -60.5t-45.5 -163.5q0 -104 45.5 -164.5
t118.5 -60.5z" />
    <glyph glyph-name="germandbls.alt" horiz-adv-x="1271" 
d="M401 0h-249v1032q0 205 127 326q130 121 325 121q203 0 313.5 -104.5t110.5 -256.5q0 -62 -21.5 -112t-52 -81t-60.5 -57t-51.5 -53.5t-21.5 -56.5q0 -42 32 -70.5t116 -64.5q119 -51 173 -123.5t54 -182.5q-3 -141 -113 -235t-272 -94q-91 0 -176.5 29t-138.5 75
l106 174q92 -82 186 -82q67 0 112.5 35.5t45.5 91.5q0 51 -32.5 87.5t-108.5 66.5q-124 47 -177 99.5t-53 146.5q0 53 21.5 98.5t52.5 77.5t61.5 61.5t52 65.5t21.5 76q0 83 -51 130.5t-131 47.5q-89 0 -145 -62t-56 -174v-1032z" />
    <glyph glyph-name="acute.ss01" horiz-adv-x="751" 
d="M639 1526h-526v35l522 75h4v-110z" />
    <glyph glyph-name="grave.ss01" horiz-adv-x="751" 
d="M639 1526h-526v112h4l522 -77v-35z" />
    <glyph glyph-name="circumflex.ss01" horiz-adv-x="751" 
d="M375 1546l-262 -39v45l266 95l260 -95v-45z" />
    <glyph glyph-name="caron.ss01" horiz-adv-x="751" 
d="M377 1608l262 39v-45l-266 -95l-260 95v45z" />
    <glyph glyph-name="cedilla.ss01" horiz-adv-x="571" 
d="M256 -256h-143v106h118q61 0 87 20.5t32 66.5l109 -5q-11 -188 -203 -188z" />
    <glyph glyph-name="ogonek.ss01" horiz-adv-x="518" 
d="M399 -145v-101h-139q-76 0 -122 32t-46 93q0 76 64.5 116.5t187.5 63.5l62 -59q-99 0 -150 -26.5t-51 -65.5q0 -53 67 -53h127z" />
    <glyph glyph-name="breve.ss01" horiz-adv-x="729" 
d="M418 1520h-105q-42 0 -73 5t-60 18t-46 41t-21 69h86q13 -54 112 -54h107q51 0 78.5 11.5t33.5 42.5h86q-4 -41 -20.5 -69t-45.5 -41t-59.5 -18t-72.5 -5z" />
    <glyph glyph-name="dieresis.ss01" horiz-adv-x="851" 
d="M739 1526h-256v86h256v-86zM371 1526h-258v86h258v-86z" />
    <glyph glyph-name="dieresis.i.ss01" horiz-adv-x="694" 
d="M582 1526h-193v86h193v-86zM305 1526h-192v86h192v-86z" />
    <glyph glyph-name="hungarumlaut.ss01" horiz-adv-x="899" 
d="M786 1526h-282v37l278 73h4v-110zM395 1526h-282v37l278 73h4v-110z" />
    <glyph glyph-name="ring.ss01" horiz-adv-x="706" 
d="M463 1507h-219q-60 0 -95.5 26t-35.5 81q0 106 131 106h219q131 0 131 -106q0 -55 -35.5 -81t-95.5 -26zM236 1583h235q37 0 37 31t-37 31h-235q-17 0 -27 -8.5t-10 -22.5t10 -22.5t27 -8.5z" />
    <glyph glyph-name="tilde.ss01" horiz-adv-x="780" 
d="M197 1497l-84 12q4 121 110 121q14 0 42 -2.5t42 -3.5l219 -22q57 -3 60 47l82 -13q-4 -120 -111 -120q-13 0 -41.5 2.5t-42.5 3.5l-219 20q-29 2 -42.5 -8.5t-14.5 -36.5z" />
    <glyph glyph-name="macron.ss01" horiz-adv-x="718" 
d="M606 1526h-493v84h493v-84z" />
    <glyph glyph-name="dotaccent.ss01" horiz-adv-x="407" 
d="M205 1526q-35 0 -57.5 21t-22.5 52t22.5 52.5t57.5 21.5t57.5 -21.5t22.5 -52.5t-22.5 -52t-57.5 -21z" />
    <glyph glyph-name="commaaccent.ss01" horiz-adv-x="415" 
d="M244 -260h-131l51 158h139z" />
    <glyph glyph-name="Aacute.ss01" horiz-adv-x="1380" 
d="M688 1167h-4l-164 -493h332zM1352 0h-279l-155 444h-465l-154 -444h-270l510 1434h303zM954 1516h-526v34l522 76h4v-110z" />
    <glyph glyph-name="Acircumflex.ss01" horiz-adv-x="1380" 
d="M688 1167h-4l-164 -493h332zM1352 0h-279l-155 444h-465l-154 -444h-270l510 1434h303zM690 1536l-262 -39v45l266 94l260 -94v-45z" />
    <glyph glyph-name="Adieresis.ss01" horiz-adv-x="1380" 
d="M688 1167h-4l-164 -493h332zM1352 0h-279l-155 444h-465l-154 -444h-270l510 1434h303zM1004 1516h-256v86h256v-86zM635 1516h-258v86h258v-86z" />
    <glyph glyph-name="Agrave.ss01" horiz-adv-x="1380" 
d="M688 1167h-4l-164 -493h332zM1352 0h-279l-155 444h-465l-154 -444h-270l510 1434h303zM954 1516h-526v112h4l522 -78v-34z" />
    <glyph glyph-name="Atilde.ss01" horiz-adv-x="1380" 
d="M688 1167h-4l-164 -493h332zM1352 0h-279l-155 444h-465l-154 -444h-270l510 1434h303zM498 1487l-84 12q4 121 110 121q14 0 42 -2.5t42 -3.5l219 -23q57 -3 60 47l82 -12q-4 -121 -111 -121q-13 0 -41.5 2.5t-42.5 3.5l-219 21q-29 2 -42.5 -8.5t-14.5 -36.5z" />
    <glyph glyph-name="Aring.ss01" horiz-adv-x="1380" 
d="M688 1167h-4l-164 -493h332zM1352 0h-279l-155 444h-465l-154 -444h-270l510 1434h303zM801 1497h-219q-60 0 -95.5 26t-35.5 81q0 106 131 106h219q131 0 131 -106q0 -55 -35.5 -81t-95.5 -26zM573 1573h236q37 0 37 31q0 30 -37 30h-236q-36 0 -36 -30q0 -14 9.5 -22.5
t26.5 -8.5z" />
    <glyph glyph-name="Abreve.ss01" horiz-adv-x="1380" 
d="M688 1167h-4l-164 -493h332zM1352 0h-279l-155 444h-465l-154 -444h-270l510 1434h303zM743 1509h-104q-42 0 -73 5t-60.5 18t-46.5 41t-21 69h86q12 -53 113 -53h106q52 0 79.5 11.5t33.5 41.5h86q-4 -41 -20.5 -69t-46 -41t-60 -18t-72.5 -5z" />
    <glyph glyph-name="Amacron.ss01" horiz-adv-x="1380" 
d="M688 1167h-4l-164 -493h332zM1352 0h-279l-155 444h-465l-154 -444h-270l510 1434h303zM938 1516h-494v83h494v-83z" />
    <glyph glyph-name="Aogonek.ss01" horiz-adv-x="1380" 
d="M688 1167h-4l-164 -493h332zM1352 0h-279l-155 444h-465l-154 -444h-270l510 1434h303zM1346 -145v-101h-140q-76 0 -122 32t-46 93q0 76 64.5 116.5t187.5 63.5l62 -59q-99 0 -150 -26.5t-51 -65.5q0 -53 68 -53h127z" />
    <glyph glyph-name="Aringacute.ss01" horiz-adv-x="1380" 
d="M688 1167h-4l-164 -493h332zM1352 0h-279l-155 444h-465l-154 -444h-270l510 1434h303zM801 1497h-219q-60 0 -95.5 26t-35.5 81q0 106 131 106h219q131 0 131 -106q0 -55 -35.5 -81t-95.5 -26zM573 1573h236q37 0 37 31q0 30 -37 30h-236q-36 0 -36 -30q0 -14 9.5 -22.5
t26.5 -8.5zM954 1782h-526v35l522 75h4v-110z" />
    <glyph glyph-name="AEacute.ss01" horiz-adv-x="1910" 
d="M868 1202h-28l-230 -497h283zM1821 0h-891l-25 483h-395l-223 -483h-279l676 1434h1126v-232h-688l17 -293h622v-229h-612l25 -449h647v-231zM1499 1505h-526v35l522 76h4v-111z" />
    <glyph glyph-name="Ccaron.ss01" horiz-adv-x="1462" 
d="M766 -23q-140 0 -263.5 52.5t-215.5 147.5t-145.5 236.5t-53.5 309.5q0 162 53.5 300.5t145.5 233t216 148t263 53.5q233 0 393.5 -114t220.5 -326l-254 -64q-27 101 -116 181q-85 79 -244 79q-176 0 -293 -138.5t-117 -352.5q0 -224 117 -363t295 -139q152 0 252.5 93.5
t126.5 232.5l256 -49q-27 -161 -118.5 -280.5t-225.5 -180t-293 -60.5zM768 1597l262 39v-45l-266 -94l-260 94v45z" />
    <glyph glyph-name="Ccedilla.ss01" horiz-adv-x="1462" 
d="M766 -23q-140 0 -263.5 52.5t-215.5 147.5t-145.5 236.5t-53.5 309.5q0 162 53.5 300.5t145.5 233t216 148t263 53.5q233 0 393.5 -114t220.5 -326l-254 -64q-27 101 -116 181q-85 79 -244 79q-176 0 -293 -138.5t-117 -352.5q0 -224 117 -363t295 -139q152 0 252.5 93.5
t126.5 232.5l256 -49q-27 -161 -118.5 -280.5t-225.5 -180t-293 -60.5zM680 -256h-143v106h118q61 0 87 20.5t32 66.5l109 -5q-11 -188 -203 -188z" />
    <glyph glyph-name="Cacute.ss01" horiz-adv-x="1462" 
d="M766 -23q-140 0 -263.5 52.5t-215.5 147.5t-145.5 236.5t-53.5 309.5q0 162 53.5 300.5t145.5 233t216 148t263 53.5q233 0 393.5 -114t220.5 -326l-254 -64q-27 101 -116 181q-85 79 -244 79q-176 0 -293 -138.5t-117 -352.5q0 -224 117 -363t295 -139q152 0 252.5 93.5
t126.5 232.5l256 -49q-27 -161 -118.5 -280.5t-225.5 -180t-293 -60.5zM1030 1516h-526v34l522 76h4v-110z" />
    <glyph glyph-name="Ccircumflex.ss01" horiz-adv-x="1462" 
d="M766 -23q-140 0 -263.5 52.5t-215.5 147.5t-145.5 236.5t-53.5 309.5q0 162 53.5 300.5t145.5 233t216 148t263 53.5q233 0 393.5 -114t220.5 -326l-254 -64q-27 101 -116 181q-85 79 -244 79q-176 0 -293 -138.5t-117 -352.5q0 -224 117 -363t295 -139q152 0 252.5 93.5
t126.5 232.5l256 -49q-27 -161 -118.5 -280.5t-225.5 -180t-293 -60.5zM766 1536l-262 -39v45l266 94l260 -94v-45z" />
    <glyph glyph-name="Cdotaccent.ss01" horiz-adv-x="1462" 
d="M766 -23q-140 0 -263.5 52.5t-215.5 147.5t-145.5 236.5t-53.5 309.5q0 162 53.5 300.5t145.5 233t216 148t263 53.5q233 0 393.5 -114t220.5 -326l-254 -64q-27 101 -116 181q-85 79 -244 79q-176 0 -293 -138.5t-117 -352.5q0 -224 117 -363t295 -139q152 0 252.5 93.5
t126.5 232.5l256 -49q-27 -161 -118.5 -280.5t-225.5 -180t-293 -60.5zM768 1516q-35 0 -57.5 21t-22.5 52t22.5 52.5t57.5 21.5t57.5 -21.5t22.5 -52.5t-22.5 -52t-57.5 -21z" />
    <glyph glyph-name="Dcaron.ss01" horiz-adv-x="1421" 
d="M662 0h-498v1434h495q133 0 254 -47t215.5 -133.5t150.5 -222t56 -300.5q0 -173 -55.5 -314t-149.5 -230.5t-214 -138t-254 -48.5zM426 1202v-971h227q179 0 295.5 136t116.5 364q0 212 -120 341.5t-298 129.5h-221zM643 1597l262 39v-45l-266 -94l-260 94v45z" />
    <glyph glyph-name="Ecircumflex.ss01" horiz-adv-x="1228" 
d="M424 231h715v-231h-975v1434h966v-232h-706v-293h655v-231h-655v-447zM651 1536l-262 -39v45l266 94l260 -94v-45z" />
    <glyph glyph-name="Eacute.ss01" horiz-adv-x="1228" 
d="M424 231h715v-231h-975v1434h966v-232h-706v-293h655v-231h-655v-447zM915 1516h-526v34l522 76h4v-110z" />
    <glyph glyph-name="Edieresis.ss01" horiz-adv-x="1228" 
d="M424 231h715v-231h-975v1434h966v-232h-706v-293h655v-231h-655v-447zM967 1516h-256v86h256v-86zM598 1516h-258v86h258v-86z" />
    <glyph glyph-name="Egrave.ss01" horiz-adv-x="1228" 
d="M424 231h715v-231h-975v1434h966v-232h-706v-293h655v-231h-655v-447zM915 1516h-526v112h4l522 -78v-34z" />
    <glyph glyph-name="Ebreve.ss01" horiz-adv-x="1228" 
d="M424 231h715v-231h-975v1434h966v-232h-706v-293h655v-231h-655v-447zM707 1509h-105q-42 0 -73 5t-60.5 18t-46.5 41t-21 69h86q12 -53 113 -53h107q51 0 78.5 11.5t33.5 41.5h86q-4 -41 -20.5 -69t-45.5 -41t-59.5 -18t-72.5 -5z" />
    <glyph glyph-name="Edotaccent.ss01" horiz-adv-x="1228" 
d="M424 231h715v-231h-975v1434h966v-232h-706v-293h655v-231h-655v-447zM653 1516q-35 0 -57.5 21t-22.5 52t22.5 52.5t57.5 21.5t57.5 -21.5t22.5 -52.5t-22.5 -52t-57.5 -21z" />
    <glyph glyph-name="Ecaron.ss01" horiz-adv-x="1228" 
d="M424 231h715v-231h-975v1434h966v-232h-706v-293h655v-231h-655v-447zM653 1597l262 39v-45l-266 -94l-260 94v45z" />
    <glyph glyph-name="Eogonek.ss01" horiz-adv-x="1228" 
d="M424 231h715v-231h-975v1434h966v-232h-706v-293h655v-231h-655v-447zM1133 -145v-101h-140q-76 0 -122 32t-46 93q0 76 64.5 116.5t187.5 63.5l62 -59q-99 0 -150 -26.5t-51 -65.5q0 -53 68 -53h127z" />
    <glyph glyph-name="Emacron.ss01" horiz-adv-x="1228" 
d="M424 231h715v-231h-975v1434h966v-232h-706v-293h655v-231h-655v-447zM899 1516h-493v83h493v-83z" />
    <glyph glyph-name="Gdotaccent.ss01" horiz-adv-x="1519" 
d="M1432 719v-70q0 -161 -54 -291t-145.5 -212t-208.5 -125.5t-248 -43.5q-143 0 -269 52.5t-219 147t-146.5 235.5t-53.5 309q0 165 53 304t145.5 233.5t218 147t269.5 52.5q227 0 393 -106q169 -108 234 -314l-250 -75q-27 95 -127 172q-98 79 -250 79q-180 0 -299 -137
t-119 -356q0 -228 119 -365t301 -137q147 0 249.5 73t131.5 197h-358v230h633zM776 1516q-35 0 -57.5 21t-22.5 52t22.5 52.5t57.5 21.5t57.5 -21.5t22.5 -52.5t-22.5 -52t-57.5 -21z" />
    <glyph glyph-name="Gbreve.ss01" horiz-adv-x="1519" 
d="M1432 719v-70q0 -161 -54 -291t-145.5 -212t-208.5 -125.5t-248 -43.5q-143 0 -269 52.5t-219 147t-146.5 235.5t-53.5 309q0 165 53 304t145.5 233.5t218 147t269.5 52.5q227 0 393 -106q169 -108 234 -314l-250 -75q-27 95 -127 172q-98 79 -250 79q-180 0 -299 -137
t-119 -356q0 -228 119 -365t301 -137q147 0 249.5 73t131.5 197h-358v230h633zM827 1509h-104q-42 0 -73 5t-60.5 18t-46.5 41t-21 69h86q12 -53 113 -53h106q52 0 79.5 11.5t33.5 41.5h86q-4 -41 -20.5 -69t-46 -41t-60 -18t-72.5 -5z" />
    <glyph glyph-name="Gcircumflex.ss01" horiz-adv-x="1519" 
d="M1432 719v-70q0 -161 -54 -291t-145.5 -212t-208.5 -125.5t-248 -43.5q-143 0 -269 52.5t-219 147t-146.5 235.5t-53.5 309q0 165 53 304t145.5 233.5t218 147t269.5 52.5q227 0 393 -106q169 -108 234 -314l-250 -75q-27 95 -127 172q-98 79 -250 79q-180 0 -299 -137
t-119 -356q0 -228 119 -365t301 -137q147 0 249.5 73t131.5 197h-358v230h633zM774 1536l-262 -39v45l266 94l260 -94v-45z" />
    <glyph glyph-name="Gcommaaccent.ss01" horiz-adv-x="1519" 
d="M1432 719v-70q0 -161 -54 -291t-145.5 -212t-208.5 -125.5t-248 -43.5q-143 0 -269 52.5t-219 147t-146.5 235.5t-53.5 309q0 165 53 304t145.5 233.5t218 147t269.5 52.5q227 0 393 -106q169 -108 234 -314l-250 -75q-27 95 -127 172q-98 79 -250 79q-180 0 -299 -137
t-119 -356q0 -228 119 -365t301 -137q147 0 249.5 73t131.5 197h-358v230h633zM797 -260h-131l51 158h139z" />
    <glyph glyph-name="Hcircumflex.ss01" horiz-adv-x="1515" 
d="M1352 0h-262v727h-664v-727h-262v1434h262v-476h664v476h262v-1434zM756 1536l-262 -39v45l266 94l260 -94v-45z" />
    <glyph glyph-name="Iacute.ss01" 
d="M426 0h-262v1434h262v-1434zM557 1516h-526v34l522 76h4v-110z" />
    <glyph glyph-name="Idieresis.ss01" 
d="M426 0h-262v1434h262v-1434zM528 1516h-192v86h192v-86zM252 1516h-193v86h193v-86z" />
    <glyph glyph-name="Icircumflex.ss01" 
d="M426 0h-262v1434h262v-1434zM293 1536l-262 -39v45l266 94l260 -94v-45z" />
    <glyph glyph-name="Igrave.ss01" 
d="M426 0h-262v1434h262v-1434zM557 1516h-526v112h4l522 -78v-34z" />
    <glyph glyph-name="Ibreve.ss01" 
d="M426 0h-262v1434h262v-1434zM348 1509h-104q-42 0 -73 5t-60.5 18t-46.5 41t-21 69h86q12 -53 113 -53h106q52 0 79.5 11.5t33.5 41.5h86q-4 -41 -20.5 -69t-46 -41t-60 -18t-72.5 -5z" />
    <glyph glyph-name="Itilde.ss01" 
d="M426 0h-262v1434h262v-1434zM100 1487l-84 12q4 121 111 121q14 0 42 -2.5t42 -3.5l219 -23q56 -3 59 47l82 -12q-4 -121 -110 -121q-13 0 -41.5 2.5t-42.5 3.5l-219 21q-30 2 -43.5 -8.5t-14.5 -36.5z" />
    <glyph glyph-name="Idotaccent.ss01" 
d="M426 0h-262v1434h262v-1434zM557 1516h-526v34l522 76h4v-110z" />
    <glyph glyph-name="Icaron.ss01" 
d="M426 0h-262v1434h262v-1434zM295 1597l262 39v-45l-266 -94l-260 94v45z" />
    <glyph glyph-name="Iogonek.ss01" 
d="M426 0h-262v1434h262v-1434zM420 -145v-101h-139q-76 0 -122 32t-46 93q0 76 64.5 116.5t187.5 63.5l61 -59q-99 0 -150 -26.5t-51 -65.5q0 -53 68 -53h127z" />
    <glyph glyph-name="Imacron.ss01" 
d="M426 0h-262v1434h262v-1434zM541 1516h-494v83h494v-83z" />
    <glyph glyph-name="Jcircumflex.ss01" horiz-adv-x="1089" 
d="M481 -20q-194 0 -316.5 107.5t-148.5 311.5l252 45q28 -221 215 -221q86 0 139.5 58t53.5 170v983h262v-983q0 -227 -126.5 -349t-330.5 -122zM809 1536l-262 -39v45l266 94l260 -94v-45z" />
    <glyph glyph-name="Kcommaaccent.ss01" horiz-adv-x="1353" 
d="M1341 0h-307l-440 776l-170 -164v-612h-260v1434h260v-519l543 519h346l-516 -480zM713 -260h-131l51 158h139z" />
    <glyph glyph-name="Lacute.ss01" horiz-adv-x="1101" 
d="M1059 0h-895v1434h262v-1203h633v-231zM557 1516h-526v34l522 76h4v-110z" />
    <glyph glyph-name="Lcommaaccent.ss01" horiz-adv-x="1101" 
d="M1059 0h-895v1434h262v-1203h633v-231zM643 -260h-131l51 158h139z" />
    <glyph glyph-name="Nacute.ss01" horiz-adv-x="1505" 
d="M1341 0h-251l-670 983v-983h-256v1434h252l669 -990v990h256v-1434zM1016 1516h-527v34l523 76h4v-110z" />
    <glyph glyph-name="Ntilde.ss01" horiz-adv-x="1505" 
d="M1341 0h-251l-670 983v-983h-256v1434h252l669 -990v990h256v-1434zM559 1487l-84 12q4 121 111 121q14 0 42 -2.5t42 -3.5l219 -23q56 -3 59 47l82 -12q-4 -121 -110 -121q-13 0 -41.5 2.5t-42.5 3.5l-220 21q-29 2 -42.5 -8.5t-14.5 -36.5z" />
    <glyph glyph-name="Ncommaaccent.ss01" horiz-adv-x="1505" 
d="M1341 0h-251l-670 983v-983h-256v1434h252l669 -990v990h256v-1434zM774 -260h-131l51 158h140z" />
    <glyph glyph-name="Ncaron.ss01" horiz-adv-x="1505" 
d="M1341 0h-251l-670 983v-983h-256v1434h252l669 -990v990h256v-1434zM754 1597l262 39v-45l-266 -94l-261 94v45z" />
    <glyph glyph-name="Eng.ss01" horiz-adv-x="1505" 
d="M1024 -264q-81 0 -150.5 29t-111.5 83l147 156q39 -51 95 -51q35 0 58 24t23 72v35l-665 909v-993h-256v1434h252l669 -920v920h256v-1381q0 -173 -94 -243q-95 -74 -223 -74z" />
    <glyph glyph-name="Oacute.ss01" horiz-adv-x="1556" 
d="M778 -23q-142 0 -268 52t-220 146.5t-149 235.5t-55 310q0 164 54 303t147.5 233.5t220 147.5t270.5 53t270.5 -52.5t220 -147t147.5 -233.5t54 -304q0 -168 -55 -309t-149 -235.5t-220 -147t-268 -52.5zM778 221q184 0 303 138.5t119 361.5q0 217 -119.5 355t-302.5 138
t-302.5 -138t-119.5 -355q0 -221 120.5 -360.5t301.5 -139.5zM1042 1516h-526v34l522 76h4v-110z" />
    <glyph glyph-name="Ocircumflex.ss01" horiz-adv-x="1556" 
d="M778 -23q-142 0 -268 52t-220 146.5t-149 235.5t-55 310q0 164 54 303t147.5 233.5t220 147.5t270.5 53t270.5 -52.5t220 -147t147.5 -233.5t54 -304q0 -168 -55 -309t-149 -235.5t-220 -147t-268 -52.5zM778 221q184 0 303 138.5t119 361.5q0 217 -119.5 355t-302.5 138
t-302.5 -138t-119.5 -355q0 -221 120.5 -360.5t301.5 -139.5zM778 1536l-262 -39v45l266 94l260 -94v-45z" />
    <glyph glyph-name="Odieresis.ss01" horiz-adv-x="1556" 
d="M778 -23q-142 0 -268 52t-220 146.5t-149 235.5t-55 310q0 164 54 303t147.5 233.5t220 147.5t270.5 53t270.5 -52.5t220 -147t147.5 -233.5t54 -304q0 -168 -55 -309t-149 -235.5t-220 -147t-268 -52.5zM778 221q184 0 303 138.5t119 361.5q0 217 -119.5 355t-302.5 138
t-302.5 -138t-119.5 -355q0 -221 120.5 -360.5t301.5 -139.5zM1092 1516h-256v86h256v-86zM723 1516h-258v86h258v-86z" />
    <glyph glyph-name="Ohungarumlaut.ss01" horiz-adv-x="1556" 
d="M778 -23q-142 0 -268 52t-220 146.5t-149 235.5t-55 310q0 164 54 303t147.5 233.5t220 147.5t270.5 53t270.5 -52.5t220 -147t147.5 -233.5t54 -304q0 -168 -55 -309t-149 -235.5t-220 -147t-268 -52.5zM778 221q184 0 303 138.5t119 361.5q0 217 -119.5 355t-302.5 138
t-302.5 -138t-119.5 -355q0 -221 120.5 -360.5t301.5 -139.5zM1116 1516h-282v36l278 74h4v-110zM725 1516h-283v36l279 74h4v-110z" />
    <glyph glyph-name="Ograve.ss01" horiz-adv-x="1556" 
d="M778 -23q-142 0 -268 52t-220 146.5t-149 235.5t-55 310q0 164 54 303t147.5 233.5t220 147.5t270.5 53t270.5 -52.5t220 -147t147.5 -233.5t54 -304q0 -168 -55 -309t-149 -235.5t-220 -147t-268 -52.5zM778 221q184 0 303 138.5t119 361.5q0 217 -119.5 355t-302.5 138
t-302.5 -138t-119.5 -355q0 -221 120.5 -360.5t301.5 -139.5zM1042 1516h-526v112h4l522 -78v-34z" />
    <glyph glyph-name="Otilde.ss01" horiz-adv-x="1556" 
d="M778 -23q-142 0 -268 52t-220 146.5t-149 235.5t-55 310q0 164 54 303t147.5 233.5t220 147.5t270.5 53t270.5 -52.5t220 -147t147.5 -233.5t54 -304q0 -168 -55 -309t-149 -235.5t-220 -147t-268 -52.5zM778 221q184 0 303 138.5t119 361.5q0 217 -119.5 355t-302.5 138
t-302.5 -138t-119.5 -355q0 -221 120.5 -360.5t301.5 -139.5zM586 1487l-84 12q4 121 110 121q14 0 42 -2.5t42 -3.5l219 -23q57 -3 60 47l82 -12q-4 -121 -111 -121q-13 0 -41.5 2.5t-42.5 3.5l-219 21q-29 2 -42.5 -8.5t-14.5 -36.5z" />
    <glyph glyph-name="Omacron.ss01" horiz-adv-x="1556" 
d="M778 -23q-142 0 -268 52t-220 146.5t-149 235.5t-55 310q0 164 54 303t147.5 233.5t220 147.5t270.5 53t270.5 -52.5t220 -147t147.5 -233.5t54 -304q0 -168 -55 -309t-149 -235.5t-220 -147t-268 -52.5zM778 221q184 0 303 138.5t119 361.5q0 217 -119.5 355t-302.5 138
t-302.5 -138t-119.5 -355q0 -221 120.5 -360.5t301.5 -139.5zM1026 1516h-494v83h494v-83z" />
    <glyph glyph-name="Obreve.ss01" horiz-adv-x="1556" 
d="M778 -23q-142 0 -268 52t-220 146.5t-149 235.5t-55 310q0 164 54 303t147.5 233.5t220 147.5t270.5 53t270.5 -52.5t220 -147t147.5 -233.5t54 -304q0 -168 -55 -309t-149 -235.5t-220 -147t-268 -52.5zM778 221q184 0 303 138.5t119 361.5q0 217 -119.5 355t-302.5 138
t-302.5 -138t-119.5 -355q0 -221 120.5 -360.5t301.5 -139.5zM831 1509h-104q-42 0 -73 5t-60.5 18t-46.5 41t-21 69h86q12 -53 113 -53h106q52 0 79.5 11.5t33.5 41.5h86q-4 -41 -20.5 -69t-46 -41t-60 -18t-72.5 -5z" />
    <glyph glyph-name="Oslashacute.ss01" horiz-adv-x="1556" 
d="M356 721q0 -193 99 -334l514 780q-83 47 -191 47q-183 0 -302.5 -138t-119.5 -355zM778 221q184 0 303 138.5t119 361.5q0 188 -98 328l-514 -781q86 -47 190 -47zM778 -23q-175 0 -329 80l-105 -159h-211l172 262q-103 100 -161 243.5t-58 317.5q0 164 54 303
t147.5 233.5t220 147.5t270.5 53q179 0 330 -80l104 158h211l-172 -260q103 -100 161 -241.5t58 -313.5q0 -168 -55 -309t-149 -235.5t-220 -147t-268 -52.5zM1020 1516h-526v34l522 76h4v-110z" />
    <glyph glyph-name="Rcommaaccent.ss01" horiz-adv-x="1308" 
d="M723 1202h-301v-352h305q88 0 141.5 47t53.5 133q0 78 -56.5 125t-142.5 47zM1288 0h-301l-352 623h-213v-623h-258v1434h584q189 0 315.5 -109.5t126.5 -288.5q0 -171 -113 -284q-66 -72 -168 -101zM694 -260h-131l51 158h140z" />
    <glyph glyph-name="Rcaron.ss01" horiz-adv-x="1308" 
d="M723 1202h-301v-352h305q88 0 141.5 47t53.5 133q0 78 -56.5 125t-142.5 47zM1288 0h-301l-352 623h-213v-623h-258v1434h584q189 0 315.5 -109.5t126.5 -288.5q0 -171 -113 -284q-66 -72 -168 -101zM594 1597l262 39v-45l-266 -94l-260 94v45z" />
    <glyph glyph-name="Racute.ss01" horiz-adv-x="1308" 
d="M723 1202h-301v-352h305q88 0 141.5 47t53.5 133q0 78 -56.5 125t-142.5 47zM1288 0h-301l-352 623h-213v-623h-258v1434h584q189 0 315.5 -109.5t126.5 -288.5q0 -171 -113 -284q-66 -72 -168 -101zM856 1516h-526v34l522 76h4v-110z" />
    <glyph glyph-name="Scaron.ss01" horiz-adv-x="1245" 
d="M627 -23q-242 0 -395.5 131t-165.5 386l256 22q7 -157 92 -239t215 -82q111 0 188 51q80 53 80 147q0 84 -69.5 136.5t-219.5 97.5l-135 41q-182 56 -265 150.5t-83 234.5q0 175 139 290t361 115q227 0 366 -112q141 -114 144 -297v-21l-254 -24v14q-1 76 -36.5 128
t-91.5 74.5t-128 22.5q-108 0 -175 -49t-67 -127q0 -64 49 -104t176 -78l148 -43q207 -60 305 -164t98 -262q0 -195 -148.5 -317t-383.5 -122zM631 1597l262 39v-45l-266 -94l-260 94v45z" />
    <glyph glyph-name="Scedilla.ss01" horiz-adv-x="1245" 
d="M627 -23q-242 0 -395.5 131t-165.5 386l256 22q7 -157 92 -239t215 -82q111 0 188 51q80 53 80 147q0 84 -69.5 136.5t-219.5 97.5l-135 41q-182 56 -265 150.5t-83 234.5q0 175 139 290t361 115q227 0 366 -112q141 -114 144 -297v-21l-254 -24v14q-1 76 -36.5 128
t-91.5 74.5t-128 22.5q-108 0 -175 -49t-67 -127q0 -64 49 -104t176 -78l148 -43q207 -60 305 -164t98 -262q0 -195 -148.5 -317t-383.5 -122zM545 -256h-144v106h119q61 0 87 20.5t32 66.5l109 -5q-11 -188 -203 -188z" />
    <glyph glyph-name="Scircumflex.ss01" horiz-adv-x="1245" 
d="M627 -23q-242 0 -395.5 131t-165.5 386l256 22q7 -157 92 -239t215 -82q111 0 188 51q80 53 80 147q0 84 -69.5 136.5t-219.5 97.5l-135 41q-182 56 -265 150.5t-83 234.5q0 175 139 290t361 115q227 0 366 -112q141 -114 144 -297v-21l-254 -24v14q-1 76 -36.5 128
t-91.5 74.5t-128 22.5q-108 0 -175 -49t-67 -127q0 -64 49 -104t176 -78l148 -43q207 -60 305 -164t98 -262q0 -195 -148.5 -317t-383.5 -122zM629 1536l-262 -39v45l266 94l260 -94v-45z" />
    <glyph glyph-name="Scommaaccent.ss01" horiz-adv-x="1245" 
d="M627 -23q-242 0 -395.5 131t-165.5 386l256 22q7 -157 92 -239t215 -82q111 0 188 51q80 53 80 147q0 84 -69.5 136.5t-219.5 97.5l-135 41q-182 56 -265 150.5t-83 234.5q0 175 139 290t361 115q227 0 366 -112q141 -114 144 -297v-21l-254 -24v14q-1 76 -36.5 128
t-91.5 74.5t-128 22.5q-108 0 -175 -49t-67 -127q0 -64 49 -104t176 -78l148 -43q207 -60 305 -164t98 -262q0 -195 -148.5 -317t-383.5 -122zM651 -260h-131l51 158h140z" />
    <glyph glyph-name="Sacute.ss01" horiz-adv-x="1245" 
d="M627 -23q-242 0 -395.5 131t-165.5 386l256 22q7 -157 92 -239t215 -82q111 0 188 51q80 53 80 147q0 84 -69.5 136.5t-219.5 97.5l-135 41q-182 56 -265 150.5t-83 234.5q0 175 139 290t361 115q227 0 366 -112q141 -114 144 -297v-21l-254 -24v14q-1 76 -36.5 128
t-91.5 74.5t-128 22.5q-108 0 -175 -49t-67 -127q0 -64 49 -104t176 -78l148 -43q207 -60 305 -164t98 -262q0 -195 -148.5 -317t-383.5 -122zM893 1516h-526v34l522 76h4v-110z" />
    <glyph glyph-name="Tcaron.ss01" horiz-adv-x="1202" 
d="M1161 1434v-232h-430v-1202h-260v1202h-430v232h1120zM602 1597l262 39v-45l-266 -94l-260 94v45z" />
    <glyph glyph-name="Tcommaaccent.ss01" horiz-adv-x="1202" 
d="M1161 1434v-232h-430v-1202h-260v1202h-430v232h1120zM621 -260h-132l52 158h139z" />
    <glyph glyph-name="Uacute.ss01" horiz-adv-x="1419" 
d="M709 -23q-257 0 -409.5 145t-152.5 417v895h263v-885q0 -152 82.5 -240t218.5 -88q138 0 218.5 86.5t80.5 239.5v887h262v-893q0 -269 -153 -416.5t-410 -147.5zM973 1516h-527v34l523 76h4v-110z" />
    <glyph glyph-name="Ucircumflex.ss01" horiz-adv-x="1419" 
d="M709 -23q-257 0 -409.5 145t-152.5 417v895h263v-885q0 -152 82.5 -240t218.5 -88q138 0 218.5 86.5t80.5 239.5v887h262v-893q0 -269 -153 -416.5t-410 -147.5zM709 1536l-263 -39v45l267 94l260 -94v-45z" />
    <glyph glyph-name="Udieresis.ss01" horiz-adv-x="1419" 
d="M709 -23q-257 0 -409.5 145t-152.5 417v895h263v-885q0 -152 82.5 -240t218.5 -88q138 0 218.5 86.5t80.5 239.5v887h262v-893q0 -269 -153 -416.5t-410 -147.5zM1024 1516h-256v86h256v-86zM655 1516h-258v86h258v-86z" />
    <glyph glyph-name="Ugrave.ss01" horiz-adv-x="1419" 
d="M709 -23q-257 0 -409.5 145t-152.5 417v895h263v-885q0 -152 82.5 -240t218.5 -88q138 0 218.5 86.5t80.5 239.5v887h262v-893q0 -269 -153 -416.5t-410 -147.5zM973 1516h-527v112h5l522 -78v-34z" />
    <glyph glyph-name="Uhungarumlaut.ss01" horiz-adv-x="1419" 
d="M709 -23q-257 0 -409.5 145t-152.5 417v895h263v-885q0 -152 82.5 -240t218.5 -88q138 0 218.5 86.5t80.5 239.5v887h262v-893q0 -269 -153 -416.5t-410 -147.5zM1047 1516h-283v36l278 74h5v-110zM655 1516h-282v36l278 74h4v-110z" />
    <glyph glyph-name="Uring.ss01" horiz-adv-x="1419" 
d="M709 -23q-257 0 -409.5 145t-152.5 417v895h263v-885q0 -152 82.5 -240t218.5 -88q138 0 218.5 86.5t80.5 239.5v887h262v-893q0 -269 -153 -416.5t-410 -147.5zM819 1497h-219q-60 0 -95.5 26t-35.5 81q0 106 131 106h219q131 0 131 -106q0 -55 -35.5 -81t-95.5 -26z
M592 1573h235q37 0 37 31q0 30 -37 30h-235q-37 0 -37 -30q0 -14 10 -22.5t27 -8.5z" />
    <glyph glyph-name="Umacron.ss01" horiz-adv-x="1419" 
d="M709 -23q-257 0 -409.5 145t-152.5 417v895h263v-885q0 -152 82.5 -240t218.5 -88q138 0 218.5 86.5t80.5 239.5v887h262v-893q0 -269 -153 -416.5t-410 -147.5zM956 1516h-493v83h493v-83z" />
    <glyph glyph-name="Ubreve.ss01" horiz-adv-x="1419" 
d="M709 -23q-257 0 -409.5 145t-152.5 417v895h263v-885q0 -152 82.5 -240t218.5 -88q138 0 218.5 86.5t80.5 239.5v887h262v-893q0 -269 -153 -416.5t-410 -147.5zM764 1509h-105q-42 0 -73 5t-60 18t-46 41t-21 69h86q12 -53 112 -53h107q52 0 79.5 11.5t33.5 41.5h86
q-4 -41 -20.5 -69t-46 -41t-60 -18t-72.5 -5z" />
    <glyph glyph-name="Utilde.ss01" horiz-adv-x="1419" 
d="M709 -23q-257 0 -409.5 145t-152.5 417v895h263v-885q0 -152 82.5 -240t218.5 -88q138 0 218.5 86.5t80.5 239.5v887h262v-893q0 -269 -153 -416.5t-410 -147.5zM516 1487l-84 12q4 121 111 121q14 0 42 -2.5t42 -3.5l219 -23q56 -3 59 47l82 -12q-4 -121 -110 -121
q-13 0 -41.5 2.5t-42.5 3.5l-220 21q-29 2 -42.5 -8.5t-14.5 -36.5z" />
    <glyph glyph-name="Uogonek.ss01" horiz-adv-x="1419" 
d="M979 -145v-101h-148q-83 0 -128.5 34.5t-45.5 102.5q0 46 31 86q-240 6 -391 148q-150 144 -150 414v895h263v-885q0 -152 82.5 -240t218.5 -88q138 0 218.5 86.5t80.5 239.5v887h262v-893q0 -219 -105 -360t-288 -185q-57 -15 -84 -33.5t-27 -52.5q0 -55 72 -55h139z
" />
    <glyph glyph-name="Wdieresis.ss01" horiz-adv-x="1802" 
d="M1432 0h-256l-275 733l-274 -733h-256l-332 1434h264l236 -1065l284 766h166l283 -766l237 1065h254zM1214 1509h-256v86h256v-86zM846 1509h-258v86h258v-86z" />
    <glyph glyph-name="Wacute.ss01" horiz-adv-x="1802" 
d="M1432 0h-256l-275 733l-274 -733h-256l-332 1434h264l236 -1065l284 766h166l283 -766l237 1065h254zM1165 1509h-526v35l522 76h4v-111z" />
    <glyph glyph-name="Wgrave.ss01" horiz-adv-x="1802" 
d="M1432 0h-256l-275 733l-274 -733h-256l-332 1434h264l236 -1065l284 766h166l283 -766l237 1065h254zM1165 1509h-526v113h4l522 -78v-35z" />
    <glyph glyph-name="Wcircumflex.ss01" horiz-adv-x="1802" 
d="M1432 0h-256l-275 733l-274 -733h-256l-332 1434h264l236 -1065l284 766h166l283 -766l237 1065h254zM901 1530l-262 -39v45l266 94l260 -94v-45z" />
    <glyph glyph-name="Yacute.ss01" horiz-adv-x="1208" 
d="M735 727v-727h-262v729l-465 705h307l297 -465l297 465h291zM868 1509h-526v35l522 76h4v-111z" />
    <glyph glyph-name="Ydieresis.ss01" horiz-adv-x="1208" 
d="M735 727v-727h-262v729l-465 705h307l297 -465l297 465h291zM918 1509h-256v86h256v-86zM549 1509h-258v86h258v-86z" />
    <glyph glyph-name="Ygrave.ss01" horiz-adv-x="1208" 
d="M735 727v-727h-262v729l-465 705h307l297 -465l297 465h291zM868 1509h-526v113h4l522 -78v-35z" />
    <glyph glyph-name="Ycircumflex.ss01" horiz-adv-x="1208" 
d="M735 727v-727h-262v729l-465 705h307l297 -465l297 465h291zM604 1530l-262 -39v45l266 94l260 -94v-45z" />
    <glyph glyph-name="Zcaron.ss01" horiz-adv-x="1198" 
d="M1135 231v-231h-1078v176l731 1026h-694v232h1028v-174l-729 -1029h742zM592 1597l262 39v-45l-266 -94l-260 94v45z" />
    <glyph glyph-name="Zdotaccent.ss01" horiz-adv-x="1198" 
d="M1135 231v-231h-1078v176l731 1026h-694v232h1028v-174l-729 -1029h742zM592 1516q-35 0 -57.5 21t-22.5 52t22.5 52.5t57.5 21.5t57.5 -21.5t22.5 -52.5t-22.5 -52t-57.5 -21z" />
    <glyph glyph-name="Zacute.ss01" horiz-adv-x="1198" 
d="M1135 231v-231h-1078v176l731 1026h-694v232h1028v-174l-729 -1029h742zM854 1516h-526v34l522 76h4v-110z" />
    </font>
</defs>
</svg>
