<?xml version="1.0" standalone="no"?>
<!DOCTYPE svg PUBLIC "-//W3C//DTD SVG 1.1//EN" "http://www.w3.org/Graphics/SVG/1.1/DTD/svg11.dtd" >
<svg xmlns="http://www.w3.org/2000/svg" xmlns:xlink="http://www.w3.org/1999/xlink" version="1.1">
<metadata>
Created by FontForge 20170731 at Wed May 12 14:46:36 2021
 By Aleksey,,,
Copyright (c) 2016 by Fatype. All rights reserved.
</metadata>
<defs>
<font id="BatonTurbo-Heavy" horiz-adv-x="577" >
  <font-face 
    font-family="Baton Turbo"
    font-weight="900"
    font-stretch="normal"
    units-per-em="2048"
    panose-1="2 11 9 3 3 2 2 6 2 3"
    ascent="1536"
    descent="-512"
    x-height="1024"
    cap-height="1434"
    bbox="-307 -602 2939 2277"
    underline-thickness="0"
    underline-position="0"
    unicode-range="U+000D-FB04"
  />
<missing-glyph horiz-adv-x="1126" 
d="M1024 0h-922v1434h922v-1434zM205 1331v-1229h717v1229h-717z" />
    <glyph glyph-name="ff" unicode="ff" horiz-adv-x="1417" 
d="M1176 0h-330v752h-326v-752h-330v752h-149v272h149v70q0 203 111 299q43 41 110 62.5t140 21.5q131 0 229 -43l-86 -252q-46 24 -86 24q-88 0 -88 -96v-86h326v76q0 198 112 295q42 41 113.5 62.5t142.5 21.5q121 0 205 -34t129 -89l-166 -197q-51 51 -112 51
q-45 0 -69.5 -25.5t-24.5 -74.5v-86h217v-272h-217v-752z" />
    <glyph glyph-name="fi" unicode="fi" horiz-adv-x="1300" 
d="M1012 1128q-79 0 -134 54.5t-55 132.5q0 76 55 130t134 54t133.5 -54t54.5 -130q0 -78 -54.5 -132.5t-133.5 -54.5zM1178 0h-332v752h-326v-752h-330v752h-149v272h149v70q0 203 111 299q43 41 110 62.5t140 21.5q84 0 192 -23l-57 -268q-45 20 -82 20q-84 0 -84 -96v-86
h658v-1024z" />
    <glyph glyph-name="fl" unicode="fl" horiz-adv-x="1300" 
d="M1178 0h-332v1470h332v-1470zM737 1024v-272h-217v-752h-330v752h-149v272h149v70q0 203 111 299q43 41 110 62.5t140 21.5q84 0 192 -23l-57 -268q-45 20 -82 20q-84 0 -84 -96v-86h217z" />
    <glyph glyph-name="f_f_i" unicode="ffi" horiz-adv-x="1955" 
d="M1667 1128q-79 0 -133.5 54.5t-54.5 132.5q0 76 54.5 130t133.5 54t133.5 -54t54.5 -130q0 -78 -54.5 -132.5t-133.5 -54.5zM1176 0h-330v752h-326v-752h-330v752h-149v272h149v70q0 203 111 299q43 41 110 62.5t140 21.5q131 0 229 -43l-86 -252q-46 24 -86 24
q-88 0 -88 -96v-86h326v70q0 204 110 299q43 41 110 62.5t140 21.5q85 0 193 -23l-58 -268q-45 20 -81 20q-84 0 -84 -96v-86h657v-1024h-332v752h-325v-752z" />
    <glyph glyph-name="f_f_l" unicode="ffl" horiz-adv-x="1955" 
d="M1833 0h-332v1470h332v-1470zM1176 0h-330v752h-326v-752h-330v752h-149v272h149v70q0 203 111 299q43 41 110 62.5t140 21.5q84 0 192 -23l-57 -268q-45 20 -82 20q-84 0 -84 -96v-86h326v70q0 204 110 299q43 41 110 62.5t140 21.5q85 0 193 -23l-58 -268
q-45 20 -81 20q-84 0 -84 -96v-86h217v-272h-217v-752z" />
    <glyph glyph-name="f_j" unicode="fj" horiz-adv-x="1300" 
d="M1012 1128q-79 0 -134 54.5t-55 132.5q0 76 55 130t134 54t133.5 -54t54.5 -130q0 -78 -54.5 -132.5t-133.5 -54.5zM805 -416q-101 0 -185.5 28.5t-138.5 82.5l174 215q45 -45 105 -45q38 0 62 21t24 61v805h-326v-752h-330v752h-149v272h149v70q0 203 111 299
q43 41 110 62.5t140 21.5q84 0 192 -23l-57 -268q-45 20 -82 20q-84 0 -84 -96v-86h658v-1075q0 -96 -28.5 -168t-80 -114t-117.5 -62.5t-147 -20.5z" />
    <glyph glyph-name="f_b" unicode="fb" horiz-adv-x="1953" 
d="M1419 -16q-171 0 -268 125v-109h-305v1470h332v-499q92 76 241 76q91 0 172.5 -33t148 -96t105.5 -167t39 -235q0 -106 -26.5 -195t-71.5 -150.5t-104.5 -104t-126 -62.5t-136.5 -20zM737 1024v-272h-217v-752h-330v752h-149v272h149v70q0 203 111 299q43 41 110 62.5
t140 21.5q84 0 192 -23l-57 -268q-45 20 -82 20q-84 0 -84 -96v-86h217zM1354 279q82 0 138 58.5t56 178.5t-56 178t-138 58q-75 0 -124.5 -47t-51.5 -119v-135q1 -75 51.5 -123.5t124.5 -48.5z" />
    <glyph glyph-name=".notdef" horiz-adv-x="1126" 
d="M1024 0h-922v1434h922v-1434zM205 1331v-1229h717v1229h-717z" />
    <glyph glyph-name=".null" horiz-adv-x="0" 
 />
    <glyph glyph-name="nonmarkingreturn" horiz-adv-x="682" 
 />
    <glyph glyph-name="NULL" horiz-adv-x="1024" 
 />
    <glyph glyph-name="NULL" horiz-adv-x="1024" 
 />
    <glyph glyph-name="CR" unicode="&#xd;" horiz-adv-x="1024" 
 />
    <glyph glyph-name="space" unicode=" " horiz-adv-x="475" 
 />
    <glyph glyph-name="exclam" unicode="!" horiz-adv-x="643" 
d="M465 485h-287l-41 949h369zM322 -25q-85 0 -144 60t-59 145q0 83 59 142q58 61 144 61q85 0 143 -61q59 -59 59 -142q0 -85 -59 -145t-143 -60z" />
    <glyph glyph-name="quotedbl" unicode="&#x22;" horiz-adv-x="942" 
d="M371 895h-250l-39 539h328zM821 895h-250l-39 539h328z" />
    <glyph glyph-name="numbersign" unicode="#" horiz-adv-x="1464" 
d="M598 532h209l59 287h-209zM997 0h-303l56 260h-209l-56 -260h-303l56 260h-201l59 272h199l59 287h-200l59 273h199l55 260h303l-55 -260h209l55 260h303l-55 -260h200l-59 -273h-199l-59 -287h201l-60 -272h-198z" />
    <glyph glyph-name="dollar" unicode="$" horiz-adv-x="1310" 
d="M459 979q0 -49 26 -79.5t105 -49.5v254q-63 -10 -97 -42.5t-34 -82.5zM881 375q0 49 -30.5 82.5t-107.5 52.5v-266q66 12 102 46.5t36 84.5zM743 -18v-207h-153v209q-227 19 -352.5 141.5t-126.5 331.5l323 32q0 -197 156 -241v289l-66 10q-202 31 -295.5 140t-93.5 276
q0 169 123.5 277.5t331.5 125.5v184h153v-186q205 -18 328 -119.5t123 -283.5l-322 -31q0 141 -129 170v-279l54 -10q202 -37 306.5 -144t104.5 -253q0 -174 -127 -295q-125 -119 -338 -137z" />
    <glyph glyph-name="percent" unicode="%" horiz-adv-x="2166" 
d="M514 621q-172 0 -286.5 112.5t-114.5 308.5q0 189 114 302.5t287 113.5t287 -113.5t114 -302.5q0 -192 -114 -306.5t-287 -114.5zM514 858q64 0 100.5 48.5t36.5 135.5q0 81 -37.5 130t-99.5 49q-63 0 -100 -47.5t-37 -131.5q0 -87 37.5 -135.5t99.5 -48.5zM1653 -20
q-112 0 -202 48t-145 145t-55 228q0 189 114.5 302.5t287.5 113.5t287 -113.5t114 -302.5q0 -192 -114 -306.5t-287 -114.5zM1653 217q64 0 100.5 48.5t36.5 135.5q0 81 -37.5 130t-99.5 49q-63 0 -100 -47.5t-37 -131.5q0 -87 37.5 -135.5t99.5 -48.5zM743 -25l-211 146
l893 1339l211 -145z" />
    <glyph glyph-name="ampersand" unicode="&#x26;" horiz-adv-x="1386" 
d="M1321 174l-225 -201l-129 138q-172 -136 -389 -136q-222 0 -364 119t-142 318q0 123 69 221.5t185 169.5q-62 80 -87.5 143.5t-25.5 132.5q0 167 124 274t306 107q120 0 217 -44t155 -131t58 -204q0 -127 -74 -207q-70 -76 -206 -159l170 -174q62 115 102 217l270 -109
q-87 -198 -166 -321zM518 1069q0 -37 17.5 -71t66.5 -87q90 49 127 84t37 78q0 50 -34.5 82.5t-90.5 32.5t-89.5 -33.5t-33.5 -85.5zM604 260q101 0 172 51l-264 283q-106 -67 -106 -170q0 -72 51.5 -118t146.5 -46z" />
    <glyph glyph-name="quotesingle" unicode="'" horiz-adv-x="491" 
d="M371 895h-250l-39 539h328z" />
    <glyph glyph-name="parenleft" unicode="(" horiz-adv-x="813" 
d="M782 -184l-221 -205q-213 191 -341 462t-128 584q0 311 128 580.5t341 462.5l221 -205q-358 -358 -358 -838q0 -483 358 -841z" />
    <glyph glyph-name="parenright" unicode=")" horiz-adv-x="813" 
d="M31 1495l221 205q213 -191 341 -462.5t128 -584.5q0 -311 -127.5 -580t-341.5 -462l-221 205q358 358 358 837q0 484 -358 842z" />
    <glyph glyph-name="asterisk" unicode="*" horiz-adv-x="915" 
d="M459 885l-137 -189l-187 135l137 189l-221 72l72 219l221 -72v231h229v-231l220 72l71 -219l-221 -72l137 -189l-186 -135z" />
    <glyph glyph-name="plus" unicode="+" horiz-adv-x="1196" 
d="M1114 846v-287h-364v-389h-304v389h-364v287h364v381h304v-381h364z" />
    <glyph glyph-name="comma" unicode="," horiz-adv-x="589" 
d="M238 -383l-172 133q115 142 165 238q-62 21 -100.5 73.5t-38.5 120.5q0 82 59.5 141.5t143.5 59.5q88 0 145.5 -61.5t57.5 -155.5q0 -75 -23 -152.5t-65.5 -151t-81 -127.5t-90.5 -118z" />
    <glyph glyph-name="hyphen" unicode="-" horiz-adv-x="788" 
d="M717 397h-645v287h645v-287z" />
    <glyph glyph-name="period" unicode="." horiz-adv-x="589" 
d="M295 -25q-85 0 -144 60t-59 145q0 82 60 142q58 61 143 61t143 -61q60 -60 60 -142q0 -85 -59 -145t-144 -60z" />
    <glyph glyph-name="slash" unicode="/" horiz-adv-x="935" 
d="M342 -123h-322l574 1679h321z" />
    <glyph glyph-name="zero" unicode="0" horiz-adv-x="1337" 
d="M668 -25q-270 0 -426 189t-156 555q0 181 43.5 323t122 232.5t184 137t232.5 46.5q264 0 423.5 -190t159.5 -549q0 -365 -157 -554.5t-426 -189.5zM668 291q119 0 176 112t57 316q0 205 -61 314.5t-172 109.5q-115 0 -173.5 -108t-58.5 -316q0 -199 58.5 -313.5
t173.5 -114.5z" />
    <glyph glyph-name="one" unicode="1" horiz-adv-x="886" 
d="M733 1434v-1434h-338v1051l-332 -133l-14 315l451 201h233z" />
    <glyph glyph-name="two" unicode="2" horiz-adv-x="1153" 
d="M1081 303v-303h-1015v250l542 543q69 69 95 114.5t26 96.5q0 63 -46 103t-116 40q-78 0 -125 -48t-47 -130h-325q0 226 141.5 357.5t361.5 131.5q226 0 368 -124.5t142 -319.5q0 -106 -45 -196.5t-155 -192.5l-351 -322h549z" />
    <glyph glyph-name="three" unicode="3" horiz-adv-x="1196" 
d="M575 -20q-103 0 -194.5 27t-166.5 80t-119 141.5t-44 201.5h328q7 -75 62 -116.5t134 -41.5q83 0 137 45t54 119q0 75 -62.5 120.5t-166.5 45.5h-193v281h205q96 0 146 40.5t50 108.5q0 61 -48 99t-124 38q-74 0 -123 -38t-53 -105h-323q3 131 72 230t182 150.5t252 51.5
q238 0 374 -112q138 -114 138 -285q0 -105 -52.5 -181t-140.5 -120q102 -44 162.5 -133.5t60.5 -210.5q0 -190 -151 -314q-149 -122 -396 -122z" />
    <glyph glyph-name="four" unicode="4" horiz-adv-x="1228" 
d="M1188 610v-295h-195v-315h-327v315h-621v271l432 848h350l-421 -824h268v256h319v-256h195z" />
    <glyph glyph-name="five" unicode="5" horiz-adv-x="1191" 
d="M578 -25q-206 0 -340 97t-172 252l309 102q18 -68 77 -112t128 -44q87 0 143.5 53t56.5 142q0 86 -59 141.5t-150 55.5q-62 0 -111.5 -25.5t-80.5 -61.5h-285l80 859h887v-304h-600l-27 -225q89 47 205 47q218 0 352.5 -129t134.5 -348q0 -158 -74 -273t-196.5 -171
t-277.5 -56z" />
    <glyph glyph-name="six" unicode="6" horiz-adv-x="1239" 
d="M1171 471q0 -215 -150.5 -355.5t-379.5 -140.5q-132 0 -247 53t-193 165q-119 175 -119 473q0 473 205 665q138 127 379 127q201 0 334 -93t178 -259l-308 -82q-45 141 -208 141q-98 0 -152 -61q-72 -82 -86 -275q95 109 272 109q216 0 345.5 -132.5t129.5 -334.5z
M645 270q84 0 138.5 56t54.5 133t-55 132.5t-138 55.5q-84 0 -137 -55.5t-53 -132.5q0 -78 52.5 -133.5t137.5 -55.5z" />
    <glyph glyph-name="seven" unicode="7" horiz-adv-x="1083" 
d="M1038 1145l-551 -1145h-389l568 1130h-615v304h987v-289z" />
    <glyph glyph-name="eight" unicode="8" horiz-adv-x="1224" 
d="M610 -25q-234 0 -383 122.5t-149 312.5q0 218 190 342q-72 53 -112.5 128.5t-40.5 166.5q0 178 141 294.5t356 116.5q221 0 359 -117q139 -118 139 -294q0 -175 -152 -287q189 -124 189 -350q0 -188 -153.5 -311.5t-383.5 -123.5zM612 1182q-76 0 -126 -42.5t-50 -109.5
q0 -66 50.5 -108.5t125.5 -42.5q76 0 126 42t50 109t-50.5 109.5t-125.5 42.5zM612 256q88 0 146.5 49.5t58.5 124.5q0 73 -59 122.5t-146 49.5q-88 0 -146 -48.5t-58 -123.5t58.5 -124.5t145.5 -49.5z" />
    <glyph glyph-name="nine" unicode="9" horiz-adv-x="1239" 
d="M594 1163q-84 0 -138.5 -55.5t-54.5 -132.5t55 -133t138 -56q84 0 137 55.5t53 133.5t-52.5 133t-137.5 55zM573 -25q-200 0 -333.5 93.5t-178.5 259.5l308 82q46 -142 209 -142q97 0 151 62q72 83 86 274q-94 -108 -272 -108q-216 0 -345.5 132.5t-129.5 334.5
q0 215 150.5 355t379.5 140q132 0 247.5 -52.5t192.5 -164.5q119 -175 119 -473q0 -474 -205 -666q-138 -127 -379 -127z" />
    <glyph glyph-name="colon" unicode=":" horiz-adv-x="610" 
d="M305 -25q-85 0 -144 60t-59 145q0 82 60 142q58 61 143 61q86 0 144 -61q59 -59 59 -142q0 -85 -59 -145t-144 -60zM305 641q-85 0 -144 60t-59 145q0 81 60 141q59 62 143 62q85 0 144 -62q59 -59 59 -141q0 -85 -59 -145t-144 -60z" />
    <glyph glyph-name="semicolon" unicode=";" horiz-adv-x="610" 
d="M248 -383l-172 133q118 146 166 238q-62 21 -101 73.5t-39 120.5q0 82 59.5 141.5t143.5 59.5q88 0 145.5 -61.5t57.5 -155.5q0 -75 -23 -152.5t-65.5 -151t-81 -127.5t-90.5 -118zM305 641q-85 0 -144 60t-59 145q0 81 60 141q59 62 143 62q85 0 144 -62q59 -59 59 -141
q0 -85 -59 -145t-144 -60z" />
    <glyph glyph-name="less" unicode="&#x3c;" horiz-adv-x="970" 
d="M879 461v-318l-797 387v289l797 387v-307l-471 -219z" />
    <glyph glyph-name="equal" unicode="=" horiz-adv-x="1208" 
d="M1106 819h-1004v273h1004v-273zM1106 313h-1004v273h1004v-273z" />
    <glyph glyph-name="greater" unicode="&#x3e;" horiz-adv-x="970" 
d="M889 530l-797 -387v308l471 219l-471 219v317l797 -387v-289z" />
    <glyph glyph-name="question" unicode="?" horiz-adv-x="1114" 
d="M637 485h-344v90q0 64 4.5 98t25 65.5t47.5 51t87 56.5l51 31q111 67 143 94q35 35 35 80q0 51 -43 82.5t-111 31.5q-76 0 -122.5 -41t-47.5 -120l-329 30q3 136 70.5 233.5t178 145t250.5 47.5q238 0 374 -111t136 -294q0 -53 -11 -98.5t-33.5 -81.5t-46.5 -63.5
t-61.5 -53t-65 -42t-70.5 -38.5l-62 -33q-36 -20 -45.5 -37.5t-9.5 -62.5v-60zM465 -25q-85 0 -144 60t-59 145q0 82 60 142q58 61 143 61t143 -61q60 -60 60 -142q0 -85 -59 -145t-144 -60z" />
    <glyph glyph-name="at" unicode="@" horiz-adv-x="1925" 
d="M963 -412q-176 0 -336 70t-276.5 189.5t-185.5 287t-69 352.5q0 183 66 347.5t181.5 284.5t280.5 190.5t355 70.5q187 0 347 -64.5t269.5 -175t171.5 -260t62 -317.5q0 -231 -112.5 -379.5t-295.5 -148.5q-172 0 -272 115q-38 -55 -102 -84t-140 -29q-83 0 -155.5 29.5
t-128 84.5t-87.5 141.5t-32 194.5q0 91 25 166.5t64.5 124t90.5 82t102 48t101 14.5q130 0 203 -70l10 61h262v-571q0 -49 22 -75.5t56 -26.5q72 0 118 83.5t46 217.5q0 126 -43 239.5t-121 200.5t-197.5 138.5t-263.5 51.5q-195 0 -346.5 -94.5t-231 -249.5t-79.5 -340
q0 -188 80 -345t228 -251t333 -94q234 0 407 107l107 -178q-225 -138 -514 -138zM938 303q46 0 84 23.5t51 70.5v178q-14 36 -49.5 58t-85.5 22q-63 0 -100 -46t-37 -122q0 -87 38.5 -135.5t98.5 -48.5z" />
    <glyph glyph-name="A" unicode="A" horiz-adv-x="1437" 
d="M717 1067h-6l-129 -418h262zM1421 0h-372l-121 348h-430l-121 -348h-361l502 1434h402z" />
    <glyph glyph-name="B" unicode="B" horiz-adv-x="1316" 
d="M711 0h-572v1434h592q222 0 345.5 -99.5t123.5 -273.5q0 -92 -48 -169t-124 -114q95 -36 156 -127.5t61 -206.5q0 -213 -140.5 -328.5t-393.5 -115.5zM717 1151h-236v-248h238q68 0 106.5 33.5t38.5 91.5q0 57 -39.5 90t-107.5 33zM481 629v-346h219q90 0 143.5 47
t53.5 125q0 80 -54.5 127t-146.5 47h-215z" />
    <glyph glyph-name="C" unicode="C" horiz-adv-x="1478" 
d="M772 -25q-110 0 -212.5 30t-191.5 92t-155 149.5t-103.5 209.5t-37.5 265q0 172 59 314.5t157.5 233t224.5 140t263 49.5q266 0 432 -135q165 -134 209 -348l-334 -72q-22 93 -94 162q-74 74 -215 74q-67 0 -129 -27.5t-111 -78.5t-78.5 -132t-29.5 -180
q0 -107 29.5 -190.5t79.5 -133.5t111.5 -76t129.5 -26q133 0 217 76.5t111 189.5l334 -72q-46 -234 -221 -374q-178 -140 -445 -140z" />
    <glyph glyph-name="D" unicode="D" horiz-adv-x="1431" 
d="M659 0h-520v1434h525q110 0 209.5 -25t189 -80t155 -136t104 -201t38.5 -267q0 -148 -39 -270.5t-105.5 -205.5t-157 -140t-190.5 -83t-209 -26zM481 1130v-827h162q172 0 266.5 109.5t94.5 312.5q0 189 -98.5 297t-268.5 108h-156z" />
    <glyph glyph-name="E" unicode="E" horiz-adv-x="1226" 
d="M481 303h664v-303h-1006v1434h994v-304h-652v-217h602v-299h-602v-311z" />
    <glyph glyph-name="F" unicode="F" horiz-adv-x="1146" 
d="M1028 913v-301h-547v-612h-342v1434h951v-304h-609v-217h547z" />
    <glyph glyph-name="G" unicode="G" horiz-adv-x="1548" 
d="M1475 758v-74q0 -146 -39.5 -266.5t-106 -201.5t-155.5 -136t-186 -80t-200 -25q-143 0 -271 48.5t-228 139.5t-158.5 234.5t-58.5 321.5q0 174 58.5 316.5t157.5 233.5t226.5 140t269.5 49q245 0 422 -121q179 -120 238 -327l-328 -95q-28 92 -118.5 158t-213.5 66
q-70 0 -133 -27t-114 -78t-81 -132.5t-30 -182.5q0 -108 29.5 -192t80.5 -135t114.5 -77t135.5 -26q122 0 209 49.5t119 136.5h-295v283h656z" />
    <glyph glyph-name="H" unicode="H" horiz-adv-x="1544" 
d="M1405 0h-344v682h-578v-682h-344v1434h344v-449h578v449h344v-1434z" />
    <glyph glyph-name="I" unicode="I" horiz-adv-x="622" 
d="M483 0h-344v1434h344v-1434z" />
    <glyph glyph-name="J" unicode="J" horiz-adv-x="1136" 
d="M508 -20q-208 0 -340.5 111.5t-155.5 322.5l332 53q7 -75 47 -121.5t117 -46.5q154 0 154 178v957h344v-955q0 -129 -37 -226t-104.5 -156t-157 -88t-199.5 -29z" />
    <glyph glyph-name="K" unicode="K" horiz-adv-x="1425" 
d="M1415 0h-399l-400 715l-135 -131v-584h-342v1434h342v-457l467 457h447l-518 -484z" />
    <glyph glyph-name="L" unicode="L" horiz-adv-x="1118" 
d="M1077 0h-938v1434h344v-1131h594v-303z" />
    <glyph glyph-name="M" unicode="M" horiz-adv-x="1724" 
d="M813 539l-336 364v-903h-338v1434h334l393 -447l394 447h325v-1434h-338v905l-340 -366h-94z" />
    <glyph glyph-name="N" unicode="N" horiz-adv-x="1517" 
d="M1378 0h-334l-569 838v-838h-336v1434h332l571 -850v850h336v-1434z" />
    <glyph glyph-name="O" unicode="O" horiz-adv-x="1576" 
d="M788 -25q-114 0 -219 29.5t-196 91t-157.5 148.5t-105 209t-38.5 266q0 139 38.5 259t106 207t158 149t196 93t217.5 31q114 0 219.5 -30t196 -92t157.5 -148.5t105.5 -207t38.5 -261.5q0 -143 -38.5 -265t-106.5 -209t-158.5 -148.5t-195.5 -91.5t-218 -30zM788 295
q71 0 135.5 26t115.5 77t81.5 133.5t30.5 187.5q0 99 -30.5 180.5t-81.5 133t-115.5 79t-135.5 27.5q-72 0 -136 -27t-115 -78t-81 -132.5t-30 -182.5q0 -105 30 -187.5t81.5 -133.5t115.5 -77t135 -26z" />
    <glyph glyph-name="P" unicode="P" horiz-adv-x="1259" 
d="M694 1130h-213v-292h215q74 0 115 38t41 105q0 68 -44 108.5t-114 40.5zM727 535h-246v-535h-342v1434h604q202 0 333.5 -120.5t131.5 -330.5q0 -105 -38 -191t-104 -141.5t-153 -85.5t-186 -30z" />
    <glyph glyph-name="Q" unicode="Q" horiz-adv-x="1576" 
d="M1466 102l-202 -198l-136 149q-159 -78 -340 -78q-114 0 -219 29.5t-196 91t-157.5 148.5t-105 209t-38.5 266q0 139 38.5 259t106 207t158 149t196 93t217.5 31q114 0 219.5 -30t196 -92t157.5 -148.5t105.5 -207t38.5 -261.5q0 -296 -159 -492zM788 295q59 0 105 14
l-197 215l193 178l211 -219q51 91 51 236q0 99 -30.5 180.5t-81.5 133t-115.5 79t-135.5 27.5q-72 0 -136 -27t-115 -78t-81 -132.5t-30 -182.5q0 -105 30 -187.5t81.5 -133.5t115.5 -77t135 -26z" />
    <glyph glyph-name="R" unicode="R" horiz-adv-x="1347" 
d="M731 1130h-254v-266h256q69 0 109.5 36.5t40.5 98.5q0 57 -42.5 94t-109.5 37zM1335 0h-393l-311 571h-154v-571h-338v1434h629q199 0 332 -117t133 -307q0 -92 -26 -160.5t-85 -130.5q-53 -56 -139 -98z" />
    <glyph glyph-name="S" unicode="S" horiz-adv-x="1269" 
d="M641 -25q-267 0 -420 138q-155 140 -158 376l338 31q1 -131 70 -202.5t172 -71.5q99 0 158 41t59 112q0 65 -60 106.5t-204 80.5l-154 43q-90 25 -156.5 67t-105 95.5t-56.5 113t-18 127.5q0 189 142 307q143 119 387 119q242 0 385 -110q144 -111 147 -289v-29l-336 -33
v21q-1 81 -55 125.5t-143 44.5q-90 0 -139.5 -37t-49.5 -96q0 -47 37 -79t137 -61l179 -53q405 -122 405 -424q0 -202 -153 -334q-150 -129 -408 -129z" />
    <glyph glyph-name="T" unicode="T" horiz-adv-x="1249" 
d="M1208 1434v-304h-411v-1130h-344v1130h-412v304h1167z" />
    <glyph glyph-name="U" unicode="U" horiz-adv-x="1445" 
d="M721 -25q-265 0 -430 142q-162 140 -162 436v881h344v-863q0 -129 67 -202.5t183 -73.5q118 0 184 72t66 202v865h344v-879q0 -284 -160.5 -432t-435.5 -148z" />
    <glyph glyph-name="V" unicode="V" horiz-adv-x="1392" 
d="M893 0h-393l-484 1434h359l323 -1012h7l323 1012h348z" />
    <glyph glyph-name="W" unicode="W" horiz-adv-x="1857" 
d="M1499 0h-319l-250 596l-252 -596h-320l-333 1434h350l207 -942l252 604h202l252 -604l207 942h338z" />
    <glyph glyph-name="X" unicode="X" horiz-adv-x="1384" 
d="M1376 0h-395l-289 475l-299 -475h-385l465 727l-442 707h397l270 -445l267 445h389l-434 -686z" />
    <glyph glyph-name="Y" unicode="Y" horiz-adv-x="1282" 
d="M813 739v-739h-344v739l-461 695h398l245 -383l246 383h377z" />
    <glyph glyph-name="Z" unicode="Z" horiz-adv-x="1220" 
d="M1161 303v-303h-1110v242l656 888h-623v304h1055v-242l-652 -889h674z" />
    <glyph glyph-name="bracketleft" unicode="[" horiz-adv-x="774" 
d="M733 -317h-594v1923h594v-246h-266v-1432h266v-245z" />
    <glyph glyph-name="backslash" unicode="\" horiz-adv-x="954" 
d="M934 -123h-340l-574 1679h340z" />
    <glyph glyph-name="bracketright" unicode="]" horiz-adv-x="774" 
d="M41 1606h594v-1923h-594v245h266v1432h-266v246z" />
    <glyph glyph-name="asciicircum" unicode="^" horiz-adv-x="1146" 
d="M1102 768h-332l-201 367l-202 -367h-322l385 666h287z" />
    <glyph glyph-name="underscore" unicode="_" horiz-adv-x="962" 
d="M942 -266h-922v205h922v-205z" />
    <glyph glyph-name="grave" unicode="`" horiz-adv-x="583" 
d="M522 1139h-264l-238 291v4h375l127 -291v-4z" />
    <glyph glyph-name="a" unicode="a" horiz-adv-x="1126" 
d="M508 236q52 0 125 40l57 35l2 166l-147 -41q-79 -21 -112.5 -45t-33.5 -65q0 -44 33 -67t76 -23zM696 88l-2 -2q-124 -106 -270 -106q-147 0 -250.5 89.5t-103.5 233.5q0 130 83 203.5t257 118.5l282 73q-12 101 -147 101q-66 0 -109.5 -30t-56.5 -87l-293 70
q37 144 165.5 223.5t305.5 79.5q217 0 338 -99.5t121 -279.5v-676h-318z" />
    <glyph glyph-name="b" unicode="b" horiz-adv-x="1230" 
d="M696 -16q-171 0 -268 125v-109h-305v1470h332v-499q92 76 241 76q91 0 172.5 -33t148 -96t105.5 -167t39 -235q0 -106 -26.5 -195t-71.5 -150.5t-104.5 -104t-126 -62.5t-136.5 -20zM631 279q82 0 138 58.5t56 178.5t-56 178t-138 58q-75 0 -124.5 -47t-51.5 -119v-135
q1 -75 51.5 -123.5t124.5 -48.5z" />
    <glyph glyph-name="c" unicode="c" horiz-adv-x="1118" 
d="M582 -23q-99 0 -190.5 34.5t-166 100t-119.5 171t-45 235.5q0 128 45 232t120 169t167 99.5t191 34.5q198 0 327 -97q125 -93 160 -235l-311 -84q-38 123 -170 123q-80 0 -136.5 -63t-56.5 -179q0 -118 57 -183t138 -65q70 0 115.5 38.5t68.5 99.5l301 -105
q-54 -161 -185.5 -243.5t-309.5 -82.5z" />
    <glyph glyph-name="d" unicode="d" horiz-adv-x="1230" 
d="M600 279q74 0 124.5 48.5t51.5 123.5v135q-2 72 -51.5 119t-124.5 47q-82 0 -138 -58t-56 -178t56 -178.5t138 -58.5zM1108 0h-307v92q-113 -108 -266 -108q-70 0 -136.5 20t-126 62.5t-104.5 104t-71.5 150.5t-26.5 195q0 131 39 235t105.5 167t148 96t172.5 33
q139 0 241 -76v499h332v-1470z" />
    <glyph glyph-name="e" unicode="e" horiz-adv-x="1148" 
d="M575 801q-69 0 -121 -43t-59 -125h359q-1 83 -53 125.5t-126 42.5zM854 362l223 -149q-135 -236 -471 -236q-109 0 -206 34.5t-173 99.5t-121 169.5t-45 235.5q0 124 43.5 227t116.5 170t167.5 103.5t197.5 36.5q141 0 253 -62t177.5 -179t68.5 -271q2 -72 2 -109h-698
q7 -91 73 -146t161 -55q151 0 231 131z" />
    <glyph glyph-name="f" unicode="f" horiz-adv-x="761" 
d="M737 1024v-272h-217v-752h-330v752h-149v272h149v76q0 197 113 295q42 41 113.5 62.5t142.5 21.5q231 0 334 -123l-166 -197q-51 51 -113 51q-45 0 -69.5 -25.5t-24.5 -74.5v-86h217z" />
    <glyph glyph-name="g" unicode="g" horiz-adv-x="1077" 
d="M367 672q0 -57 40 -94t101 -37q63 0 102 37t39 94q0 52 -40.5 90.5t-100.5 38.5q-61 0 -101 -38t-40 -91zM1008 -84q0 -153 -136 -242q-131 -88 -342 -88h-32q-201 0 -334 74q-131 70 -131 219q0 156 174 221q-70 50 -70 123q0 93 103 150q-77 49 -121.5 126.5
t-44.5 174.5q0 113 63.5 198.5t161.5 126.5t213 41h2q44 0 136.5 -8t185.5 -8h213v-238l-138 2q27 -66 27 -118q0 -176 -118 -272.5t-308 -96.5q-37 0 -55.5 -12.5t-18.5 -32.5q0 -21 23.5 -30.5t83.5 -10.5l104 -2q173 -1 266 -78.5t93 -218.5zM502 -184h39q170 0 170 86
q0 47 -44 65.5t-130 18.5h-45q-166 0 -166 -88q0 -43 43 -62.5t133 -19.5z" />
    <glyph glyph-name="h" unicode="h" horiz-adv-x="1222" 
d="M623 754q-52 0 -97.5 -28.5t-70.5 -82.5v-643h-332v1470h332v-559q104 138 299 138q149 0 254 -97q104 -94 104 -303v-649h-332v578q0 176 -157 176z" />
    <glyph glyph-name="i" unicode="i" 
d="M289 1128q-79 0 -134 54.5t-55 132.5q0 76 55 130t134 54t133.5 -54t54.5 -130q0 -78 -54.5 -132.5t-133.5 -54.5zM455 0h-332v1024h332v-1024z" />
    <glyph glyph-name="j" unicode="j" 
d="M289 1128q-79 0 -134 54.5t-55 132.5q0 76 55 130t134 54t133.5 -54t54.5 -130q0 -78 -54.5 -132.5t-133.5 -54.5zM123 1024h332v-1075q0 -96 -28.5 -168t-80 -114t-117.5 -62.5t-147 -20.5q-101 0 -185.5 28.5t-138.5 82.5l174 215q45 -45 105 -45q38 0 62 21t24 61
v1077z" />
    <glyph glyph-name="k" unicode="k" horiz-adv-x="1189" 
d="M1180 0h-379l-252 483l-100 -92v-391h-326v1470h326v-729l307 283h420l-373 -340z" />
    <glyph glyph-name="l" unicode="l" 
d="M455 0h-332v1470h332v-1470z" />
    <glyph glyph-name="m" unicode="m" horiz-adv-x="1851" 
d="M616 752q-106 0 -161 -113v-639h-332v1024h332v-111q108 134 286 134q91 0 166.5 -36.5t122.5 -105.5q57 69 140.5 105.5t183.5 36.5q176 0 281.5 -103t105.5 -291v-653h-332v584q0 82 -41.5 125t-107.5 43q-53 0 -95 -30.5t-67 -82.5v-639h-332v584q0 81 -42 124.5
t-108 43.5z" />
    <glyph glyph-name="n" unicode="n" horiz-adv-x="1222" 
d="M623 754q-52 0 -97.5 -28.5t-70.5 -82.5v-643h-332v1024h332v-113q104 138 299 138q149 0 254 -97q104 -94 104 -303v-649h-332v578q0 176 -157 176z" />
    <glyph glyph-name="o" unicode="o" horiz-adv-x="1196" 
d="M598 -23q-103 0 -198 34.5t-171.5 99.5t-122 170.5t-45.5 236.5q0 128 46.5 232t124 169t172 99.5t194.5 34.5q103 0 198 -34t171.5 -98.5t122 -169t45.5 -233.5q0 -104 -30.5 -193.5t-83 -152t-121.5 -107.5t-145.5 -66.5t-156.5 -21.5zM598 268q82 0 141.5 65t59.5 185
q0 116 -59.5 180t-141.5 64t-141.5 -64t-59.5 -180q0 -118 60 -184t141 -66z" />
    <glyph glyph-name="p" unicode="p" horiz-adv-x="1230" 
d="M631 279q82 0 138 58t56 177q0 120 -56 179t-138 59q-75 0 -124.5 -47t-51.5 -119v-135q1 -75 51.5 -123.5t124.5 -48.5zM696 -16q-132 0 -241 88v-461h-332v1413h305v-92q101 115 268 115q91 0 172.5 -33t148 -96t105.5 -167.5t39 -236.5q0 -131 -40 -235t-107 -166.5
t-148.5 -95.5t-169.5 -33z" />
    <glyph glyph-name="q" unicode="q" horiz-adv-x="1230" 
d="M1108 1024v-1413h-332v450q-97 -77 -241 -77q-70 0 -136.5 20t-126 62.5t-104.5 104t-71.5 150.5t-26.5 195q0 131 39 235t105.5 167t148 96t172.5 33q156 0 266 -107v84h307zM600 279q74 0 124.5 48.5t51.5 123.5v135q-2 72 -51.5 119t-124.5 47q-82 0 -138 -58
t-56 -178t56 -178.5t138 -58.5z" />
    <glyph glyph-name="r" unicode="r" horiz-adv-x="862" 
d="M608 741q-47 0 -90 -25t-63 -63v-653h-332v1024h332v-119q37 61 94.5 98t126.5 37q110 0 180 -49l-104 -291q-65 41 -144 41z" />
    <glyph glyph-name="s" unicode="s" horiz-adv-x="997" 
d="M492 -20q-194 0 -310.5 78.5t-152.5 224.5l280 75q42 -141 183 -141q57 0 94 20.5t37 59.5q0 40 -50 62.5t-155 41.5q-348 59 -348 320q0 151 123 240q128 90 321 90q183 0 288 -76.5t140 -206.5l-280 -66q-25 113 -152 113q-57 0 -90 -22.5t-33 -59.5q0 -38 46 -56.5
t151 -33.5q78 -11 141 -34t114 -61.5t79 -97.5t28 -135q0 -151 -127 -243t-327 -92z" />
    <glyph glyph-name="t" unicode="t" horiz-adv-x="776" 
d="M655 291l109 -217q-111 -86 -275 -86q-149 0 -240 85t-91 251l2 428h-144v272h146v266h321v-266h238v-272h-240v-394q0 -59 21.5 -80.5t62.5 -21.5q37 0 90 35z" />
    <glyph glyph-name="u" unicode="u" horiz-adv-x="1212" 
d="M1090 0h-332v117q-104 -137 -295 -137q-151 0 -252 94q-100 93 -100 297v653h331v-580q0 -88 43 -129t111 -41q46 0 89.5 27.5t72.5 77.5v645h332v-1024z" />
    <glyph glyph-name="v" unicode="v" horiz-adv-x="1093" 
d="M1083 1024l-372 -1024h-328l-373 1024h328l213 -647l213 647h319z" />
    <glyph glyph-name="w" unicode="w" horiz-adv-x="1529" 
d="M1223 0h-277l-182 399l-182 -399h-283l-283 1024h328l145 -588l156 373h248l149 -363l154 578h317z" />
    <glyph glyph-name="x" unicode="x" horiz-adv-x="1079" 
d="M1069 0h-358l-172 313l-179 -313h-350l322 514l-316 510h357l168 -295l172 295h348l-311 -489z" />
    <glyph glyph-name="y" unicode="y" horiz-adv-x="1048" 
d="M1047 1024l-588 -1413h-320l232 575l-369 838h336l199 -485l186 485h324z" />
    <glyph glyph-name="z" unicode="z" horiz-adv-x="993" 
d="M926 272v-272h-858v205l440 547h-432v272h842v-205l-441 -547h449z" />
    <glyph glyph-name="braceleft" unicode="{" horiz-adv-x="864" 
d="M618 -322q-148 0 -249 76q-101 73 -101 269v389l-16 100l-201 37v190l201 37l16 101v389q0 195 101 268q101 76 249 76q61 0 129 -2t76 -2v-246q-113 0 -170 -33t-57 -121v-368q0 -73 -24.5 -119.5t-88.5 -75.5q65 -28 89 -73.5t24 -118.5v-369q0 -88 57 -121t170 -33
v-245q-8 0 -76 -2.5t-129 -2.5z" />
    <glyph glyph-name="bar" unicode="|" horiz-adv-x="593" 
d="M451 -287h-308v1803h308v-1803z" />
    <glyph glyph-name="braceright" unicode="}" horiz-adv-x="864" 
d="M246 -322q-61 0 -129 2.5t-76 2.5v245q113 0 170 33t57 121v369q0 72 24.5 118.5t88.5 75.5q-65 28 -89 74t-24 119v368q0 88 -57 121t-170 33v246q8 0 76 2t129 2q147 0 248 -76q102 -74 102 -268v-389l16 -101l201 -37v-190l-201 -37l-16 -100v-389q0 -195 -102 -269
q-101 -76 -248 -76z" />
    <glyph glyph-name="asciitilde" unicode="~" horiz-adv-x="1056" 
d="M713 438q-48 0 -103.5 22t-96 49t-84.5 49t-73 22q-88 0 -100 -121l-211 39q0 65 16 124t49.5 112t93.5 84.5t140 31.5q48 0 103.5 -22t95.5 -48.5t84 -48.5t73 -22q89 0 101 120l211 -38q0 -65 -16 -124.5t-49.5 -112.5t-93.5 -84.5t-140 -31.5z" />
    <glyph glyph-name="exclamdown" unicode="&#xa1;" horiz-adv-x="643" 
d="M322 1057q84 0 143 -60t59 -145q0 -81 -59 -143q-60 -60 -143 -60q-84 0 -144 60q-59 62 -59 143q0 85 59 145t144 60zM178 547h287l41 -936h-369z" />
    <glyph glyph-name="cent" unicode="&#xa2;" horiz-adv-x="1216" 
d="M850 414l285 -97q-43 -146 -155.5 -230.5t-270.5 -102.5v-209h-154v209q-91 13 -171 52.5t-144 104t-101 162t-37 215.5q0 115 38 211t102.5 160t144 103t168.5 52v191h154v-188q172 -18 282 -111.5t137 -228.5l-294 -76q-27 114 -125 137v-506q110 25 141 152zM422 518
q0 -190 133 -248v490q-60 -21 -96.5 -83.5t-36.5 -158.5z" />
    <glyph glyph-name="sterling" unicode="&#xa3;" horiz-adv-x="1286" 
d="M1165 287v-287h-1030v287h166q90 78 90 151q0 48 -33 123h-235v246h110q-30 82 -30 160q0 197 137 313.5t344 116.5q226 0 354.5 -112t145.5 -327l-336 -14q-1 78 -44 119t-114 41q-67 0 -105 -37t-38 -100q0 -80 41 -160h387v-246h-268q10 -45 10 -84q0 -116 -92 -190
h540z" />
    <glyph glyph-name="yen" unicode="&#xa5;" horiz-adv-x="1339" 
d="M1145 434v-196h-303v-238h-344v238h-303v196h303v111h-303v196h262l-420 631h397l246 -385l246 385h377l-420 -631h262v-196h-303v-111h303z" />
    <glyph glyph-name="brokenbar" unicode="&#xa6;" horiz-adv-x="593" 
d="M451 778h-308v738h308v-738zM451 -287h-308v779h308v-779z" />
    <glyph glyph-name="section" unicode="&#xa7;" horiz-adv-x="1134" 
d="M502 502l131 -62q43 10 65.5 38.5t22.5 66.5q0 39 -17.5 65.5t-62.5 48.5l-158 78q-71 -27 -71 -110q0 -43 20.5 -72.5t69.5 -52.5zM518 -311q-227 0 -343 115t-118 323l312 33q3 -217 151 -217q56 0 92.5 28.5t36.5 67.5q0 44 -31 73.5t-118 71.5l-185 90
q-118 58 -175.5 133t-57.5 179q0 102 51.5 173t132.5 111q-96 103 -96 236q0 113 59 199t154.5 130t210.5 44q180 0 293 -101q114 -99 114 -252v-28l-276 -35l-2 22q-6 70 -39 105t-86 35q-49 0 -84 -27.5t-35 -73.5q0 -41 30.5 -65t129.5 -70l145 -67q141 -66 207 -147
t66 -206q0 -97 -53 -166.5t-134 -109.5q99 -96 99 -227q0 -167 -125 -271q-121 -106 -326 -106z" />
    <glyph glyph-name="dieresis" unicode="&#xa8;" horiz-adv-x="880" 
d="M668 1143q-66 0 -114 48t-48 114t48 113.5t114 47.5q67 0 114 -47.5t47 -113.5t-47 -114t-114 -48zM213 1143q-66 0 -114 48t-48 114t48 113.5t114 47.5q67 0 114.5 -47.5t47.5 -113.5t-47.5 -114t-114.5 -48z" />
    <glyph glyph-name="copyright" unicode="&#xa9;" horiz-adv-x="1679" 
d="M840 -25q-202 0 -374 98.5t-273 270t-101 375.5q0 202 101 373t273 269.5t374 98.5q151 0 289 -58.5t238.5 -157t160 -236t59.5 -289.5q0 -153 -59.5 -291t-160 -237.5t-238.5 -157.5t-289 -58zM840 141q158 0 289.5 77t206.5 209.5t75 291.5q0 157 -75 289t-206.5 209
t-289.5 77q-156 0 -287.5 -76.5t-208 -209t-76.5 -289.5q0 -158 76.5 -291t208 -210t287.5 -77zM840 307q-167 0 -278 114t-111 308q0 188 112.5 293.5t276.5 105.5q141 0 237.5 -74.5t116.5 -203.5l-217 -33q-8 46 -46.5 78.5t-90.5 32.5q-63 0 -107.5 -50.5t-44.5 -148.5
q0 -111 44.5 -166t107.5 -55q61 0 96 45.5t43 112.5l227 -11q-13 -173 -112 -260.5t-254 -87.5z" />
    <glyph glyph-name="ordfeminine" unicode="&#xaa;" horiz-adv-x="800" 
d="M373 926q28 0 69 18l29 12l2 88l-94 -24q-60 -17 -60 -53q0 -19 16 -30t38 -11zM485 801l-16 -10q-89 -56 -174 -56q-94 0 -157.5 57t-63.5 144q0 91 56 146t177 81l166 39q-5 27 -29.5 43.5t-64.5 16.5q-90 0 -107 -66l-198 66q19 82 110 140t211 58q151 0 239.5 -68.5
t88.5 -189.5v-457h-238v56z" />
    <glyph glyph-name="guillemotleft" unicode="&#xab;" horiz-adv-x="1183" 
d="M608 219l-217 -176l-358 469l358 465l213 -172l-229 -289zM1133 219l-218 -176l-358 469l358 465l213 -172l-229 -289z" />
    <glyph glyph-name="registered" unicode="&#xae;" horiz-adv-x="1085" 
d="M543 549q-186 0 -318.5 132.5t-132.5 319.5q0 188 132 320.5t319 132.5q186 0 318 -133t132 -320t-132 -319.5t-318 -132.5zM543 651q142 0 242 103.5t100 246.5t-100 247t-242 104t-242 -104t-100 -247t100 -246.5t242 -103.5zM547 1114h-47v-65h47q17 0 27 9t10 23
q0 13 -11.5 23t-25.5 10zM754 788h-150l-74 156h-30v-156h-135v433h215q65 0 106 -40t41 -98q0 -78 -65 -118z" />
    <glyph glyph-name="overscore" unicode="&#xaf;" horiz-adv-x="761" 
d="M659 1188h-557v221h557v-221z" />
    <glyph glyph-name="degree" unicode="&#xb0;" horiz-adv-x="765" 
d="M383 821q-131 0 -227 90q-95 92 -95 228q0 133 95 225t227 92t227 -92q95 -89 95 -225q0 -132 -97 -226q-95 -92 -225 -92zM383 999q59 0 98 41t39 99t-39 98.5t-98 40.5t-98 -40.5t-39 -98.5t39 -99t98 -41z" />
    <glyph glyph-name="plusminus" unicode="&#xb1;" horiz-adv-x="1196" 
d="M1114 989v-287h-364v-282h-304v282h-364v287h364v283h304v-283h364zM1114 20h-1032v287h1032v-287z" />
    <glyph glyph-name="twosuperior" unicode="&#xb2;" horiz-adv-x="800" 
d="M735 791v-203h-678v172l355 297q41 34 55 57t14 51q0 33 -22.5 54.5t-59.5 21.5q-40 0 -62 -24t-22 -62h-258q3 140 103 215q104 78 246 78q158 0 245 -84q88 -82 88 -193q0 -69 -28.5 -121t-100.5 -112l-180 -147h305z" />
    <glyph glyph-name="threesuperior" unicode="&#xb3;" horiz-adv-x="796" 
d="M393 575q-158 0 -252.5 70.5t-95.5 202.5h256q1 -39 26 -58.5t66 -19.5q39 0 63.5 19.5t24.5 56.5q0 41 -32.5 61.5t-81.5 20.5h-105v188h111q47 0 70.5 20.5t23.5 53.5q0 31 -20 49t-56 18q-33 0 -55.5 -19.5t-22.5 -51.5h-252q0 118 97 190q101 72 237 72
q157 0 239.5 -68t82.5 -174q0 -55 -33 -101t-86 -73q137 -57 137 -196q0 -100 -84 -181q-83 -80 -258 -80z" />
    <glyph glyph-name="acute" unicode="&#xb4;" horiz-adv-x="583" 
d="M326 1139h-265v4l127 291h375v-4z" />
    <glyph glyph-name="paragraph" unicode="&#xb6;" horiz-adv-x="1376" 
d="M872 1208h-143v-1208h-278v653q-165 7 -277.5 119.5t-112.5 269.5q0 164 113.5 278t276.5 114h843v-226h-143v-1208h-279v1208z" />
    <glyph glyph-name="middot" unicode="&#xb7;" horiz-adv-x="548" 
d="M274 543q-84 0 -143 60t-59 145q0 82 59 141q58 61 143 61q86 0 144 -61q59 -59 59 -141q0 -85 -59 -145t-144 -60z" />
    <glyph glyph-name="cedilla" unicode="&#xb8;" horiz-adv-x="540" 
d="M223 -459q-87 0 -172 21l39 145q74 -18 119 -18q40 0 65 14t25 39q0 29 -27 43t-69 14q-18 0 -52.5 -4t-39.5 -4l51 240h178l-39 -101q77 -2 132.5 -48t55.5 -136q0 -101 -71.5 -153t-194.5 -52z" />
    <glyph glyph-name="onesuperior" unicode="&#xb9;" horiz-adv-x="600" 
d="M498 588h-262v590l-193 -60l-14 223l293 93h176v-846z" />
    <glyph glyph-name="ordmasculine" unicode="&#xba;" horiz-adv-x="872" 
d="M436 723q-79 0 -149.5 23t-125.5 67t-87.5 114.5t-32.5 159.5q0 88 33 158.5t88.5 114.5t125.5 67t148 23q106 0 193.5 -39t144.5 -123.5t57 -200.5q0 -87 -32.5 -157.5t-88 -115t-126 -68t-148.5 -23.5zM436 961q51 0 84 34.5t33 91.5q0 56 -31.5 90.5t-85.5 34.5
q-51 0 -84 -35t-33 -90q0 -57 33 -91.5t84 -34.5z" />
    <glyph glyph-name="guillemotright" unicode="&#xbb;" horiz-adv-x="1183" 
d="M51 801l217 176l359 -469l-359 -465l-213 172l230 289zM575 801l218 176l358 -469l-358 -465l-213 172l229 289z" />
    <glyph glyph-name="onequarter" unicode="&#xbc;" horiz-adv-x="1937" 
d="M573 -25l-211 146l893 1339l211 -145zM539 588h-263v590l-192 -60l-14 223l292 93h177v-846zM1868 367v-203h-125v-164h-236v164h-434v186l275 496h256l-271 -479h183v161h227v-161h125z" />
    <glyph glyph-name="onehalf" unicode="&#xbd;" horiz-adv-x="1966" 
d="M539 588h-263v590l-192 -60l-14 223l292 93h177v-846zM1860 203v-203h-678v172l354 297q41 34 55.5 57.5t14.5 51.5q0 33 -22 54t-60 21q-40 0 -62 -24t-22 -62h-258q3 141 102 215q104 78 246 78q159 0 246 -84q88 -82 88 -192q0 -69 -28.5 -121.5t-100.5 -112.5
l-181 -147h306zM573 -25l-211 146l893 1339l211 -145z" />
    <glyph glyph-name="threequarters" unicode="&#xbe;" horiz-adv-x="2084" 
d="M434 575q-158 0 -252.5 70.5t-95.5 202.5h256q1 -39 26 -58.5t66 -19.5q39 0 63.5 19.5t24.5 56.5q0 41 -32.5 61.5t-81.5 20.5h-105v188h111q47 0 70.5 20.5t23.5 53.5q0 31 -20 49t-56 18q-33 0 -55.5 -19.5t-22.5 -51.5h-252q0 118 97 190q101 72 237 72
q157 0 239.5 -68t82.5 -174q0 -55 -33 -101t-86 -73q137 -57 137 -196q0 -100 -84 -181q-83 -80 -258 -80zM721 -25l-211 146l893 1339l211 -145zM2015 367v-203h-125v-164h-235v164h-434v186l274 496h256l-270 -479h182v161h227v-161h125z" />
    <glyph glyph-name="questiondown" unicode="&#xbf;" horiz-adv-x="1114" 
d="M649 1057q85 0 144 -60t59 -145q0 -81 -59 -143q-60 -60 -144 -60q-83 0 -143 60q-60 63 -60 143q0 85 59 145t144 60zM477 547h344v-84q0 -51 -4 -82.5t-11.5 -56t-30 -46t-46 -38.5t-72.5 -47l-51 -31q-101 -62 -141 -94q-37 -27 -37 -76t43 -80t111 -31q77 0 123 39.5
t47 118.5l329 -31q-3 -135 -70.5 -232t-177.5 -143.5t-251 -46.5q-238 0 -374 110.5t-136 291.5q0 63 18.5 116t43 88t68.5 69.5t75 53t83 45.5l62 33q36 20 45.5 38t9.5 63v53z" />
    <glyph glyph-name="Agrave" unicode="&#xc0;" horiz-adv-x="1437" 
d="M717 1067h-6l-129 -418h262zM1421 0h-372l-121 348h-430l-121 -348h-361l502 1434h402zM872 1548h-264l-237 291v4h374l127 -291v-4z" />
    <glyph glyph-name="Aacute" unicode="&#xc1;" horiz-adv-x="1437" 
d="M717 1067h-6l-129 -418h262zM1421 0h-372l-121 348h-430l-121 -348h-361l502 1434h402zM846 1548h-264v4l127 291h374v-4z" />
    <glyph glyph-name="Acircumflex" unicode="&#xc2;" horiz-adv-x="1437" 
d="M717 1067h-6l-129 -418h262zM1421 0h-372l-121 348h-430l-121 -348h-361l502 1434h402zM713 1679l-314 -161v237l322 174l317 -174v-237z" />
    <glyph glyph-name="Atilde" unicode="&#xc3;" horiz-adv-x="1437" 
d="M717 1067h-6l-129 -418h262zM1421 0h-372l-121 348h-430l-121 -348h-361l502 1434h402zM856 1565q-37 0 -73.5 11.5t-61 26t-53 26t-50.5 11.5q-33 0 -54.5 -19.5t-22.5 -55.5l-170 22q0 116 56 199.5t155 83.5q47 0 91.5 -19t81 -38t64.5 -19q75 0 78 76l170 -23
q0 -116 -56 -199t-155 -83z" />
    <glyph glyph-name="Adieresis" unicode="&#xc4;" horiz-adv-x="1437" 
d="M717 1067h-6l-129 -418h262zM1421 0h-372l-121 348h-430l-121 -348h-361l502 1434h402zM946 1552q-66 0 -114 48t-48 114t48 114t114 48q67 0 114.5 -48t47.5 -114t-47.5 -114t-114.5 -48zM492 1552q-66 0 -114 48t-48 114t48 114t114 48q67 0 114 -48t47 -114t-47 -114
t-114 -48z" />
    <glyph glyph-name="Aring" unicode="&#xc5;" horiz-adv-x="1437" 
d="M717 1067h-6l-129 -418h262zM1421 0h-372l-121 348h-430l-121 -348h-361l502 1434h402zM719 1520q-80 0 -136.5 54.5t-56.5 133.5t56.5 133.5t136.5 54.5t136 -54.5t56 -133.5t-56 -133.5t-136 -54.5zM719 1636q30 0 51 21t21 51t-21 51t-51 21t-51 -21t-21 -51t21 -51
t51 -21z" />
    <glyph glyph-name="AE" unicode="&#xc6;" horiz-adv-x="1935" 
d="M864 1130h-30l-170 -417h225zM1853 0h-923l-25 426h-358l-172 -426h-367l596 1434h1237v-304h-641l12 -217h580v-299h-563l18 -311h606v-303z" />
    <glyph glyph-name="Ccedilla" unicode="&#xc7;" horiz-adv-x="1478" 
d="M772 -25q-110 0 -212.5 30t-191.5 92t-155 149.5t-103.5 209.5t-37.5 265q0 172 59 314.5t157.5 233t224.5 140t263 49.5q266 0 432 -135q165 -134 209 -348l-334 -72q-22 93 -94 162q-74 74 -215 74q-67 0 -129 -27.5t-111 -78.5t-78.5 -132t-29.5 -180
q0 -107 29.5 -190.5t79.5 -133.5t111.5 -76t129.5 -26q133 0 217 76.5t111 189.5l334 -72q-46 -234 -221 -374q-178 -140 -445 -140zM750 -459q-86 0 -172 21l38 145q74 -18 119 -18q40 0 65 14t25 39q0 29 -27 43t-69 14q-18 0 -52.5 -4t-39.5 -4l51 240h178l-39 -101
q77 -2 133 -48t56 -136q0 -101 -71.5 -153t-194.5 -52z" />
    <glyph glyph-name="Egrave" unicode="&#xc8;" horiz-adv-x="1226" 
d="M481 303h664v-303h-1006v1434h994v-304h-652v-217h602v-299h-602v-311zM799 1548h-264l-238 291v4h375l127 -291v-4z" />
    <glyph glyph-name="Eacute" unicode="&#xc9;" horiz-adv-x="1226" 
d="M481 303h664v-303h-1006v1434h994v-304h-652v-217h602v-299h-602v-311zM772 1548h-264v4l127 291h375v-4z" />
    <glyph glyph-name="Ecircumflex" unicode="&#xca;" horiz-adv-x="1226" 
d="M481 303h664v-303h-1006v1434h994v-304h-652v-217h602v-299h-602v-311zM639 1679l-313 -161v237l321 174l318 -174v-237z" />
    <glyph glyph-name="Edieresis" unicode="&#xcb;" horiz-adv-x="1226" 
d="M481 303h664v-303h-1006v1434h994v-304h-652v-217h602v-299h-602v-311zM872 1552q-66 0 -113.5 48t-47.5 114t47.5 114t113.5 48q67 0 114.5 -48t47.5 -114t-47.5 -114t-114.5 -48zM418 1552q-66 0 -114 48t-48 114t48 114t114 48q67 0 114.5 -48t47.5 -114t-47.5 -114
t-114.5 -48z" />
    <glyph glyph-name="Igrave" unicode="&#xcc;" horiz-adv-x="622" 
d="M483 0h-344v1434h344v-1434zM465 1548h-264l-238 291v4h375l127 -291v-4z" />
    <glyph glyph-name="Iacute" unicode="&#xcd;" horiz-adv-x="622" 
d="M483 0h-344v1434h344v-1434zM438 1548h-264v4l127 291h375v-4z" />
    <glyph glyph-name="Icircumflex" unicode="&#xce;" horiz-adv-x="622" 
d="M483 0h-344v1434h344v-1434zM305 1679l-313 -161v237l321 174l318 -174v-237z" />
    <glyph glyph-name="Idieresis" unicode="&#xcf;" horiz-adv-x="622" 
d="M483 0h-344v1434h344v-1434zM539 1552q-66 0 -114 48t-48 114t48 114t114 48q67 0 114 -48t47 -114t-47 -114t-114 -48zM84 1552q-66 0 -114 48t-48 114t48 114t114 48q67 0 114.5 -48t47.5 -114t-47.5 -114t-114.5 -48z" />
    <glyph glyph-name="Eth" unicode="&#xd0;" horiz-adv-x="1486" 
d="M715 0h-520v594h-164v272h164v568h524q110 0 209.5 -25t189 -80t155 -136t104 -201t38.5 -267q0 -148 -39 -270.5t-105.5 -205.5t-156.5 -140t-190 -83t-209 -26zM537 594v-291h161q172 0 266.5 109.5t94.5 312.5q0 189 -98.5 297t-268.5 108h-155v-264h235v-272h-235z
" />
    <glyph glyph-name="Ntilde" unicode="&#xd1;" horiz-adv-x="1517" 
d="M1378 0h-334l-569 838v-838h-336v1434h332l571 -850v850h336v-1434zM897 1565q-37 0 -73.5 11.5t-61 26t-53 26t-50.5 11.5q-33 0 -54.5 -19.5t-22.5 -55.5l-170 22q0 116 56 199.5t155 83.5q47 0 91.5 -19t81 -38t64.5 -19q75 0 78 76l170 -23q0 -116 -56 -199t-155 -83
z" />
    <glyph glyph-name="Ograve" unicode="&#xd2;" horiz-adv-x="1576" 
d="M788 -25q-114 0 -219 29.5t-196 91t-157.5 148.5t-105 209t-38.5 266q0 139 38.5 259t106 207t158 149t196 93t217.5 31q114 0 219.5 -30t196 -92t157.5 -148.5t105.5 -207t38.5 -261.5q0 -143 -38.5 -265t-106.5 -209t-158.5 -148.5t-195.5 -91.5t-218 -30zM788 295
q71 0 135.5 26t115.5 77t81.5 133.5t30.5 187.5q0 99 -30.5 180.5t-81.5 133t-115.5 79t-135.5 27.5q-72 0 -136 -27t-115 -78t-81 -132.5t-30 -182.5q0 -105 30 -187.5t81.5 -133.5t115.5 -77t135 -26zM942 1548h-264l-238 291v4h375l127 -291v-4z" />
    <glyph glyph-name="Oacute" unicode="&#xd3;" horiz-adv-x="1576" 
d="M788 -25q-114 0 -219 29.5t-196 91t-157.5 148.5t-105 209t-38.5 266q0 139 38.5 259t106 207t158 149t196 93t217.5 31q114 0 219.5 -30t196 -92t157.5 -148.5t105.5 -207t38.5 -261.5q0 -143 -38.5 -265t-106.5 -209t-158.5 -148.5t-195.5 -91.5t-218 -30zM788 295
q71 0 135.5 26t115.5 77t81.5 133.5t30.5 187.5q0 99 -30.5 180.5t-81.5 133t-115.5 79t-135.5 27.5q-72 0 -136 -27t-115 -78t-81 -132.5t-30 -182.5q0 -105 30 -187.5t81.5 -133.5t115.5 -77t135 -26zM915 1548h-264v4l127 291h375v-4z" />
    <glyph glyph-name="Ocircumflex" unicode="&#xd4;" horiz-adv-x="1576" 
d="M788 -25q-114 0 -219 29.5t-196 91t-157.5 148.5t-105 209t-38.5 266q0 139 38.5 259t106 207t158 149t196 93t217.5 31q114 0 219.5 -30t196 -92t157.5 -148.5t105.5 -207t38.5 -261.5q0 -143 -38.5 -265t-106.5 -209t-158.5 -148.5t-195.5 -91.5t-218 -30zM788 295
q71 0 135.5 26t115.5 77t81.5 133.5t30.5 187.5q0 99 -30.5 180.5t-81.5 133t-115.5 79t-135.5 27.5q-72 0 -136 -27t-115 -78t-81 -132.5t-30 -182.5q0 -105 30 -187.5t81.5 -133.5t115.5 -77t135 -26zM782 1679l-313 -161v237l322 174l317 -174v-237z" />
    <glyph glyph-name="Otilde" unicode="&#xd5;" horiz-adv-x="1576" 
d="M788 -25q-114 0 -219 29.5t-196 91t-157.5 148.5t-105 209t-38.5 266q0 139 38.5 259t106 207t158 149t196 93t217.5 31q114 0 219.5 -30t196 -92t157.5 -148.5t105.5 -207t38.5 -261.5q0 -143 -38.5 -265t-106.5 -209t-158.5 -148.5t-195.5 -91.5t-218 -30zM788 295
q71 0 135.5 26t115.5 77t81.5 133.5t30.5 187.5q0 99 -30.5 180.5t-81.5 133t-115.5 79t-135.5 27.5q-72 0 -136 -27t-115 -78t-81 -132.5t-30 -182.5q0 -105 30 -187.5t81.5 -133.5t115.5 -77t135 -26zM926 1565q-37 0 -73.5 11.5t-61 26t-53 26t-50.5 11.5
q-33 0 -55 -19.5t-23 -55.5l-170 22q0 116 56 199.5t155 83.5q47 0 92 -19t81.5 -38t64.5 -19q75 0 78 76l170 -23q0 -116 -56 -199t-155 -83z" />
    <glyph glyph-name="Odieresis" unicode="&#xd6;" horiz-adv-x="1576" 
d="M788 -25q-114 0 -219 29.5t-196 91t-157.5 148.5t-105 209t-38.5 266q0 139 38.5 259t106 207t158 149t196 93t217.5 31q114 0 219.5 -30t196 -92t157.5 -148.5t105.5 -207t38.5 -261.5q0 -143 -38.5 -265t-106.5 -209t-158.5 -148.5t-195.5 -91.5t-218 -30zM788 295
q71 0 135.5 26t115.5 77t81.5 133.5t30.5 187.5q0 99 -30.5 180.5t-81.5 133t-115.5 79t-135.5 27.5q-72 0 -136 -27t-115 -78t-81 -132.5t-30 -182.5q0 -105 30 -187.5t81.5 -133.5t115.5 -77t135 -26zM1016 1552q-66 0 -114 48t-48 114t48 114t114 48q67 0 114.5 -48
t47.5 -114t-47.5 -114t-114.5 -48zM561 1552q-66 0 -114 48t-48 114t48 114t114 48q67 0 114.5 -48t47.5 -114t-47.5 -114t-114.5 -48z" />
    <glyph glyph-name="multiply" unicode="&#xd7;" horiz-adv-x="1163" 
d="M1063 432l-215 -215l-275 277l-258 -258l-202 202l258 258l-271 269l215 215l271 -269l256 256l202 -202l-256 -256z" />
    <glyph glyph-name="Oslash" unicode="&#xd8;" horiz-adv-x="1576" 
d="M426 719q0 -155 68 -264l434 655q-69 29 -140 29q-72 0 -136 -27t-115 -78t-81 -132.5t-30 -182.5zM788 295q71 0 135.5 26t115.5 77t81.5 133.5t30.5 187.5q0 149 -70 260l-432 -655q69 -29 139 -29zM788 -25q-177 0 -323 70l-98 -147h-242l172 258
q-106 97 -165.5 239.5t-59.5 323.5q0 139 38.5 259t106 207t158 149t196 93t217.5 31q167 0 324 -69l98 147h242l-172 -260q225 -205 225 -557q0 -143 -38.5 -265t-106.5 -209t-158.5 -148.5t-195.5 -91.5t-218 -30z" />
    <glyph glyph-name="Ugrave" unicode="&#xd9;" horiz-adv-x="1445" 
d="M721 -25q-265 0 -430 142q-162 140 -162 436v881h344v-863q0 -129 67 -202.5t183 -73.5q118 0 184 72t66 202v865h344v-879q0 -284 -160.5 -432t-435.5 -148zM877 1548h-265l-237 291v4h375l127 -291v-4z" />
    <glyph glyph-name="Uacute" unicode="&#xda;" horiz-adv-x="1445" 
d="M721 -25q-265 0 -430 142q-162 140 -162 436v881h344v-863q0 -129 67 -202.5t183 -73.5q118 0 184 72t66 202v865h344v-879q0 -284 -160.5 -432t-435.5 -148zM850 1548h-264v4l127 291h374v-4z" />
    <glyph glyph-name="Ucircumflex" unicode="&#xdb;" horiz-adv-x="1445" 
d="M721 -25q-265 0 -430 142q-162 140 -162 436v881h344v-863q0 -129 67 -202.5t183 -73.5q118 0 184 72t66 202v865h344v-879q0 -284 -160.5 -432t-435.5 -148zM717 1679l-314 -161v237l322 174l317 -174v-237z" />
    <glyph glyph-name="Udieresis" unicode="&#xdc;" horiz-adv-x="1445" 
d="M721 -25q-265 0 -430 142q-162 140 -162 436v881h344v-863q0 -129 67 -202.5t183 -73.5q118 0 184 72t66 202v865h344v-879q0 -284 -160.5 -432t-435.5 -148zM950 1552q-66 0 -114 48t-48 114t48 114t114 48q67 0 114.5 -48t47.5 -114t-47.5 -114t-114.5 -48zM496 1552
q-66 0 -114 48t-48 114t48 114t114 48q67 0 114 -48t47 -114t-47 -114t-114 -48z" />
    <glyph glyph-name="Yacute" unicode="&#xdd;" horiz-adv-x="1282" 
d="M813 739v-739h-344v739l-461 695h398l245 -383l246 383h377zM768 1538h-264v4l127 291h375v-4z" />
    <glyph glyph-name="Thorn" unicode="&#xde;" horiz-adv-x="1257" 
d="M702 881h-221v-293h224q74 0 114.5 38t40.5 105q0 68 -44 109t-114 41zM735 285h-254v-285h-342v1434h342v-250h271q202 0 333.5 -120.5t131.5 -330.5q0 -140 -66.5 -243.5t-174.5 -154t-241 -50.5z" />
    <glyph glyph-name="germandbls" unicode="&#xdf;" horiz-adv-x="1275" 
d="M717 -18q-90 0 -176 22l59 266q44 -14 94 -14q72 0 122 46t50 128q0 86 -57.5 133t-157.5 47h-57v267h37q76 0 124 43.5t48 117.5q0 81 -51 123.5t-123 42.5q-81 0 -128.5 -51t-47.5 -143v-1010h-330v1008q0 114 40 205t109.5 148.5t161 87.5t197.5 30q119 0 215 -35.5
t155.5 -94.5t91 -132t31.5 -152q0 -88 -35.5 -165t-105.5 -126q98 -46 158.5 -136t60.5 -210q0 -141 -66.5 -244t-175 -152.5t-243.5 -49.5z" />
    <glyph glyph-name="agrave" unicode="&#xe0;" horiz-adv-x="1126" 
d="M508 236q52 0 125 40l57 35l2 166l-147 -41q-79 -21 -112.5 -45t-33.5 -65q0 -44 33 -67t76 -23zM696 88l-2 -2q-124 -106 -270 -106q-147 0 -250.5 89.5t-103.5 233.5q0 130 83 203.5t257 118.5l282 73q-12 101 -147 101q-66 0 -109.5 -30t-56.5 -87l-293 70
q37 144 165.5 223.5t305.5 79.5q217 0 338 -99.5t121 -279.5v-676h-318zM723 1139h-264l-238 291v4h375l127 -291v-4z" />
    <glyph glyph-name="aacute" unicode="&#xe1;" horiz-adv-x="1126" 
d="M508 236q52 0 125 40l57 35l2 166l-147 -41q-79 -21 -112.5 -45t-33.5 -65q0 -44 33 -67t76 -23zM696 88l-2 -2q-124 -106 -270 -106q-147 0 -250.5 89.5t-103.5 233.5q0 130 83 203.5t257 118.5l282 73q-12 101 -147 101q-66 0 -109.5 -30t-56.5 -87l-293 70
q37 144 165.5 223.5t305.5 79.5q217 0 338 -99.5t121 -279.5v-676h-318zM696 1139h-264v4l127 291h375v-4z" />
    <glyph glyph-name="acircumflex" unicode="&#xe2;" horiz-adv-x="1126" 
d="M508 236q52 0 125 40l57 35l2 166l-147 -41q-79 -21 -112.5 -45t-33.5 -65q0 -44 33 -67t76 -23zM696 88l-2 -2q-124 -106 -270 -106q-147 0 -250.5 89.5t-103.5 233.5q0 130 83 203.5t257 118.5l282 73q-12 101 -147 101q-66 0 -109.5 -30t-56.5 -87l-293 70
q37 144 165.5 223.5t305.5 79.5q217 0 338 -99.5t121 -279.5v-676h-318zM565 1262l-293 -162v237l301 174l297 -174v-237z" />
    <glyph glyph-name="atilde" unicode="&#xe3;" horiz-adv-x="1126" 
d="M508 236q52 0 125 40l57 35l2 166l-147 -41q-79 -21 -112.5 -45t-33.5 -65q0 -44 33 -67t76 -23zM696 88l-2 -2q-124 -106 -270 -106q-147 0 -250.5 89.5t-103.5 233.5q0 130 83 203.5t257 118.5l282 73q-12 101 -147 101q-66 0 -109.5 -30t-56.5 -87l-293 70
q37 144 165.5 223.5t305.5 79.5q217 0 338 -99.5t121 -279.5v-676h-318zM707 1155q-47 0 -92 19t-82 38t-64 19q-33 0 -55 -20t-23 -56l-170 23q0 116 56 199t155 83q47 0 92 -19t81.5 -38t64.5 -19q75 0 78 76l170 -22q0 -116 -56 -199.5t-155 -83.5z" />
    <glyph glyph-name="adieresis" unicode="&#xe4;" horiz-adv-x="1126" 
d="M508 236q52 0 125 40l57 35l2 166l-147 -41q-79 -21 -112.5 -45t-33.5 -65q0 -44 33 -67t76 -23zM696 88l-2 -2q-124 -106 -270 -106q-147 0 -250.5 89.5t-103.5 233.5q0 130 83 203.5t257 118.5l282 73q-12 101 -147 101q-66 0 -109.5 -30t-56.5 -87l-293 70
q37 144 165.5 223.5t305.5 79.5q217 0 338 -99.5t121 -279.5v-676h-318zM797 1143q-66 0 -114 48t-48 114t48 113.5t114 47.5q67 0 114 -47.5t47 -113.5t-47 -114t-114 -48zM342 1143q-66 0 -114 48t-48 114t48 113.5t114 47.5q67 0 114.5 -47.5t47.5 -113.5t-47.5 -114
t-114.5 -48z" />
    <glyph glyph-name="aring" unicode="&#xe5;" horiz-adv-x="1126" 
d="M508 236q52 0 125 40l57 35l2 166l-147 -41q-79 -21 -112.5 -45t-33.5 -65q0 -44 33 -67t76 -23zM696 88l-2 -2q-124 -106 -270 -106q-147 0 -250.5 89.5t-103.5 233.5q0 130 83 203.5t257 118.5l282 73q-12 101 -147 101q-66 0 -109.5 -30t-56.5 -87l-293 70
q37 144 165.5 223.5t305.5 79.5q217 0 338 -99.5t121 -279.5v-676h-318zM569 1110q-80 0 -136 54.5t-56 133.5t56 134t136 55t136.5 -55t56.5 -134t-56.5 -133.5t-136.5 -54.5zM569 1227q30 0 51 20.5t21 50.5t-21 51t-51 21q-29 0 -50 -21t-21 -51t20.5 -50.5t50.5 -20.5z
" />
    <glyph glyph-name="ae" unicode="&#xe6;" horiz-adv-x="1771" 
d="M1198 801q-69 0 -121 -43t-59 -125h358q-1 83 -52.5 125.5t-125.5 42.5zM508 236q52 0 125 40l80 48q-24 74 -27 151l-141 -39q-79 -21 -112.5 -45t-33.5 -65q0 -44 33 -67t76 -23zM1477 362l223 -149q-135 -236 -471 -236q-112 0 -214.5 37.5t-176.5 108.5l-23 -14
q-98 -66 -189 -97.5t-202 -31.5q-147 0 -250.5 89.5t-103.5 233.5q0 130 83 203.5t257 118.5l280 71q-6 50 -44.5 76.5t-102.5 26.5t-107.5 -30.5t-56.5 -86.5l-293 70q37 144 165.5 223.5t305.5 79.5q218 0 332 -105q136 103 319 103q105 0 196.5 -36.5t157.5 -102
t105 -162t41 -211.5q2 -72 2 -109h-698q7 -91 72.5 -146t160.5 -55q152 0 232 131z" />
    <glyph glyph-name="ccedilla" unicode="&#xe7;" horiz-adv-x="1118" 
d="M582 -23q-99 0 -190.5 34.5t-166 100t-119.5 171t-45 235.5q0 128 45 232t120 169t167 99.5t191 34.5q198 0 327 -97q125 -93 160 -235l-311 -84q-38 123 -170 123q-80 0 -136.5 -63t-56.5 -179q0 -118 57 -183t138 -65q70 0 115.5 38.5t68.5 99.5l301 -105
q-54 -161 -185.5 -243.5t-309.5 -82.5zM559 -459q-86 0 -172 21l39 145q74 -18 119 -18q40 0 65 14t25 39q0 29 -27 43t-69 14q-18 0 -53 -4t-40 -4l52 240h178l-39 -101q77 -2 132.5 -48t55.5 -136q0 -101 -71.5 -153t-194.5 -52z" />
    <glyph glyph-name="egrave" unicode="&#xe8;" horiz-adv-x="1148" 
d="M575 801q-69 0 -121 -43t-59 -125h359q-1 83 -53 125.5t-126 42.5zM854 362l223 -149q-135 -236 -471 -236q-109 0 -206 34.5t-173 99.5t-121 169.5t-45 235.5q0 124 43.5 227t116.5 170t167.5 103.5t197.5 36.5q141 0 253 -62t177.5 -179t68.5 -271q2 -72 2 -109h-698
q7 -91 73 -146t161 -55q151 0 231 131zM737 1139h-264l-237 291v4h374l127 -291v-4z" />
    <glyph glyph-name="eacute" unicode="&#xe9;" horiz-adv-x="1148" 
d="M575 801q-69 0 -121 -43t-59 -125h359q-1 83 -53 125.5t-126 42.5zM854 362l223 -149q-135 -236 -471 -236q-109 0 -206 34.5t-173 99.5t-121 169.5t-45 235.5q0 124 43.5 227t116.5 170t167.5 103.5t197.5 36.5q141 0 253 -62t177.5 -179t68.5 -271q2 -72 2 -109h-698
q7 -91 73 -146t161 -55q151 0 231 131zM711 1139h-265v4l127 291h375v-4z" />
    <glyph glyph-name="ecircumflex" unicode="&#xea;" horiz-adv-x="1148" 
d="M575 801q-69 0 -121 -43t-59 -125h359q-1 83 -53 125.5t-126 42.5zM854 362l223 -149q-135 -236 -471 -236q-109 0 -206 34.5t-173 99.5t-121 169.5t-45 235.5q0 124 43.5 227t116.5 170t167.5 103.5t197.5 36.5q141 0 253 -62t177.5 -179t68.5 -271q2 -72 2 -109h-698
q7 -91 73 -146t161 -55q151 0 231 131zM580 1262l-293 -162v237l301 174l297 -174v-237z" />
    <glyph glyph-name="edieresis" unicode="&#xeb;" horiz-adv-x="1148" 
d="M575 801q-69 0 -121 -43t-59 -125h359q-1 83 -53 125.5t-126 42.5zM854 362l223 -149q-135 -236 -471 -236q-109 0 -206 34.5t-173 99.5t-121 169.5t-45 235.5q0 124 43.5 227t116.5 170t167.5 103.5t197.5 36.5q141 0 253 -62t177.5 -179t68.5 -271q2 -72 2 -109h-698
q7 -91 73 -146t161 -55q151 0 231 131zM811 1143q-66 0 -114 48t-48 114t48 113.5t114 47.5q67 0 114.5 -47.5t47.5 -113.5t-47.5 -114t-114.5 -48zM356 1143q-66 0 -113.5 48t-47.5 114t47.5 113.5t113.5 47.5q67 0 114.5 -47.5t47.5 -113.5t-47.5 -114t-114.5 -48z" />
    <glyph glyph-name="igrave" unicode="&#xec;" 
d="M455 0h-332v1024h332v-1024zM442 1139h-264l-237 291v4h374l127 -291v-4z" />
    <glyph glyph-name="iacute" unicode="&#xed;" 
d="M455 0h-332v1024h332v-1024zM416 1139h-264v4l127 291h374v-4z" />
    <glyph glyph-name="icircumflex" unicode="&#xee;" 
d="M455 0h-332v1024h332v-1024zM285 1262l-293 -162v237l301 174l297 -174v-237z" />
    <glyph glyph-name="idieresis" unicode="&#xef;" 
d="M455 0h-332v1024h332v-1024zM475 1165q-60 0 -102.5 43t-42.5 103t42.5 102.5t102.5 42.5t103 -42.5t43 -102.5t-43 -103t-103 -43zM102 1165q-60 0 -102.5 43t-42.5 103t42.5 102.5t102.5 42.5t103 -42.5t43 -102.5t-43 -103t-103 -43z" />
    <glyph glyph-name="eth" unicode="&#xf0;" horiz-adv-x="1181" 
d="M588 -20q-103 0 -196 32.5t-165.5 93.5t-115.5 158t-43 217q0 117 39.5 212t107 155.5t154 92.5t182.5 32q66 0 135 -29q-21 49 -74 117l-28 35q-29 35 -45 51l-293 -107l-53 148l227 82q-107 104 -223 200h432l90 -92l217 80l53 -147l-158 -58q118 -142 185 -274
q100 -198 100 -461q0 -258 -147 -399q-145 -139 -381 -139zM592 270q80 0 135 55.5t55 155.5q0 99 -55.5 154t-134.5 55q-80 0 -134.5 -55t-54.5 -154t55.5 -155t133.5 -56z" />
    <glyph glyph-name="ntilde" unicode="&#xf1;" horiz-adv-x="1222" 
d="M623 754q-52 0 -97.5 -28.5t-70.5 -82.5v-643h-332v1024h332v-113q104 138 299 138q149 0 254 -97q104 -94 104 -303v-649h-332v578q0 176 -157 176zM762 1155q-47 0 -92 19t-82 38t-64 19q-33 0 -55 -20t-23 -56l-170 23q0 116 56 199t155 83q47 0 92 -19t81.5 -38
t64.5 -19q75 0 78 76l170 -22q0 -116 -56 -199.5t-155 -83.5z" />
    <glyph glyph-name="ograve" unicode="&#xf2;" horiz-adv-x="1196" 
d="M598 -23q-103 0 -198 34.5t-171.5 99.5t-122 170.5t-45.5 236.5q0 128 46.5 232t124 169t172 99.5t194.5 34.5q103 0 198 -34t171.5 -98.5t122 -169t45.5 -233.5q0 -104 -30.5 -193.5t-83 -152t-121.5 -107.5t-145.5 -66.5t-156.5 -21.5zM598 268q82 0 141.5 65t59.5 185
q0 116 -59.5 180t-141.5 64t-141.5 -64t-59.5 -180q0 -118 60 -184t141 -66zM752 1139h-265l-237 291v4h375l127 -291v-4z" />
    <glyph glyph-name="oacute" unicode="&#xf3;" horiz-adv-x="1196" 
d="M598 -23q-103 0 -198 34.5t-171.5 99.5t-122 170.5t-45.5 236.5q0 128 46.5 232t124 169t172 99.5t194.5 34.5q103 0 198 -34t171.5 -98.5t122 -169t45.5 -233.5q0 -104 -30.5 -193.5t-83 -152t-121.5 -107.5t-145.5 -66.5t-156.5 -21.5zM598 268q82 0 141.5 65t59.5 185
q0 116 -59.5 180t-141.5 64t-141.5 -64t-59.5 -180q0 -118 60 -184t141 -66zM725 1139h-264v4l127 291h375v-4z" />
    <glyph glyph-name="ocircumflex" unicode="&#xf4;" horiz-adv-x="1196" 
d="M598 -23q-103 0 -198 34.5t-171.5 99.5t-122 170.5t-45.5 236.5q0 128 46.5 232t124 169t172 99.5t194.5 34.5q103 0 198 -34t171.5 -98.5t122 -169t45.5 -233.5q0 -104 -30.5 -193.5t-83 -152t-121.5 -107.5t-145.5 -66.5t-156.5 -21.5zM598 268q82 0 141.5 65t59.5 185
q0 116 -59.5 180t-141.5 64t-141.5 -64t-59.5 -180q0 -118 60 -184t141 -66zM594 1262l-293 -162v237l301 174l297 -174v-237z" />
    <glyph glyph-name="otilde" unicode="&#xf5;" horiz-adv-x="1196" 
d="M598 -23q-103 0 -198 34.5t-171.5 99.5t-122 170.5t-45.5 236.5q0 128 46.5 232t124 169t172 99.5t194.5 34.5q103 0 198 -34t171.5 -98.5t122 -169t45.5 -233.5q0 -104 -30.5 -193.5t-83 -152t-121.5 -107.5t-145.5 -66.5t-156.5 -21.5zM598 268q82 0 141.5 65t59.5 185
q0 116 -59.5 180t-141.5 64t-141.5 -64t-59.5 -180q0 -118 60 -184t141 -66zM735 1155q-47 0 -91.5 19t-81.5 38t-64 19q-33 0 -55 -20t-23 -56l-170 23q0 116 56 199t155 83q47 0 91.5 -19t81 -38t64.5 -19q75 0 78 76l170 -22q0 -116 -56 -199.5t-155 -83.5z" />
    <glyph glyph-name="odieresis" unicode="&#xf6;" horiz-adv-x="1196" 
d="M598 -23q-103 0 -198 34.5t-171.5 99.5t-122 170.5t-45.5 236.5q0 128 46.5 232t124 169t172 99.5t194.5 34.5q103 0 198 -34t171.5 -98.5t122 -169t45.5 -233.5q0 -104 -30.5 -193.5t-83 -152t-121.5 -107.5t-145.5 -66.5t-156.5 -21.5zM598 268q82 0 141.5 65t59.5 185
q0 116 -59.5 180t-141.5 64t-141.5 -64t-59.5 -180q0 -118 60 -184t141 -66zM825 1143q-66 0 -113.5 48t-47.5 114t47.5 113.5t113.5 47.5q67 0 114.5 -47.5t47.5 -113.5t-47.5 -114t-114.5 -48zM371 1143q-66 0 -114 48t-48 114t48 113.5t114 47.5q67 0 114 -47.5
t47 -113.5t-47 -114t-114 -48z" />
    <glyph glyph-name="divide" unicode="&#xf7;" horiz-adv-x="1196" 
d="M598 952q-85 0 -144 60t-59 145q0 81 60 141q59 62 143 62t143 -62q60 -60 60 -141q0 -85 -59 -145t-144 -60zM598 45q-85 0 -144 60t-59 145q0 81 60 141q59 62 143 62t143 -62q60 -60 60 -141q0 -85 -59 -145t-144 -60zM1114 559h-1032v287h1032v-287z" />
    <glyph glyph-name="oslash" unicode="&#xf8;" horiz-adv-x="1196" 
d="M397 518q0 -76 27 -135l233 369q-30 10 -59 10q-82 0 -141.5 -64t-59.5 -180zM598 268q82 0 141.5 65t59.5 185q0 72 -25 127l-233 -369q24 -8 57 -8zM598 -23q-116 0 -219 41l-78 -120h-184l127 200q-85 71 -134 177.5t-49 242.5q0 128 46.5 232t124 169t172 99.5
t194.5 34.5q115 0 223 -43l74 116h184l-123 -194q179 -152 179 -414q0 -104 -30.5 -193.5t-83 -152t-121.5 -107.5t-145.5 -66.5t-156.5 -21.5z" />
    <glyph glyph-name="ugrave" unicode="&#xf9;" horiz-adv-x="1212" 
d="M1090 0h-332v117q-104 -137 -295 -137q-151 0 -252 94q-100 93 -100 297v653h331v-580q0 -88 43 -129t111 -41q46 0 89.5 27.5t72.5 77.5v645h332v-1024zM754 1139h-265l-237 291v4h375l127 -291v-4z" />
    <glyph glyph-name="uacute" unicode="&#xfa;" horiz-adv-x="1212" 
d="M1090 0h-332v117q-104 -137 -295 -137q-151 0 -252 94q-100 93 -100 297v653h331v-580q0 -88 43 -129t111 -41q46 0 89.5 27.5t72.5 77.5v645h332v-1024zM727 1139h-264v4l127 291h375v-4z" />
    <glyph glyph-name="ucircumflex" unicode="&#xfb;" horiz-adv-x="1212" 
d="M1090 0h-332v117q-104 -137 -295 -137q-151 0 -252 94q-100 93 -100 297v653h331v-580q0 -88 43 -129t111 -41q46 0 89.5 27.5t72.5 77.5v645h332v-1024zM596 1262l-293 -162v237l301 174l297 -174v-237z" />
    <glyph glyph-name="udieresis" unicode="&#xfc;" horiz-adv-x="1212" 
d="M1090 0h-332v117q-104 -137 -295 -137q-151 0 -252 94q-100 93 -100 297v653h331v-580q0 -88 43 -129t111 -41q46 0 89.5 27.5t72.5 77.5v645h332v-1024zM827 1143q-66 0 -113.5 48t-47.5 114t47.5 113.5t113.5 47.5q67 0 114.5 -47.5t47.5 -113.5t-47.5 -114t-114.5 -48
zM373 1143q-66 0 -114 48t-48 114t48 113.5t114 47.5q67 0 114.5 -47.5t47.5 -113.5t-47.5 -114t-114.5 -48z" />
    <glyph glyph-name="yacute" unicode="&#xfd;" horiz-adv-x="1048" 
d="M1047 1024l-588 -1413h-320l232 575l-369 838h336l199 -485l186 485h324zM664 1139h-265v4l127 291h375v-4z" />
    <glyph glyph-name="thorn" unicode="&#xfe;" horiz-adv-x="1230" 
d="M631 279q82 0 138 58.5t56 178.5t-56 178t-138 58q-75 0 -124.5 -47t-51.5 -119v-135q1 -75 51.5 -123.5t124.5 -48.5zM696 -16q-132 0 -241 88v-461h-332v1859h332v-499q92 76 241 76q91 0 172.5 -33t148 -96t105.5 -167t39 -235q0 -106 -26.5 -195t-71.5 -150.5
t-104.5 -104t-126 -62.5t-136.5 -20z" />
    <glyph glyph-name="ydieresis" unicode="&#xff;" horiz-adv-x="1048" 
d="M1047 1024l-588 -1413h-320l232 575l-369 838h336l199 -485l186 485h324zM764 1143q-66 0 -114 48t-48 114t48 113.5t114 47.5q67 0 114.5 -47.5t47.5 -113.5t-47.5 -114t-114.5 -48zM309 1143q-66 0 -114 48t-48 114t48 113.5t114 47.5q67 0 114.5 -47.5t47.5 -113.5
t-47.5 -114t-114.5 -48z" />
    <glyph glyph-name="Amacron" unicode="&#x100;" horiz-adv-x="1437" 
d="M717 1067h-6l-129 -418h262zM1421 0h-372l-121 348h-430l-121 -348h-361l502 1434h402zM997 1597h-557v222h557v-222z" />
    <glyph glyph-name="amacron" unicode="&#x101;" horiz-adv-x="1126" 
d="M508 236q52 0 125 40l57 35l2 166l-147 -41q-79 -21 -112.5 -45t-33.5 -65q0 -44 33 -67t76 -23zM696 88l-2 -2q-124 -106 -270 -106q-147 0 -250.5 89.5t-103.5 233.5q0 130 83 203.5t257 118.5l282 73q-12 101 -147 101q-66 0 -109.5 -30t-56.5 -87l-293 70
q37 144 165.5 223.5t305.5 79.5q217 0 338 -99.5t121 -279.5v-676h-318zM827 1188h-516v213h516v-213z" />
    <glyph glyph-name="Abreve" unicode="&#x102;" horiz-adv-x="1437" 
d="M717 1067h-6l-129 -418h262zM1421 0h-372l-121 348h-430l-121 -348h-361l502 1434h402zM719 1540q-161 0 -250.5 80.5t-97.5 222.5h209q5 -52 41 -81t98 -29q129 0 139 110h209q-8 -142 -99 -222.5t-249 -80.5z" />
    <glyph glyph-name="abreve" unicode="&#x103;" horiz-adv-x="1126" 
d="M508 236q52 0 125 40l57 35l2 166l-147 -41q-79 -21 -112.5 -45t-33.5 -65q0 -44 33 -67t76 -23zM696 88l-2 -2q-124 -106 -270 -106q-147 0 -250.5 89.5t-103.5 233.5q0 130 83 203.5t257 118.5l282 73q-12 101 -147 101q-66 0 -109.5 -30t-56.5 -87l-293 70
q37 144 165.5 223.5t305.5 79.5q217 0 338 -99.5t121 -279.5v-676h-318zM569 1141q-142 0 -229.5 78.5t-93.5 214.5h200q0 -50 35 -79.5t88 -29.5t88 29.5t35 79.5h201q-7 -137 -96 -215t-228 -78z" />
    <glyph glyph-name="Aogonek" unicode="&#x104;" horiz-adv-x="1437" 
d="M717 1067h-6l-129 -418h262zM1421 0h-372l-121 348h-430l-121 -348h-361l502 1434h402zM1251 -414q-102 0 -169.5 49t-67.5 134q0 80 56 145t175 129l176 -43q-67 -24 -115.5 -62.5t-48.5 -84.5q0 -23 15 -36.5t39 -13.5q41 0 78 29l102 -168q-102 -78 -240 -78z" />
    <glyph glyph-name="aogonek" unicode="&#x105;" horiz-adv-x="1126" 
d="M508 236q52 0 125 40l57 35l2 166l-147 -41q-79 -21 -112.5 -45t-33.5 -65q0 -44 33 -67t76 -23zM696 88l-2 -2q-124 -106 -270 -106q-147 0 -250.5 89.5t-103.5 233.5q0 130 83 203.5t257 118.5l282 73q-12 101 -147 101q-66 0 -109.5 -30t-56.5 -87l-293 70
q37 144 165.5 223.5t305.5 79.5q217 0 338 -99.5t121 -279.5v-676h-318zM846 -414q-102 0 -170 49t-68 134q0 80 56 145t176 129l176 -43q-67 -24 -115.5 -62.5t-48.5 -84.5q0 -23 14.5 -36.5t38.5 -13.5q41 0 78 29l102 -168q-102 -78 -239 -78z" />
    <glyph glyph-name="Cacute" unicode="&#x106;" horiz-adv-x="1478" 
d="M772 -25q-110 0 -212.5 30t-191.5 92t-155 149.5t-103.5 209.5t-37.5 265q0 172 59 314.5t157.5 233t224.5 140t263 49.5q266 0 432 -135q165 -134 209 -348l-334 -72q-22 93 -94 162q-74 74 -215 74q-67 0 -129 -27.5t-111 -78.5t-78.5 -132t-29.5 -180
q0 -107 29.5 -190.5t79.5 -133.5t111.5 -76t129.5 -26q133 0 217 76.5t111 189.5l334 -72q-46 -234 -221 -374q-178 -140 -445 -140zM903 1548h-264v4l127 291h375v-4z" />
    <glyph glyph-name="cacute" unicode="&#x107;" horiz-adv-x="1118" 
d="M582 -23q-99 0 -190.5 34.5t-166 100t-119.5 171t-45 235.5q0 128 45 232t120 169t167 99.5t191 34.5q198 0 327 -97q125 -93 160 -235l-311 -84q-38 123 -170 123q-80 0 -136.5 -63t-56.5 -179q0 -118 57 -183t138 -65q70 0 115.5 38.5t68.5 99.5l301 -105
q-54 -161 -185.5 -243.5t-309.5 -82.5zM711 1139h-265v4l127 291h375v-4z" />
    <glyph glyph-name="Ccircumflex" unicode="&#x108;" horiz-adv-x="1478" 
d="M772 -25q-110 0 -212.5 30t-191.5 92t-155 149.5t-103.5 209.5t-37.5 265q0 172 59 314.5t157.5 233t224.5 140t263 49.5q266 0 432 -135q165 -134 209 -348l-334 -72q-22 93 -94 162q-74 74 -215 74q-67 0 -129 -27.5t-111 -78.5t-78.5 -132t-29.5 -180
q0 -107 29.5 -190.5t79.5 -133.5t111.5 -76t129.5 -26q133 0 217 76.5t111 189.5l334 -72q-46 -234 -221 -374q-178 -140 -445 -140zM770 1679l-313 -161v237l321 174l318 -174v-237z" />
    <glyph glyph-name="ccircumflex" unicode="&#x109;" horiz-adv-x="1118" 
d="M582 -23q-99 0 -190.5 34.5t-166 100t-119.5 171t-45 235.5q0 128 45 232t120 169t167 99.5t191 34.5q198 0 327 -97q125 -93 160 -235l-311 -84q-38 123 -170 123q-80 0 -136.5 -63t-56.5 -179q0 -118 57 -183t138 -65q70 0 115.5 38.5t68.5 99.5l301 -105
q-54 -161 -185.5 -243.5t-309.5 -82.5zM580 1262l-293 -162v237l301 174l297 -174v-237z" />
    <glyph glyph-name="Cdotaccent" unicode="&#x10a;" horiz-adv-x="1478" 
d="M772 -25q-110 0 -212.5 30t-191.5 92t-155 149.5t-103.5 209.5t-37.5 265q0 172 59 314.5t157.5 233t224.5 140t263 49.5q266 0 432 -135q165 -134 209 -348l-334 -72q-22 93 -94 162q-74 74 -215 74q-67 0 -129 -27.5t-111 -78.5t-78.5 -132t-29.5 -180
q0 -107 29.5 -190.5t79.5 -133.5t111.5 -76t129.5 -26q133 0 217 76.5t111 189.5l334 -72q-46 -234 -221 -374q-178 -140 -445 -140zM776 1556q-75 0 -124.5 51t-49.5 126q0 74 50.5 125t123.5 51q74 0 124 -51t50 -125q0 -75 -50 -126t-124 -51z" />
    <glyph glyph-name="cdotaccent" unicode="&#x10b;" horiz-adv-x="1118" 
d="M582 -23q-99 0 -190.5 34.5t-166 100t-119.5 171t-45 235.5q0 128 45 232t120 169t167 99.5t191 34.5q198 0 327 -97q125 -93 160 -235l-311 -84q-38 123 -170 123q-80 0 -136.5 -63t-56.5 -179q0 -118 57 -183t138 -65q70 0 115.5 38.5t68.5 99.5l301 -105
q-54 -161 -185.5 -243.5t-309.5 -82.5zM584 1147q-75 0 -124.5 50.5t-49.5 125.5q0 74 50.5 125t123.5 51q74 0 124 -51t50 -125q0 -75 -50 -125.5t-124 -50.5z" />
    <glyph glyph-name="Ccaron" unicode="&#x10c;" horiz-adv-x="1478" 
d="M772 -25q-110 0 -212.5 30t-191.5 92t-155 149.5t-103.5 209.5t-37.5 265q0 172 59 314.5t157.5 233t224.5 140t263 49.5q266 0 432 -135q165 -134 209 -348l-334 -72q-22 93 -94 162q-74 74 -215 74q-67 0 -129 -27.5t-111 -78.5t-78.5 -132t-29.5 -180
q0 -107 29.5 -190.5t79.5 -133.5t111.5 -76t129.5 -26q133 0 217 76.5t111 189.5l334 -72q-46 -234 -221 -374q-178 -140 -445 -140zM778 1776l314 161v-237l-322 -174l-317 174v237z" />
    <glyph glyph-name="ccaron" unicode="&#x10d;" horiz-adv-x="1118" 
d="M582 -23q-99 0 -190.5 34.5t-166 100t-119.5 171t-45 235.5q0 128 45 232t120 169t167 99.5t191 34.5q198 0 327 -97q125 -93 160 -235l-311 -84q-38 123 -170 123q-80 0 -136.5 -63t-56.5 -179q0 -118 57 -183t138 -65q70 0 115.5 38.5t68.5 99.5l301 -105
q-54 -161 -185.5 -243.5t-309.5 -82.5zM590 1350l293 161v-237l-301 -174l-297 174v237z" />
    <glyph glyph-name="Dcaron" unicode="&#x10e;" horiz-adv-x="1431" 
d="M659 0h-520v1434h525q110 0 209.5 -25t189 -80t155 -136t104 -201t38.5 -267q0 -148 -39 -270.5t-105.5 -205.5t-157 -140t-190.5 -83t-209 -26zM481 1130v-827h162q172 0 266.5 109.5t94.5 312.5q0 189 -98.5 297t-268.5 108h-156zM633 1776l313 161v-237l-321 -174
l-318 174v237z" />
    <glyph glyph-name="dcaron" unicode="&#x10f;" horiz-adv-x="1230" 
d="M1464 1126h-274l86 344h303zM600 279q74 0 124.5 48.5t51.5 123.5v135q-2 72 -51.5 119t-124.5 47q-82 0 -138 -58t-56 -178t56 -178.5t138 -58.5zM1108 0h-307v92q-113 -108 -266 -108q-70 0 -136.5 20t-126 62.5t-104.5 104t-71.5 150.5t-26.5 195q0 131 39 235
t105.5 167t148 96t172.5 33q139 0 241 -76v499h332v-1470z" />
    <glyph glyph-name="Dcroat" unicode="&#x110;" horiz-adv-x="1486" 
d="M715 0h-520v594h-164v272h164v568h524q110 0 209.5 -25t189 -80t155 -136t104 -201t38.5 -267q0 -148 -39 -270.5t-105.5 -205.5t-156.5 -140t-190 -83t-209 -26zM537 594v-291h161q172 0 266.5 109.5t94.5 312.5q0 189 -98.5 297t-268.5 108h-155v-264h235v-272h-235z
" />
    <glyph glyph-name="dslash" unicode="&#x111;" horiz-adv-x="1230" 
d="M600 279q74 0 124.5 48.5t51.5 123.5v135q-2 72 -51.5 119t-124.5 47q-82 0 -138 -58t-56 -178t56 -178.5t138 -58.5zM1108 0h-307v92q-113 -108 -266 -108q-70 0 -136.5 20t-126 62.5t-104.5 104t-71.5 150.5t-26.5 195q0 131 39 235t105.5 167t148 96t172.5 33
q139 0 241 -76v182h-266v172h266v145h332v-145h164v-172h-164v-1153z" />
    <glyph glyph-name="Emacron" unicode="&#x112;" horiz-adv-x="1226" 
d="M481 303h664v-303h-1006v1434h994v-304h-652v-217h602v-299h-602v-311zM924 1597h-557v222h557v-222z" />
    <glyph glyph-name="emacron" unicode="&#x113;" horiz-adv-x="1148" 
d="M575 801q-69 0 -121 -43t-59 -125h359q-1 83 -53 125.5t-126 42.5zM854 362l223 -149q-135 -236 -471 -236q-109 0 -206 34.5t-173 99.5t-121 169.5t-45 235.5q0 124 43.5 227t116.5 170t167.5 103.5t197.5 36.5q141 0 253 -62t177.5 -179t68.5 -271q2 -72 2 -109h-698
q7 -91 73 -146t161 -55q151 0 231 131zM842 1188h-516v213h516v-213z" />
    <glyph glyph-name="Ebreve" unicode="&#x114;" horiz-adv-x="1226" 
d="M481 303h664v-303h-1006v1434h994v-304h-652v-217h602v-299h-602v-311zM645 1540q-161 0 -250.5 80.5t-97.5 222.5h209q5 -52 41 -81t98 -29q129 0 139 110h209q-8 -142 -99 -222.5t-249 -80.5z" />
    <glyph glyph-name="ebreve" unicode="&#x115;" horiz-adv-x="1148" 
d="M575 801q-69 0 -121 -43t-59 -125h359q-1 83 -53 125.5t-126 42.5zM854 362l223 -149q-135 -236 -471 -236q-109 0 -206 34.5t-173 99.5t-121 169.5t-45 235.5q0 124 43.5 227t116.5 170t167.5 103.5t197.5 36.5q141 0 253 -62t177.5 -179t68.5 -271q2 -72 2 -109h-698
q7 -91 73 -146t161 -55q151 0 231 131zM584 1141q-142 0 -230 78.5t-94 214.5h201q0 -50 35 -79.5t88 -29.5t88 29.5t35 79.5h200q-7 -137 -95.5 -215t-227.5 -78z" />
    <glyph glyph-name="Edotaccent" unicode="&#x116;" horiz-adv-x="1226" 
d="M481 303h664v-303h-1006v1434h994v-304h-652v-217h602v-299h-602v-311zM645 1556q-75 0 -124.5 51t-49.5 126q0 74 50.5 125t123.5 51q74 0 124 -51t50 -125q0 -75 -50 -126t-124 -51z" />
    <glyph glyph-name="edotaccent" unicode="&#x117;" horiz-adv-x="1148" 
d="M575 801q-69 0 -121 -43t-59 -125h359q-1 83 -53 125.5t-126 42.5zM854 362l223 -149q-135 -236 -471 -236q-109 0 -206 34.5t-173 99.5t-121 169.5t-45 235.5q0 124 43.5 227t116.5 170t167.5 103.5t197.5 36.5q141 0 253 -62t177.5 -179t68.5 -271q2 -72 2 -109h-698
q7 -91 73 -146t161 -55q151 0 231 131zM584 1147q-75 0 -124.5 50.5t-49.5 125.5q0 74 50.5 125t123.5 51q74 0 124 -51t50 -125q0 -75 -50 -125.5t-124 -50.5z" />
    <glyph glyph-name="Eogonek" unicode="&#x118;" horiz-adv-x="1226" 
d="M481 303h664v-303h-1006v1434h994v-304h-652v-217h602v-299h-602v-311zM975 -414q-102 0 -170 49t-68 134q0 80 56 145t176 129l176 -43q-67 -24 -115.5 -62.5t-48.5 -84.5q0 -23 14.5 -36.5t38.5 -13.5q41 0 78 29l102 -168q-102 -78 -239 -78z" />
    <glyph glyph-name="eogonek" unicode="&#x119;" horiz-adv-x="1148" 
d="M575 801q-69 0 -121 -43t-59 -125h359q-1 83 -53 125.5t-126 42.5zM944 -168l103 -168q-102 -78 -240 -78q-102 0 -170 49t-68 134q0 120 117 213q-63 -5 -80 -5q-109 0 -206 34.5t-173 99.5t-121 169.5t-45 235.5q0 124 43.5 227t116.5 170t167.5 103.5t197.5 36.5
q141 0 253 -62t177.5 -179t68.5 -271q2 -72 2 -109h-698q7 -91 73 -146t161 -55q151 0 231 131l223 -149q-61 -104 -143 -152q-121 -107 -121 -200q0 -26 16 -42t41 -16q37 0 74 29z" />
    <glyph glyph-name="Ecaron" unicode="&#x11a;" horiz-adv-x="1226" 
d="M481 303h664v-303h-1006v1434h994v-304h-652v-217h602v-299h-602v-311zM647 1776l314 161v-237l-322 -174l-317 174v237z" />
    <glyph glyph-name="ecaron" unicode="&#x11b;" horiz-adv-x="1148" 
d="M575 801q-69 0 -121 -43t-59 -125h359q-1 83 -53 125.5t-126 42.5zM854 362l223 -149q-135 -236 -471 -236q-109 0 -206 34.5t-173 99.5t-121 169.5t-45 235.5q0 124 43.5 227t116.5 170t167.5 103.5t197.5 36.5q141 0 253 -62t177.5 -179t68.5 -271q2 -72 2 -109h-698
q7 -91 73 -146t161 -55q151 0 231 131zM590 1350l293 161v-237l-301 -174l-297 174v237z" />
    <glyph glyph-name="Gcircumflex" unicode="&#x11c;" horiz-adv-x="1548" 
d="M1475 758v-74q0 -146 -39.5 -266.5t-106 -201.5t-155.5 -136t-186 -80t-200 -25q-143 0 -271 48.5t-228 139.5t-158.5 234.5t-58.5 321.5q0 174 58.5 316.5t157.5 233.5t226.5 140t269.5 49q245 0 422 -121q179 -120 238 -327l-328 -95q-28 92 -118.5 158t-213.5 66
q-70 0 -133 -27t-114 -78t-81 -132.5t-30 -182.5q0 -108 29.5 -192t80.5 -135t114.5 -77t135.5 -26q122 0 209 49.5t119 136.5h-295v283h656zM778 1679l-313 -161v237l321 174l318 -174v-237z" />
    <glyph glyph-name="gcircumflex" unicode="&#x11d;" horiz-adv-x="1077" 
d="M367 672q0 -57 40 -94t101 -37q63 0 102 37t39 94q0 52 -40.5 90.5t-100.5 38.5q-61 0 -101 -38t-40 -91zM1008 -84q0 -153 -136 -242q-131 -88 -342 -88h-32q-201 0 -334 74q-131 70 -131 219q0 156 174 221q-70 50 -70 123q0 93 103 150q-77 49 -121.5 126.5
t-44.5 174.5q0 113 63.5 198.5t161.5 126.5t213 41h2q44 0 136.5 -8t185.5 -8h213v-238l-138 2q27 -66 27 -118q0 -176 -118 -272.5t-308 -96.5q-37 0 -55.5 -12.5t-18.5 -32.5q0 -21 23.5 -30.5t83.5 -10.5l104 -2q173 -1 266 -78.5t93 -218.5zM502 -184h39q170 0 170 86
q0 47 -44 65.5t-130 18.5h-45q-166 0 -166 -88q0 -43 43 -62.5t133 -19.5zM541 1253l-293 -161v237l301 174l297 -174v-237z" />
    <glyph glyph-name="Gbreve" unicode="&#x11e;" horiz-adv-x="1548" 
d="M1475 758v-74q0 -146 -39.5 -266.5t-106 -201.5t-155.5 -136t-186 -80t-200 -25q-143 0 -271 48.5t-228 139.5t-158.5 234.5t-58.5 321.5q0 174 58.5 316.5t157.5 233.5t226.5 140t269.5 49q245 0 422 -121q179 -120 238 -327l-328 -95q-28 92 -118.5 158t-213.5 66
q-70 0 -133 -27t-114 -78t-81 -132.5t-30 -182.5q0 -108 29.5 -192t80.5 -135t114.5 -77t135.5 -26q122 0 209 49.5t119 136.5h-295v283h656zM784 1540q-161 0 -250.5 80.5t-97.5 222.5h209q5 -52 41 -81t98 -29q65 0 100 29t40 81h209q-8 -142 -99 -222.5t-250 -80.5z" />
    <glyph glyph-name="gbreve" unicode="&#x11f;" horiz-adv-x="1077" 
d="M367 672q0 -57 40 -94t101 -37q63 0 102 37t39 94q0 52 -40.5 90.5t-100.5 38.5q-61 0 -101 -38t-40 -91zM1008 -84q0 -153 -136 -242q-131 -88 -342 -88h-32q-201 0 -334 74q-131 70 -131 219q0 156 174 221q-70 50 -70 123q0 93 103 150q-77 49 -121.5 126.5
t-44.5 174.5q0 113 63.5 198.5t161.5 126.5t213 41h2q44 0 136.5 -8t185.5 -8h213v-238l-138 2q27 -66 27 -118q0 -176 -118 -272.5t-308 -96.5q-37 0 -55.5 -12.5t-18.5 -32.5q0 -21 23.5 -30.5t83.5 -10.5l104 -2q173 -1 266 -78.5t93 -218.5zM502 -184h39q170 0 170 86
q0 47 -44 65.5t-130 18.5h-45q-166 0 -166 -88q0 -43 43 -62.5t133 -19.5zM545 1133q-142 0 -230 78t-94 214h201q0 -50 35 -79t88 -29t88 29t35 79h200q-7 -137 -95.5 -214.5t-227.5 -77.5z" />
    <glyph glyph-name="Gdotaccent" unicode="&#x120;" horiz-adv-x="1548" 
d="M1475 758v-74q0 -146 -39.5 -266.5t-106 -201.5t-155.5 -136t-186 -80t-200 -25q-143 0 -271 48.5t-228 139.5t-158.5 234.5t-58.5 321.5q0 174 58.5 316.5t157.5 233.5t226.5 140t269.5 49q245 0 422 -121q179 -120 238 -327l-328 -95q-28 92 -118.5 158t-213.5 66
q-70 0 -133 -27t-114 -78t-81 -132.5t-30 -182.5q0 -108 29.5 -192t80.5 -135t114.5 -77t135.5 -26q122 0 209 49.5t119 136.5h-295v283h656zM784 1556q-75 0 -124.5 51t-49.5 126q0 74 50.5 125t123.5 51q74 0 124 -51t50 -125q0 -75 -50 -126t-124 -51z" />
    <glyph glyph-name="gdotaccent" unicode="&#x121;" horiz-adv-x="1077" 
d="M367 672q0 -57 40 -94t101 -37q63 0 102 37t39 94q0 52 -40.5 90.5t-100.5 38.5q-61 0 -101 -38t-40 -91zM1008 -84q0 -153 -136 -242q-131 -88 -342 -88h-32q-201 0 -334 74q-131 70 -131 219q0 156 174 221q-70 50 -70 123q0 93 103 150q-77 49 -121.5 126.5
t-44.5 174.5q0 113 63.5 198.5t161.5 126.5t213 41h2q44 0 136.5 -8t185.5 -8h213v-238l-138 2q27 -66 27 -118q0 -176 -118 -272.5t-308 -96.5q-37 0 -55.5 -12.5t-18.5 -32.5q0 -21 23.5 -30.5t83.5 -10.5l104 -2q173 -1 266 -78.5t93 -218.5zM502 -184h39q170 0 170 86
q0 47 -44 65.5t-130 18.5h-45q-166 0 -166 -88q0 -43 43 -62.5t133 -19.5zM545 1139q-75 0 -124.5 50.5t-49.5 125.5q0 74 50.5 125t123.5 51q74 0 124 -51t50 -125q0 -75 -50 -125.5t-124 -50.5z" />
    <glyph glyph-name="Gcommaaccent" unicode="&#x122;" horiz-adv-x="1548" 
d="M1475 758v-74q0 -146 -39.5 -266.5t-106 -201.5t-155.5 -136t-186 -80t-200 -25q-143 0 -271 48.5t-228 139.5t-158.5 234.5t-58.5 321.5q0 174 58.5 316.5t157.5 233.5t226.5 140t269.5 49q245 0 422 -121q179 -120 238 -327l-328 -95q-28 92 -118.5 158t-213.5 66
q-70 0 -133 -27t-114 -78t-81 -132.5t-30 -182.5q0 -108 29.5 -192t80.5 -135t114.5 -77t135.5 -26q122 0 209 49.5t119 136.5h-295v283h656zM827 -602h-176l86 170q-43 16 -76.5 55t-33.5 96q0 68 48.5 116t112.5 48q72 0 118 -48t46 -116q0 -79 -63 -202z" />
    <glyph glyph-name="gcommaaccent" unicode="&#x123;" horiz-adv-x="1077" 
d="M367 672q0 -57 40 -94t101 -37q63 0 102 37t39 94q0 52 -40.5 90.5t-100.5 38.5q-61 0 -101 -38t-40 -91zM1008 -84q0 -153 -136 -242q-131 -88 -342 -88h-32q-201 0 -334 74q-131 70 -131 219q0 156 174 221q-70 50 -70 123q0 93 103 150q-77 49 -121.5 126.5
t-44.5 174.5q0 113 63.5 198.5t161.5 126.5t213 41h2q44 0 136.5 -8t185.5 -8h213v-238l-138 2q27 -66 27 -118q0 -176 -118 -272.5t-308 -96.5q-37 0 -55.5 -12.5t-18.5 -32.5q0 -21 23.5 -30.5t83.5 -10.5l104 -2q173 -1 266 -78.5t93 -218.5zM502 -184h39q170 0 170 86
q0 47 -44 65.5t-130 18.5h-45q-166 0 -166 -88q0 -43 43 -62.5t133 -19.5zM510 1622h176l-86 -170q43 -16 77 -55.5t34 -96.5q0 -68 -49 -115.5t-113 -47.5q-72 0 -118 47.5t-46 115.5q0 78 64 203z" />
    <glyph glyph-name="Hcircumflex" unicode="&#x124;" horiz-adv-x="1544" 
d="M1405 0h-344v682h-578v-682h-344v1434h344v-449h578v449h344v-1434zM766 1679l-313 -161v237l321 174l318 -174v-237z" />
    <glyph glyph-name="hcircumflex" unicode="&#x125;" horiz-adv-x="1222" 
d="M623 754q-52 0 -97.5 -28.5t-70.5 -82.5v-643h-332v1470h332v-559q104 138 299 138q149 0 254 -97q104 -94 104 -303v-649h-332v578q0 176 -157 176zM668 1692l-293 -162v237l301 175l297 -175v-237z" />
    <glyph glyph-name="Hbar" unicode="&#x126;" horiz-adv-x="1572" 
d="M498 852h577v178h-577v-178zM1419 0h-344v549h-577v-549h-344v1030h-134v213h134v191h344v-191h577v191h344v-191h133v-213h-133v-1030z" />
    <glyph glyph-name="hbar" unicode="&#x127;" horiz-adv-x="1222" 
d="M623 754q-52 0 -97.5 -28.5t-70.5 -82.5v-643h-332v1153h-164v172h164v145h332v-145h266v-172h-266v-242q104 138 299 138q149 0 254 -97q104 -94 104 -303v-649h-332v578q0 176 -157 176z" />
    <glyph glyph-name="Itilde" unicode="&#x128;" horiz-adv-x="622" 
d="M483 0h-344v1434h344v-1434zM449 1565q-37 0 -73.5 11.5t-61 26t-53 26t-50.5 11.5q-33 0 -55 -19.5t-23 -55.5l-170 22q0 116 56 199.5t155 83.5q47 0 92 -19t81.5 -38t64.5 -19q74 0 77 76l170 -23q0 -117 -55.5 -199.5t-154.5 -82.5z" />
    <glyph glyph-name="itilde" unicode="&#x129;" 
d="M455 0h-332v1024h332v-1024zM426 1155q-47 0 -92 19t-82 38t-64 19q-33 0 -54.5 -20t-22.5 -56l-170 23q0 116 56 199t155 83q47 0 91.5 -19t81 -38t64.5 -19q75 0 78 76l170 -22q0 -116 -56 -199.5t-155 -83.5z" />
    <glyph glyph-name="Imacron" unicode="&#x12a;" horiz-adv-x="622" 
d="M483 0h-344v1434h344v-1434zM590 1597h-557v222h557v-222z" />
    <glyph glyph-name="imacron" unicode="&#x12b;" 
d="M455 0h-332v1024h332v-1024zM547 1188h-516v213h516v-213z" />
    <glyph glyph-name="Ibreve" unicode="&#x12c;" horiz-adv-x="622" 
d="M483 0h-344v1434h344v-1434zM311 1561q-132 0 -206 72t-80 210h192q0 -49 25.5 -77.5t68.5 -28.5t69 28.5t26 77.5h192q-7 -139 -81.5 -210.5t-205.5 -71.5z" />
    <glyph glyph-name="ibreve" unicode="&#x12d;" 
d="M455 0h-332v1024h332v-1024zM289 1151q-132 0 -206.5 72.5t-80.5 210.5h193q0 -49 25.5 -78t68.5 -29t68.5 29t25.5 78h192q-7 -139 -81.5 -211t-204.5 -72z" />
    <glyph glyph-name="Iogonek" unicode="&#x12e;" horiz-adv-x="622" 
d="M483 0h-344v1434h344v-1434zM313 -414q-102 0 -169.5 49t-67.5 134q0 80 56 145t175 129l176 -43q-67 -24 -115.5 -62.5t-48.5 -84.5q0 -23 15 -36.5t39 -13.5q41 0 78 29l102 -168q-102 -78 -240 -78z" />
    <glyph glyph-name="iogonek" unicode="&#x12f;" 
d="M289 1128q-79 0 -134 54.5t-55 132.5q0 76 55 130t134 54t133.5 -54t54.5 -130q0 -78 -54.5 -132.5t-133.5 -54.5zM455 0h-332v1024h332v-1024zM285 -414q-102 0 -170 49t-68 134q0 80 56 145t176 129l176 -43q-67 -24 -115.5 -62.5t-48.5 -84.5q0 -23 14.5 -36.5
t38.5 -13.5q41 0 78 29l102 -168q-102 -78 -239 -78z" />
    <glyph glyph-name="Idot" unicode="&#x130;" horiz-adv-x="622" 
d="M483 0h-344v1434h344v-1434zM311 1556q-75 0 -124.5 51t-49.5 126q0 74 50.5 125t123.5 51q74 0 124 -51t50 -125q0 -75 -50 -126t-124 -51z" />
    <glyph glyph-name="dotlessi" unicode="&#x131;" 
d="M455 0h-332v1024h332v-1024z" />
    <glyph glyph-name="IJ" unicode="&#x132;" horiz-adv-x="1447" 
d="M483 0h-344v1434h344v-1434zM901 -20q-87 0 -169 22t-126 57l170 277q44 -41 103 -41q45 0 67.5 27t22.5 90v1022h344v-1020q0 -214 -105 -324t-307 -110z" />
    <glyph glyph-name="ij" unicode="&#x133;" horiz-adv-x="1155" 
d="M289 1128q-79 0 -134 54.5t-55 132.5q0 76 55 130t134 54t133.5 -54t54.5 -130q0 -78 -54.5 -132.5t-133.5 -54.5zM455 0h-332v1024h332v-1024zM866 1128q-79 0 -133.5 54.5t-54.5 132.5q0 76 54.5 130t133.5 54t134 -54t55 -130q0 -78 -55 -132.5t-134 -54.5zM700 1024
h332v-1075q0 -96 -28.5 -168t-80 -114t-117.5 -62.5t-147 -20.5q-101 0 -185 28.5t-138 82.5l174 215q45 -45 104 -45q38 0 62 21t24 61v1077z" />
    <glyph glyph-name="Jcircumflex" unicode="&#x134;" horiz-adv-x="1136" 
d="M508 -20q-208 0 -340.5 111.5t-155.5 322.5l332 53q7 -75 47 -121.5t117 -46.5q154 0 154 178v957h344v-955q0 -129 -37 -226t-104.5 -156t-157 -88t-199.5 -29zM831 1679l-313 -161v237l322 174l317 -174v-237z" />
    <glyph glyph-name="jcircumflex" unicode="&#x135;" 
d="M123 1024h332v-1075q0 -96 -28.5 -168t-80 -114t-117.5 -62.5t-147 -20.5q-101 0 -185.5 28.5t-138.5 82.5l174 215q45 -45 105 -45q38 0 62 21t24 61v1077zM285 1262l-293 -162v237l301 174l297 -174v-237z" />
    <glyph glyph-name="Kcommaaccent" unicode="&#x136;" horiz-adv-x="1425" 
d="M1415 0h-399l-400 715l-135 -131v-584h-342v1434h342v-457l467 457h447l-518 -484zM745 -602h-176l86 170q-43 16 -76.5 55t-33.5 96q0 68 49 116t113 48q72 0 117.5 -48t45.5 -116q0 -79 -63 -202z" />
    <glyph glyph-name="kcommaaccent" unicode="&#x137;" horiz-adv-x="1189" 
d="M1180 0h-379l-252 483l-100 -92v-391h-326v1470h326v-729l307 283h420l-373 -340zM612 -602h-176l86 170q-43 16 -76.5 55t-33.5 96q0 68 48.5 116t112.5 48q72 0 118 -48t46 -116q0 -79 -63 -202z" />
    <glyph glyph-name="kgreenlandic" unicode="&#x138;" horiz-adv-x="1189" 
d="M1180 0h-379l-244 471l-108 -104v-367h-326v1024h326v-301l311 301h416l-369 -348z" />
    <glyph glyph-name="Lacute" unicode="&#x139;" horiz-adv-x="1118" 
d="M1077 0h-938v1434h344v-1131h594v-303zM438 1548h-264v4l127 291h375v-4z" />
    <glyph glyph-name="lacute" unicode="&#x13a;" 
d="M455 0h-332v1470h332v-1470zM416 1548h-264v4l127 291h374v-4z" />
    <glyph glyph-name="Lcommaaccent" unicode="&#x13b;" horiz-adv-x="1118" 
d="M1077 0h-938v1434h344v-1131h594v-303zM657 -602h-176l86 170q-43 16 -76.5 55t-33.5 96q0 68 48.5 116t112.5 48q72 0 118 -48t46 -116q0 -79 -63 -202z" />
    <glyph glyph-name="lcommaaccent" unicode="&#x13c;" 
d="M455 0h-332v1470h332v-1470zM326 -602h-176l86 170q-43 17 -77 55.5t-34 95.5q0 68 49 116t113 48q72 0 118 -48t46 -116q0 -77 -64 -202z" />
    <glyph glyph-name="Lcaron" unicode="&#x13d;" horiz-adv-x="1118" 
d="M1077 0h-938v1434h344v-1131h594v-303zM860 965h-176l86 170q-43 17 -77 55.5t-34 95.5q0 68 49 116t113 48q72 0 118 -48t46 -116q0 -80 -63 -203z" />
    <glyph glyph-name="lcaron" unicode="&#x13e;" 
d="M455 0h-332v1470h332v-1470zM811 1126h-274l86 344h303z" />
    <glyph glyph-name="Ldot" unicode="&#x13f;" horiz-adv-x="1126" 
d="M1077 0h-938v1434h344v-1131h594v-303zM866 580q-85 0 -143.5 59.5t-58.5 144.5q0 83 59 142q58 61 143 61q86 0 144 -61q59 -59 59 -142q0 -85 -59 -144.5t-144 -59.5z" />
    <glyph glyph-name="ldot" unicode="&#x140;" horiz-adv-x="995" 
d="M455 0h-332v1470h332v-1470zM764 543q-85 0 -144 60t-59 145q0 81 60 141q58 61 143 61t143 -61q60 -60 60 -141q0 -85 -59 -145t-144 -60z" />
    <glyph glyph-name="Lslash" unicode="&#x141;" horiz-adv-x="1157" 
d="M1112 303v-303h-938v451l-143 -66v246l143 65v738h344v-600l363 167v-245l-363 -168v-285h594z" />
    <glyph glyph-name="lslash" unicode="&#x142;" horiz-adv-x="643" 
d="M481 614v-614h-331v467l-148 -66v281l148 66v722h331v-575l160 72v-281z" />
    <glyph glyph-name="Nacute" unicode="&#x143;" horiz-adv-x="1517" 
d="M1378 0h-334l-569 838v-838h-336v1434h332l571 -850v850h336v-1434zM887 1548h-264v4l127 291h374v-4z" />
    <glyph glyph-name="nacute" unicode="&#x144;" horiz-adv-x="1222" 
d="M623 754q-52 0 -97.5 -28.5t-70.5 -82.5v-643h-332v1024h332v-113q104 138 299 138q149 0 254 -97q104 -94 104 -303v-649h-332v578q0 176 -157 176zM752 1139h-265v4l127 291h375v-4z" />
    <glyph glyph-name="Ncommaaccent" unicode="&#x145;" horiz-adv-x="1517" 
d="M1378 0h-334l-569 838v-838h-336v1434h332l571 -850v850h336v-1434zM801 -602h-176l86 170q-43 17 -77 55.5t-34 95.5q0 68 49 116t113 48q72 0 118 -48t46 -116q0 -77 -64 -202z" />
    <glyph glyph-name="ncommaaccent" unicode="&#x146;" horiz-adv-x="1222" 
d="M623 754q-52 0 -97.5 -28.5t-70.5 -82.5v-643h-332v1024h332v-113q104 138 299 138q149 0 254 -97q104 -94 104 -303v-649h-332v578q0 176 -157 176zM662 -602h-177l86 170q-43 16 -76.5 55t-33.5 96q0 68 49 116t113 48q72 0 117.5 -48t45.5 -116q0 -79 -63 -202z" />
    <glyph glyph-name="Ncaron" unicode="&#x147;" horiz-adv-x="1517" 
d="M1378 0h-334l-569 838v-838h-336v1434h332l571 -850v850h336v-1434zM762 1776l313 161v-237l-321 -174l-318 174v237z" />
    <glyph glyph-name="ncaron" unicode="&#x148;" horiz-adv-x="1222" 
d="M623 754q-52 0 -97.5 -28.5t-70.5 -82.5v-643h-332v1024h332v-113q104 138 299 138q149 0 254 -97q104 -94 104 -303v-649h-332v578q0 176 -157 176zM631 1350l293 161v-237l-301 -174l-297 174v237z" />
    <glyph glyph-name="Eng" unicode="&#x14a;" horiz-adv-x="1517" 
d="M1016 -440q-184 0 -289 94l174 217q29 -29 74 -29q67 0 67 78v82l-567 836v-838h-336v1434h332l571 -850v850h336v-1508q0 -99 -29.5 -172t-81.5 -114t-114.5 -60.5t-136.5 -19.5z" />
    <glyph glyph-name="eng" unicode="&#x14b;" horiz-adv-x="1222" 
d="M1112 649v-649q-8 -189 -116.5 -289.5t-331.5 -107.5l-35 282q151 17 151 162v531q0 176 -157 176q-52 0 -97.5 -28.5t-70.5 -82.5v-643h-332v1024h332v-113q104 138 299 138q149 0 254 -97q104 -94 104 -303z" />
    <glyph glyph-name="Omacron" unicode="&#x14c;" horiz-adv-x="1576" 
d="M788 -25q-114 0 -219 29.5t-196 91t-157.5 148.5t-105 209t-38.5 266q0 139 38.5 259t106 207t158 149t196 93t217.5 31q114 0 219.5 -30t196 -92t157.5 -148.5t105.5 -207t38.5 -261.5q0 -143 -38.5 -265t-106.5 -209t-158.5 -148.5t-195.5 -91.5t-218 -30zM788 295
q71 0 135.5 26t115.5 77t81.5 133.5t30.5 187.5q0 99 -30.5 180.5t-81.5 133t-115.5 79t-135.5 27.5q-72 0 -136 -27t-115 -78t-81 -132.5t-30 -182.5q0 -105 30 -187.5t81.5 -133.5t115.5 -77t135 -26zM1067 1597h-557v222h557v-222z" />
    <glyph glyph-name="omacron" unicode="&#x14d;" horiz-adv-x="1196" 
d="M598 -23q-103 0 -198 34.5t-171.5 99.5t-122 170.5t-45.5 236.5q0 128 46.5 232t124 169t172 99.5t194.5 34.5q103 0 198 -34t171.5 -98.5t122 -169t45.5 -233.5q0 -104 -30.5 -193.5t-83 -152t-121.5 -107.5t-145.5 -66.5t-156.5 -21.5zM598 268q82 0 141.5 65t59.5 185
q0 116 -59.5 180t-141.5 64t-141.5 -64t-59.5 -180q0 -118 60 -184t141 -66zM856 1188h-516v213h516v-213z" />
    <glyph glyph-name="Obreve" unicode="&#x14e;" horiz-adv-x="1576" 
d="M788 -25q-114 0 -219 29.5t-196 91t-157.5 148.5t-105 209t-38.5 266q0 139 38.5 259t106 207t158 149t196 93t217.5 31q114 0 219.5 -30t196 -92t157.5 -148.5t105.5 -207t38.5 -261.5q0 -143 -38.5 -265t-106.5 -209t-158.5 -148.5t-195.5 -91.5t-218 -30zM788 295
q71 0 135.5 26t115.5 77t81.5 133.5t30.5 187.5q0 99 -30.5 180.5t-81.5 133t-115.5 79t-135.5 27.5q-72 0 -136 -27t-115 -78t-81 -132.5t-30 -182.5q0 -105 30 -187.5t81.5 -133.5t115.5 -77t135 -26zM788 1540q-161 0 -250.5 80.5t-97.5 222.5h209q5 -52 41 -81t98 -29
q65 0 100 29t40 81h209q-8 -142 -99 -222.5t-250 -80.5z" />
    <glyph glyph-name="obreve" unicode="&#x14f;" horiz-adv-x="1196" 
d="M598 -23q-103 0 -198 34.5t-171.5 99.5t-122 170.5t-45.5 236.5q0 128 46.5 232t124 169t172 99.5t194.5 34.5q103 0 198 -34t171.5 -98.5t122 -169t45.5 -233.5q0 -104 -30.5 -193.5t-83 -152t-121.5 -107.5t-145.5 -66.5t-156.5 -21.5zM598 268q82 0 141.5 65t59.5 185
q0 116 -59.5 180t-141.5 64t-141.5 -64t-59.5 -180q0 -118 60 -184t141 -66zM598 1141q-142 0 -230 78.5t-94 214.5h201q0 -50 35 -79.5t88 -29.5t88 29.5t35 79.5h201q-7 -137 -96 -215t-228 -78z" />
    <glyph glyph-name="Ohungarumlaut" unicode="&#x150;" horiz-adv-x="1576" 
d="M788 -25q-114 0 -219 29.5t-196 91t-157.5 148.5t-105 209t-38.5 266q0 139 38.5 259t106 207t158 149t196 93t217.5 31q114 0 219.5 -30t196 -92t157.5 -148.5t105.5 -207t38.5 -261.5q0 -143 -38.5 -265t-106.5 -209t-158.5 -148.5t-195.5 -91.5t-218 -30zM788 295
q71 0 135.5 26t115.5 77t81.5 133.5t30.5 187.5q0 99 -30.5 180.5t-81.5 133t-115.5 79t-135.5 27.5q-72 0 -136 -27t-115 -78t-81 -132.5t-30 -182.5q0 -105 30 -187.5t81.5 -133.5t115.5 -77t135 -26zM1053 1548h-203l172 295h262zM700 1548h-194l119 295h249z" />
    <glyph glyph-name="ohungarumlaut" unicode="&#x151;" horiz-adv-x="1196" 
d="M598 -23q-103 0 -198 34.5t-171.5 99.5t-122 170.5t-45.5 236.5q0 128 46.5 232t124 169t172 99.5t194.5 34.5q103 0 198 -34t171.5 -98.5t122 -169t45.5 -233.5q0 -104 -30.5 -193.5t-83 -152t-121.5 -107.5t-145.5 -66.5t-156.5 -21.5zM598 268q82 0 141.5 65t59.5 185
q0 116 -59.5 180t-141.5 64t-141.5 -64t-59.5 -180q0 -118 60 -184t141 -66zM862 1139h-203l172 295h263zM510 1139h-195l119 295h250z" />
    <glyph glyph-name="OE" unicode="&#x152;" horiz-adv-x="2019" 
d="M780 319h152v795h-152q-72 0 -135 -25t-112.5 -73t-78 -124.5t-28.5 -172.5q0 -99 29 -177.5t79 -126t112.5 -72t133.5 -24.5zM1937 0h-1157q-143 0 -270 46t-225 133.5t-155.5 226.5t-57.5 313q0 170 58 308t156.5 225.5t225 134.5t268.5 47h1145v-304h-651v-217h602
v-299h-602v-311h663v-303z" />
    <glyph glyph-name="oe" unicode="&#x153;" horiz-adv-x="1878" 
d="M1305 801q-69 0 -121.5 -43t-59.5 -125h359q-1 83 -52.5 125.5t-125.5 42.5zM594 260q81 0 139 68t58 190q0 118 -58 185t-139 67t-139 -66t-58 -186q0 -122 58 -190t139 -68zM1583 362l223 -149q-135 -236 -471 -236q-240 0 -377 158q-137 -158 -364 -158q-83 0 -160 21
t-145 65.5t-118.5 107.5t-80 152t-29.5 195q0 128 46 232t122.5 169t170.5 99.5t194 34.5q110 0 205.5 -40.5t161.5 -115.5q63 75 155.5 115.5t198.5 40.5q105 0 196.5 -36.5t157.5 -102t105 -162t41 -211.5q2 -72 2 -109h-699q7 -91 73 -146t161 -55q151 0 231 131z" />
    <glyph glyph-name="Racute" unicode="&#x154;" horiz-adv-x="1347" 
d="M731 1130h-254v-266h256q69 0 109.5 36.5t40.5 98.5q0 57 -42.5 94t-109.5 37zM1335 0h-393l-311 571h-154v-571h-338v1434h629q199 0 332 -117t133 -307q0 -92 -26 -160.5t-85 -130.5q-53 -56 -139 -98zM739 1548h-264v4l127 291h375v-4z" />
    <glyph glyph-name="racute" unicode="&#x155;" horiz-adv-x="862" 
d="M608 741q-47 0 -90 -25t-63 -63v-653h-332v1024h332v-119q37 61 94.5 98t126.5 37q110 0 180 -49l-104 -291q-65 41 -144 41zM553 1139h-264v4l127 291h375v-4z" />
    <glyph glyph-name="Rcommaaccent" unicode="&#x156;" horiz-adv-x="1347" 
d="M731 1130h-254v-266h256q69 0 109.5 36.5t40.5 98.5q0 57 -42.5 94t-109.5 37zM1335 0h-393l-311 571h-154v-571h-338v1434h629q199 0 332 -117t133 -307q0 -92 -26 -160.5t-85 -130.5q-53 -56 -139 -98zM723 -602h-176l86 170q-43 17 -77 55.5t-34 95.5q0 68 49 116
t113 48q72 0 118 -48t46 -116q0 -77 -64 -202z" />
    <glyph glyph-name="rcommaaccent" unicode="&#x157;" horiz-adv-x="862" 
d="M608 741q-47 0 -90 -25t-63 -63v-653h-332v1024h332v-119q37 61 94.5 98t126.5 37q110 0 180 -49l-104 -291q-65 41 -144 41zM326 -602h-176l86 170q-43 17 -77 55.5t-34 95.5q0 68 49 116t113 48q72 0 118 -48t46 -116q0 -77 -64 -202z" />
    <glyph glyph-name="Rcaron" unicode="&#x158;" horiz-adv-x="1347" 
d="M731 1130h-254v-266h256q69 0 109.5 36.5t40.5 98.5q0 57 -42.5 94t-109.5 37zM1335 0h-393l-311 571h-154v-571h-338v1434h629q199 0 332 -117t133 -307q0 -92 -26 -160.5t-85 -130.5q-53 -56 -139 -98zM614 1776l314 161v-237l-322 -174l-317 174v237z" />
    <glyph glyph-name="rcaron" unicode="&#x159;" horiz-adv-x="862" 
d="M608 741q-47 0 -90 -25t-63 -63v-653h-332v1024h332v-119q37 61 94.5 98t126.5 37q110 0 180 -49l-104 -291q-65 41 -144 41zM432 1350l293 161v-237l-301 -174l-297 174v237z" />
    <glyph glyph-name="Sacute" unicode="&#x15a;" horiz-adv-x="1269" 
d="M641 -25q-267 0 -420 138q-155 140 -158 376l338 31q1 -131 70 -202.5t172 -71.5q99 0 158 41t59 112q0 65 -60 106.5t-204 80.5l-154 43q-90 25 -156.5 67t-105 95.5t-56.5 113t-18 127.5q0 189 142 307q143 119 387 119q242 0 385 -110q144 -111 147 -289v-29l-336 -33
v21q-1 81 -55 125.5t-143 44.5q-90 0 -139.5 -37t-49.5 -96q0 -47 37 -79t137 -61l179 -53q405 -122 405 -424q0 -202 -153 -334q-150 -129 -408 -129zM762 1548h-264v4l127 291h374v-4z" />
    <glyph glyph-name="sacute" unicode="&#x15b;" horiz-adv-x="997" 
d="M492 -20q-194 0 -310.5 78.5t-152.5 224.5l280 75q42 -141 183 -141q57 0 94 20.5t37 59.5q0 40 -50 62.5t-155 41.5q-348 59 -348 320q0 151 123 240q128 90 321 90q183 0 288 -76.5t140 -206.5l-280 -66q-25 113 -152 113q-57 0 -90 -22.5t-33 -59.5q0 -38 46 -56.5
t151 -33.5q78 -11 141 -34t114 -61.5t79 -97.5t28 -135q0 -151 -127 -243t-327 -92zM641 1139h-264v4l127 291h375v-4z" />
    <glyph glyph-name="Scircumflex" unicode="&#x15c;" horiz-adv-x="1269" 
d="M641 -25q-267 0 -420 138q-155 140 -158 376l338 31q1 -131 70 -202.5t172 -71.5q99 0 158 41t59 112q0 65 -60 106.5t-204 80.5l-154 43q-90 25 -156.5 67t-105 95.5t-56.5 113t-18 127.5q0 189 142 307q143 119 387 119q242 0 385 -110q144 -111 147 -289v-29l-336 -33
v21q-1 81 -55 125.5t-143 44.5q-90 0 -139.5 -37t-49.5 -96q0 -47 37 -79t137 -61l179 -53q405 -122 405 -424q0 -202 -153 -334q-150 -129 -408 -129zM629 1679l-314 -161v237l322 174l317 -174v-237z" />
    <glyph glyph-name="scircumflex" unicode="&#x15d;" horiz-adv-x="997" 
d="M492 -20q-194 0 -310.5 78.5t-152.5 224.5l280 75q42 -141 183 -141q57 0 94 20.5t37 59.5q0 40 -50 62.5t-155 41.5q-348 59 -348 320q0 151 123 240q128 90 321 90q183 0 288 -76.5t140 -206.5l-280 -66q-25 113 -152 113q-57 0 -90 -22.5t-33 -59.5q0 -38 46 -56.5
t151 -33.5q78 -11 141 -34t114 -61.5t79 -97.5t28 -135q0 -151 -127 -243t-327 -92zM510 1262l-293 -162v237l301 174l297 -174v-237z" />
    <glyph glyph-name="Scedilla" unicode="&#x15e;" horiz-adv-x="1269" 
d="M641 -25q-267 0 -420 138q-155 140 -158 376l338 31q1 -131 70 -202.5t172 -71.5q99 0 158 41t59 112q0 65 -60 106.5t-204 80.5l-154 43q-90 25 -156.5 67t-105 95.5t-56.5 113t-18 127.5q0 189 142 307q143 119 387 119q242 0 385 -110q144 -111 147 -289v-29l-336 -33
v21q-1 81 -55 125.5t-143 44.5q-90 0 -139.5 -37t-49.5 -96q0 -47 37 -79t137 -61l179 -53q405 -122 405 -424q0 -202 -153 -334q-150 -129 -408 -129zM618 -459q-86 0 -172 21l39 145q74 -18 119 -18q40 0 65 14t25 39q0 29 -27 43t-69 14q-18 0 -52.5 -4t-39.5 -4l51 240
h178l-39 -101q77 -2 133 -48t56 -136q0 -101 -72 -153t-195 -52z" />
    <glyph glyph-name="scedilla" unicode="&#x15f;" horiz-adv-x="997" 
d="M492 -20q-194 0 -310.5 78.5t-152.5 224.5l280 75q42 -141 183 -141q57 0 94 20.5t37 59.5q0 40 -50 62.5t-155 41.5q-348 59 -348 320q0 151 123 240q128 90 321 90q183 0 288 -76.5t140 -206.5l-280 -66q-25 113 -152 113q-57 0 -90 -22.5t-33 -59.5q0 -38 46 -56.5
t151 -33.5q78 -11 141 -34t114 -61.5t79 -97.5t28 -135q0 -151 -127 -243t-327 -92zM469 -459q-87 0 -172 21l39 145q74 -18 119 -18q40 0 65 14t25 39q0 29 -27 43t-69 14q-18 0 -53 -4t-40 -4l52 240h178l-39 -101q77 -2 132.5 -48t55.5 -136q0 -101 -71.5 -153
t-194.5 -52z" />
    <glyph glyph-name="Scaron" unicode="&#x160;" horiz-adv-x="1269" 
d="M641 -25q-267 0 -420 138q-155 140 -158 376l338 31q1 -131 70 -202.5t172 -71.5q99 0 158 41t59 112q0 65 -60 106.5t-204 80.5l-154 43q-90 25 -156.5 67t-105 95.5t-56.5 113t-18 127.5q0 189 142 307q143 119 387 119q242 0 385 -110q144 -111 147 -289v-29l-336 -33
v21q-1 81 -55 125.5t-143 44.5q-90 0 -139.5 -37t-49.5 -96q0 -47 37 -79t137 -61l179 -53q405 -122 405 -424q0 -202 -153 -334q-150 -129 -408 -129zM637 1776l313 161v-237l-321 -174l-318 174v237z" />
    <glyph glyph-name="scaron" unicode="&#x161;" horiz-adv-x="997" 
d="M492 -20q-194 0 -310.5 78.5t-152.5 224.5l280 75q42 -141 183 -141q57 0 94 20.5t37 59.5q0 40 -50 62.5t-155 41.5q-348 59 -348 320q0 151 123 240q128 90 321 90q183 0 288 -76.5t140 -206.5l-280 -66q-25 113 -152 113q-57 0 -90 -22.5t-33 -59.5q0 -38 46 -56.5
t151 -33.5q78 -11 141 -34t114 -61.5t79 -97.5t28 -135q0 -151 -127 -243t-327 -92zM520 1350l293 161v-237l-301 -174l-297 174v237z" />
    <glyph glyph-name="Tcaron" unicode="&#x164;" horiz-adv-x="1249" 
d="M1208 1434v-304h-411v-1130h-344v1130h-412v304h1167zM627 1776l313 161v-237l-322 -174l-317 174v237z" />
    <glyph glyph-name="tcaron" unicode="&#x165;" horiz-adv-x="776" 
d="M844 1137h-275l86 333h303zM655 291l109 -217q-111 -86 -275 -86q-149 0 -240 85t-91 251l2 428h-144v272h146v266h321v-266h238v-272h-240v-394q0 -59 21.5 -80.5t62.5 -21.5q37 0 90 35z" />
    <glyph glyph-name="Tbar" unicode="&#x166;" horiz-adv-x="1249" 
d="M1071 852v-272h-274v-580h-344v580h-275v272h275v278h-412v304h1167v-304h-411v-278h274z" />
    <glyph glyph-name="tbar" unicode="&#x167;" horiz-adv-x="792" 
d="M664 291l108 -217q-111 -86 -274 -86q-149 0 -240.5 85t-91.5 251v84h-141v219h143v125h-143v272h145v266h322v-266h237v-272h-240v-125h240v-219h-240v-50q0 -59 21.5 -80.5t62.5 -21.5q39 0 91 35z" />
    <glyph glyph-name="Utilde" unicode="&#x168;" horiz-adv-x="1445" 
d="M721 -25q-265 0 -430 142q-162 140 -162 436v881h344v-863q0 -129 67 -202.5t183 -73.5q118 0 184 72t66 202v865h344v-879q0 -284 -160.5 -432t-435.5 -148zM860 1565q-47 0 -91.5 18.5t-81.5 37.5t-64 19q-33 0 -55 -19.5t-23 -55.5l-170 22q0 116 56 199.5t155 83.5
q47 0 91.5 -19t81 -38t64.5 -19q75 0 78 76l170 -23q0 -116 -56 -199t-155 -83z" />
    <glyph glyph-name="utilde" unicode="&#x169;" horiz-adv-x="1212" 
d="M1090 0h-332v117q-104 -137 -295 -137q-151 0 -252 94q-100 93 -100 297v653h331v-580q0 -88 43 -129t111 -41q46 0 89.5 27.5t72.5 77.5v645h332v-1024zM737 1155q-47 0 -91.5 19t-81.5 38t-64 19q-33 0 -55 -20t-23 -56l-170 23q0 116 56 199t155 83q47 0 91.5 -19
t81 -38t64.5 -19q75 0 78 76l170 -22q0 -116 -56 -199.5t-155 -83.5z" />
    <glyph glyph-name="Umacron" unicode="&#x16a;" horiz-adv-x="1445" 
d="M721 -25q-265 0 -430 142q-162 140 -162 436v881h344v-863q0 -129 67 -202.5t183 -73.5q118 0 184 72t66 202v865h344v-879q0 -284 -160.5 -432t-435.5 -148zM1001 1597h-557v222h557v-222z" />
    <glyph glyph-name="umacron" unicode="&#x16b;" horiz-adv-x="1212" 
d="M1090 0h-332v117q-104 -137 -295 -137q-151 0 -252 94q-100 93 -100 297v653h331v-580q0 -88 43 -129t111 -41q46 0 89.5 27.5t72.5 77.5v645h332v-1024zM858 1188h-516v213h516v-213z" />
    <glyph glyph-name="Ubreve" unicode="&#x16c;" horiz-adv-x="1445" 
d="M721 -25q-265 0 -430 142q-162 140 -162 436v881h344v-863q0 -129 67 -202.5t183 -73.5q118 0 184 72t66 202v865h344v-879q0 -284 -160.5 -432t-435.5 -148zM723 1540q-161 0 -250.5 80.5t-97.5 222.5h209q5 -52 41 -81t98 -29q129 0 139 110h209q-8 -142 -99 -222.5
t-249 -80.5z" />
    <glyph glyph-name="ubreve" unicode="&#x16d;" horiz-adv-x="1212" 
d="M1090 0h-332v117q-104 -137 -295 -137q-151 0 -252 94q-100 93 -100 297v653h331v-580q0 -88 43 -129t111 -41q46 0 89.5 27.5t72.5 77.5v645h332v-1024zM600 1141q-142 0 -230 78.5t-94 214.5h201q0 -50 35 -79.5t88 -29.5t88 29.5t35 79.5h201q-7 -137 -96 -215
t-228 -78z" />
    <glyph glyph-name="Uring" unicode="&#x16e;" horiz-adv-x="1445" 
d="M721 -25q-265 0 -430 142q-162 140 -162 436v881h344v-863q0 -129 67 -202.5t183 -73.5q118 0 184 72t66 202v865h344v-879q0 -284 -160.5 -432t-435.5 -148zM723 1520q-80 0 -136.5 54.5t-56.5 133.5t56.5 133.5t136.5 54.5t136 -54.5t56 -133.5t-56 -133.5t-136 -54.5z
M723 1636q30 0 51 21t21 51t-21 51t-51 21t-51 -21t-21 -51t21 -51t51 -21z" />
    <glyph glyph-name="uring" unicode="&#x16f;" horiz-adv-x="1212" 
d="M1090 0h-332v117q-104 -137 -295 -137q-151 0 -252 94q-100 93 -100 297v653h331v-580q0 -88 43 -129t111 -41q46 0 89.5 27.5t72.5 77.5v645h332v-1024zM600 1110q-80 0 -136 54.5t-56 133.5t56 134t136 55t136.5 -55t56.5 -134t-56.5 -133.5t-136.5 -54.5zM600 1227
q30 0 51 20.5t21 50.5t-21 51t-51 21t-51 -21t-21 -51t21 -50.5t51 -20.5z" />
    <glyph glyph-name="Uhungarumlaut" unicode="&#x170;" horiz-adv-x="1445" 
d="M721 -25q-265 0 -430 142q-162 140 -162 436v881h344v-863q0 -129 67 -202.5t183 -73.5q118 0 184 72t66 202v865h344v-879q0 -284 -160.5 -432t-435.5 -148zM987 1548h-203l172 295h263zM635 1548h-195l119 295h250z" />
    <glyph glyph-name="uhungarumlaut" unicode="&#x171;" horiz-adv-x="1212" 
d="M1090 0h-332v117q-104 -137 -295 -137q-151 0 -252 94q-100 93 -100 297v653h331v-580q0 -88 43 -129t111 -41q46 0 89.5 27.5t72.5 77.5v645h332v-1024zM864 1139h-202l172 295h262zM512 1139h-195l119 295h250z" />
    <glyph glyph-name="Uogonek" unicode="&#x172;" horiz-adv-x="1445" 
d="M874 -414q-102 0 -169.5 49t-67.5 134q0 113 111 206h-27q-265 0 -430 142q-162 140 -162 436v881h344v-863q0 -129 67 -202.5t183 -73.5q118 0 184 72t66 202v865h344v-879q0 -187 -72 -317.5t-203 -194.5q-74 -48 -117.5 -92t-43.5 -98q0 -23 14.5 -36.5t38.5 -13.5
q41 0 78 29l102 -168q-102 -78 -240 -78z" />
    <glyph glyph-name="uogonek" unicode="&#x173;" horiz-adv-x="1212" 
d="M1090 0h-332v117q-104 -137 -295 -137q-151 0 -252 94q-100 93 -100 297v653h331v-580q0 -88 43 -129t111 -41q46 0 89.5 27.5t72.5 77.5v645h332v-1024zM920 -414q-102 0 -170 49t-68 134q0 80 56 145t175 129l177 -43q-67 -24 -115.5 -62.5t-48.5 -84.5
q0 -23 14.5 -36.5t38.5 -13.5q41 0 78 29l102 -168q-102 -78 -239 -78z" />
    <glyph glyph-name="Wcircumflex" unicode="&#x174;" horiz-adv-x="1857" 
d="M1499 0h-319l-250 596l-252 -596h-320l-333 1434h350l207 -942l252 604h202l252 -604l207 942h338zM924 1669l-314 -162v238l322 174l317 -174v-238z" />
    <glyph glyph-name="wcircumflex" unicode="&#x175;" horiz-adv-x="1529" 
d="M1223 0h-277l-182 399l-182 -399h-283l-283 1024h328l145 -588l156 373h248l149 -363l154 578h317zM762 1262l-293 -162v237l301 174l297 -174v-237z" />
    <glyph glyph-name="Ycircumflex" unicode="&#x176;" horiz-adv-x="1282" 
d="M813 739v-739h-344v739l-461 695h398l245 -383l246 383h377zM635 1669l-313 -162v238l321 174l318 -174v-238z" />
    <glyph glyph-name="ycircumflex" unicode="&#x177;" horiz-adv-x="1048" 
d="M1047 1024l-588 -1413h-320l232 575l-369 838h336l199 -485l186 485h324zM532 1262l-292 -162v237l301 174l297 -174v-237z" />
    <glyph glyph-name="Ydieresis" unicode="&#x178;" horiz-adv-x="1282" 
d="M813 739v-739h-344v739l-461 695h398l245 -383l246 383h377zM868 1542q-66 0 -113.5 48t-47.5 114t47.5 114t113.5 48q67 0 114.5 -48t47.5 -114t-47.5 -114t-114.5 -48zM414 1542q-66 0 -114 48t-48 114t48 114t114 48q67 0 114 -48t47 -114t-47 -114t-114 -48z" />
    <glyph glyph-name="Zacute" unicode="&#x179;" horiz-adv-x="1220" 
d="M1161 303v-303h-1110v242l656 888h-623v304h1055v-242l-652 -889h674zM719 1548h-264v4l127 291h374v-4z" />
    <glyph glyph-name="zacute" unicode="&#x17a;" horiz-adv-x="993" 
d="M926 272v-272h-858v205l440 547h-432v272h842v-205l-441 -547h449zM621 1139h-265v4l127 291h375v-4z" />
    <glyph glyph-name="Zdotaccent" unicode="&#x17b;" horiz-adv-x="1220" 
d="M1161 303v-303h-1110v242l656 888h-623v304h1055v-242l-652 -889h674zM592 1556q-75 0 -124.5 51t-49.5 126q0 74 50.5 125t123.5 51q74 0 124 -51t50 -125q0 -75 -50 -126t-124 -51z" />
    <glyph glyph-name="zdotaccent" unicode="&#x17c;" horiz-adv-x="993" 
d="M926 272v-272h-858v205l440 547h-432v272h842v-205l-441 -547h449zM494 1147q-75 0 -125 50.5t-50 125.5q0 74 51 125t124 51q74 0 124 -51t50 -125q0 -75 -50 -125.5t-124 -50.5z" />
    <glyph glyph-name="Zcaron" unicode="&#x17d;" horiz-adv-x="1220" 
d="M1161 303v-303h-1110v242l656 888h-623v304h1055v-242l-652 -889h674zM594 1776l313 161v-237l-321 -174l-318 174v237z" />
    <glyph glyph-name="zcaron" unicode="&#x17e;" horiz-adv-x="993" 
d="M926 272v-272h-858v205l440 547h-432v272h842v-205l-441 -547h449zM500 1350l293 161v-237l-301 -174l-297 174v237z" />
    <glyph glyph-name="florin" unicode="&#x192;" horiz-adv-x="1038" 
d="M66 -414q-110 0 -189.5 34.5t-112.5 82.5l203 201q33 -49 88 -49q76 0 92 90l142 807h-160v272h209l16 94q34 193 139 277t275 84q110 0 189 -34.5t112 -82.5l-203 -201q-33 49 -88 49q-76 0 -92 -90l-16 -96h182v-272h-231l-142 -805q-34 -193 -138.5 -277t-274.5 -84z
" />
    <glyph glyph-name="Icaron" unicode="&#x1cf;" horiz-adv-x="622" 
d="M483 0h-344v1434h344v-1434zM313 1776l314 161v-237l-322 -174l-317 174v237z" />
    <glyph glyph-name="icaron" unicode="&#x1d0;" 
d="M455 0h-332v1024h332v-1024zM295 1350l293 161v-237l-301 -174l-297 174v237z" />
    <glyph glyph-name="Aringacute" unicode="&#x1fa;" horiz-adv-x="1437" 
d="M717 1067h-6l-129 -418h262zM1421 0h-372l-121 348h-430l-121 -348h-361l502 1434h402zM719 1520q-80 0 -136.5 54.5t-56.5 133.5t56.5 133.5t136.5 54.5t136 -54.5t56 -133.5t-56 -133.5t-136 -54.5zM719 1636q30 0 51 21t21 51t-21 51t-51 21t-51 -21t-21 -51t21 -51
t51 -21zM856 1982h-264v5l127 290h375v-4z" />
    <glyph glyph-name="aringacute" unicode="&#x1fb;" horiz-adv-x="1126" 
d="M508 236q52 0 125 40l57 35l2 166l-147 -41q-79 -21 -112.5 -45t-33.5 -65q0 -44 33 -67t76 -23zM696 88l-2 -2q-124 -106 -270 -106q-147 0 -250.5 89.5t-103.5 233.5q0 130 83 203.5t257 118.5l282 73q-12 101 -147 101q-66 0 -109.5 -30t-56.5 -87l-293 70
q37 144 165.5 223.5t305.5 79.5q217 0 338 -99.5t121 -279.5v-676h-318zM569 1110q-80 0 -136 54.5t-56 133.5t56 134t136 55t136.5 -55t56.5 -134t-56.5 -133.5t-136.5 -54.5zM569 1227q30 0 51 20.5t21 50.5t-21 51t-51 21q-29 0 -50 -21t-21 -51t20.5 -50.5t50.5 -20.5z
M707 1573h-265v4l127 291h375v-4z" />
    <glyph glyph-name="AEacute" unicode="&#x1fc;" horiz-adv-x="1935" 
d="M864 1130h-30l-170 -417h225zM1853 0h-923l-25 426h-358l-172 -426h-367l596 1434h1237v-304h-641l12 -217h580v-299h-563l18 -311h606v-303zM1341 1528h-264v4l127 291h375v-4z" />
    <glyph glyph-name="aeacute" unicode="&#x1fd;" horiz-adv-x="1771" 
d="M1198 801q-69 0 -121 -43t-59 -125h358q-1 83 -52.5 125.5t-125.5 42.5zM508 236q52 0 125 40l80 48q-24 74 -27 151l-141 -39q-79 -21 -112.5 -45t-33.5 -65q0 -44 33 -67t76 -23zM1477 362l223 -149q-135 -236 -471 -236q-112 0 -214.5 37.5t-176.5 108.5l-23 -14
q-98 -66 -189 -97.5t-202 -31.5q-147 0 -250.5 89.5t-103.5 233.5q0 130 83 203.5t257 118.5l280 71q-6 50 -44.5 76.5t-102.5 26.5t-107.5 -30.5t-56.5 -86.5l-293 70q37 144 165.5 223.5t305.5 79.5q218 0 332 -105q136 103 319 103q105 0 196.5 -36.5t157.5 -102
t105 -162t41 -211.5q2 -72 2 -109h-698q7 -91 72.5 -146t160.5 -55q152 0 232 131zM1030 1139h-264v4l127 291h375v-4z" />
    <glyph glyph-name="Oslashacute" unicode="&#x1fe;" horiz-adv-x="1576" 
d="M426 719q0 -155 68 -264l434 655q-69 29 -140 29q-72 0 -136 -27t-115 -78t-81 -132.5t-30 -182.5zM788 295q71 0 135.5 26t115.5 77t81.5 133.5t30.5 187.5q0 149 -70 260l-432 -655q69 -29 139 -29zM788 -25q-177 0 -323 70l-98 -147h-242l172 258
q-106 97 -165.5 239.5t-59.5 323.5q0 139 38.5 259t106 207t158 149t196 93t217.5 31q167 0 324 -69l98 147h242l-172 -260q225 -205 225 -557q0 -143 -38.5 -265t-106.5 -209t-158.5 -148.5t-195.5 -91.5t-218 -30zM895 1548h-264v4l127 291h375v-4z" />
    <glyph glyph-name="oslashacute" unicode="&#x1ff;" horiz-adv-x="1196" 
d="M397 518q0 -76 27 -135l233 369q-30 10 -59 10q-82 0 -141.5 -64t-59.5 -180zM598 268q82 0 141.5 65t59.5 185q0 72 -25 127l-233 -369q24 -8 57 -8zM598 -23q-116 0 -219 41l-78 -120h-184l127 200q-85 71 -134 177.5t-49 242.5q0 128 46.5 232t124 169t172 99.5
t194.5 34.5q115 0 223 -43l74 116h184l-123 -194q179 -152 179 -414q0 -104 -30.5 -193.5t-83 -152t-121.5 -107.5t-145.5 -66.5t-156.5 -21.5zM717 1139h-264v4l127 291h374v-4z" />
    <glyph glyph-name="Scommaaccent" unicode="&#x218;" horiz-adv-x="1269" 
d="M641 -25q-267 0 -420 138q-155 140 -158 376l338 31q1 -131 70 -202.5t172 -71.5q99 0 158 41t59 112q0 65 -60 106.5t-204 80.5l-154 43q-90 25 -156.5 67t-105 95.5t-56.5 113t-18 127.5q0 189 142 307q143 119 387 119q242 0 385 -110q144 -111 147 -289v-29l-336 -33
v21q-1 81 -55 125.5t-143 44.5q-90 0 -139.5 -37t-49.5 -96q0 -47 37 -79t137 -61l179 -53q405 -122 405 -424q0 -202 -153 -334q-150 -129 -408 -129zM678 -602h-176l86 170q-43 17 -77 55.5t-34 95.5q0 68 49 116t113 48q72 0 118 -48t46 -116q0 -77 -64 -202z" />
    <glyph glyph-name="scommaaccent" unicode="&#x219;" horiz-adv-x="997" 
d="M492 -20q-194 0 -310.5 78.5t-152.5 224.5l280 75q42 -141 183 -141q57 0 94 20.5t37 59.5q0 40 -50 62.5t-155 41.5q-348 59 -348 320q0 151 123 240q128 90 321 90q183 0 288 -76.5t140 -206.5l-280 -66q-25 113 -152 113q-57 0 -90 -22.5t-33 -59.5q0 -38 46 -56.5
t151 -33.5q78 -11 141 -34t114 -61.5t79 -97.5t28 -135q0 -151 -127 -243t-327 -92zM528 -602h-176l86 170q-43 16 -76.5 55t-33.5 96q0 68 48.5 116t112.5 48q72 0 118 -48t46 -116q0 -79 -63 -202z" />
    <glyph glyph-name="Tcommaaccent" unicode="&#x21a;" horiz-adv-x="1249" 
d="M1208 1434v-304h-411v-1130h-344v1130h-412v304h1167zM662 -602h-177l86 170q-43 16 -76.5 55t-33.5 96q0 68 49 116t113 48q72 0 117.5 -48t45.5 -116q0 -79 -63 -202z" />
    <glyph glyph-name="tcommaaccent" unicode="&#x21b;" horiz-adv-x="776" 
d="M655 291l109 -217q-111 -86 -275 -86q-149 0 -240 85t-91 251l2 428h-144v272h146v266h321v-266h238v-272h-240v-394q0 -59 21.5 -80.5t62.5 -21.5q37 0 90 35zM471 -602h-176l86 170q-43 17 -77 55.5t-34 95.5q0 68 49 116t113 48q72 0 118 -48t46 -116q0 -77 -64 -202z
" />
    <glyph glyph-name="dotlessj" unicode="&#x237;" 
d="M123 1024h332v-1075q0 -96 -28.5 -168t-80 -114t-117.5 -62.5t-147 -20.5q-101 0 -185.5 28.5t-138.5 82.5l174 215q45 -45 105 -45q38 0 62 21t24 61v1077z" />
    <glyph glyph-name="circumflex" unicode="&#x2c6;" horiz-adv-x="802" 
d="M395 1270l-313 -162v238l321 174l318 -174v-238z" />
    <glyph glyph-name="caron" unicode="&#x2c7;" horiz-adv-x="802" 
d="M408 1366l313 162v-238l-322 -174l-317 174v238z" />
    <glyph glyph-name="breve" unicode="&#x2d8;" horiz-adv-x="819" 
d="M410 1130q-161 0 -251 81t-98 223h209q5 -52 41.5 -81.5t98.5 -29.5q64 0 99 29.5t40 81.5h209q-8 -142 -99 -223t-249 -81z" />
    <glyph glyph-name="dotaccent" unicode="&#x2d9;" horiz-adv-x="471" 
d="M236 1147q-75 0 -125 50.5t-50 125.5q0 74 51 125t124 51q74 0 124 -51t50 -125q0 -75 -50 -125.5t-124 -50.5z" />
    <glyph glyph-name="ring" unicode="&#x2da;" horiz-adv-x="507" 
d="M254 1110q-80 0 -136.5 54.5t-56.5 133.5t56.5 134t136.5 55t136 -55t56 -134t-56 -133.5t-136 -54.5zM254 1227q30 0 51 20.5t21 50.5t-21 51t-51 21t-51 -21t-21 -51t21 -50.5t51 -20.5z" />
    <glyph glyph-name="ogonek" unicode="&#x2db;" horiz-adv-x="548" 
d="M289 -414q-102 0 -170 49t-68 134q0 80 56 145t176 129l176 -43q-67 -24 -115.5 -62.5t-48.5 -84.5q0 -23 14.5 -36.5t38.5 -13.5q41 0 78 29l102 -168q-102 -78 -239 -78z" />
    <glyph glyph-name="tilde" unicode="&#x2dc;" horiz-adv-x="819" 
d="M547 1155q-47 0 -92 19t-82 38t-64 19q-33 0 -55 -20t-23 -56l-170 23q0 116 56 199t155 83q47 0 92 -19t81.5 -38t64.5 -19q75 0 78 76l170 -22q0 -116 -56 -199.5t-155 -83.5z" />
    <glyph glyph-name="hungarumlaut" unicode="&#x2dd;" horiz-adv-x="870" 
d="M608 1139h-202l172 295h262zM256 1139h-195l119 295h250z" />
    <glyph glyph-name="Wgrave" unicode="&#x1e80;" horiz-adv-x="1857" 
d="M1499 0h-319l-250 596l-252 -596h-320l-333 1434h350l207 -942l252 604h202l252 -604l207 942h338zM1083 1538h-264l-237 291v4h374l127 -291v-4z" />
    <glyph glyph-name="wgrave" unicode="&#x1e81;" horiz-adv-x="1529" 
d="M1223 0h-277l-182 399l-182 -399h-283l-283 1024h328l145 -588l156 373h248l149 -363l154 578h317zM920 1139h-265l-237 291v4h375l127 -291v-4z" />
    <glyph glyph-name="Wacute" unicode="&#x1e82;" horiz-adv-x="1857" 
d="M1499 0h-319l-250 596l-252 -596h-320l-333 1434h350l207 -942l252 604h202l252 -604l207 942h338zM1057 1538h-264v4l127 291h374v-4z" />
    <glyph glyph-name="wacute" unicode="&#x1e83;" horiz-adv-x="1529" 
d="M1223 0h-277l-182 399l-182 -399h-283l-283 1024h328l145 -588l156 373h248l149 -363l154 578h317zM893 1139h-264v4l127 291h374v-4z" />
    <glyph glyph-name="Wdieresis" unicode="&#x1e84;" horiz-adv-x="1857" 
d="M1499 0h-319l-250 596l-252 -596h-320l-333 1434h350l207 -942l252 604h202l252 -604l207 942h338zM1157 1542q-66 0 -114 48t-48 114t48 114t114 48q67 0 114.5 -48t47.5 -114t-47.5 -114t-114.5 -48zM702 1542q-66 0 -113.5 48t-47.5 114t47.5 114t113.5 48
q67 0 114.5 -48t47.5 -114t-47.5 -114t-114.5 -48z" />
    <glyph glyph-name="wdieresis" unicode="&#x1e85;" horiz-adv-x="1529" 
d="M1223 0h-277l-182 399l-182 -399h-283l-283 1024h328l145 -588l156 373h248l149 -363l154 578h317zM993 1143q-66 0 -114 48t-48 114t48 113.5t114 47.5q67 0 114.5 -47.5t47.5 -113.5t-47.5 -114t-114.5 -48zM539 1143q-66 0 -114 48t-48 114t48 113.5t114 47.5
q67 0 114 -47.5t47 -113.5t-47 -114t-114 -48z" />
    <glyph glyph-name="Ygrave" unicode="&#x1ef2;" horiz-adv-x="1282" 
d="M813 739v-739h-344v739l-461 695h398l245 -383l246 383h377zM795 1538h-265l-237 291v4h375l127 -291v-4z" />
    <glyph glyph-name="ygrave" unicode="&#x1ef3;" horiz-adv-x="1048" 
d="M1047 1024l-588 -1413h-320l232 575l-369 838h336l199 -485l186 485h324zM690 1139h-264l-238 291v4h375l127 -291v-4z" />
    <glyph glyph-name="endash" unicode="&#x2013;" horiz-adv-x="1040" 
d="M958 541h-876v245h876v-245z" />
    <glyph glyph-name="emdash" unicode="&#x2014;" horiz-adv-x="1613" 
d="M1532 541h-1450v245h1450v-245z" />
    <glyph glyph-name="quoteleft" unicode="&#x2018;" horiz-adv-x="491" 
d="M156 1434h274l-86 -488h-303z" />
    <glyph glyph-name="quoteright" unicode="&#x2019;" horiz-adv-x="491" 
d="M336 946h-275l86 488h304z" />
    <glyph glyph-name="quotesinglbase" unicode="&#x201a;" horiz-adv-x="491" 
d="M336 -141h-275l86 487h304z" />
    <glyph glyph-name="quotedblleft" unicode="&#x201c;" horiz-adv-x="876" 
d="M578 1434h237l-86 -488h-266zM156 1434h237l-86 -488h-266z" />
    <glyph glyph-name="quotedblright" unicode="&#x201d;" horiz-adv-x="876" 
d="M299 946h-238l86 488h267zM721 946h-238l86 488h267z" />
    <glyph glyph-name="quotedblbase" unicode="&#x201e;" horiz-adv-x="876" 
d="M299 -141h-238l86 487h267zM721 -141h-238l86 487h267z" />
    <glyph glyph-name="dagger" unicode="&#x2020;" horiz-adv-x="1064" 
d="M993 1106v-272h-301v-834h-319v834h-301v272h301v328h319v-328h301z" />
    <glyph glyph-name="daggerdbl" unicode="&#x2021;" horiz-adv-x="1064" 
d="M993 600v-287h-303v-313h-315v313h-303v287h303v250h-303v287h303v297h315v-297h303v-287h-303v-250h303z" />
    <glyph glyph-name="bullet" unicode="&#x2022;" horiz-adv-x="786" 
d="M393 346q-118 0 -200 82t-82 201q0 116 82 198q84 84 200 84q115 0 199 -84t84 -198q0 -117 -84 -201q-82 -82 -199 -82z" />
    <glyph glyph-name="ellipsis" unicode="&#x2026;" horiz-adv-x="1761" 
d="M295 -25q-85 0 -144 60t-59 145q0 82 60 142q58 61 143 61t143 -61q60 -60 60 -142q0 -85 -59 -145t-144 -60zM881 -25q-85 0 -144 60t-59 145q0 83 59 142q58 61 144 61q85 0 143 -61q59 -59 59 -142q0 -85 -59 -145t-143 -60zM1466 -25q-84 0 -143 60t-59 145
q0 83 59 142q58 61 143 61q86 0 144 -61q59 -59 59 -142q0 -85 -59 -145t-144 -60z" />
    <glyph glyph-name="perthousand" unicode="&#x2030;" horiz-adv-x="3051" 
d="M514 621q-172 0 -286.5 112.5t-114.5 308.5q0 189 114 302.5t287 113.5t287 -113.5t114 -302.5q0 -192 -114 -306.5t-287 -114.5zM514 858q64 0 100.5 48.5t36.5 135.5q0 81 -37.5 130t-99.5 49q-63 0 -100 -47.5t-37 -131.5q0 -87 37.5 -135.5t99.5 -48.5zM743 -25
l-211 146l893 1339l211 -145zM1653 -20q-112 0 -202 48t-145 145t-55 228q0 189 114.5 302.5t287.5 113.5t287 -113.5t114 -302.5q0 -192 -114 -306.5t-287 -114.5zM1653 217q64 0 100.5 48.5t36.5 135.5q0 81 -37.5 130t-99.5 49q-63 0 -100 -47.5t-37 -131.5
q0 -87 37.5 -135.5t99.5 -48.5zM2537 -20q-172 0 -286.5 112.5t-114.5 308.5q0 189 114 302.5t287 113.5t287.5 -113.5t114.5 -302.5q0 -192 -114.5 -306.5t-287.5 -114.5zM2537 217q64 0 101 48.5t37 135.5q0 81 -38 130t-100 49q-63 0 -100 -47.5t-37 -131.5
q0 -87 37.5 -135.5t99.5 -48.5z" />
    <glyph glyph-name="guilsinglleft" unicode="&#x2039;" horiz-adv-x="659" 
d="M608 219l-217 -176l-358 469l358 465l213 -172l-229 -289z" />
    <glyph glyph-name="guilsinglright" unicode="&#x203a;" horiz-adv-x="659" 
d="M51 801l217 176l359 -469l-359 -465l-213 172l230 289z" />
    <glyph glyph-name="fraction" unicode="&#x2044;" horiz-adv-x="489" 
d="M-96 -25l-211 146l893 1339l211 -145z" />
    <glyph glyph-name="twoinferior" unicode="&#x2082;" horiz-adv-x="800" 
d="M735 203v-203h-678v172l355 297q41 34 55 57.5t14 51.5q0 33 -22 54t-60 21q-40 0 -62 -24t-22 -62h-258q3 140 103 215q104 78 246 78q158 0 245 -84q88 -82 88 -192q0 -69 -28.5 -121.5t-100.5 -112.5l-180 -147h305z" />
    <glyph glyph-name="fourinferior" unicode="&#x2084;" horiz-adv-x="851" 
d="M823 367v-203h-125v-164h-235v164h-434v186l274 496h256l-270 -479h182v161h227v-161h125z" />
    <glyph glyph-name="Euro" unicode="&#x20ac;" horiz-adv-x="1480" 
d="M1174 418l223 -221q-178 -222 -502 -222q-225 0 -389.5 118.5t-224.5 344.5h-179v197h150q-2 16 -2 53q0 39 2 57h-150v197h181q65 225 229 338q171 115 383 115q167 0 288 -57t216 -171l-228 -211q-115 142 -276 142q-185 0 -268 -156h303v-197h-352q-3 -27 -3 -57
q0 -29 3 -53h352v-197h-309q74 -166 274 -166q90 0 155 39t124 107z" />
    <glyph glyph-name="trademark" unicode="&#x2122;" horiz-adv-x="1732" 
d="M688 1434v-226h-190v-532h-246v532h-191v226h627zM1049 676h-234v758h283l114 -195l115 195h283v-758h-234v471l-121 -199h-86l-120 199v-471z" />
    <glyph glyph-name="estimated" unicode="&#x212e;" horiz-adv-x="1660" 
d="M829 -20q-205 0 -369.5 79.5t-261 232t-96.5 351.5q0 127 39 236.5t107 187.5t159.5 134t197.5 83t220 27q331 0 526.5 -186.5t207.5 -499.5h-1160q-10 0 -15 -1.5t-9 -9t-4 -22.5v-338q0 -29 34 -66t91.5 -72t146.5 -59t186 -24q139 0 263 58t200 151h133
q-126 -137 -272.5 -199.5t-323.5 -62.5zM825 1257q-112 0 -218 -30t-171 -78t-65 -98v-340q0 -19 6.5 -26t23.5 -7h852q22 0 28.5 7t6.5 26v340q0 51 -72 99.5t-179.5 77.5t-211.5 29z" />
    <glyph glyph-name="minus" unicode="&#x2212;" horiz-adv-x="1196" 
d="M1114 559h-1032v287h1032v-287z" />
    <glyph glyph-name="approxequal" unicode="&#x2248;" horiz-adv-x="1056" 
d="M713 254q-48 0 -103.5 22t-96 48.5t-84.5 48.5t-73 22q-88 0 -100 -121l-211 39q0 65 16 124.5t49.5 112.5t93.5 84.5t140 31.5q48 0 103.5 -22t95.5 -49t84 -49t73 -22q89 0 101 121l211 -39q0 -65 -16 -124t-49.5 -112t-93.5 -84.5t-140 -31.5zM713 745
q-48 0 -103.5 22t-96 49t-84.5 49t-73 22q-88 0 -100 -121l-211 39q0 65 16 124t49.5 112t93.5 84.5t140 31.5q48 0 103.5 -22t95.5 -48.5t84 -48.5t73 -22q89 0 101 121l211 -39q0 -65 -16 -124.5t-49.5 -112.5t-93.5 -84.5t-140 -31.5z" />
    <glyph glyph-name="notequal" unicode="&#x2260;" horiz-adv-x="1208" 
d="M1106 586v-273h-537l-118 -264h-281l119 264h-187v273h310l104 233h-414v273h537l119 264h280l-118 -264h186v-273h-309l-105 -233h414z" />
    <glyph glyph-name="commaaccent" unicode="&#xf6c3;" horiz-adv-x="497" 
d="M287 -602h-176l86 170q-43 17 -77 55.5t-34 95.5q0 68 49 116t113 48q72 0 118 -48t46 -116q0 -77 -64 -202z" />
    <glyph glyph-name="thinspace" horiz-adv-x="51" 
 />
    <glyph glyph-name="registered.alt" horiz-adv-x="1679" 
d="M840 -25q-202 0 -374 98.5t-273 270t-101 375.5q0 202 101 373t273 269.5t374 98.5q151 0 289 -58.5t238.5 -157t160 -236t59.5 -289.5q0 -153 -59.5 -291t-160 -237.5t-238.5 -157.5t-289 -58zM840 141q158 0 289.5 77t206.5 209.5t75 291.5q0 157 -75 289t-206.5 209
t-289.5 77q-156 0 -287.5 -76.5t-208 -209t-76.5 -289.5q0 -158 76.5 -291t208 -210t287.5 -77zM850 934h-82v-135h82q32 0 50 18t18 49q0 27 -19.5 47.5t-48.5 20.5zM1190 336h-246l-137 299h-39v-299h-221v766h356q95 0 170 -60q74 -59 74 -170q0 -64 -32.5 -119
t-84.5 -87z" />
    <glyph glyph-name="i.TRK" 
d="M289 1128q-79 0 -134 54.5t-55 132.5q0 76 55 130t134 54t133.5 -54t54.5 -130q0 -78 -54.5 -132.5t-133.5 -54.5zM455 0h-332v1024h332v-1024z" />
    <glyph glyph-name="dieresis.i" horiz-adv-x="745" 
d="M559 1165q-60 0 -102.5 43t-42.5 103t42.5 102.5t102.5 42.5t103 -42.5t43 -102.5t-43 -103t-103 -43zM186 1165q-60 0 -102.5 43t-42.5 103t42.5 102.5t102.5 42.5t103 -42.5t43 -102.5t-43 -103t-103 -43z" />
    <glyph glyph-name="commaaccentup" horiz-adv-x="497" 
d="M211 1630h176l-86 -170q43 -17 77 -55.5t34 -95.5q0 -68 -49 -116t-113 -48q-72 0 -118 48t-46 116q0 77 64 202z" />
    <glyph glyph-name="circumflex.lc" horiz-adv-x="720" 
d="M354 1262l-293 -162v237l301 174l297 -174v-237z" />
    <glyph glyph-name="caron.lc" horiz-adv-x="720" 
d="M367 1350l292 161v-237l-301 -174l-297 174v237z" />
    <glyph glyph-name="breve.lc" horiz-adv-x="770" 
d="M385 1141q-142 0 -230 78.5t-94 214.5h201q0 -50 35 -79.5t88 -29.5t88 29.5t35 79.5h201q-7 -137 -96 -215t-228 -78z" />
    <glyph glyph-name="breve.i" horiz-adv-x="675" 
d="M338 1151q-132 0 -206.5 72.5t-80.5 210.5h193q0 -49 25.5 -78t68.5 -29t68.5 29t25.5 78h193q-7 -139 -81.5 -211t-205.5 -72z" />
    <glyph glyph-name="dieresis.lc" horiz-adv-x="880" 
d="M668 1143q-66 0 -114 48t-48 114t48 113.5t114 47.5q67 0 114 -47.5t47 -113.5t-47 -114t-114 -48zM213 1143q-66 0 -114 48t-48 114t48 113.5t114 47.5q67 0 114.5 -47.5t47.5 -113.5t-47.5 -114t-114.5 -48z" />
    <glyph glyph-name="tilde.lc" horiz-adv-x="819" 
d="M547 1155q-47 0 -92 19t-82 38t-64 19q-33 0 -55 -20t-23 -56l-170 23q0 116 56 199t155 83q47 0 92 -19t81.5 -38t64.5 -19q75 0 78 76l170 -22q0 -116 -56 -199.5t-155 -83.5z" />
    <glyph glyph-name="macron.lc" horiz-adv-x="638" 
d="M578 1188h-517v213h517v-213z" />
    <glyph glyph-name="zero.onum" horiz-adv-x="1296" 
d="M647 -23q-253 0 -409 170q-156 169 -156 510q0 165 43 295t119 212.5t178.5 125.5t224.5 43q126 0 229 -42.5t179 -125t117.5 -212.5t41.5 -296q0 -333 -152.5 -506.5t-414.5 -173.5zM647 268q113 0 168 102t55 287q0 187 -58 286t-165 99q-221 0 -221 -385
q0 -181 55 -285t166 -104z" />
    <glyph glyph-name="one.onum" horiz-adv-x="847" 
d="M705 1311v-1311h-332v958l-322 -120l-14 290l438 183h230z" />
    <glyph glyph-name="two.onum" horiz-adv-x="1099" 
d="M1040 279v-279h-987v231l527 496q65 61 89.5 103t24.5 88q0 57 -42.5 93t-110.5 36q-76 0 -120.5 -44t-43.5 -118h-320q0 140 66 243t175.5 154t248.5 51q219 0 356 -116q139 -115 139 -291q0 -97 -43.5 -180.5t-148.5 -174.5l-342 -292h532z" />
    <glyph glyph-name="three.onum" horiz-adv-x="1140" 
d="M549 -18q-79 0 -152 14.5t-139 47t-114 79.5t-76.5 116.5t-28.5 153.5h321q7 -67 60.5 -104t128.5 -37q78 0 130 40t52 107q0 69 -60.5 109.5t-160.5 40.5h-188v258h200q91 0 140 37.5t49 99.5q0 55 -45 89t-119 34q-71 0 -118.5 -34.5t-51.5 -94.5h-318q3 120 70 211
t177.5 137.5t246.5 46.5q234 0 365 -104q133 -103 133 -258q0 -187 -187 -277q98 -40 157.5 -121t59.5 -192q0 -175 -147 -289q-146 -110 -385 -110z" />
    <glyph glyph-name="four.onum" horiz-adv-x="1173" 
d="M1145 559v-270h-189v-289h-321v289h-602v250l418 772h344l-410 -752h258v234h313v-234h189z" />
    <glyph glyph-name="five.onum" horiz-adv-x="1136" 
d="M551 -23q-205 0 -336 93q-127 92 -162 225l303 96q18 -62 75.5 -101.5t121.5 -39.5q82 0 137 48t55 128q0 75 -57 126.5t-143 51.5q-58 0 -107 -23.5t-78 -54.5h-280l78 785h862v-279h-582l-24 -205q84 43 198 43q208 0 340.5 -118.5t132.5 -317.5q0 -144 -72 -249
t-191.5 -156.5t-270.5 -51.5z" />
    <glyph glyph-name="six.onum" horiz-adv-x="1204" 
d="M1141 432q0 -198 -145.5 -326.5t-368.5 -128.5q-127 0 -236.5 47t-183.5 150q-125 169 -125 434q0 431 207 609q138 116 360 116q194 0 324.5 -86t173.5 -237l-303 -74q-38 127 -199 127q-91 0 -143 -55q-70 -74 -84 -250q88 100 262 100q211 0 336 -120.5t125 -305.5z
M631 250q82 0 132 49.5t50 120.5q0 69 -52 119.5t-130 50.5q-80 0 -131 -49.5t-51 -120.5q0 -70 50 -120t132 -50z" />
    <glyph glyph-name="seven.onum" horiz-adv-x="1030" 
d="M997 1044l-534 -1044h-383l553 1032h-596v279h960v-267z" />
    <glyph glyph-name="eight.onum" horiz-adv-x="1179" 
d="M588 -23q-227 0 -372.5 112t-145.5 286q0 100 49 180t135 133q-148 97 -148 268q0 163 137.5 270t346.5 107q215 0 350 -108t135 -269q0 -80 -39 -148.5t-108 -113.5q182 -114 182 -319q0 -171 -149.5 -284.5t-372.5 -113.5zM590 1079q-73 0 -120.5 -38t-47.5 -99
q0 -60 48.5 -98.5t119.5 -38.5q74 0 122 38t48 99q0 60 -49.5 98.5t-120.5 38.5zM590 236q86 0 141 44t55 113q0 67 -57 111.5t-139 44.5q-83 0 -139 -44t-56 -112q0 -67 56.5 -112t138.5 -45z" />
    <glyph glyph-name="nine.onum" horiz-adv-x="1204" 
d="M573 1061q-82 0 -132 -49.5t-50 -120.5q0 -69 52 -119.5t130 -50.5q80 0 131.5 49.5t51.5 120.5q0 70 -50.5 120t-132.5 50zM555 -23q-194 0 -324.5 86.5t-173.5 237.5l303 74q38 -127 199 -127q91 0 143 55q70 74 84 250q-88 -100 -262 -100q-211 0 -336 120.5
t-125 305.5q0 198 146 326t369 128q278 0 419 -196q125 -169 125 -435q0 -430 -207 -608q-139 -117 -360 -117z" />
    <glyph glyph-name="Euro.onum" horiz-adv-x="1425" 
d="M1130 385l220 -205q-169 -203 -490 -203q-210 0 -373 105t-225 317h-170v181h144q-3 24 -3 49q0 29 3 53h-144v180h174q61 205 223 309q163 105 371 105q160 0 279 -52.5t213 -156.5l-224 -195q-113 129 -268 129q-179 0 -256 -139h289v-180h-338q-2 -16 -2 -53
q0 -33 2 -49h338v-181h-295q75 -147 262 -147q85 0 147.5 35.5t122.5 97.5z" />
    <glyph glyph-name="dollar.onum" horiz-adv-x="1251" 
d="M436 895q0 -44 25 -72t100 -45v230q-59 -7 -92 -37.5t-33 -75.5zM842 342q0 46 -27.5 76t-103.5 47v-240q62 10 96.5 41t34.5 76zM711 -16v-191h-150v193q-221 17 -342.5 129t-122.5 303l318 31q0 -97 41.5 -151t105.5 -69v260l-63 9q-195 29 -287 129.5t-92 251.5
q0 155 120 256t322 114v168h150v-170q130 -12 225.5 -53t154 -121.5t58.5 -193.5l-315 -29q0 127 -123 156v-254l53 -11q195 -31 297 -129.5t102 -232.5q0 -162 -123 -270q-122 -110 -329 -125z" />
    <glyph glyph-name="sterling.onum" horiz-adv-x="1224" 
d="M1120 264v-264h-1001v264h160q88 66 88 137q0 51 -31 111h-230v225h107q-31 74 -31 146q0 120 64 211.5t169.5 137.5t235.5 46q220 0 345.5 -103t142.5 -301l-330 -12q-1 70 -42.5 108t-109.5 38q-63 0 -100 -34t-37 -91q0 -73 39 -146h377v-225h-260q10 -42 10 -76
q0 -102 -90 -172h524z" />
    <glyph glyph-name="yen.onum" horiz-adv-x="1282" 
d="M1104 397v-180h-295v-217h-338v217h-293v180h293v103h-293v180h252l-405 575h391l235 -350l236 350h368l-403 -575h252v-180h-295v-103h295z" />
    <glyph glyph-name="percent.onum" horiz-adv-x="2093" 
d="M717 -23l-207 134l862 1224l207 -133zM492 567q-169 0 -279.5 102.5t-110.5 282.5q0 176 110 278.5t280 102.5t280.5 -103t110.5 -278q0 -176 -110.5 -280.5t-280.5 -104.5zM492 786q62 0 97.5 43.5t35.5 122.5q0 75 -36.5 118.5t-96.5 43.5t-96 -43.5t-36 -118.5
q0 -78 36.5 -122t95.5 -44zM1599 -18q-170 0 -280.5 102.5t-110.5 282.5q0 174 111 277.5t280 103.5q170 0 281 -103.5t111 -277.5q0 -176 -111 -280.5t-281 -104.5zM1599 201q61 0 96.5 43.5t35.5 122.5q0 74 -37 117.5t-95 43.5q-62 0 -97.5 -43t-35.5 -118q0 -78 36 -122
t97 -44z" />
    <glyph glyph-name="perthousand.onum" horiz-adv-x="2951" 
d="M717 -23l-207 134l862 1224l207 -133zM492 567q-169 0 -279.5 102.5t-110.5 282.5q0 176 110 278.5t280 102.5t280.5 -103t110.5 -278q0 -176 -110.5 -280.5t-280.5 -104.5zM492 786q62 0 97.5 43.5t35.5 122.5q0 75 -36.5 118.5t-96.5 43.5t-96 -43.5t-36 -118.5
q0 -78 36.5 -122t95.5 -44zM1599 -18q-170 0 -280.5 102.5t-110.5 282.5q0 174 111 277.5t280 103.5q170 0 281 -103.5t111 -277.5q0 -176 -111 -280.5t-281 -104.5zM2458 -18q-170 0 -281 102.5t-111 282.5q0 174 111.5 277.5t280.5 103.5q170 0 280.5 -103t110.5 -278
q0 -176 -110.5 -280.5t-280.5 -104.5zM1599 201q61 0 96.5 43.5t35.5 122.5q0 74 -37 117.5t-95 43.5q-62 0 -97.5 -43t-35.5 -118q0 -78 36 -122t97 -44zM2458 201q62 0 96.5 43.5t34.5 122.5q0 75 -35.5 118t-95.5 43t-95.5 -43t-35.5 -118q0 -78 36.5 -122t94.5 -44z" />
    <glyph glyph-name="zero.tlf" horiz-adv-x="1282" 
d="M639 -25q-158 0 -279.5 70.5t-184.5 186t-66 257.5q-5 180 -5 228q0 47 5 227q2 102 41 195t106.5 164t168 113t218.5 42q158 0 279.5 -70.5t185 -186t66.5 -257.5q4 -144 4 -227q0 -84 -4 -228q-3 -141 -67.5 -257t-187 -186.5t-280.5 -70.5zM641 291q85 0 133.5 56.5
t50.5 144.5q4 86 4 225t-4 225q-5 89 -55 145t-129 56q-81 0 -130 -54.5t-54 -146.5q-4 -86 -4 -225t4 -225q2 -85 51.5 -143t132.5 -58z" />
    <glyph glyph-name="one.tlf" horiz-adv-x="1282" 
d="M1178 307v-307h-985v307h362v744l-332 -133l-14 315l450 201h234v-1127h285z" />
    <glyph glyph-name="two.tlf" horiz-adv-x="1282" 
d="M1139 303v-303h-1016v250l543 543q69 69 94.5 114.5t25.5 96.5q0 63 -46 103t-115 40q-78 0 -125 -48t-47 -130h-326q0 226 142 357.5t362 131.5q226 0 368 -124.5t142 -319.5q0 -106 -45.5 -196.5t-155.5 -192.5l-350 -322h549z" />
    <glyph glyph-name="three.tlf" horiz-adv-x="1282" 
d="M608 -20q-103 0 -194.5 27t-166.5 80t-119 141.5t-44 201.5h328q7 -75 62 -116.5t134 -41.5q83 0 137 45t54 119q0 75 -63 120.5t-167 45.5h-192v281h205q96 0 146 40.5t50 108.5q0 61 -48 99t-124 38q-74 0 -123 -38t-53 -105h-324q3 131 72 230t182 150.5t252 51.5
q239 0 375 -112q137 -113 137 -285q0 -105 -52.5 -181t-139.5 -120q102 -44 162.5 -133.5t60.5 -210.5q0 -190 -151 -314q-149 -122 -396 -122z" />
    <glyph glyph-name="four.tlf" horiz-adv-x="1282" 
d="M1210 610v-295h-194v-315h-328v315h-620v271l432 848h350l-422 -824h268v256h320v-256h194z" />
    <glyph glyph-name="five.tlf" horiz-adv-x="1282" 
d="M629 -25q-206 0 -340 97t-172 252l309 102q18 -68 77 -112t128 -44q87 0 143.5 53t56.5 142q0 86 -58.5 141.5t-149.5 55.5q-62 0 -112 -25.5t-81 -61.5h-285l80 859h887v-304h-600l-27 -225q89 47 205 47q218 0 353 -129t135 -348q0 -119 -42.5 -215t-117.5 -157.5
t-174.5 -94.5t-214.5 -33z" />
    <glyph glyph-name="six.tlf" horiz-adv-x="1282" 
d="M1200 471q0 -215 -150.5 -355.5t-379.5 -140.5q-132 0 -247.5 53t-193.5 165q-118 174 -118 473q0 474 204 665q138 127 379 127q201 0 334 -93t178 -259l-307 -82q-21 66 -73.5 103.5t-135.5 37.5q-97 0 -151 -61q-72 -82 -86 -275q95 109 272 109q216 0 345.5 -132.5
t129.5 -334.5zM674 270q84 0 138 56t54 133t-54.5 132.5t-137.5 55.5q-84 0 -137.5 -55.5t-53.5 -132.5q0 -78 53 -133.5t138 -55.5z" />
    <glyph glyph-name="seven.tlf" horiz-adv-x="1282" 
d="M1137 1145l-551 -1145h-389l567 1130h-614v304h987v-289z" />
    <glyph glyph-name="eight.tlf" horiz-adv-x="1282" 
d="M639 -25q-234 0 -383.5 122.5t-149.5 312.5q0 217 191 342q-72 53 -113 128.5t-41 166.5q0 178 141.5 294.5t356.5 116.5q220 0 358 -117q140 -119 140 -294t-152 -287q189 -124 189 -350q0 -188 -153.5 -311.5t-383.5 -123.5zM641 1182q-76 0 -126 -42.5t-50 -109.5
q0 -66 50.5 -108.5t125.5 -42.5q76 0 126 42t50 109t-50.5 109.5t-125.5 42.5zM641 256q88 0 146.5 49.5t58.5 124.5q0 73 -59 122.5t-146 49.5q-88 0 -146.5 -48.5t-58.5 -123.5t59 -124.5t146 -49.5z" />
    <glyph glyph-name="nine.tlf" horiz-adv-x="1282" 
d="M608 1163q-84 0 -138 -55.5t-54 -132.5t54.5 -133t137.5 -56q84 0 137.5 56t53.5 133q0 78 -53 133t-138 55zM588 -25q-200 0 -333.5 93.5t-178.5 259.5l307 82q46 -142 209 -142q97 0 151 62q72 83 86 274q-94 -108 -272 -108q-216 0 -345.5 132.5t-129.5 334.5
q0 215 150.5 355t379.5 140q132 0 248 -52.5t193 -164.5q118 -174 118 -473q0 -475 -204 -666q-138 -127 -379 -127z" />
    <glyph glyph-name="space.tlf" horiz-adv-x="641" 
 />
    <glyph glyph-name="period.tlf" horiz-adv-x="641" 
d="M322 -25q-85 0 -144 60t-59 145q0 83 59 142q58 61 144 61q85 0 143 -61q59 -59 59 -142q0 -85 -59 -145t-143 -60z" />
    <glyph glyph-name="comma.tlf" horiz-adv-x="641" 
d="M264 -383l-172 133q118 146 166 238q-62 21 -100.5 73.5t-38.5 120.5q0 82 59.5 141.5t143.5 59.5q88 0 145 -61.5t57 -155.5q0 -75 -23 -152.5t-65.5 -151t-81 -127.5t-90.5 -118z" />
    <glyph glyph-name="quoteright.tlf" horiz-adv-x="641" 
d="M422 946h-275l86 488h304z" />
    <glyph glyph-name="zero.sup" horiz-adv-x="929" 
d="M465 676q-186 0 -295 116.5t-109 321.5q0 210 107.5 322t296.5 112q192 0 297.5 -111t105.5 -323q0 -207 -106.5 -322.5t-296.5 -115.5zM465 889q72 0 106.5 60t34.5 165q0 221 -141 221t-141 -221q0 -105 34.5 -165t106.5 -60z" />
    <glyph glyph-name="one.sup" horiz-adv-x="600" 
d="M498 690h-262v590l-193 -59l-14 223l293 92h176v-846z" />
    <glyph glyph-name="two.sup" horiz-adv-x="800" 
d="M735 893v-203h-678v172l355 297q41 34 55 57.5t14 51.5q0 33 -22 54t-60 21q-40 0 -62 -24t-22 -62h-258q3 141 103 216q103 77 246 77q158 0 245 -84q88 -82 88 -192q0 -69 -28.5 -121.5t-100.5 -112.5l-180 -147h305z" />
    <glyph glyph-name="three.sup" horiz-adv-x="796" 
d="M393 678q-158 0 -252.5 70t-95.5 202h256q1 -39 26 -58.5t66 -19.5q39 0 63.5 19.5t24.5 56.5q0 41 -32.5 61.5t-81.5 20.5h-105v189h111q47 0 70.5 20t23.5 53q0 31 -20 49.5t-56 18.5q-33 0 -55.5 -20t-22.5 -52h-252q0 119 97 191q100 71 237 71q157 0 239.5 -67.5
t82.5 -173.5q0 -55 -33 -101t-86 -73q137 -57 137 -197q0 -99 -84 -180q-83 -80 -258 -80z" />
    <glyph glyph-name="four.sup" horiz-adv-x="851" 
d="M823 1057v-203h-125v-164h-235v164h-434v186l274 496h256l-270 -479h182v162h227v-162h125z" />
    <glyph glyph-name="five.sup" horiz-adv-x="817" 
d="M408 676q-151 0 -240.5 59t-114.5 152l228 67q8 -35 37.5 -58.5t76.5 -23.5t77 26t30 75q0 44 -31 72t-76 28q-67 0 -102 -39h-207l35 502h612v-203h-399l-6 -100q54 16 114 16q140 0 229 -73.5t89 -198.5q0 -80 -27.5 -139t-76.5 -94t-111 -51.5t-137 -16.5z" />
    <glyph glyph-name="six.sup" horiz-adv-x="839" 
d="M786 967q0 -130 -98 -210.5t-262 -80.5q-57 0 -107.5 12t-98.5 41.5t-82.5 74.5t-55.5 115.5t-21 159.5q0 232 96.5 351.5t305.5 119.5q108 0 192 -41t121 -104l-176 -113q-40 68 -141 68q-68 0 -110 -44t-48 -122q65 53 180 53q139 0 222 -78.5t83 -201.5zM426 860
q48 0 76 29.5t28 75.5q0 44 -29 74t-75 30q-47 0 -75.5 -29.5t-28.5 -74.5q0 -44 29 -74.5t75 -30.5z" />
    <glyph glyph-name="seven.sup" horiz-adv-x="720" 
d="M338 690h-281l365 643h-406v203h689v-197z" />
    <glyph glyph-name="eight.sup" horiz-adv-x="839" 
d="M420 674q-170 0 -266.5 70t-96.5 188q0 125 123 188q-52 31 -79 77.5t-27 96.5q0 113 94 185.5t252 72.5q161 0 253.5 -71.5t92.5 -186.5q0 -49 -28 -95t-81 -77q125 -62 125 -190q0 -117 -97 -187.5t-265 -70.5zM420 1370q-54 0 -84.5 -24.5t-30.5 -63.5q0 -37 32 -60.5
t83 -23.5t83 23.5t32 60.5q0 38 -32 63t-83 25zM420 856q58 0 91.5 25t33.5 63q0 39 -34.5 63.5t-90.5 24.5q-59 0 -92 -24.5t-33 -63.5t32 -63.5t93 -24.5z" />
    <glyph glyph-name="nine.sup" horiz-adv-x="866" 
d="M414 1366q-48 0 -76.5 -29.5t-28.5 -74.5q0 -44 29.5 -74.5t75.5 -30.5t75 30t29 75q0 44 -29 74t-75 30zM377 676q-108 0 -192.5 41t-121.5 104l177 113q40 -68 141 -68q68 0 110 44t48 122q-65 -53 -181 -53q-139 0 -222 78.5t-83 202.5q0 130 98 210t263 80
q72 0 133.5 -20.5t115 -65t84.5 -126t31 -191.5q0 -232 -96.5 -351.5t-304.5 -119.5z" />
    <glyph glyph-name="zero.num" horiz-adv-x="929" 
d="M465 573q-186 0 -295 117t-109 322q0 210 107.5 322t296.5 112q192 0 297.5 -111t105.5 -323q0 -207 -106.5 -323t-296.5 -116zM465 786q72 0 106.5 60.5t34.5 165.5q0 221 -141 221t-141 -221q0 -105 34.5 -165.5t106.5 -60.5z" />
    <glyph glyph-name="one.num" horiz-adv-x="600" 
d="M498 588h-262v590l-193 -60l-14 223l293 93h176v-846z" />
    <glyph glyph-name="two.num" horiz-adv-x="800" 
d="M735 791v-203h-678v172l355 297q41 34 55 57t14 51q0 33 -22.5 54.5t-59.5 21.5q-40 0 -62 -24t-22 -62h-258q3 140 103 215q104 78 246 78q158 0 245 -84q88 -82 88 -193q0 -69 -28.5 -121t-100.5 -112l-180 -147h305z" />
    <glyph glyph-name="three.num" horiz-adv-x="796" 
d="M393 575q-158 0 -252.5 70.5t-95.5 202.5h256q1 -39 26 -58.5t66 -19.5q39 0 63.5 19.5t24.5 56.5q0 41 -32.5 61.5t-81.5 20.5h-105v188h111q47 0 70.5 20.5t23.5 53.5q0 31 -20 49t-56 18q-33 0 -55.5 -19.5t-22.5 -51.5h-252q0 118 97 190q101 72 237 72
q157 0 239.5 -68t82.5 -174q0 -55 -33 -101t-86 -73q137 -57 137 -196q0 -100 -84 -181q-83 -80 -258 -80z" />
    <glyph glyph-name="four.num" horiz-adv-x="851" 
d="M823 954v-202h-125v-164h-235v164h-434v186l274 496h256l-270 -480h182v162h227v-162h125z" />
    <glyph glyph-name="five.num" horiz-adv-x="817" 
d="M408 573q-151 0 -240.5 59t-114.5 152l228 68q8 -35 37.5 -58.5t76.5 -23.5t77 25.5t30 74.5q0 44 -31 72.5t-76 28.5q-67 0 -102 -39h-207l35 502h612v-203h-399l-6 -101q57 17 114 17q139 0 228.5 -74t89.5 -199q0 -80 -27.5 -139t-76.5 -94t-111 -51.5t-137 -16.5z
" />
    <glyph glyph-name="six.num" horiz-adv-x="839" 
d="M786 864q0 -130 -98 -210.5t-262 -80.5q-72 0 -134 20.5t-115.5 65.5t-84.5 126.5t-31 191.5q0 232 96.5 351.5t305.5 119.5q108 0 192 -41t121 -104l-176 -113q-39 67 -141 67q-68 0 -110 -43.5t-48 -121.5q65 53 180 53q139 0 222 -78.5t83 -202.5zM426 758q48 0 76 29
t28 75q0 44 -29 74.5t-75 30.5t-75 -30t-29 -75q0 -44 29 -74t75 -30z" />
    <glyph glyph-name="seven.num" horiz-adv-x="720" 
d="M338 588h-281l365 643h-406v203h689v-197z" />
    <glyph glyph-name="eight.num" horiz-adv-x="839" 
d="M420 571q-170 0 -266.5 70t-96.5 188q0 126 123 189q-52 31 -79 77.5t-27 96.5q0 113 94 185.5t252 72.5q161 0 253.5 -71.5t92.5 -186.5q0 -49 -28 -95t-81 -77q125 -62 125 -191q0 -117 -97 -187.5t-265 -70.5zM420 1268q-54 0 -84.5 -24.5t-30.5 -63.5q0 -37 32 -60.5
t83 -23.5t83 23.5t32 60.5q0 38 -32 63t-83 25zM420 754q58 0 91.5 25t33.5 63q0 39 -34.5 63.5t-90.5 24.5q-59 0 -92 -24.5t-33 -63.5t32 -63.5t93 -24.5z" />
    <glyph glyph-name="nine.num" horiz-adv-x="866" 
d="M414 1264q-48 0 -76.5 -29.5t-28.5 -75.5q0 -44 29.5 -74t75.5 -30q47 0 75.5 29.5t28.5 74.5q0 44 -29 74.5t-75 30.5zM377 573q-108 0 -192.5 41.5t-121.5 104.5l177 112q39 -67 141 -67q68 0 110 44t48 122q-65 -53 -181 -53q-139 0 -222 78.5t-83 201.5
q0 130 98.5 210.5t262.5 80.5q72 0 133.5 -20.5t115 -65.5t84.5 -126.5t31 -191.5q0 -232 -96.5 -351.5t-304.5 -119.5z" />
    <glyph glyph-name="zero.den" horiz-adv-x="929" 
d="M465 -14q-186 0 -295 116.5t-109 321.5q0 210 107.5 322t296.5 112q192 0 297.5 -111t105.5 -323q0 -207 -106.5 -322.5t-296.5 -115.5zM465 199q72 0 106.5 60t34.5 165q0 221 -141 221t-141 -221q0 -105 34.5 -165t106.5 -60z" />
    <glyph glyph-name="one.den" horiz-adv-x="600" 
d="M498 0h-262v590l-193 -60l-14 224l293 92h176v-846z" />
    <glyph glyph-name="two.den" horiz-adv-x="800" 
d="M735 203v-203h-678v172l355 297q41 34 55 57.5t14 51.5q0 33 -22 54t-60 21q-40 0 -62 -24t-22 -62h-258q3 140 103 215q104 78 246 78q158 0 245 -84q88 -82 88 -192q0 -69 -28.5 -121.5t-100.5 -112.5l-180 -147h305z" />
    <glyph glyph-name="three.den" horiz-adv-x="796" 
d="M393 -12q-158 0 -252.5 70t-95.5 202h256q1 -39 26 -58.5t66 -19.5q39 0 63.5 19.5t24.5 56.5q0 41 -32.5 61.5t-81.5 20.5h-105v188h111q47 0 70.5 20.5t23.5 53.5q0 31 -20 49.5t-56 18.5q-33 0 -55.5 -20t-22.5 -52h-252q0 118 97 190q101 72 237 72q157 0 239.5 -68
t82.5 -174q0 -55 -33 -101t-86 -73q137 -57 137 -196q0 -99 -84 -180q-83 -80 -258 -80z" />
    <glyph glyph-name="four.den" horiz-adv-x="851" 
d="M823 367v-203h-125v-164h-235v164h-434v186l274 496h256l-270 -479h182v161h227v-161h125z" />
    <glyph glyph-name="five.den" horiz-adv-x="817" 
d="M408 -14q-151 0 -240.5 59t-114.5 152l228 67q8 -35 37.5 -58.5t76.5 -23.5t77 26t30 75q0 44 -31 72t-76 28q-67 0 -102 -39h-207l35 502h612v-203h-399l-6 -100q54 16 114 16q140 0 229 -73.5t89 -198.5q0 -80 -27.5 -139t-76.5 -94t-111 -51.5t-137 -16.5z" />
    <glyph glyph-name="six.den" horiz-adv-x="839" 
d="M786 276q0 -130 -98 -210t-262 -80q-57 0 -107.5 12t-98.5 41.5t-82.5 74.5t-55.5 115.5t-21 159.5q0 232 96.5 351.5t305.5 119.5q108 0 192 -41t121 -104l-176 -113q-40 68 -141 68q-68 0 -110 -44t-48 -122q65 53 180 53q139 0 222 -78.5t83 -202.5zM426 170
q48 0 76 29t28 75q0 44 -29 74.5t-75 30.5t-75 -30t-29 -75q0 -44 29 -74t75 -30z" />
    <glyph glyph-name="seven.den" horiz-adv-x="720" 
d="M338 0h-281l365 643h-406v203h689v-197z" />
    <glyph glyph-name="eight.den" horiz-adv-x="839" 
d="M420 -16q-170 0 -266.5 70t-96.5 188q0 125 123 188q-52 31 -79 77.5t-27 96.5q0 113 94 185.5t252 72.5q161 0 253.5 -71.5t92.5 -186.5q0 -49 -28 -95t-81 -77q125 -62 125 -190q0 -117 -97 -187.5t-265 -70.5zM420 680q-54 0 -84.5 -24.5t-30.5 -63.5q0 -37 32 -60.5
t83 -23.5t83 23.5t32 60.5q0 38 -32 63t-83 25zM420 166q58 0 91.5 25t33.5 63q0 39 -34.5 63.5t-90.5 24.5q-59 0 -92 -24.5t-33 -63.5t32 -63.5t93 -24.5z" />
    <glyph glyph-name="nine.den" horiz-adv-x="839" 
d="M414 676q-48 0 -76.5 -29.5t-28.5 -75.5q0 -44 29.5 -74t75.5 -30q47 0 75.5 29.5t28.5 74.5q0 44 -29 74.5t-75 30.5zM377 -14q-108 0 -192.5 41t-121.5 104l177 113q40 -68 141 -68q68 0 110 44t48 122q-65 -53 -181 -53q-139 0 -222 78.5t-83 201.5q0 130 98.5 210.5
t262.5 80.5q72 0 133.5 -20.5t115 -65t84.5 -126t31 -191.5q0 -232 -96.5 -351.5t-304.5 -119.5z" />
    <glyph glyph-name="zero.sub" horiz-adv-x="929" 
d="M465 -219q-186 0 -295 116.5t-109 321.5q0 210 107.5 322t296.5 112q192 0 297.5 -111t105.5 -323q0 -207 -106.5 -322.5t-296.5 -115.5zM465 -6q72 0 106.5 60t34.5 165q0 221 -141 221t-141 -221q0 -105 34.5 -165t106.5 -60z" />
    <glyph glyph-name="one.sub" horiz-adv-x="600" 
d="M498 -205h-262v590l-193 -59l-14 223l293 92h176v-846z" />
    <glyph glyph-name="two.sub" horiz-adv-x="800" 
d="M735 -2v-203h-678v172l355 297q41 34 55 57.5t14 51.5q0 33 -22.5 54.5t-59.5 21.5q-40 0 -62 -24.5t-22 -62.5h-258q3 141 103 216q103 77 246 77q158 0 245 -84q88 -82 88 -192q0 -69 -28.5 -121.5t-100.5 -112.5l-180 -147h305z" />
    <glyph glyph-name="three.sub" horiz-adv-x="796" 
d="M393 -217q-158 0 -252.5 70t-95.5 202h256q1 -39 26 -58.5t66 -19.5q39 0 63.5 19.5t24.5 56.5q0 41 -32.5 61.5t-81.5 20.5h-105v189h111q47 0 70.5 20t23.5 53q0 31 -20 49.5t-56 18.5q-33 0 -55.5 -20t-22.5 -52h-252q0 119 97 191q100 71 237 71q157 0 239.5 -67.5
t82.5 -173.5q0 -55 -33 -101t-86 -73q137 -57 137 -197q0 -99 -84 -180q-83 -80 -258 -80z" />
    <glyph glyph-name="four.sub" horiz-adv-x="851" 
d="M823 162v-203h-125v-164h-235v164h-434v186l274 496h256l-270 -479h182v162h227v-162h125z" />
    <glyph glyph-name="five.sub" horiz-adv-x="817" 
d="M408 -219q-151 0 -240.5 59t-114.5 152l228 67q8 -35 37.5 -58.5t76.5 -23.5t77 26t30 75q0 44 -31 72t-76 28q-67 0 -102 -39h-207l35 502h612v-203h-399l-6 -100q54 16 114 16q140 0 229 -73.5t89 -198.5q0 -80 -27.5 -139t-76.5 -94t-111 -51.5t-137 -16.5z" />
    <glyph glyph-name="six.sub" horiz-adv-x="839" 
d="M786 72q0 -130 -98 -210.5t-262 -80.5q-57 0 -107.5 12t-98.5 41.5t-82.5 74.5t-55.5 115.5t-21 159.5q0 232 96.5 351.5t305.5 119.5q108 0 192 -41t121 -104l-176 -113q-40 68 -141 68q-68 0 -110 -44t-48 -122q65 53 180 53q139 0 222 -78.5t83 -201.5zM426 -35
q48 0 76 29.5t28 75.5q0 44 -29 74t-75 30q-47 0 -75.5 -29.5t-28.5 -74.5q0 -44 29 -74.5t75 -30.5z" />
    <glyph glyph-name="seven.sub" horiz-adv-x="720" 
d="M338 -205h-281l365 643h-406v203h689v-197z" />
    <glyph glyph-name="eight.sub" horiz-adv-x="839" 
d="M420 -221q-170 0 -266.5 70t-96.5 188q0 125 123 188q-52 31 -79 77.5t-27 96.5q0 113 94 185.5t252 72.5q161 0 253.5 -71.5t92.5 -186.5q0 -49 -28 -95t-81 -77q125 -63 125 -190q0 -117 -97 -187.5t-265 -70.5zM420 475q-54 0 -84.5 -24.5t-30.5 -63.5q0 -37 32 -60.5
t83 -23.5t83 23.5t32 60.5q0 38 -32 63t-83 25zM420 -39q58 0 91.5 25t33.5 63q0 39 -34.5 63.5t-90.5 24.5q-59 0 -92 -24.5t-33 -63.5t32 -63.5t93 -24.5z" />
    <glyph glyph-name="nine.sub" horiz-adv-x="839" 
d="M414 471q-48 0 -76.5 -29.5t-28.5 -74.5q0 -44 29.5 -74.5t75.5 -30.5t75 30t29 75q0 44 -29 74t-75 30zM377 -219q-108 0 -192.5 41t-121.5 104l177 113q40 -68 141 -68q68 0 110 44t48 122q-65 -53 -181 -53q-139 0 -222 78.5t-83 202.5q0 130 98 210t263 80
q72 0 133.5 -20.5t115 -65t84.5 -126t31 -191.5q0 -232 -96.5 -351.5t-304.5 -119.5z" />
    <glyph glyph-name="a.sup" horiz-adv-x="800" 
d="M373 856q28 0 69 18l29 13l2 88l-94 -25q-60 -17 -60 -53q0 -19 16 -30t38 -11zM485 731l-16 -10q-88 -55 -174 -55q-95 0 -158 56.5t-63 143.5q0 91 56 146.5t177 81.5l166 39q-5 27 -29.5 43t-64.5 16q-90 0 -107 -66l-198 66q19 82 110 140.5t211 58.5
q151 0 239.5 -68.5t88.5 -189.5v-457h-238v55z" />
    <glyph glyph-name="b.sup" horiz-adv-x="921" 
d="M535 664q-103 0 -183 67l-4 -4v-51h-256v1055h279v-379q71 41 161 41q68 0 128.5 -20.5t111 -62t80 -114t29.5 -166.5q0 -96 -30 -169.5t-80.5 -115t-110 -61.5t-125.5 -20zM479 897q56 0 88.5 33t32.5 100q0 65 -35 98t-90 33q-40 0 -71 -20t-33 -41v-139
q2 -17 35 -40.5t73 -23.5z" />
    <glyph glyph-name="c.sup" horiz-adv-x="800" 
d="M422 666q-73 0 -140 22t-121.5 65t-87 114.5t-32.5 162.5t32.5 162.5t87.5 114t121.5 64.5t139.5 22q146 0 240.5 -72.5t113.5 -165.5l-223 -68q-13 31 -43 50.5t-72 19.5q-53 0 -87 -32t-34 -95q0 -61 34.5 -95t86.5 -34q75 0 111 70l225 -74q-37 -118 -129.5 -174.5
t-222.5 -56.5z" />
    <glyph glyph-name="d.sup" horiz-adv-x="923" 
d="M444 897q40 0 72.5 23.5t34.5 40.5v137q-2 21 -33.5 42t-75.5 21q-54 0 -87 -32.5t-33 -98.5q0 -133 122 -133zM831 676h-258v57q-79 -69 -190 -69q-63 0 -121.5 20t-109 61.5t-81 115t-30.5 169.5q0 94 29.5 166.5t79.5 114t110 62t127 20.5q89 0 164 -43v381h280v-1055
z" />
    <glyph glyph-name="e.sup" horiz-adv-x="835" 
d="M420 1204q-40 0 -68.5 -25.5t-34.5 -74.5h205q0 49 -28 74.5t-74 25.5zM602 932l174 -113q-123 -151 -338 -151q-82 0 -152 21.5t-126 64t-87.5 113.5t-31.5 163q0 118 54 202t140 123.5t193 39.5q155 0 262 -90q105 -89 105 -258v-74h-478v-2q0 -46 36 -73.5t106 -27.5
q92 0 143 62z" />
    <glyph glyph-name="f.sup" horiz-adv-x="589" 
d="M586 1376v-225h-164v-475h-275v475h-120v225h120v60q0 147 91 225q84 78 225 78q166 0 256 -90l-146 -174q-15 12 -22.5 17t-22 10t-30.5 5q-36 0 -56 -23.5t-20 -58.5v-49h164z" />
    <glyph glyph-name="g.sup" horiz-adv-x="933" 
d="M455 911q40 0 72 23.5t34 40.5v115q-7 26 -37.5 47.5t-70.5 21.5q-54 0 -87.5 -32t-33.5 -95q0 -121 123 -121zM420 334q-216 0 -344 82l135 202q77 -51 182 -51q166 0 166 121v41q-71 -51 -166 -51q-63 0 -121.5 19.5t-109 59.5t-81 111t-30.5 164q0 92 29.5 163
t79.5 112.5t110 62.5t127 21q100 0 178 -56v41h267v-702q0 -165 -118 -252.5t-304 -87.5z" />
    <glyph glyph-name="h.sup" horiz-adv-x="927" 
d="M473 1141q-36 0 -59 -12t-43 -44v-409h-279v1055h279v-416q76 76 194 76q129 0 205 -72.5t76 -192.5v-450h-279v360q0 49 -25.5 77t-68.5 28z" />
    <glyph glyph-name="i.sup" horiz-adv-x="462" 
d="M231 1438q-63 0 -107 43t-44 104q0 64 43 107t108 43q63 0 107.5 -43.5t44.5 -106.5q0 -61 -44.5 -104t-107.5 -43zM371 676h-279v700h279v-700z" />
    <glyph glyph-name="j.sup" horiz-adv-x="653" 
d="M420 1446q-63 0 -107.5 42.5t-44.5 102.5q0 63 44.5 107.5t107.5 44.5t108 -44.5t45 -107.5q0 -60 -45 -102.5t-108 -42.5zM283 1376h278v-721q0 -280 -297 -280q-186 0 -268 106l158 162q33 -33 69 -33q30 0 45 17t15 45v704z" />
    <glyph glyph-name="k.sup" horiz-adv-x="948" 
d="M911 676h-323l-139 246l-84 -80v-166h-273v1055h273v-576l219 221h344l-283 -268z" />
    <glyph glyph-name="l.sup" horiz-adv-x="462" 
d="M371 676h-279v1055h279v-1055z" />
    <glyph glyph-name="m.sup" horiz-adv-x="1370" 
d="M463 1139q-69 0 -92 -60v-403h-279v700h279v-67q84 77 204 77q115 0 191 -83q90 83 242 83q129 0 204.5 -69t75.5 -191v-450h-278v358q0 105 -88 105q-31 0 -56 -15.5t-37 -44.5v-403h-278v358q0 105 -88 105z" />
    <glyph glyph-name="n.sup" horiz-adv-x="927" 
d="M475 1137q-76 0 -104 -60v-401h-279v700h279v-65q85 78 198 78q129 0 203 -73.5t74 -193.5v-446h-279v356q0 49 -24.5 77t-67.5 28z" />
    <glyph glyph-name="o.sup" horiz-adv-x="872" 
d="M436 664q-79 0 -149.5 23t-125.5 67t-87.5 114.5t-32.5 159.5q0 88 33 158.5t88.5 114.5t125.5 67t148 23q106 0 193.5 -39t144.5 -123.5t57 -200.5q0 -87 -32.5 -157.5t-88 -115t-126 -68t-148.5 -23.5zM436 901q51 0 84 35t33 92q0 56 -31.5 90.5t-85.5 34.5
q-51 0 -84 -35t-33 -90q0 -57 33 -92t84 -35z" />
    <glyph glyph-name="p.sup" horiz-adv-x="935" 
d="M494 897q120 0 120 133q0 68 -34.5 99.5t-90.5 31.5q-40 0 -71 -20t-33 -41v-139q2 -17 35.5 -40.5t73.5 -23.5zM549 664q-89 0 -164 53v-342h-279v1001h256v-43q87 60 185 60q68 0 128 -20.5t110.5 -62t80 -114t29.5 -166.5q0 -96 -30 -169.5t-80.5 -115t-110 -61.5
t-125.5 -20z" />
    <glyph glyph-name="q.sup" horiz-adv-x="937" 
d="M831 1376v-1001h-280v340q-71 -51 -168 -51q-63 0 -121.5 20t-109 61.5t-81 115t-30.5 169.5q0 94 29.5 166.5t79.5 114t110 62t127 20.5q99 0 186 -60v43h258zM444 897q41 0 73 22t34 42v135q-2 22 -33.5 43.5t-75.5 21.5q-54 0 -87 -32.5t-33 -98.5q0 -133 122 -133z
" />
    <glyph glyph-name="r.sup" horiz-adv-x="665" 
d="M481 1130q-35 0 -65.5 -16t-44.5 -41v-397h-279v700h279v-65q26 35 70 55t89 20q80 0 134 -36l-82 -244q-47 24 -101 24z" />
    <glyph glyph-name="s.sup" horiz-adv-x="741" 
d="M367 664q-138 0 -218 52t-108 132l207 65q7 -31 40 -49t79 -18q73 0 73 39q0 21 -27 33.5t-116 29.5q-114 20 -177 70.5t-63 144.5q0 103 89.5 166.5t230.5 63.5q136 0 215 -52.5t108 -134.5l-206 -61q-24 65 -107 65q-76 0 -76 -41q0 -19 22 -28t97 -21
q266 -43 266 -229q0 -109 -87.5 -168t-241.5 -59z" />
    <glyph glyph-name="t.sup" horiz-adv-x="643" 
d="M512 909l84 -180q-78 -65 -215 -65q-263 0 -260 264l2 223h-100v225h112v193h252l-2 -193h168v-225h-168l-2 -193q0 -73 63 -73q35 0 66 24z" />
    <glyph glyph-name="u.sup" horiz-adv-x="923" 
d="M831 676h-278v65q-75 -75 -195 -75q-129 0 -202.5 72t-73.5 192v446h278v-356q0 -48 26.5 -76.5t66.5 -28.5q64 0 100 58v403h278v-700z" />
    <glyph glyph-name="v.sup" horiz-adv-x="864" 
d="M854 1376l-266 -700h-318l-260 700h297l127 -393l127 393h293z" />
    <glyph glyph-name="w.sup" horiz-adv-x="1185" 
d="M942 676h-231l-117 272l-119 -272h-235l-230 700h297l105 -334l110 265h148l106 -267l113 336h287z" />
    <glyph glyph-name="x.sup" horiz-adv-x="907" 
d="M866 676h-288l-115 190l-125 -190h-297l250 346l-238 354h285l117 -202l129 202h276l-235 -344z" />
    <glyph glyph-name="y.sup" horiz-adv-x="888" 
d="M881 1376l-457 -1003h-305l170 354l-281 649h295l148 -358l133 358h297z" />
    <glyph glyph-name="z.sup" horiz-adv-x="737" 
d="M680 901v-225h-623v164l275 311h-269v225h611v-164l-268 -311h274z" />
    <glyph glyph-name="at.case" horiz-adv-x="1937" 
d="M969 -174q-176 0 -336 70t-276.5 189.5t-185.5 287t-69 352.5q0 183 66 347.5t181.5 284.5t280.5 190.5t355 70.5q187 0 347 -64.5t269.5 -175t171.5 -260t62 -317.5q0 -231 -112.5 -380t-295.5 -149q-172 0 -272 115q-38 -55 -102 -84t-140 -29q-83 0 -155.5 29.5
t-128 85t-87.5 142t-32 194.5q0 91 25 166.5t64.5 124t90.5 81.5t102 47.5t101 14.5q131 0 203 -69l10 61h262v-571q0 -49 22 -76t56 -27q72 0 118 83.5t46 217.5q0 126 -43 239.5t-121 201t-197.5 139t-263.5 51.5q-195 0 -346.5 -94.5t-231 -249.5t-79.5 -340
q0 -188 80 -345t228 -251t333 -94q235 0 407 106l107 -178q-223 -137 -514 -137zM944 541q46 0 84 23.5t51 70.5v178q-14 36 -49.5 58t-85.5 22q-63 0 -100 -46t-37 -122q0 -87 38.5 -135.5t98.5 -48.5z" />
    <glyph glyph-name="hyphen.case" horiz-adv-x="808" 
d="M727 590h-645v287h645v-287z" />
    <glyph glyph-name="exclamdown.case" horiz-adv-x="643" 
d="M322 1458q84 0 143 -60t59 -145q0 -81 -59 -143q-59 -59 -143 -59q-85 0 -144 59q-59 62 -59 143q0 85 59 145t144 60zM178 948h287l41 -948h-369z" />
    <glyph glyph-name="questiondown.case" horiz-adv-x="1114" 
d="M649 1460q85 0 144 -60t59 -145q0 -81 -59 -143q-59 -59 -144 -59q-84 0 -143 59q-60 63 -60 143q0 85 59 145t144 60zM477 950h344v-90q0 -51 -4 -82.5t-11.5 -56t-30 -46t-46 -38.5t-72.5 -47l-51 -31q-117 -70 -143 -96q-35 -30 -35 -78q0 -51 43 -83t111 -32
q76 0 122.5 41.5t47.5 120.5l329 -31q-3 -136 -70.5 -233.5t-178 -145t-250.5 -47.5q-238 0 -374 111.5t-136 294.5q0 53 11 98.5t33.5 81.5t46.5 63.5t61.5 53t65 42t70.5 38.5l62 33q36 20 45.5 37.5t9.5 62.5v59z" />
    <glyph glyph-name="bracketleft.case" horiz-adv-x="778" 
d="M737 -184h-594v1802h594v-246h-266v-1311h266v-245z" />
    <glyph glyph-name="bracketright.case" horiz-adv-x="778" 
d="M41 1618h594v-1802h-594v245h266v1311h-266v246z" />
    <glyph glyph-name="endash.case" horiz-adv-x="1040" 
d="M958 614h-876v246h876v-246z" />
    <glyph glyph-name="emdash.case" horiz-adv-x="1613" 
d="M1532 614h-1450v246h1450v-246z" />
    <glyph glyph-name="guillemotleft.case" horiz-adv-x="1212" 
d="M627 430l-217 -176l-359 469l359 465l213 -172l-230 -289zM1151 430l-217 -176l-359 469l359 465l213 -172l-229 -289z" />
    <glyph glyph-name="guillemotright.case" horiz-adv-x="1212" 
d="M61 1012l218 176l358 -469l-358 -465l-213 172l229 289zM586 1012l217 176l358 -469l-358 -465l-213 172l229 289z" />
    <glyph glyph-name="guilsinglleft.case" horiz-adv-x="688" 
d="M627 430l-217 -176l-359 469l359 465l213 -172l-230 -289z" />
    <glyph glyph-name="guilsinglright.case" horiz-adv-x="688" 
d="M61 1012l218 176l358 -469l-358 -465l-213 172l229 289z" />
    <glyph glyph-name="parenleft.case" horiz-adv-x="813" 
d="M782 -123l-221 -205q-213 191 -341 462.5t-128 584.5q0 311 127.5 580t341.5 462l221 -205q-358 -358 -358 -837q0 -484 358 -842z" />
    <glyph glyph-name="parenright.case" horiz-adv-x="813" 
d="M31 1556l221 205q213 -191 341 -462t128 -584q0 -311 -128 -580.5t-341 -462.5l-221 205q358 358 358 838q0 483 -358 841z" />
    <glyph glyph-name="a.alt" horiz-adv-x="1230" 
d="M600 279q74 0 124.5 48.5t51.5 123.5v135q-2 72 -51.5 119t-124.5 47q-82 0 -138 -58t-56 -178t56 -178.5t138 -58.5zM1108 0h-307v92q-113 -108 -266 -108q-70 0 -136.5 20t-126 62.5t-104.5 104t-71.5 150.5t-26.5 195q0 131 39 235t105.5 167t148 96t172.5 33
q156 0 266 -107v84h307v-1024z" />
    <glyph glyph-name="g.alt" horiz-adv-x="1214" 
d="M592 315q71 0 119 47t49 123v105q-1 73 -49.5 119.5t-118.5 46.5q-76 0 -131 -55.5t-55 -163.5t55 -165t131 -57zM582 -418q-183 0 -314 69t-194 199l264 146q31 -69 93.5 -107.5t148.5 -38.5q180 0 180 175v73q-100 -73 -234 -73q-86 0 -165.5 32.5t-145 94
t-104.5 161.5t-39 224q0 100 25.5 184.5t69 144t101.5 101t123.5 61t134.5 19.5q158 0 258 -105v82h308v-1004q0 -116 -40 -202.5t-111 -137t-161 -74.5t-198 -24z" />
    <glyph glyph-name="j.alt" 
d="M289 1128q-79 0 -134 54.5t-55 132.5q0 76 55 130t134 54t133.5 -54t54.5 -130q0 -78 -54.5 -132.5t-133.5 -54.5zM6 -397l-35 282q152 17 152 162v977h332v-995q0 -202 -108.5 -310.5t-340.5 -115.5z" />
    <glyph glyph-name="dotlessj.alt" 
d="M6 -397l-35 282q152 17 152 162v977h332v-995q0 -202 -108.5 -310.5t-340.5 -115.5z" />
    <glyph glyph-name="ij.alt" horiz-adv-x="1155" 
d="M289 1128q-79 0 -134 54.5t-55 132.5q0 76 55 130t134 54t133.5 -54t54.5 -130q0 -78 -54.5 -132.5t-133.5 -54.5zM455 0h-332v1024h332v-1024zM866 1128q-79 0 -133.5 54.5t-54.5 132.5q0 76 54.5 130t133.5 54t134 -54t55 -130q0 -78 -55 -132.5t-134 -54.5zM584 -397
l-35 282q151 17 151 162v977h332v-995q0 -202 -108 -310.5t-340 -115.5z" />
    <glyph glyph-name="aacute.alt" horiz-adv-x="1230" 
d="M600 279q74 0 124.5 48.5t51.5 123.5v135q-2 72 -51.5 119t-124.5 47q-82 0 -138 -58t-56 -178t56 -178.5t138 -58.5zM1108 0h-307v92q-113 -108 -266 -108q-70 0 -136.5 20t-126 62.5t-104.5 104t-71.5 150.5t-26.5 195q0 131 39 235t105.5 167t148 96t172.5 33
q156 0 266 -107v84h307v-1024zM741 1139h-264v4l127 291h375v-4z" />
    <glyph glyph-name="acircumflex.alt" horiz-adv-x="1230" 
d="M600 279q74 0 124.5 48.5t51.5 123.5v135q-2 72 -51.5 119t-124.5 47q-82 0 -138 -58t-56 -178t56 -178.5t138 -58.5zM1108 0h-307v92q-113 -108 -266 -108q-70 0 -136.5 20t-126 62.5t-104.5 104t-71.5 150.5t-26.5 195q0 131 39 235t105.5 167t148 96t172.5 33
q156 0 266 -107v84h307v-1024zM610 1262l-293 -162v237l301 174l297 -174v-237z" />
    <glyph glyph-name="adieresis.alt" horiz-adv-x="1230" 
d="M600 279q74 0 124.5 48.5t51.5 123.5v135q-2 72 -51.5 119t-124.5 47q-82 0 -138 -58t-56 -178t56 -178.5t138 -58.5zM1108 0h-307v92q-113 -108 -266 -108q-70 0 -136.5 20t-126 62.5t-104.5 104t-71.5 150.5t-26.5 195q0 131 39 235t105.5 167t148 96t172.5 33
q156 0 266 -107v84h307v-1024zM842 1143q-66 0 -114 48t-48 114t48 113.5t114 47.5q67 0 114.5 -47.5t47.5 -113.5t-47.5 -114t-114.5 -48zM387 1143q-66 0 -114 48t-48 114t48 113.5t114 47.5q67 0 114.5 -47.5t47.5 -113.5t-47.5 -114t-114.5 -48z" />
    <glyph glyph-name="agrave.alt" horiz-adv-x="1230" 
d="M600 279q74 0 124.5 48.5t51.5 123.5v135q-2 72 -51.5 119t-124.5 47q-82 0 -138 -58t-56 -178t56 -178.5t138 -58.5zM1108 0h-307v92q-113 -108 -266 -108q-70 0 -136.5 20t-126 62.5t-104.5 104t-71.5 150.5t-26.5 195q0 131 39 235t105.5 167t148 96t172.5 33
q156 0 266 -107v84h307v-1024zM768 1139h-264l-238 291v4h375l127 -291v-4z" />
    <glyph glyph-name="atilde.alt" horiz-adv-x="1230" 
d="M600 279q74 0 124.5 48.5t51.5 123.5v135q-2 72 -51.5 119t-124.5 47q-82 0 -138 -58t-56 -178t56 -178.5t138 -58.5zM1108 0h-307v92q-113 -108 -266 -108q-70 0 -136.5 20t-126 62.5t-104.5 104t-71.5 150.5t-26.5 195q0 131 39 235t105.5 167t148 96t172.5 33
q156 0 266 -107v84h307v-1024zM752 1155q-47 0 -92 19t-82 38t-64 19q-33 0 -55 -20t-23 -56l-170 23q0 116 56 199t155 83q47 0 92 -19t81.5 -38t64.5 -19q75 0 78 76l170 -22q0 -116 -56 -199.5t-155 -83.5z" />
    <glyph glyph-name="aring.alt" horiz-adv-x="1230" 
d="M600 279q74 0 124.5 48.5t51.5 123.5v135q-2 72 -51.5 119t-124.5 47q-82 0 -138 -58t-56 -178t56 -178.5t138 -58.5zM1108 0h-307v92q-113 -108 -266 -108q-70 0 -136.5 20t-126 62.5t-104.5 104t-71.5 150.5t-26.5 195q0 131 39 235t105.5 167t148 96t172.5 33
q156 0 266 -107v84h307v-1024zM614 1110q-80 0 -136 54.5t-56 133.5t56 134t136 55t136.5 -55t56.5 -134t-56.5 -133.5t-136.5 -54.5zM614 1227q30 0 51 20.5t21 50.5t-21 51t-51 21t-50.5 -21t-20.5 -51t20.5 -50.5t50.5 -20.5z" />
    <glyph glyph-name="amacron.alt" horiz-adv-x="1230" 
d="M600 279q74 0 124.5 48.5t51.5 123.5v135q-2 72 -51.5 119t-124.5 47q-82 0 -138 -58t-56 -178t56 -178.5t138 -58.5zM1108 0h-307v92q-113 -108 -266 -108q-70 0 -136.5 20t-126 62.5t-104.5 104t-71.5 150.5t-26.5 195q0 131 39 235t105.5 167t148 96t172.5 33
q156 0 266 -107v84h307v-1024zM872 1188h-516v213h516v-213z" />
    <glyph glyph-name="abreve.alt" horiz-adv-x="1230" 
d="M600 279q74 0 124.5 48.5t51.5 123.5v135q-2 72 -51.5 119t-124.5 47q-82 0 -138 -58t-56 -178t56 -178.5t138 -58.5zM1108 0h-307v92q-113 -108 -266 -108q-70 0 -136.5 20t-126 62.5t-104.5 104t-71.5 150.5t-26.5 195q0 131 39 235t105.5 167t148 96t172.5 33
q156 0 266 -107v84h307v-1024zM614 1141q-142 0 -229.5 78.5t-93.5 214.5h201q0 -50 35 -79.5t87 -29.5q53 0 88 29.5t35 79.5h201q-7 -137 -96 -215t-228 -78z" />
    <glyph glyph-name="aringacute.alt" horiz-adv-x="1230" 
d="M600 279q74 0 124.5 48.5t51.5 123.5v135q-2 72 -51.5 119t-124.5 47q-82 0 -138 -58t-56 -178t56 -178.5t138 -58.5zM1108 0h-307v92q-113 -108 -266 -108q-70 0 -136.5 20t-126 62.5t-104.5 104t-71.5 150.5t-26.5 195q0 131 39 235t105.5 167t148 96t172.5 33
q156 0 266 -107v84h307v-1024zM614 1110q-80 0 -136 54.5t-56 133.5t56 134t136 55t136.5 -55t56.5 -134t-56.5 -133.5t-136.5 -54.5zM614 1227q30 0 51 20.5t21 50.5t-21 51t-51 21t-50.5 -21t-20.5 -51t20.5 -50.5t50.5 -20.5zM752 1573h-265v4l127 291h375v-4z" />
    <glyph glyph-name="aogonek.alt" horiz-adv-x="1230" 
d="M600 279q74 0 124.5 48.5t51.5 123.5v135q-2 72 -51.5 119t-124.5 47q-82 0 -138 -58t-56 -178t56 -178.5t138 -58.5zM1108 0h-307v92q-113 -108 -266 -108q-70 0 -136.5 20t-126 62.5t-104.5 104t-71.5 150.5t-26.5 195q0 131 39 235t105.5 167t148 96t172.5 33
q156 0 266 -107v84h307v-1024zM938 -414q-102 0 -170 49t-68 134q0 80 56 145t176 129l176 -43q-67 -24 -115.5 -62.5t-48.5 -84.5q0 -23 14.5 -36.5t38.5 -13.5q41 0 78 29l103 -168q-102 -78 -240 -78z" />
    <glyph glyph-name="gdotaccent.alt" horiz-adv-x="1214" 
d="M592 315q71 0 119 47t49 123v105q-1 73 -49.5 119.5t-118.5 46.5q-76 0 -131 -55.5t-55 -163.5t55 -165t131 -57zM582 -418q-183 0 -314 69t-194 199l264 146q31 -69 93.5 -107.5t148.5 -38.5q180 0 180 175v73q-100 -73 -234 -73q-86 0 -165.5 32.5t-145 94
t-104.5 161.5t-39 224q0 100 25.5 184.5t69 144t101.5 101t123.5 61t134.5 19.5q158 0 258 -105v82h308v-1004q0 -116 -40 -202.5t-111 -137t-161 -74.5t-198 -24zM592 1147q-75 0 -124.5 50.5t-49.5 125.5q0 74 50.5 125t123.5 51q74 0 124 -51t50 -125q0 -75 -50 -125.5
t-124 -50.5z" />
    <glyph glyph-name="gcommaaccent.alt" horiz-adv-x="1214" 
d="M592 315q71 0 119 47t49 123v105q-1 73 -49.5 119.5t-118.5 46.5q-76 0 -131 -55.5t-55 -163.5t55 -165t131 -57zM582 -418q-183 0 -314 69t-194 199l264 146q31 -69 93.5 -107.5t148.5 -38.5q180 0 180 175v73q-100 -73 -234 -73q-86 0 -165.5 32.5t-145 94
t-104.5 161.5t-39 224q0 100 25.5 184.5t69 144t101.5 101t123.5 61t134.5 19.5q158 0 258 -105v82h308v-1004q0 -116 -40 -202.5t-111 -137t-161 -74.5t-198 -24zM557 1630h176l-86 -170q43 -17 77 -55.5t34 -95.5q0 -68 -49 -116t-113 -48q-72 0 -118 48t-46 116
q0 77 64 202z" />
    <glyph glyph-name="gbreve.alt" horiz-adv-x="1214" 
d="M592 315q71 0 119 47t49 123v105q-1 73 -49.5 119.5t-118.5 46.5q-76 0 -131 -55.5t-55 -163.5t55 -165t131 -57zM582 -418q-183 0 -314 69t-194 199l264 146q31 -69 93.5 -107.5t148.5 -38.5q180 0 180 175v73q-100 -73 -234 -73q-86 0 -165.5 32.5t-145 94
t-104.5 161.5t-39 224q0 100 25.5 184.5t69 144t101.5 101t123.5 61t134.5 19.5q158 0 258 -105v82h308v-1004q0 -116 -40 -202.5t-111 -137t-161 -74.5t-198 -24zM592 1141q-142 0 -230 78.5t-94 214.5h201q0 -50 35 -79.5t88 -29.5t88 29.5t35 79.5h200
q-7 -137 -95.5 -215t-227.5 -78z" />
    <glyph glyph-name="gcircumflex.alt" horiz-adv-x="1214" 
d="M592 315q71 0 119 47t49 123v105q-1 73 -49.5 119.5t-118.5 46.5q-76 0 -131 -55.5t-55 -163.5t55 -165t131 -57zM582 -418q-183 0 -314 69t-194 199l264 146q31 -69 93.5 -107.5t148.5 -38.5q180 0 180 175v73q-100 -73 -234 -73q-86 0 -165.5 32.5t-145 94
t-104.5 161.5t-39 224q0 100 25.5 184.5t69 144t101.5 101t123.5 61t134.5 19.5q158 0 258 -105v82h308v-1004q0 -116 -40 -202.5t-111 -137t-161 -74.5t-198 -24zM588 1262l-293 -162v237l301 174l297 -174v-237z" />
    <glyph glyph-name="jcircumflex.alt" 
d="M6 -397l-35 282q152 17 152 162v977h332v-995q0 -202 -108.5 -310.5t-340.5 -115.5zM285 1262l-293 -162v237l301 174l297 -174v-237z" />
    <glyph glyph-name="zero.percent" horiz-adv-x="966" 
d="M483 -20q-172 0 -286.5 112.5t-114.5 308.5q0 189 114 302.5t287 113.5t287.5 -113.5t114.5 -302.5q0 -192 -114.5 -306.5t-287.5 -114.5zM483 217q64 0 101 48.5t37 135.5q0 81 -38 130t-100 49q-63 0 -100 -47.5t-37 -131.5q0 -87 37.5 -135.5t99.5 -48.5z" />
    <glyph glyph-name="germandbls.alt" horiz-adv-x="1310" 
d="M453 0h-330v1012q0 112 39 202t107.5 147t158.5 87.5t195 30.5q115 0 207 -32t149 -85.5t87 -120.5t30 -141q0 -60 -17 -107.5t-41 -76t-48 -51.5t-41 -47.5t-17 -51.5q0 -35 28.5 -63t110.5 -72q92 -49 135.5 -114.5t42.5 -166.5q-3 -155 -121 -258q-117 -102 -294 -102
q-78 0 -159.5 16.5t-133.5 44.5l104 236q81 -51 148 -51q57 0 93 28.5t36 77.5q0 41 -31.5 69t-106.5 64q-92 44 -133 88t-41 129q0 48 17 90t41.5 73t49 60t41.5 63t17 69q0 77 -44 117t-109 40q-77 0 -123.5 -50.5t-46.5 -139.5v-1014z" />
    <glyph glyph-name="acute.ss01" horiz-adv-x="757" 
d="M655 1516h-553v32l549 99h4v-131z" />
    <glyph glyph-name="grave.ss01" horiz-adv-x="757" 
d="M655 1516h-553v135h4l549 -105v-30z" />
    <glyph glyph-name="circumflex.ss01" horiz-adv-x="757" 
d="M377 1540l-275 -43v41l279 113l274 -113v-41z" />
    <glyph glyph-name="caron.ss01" horiz-adv-x="757" 
d="M381 1608l274 43v-41l-278 -113l-275 113v41z" />
    <glyph glyph-name="cedilla.ss01" horiz-adv-x="579" 
d="M268 -270h-166v118h144q109 0 112 76l119 -4q-4 -100 -57.5 -145t-151.5 -45z" />
    <glyph glyph-name="ogonek.ss01" horiz-adv-x="491" 
d="M383 -145v-111h-147q-79 0 -127 33.5t-48 99.5q0 88 78 129q74 38 195 60l55 -66q-101 0 -152 -25.5t-51 -64.5q0 -55 70 -55h127z" />
    <glyph glyph-name="breve.ss01" horiz-adv-x="757" 
d="M446 1516h-135q-103 0 -156 30.5t-53 116.5h99q3 -55 96 -55h164q93 0 96 55h98q0 -45 -15 -75t-45 -45t-65 -21t-84 -6z" />
    <glyph glyph-name="dieresis.ss01" horiz-adv-x="905" 
d="M803 1516h-295v92h295v-92zM397 1516h-295v92h295v-92z" />
    <glyph glyph-name="dieresis.i.ss01" horiz-adv-x="716" 
d="M614 1516h-213v92h213v-92zM315 1516h-213v92h213v-92z" />
    <glyph glyph-name="hungarumlaut.ss01" horiz-adv-x="958" 
d="M856 1516h-326v32l322 99h4v-131zM428 1516h-326v32l322 99h4v-131z" />
    <glyph glyph-name="ring.ss01" horiz-adv-x="757" 
d="M518 1499h-278q-62 0 -100 27.5t-38 85.5t38 85t100 27h278q137 0 137 -112q0 -58 -37.5 -85.5t-99.5 -27.5zM233 1581h291q17 0 27 8.5t10 22.5q0 30 -37 30h-291q-36 0 -36 -30q0 -14 9.5 -22.5t26.5 -8.5z" />
    <glyph glyph-name="tilde.ss01" horiz-adv-x="815" 
d="M193 1499l-91 12q4 134 111 134q11 0 74 -5l280 -24q29 -2 42 8.5t14 36.5l90 -12q-4 -133 -111 -133q-24 0 -74 4l-280 24q-29 1 -41 -9t-14 -36z" />
    <glyph glyph-name="macron.ss01" horiz-adv-x="720" 
d="M618 1516h-516v92h516v-92z" />
    <glyph glyph-name="dotaccent.ss01" horiz-adv-x="421" 
d="M211 1509q-38 0 -62 22.5t-24 55.5q0 31 24.5 53.5t61.5 22.5t61.5 -22.5t24.5 -53.5q0 -33 -24 -55.5t-62 -22.5z" />
    <glyph glyph-name="commaaccent.ss01" horiz-adv-x="425" 
d="M258 -276h-156l56 165h166z" />
    <glyph glyph-name="Aacute.ss01" horiz-adv-x="1437" 
d="M717 1067h-6l-129 -418h262zM1421 0h-372l-121 348h-430l-121 -348h-361l502 1434h402zM995 1516h-553v32l549 99h4v-131z" />
    <glyph glyph-name="Acircumflex.ss01" horiz-adv-x="1437" 
d="M717 1067h-6l-129 -418h262zM1421 0h-372l-121 348h-430l-121 -348h-361l502 1434h402zM717 1540l-275 -43v41l279 113l274 -113v-41z" />
    <glyph glyph-name="Adieresis.ss01" horiz-adv-x="1437" 
d="M717 1067h-6l-129 -418h262zM1421 0h-372l-121 348h-430l-121 -348h-361l502 1434h402zM1069 1516h-295v92h295v-92zM664 1516h-295v92h295v-92z" />
    <glyph glyph-name="Agrave.ss01" horiz-adv-x="1437" 
d="M717 1067h-6l-129 -418h262zM1421 0h-372l-121 348h-430l-121 -348h-361l502 1434h402zM995 1516h-553v135h4l549 -105v-30z" />
    <glyph glyph-name="Atilde.ss01" horiz-adv-x="1437" 
d="M717 1067h-6l-129 -418h262zM1421 0h-372l-121 348h-430l-121 -348h-361l502 1434h402zM504 1499l-90 12q4 134 110 134q12 0 74 -5l281 -24q29 -1 41 9t14 36l90 -12q-4 -133 -111 -133q-23 0 -73 4l-281 24q-29 1 -41 -9t-14 -36z" />
    <glyph glyph-name="Aring.ss01" horiz-adv-x="1437" 
d="M717 1067h-6l-129 -418h262zM1421 0h-372l-121 348h-430l-121 -348h-361l502 1434h402zM858 1499h-278q-62 0 -100 27.5t-38 85.5t38 85t100 27h278q137 0 137 -112q0 -58 -37.5 -85.5t-99.5 -27.5zM573 1581h291q17 0 27 8.5t10 22.5q0 30 -37 30h-291q-36 0 -36 -30
q0 -14 9.5 -22.5t26.5 -8.5z" />
    <glyph glyph-name="Abreve.ss01" horiz-adv-x="1437" 
d="M717 1067h-6l-129 -418h262zM1421 0h-372l-121 348h-430l-121 -348h-361l502 1434h402zM786 1516h-135q-103 0 -156 30.5t-53 116.5h99q3 -55 96 -55h164q93 0 96 55h98q0 -45 -15 -75t-45 -45t-65 -21t-84 -6z" />
    <glyph glyph-name="Amacron.ss01" horiz-adv-x="1437" 
d="M717 1067h-6l-129 -418h262zM1421 0h-372l-121 348h-430l-121 -348h-361l502 1434h402zM977 1516h-516v92h516v-92z" />
    <glyph glyph-name="Aogonek.ss01" horiz-adv-x="1437" 
d="M717 1067h-6l-129 -418h262zM1421 0h-372l-121 348h-430l-121 -348h-361l502 1434h402zM1411 -145v-111h-147q-79 0 -126.5 33.5t-47.5 99.5q0 88 77 129q74 38 195 60l55 -66q-101 0 -152 -25.5t-51 -64.5q0 -55 70 -55h127z" />
    <glyph glyph-name="Aringacute.ss01" horiz-adv-x="1437" 
d="M717 1067h-6l-129 -418h262zM1421 0h-372l-121 348h-430l-121 -348h-361l502 1434h402zM858 1499h-278q-62 0 -100 27.5t-38 85.5t38 85t100 27h278q137 0 137 -112q0 -58 -37.5 -85.5t-99.5 -27.5zM573 1581h291q17 0 27 8.5t10 22.5q0 30 -37 30h-291q-36 0 -36 -30
q0 -14 9.5 -22.5t26.5 -8.5zM995 1788h-553v33l549 98h4v-131z" />
    <glyph glyph-name="AEacute.ss01" horiz-adv-x="1935" 
d="M864 1130h-30l-170 -417h225zM1853 0h-923l-25 426h-358l-172 -426h-367l596 1434h1237v-304h-641l12 -217h580v-299h-563l18 -311h606v-303zM1491 1495h-553v33l549 98h4v-131z" />
    <glyph glyph-name="Ccaron.ss01" horiz-adv-x="1478" 
d="M772 -25q-110 0 -212.5 30t-191.5 92t-155 149.5t-103.5 209.5t-37.5 265q0 172 59 314.5t157.5 233t224.5 140t263 49.5q266 0 432 -135q165 -134 209 -348l-334 -72q-22 93 -94 162q-74 74 -215 74q-67 0 -129 -27.5t-111 -78.5t-78.5 -132t-29.5 -180
q0 -107 29.5 -190.5t79.5 -133.5t111.5 -76t129.5 -26q133 0 217 76.5t111 189.5l334 -72q-46 -234 -221 -374q-178 -140 -445 -140zM778 1608l275 43v-41l-279 -113l-274 113v41z" />
    <glyph glyph-name="Ccedilla.ss01" horiz-adv-x="1478" 
d="M772 -25q-110 0 -212.5 30t-191.5 92t-155 149.5t-103.5 209.5t-37.5 265q0 172 59 314.5t157.5 233t224.5 140t263 49.5q266 0 432 -135q165 -134 209 -348l-334 -72q-22 93 -94 162q-74 74 -215 74q-67 0 -129 -27.5t-111 -78.5t-78.5 -132t-29.5 -180
q0 -107 29.5 -190.5t79.5 -133.5t111.5 -76t129.5 -26q133 0 217 76.5t111 189.5l334 -72q-46 -234 -221 -374q-178 -140 -445 -140zM664 -270h-166v118h143q110 0 113 76l118 -4q-4 -101 -57 -145.5t-151 -44.5z" />
    <glyph glyph-name="Cacute.ss01" horiz-adv-x="1478" 
d="M772 -25q-110 0 -212.5 30t-191.5 92t-155 149.5t-103.5 209.5t-37.5 265q0 172 59 314.5t157.5 233t224.5 140t263 49.5q266 0 432 -135q165 -134 209 -348l-334 -72q-22 93 -94 162q-74 74 -215 74q-67 0 -129 -27.5t-111 -78.5t-78.5 -132t-29.5 -180
q0 -107 29.5 -190.5t79.5 -133.5t111.5 -76t129.5 -26q133 0 217 76.5t111 189.5l334 -72q-46 -234 -221 -374q-178 -140 -445 -140zM1053 1516h-553v32l549 99h4v-131z" />
    <glyph glyph-name="Ccircumflex.ss01" horiz-adv-x="1478" 
d="M772 -25q-110 0 -212.5 30t-191.5 92t-155 149.5t-103.5 209.5t-37.5 265q0 172 59 314.5t157.5 233t224.5 140t263 49.5q266 0 432 -135q165 -134 209 -348l-334 -72q-22 93 -94 162q-74 74 -215 74q-67 0 -129 -27.5t-111 -78.5t-78.5 -132t-29.5 -180
q0 -107 29.5 -190.5t79.5 -133.5t111.5 -76t129.5 -26q133 0 217 76.5t111 189.5l334 -72q-46 -234 -221 -374q-178 -140 -445 -140zM774 1540l-274 -43v41l278 113l275 -113v-41z" />
    <glyph glyph-name="Cdotaccent.ss01" horiz-adv-x="1478" 
d="M772 -25q-110 0 -212.5 30t-191.5 92t-155 149.5t-103.5 209.5t-37.5 265q0 172 59 314.5t157.5 233t224.5 140t263 49.5q266 0 432 -135q165 -134 209 -348l-334 -72q-22 93 -94 162q-74 74 -215 74q-67 0 -129 -27.5t-111 -78.5t-78.5 -132t-29.5 -180
q0 -107 29.5 -190.5t79.5 -133.5t111.5 -76t129.5 -26q133 0 217 76.5t111 189.5l334 -72q-46 -234 -221 -374q-178 -140 -445 -140zM776 1509q-38 0 -62 22.5t-24 55.5q0 31 24.5 53.5t61.5 22.5t61.5 -22.5t24.5 -53.5q0 -33 -24 -55.5t-62 -22.5z" />
    <glyph glyph-name="Dcaron.ss01" horiz-adv-x="1431" 
d="M659 0h-520v1434h525q110 0 209.5 -25t189 -80t155 -136t104 -201t38.5 -267q0 -148 -39 -270.5t-105.5 -205.5t-157 -140t-190.5 -83t-209 -26zM481 1130v-827h162q172 0 266.5 109.5t94.5 312.5q0 189 -98.5 297t-268.5 108h-156zM633 1608l274 43v-41l-278 -113
l-275 113v41z" />
    <glyph glyph-name="Ecircumflex.ss01" horiz-adv-x="1226" 
d="M481 303h664v-303h-1006v1434h994v-304h-652v-217h602v-299h-602v-311zM643 1540l-274 -43v41l278 113l275 -113v-41z" />
    <glyph glyph-name="Eacute.ss01" horiz-adv-x="1226" 
d="M481 303h664v-303h-1006v1434h994v-304h-652v-217h602v-299h-602v-311zM922 1516h-553v32l549 99h4v-131z" />
    <glyph glyph-name="Edieresis.ss01" horiz-adv-x="1226" 
d="M481 303h664v-303h-1006v1434h994v-304h-652v-217h602v-299h-602v-311zM995 1516h-295v92h295v-92zM590 1516h-295v92h295v-92z" />
    <glyph glyph-name="Egrave.ss01" horiz-adv-x="1226" 
d="M481 303h664v-303h-1006v1434h994v-304h-652v-217h602v-299h-602v-311zM922 1516h-553v135h4l549 -105v-30z" />
    <glyph glyph-name="Ebreve.ss01" horiz-adv-x="1226" 
d="M481 303h664v-303h-1006v1434h994v-304h-652v-217h602v-299h-602v-311zM713 1516h-135q-103 0 -156 30.5t-53 116.5h98q3 -55 96 -55h164q93 0 96 55h99q0 -45 -15 -75t-45 -45t-65 -21t-84 -6z" />
    <glyph glyph-name="Edotaccent.ss01" horiz-adv-x="1226" 
d="M481 303h664v-303h-1006v1434h994v-304h-652v-217h602v-299h-602v-311zM645 1509q-38 0 -62 22.5t-24 55.5q0 31 24.5 53.5t61.5 22.5t61.5 -22.5t24.5 -53.5q0 -33 -24 -55.5t-62 -22.5z" />
    <glyph glyph-name="Ecaron.ss01" horiz-adv-x="1226" 
d="M481 303h664v-303h-1006v1434h994v-304h-652v-217h602v-299h-602v-311zM647 1608l275 43v-41l-279 -113l-274 113v41z" />
    <glyph glyph-name="Eogonek.ss01" horiz-adv-x="1226" 
d="M481 303h664v-303h-1006v1434h994v-304h-652v-217h602v-299h-602v-311zM1139 -145v-111h-148q-79 0 -126.5 33.5t-47.5 99.5q0 88 78 129q74 38 195 60l55 -66q-101 0 -152 -25.5t-51 -64.5q0 -55 70 -55h127z" />
    <glyph glyph-name="Emacron.ss01" horiz-adv-x="1226" 
d="M481 303h664v-303h-1006v1434h994v-304h-652v-217h602v-299h-602v-311zM903 1516h-516v92h516v-92z" />
    <glyph glyph-name="Gdotaccent.ss01" horiz-adv-x="1548" 
d="M1475 758v-74q0 -146 -39.5 -266.5t-106 -201.5t-155.5 -136t-186 -80t-200 -25q-143 0 -271 48.5t-228 139.5t-158.5 234.5t-58.5 321.5q0 174 58.5 316.5t157.5 233.5t226.5 140t269.5 49q245 0 422 -121q179 -120 238 -327l-328 -95q-28 92 -118.5 158t-213.5 66
q-70 0 -133 -27t-114 -78t-81 -132.5t-30 -182.5q0 -108 29.5 -192t80.5 -135t114.5 -77t135.5 -26q122 0 209 49.5t119 136.5h-295v283h656zM784 1509q-38 0 -62 22.5t-24 55.5q0 31 24.5 53.5t61.5 22.5t61.5 -22.5t24.5 -53.5q0 -33 -24 -55.5t-62 -22.5z" />
    <glyph glyph-name="Gbreve.ss01" horiz-adv-x="1548" 
d="M1475 758v-74q0 -146 -39.5 -266.5t-106 -201.5t-155.5 -136t-186 -80t-200 -25q-143 0 -271 48.5t-228 139.5t-158.5 234.5t-58.5 321.5q0 174 58.5 316.5t157.5 233.5t226.5 140t269.5 49q245 0 422 -121q179 -120 238 -327l-328 -95q-28 92 -118.5 158t-213.5 66
q-70 0 -133 -27t-114 -78t-81 -132.5t-30 -182.5q0 -108 29.5 -192t80.5 -135t114.5 -77t135.5 -26q122 0 209 49.5t119 136.5h-295v283h656zM852 1516h-135q-103 0 -156 30.5t-53 116.5h98q3 -55 96 -55h164q94 0 97 55h98q0 -45 -15 -75t-45 -45t-65 -21t-84 -6z" />
    <glyph glyph-name="Gcircumflex.ss01" horiz-adv-x="1548" 
d="M1475 758v-74q0 -146 -39.5 -266.5t-106 -201.5t-155.5 -136t-186 -80t-200 -25q-143 0 -271 48.5t-228 139.5t-158.5 234.5t-58.5 321.5q0 174 58.5 316.5t157.5 233.5t226.5 140t269.5 49q245 0 422 -121q179 -120 238 -327l-328 -95q-28 92 -118.5 158t-213.5 66
q-70 0 -133 -27t-114 -78t-81 -132.5t-30 -182.5q0 -108 29.5 -192t80.5 -135t114.5 -77t135.5 -26q122 0 209 49.5t119 136.5h-295v283h656zM782 1540l-274 -43v41l278 113l275 -113v-41z" />
    <glyph glyph-name="Gcommaaccent.ss01" horiz-adv-x="1548" 
d="M1475 758v-74q0 -146 -39.5 -266.5t-106 -201.5t-155.5 -136t-186 -80t-200 -25q-143 0 -271 48.5t-228 139.5t-158.5 234.5t-58.5 321.5q0 174 58.5 316.5t157.5 233.5t226.5 140t269.5 49q245 0 422 -121q179 -120 238 -327l-328 -95q-28 92 -118.5 158t-213.5 66
q-70 0 -133 -27t-114 -78t-81 -132.5t-30 -182.5q0 -108 29.5 -192t80.5 -135t114.5 -77t135.5 -26q122 0 209 49.5t119 136.5h-295v283h656zM827 -276h-155l55 165h166z" />
    <glyph glyph-name="Hcircumflex.ss01" horiz-adv-x="1544" 
d="M1405 0h-344v682h-578v-682h-344v1434h344v-449h578v449h344v-1434zM770 1540l-274 -43v41l278 113l275 -113v-41z" />
    <glyph glyph-name="Iacute.ss01" horiz-adv-x="622" 
d="M483 0h-344v1434h344v-1434zM588 1516h-553v32l549 99h4v-131z" />
    <glyph glyph-name="Idieresis.ss01" horiz-adv-x="622" 
d="M483 0h-344v1434h344v-1434zM567 1516h-213v92h213v-92zM268 1516h-213v92h213v-92z" />
    <glyph glyph-name="Icircumflex.ss01" horiz-adv-x="622" 
d="M483 0h-344v1434h344v-1434zM309 1540l-274 -43v41l278 113l275 -113v-41z" />
    <glyph glyph-name="Igrave.ss01" horiz-adv-x="622" 
d="M483 0h-344v1434h344v-1434zM588 1516h-553v135h4l549 -105v-30z" />
    <glyph glyph-name="Ibreve.ss01" horiz-adv-x="622" 
d="M483 0h-344v1434h344v-1434zM379 1516h-135q-103 0 -156 30.5t-53 116.5h98q3 -55 96 -55h164q93 0 96 55h99q0 -45 -15 -75t-45 -45t-65 -21t-84 -6z" />
    <glyph glyph-name="Itilde.ss01" horiz-adv-x="622" 
d="M483 0h-344v1434h344v-1434zM96 1499l-90 12q4 134 111 134q11 0 73 -5l281 -24q29 -1 41 9t14 36l90 -12q-4 -133 -110 -133q-24 0 -74 4l-280 24q-29 2 -42 -8.5t-14 -36.5z" />
    <glyph glyph-name="Idotaccent.ss01" horiz-adv-x="622" 
d="M483 0h-344v1434h344v-1434zM588 1516h-553v32l549 99h4v-131z" />
    <glyph glyph-name="Icaron.ss01" horiz-adv-x="622" 
d="M483 0h-344v1434h344v-1434zM313 1608l275 43v-41l-279 -113l-274 113v41z" />
    <glyph glyph-name="Iogonek.ss01" horiz-adv-x="622" 
d="M483 0h-344v1434h344v-1434zM477 -145v-111h-147q-79 0 -126.5 33.5t-47.5 99.5q0 88 77 129q74 38 195 60l55 -66q-100 0 -151 -25.5t-51 -64.5q0 -55 69 -55h127z" />
    <glyph glyph-name="Imacron.ss01" horiz-adv-x="622" 
d="M483 0h-344v1434h344v-1434zM569 1516h-516v92h516v-92z" />
    <glyph glyph-name="Jcircumflex.ss01" horiz-adv-x="1136" 
d="M508 -20q-208 0 -340.5 111.5t-155.5 322.5l332 53q7 -75 47 -121.5t117 -46.5q154 0 154 178v957h344v-955q0 -129 -37 -226t-104.5 -156t-157 -88t-199.5 -29zM836 1540l-275 -43v41l279 113l274 -113v-41z" />
    <glyph glyph-name="Kcommaaccent.ss01" horiz-adv-x="1425" 
d="M1415 0h-399l-400 715l-135 -131v-584h-342v1434h342v-457l467 457h447l-518 -484zM745 -276h-155l55 165h166z" />
    <glyph glyph-name="Lacute.ss01" horiz-adv-x="1118" 
d="M1077 0h-938v1434h344v-1131h594v-303zM588 1516h-553v32l549 99h4v-131z" />
    <glyph glyph-name="Lcommaaccent.ss01" horiz-adv-x="1118" 
d="M1077 0h-938v1434h344v-1131h594v-303zM657 -276h-155l55 165h166z" />
    <glyph glyph-name="Nacute.ss01" horiz-adv-x="1517" 
d="M1378 0h-334l-569 838v-838h-336v1434h332l571 -850v850h336v-1434zM1036 1516h-553v32l549 99h4v-131z" />
    <glyph glyph-name="Ntilde.ss01" horiz-adv-x="1517" 
d="M1378 0h-334l-569 838v-838h-336v1434h332l571 -850v850h336v-1434zM545 1499l-90 12q4 134 110 134q11 0 74 -5l281 -24q29 -1 41 9t14 36l90 -12q-4 -133 -111 -133q-23 0 -73 4l-281 24q-29 1 -41 -9t-14 -36z" />
    <glyph glyph-name="Ncommaaccent.ss01" horiz-adv-x="1517" 
d="M1378 0h-334l-569 838v-838h-336v1434h332l571 -850v850h336v-1434zM801 -276h-156l55 165h166z" />
    <glyph glyph-name="Ncaron.ss01" horiz-adv-x="1517" 
d="M1378 0h-334l-569 838v-838h-336v1434h332l571 -850v850h336v-1434zM762 1608l274 43v-41l-278 -113l-275 113v41z" />
    <glyph glyph-name="Eng.ss01" horiz-adv-x="1517" 
d="M1016 -283q-183 0 -289 95l174 217q29 -29 74 -29q67 0 67 78v16l-567 762v-856h-336v1434h332l571 -772v772h336v-1350q0 -99 -29.5 -172.5t-81.5 -114.5t-114.5 -60.5t-136.5 -19.5z" />
    <glyph glyph-name="Oacute.ss01" horiz-adv-x="1576" 
d="M788 -25q-114 0 -219 29.5t-196 91t-157.5 148.5t-105 209t-38.5 266q0 139 38.5 259t106 207t158 149t196 93t217.5 31q114 0 219.5 -30t196 -92t157.5 -148.5t105.5 -207t38.5 -261.5q0 -143 -38.5 -265t-106.5 -209t-158.5 -148.5t-195.5 -91.5t-218 -30zM788 295
q71 0 135.5 26t115.5 77t81.5 133.5t30.5 187.5q0 99 -30.5 180.5t-81.5 133t-115.5 79t-135.5 27.5q-72 0 -136 -27t-115 -78t-81 -132.5t-30 -182.5q0 -105 30 -187.5t81.5 -133.5t115.5 -77t135 -26zM1065 1516h-553v32l549 99h4v-131z" />
    <glyph glyph-name="Ocircumflex.ss01" horiz-adv-x="1576" 
d="M788 -25q-114 0 -219 29.5t-196 91t-157.5 148.5t-105 209t-38.5 266q0 139 38.5 259t106 207t158 149t196 93t217.5 31q114 0 219.5 -30t196 -92t157.5 -148.5t105.5 -207t38.5 -261.5q0 -143 -38.5 -265t-106.5 -209t-158.5 -148.5t-195.5 -91.5t-218 -30zM788 295
q71 0 135.5 26t115.5 77t81.5 133.5t30.5 187.5q0 99 -30.5 180.5t-81.5 133t-115.5 79t-135.5 27.5q-72 0 -136 -27t-115 -78t-81 -132.5t-30 -182.5q0 -105 30 -187.5t81.5 -133.5t115.5 -77t135 -26zM786 1540l-274 -43v41l279 113l274 -113v-41z" />
    <glyph glyph-name="Odieresis.ss01" horiz-adv-x="1576" 
d="M788 -25q-114 0 -219 29.5t-196 91t-157.5 148.5t-105 209t-38.5 266q0 139 38.5 259t106 207t158 149t196 93t217.5 31q114 0 219.5 -30t196 -92t157.5 -148.5t105.5 -207t38.5 -261.5q0 -143 -38.5 -265t-106.5 -209t-158.5 -148.5t-195.5 -91.5t-218 -30zM788 295
q71 0 135.5 26t115.5 77t81.5 133.5t30.5 187.5q0 99 -30.5 180.5t-81.5 133t-115.5 79t-135.5 27.5q-72 0 -136 -27t-115 -78t-81 -132.5t-30 -182.5q0 -105 30 -187.5t81.5 -133.5t115.5 -77t135 -26zM1139 1516h-295v92h295v-92zM733 1516h-295v92h295v-92z" />
    <glyph glyph-name="Ohungarumlaut.ss01" horiz-adv-x="1576" 
d="M788 -25q-114 0 -219 29.5t-196 91t-157.5 148.5t-105 209t-38.5 266q0 139 38.5 259t106 207t158 149t196 93t217.5 31q114 0 219.5 -30t196 -92t157.5 -148.5t105.5 -207t38.5 -261.5q0 -143 -38.5 -265t-106.5 -209t-158.5 -148.5t-195.5 -91.5t-218 -30zM788 295
q71 0 135.5 26t115.5 77t81.5 133.5t30.5 187.5q0 99 -30.5 180.5t-81.5 133t-115.5 79t-135.5 27.5q-72 0 -136 -27t-115 -78t-81 -132.5t-30 -182.5q0 -105 30 -187.5t81.5 -133.5t115.5 -77t135 -26zM1165 1516h-325v32l321 99h4v-131zM737 1516h-325v32l321 99h4v-131z
" />
    <glyph glyph-name="Ograve.ss01" horiz-adv-x="1576" 
d="M788 -25q-114 0 -219 29.5t-196 91t-157.5 148.5t-105 209t-38.5 266q0 139 38.5 259t106 207t158 149t196 93t217.5 31q114 0 219.5 -30t196 -92t157.5 -148.5t105.5 -207t38.5 -261.5q0 -143 -38.5 -265t-106.5 -209t-158.5 -148.5t-195.5 -91.5t-218 -30zM788 295
q71 0 135.5 26t115.5 77t81.5 133.5t30.5 187.5q0 99 -30.5 180.5t-81.5 133t-115.5 79t-135.5 27.5q-72 0 -136 -27t-115 -78t-81 -132.5t-30 -182.5q0 -105 30 -187.5t81.5 -133.5t115.5 -77t135 -26zM1065 1516h-553v135h4l549 -105v-30z" />
    <glyph glyph-name="Otilde.ss01" horiz-adv-x="1576" 
d="M788 -25q-114 0 -219 29.5t-196 91t-157.5 148.5t-105 209t-38.5 266q0 139 38.5 259t106 207t158 149t196 93t217.5 31q114 0 219.5 -30t196 -92t157.5 -148.5t105.5 -207t38.5 -261.5q0 -143 -38.5 -265t-106.5 -209t-158.5 -148.5t-195.5 -91.5t-218 -30zM788 295
q71 0 135.5 26t115.5 77t81.5 133.5t30.5 187.5q0 99 -30.5 180.5t-81.5 133t-115.5 79t-135.5 27.5q-72 0 -136 -27t-115 -78t-81 -132.5t-30 -182.5q0 -105 30 -187.5t81.5 -133.5t115.5 -77t135 -26zM573 1499l-90 12q4 134 111 134q12 0 74 -5l280 -24q29 -2 42 8.5
t14 36.5l90 -12q-4 -133 -111 -133q-24 0 -74 4l-280 24q-29 2 -42 -8.5t-14 -36.5z" />
    <glyph glyph-name="Omacron.ss01" horiz-adv-x="1576" 
d="M788 -25q-114 0 -219 29.5t-196 91t-157.5 148.5t-105 209t-38.5 266q0 139 38.5 259t106 207t158 149t196 93t217.5 31q114 0 219.5 -30t196 -92t157.5 -148.5t105.5 -207t38.5 -261.5q0 -143 -38.5 -265t-106.5 -209t-158.5 -148.5t-195.5 -91.5t-218 -30zM788 295
q71 0 135.5 26t115.5 77t81.5 133.5t30.5 187.5q0 99 -30.5 180.5t-81.5 133t-115.5 79t-135.5 27.5q-72 0 -136 -27t-115 -78t-81 -132.5t-30 -182.5q0 -105 30 -187.5t81.5 -133.5t115.5 -77t135 -26zM1047 1516h-517v92h517v-92z" />
    <glyph glyph-name="Obreve.ss01" horiz-adv-x="1576" 
d="M788 -25q-114 0 -219 29.5t-196 91t-157.5 148.5t-105 209t-38.5 266q0 139 38.5 259t106 207t158 149t196 93t217.5 31q114 0 219.5 -30t196 -92t157.5 -148.5t105.5 -207t38.5 -261.5q0 -143 -38.5 -265t-106.5 -209t-158.5 -148.5t-195.5 -91.5t-218 -30zM788 295
q71 0 135.5 26t115.5 77t81.5 133.5t30.5 187.5q0 99 -30.5 180.5t-81.5 133t-115.5 79t-135.5 27.5q-72 0 -136 -27t-115 -78t-81 -132.5t-30 -182.5q0 -105 30 -187.5t81.5 -133.5t115.5 -77t135 -26zM856 1516h-135q-103 0 -156 30.5t-53 116.5h98q3 -55 97 -55h163
q94 0 97 55h98q0 -45 -15 -75t-45 -45t-65 -21t-84 -6z" />
    <glyph glyph-name="Oslashacute.ss01" horiz-adv-x="1576" 
d="M426 719q0 -155 68 -264l434 655q-69 29 -140 29q-72 0 -136 -27t-115 -78t-81 -132.5t-30 -182.5zM788 295q71 0 135.5 26t115.5 77t81.5 133.5t30.5 187.5q0 149 -70 260l-432 -655q69 -29 139 -29zM788 -25q-177 0 -323 70l-98 -147h-242l172 258
q-106 97 -165.5 239.5t-59.5 323.5q0 139 38.5 259t106 207t158 149t196 93t217.5 31q167 0 324 -69l98 147h242l-172 -260q225 -205 225 -557q0 -143 -38.5 -265t-106.5 -209t-158.5 -148.5t-195.5 -91.5t-218 -30zM1044 1516h-552v32l548 99h4v-131z" />
    <glyph glyph-name="Rcommaaccent.ss01" horiz-adv-x="1347" 
d="M731 1130h-254v-266h256q69 0 109.5 36.5t40.5 98.5q0 57 -42.5 94t-109.5 37zM1335 0h-393l-311 571h-154v-571h-338v1434h629q199 0 332 -117t133 -307q0 -92 -26 -160.5t-85 -130.5q-53 -56 -139 -98zM723 -276h-156l56 165h165z" />
    <glyph glyph-name="Rcaron.ss01" horiz-adv-x="1347" 
d="M731 1130h-254v-266h256q69 0 109.5 36.5t40.5 98.5q0 57 -42.5 94t-109.5 37zM1335 0h-393l-311 571h-154v-571h-338v1434h629q199 0 332 -117t133 -307q0 -92 -26 -160.5t-85 -130.5q-53 -56 -139 -98zM614 1608l275 43v-41l-279 -113l-274 113v41z" />
    <glyph glyph-name="Racute.ss01" horiz-adv-x="1347" 
d="M731 1130h-254v-266h256q69 0 109.5 36.5t40.5 98.5q0 57 -42.5 94t-109.5 37zM1335 0h-393l-311 571h-154v-571h-338v1434h629q199 0 332 -117t133 -307q0 -92 -26 -160.5t-85 -130.5q-53 -56 -139 -98zM889 1516h-553v32l549 99h4v-131z" />
    <glyph glyph-name="Scaron.ss01" horiz-adv-x="1269" 
d="M641 -25q-267 0 -420 138q-155 140 -158 376l338 31q1 -131 70 -202.5t172 -71.5q99 0 158 41t59 112q0 65 -60 106.5t-204 80.5l-154 43q-90 25 -156.5 67t-105 95.5t-56.5 113t-18 127.5q0 189 142 307q143 119 387 119q242 0 385 -110q144 -111 147 -289v-29l-336 -33
v21q-1 81 -55 125.5t-143 44.5q-90 0 -139.5 -37t-49.5 -96q0 -47 37 -79t137 -61l179 -53q405 -122 405 -424q0 -202 -153 -334q-150 -129 -408 -129zM637 1608l274 43v-41l-278 -113l-275 113v41z" />
    <glyph glyph-name="Scedilla.ss01" horiz-adv-x="1269" 
d="M641 -25q-267 0 -420 138q-155 140 -158 376l338 31q1 -131 70 -202.5t172 -71.5q99 0 158 41t59 112q0 65 -60 106.5t-204 80.5l-154 43q-90 25 -156.5 67t-105 95.5t-56.5 113t-18 127.5q0 189 142 307q143 119 387 119q242 0 385 -110q144 -111 147 -289v-29l-336 -33
v21q-1 81 -55 125.5t-143 44.5q-90 0 -139.5 -37t-49.5 -96q0 -47 37 -79t137 -61l179 -53q405 -122 405 -424q0 -202 -153 -334q-150 -129 -408 -129zM532 -270h-165v118h143q110 0 113 76l118 -4q-4 -100 -57.5 -145t-151.5 -45z" />
    <glyph glyph-name="Scircumflex.ss01" horiz-adv-x="1269" 
d="M641 -25q-267 0 -420 138q-155 140 -158 376l338 31q1 -131 70 -202.5t172 -71.5q99 0 158 41t59 112q0 65 -60 106.5t-204 80.5l-154 43q-90 25 -156.5 67t-105 95.5t-56.5 113t-18 127.5q0 189 142 307q143 119 387 119q242 0 385 -110q144 -111 147 -289v-29l-336 -33
v21q-1 81 -55 125.5t-143 44.5q-90 0 -139.5 -37t-49.5 -96q0 -47 37 -79t137 -61l179 -53q405 -122 405 -424q0 -202 -153 -334q-150 -129 -408 -129zM633 1540l-275 -43v41l279 113l274 -113v-41z" />
    <glyph glyph-name="Scommaaccent.ss01" horiz-adv-x="1269" 
d="M641 -25q-267 0 -420 138q-155 140 -158 376l338 31q1 -131 70 -202.5t172 -71.5q99 0 158 41t59 112q0 65 -60 106.5t-204 80.5l-154 43q-90 25 -156.5 67t-105 95.5t-56.5 113t-18 127.5q0 189 142 307q143 119 387 119q242 0 385 -110q144 -111 147 -289v-29l-336 -33
v21q-1 81 -55 125.5t-143 44.5q-90 0 -139.5 -37t-49.5 -96q0 -47 37 -79t137 -61l179 -53q405 -122 405 -424q0 -202 -153 -334q-150 -129 -408 -129zM678 -276h-156l56 165h165z" />
    <glyph glyph-name="Sacute.ss01" horiz-adv-x="1269" 
d="M641 -25q-267 0 -420 138q-155 140 -158 376l338 31q1 -131 70 -202.5t172 -71.5q99 0 158 41t59 112q0 65 -60 106.5t-204 80.5l-154 43q-90 25 -156.5 67t-105 95.5t-56.5 113t-18 127.5q0 189 142 307q143 119 387 119q242 0 385 -110q144 -111 147 -289v-29l-336 -33
v21q-1 81 -55 125.5t-143 44.5q-90 0 -139.5 -37t-49.5 -96q0 -47 37 -79t137 -61l179 -53q405 -122 405 -424q0 -202 -153 -334q-150 -129 -408 -129zM911 1516h-553v32l549 99h4v-131z" />
    <glyph glyph-name="Tcaron.ss01" horiz-adv-x="1249" 
d="M1208 1434v-304h-411v-1130h-344v1130h-412v304h1167zM627 1608l274 43v-41l-278 -113l-275 113v41z" />
    <glyph glyph-name="Tcommaaccent.ss01" horiz-adv-x="1249" 
d="M1208 1434v-304h-411v-1130h-344v1130h-412v304h1167zM662 -276h-156l55 165h166z" />
    <glyph glyph-name="Uacute.ss01" horiz-adv-x="1445" 
d="M721 -25q-265 0 -430 142q-162 140 -162 436v881h344v-863q0 -129 67 -202.5t183 -73.5q118 0 184 72t66 202v865h344v-879q0 -284 -160.5 -432t-435.5 -148zM999 1516h-553v32l549 99h4v-131z" />
    <glyph glyph-name="Ucircumflex.ss01" horiz-adv-x="1445" 
d="M721 -25q-265 0 -430 142q-162 140 -162 436v881h344v-863q0 -129 67 -202.5t183 -73.5q118 0 184 72t66 202v865h344v-879q0 -284 -160.5 -432t-435.5 -148zM721 1540l-275 -43v41l279 113l274 -113v-41z" />
    <glyph glyph-name="Udieresis.ss01" horiz-adv-x="1445" 
d="M721 -25q-265 0 -430 142q-162 140 -162 436v881h344v-863q0 -129 67 -202.5t183 -73.5q118 0 184 72t66 202v865h344v-879q0 -284 -160.5 -432t-435.5 -148zM1073 1516h-295v92h295v-92zM668 1516h-295v92h295v-92z" />
    <glyph glyph-name="Ugrave.ss01" horiz-adv-x="1445" 
d="M721 -25q-265 0 -430 142q-162 140 -162 436v881h344v-863q0 -129 67 -202.5t183 -73.5q118 0 184 72t66 202v865h344v-879q0 -284 -160.5 -432t-435.5 -148zM999 1516h-553v135h5l548 -105v-30z" />
    <glyph glyph-name="Uhungarumlaut.ss01" horiz-adv-x="1445" 
d="M721 -25q-265 0 -430 142q-162 140 -162 436v881h344v-863q0 -129 67 -202.5t183 -73.5q118 0 184 72t66 202v865h344v-879q0 -284 -160.5 -432t-435.5 -148zM1100 1516h-326v32l322 99h4v-131zM672 1516h-326v32l322 99h4v-131z" />
    <glyph glyph-name="Uring.ss01" horiz-adv-x="1445" 
d="M721 -25q-265 0 -430 142q-162 140 -162 436v881h344v-863q0 -129 67 -202.5t183 -73.5q118 0 184 72t66 202v865h344v-879q0 -284 -160.5 -432t-435.5 -148zM862 1499h-278q-62 0 -100 27.5t-38 85.5t38 85t100 27h278q137 0 137 -112q0 -58 -37.5 -85.5t-99.5 -27.5z
M578 1581h290q17 0 27 8.5t10 22.5q0 30 -37 30h-290q-37 0 -37 -30q0 -14 10 -22.5t27 -8.5z" />
    <glyph glyph-name="Umacron.ss01" horiz-adv-x="1445" 
d="M721 -25q-265 0 -430 142q-162 140 -162 436v881h344v-863q0 -129 67 -202.5t183 -73.5q118 0 184 72t66 202v865h344v-879q0 -284 -160.5 -432t-435.5 -148zM981 1516h-516v92h516v-92z" />
    <glyph glyph-name="Ubreve.ss01" horiz-adv-x="1445" 
d="M721 -25q-265 0 -430 142q-162 140 -162 436v881h344v-863q0 -129 67 -202.5t183 -73.5q118 0 184 72t66 202v865h344v-879q0 -284 -160.5 -432t-435.5 -148zM791 1516h-136q-103 0 -156 30.5t-53 116.5h99q3 -55 96 -55h164q93 0 96 55h98q0 -86 -53 -116.5t-155 -30.5z
" />
    <glyph glyph-name="Utilde.ss01" horiz-adv-x="1445" 
d="M721 -25q-265 0 -430 142q-162 140 -162 436v881h344v-863q0 -129 67 -202.5t183 -73.5q118 0 184 72t66 202v865h344v-879q0 -284 -160.5 -432t-435.5 -148zM508 1499l-90 12q4 134 110 134q12 0 74 -5l281 -24q29 -1 41 9t14 36l90 -12q-4 -133 -110 -133q-24 0 -74 4
l-281 24q-29 1 -41 -9t-14 -36z" />
    <glyph glyph-name="Uogonek.ss01" horiz-adv-x="1445" 
d="M967 -145v-111h-148q-79 0 -126.5 33.5t-47.5 99.5q0 60 41 98q-261 8 -409 153t-148 425v881h344v-863q0 -129 67 -202.5t183 -73.5q118 0 184 72t66 202v865h344v-879q0 -244 -118 -387.5t-327 -179.5q-55 -12 -78.5 -30t-23.5 -48q0 -55 70 -55h127z" />
    <glyph glyph-name="Wdieresis.ss01" horiz-adv-x="1857" 
d="M1499 0h-319l-250 596l-252 -596h-320l-333 1434h350l207 -942l252 604h202l252 -604l207 942h338zM1280 1505h-295v92h295v-92zM874 1505h-294v92h294v-92z" />
    <glyph glyph-name="Wacute.ss01" horiz-adv-x="1857" 
d="M1499 0h-319l-250 596l-252 -596h-320l-333 1434h350l207 -942l252 604h202l252 -604l207 942h338zM1206 1505h-553v33l549 98h4v-131z" />
    <glyph glyph-name="Wgrave.ss01" horiz-adv-x="1857" 
d="M1499 0h-319l-250 596l-252 -596h-320l-333 1434h350l207 -942l252 604h202l252 -604l207 942h338zM1206 1505h-553v135h4l549 -104v-31z" />
    <glyph glyph-name="Wcircumflex.ss01" horiz-adv-x="1857" 
d="M1499 0h-319l-250 596l-252 -596h-320l-333 1434h350l207 -942l252 604h202l252 -604l207 942h338zM928 1530l-275 -43v41l279 112l274 -112v-41z" />
    <glyph glyph-name="Yacute.ss01" horiz-adv-x="1282" 
d="M813 739v-739h-344v739l-461 695h398l245 -383l246 383h377zM918 1505h-553v33l548 98h5v-131z" />
    <glyph glyph-name="Ydieresis.ss01" horiz-adv-x="1282" 
d="M813 739v-739h-344v739l-461 695h398l245 -383l246 383h377zM991 1505h-295v92h295v-92zM586 1505h-295v92h295v-92z" />
    <glyph glyph-name="Ygrave.ss01" horiz-adv-x="1282" 
d="M813 739v-739h-344v739l-461 695h398l245 -383l246 383h377zM918 1505h-553v135h4l549 -104v-31z" />
    <glyph glyph-name="Ycircumflex.ss01" horiz-adv-x="1282" 
d="M813 739v-739h-344v739l-461 695h398l245 -383l246 383h377zM639 1530l-274 -43v41l278 112l275 -112v-41z" />
    <glyph glyph-name="Zcaron.ss01" horiz-adv-x="1220" 
d="M1161 303v-303h-1110v242l656 888h-623v304h1055v-242l-652 -889h674zM594 1608l274 43v-41l-278 -113l-275 113v41z" />
    <glyph glyph-name="Zdotaccent.ss01" horiz-adv-x="1220" 
d="M1161 303v-303h-1110v242l656 888h-623v304h1055v-242l-652 -889h674zM592 1509q-38 0 -62 22.5t-24 55.5q0 31 24.5 53.5t61.5 22.5t61.5 -22.5t24.5 -53.5q0 -33 -24 -55.5t-62 -22.5z" />
    <glyph glyph-name="Zacute.ss01" horiz-adv-x="1220" 
d="M1161 303v-303h-1110v242l656 888h-623v304h1055v-242l-652 -889h674zM868 1516h-553v32l549 99h4v-131z" />
    </font>
</defs>
</svg>
